<?xml version="1.0" standalone="no"?>
<!DOCTYPE svg PUBLIC "-//W3C//DTD SVG 20010904//EN"
 "http://www.w3.org/TR/2001/REC-SVG-20010904/DTD/svg10.dtd">
<svg version="1.0" xmlns="http://www.w3.org/2000/svg"
 width="410.000000pt" height="728.000000pt" viewBox="0 0 410.000000 728.000000"
 preserveAspectRatio="xMidYMid meet">
<metadata>
Created by potrace 1.16, written by Peter Selinger 2001-2019
</metadata>
<g transform="translate(0.000000,728.000000) scale(0.100000,-0.100000)"
fill="#000000" stroke="none">
<path d="M2305 7260 c-3 -10 -10 -43 -16 -72 -19 -106 -31 -174 -39 -218 -32
-167 -49 -274 -44 -281 3 -5 15 -9 27 -9 12 0 28 -4 36 -9 12 -8 12 -12 2 -25
-7 -9 -17 -13 -22 -10 -5 3 -9 1 -9 -4 0 -14 37 -22 107 -22 34 0 63 -3 65 -7
2 -5 34 -6 72 -5 78 4 73 22 -7 22 l-48 0 3 38 c2 30 7 37 23 36 27 -2 178
-24 181 -27 1 -1 -1 -17 -3 -34 -5 -28 -9 -33 -34 -33 -53 0 -38 -17 21 -24
33 -4 60 -11 60 -16 0 -6 30 -10 66 -10 37 0 63 -4 59 -9 -14 -24 112 -24 140
-1 6 5 39 4 75 -1 36 -4 107 -14 158 -21 50 -6 92 -16 92 -21 0 -4 -10 -5 -22
-2 -23 7 -23 7 -3 -9 11 -8 31 -15 45 -16 20 0 22 2 10 10 -18 12 -11 13 65
10 65 -2 77 -6 55 -20 -24 -15 -5 -22 62 -25 35 -2 80 -6 100 -10 20 -4 50 -4
67 0 28 6 31 10 31 46 l0 39 41 0 c38 0 154 -16 188 -26 11 -4 12 -7 3 -16 -7
-7 -12 -20 -12 -30 0 -10 -7 -21 -16 -25 -24 -9 3 -23 45 -23 40 0 111 -20
111 -31 0 -4 -10 -11 -21 -14 -15 -5 -25 -2 -31 9 -7 12 -24 16 -67 16 -32 0
-60 3 -64 6 -3 4 -23 8 -44 10 -81 8 -109 12 -126 19 -10 4 -24 2 -32 -5 -11
-9 -33 -11 -73 -6 -102 13 -196 25 -267 36 -38 6 -99 14 -135 17 -36 2 -69 8
-75 12 -5 4 -39 8 -75 10 -36 1 -69 7 -74 12 -6 5 -40 9 -76 9 -36 0 -70 4
-75 9 -6 5 -39 12 -75 14 -36 3 -81 8 -100 11 -19 2 -53 6 -75 7 -22 1 -44 4
-50 8 -5 3 -17 6 -25 7 -8 1 -51 7 -95 13 -209 26 -240 29 -243 20 -2 -5 -17
-9 -34 -9 -25 0 -28 -3 -23 -20 6 -18 4 -19 -20 -10 -36 14 -45 13 -45 -5 0
-10 -10 -15 -27 -15 -16 0 -41 -7 -57 -15 -15 -8 -41 -15 -57 -15 -16 0 -29
-4 -29 -8 0 -4 -20 -14 -45 -21 -52 -15 -51 -26 2 -35 77 -12 170 -26 243 -36
41 -5 107 -15 145 -20 39 -6 102 -15 140 -20 39 -5 99 -14 135 -19 36 -6 97
-16 135 -21 39 -6 97 -14 130 -20 33 -6 92 -15 130 -20 39 -6 97 -15 130 -20
33 -5 94 -13 135 -19 41 -6 91 -15 110 -21 36 -12 125 -26 237 -38 34 -4 65
-11 70 -16 13 -14 -146 2 -342 33 -281 46 -355 54 -429 47 -38 -4 -74 -10 -80
-15 -30 -24 -296 -39 -361 -21 -23 6 -94 12 -158 13 -109 2 -147 10 -94 20 19
4 18 4 -5 6 -16 0 -28 6 -28 12 0 7 -8 18 -17 26 -10 8 -13 12 -6 9 6 -4 15
-1 20 7 4 7 21 18 36 25 37 16 28 28 -30 36 -27 4 -70 11 -98 16 -69 12 -181
29 -237 36 -38 5 -48 11 -48 25 0 20 -15 25 -25 9 -3 -5 -16 -10 -29 -10 -12
0 -26 -4 -32 -8 -5 -5 -29 -14 -54 -21 -25 -7 -54 -17 -65 -21 -11 -4 -54 -18
-95 -31 -41 -13 -81 -30 -88 -39 -18 -21 -9 -130 12 -142 8 -5 13 -14 10 -21
-6 -16 39 -34 106 -42 30 -3 91 -12 135 -20 91 -16 256 -44 330 -56 28 -4 118
-19 200 -33 83 -14 224 -36 315 -50 91 -14 190 -30 220 -36 30 -5 105 -17 165
-26 61 -9 189 -29 287 -45 249 -41 291 -39 399 20 9 5 75 39 147 75 72 37 134
71 137 76 3 6 14 10 24 10 10 0 49 15 87 34 38 18 108 52 157 74 l87 41 0 60
0 59 -25 -11 c-14 -7 -25 -15 -25 -19 0 -5 -11 -8 -24 -8 -31 0 -78 -18 -88
-33 -4 -6 -23 -10 -42 -9 -20 2 -36 -2 -36 -8 0 -5 -9 -10 -19 -10 -11 0 -23
-4 -26 -10 -3 -5 -15 -10 -26 -10 -10 0 -19 -4 -19 -10 0 -5 -9 -10 -20 -10
-11 0 -20 -4 -20 -10 0 -5 -6 -10 -13 -10 -8 0 -24 -11 -36 -24 -13 -13 -34
-27 -47 -30 -14 -4 -59 -22 -100 -42 -102 -48 -122 -55 -129 -45 -3 5 30 26
72 46 43 21 105 51 138 68 82 42 77 39 196 96 59 28 110 51 115 51 5 0 46 18
91 40 l83 41 0 469 0 470 -894 0 c-879 0 -895 0 -901 -20z m880 -565 c23 0 31
-5 33 -21 4 -25 -22 -49 -40 -37 -7 4 -24 8 -38 8 -19 0 -24 5 -22 20 5 37 12
46 24 38 7 -4 26 -7 43 -8z m605 -105 c12 -8 9 -10 -13 -10 -16 0 -26 4 -22
10 8 12 16 12 35 0z m-1590 -120 c0 -5 -4 -10 -9 -10 -6 0 -13 5 -16 10 -3 6
1 10 9 10 9 0 16 -4 16 -10z m-65 -30 c3 -6 -4 -10 -17 -10 -18 0 -20 2 -8 10
19 12 18 12 25 0z m-90 -100 c3 -5 -1 -10 -9 -10 -8 0 -18 5 -21 10 -3 6 1 10
9 10 8 0 18 -4 21 -10z m-327 -47 c-10 -2 -26 -2 -35 0 -10 3 -2 5 17 5 19 0
27 -2 18 -5z m292 -3 c0 -5 -10 -10 -22 -9 -22 0 -22 1 -3 9 11 5 21 9 23 9 1
1 2 -3 2 -9z m-120 -20 c0 -13 -11 -13 -30 0 -12 8 -11 10 8 10 12 0 22 -4 22
-10z m140 -22 c22 -24 26 -38 10 -38 -5 0 -10 7 -10 15 0 10 -10 15 -34 15
-34 0 -52 11 -39 24 14 13 53 5 73 -16z m165 -37 c-3 -5 5 -12 17 -14 13 -2 6
-3 -16 -2 -50 4 -73 25 -27 25 18 0 30 -4 26 -9z m1475 -21 c0 -5 -7 -10 -16
-10 -8 0 -12 5 -9 10 3 6 10 10 16 10 5 0 9 -4 9 -10z m-50 -10 c0 -5 -7 -10
-16 -10 -8 0 -12 5 -9 10 3 6 10 10 16 10 5 0 9 -4 9 -10z m-1326 -60 c76 -11
98 -23 89 -47 -5 -12 -15 -14 -47 -9 -23 3 -68 10 -101 15 -67 10 -115 26
-115 39 0 26 22 26 174 2z m1072 -40 c19 0 34 -4 34 -10 0 -5 -8 -10 -18 -10
-10 0 -27 -7 -38 -15 -21 -16 -38 -20 -30 -6 7 11 -17 21 -52 21 -26 1 -26 1
-7 16 13 10 31 13 49 10 16 -3 44 -6 62 -6z m-146 -9 c0 -12 -34 -17 -77 -12
-54 5 -37 21 22 21 30 0 55 -4 55 -9z"/>
<path d="M1810 6510 c0 -5 7 -10 15 -10 8 0 15 5 15 10 0 6 -7 10 -15 10 -8 0
-15 -4 -15 -10z"/>
<path d="M2950 6510 c0 -6 32 -10 75 -10 43 0 75 -4 75 -10 0 -5 20 -10 44
-10 25 0 48 5 51 10 4 6 -13 10 -44 10 -28 0 -51 5 -51 10 0 6 -32 10 -75 10
-43 0 -75 -4 -75 -10z"/>
<path d="M1750 6490 c0 -5 7 -10 15 -10 8 0 15 5 15 10 0 6 -7 10 -15 10 -8 0
-15 -4 -15 -10z"/>
<path d="M3355 6470 c3 -5 15 -10 26 -10 11 0 17 5 14 10 -3 6 -15 10 -26 10
-11 0 -17 -4 -14 -10z"/>
<path d="M3750 6430 c0 -5 25 -10 56 -10 34 0 53 4 49 10 -3 6 -28 10 -56 10
-27 0 -49 -4 -49 -10z"/>
<path d="M2275 6303 c-112 -10 -111 -25 3 -47 165 -33 327 -31 327 4 0 15 -18
19 -175 39 -76 10 -85 10 -155 4z"/>
<path d="M985 6150 c-3 -6 5 -10 19 -10 14 0 28 5 31 10 3 6 -5 10 -19 10 -14
0 -28 -4 -31 -10z"/>
<path d="M1110 6130 c0 -5 12 -10 26 -10 14 0 23 4 19 10 -3 6 -15 10 -26 10
-10 0 -19 -4 -19 -10z"/>
<path d="M1250 6110 c0 -5 9 -10 19 -10 11 0 23 5 26 10 4 6 -5 10 -19 10 -14
0 -26 -4 -26 -10z"/>
<path d="M1370 6090 c0 -5 16 -10 35 -10 19 0 35 5 35 10 0 6 -16 10 -35 10
-19 0 -35 -4 -35 -10z"/>
<path d="M1505 6070 c7 -12 45 -14 45 -2 0 4 -11 9 -26 10 -14 1 -23 -2 -19
-8z"/>
<path d="M1630 6050 c0 -5 12 -10 26 -10 14 0 23 4 19 10 -3 6 -15 10 -26 10
-10 0 -19 -4 -19 -10z"/>
<path d="M525 5930 c-8 -12 42 -12 70 0 16 7 11 9 -22 9 -23 1 -45 -3 -48 -9z"/>
<path d="M365 5920 c3 -5 13 -10 21 -10 8 0 14 5 14 10 0 6 -9 10 -21 10 -11
0 -17 -4 -14 -10z"/>
<path d="M434 5899 c-8 -13 13 -29 38 -29 9 0 20 -4 23 -10 3 -5 15 -10 26
-10 17 0 16 4 -11 30 -31 31 -63 39 -76 19z"/>
<path d="M34 5817 c6 -26 19 -236 36 -572 5 -99 12 -210 16 -246 l7 -67 61
-12 c84 -16 86 -17 87 -37 0 -10 2 -34 4 -53 1 -19 6 -154 10 -300 6 -253 11
-335 35 -585 6 -60 8 -121 4 -135 -4 -14 -6 -29 -5 -35 6 -23 10 -301 5 -317
-3 -10 -10 -16 -15 -13 -5 4 -9 1 -9 -4 0 -6 5 -11 11 -11 6 0 7 -5 2 -12 -12
-20 -3 -242 10 -250 16 -10 11 -178 -5 -194 -5 -4 -8 -47 -8 -95 0 -65 -4 -92
-15 -103 -8 -8 -15 -17 -15 -20 0 -3 -9 -15 -20 -26 -11 -11 -23 -34 -26 -50
-7 -34 -44 -72 -51 -52 -16 44 -58 -25 -57 -91 1 -21 -1 -35 -4 -32 -6 6 -22
-19 -53 -85 -12 -25 -26 -46 -30 -48 -5 -2 -9 -537 -9 -1188 l0 -1184 1789 0
1788 0 6 48 c4 26 9 135 12 242 3 107 8 224 10 260 4 63 10 205 20 475 3 72
10 204 16 295 5 91 14 298 20 460 11 324 23 661 38 1015 6 127 13 311 16 410
3 99 10 244 15 322 6 78 10 186 11 240 0 54 6 150 13 213 13 131 -3 119 131
102 39 -5 72 -7 75 -5 3 3 8 77 12 166 13 318 36 633 48 662 5 11 11 64 13
117 l5 97 -36 6 c-20 3 -59 10 -85 15 -27 6 -64 10 -82 10 -19 0 -36 4 -39 9
-3 5 -29 11 -58 15 -51 5 -112 15 -228 36 -30 5 -84 15 -120 21 -36 6 -87 14
-115 19 -27 5 -72 12 -100 15 -27 4 -59 10 -70 15 -11 5 -40 11 -65 14 -42 5
-77 11 -210 36 -30 5 -82 14 -115 20 -33 5 -80 14 -105 19 -126 26 -169 34
-215 41 -60 10 -152 26 -220 40 -27 6 -75 14 -105 20 -30 5 -80 14 -110 20
-30 5 -80 14 -110 19 -161 27 -197 33 -215 41 -42 17 -104 31 -205 46 -58 9
-130 20 -160 25 -120 18 -274 47 -430 79 -87 18 -183 36 -310 59 -30 5 -80 15
-110 21 -54 12 -100 21 -210 41 -30 5 -84 12 -119 16 l-64 6 7 -26z m381 -228
c4 -6 11 -52 16 -102 9 -87 14 -132 17 -150 4 -18 22 6 23 31 2 24 2 24 6 5 4
-22 33 -33 33 -13 0 6 -4 10 -9 10 -13 0 -23 38 -25 91 -1 32 2 46 12 46 7 0
11 -6 8 -13 -3 -8 -1 -16 4 -19 5 -3 7 -20 3 -37 -5 -28 -4 -30 16 -23 18 5
21 2 21 -19 0 -14 5 -26 11 -26 7 0 9 13 5 38 -12 71 -11 115 1 119 7 3 27 -9
44 -26 17 -17 35 -31 41 -31 6 0 8 -7 4 -15 -8 -21 3 -45 20 -45 8 0 14 4 14
9 0 5 11 11 25 13 21 5 25 1 26 -21 0 -14 4 -35 9 -46 7 -18 9 -16 15 13 14
62 32 37 40 -54 4 -47 9 -84 11 -81 6 5 9 229 3 247 -3 12 6 15 51 13 30 0 78
-6 105 -11 28 -5 91 -17 140 -26 50 -9 122 -24 160 -32 39 -9 86 -18 105 -21
19 -2 44 -8 55 -13 11 -5 36 -11 55 -15 19 -3 55 -10 80 -15 25 -5 83 -16 130
-25 47 -10 94 -21 105 -26 11 -4 38 -10 60 -13 22 -3 63 -9 90 -15 28 -5 77
-14 110 -20 33 -5 87 -15 120 -20 33 -6 63 -11 66 -11 4 0 7 -17 7 -37 0 -57
1 -58 15 -38 19 25 29 4 14 -28 -7 -16 -23 -29 -39 -33 -25 -5 -28 -10 -28
-44 0 -21 -4 -42 -10 -45 -5 -3 -10 2 -10 11 0 16 -2 15 -21 -2 -11 -10 -16
-20 -10 -22 6 -2 11 -12 11 -22 0 -12 -10 -19 -37 -24 -66 -10 -96 -8 -89 9 5
15 -28 45 -52 45 -7 0 -20 -7 -28 -15 -9 -8 -20 -15 -25 -15 -5 0 -9 7 -9 15
0 20 -6 19 -28 -3 -10 -10 -16 -24 -14 -30 2 -7 -6 -12 -17 -12 -12 0 -21 5
-21 12 0 6 -9 3 -21 -8 -11 -10 -16 -20 -10 -22 13 -4 -9 -42 -26 -42 -6 0
-14 -6 -17 -12 -3 -7 -3 -2 0 12 4 22 3 23 -8 9 -7 -9 -26 -23 -43 -32 -30
-16 -30 -16 -5 -17 l25 -1 -27 -17 c-31 -19 -35 -30 -13 -38 8 -4 15 -10 15
-15 0 -14 -28 -11 -34 4 -3 6 -4 3 -1 -8 3 -11 -6 -42 -20 -69 -14 -27 -25
-60 -25 -73 0 -13 -6 -23 -14 -23 -7 0 -25 -11 -40 -25 -23 -21 -26 -31 -21
-55 6 -25 3 -31 -16 -38 -22 -9 -22 -9 7 -17 16 -4 52 -8 79 -10 28 -1 59 -5
71 -8 21 -8 22 -6 27 48 1 14 3 25 5 25 10 0 32 -31 30 -42 -2 -8 13 -17 40
-22 33 -8 42 -14 41 -30 -1 -17 -2 -18 -6 -3 -2 9 -8 17 -13 17 -5 0 -6 -31
-3 -69 5 -66 5 -69 -17 -73 -21 -3 -22 -8 -22 -86 -1 -84 6 -108 22 -83 7 12
11 12 24 -1 14 -15 11 -16 -30 -20 -25 -2 -48 0 -51 5 -10 16 -23 -6 -23 -38
0 -21 -6 -37 -17 -43 -33 -19 17 -31 97 -24 64 6 75 10 78 27 2 11 16 34 32
50 25 27 28 38 32 118 3 65 1 90 -9 98 -7 7 -13 17 -13 23 0 6 -9 18 -20 26
-19 14 -30 67 -11 55 5 -3 13 -1 16 5 4 6 19 10 33 9 90 -7 117 0 157 41 22
21 46 39 53 40 6 0 12 5 12 10 0 6 9 10 19 10 11 0 21 5 23 11 3 8 9 6 20 -4
21 -22 28 -12 28 39 0 24 5 46 12 50 11 7 7 -427 -8 -821 -7 -211 -9 -215 -70
-215 -28 0 -32 16 -5 23 15 4 20 17 24 78 3 41 8 85 11 99 12 50 -44 78 -59
30 -10 -30 -47 -37 -63 -11 -8 11 -23 21 -34 21 -14 0 -18 5 -13 19 4 14 -1
20 -20 25 -14 4 -35 18 -47 31 -24 28 -58 33 -58 10 0 -9 -6 -18 -14 -21 -8
-3 -12 -12 -9 -20 3 -8 1 -14 -5 -14 -17 0 -7 -81 11 -95 21 -15 22 -61 2 -81
-8 -9 -15 -26 -15 -38 0 -18 9 -25 43 -36 23 -7 49 -15 57 -18 8 -2 23 -6 34
-7 10 -1 23 -9 28 -19 5 -9 13 -14 19 -11 5 4 9 -17 9 -48 0 -53 -29 -126 -66
-168 -8 -8 -14 -32 -14 -51 0 -27 6 -40 26 -53 23 -14 26 -22 21 -54 -3 -24 0
-41 10 -50 14 -12 13 -16 -7 -31 -15 -11 -19 -19 -11 -24 7 -5 8 -13 1 -25 -5
-10 -7 -21 -4 -24 6 -6 155 92 166 109 4 6 35 17 69 24 38 8 63 19 67 30 13
30 67 110 75 110 5 0 22 9 38 21 27 19 34 18 30 -4 -1 -5 3 -6 9 -2 6 3 7 11
4 17 -4 6 0 16 8 22 21 16 52 66 40 66 -5 0 -24 -13 -42 -30 -18 -16 -35 -30
-39 -30 -3 0 -20 -14 -38 -30 -18 -17 -40 -30 -49 -30 -15 0 -16 15 -10 173 4
94 11 370 16 612 13 560 27 1005 36 1073 6 52 8 54 33 47 32 -8 113 -22 185
-33 30 -4 61 -13 69 -20 8 -7 22 -10 31 -6 22 9 20 -9 -3 -23 -16 -10 -19 -27
-21 -140 -3 -156 -5 -183 -15 -299 -5 -64 -4 -93 4 -98 6 -4 11 0 12 11 2 30
17 -27 18 -68 1 -29 -3 -38 -19 -42 -19 -5 -20 -12 -18 -97 2 -83 4 -91 21
-86 21 5 57 -26 57 -49 0 -8 4 -23 9 -33 18 -35 31 -69 59 -155 26 -78 28 -90
15 -103 -19 -19 -9 -44 17 -44 11 0 20 -4 20 -10 0 -13 -26 -13 -51 0 -20 11
-27 50 -9 50 6 0 10 5 10 10 0 6 -7 10 -15 10 -8 0 -15 -5 -15 -12 0 -6 -13 1
-30 17 -16 16 -30 34 -30 41 0 6 -13 52 -30 102 -17 50 -30 104 -31 119 0 28
0 28 -11 5 -11 -21 -1 -95 28 -212 4 -20 3 -22 -5 -10 -6 8 -11 23 -11 33 0
10 -5 15 -10 12 -12 -8 -13 -112 -1 -119 5 -3 15 8 23 25 12 24 17 27 27 16 8
-11 8 -27 -1 -66 -12 -54 -25 -66 -30 -28 -5 39 -23 23 -30 -28 -3 -27 -11
-69 -16 -92 -5 -24 -10 -83 -11 -133 -2 -84 -1 -90 18 -90 11 0 25 -9 31 -19
14 -27 13 -28 -18 -23 -26 3 -31 -1 -50 -41 -24 -52 -41 -113 -22 -84 6 9 17
17 25 17 7 0 15 3 17 8 12 28 190 164 243 185 15 6 13 1 -9 -22 -33 -35 -29
-61 9 -61 15 0 35 -5 46 -11 12 -6 43 -12 70 -13 28 -2 56 -9 67 -19 10 -9 27
-17 37 -17 18 0 57 -9 152 -37 51 -14 93 -11 93 8 0 5 7 9 15 9 18 0 20 -16 4
-26 -16 -9 20 -27 99 -49 l62 -18 2 -61 c2 -55 1 -92 -3 -121 -1 -5 2 -18 6
-27 6 -15 2 -18 -19 -18 -14 0 -26 -4 -26 -10 0 -5 4 -10 10 -10 5 0 12 -17
15 -37 4 -21 9 -46 12 -56 4 -15 1 -18 -16 -12 -24 7 -26 2 -9 -28 12 -22 13
-457 2 -504 -6 -24 -54 -53 -88 -53 -25 0 -41 -10 -48 -31 -5 -13 1 -14 41 -8
25 3 54 10 64 14 14 6 17 2 17 -24 0 -20 -5 -31 -14 -31 -8 0 -22 -7 -31 -16
-9 -9 -19 -14 -22 -11 -3 4 -28 -5 -55 -19 -36 -18 -53 -22 -62 -15 -7 6 -15
8 -18 5 -8 -8 -88 17 -88 28 0 4 -22 8 -50 8 -27 0 -50 4 -50 8 0 10 -60 32
-88 32 -11 0 -31 4 -44 9 -13 5 -57 19 -98 31 -41 12 -86 25 -100 30 -14 4
-44 13 -67 19 -92 24 -131 35 -193 54 -36 11 -71 21 -79 23 -8 3 -11 12 -8 25
4 16 -2 24 -28 35 -47 19 -68 18 -85 -6 -17 -24 -30 -26 -30 -4 0 11 -6 13
-19 9 -11 -3 -28 -2 -38 4 -10 5 -38 14 -63 21 -25 7 -55 16 -68 21 -13 5 -32
9 -43 9 -10 0 -27 4 -37 9 -9 5 -37 14 -62 21 -25 7 -55 16 -68 21 -13 5 -36
9 -52 9 -17 0 -30 5 -30 10 0 6 -7 10 -15 10 -29 0 -95 25 -92 35 2 5 14 15
28 22 13 7 28 18 34 25 5 8 26 25 45 38 39 27 60 46 60 54 0 3 -42 -26 -92
-65 -81 -61 -97 -69 -125 -64 -86 13 -104 18 -109 26 -3 5 -18 9 -33 9 -15 0
-31 4 -36 8 -6 5 -43 16 -83 26 l-73 19 -67 -46 c-37 -26 -86 -60 -110 -77
-23 -16 -47 -30 -52 -30 -6 0 -10 -4 -10 -10 0 -5 -6 -10 -14 -10 -8 0 -16 -3
-18 -7 -4 -11 -65 -53 -76 -53 -5 0 -17 -9 -27 -20 -10 -12 -25 -18 -33 -15
-16 6 -49 -10 -80 -41 -13 -12 -37 -29 -55 -38 -18 -9 -59 -37 -92 -62 -33
-25 -73 -53 -89 -62 -16 -9 -42 -28 -58 -41 -20 -17 -32 -21 -40 -13 -5 5 -12
66 -14 134 -2 67 -8 213 -14 323 -5 110 -14 310 -20 445 -6 135 -15 353 -20
485 -6 132 -13 287 -16 345 -3 58 -10 209 -15 335 -19 458 -28 630 -33 655 -3
14 -8 113 -10 220 -3 107 -7 224 -10 259 -6 69 0 81 41 81 12 0 25 -5 28 -11z
m1878 -366 c9 -9 -13 -34 -24 -27 -14 8 -11 34 4 34 8 0 17 -3 20 -7z m571
-111 c-25 -23 -80 -62 -88 -62 -3 0 -6 5 -6 10 0 6 5 10 11 10 7 0 19 8 28 18
19 19 51 41 65 41 6 1 1 -7 -10 -17z m-634 -122 c0 -13 -7 -20 -20 -20 -11 0
-20 7 -20 16 0 8 5 12 10 9 6 -3 10 -1 10 4 0 6 5 11 10 11 6 0 10 -9 10 -20z
m1387 -322 c-2 -24 -4 -5 -4 42 0 47 2 66 4 43 2 -24 2 -62 0 -85z m53 25 c0
-21 -3 -24 -9 -14 -5 8 -7 20 -4 28 8 21 13 15 13 -14z m-1393 -20 c-3 -10 -5
-4 -5 12 0 17 2 24 5 18 2 -7 2 -21 0 -30z m1320 -310 c-3 -10 -5 -4 -5 12 0
17 2 24 5 18 2 -7 2 -21 0 -30z m-644 -68 c22 -28 27 -42 22 -65 -4 -16 -10
-32 -15 -35 -11 -7 -51 63 -57 102 -7 45 14 43 50 -2z m-85 -37 c29 -46 32
-57 32 -131 0 -44 -3 -77 -7 -74 -3 4 -14 28 -24 54 -9 27 -27 75 -40 109 -21
55 -22 95 -2 93 4 0 23 -23 41 -51z m168 -26 c5 -5 25 -15 44 -22 19 -8 59
-24 88 -37 48 -22 52 -26 52 -58 l0 -35 -55 0 c-30 0 -55 -4 -55 -10 0 -5 17
-10 39 -10 21 0 55 -7 75 -15 32 -14 36 -19 36 -52 0 -39 -23 -73 -49 -73 -9
0 -32 13 -51 30 -35 29 -74 39 -85 20 -3 -5 1 -10 9 -10 18 0 66 -67 66 -92 0
-26 -17 -31 -65 -17 l-44 13 0 68 c1 39 -4 75 -11 83 -18 22 -8 60 18 63 35 5
26 22 -12 22 -28 0 -36 5 -46 31 -10 22 -10 33 -1 42 6 6 11 24 11 39 0 28 16
37 36 20z m582 -134 c18 -18 14 -28 -9 -28 -16 0 -19 3 -11 13 7 8 7 18 2 27
-6 8 -9 31 -9 50 1 34 2 34 8 -8 4 -23 13 -48 19 -54z m-678 3 c0 -11 -4 -23
-10 -26 -6 -4 -10 5 -10 19 0 14 5 26 10 26 6 0 10 -9 10 -19z m60 -40 c0 -11
-4 -21 -9 -23 -5 -1 -11 -37 -13 -78 -4 -88 -23 -101 -46 -32 -12 38 -12 47 3
77 9 19 22 35 30 35 8 0 15 9 15 20 0 11 5 20 10 20 6 0 10 -9 10 -19z m18
-132 c-3 -60 -18 -58 -18 1 0 33 4 49 10 45 6 -4 10 -25 8 -46z m606 35 c13
-33 6 -49 -9 -20 -18 33 -18 36 -6 36 5 0 12 -7 15 -16z m-816 -47 l22 -23
-24 -32 c-12 -17 -26 -29 -29 -25 -10 9 -8 103 1 103 5 0 18 -10 30 -23z m88
-62 c3 -14 3 -33 -1 -42 -7 -16 -9 -15 -15 7 -11 36 -11 60 0 60 5 0 12 -11
16 -25z m681 -12 c-3 -10 -5 -4 -5 12 0 17 2 24 5 18 2 -7 2 -21 0 -30z m-726
-31 c-6 -2 -11 -11 -11 -19 0 -9 -3 -14 -6 -10 -3 3 0 20 7 37 11 23 15 26 18
13 2 -9 -2 -19 -8 -21z m149 14 c0 -37 -17 -40 -29 -6 -9 27 -8 30 10 30 14 0
19 -7 19 -24z m56 -7 c18 -30 2 -163 -18 -143 -3 3 -15 0 -27 -7 -28 -18 -40
-2 -12 17 18 13 20 19 10 30 -9 11 -9 21 0 40 6 14 11 36 11 49 0 26 23 34 36
14z m524 -116 c-7 -55 -7 -53 -8 32 0 63 2 80 8 58 4 -18 4 -59 0 -90z m-440
86 c0 -10 -24 -39 -33 -39 -9 0 -17 32 -11 41 7 13 44 11 44 -2z m-231 -26 c0
-25 -1 -26 -9 -8 -12 27 -12 35 0 35 6 0 10 -12 9 -27z m801 10 c0 -9 -3 -13
-6 -10 -4 3 -15 2 -25 -4 -15 -7 -19 -6 -19 5 0 8 10 17 23 19 12 2 23 5 25 6
1 0 2 -6 2 -16z m-530 -7 c0 -20 -19 -31 -32 -18 -6 6 -7 15 -4 21 10 16 36
13 36 -3z m-220 -22 c0 -8 -4 -14 -10 -14 -5 0 -10 9 -10 21 0 11 5 17 10 14
6 -3 10 -13 10 -21z m-20 -54 c0 -11 -4 -20 -10 -20 -5 0 -10 9 -10 20 0 11 5
20 10 20 6 0 10 -9 10 -20z m-805 -10 c3 -5 -3 -10 -15 -10 -12 0 -18 5 -15
10 3 6 10 10 15 10 5 0 12 -4 15 -10z m859 -62 c8 -14 6 -21 -9 -32 -24 -18
-26 -19 -45 -6 -13 9 -13 12 2 20 10 6 15 17 11 26 -8 22 26 15 41 -8z m146
-34 c0 -8 -4 -12 -10 -9 -5 3 -10 13 -10 21 0 8 5 12 10 9 6 -3 10 -13 10 -21z
m440 -45 c0 -22 -4 -38 -8 -35 -4 2 -7 17 -6 33 2 38 3 43 9 43 3 0 5 -18 5
-41z m-545 1 c8 -14 -21 -24 -42 -15 -17 7 -16 8 2 15 27 12 33 12 40 0z m125
-29 c0 -12 -20 -25 -27 -18 -7 7 6 27 18 27 5 0 9 -4 9 -9z m516 -168 c-11
-11 -19 6 -11 24 8 17 8 17 12 0 3 -10 2 -21 -1 -24z m14 -50 c0 -6 -8 -9 -20
-6 -16 4 -18 9 -9 25 9 17 13 18 20 7 5 -8 9 -19 9 -26z m-141 -960 c-1 -34
-2 -35 -9 -13 -11 36 -11 50 0 50 6 0 10 -17 9 -37z m-3099 -114 c0 -5 -7 -9
-16 -9 -9 0 -14 7 -12 18 1 9 -1 24 -6 32 -4 8 2 4 13 -9 12 -13 21 -27 21
-32z m3050 21 c0 -34 -5 -36 -51 -16 l-34 14 35 15 c48 21 50 21 50 -13z
m-1205 0 c3 -5 20 -10 36 -10 35 0 49 -25 26 -47 -14 -14 -19 -14 -54 0 -21 9
-37 21 -35 29 3 10 1 10 -8 2 -11 -11 -50 -8 -50 4 0 23 73 42 85 22z m-1752
-40 c-3 -11 -8 -20 -12 -20 -4 0 -7 9 -8 20 -1 11 4 20 12 20 8 0 11 -7 8 -20z
m77 -21 c0 -10 -4 -19 -10 -19 -5 0 -10 12 -10 26 0 14 4 23 10 19 6 -3 10
-15 10 -26z m156 22 c16 -5 52 -13 79 -19 201 -43 472 -109 680 -167 119 -33
130 -36 160 -45 17 -4 75 -22 130 -38 55 -17 129 -39 165 -50 112 -34 323
-108 380 -134 30 -14 84 -35 120 -47 36 -12 74 -26 85 -31 11 -5 49 -18 85
-30 36 -11 73 -25 82 -30 10 -6 23 -10 28 -10 6 0 30 -9 52 -20 23 -11 45 -20
49 -20 4 0 67 -25 141 -56 73 -31 183 -77 243 -102 113 -47 162 -76 147 -86
-5 -3 -28 3 -51 14 -22 11 -85 34 -138 51 -54 17 -107 34 -118 38 -11 5 -51
19 -90 31 -38 12 -106 35 -150 51 -44 16 -94 30 -110 33 -17 2 -37 6 -45 9
-31 13 -346 119 -375 127 -79 21 -196 64 -248 90 -32 17 -65 30 -73 30 -8 0
-22 4 -32 9 -9 5 -91 32 -182 61 -91 29 -173 56 -182 61 -10 5 -27 9 -37 9
-11 0 -23 5 -26 10 -3 6 -16 10 -29 10 -12 0 -26 4 -32 8 -5 5 -34 14 -64 21
-30 7 -77 20 -105 28 -27 8 -68 19 -90 25 -22 6 -49 14 -60 18 -11 5 -38 14
-60 21 -22 6 -49 15 -60 19 -11 4 -72 24 -135 45 -63 21 -119 42 -124 46 -6 5
-23 9 -39 9 -16 0 -26 4 -22 10 8 12 14 12 51 1z m-307 -68 c14 3 21 0 21 -9
0 -16 -5 -16 -37 -8 -13 4 -23 14 -23 23 0 13 2 13 9 2 5 -8 18 -12 30 -8z
m418 -90 c-3 -3 -11 -2 -17 2 -9 6 -9 10 1 16 14 8 27 -7 16 -18z m-122 -53
c3 -5 -1 -10 -9 -10 -9 0 -16 5 -16 10 0 6 4 10 9 10 6 0 13 -4 16 -10z m-345
-100 c0 -5 -4 -10 -9 -10 -6 0 -13 5 -16 10 -3 6 1 10 9 10 9 0 16 -4 16 -10z
m-2 -58 c3 -9 -2 -13 -14 -10 -9 1 -19 9 -22 16 -3 9 2 13 14 10 9 -1 19 -9
22 -16z m1467 -52 c3 -5 16 -10 28 -10 12 0 34 -10 49 -23 24 -19 27 -27 22
-58 -6 -34 -8 -36 -38 -30 -25 6 -30 11 -28 29 3 17 -2 22 -20 21 -13 0 -17
-3 -10 -6 6 -2 12 -9 12 -14 0 -11 -50 -12 -51 -1 -6 59 -6 88 -3 94 7 11 32
10 39 -2z m396 -161 c16 -11 35 -19 42 -16 6 2 20 0 30 -5 12 -6 23 -6 31 1
19 16 44 3 61 -30 10 -19 12 -30 4 -35 -8 -4 -8 -9 0 -17 8 -8 14 -8 23 1 12
12 68 17 68 7 0 -22 -89 -118 -112 -121 -4 -1 -15 -2 -23 -3 -31 -2 -14 -21
19 -21 30 0 40 7 67 45 18 25 43 52 55 60 24 15 104 21 104 8 0 -21 -127 -136
-140 -128 -6 4 -13 -1 -16 -9 -3 -9 -12 -16 -20 -16 -8 0 -14 -4 -14 -10 0 -5
7 -10 15 -10 8 0 15 5 15 10 0 6 9 10 20 10 12 0 30 9 41 19 27 25 59 33 59
15 0 -7 -6 -18 -12 -23 -67 -55 -149 -107 -213 -137 -48 -22 -186 -26 -206 -6
-10 10 -1 12 49 12 33 0 74 5 89 11 70 28 133 64 133 76 0 16 6 17 -65 -12
-72 -30 -107 -33 -98 -8 5 13 3 15 -13 9 -42 -17 -157 -46 -162 -42 -3 3 12
21 33 41 21 19 36 37 34 40 -3 2 -35 0 -71 -6 -36 -6 -88 -9 -114 -7 l-49 3
40 8 c143 27 195 45 217 76 7 10 24 22 38 26 14 4 27 10 30 14 3 3 14 11 25
17 11 6 24 20 30 32 5 12 13 22 17 22 5 0 8 5 8 10 0 19 -28 10 -44 -15 -16
-24 -76 -63 -76 -49 0 4 -10 -2 -22 -13 -34 -31 -81 -52 -129 -58 -30 -4 -38
-2 -24 3 14 7 -8 11 -72 14 -51 2 -96 7 -99 11 -15 14 9 22 74 23 84 1 92 2
92 13 0 5 -20 6 -45 3 -28 -3 -45 -1 -45 6 0 11 136 82 158 82 6 0 12 3 12 8
0 4 14 24 31 45 36 44 74 49 120 16z m-313 -46 c-9 -2 -18 -14 -20 -26 -2 -14
-16 -28 -38 -39 -77 -37 -98 -23 -50 32 24 28 31 32 39 21 8 -12 13 -12 33 2
13 9 30 16 38 15 11 0 11 -2 -2 -5z m1424 -448 c3 -30 1 -35 -17 -34 -11 0
-14 3 -7 6 6 2 12 18 12 34 0 40 7 37 12 -6z m-97 -115 c3 -6 3 -19 0 -31 -9
-27 -72 -24 -67 4 2 10 -3 17 -13 17 -8 0 -15 5 -15 10 0 13 87 13 95 0z m37
-85 c-2 -5 -12 -8 -24 -7 -11 2 -24 -2 -28 -9 -5 -6 -15 -9 -25 -6 -9 4 -14
11 -10 16 3 6 12 8 19 5 8 -3 17 0 21 6 8 14 51 9 47 -5z"/>
<path d="M694 5336 c-10 -27 2 -43 14 -19 8 14 9 24 2 28 -6 3 -13 -1 -16 -9z"/>
<path d="M425 5290 c-7 -12 12 -40 26 -40 5 0 9 11 9 25 0 25 -23 35 -35 15z"/>
<path d="M732 5179 c2 -6 8 -10 13 -10 5 0 11 4 13 10 2 6 -4 11 -13 11 -9 0
-15 -5 -13 -11z"/>
<path d="M1580 4644 c0 -8 5 -12 10 -9 6 3 10 10 10 16 0 5 -4 9 -10 9 -5 0
-10 -7 -10 -16z"/>
<path d="M1520 4595 c0 -14 2 -25 4 -25 2 0 6 11 8 25 3 14 1 25 -3 25 -5 0
-9 -11 -9 -25z"/>
<path d="M1093 4475 c0 -33 2 -45 4 -27 2 18 2 45 0 60 -2 15 -4 0 -4 -33z"/>
<path d="M1200 4450 c-9 -6 -10 -10 -3 -10 6 0 13 -8 16 -17 4 -17 4 -17 12 0
10 23 -5 39 -25 27z"/>
<path d="M1586 4331 c-3 -5 1 -11 9 -15 9 -3 15 0 15 9 0 16 -16 20 -24 6z"/>
<path d="M1665 4330 c3 -5 10 -10 16 -10 5 0 9 5 9 10 0 6 -7 10 -16 10 -8 0
-12 -4 -9 -10z"/>
<path d="M1660 4269 c17 -14 26 -17 28 -9 5 14 -16 30 -38 30 -10 -1 -7 -7 10
-21z"/>
<path d="M1220 4170 c0 -19 3 -21 12 -12 9 9 9 15 0 24 -9 9 -12 7 -12 -12z"/>
<path d="M1151 4130 c-5 -14 -33 -161 -38 -198 -3 -26 0 -48 7 -57 6 -8 9 -19
5 -25 -3 -5 0 -10 8 -10 8 0 29 -3 46 -6 27 -6 31 -4 31 15 0 19 8 25 28 19 7
-3 8 -7 11 -38 1 -12 4 -11 15 3 14 18 14 18 19 0 4 -16 5 -16 6 0 0 9 6 17
11 17 6 0 10 11 10 25 0 14 8 42 19 63 18 36 18 62 1 62 -5 0 -11 -8 -13 -17
-4 -15 -6 -15 -12 5 -4 12 -15 22 -26 22 -11 0 -22 0 -26 1 -5 0 -10 -10 -13
-23 -6 -22 -6 -22 -15 -3 -5 11 -16 49 -26 85 -9 36 -17 55 -18 43 0 -13 -5
-23 -10 -23 -5 0 -12 10 -14 23 -2 12 -5 20 -6 17z m92 -226 c-4 -10 -9 -12
-15 -6 -12 12 -1 35 12 27 5 -3 6 -13 3 -21z m-78 -24 c-3 -5 -13 -10 -21 -10
-8 0 -14 5 -14 10 0 6 9 10 21 10 11 0 17 -4 14 -10z"/>
<path d="M1226 4074 c-9 -22 -8 -24 9 -24 8 0 15 9 15 20 0 24 -15 27 -24 4z"/>
<path d="M1608 4043 c18 -2 45 -2 60 0 15 2 0 4 -33 4 -33 0 -45 -2 -27 -4z"/>
<path d="M1598 4013 c-25 -6 -22 -20 5 -27 35 -9 105 -7 112 4 4 6 -8 10 -30
10 -22 0 -34 4 -30 10 6 10 -24 12 -57 3z"/>
<path d="M1520 3979 c0 -5 11 -9 25 -9 14 0 25 2 25 4 0 2 -11 6 -25 8 -14 3
-25 1 -25 -3z"/>
<path d="M2569 3524 c-11 -14 -10 -15 11 -12 13 1 25 9 28 16 5 17 -23 15 -39
-4z"/>
<path d="M2965 3470 c-3 -6 5 -10 19 -10 14 0 28 5 31 10 3 6 -5 10 -19 10
-14 0 -28 -4 -31 -10z"/>
<path d="M3036 3455 c4 -8 10 -12 15 -9 11 6 2 24 -11 24 -5 0 -7 -7 -4 -15z"/>
<path d="M2946 3435 c10 -8 26 -14 34 -14 11 0 10 3 -4 14 -11 8 -27 15 -35
15 -11 0 -10 -4 5 -15z"/>
<path d="M2848 3423 c-21 -5 -24 -23 -4 -23 8 0 16 7 20 15 3 8 4 14 3 14 -1
-1 -10 -3 -19 -6z"/>
<path d="M2925 3370 c3 -5 13 -10 21 -10 8 0 14 5 14 10 0 6 -9 10 -21 10 -11
0 -17 -4 -14 -10z"/>
<path d="M2452 3030 c3 -51 11 -63 22 -34 8 21 -3 84 -15 84 -5 0 -8 -22 -7
-50z"/>
<path d="M3480 3051 c0 -16 5 -33 10 -36 6 -4 10 6 10 24 0 16 -4 33 -10 36
-6 4 -10 -6 -10 -24z"/>
<path d="M3440 3020 c0 -16 5 -30 10 -30 6 0 10 14 10 30 0 17 -4 30 -10 30
-5 0 -10 -13 -10 -30z"/>
<path d="M2016 3004 c-22 -22 -20 -27 7 -13 29 16 30 16 18 23 -5 3 -17 -1
-25 -10z"/>
<path d="M3400 2996 c0 -8 5 -18 10 -21 6 -3 10 3 10 14 0 12 -4 21 -10 21 -5
0 -10 -6 -10 -14z"/>
<path d="M1938 2945 c-16 -13 -24 -27 -18 -30 5 -3 15 3 22 15 7 11 18 20 25
20 7 0 13 5 13 10 0 16 -13 11 -42 -15z"/>
<path d="M3360 2961 c0 -6 5 -13 10 -16 6 -3 10 1 10 9 0 9 -4 16 -10 16 -5 0
-10 -4 -10 -9z"/>
<path d="M3462 2947 c2 -15 8 -26 13 -25 12 3 8 29 -7 43 -6 7 -8 1 -6 -18z"/>
<path d="M912 2910 c0 -19 2 -27 5 -17 2 9 2 25 0 35 -3 9 -5 1 -5 -18z"/>
<path d="M2469 2923 c-1 -5 0 -16 1 -26 1 -10 -4 -24 -10 -32 -7 -8 -7 -15 -1
-19 12 -8 22 7 31 50 6 26 5 34 -6 34 -8 0 -15 -3 -15 -7z"/>
<path d="M3260 2400 c-11 -7 -7 -10 18 -10 17 0 32 5 32 10 0 13 -30 13 -50 0z"/>
<path d="M3210 2392 c-14 -2 -29 -7 -35 -12 -5 -4 -30 -11 -54 -15 -27 -4 -39
-10 -31 -15 7 -4 27 -3 44 2 17 5 46 13 64 18 52 13 61 29 12 22z"/>
<path d="M2185 1531 c-3 -6 -14 -11 -24 -11 -10 0 -26 -9 -36 -20 -17 -19 -17
-20 1 -20 38 0 62 12 68 33 6 24 1 34 -9 18z"/>
<path d="M2348 1452 c-4 -12 -95 -72 -107 -72 -12 0 -15 -20 -3 -20 4 0 35 14
70 32 40 21 62 39 62 50 0 18 -15 25 -22 10z"/>
<path d="M4042 4560 c-13 -21 -6 -70 10 -70 5 0 7 9 3 19 -3 11 -1 22 5 26 12
7 14 45 2 45 -4 0 -13 -9 -20 -20z"/>
<path d="M4085 3553 c-13 -211 -12 -286 3 -290 9 -4 12 43 12 211 0 119 -2
216 -3 216 -2 0 -8 -62 -12 -137z"/>
<path d="M284 3117 c-2 -7 0 -24 5 -38 9 -22 10 -21 10 14 1 37 -5 48 -15 24z"/>
<path d="M4060 3030 c0 -17 17 -47 23 -40 2 3 -2 16 -10 30 -7 14 -13 18 -13
10z"/>
<path d="M4053 2653 c-23 -16 -31 -43 -13 -43 6 0 10 4 10 9 0 5 7 17 16 26
22 22 14 26 -13 8z"/>
<path d="M4062 2556 c-40 -13 -37 -30 6 -34 28 -3 32 0 32 22 0 14 -1 25 -2
25 -2 -1 -18 -7 -36 -13z"/>
<path d="M4020 2430 c0 -5 16 -10 36 -10 21 0 33 4 29 10 -3 6 -19 10 -36 10
-16 0 -29 -4 -29 -10z"/>
<path d="M3994 2035 c-4 -15 -1 -32 7 -41 10 -13 10 -17 -1 -24 -8 -5 -11 -12
-7 -16 3 -4 22 10 42 32 38 41 35 54 -12 68 -18 6 -24 2 -29 -19z m56 -11 c0
-3 -7 -12 -15 -21 -20 -19 -32 -10 -14 11 14 15 29 21 29 10z"/>
<path d="M4078 1763 c-10 -15 -38 -50 -63 -77 -44 -49 -54 -66 -36 -66 9 0 99
99 114 126 5 8 7 22 5 30 -2 11 -8 7 -20 -13z"/>
<path d="M3996 1531 c-4 -7 -5 -15 -2 -18 9 -9 19 4 14 18 -4 11 -6 11 -12 0z"/>
<path d="M4061 1464 c-19 -18 -32 -36 -29 -40 7 -6 67 55 68 69 0 10 -1 9 -39
-29z"/>
<path d="M4025 1349 c-66 -76 -87 -109 -68 -109 4 0 18 13 30 28 12 15 42 50
67 77 25 28 45 58 46 68 0 9 -1 17 -3 17 -1 0 -34 -36 -72 -81z"/>
<path d="M4010 1400 c0 -5 -6 -10 -12 -10 -13 0 -52 -59 -45 -67 6 -5 67 65
67 77 0 6 -2 10 -5 10 -3 0 -5 -4 -5 -10z"/>
<path d="M4065 1324 c-17 -19 -49 -56 -72 -82 -24 -26 -43 -51 -43 -57 0 -11
64 56 119 124 40 51 38 63 -4 15z"/>
<path d="M3985 1160 c-40 -40 -38 -53 3 -24 12 8 22 21 22 29 0 7 6 15 13 18
6 2 9 7 6 10 -3 4 -23 -11 -44 -33z"/>
<path d="M4063 1057 c-17 -23 -40 -51 -50 -62 -34 -38 -93 -113 -93 -119 0 -3
5 -6 10 -6 21 0 170 186 170 212 0 10 -1 18 -2 18 -2 0 -17 -20 -35 -43z"/>
<path d="M4000 1040 c-8 -11 -20 -20 -26 -20 -7 0 -15 -7 -18 -16 -13 -34 -4
-32 30 6 20 22 35 43 32 45 -2 2 -10 -4 -18 -15z"/>
<path d="M4085 1006 c-23 -25 -26 -40 -4 -19 12 12 21 24 18 27 -2 2 -9 -1
-14 -8z"/>
<path d="M4065 913 c-15 -21 -44 -54 -62 -74 -22 -23 -31 -39 -24 -43 6 -4 11
0 11 8 0 8 9 18 21 21 11 4 25 18 31 31 6 13 14 24 17 24 9 0 44 60 38 66 -2
2 -17 -12 -32 -33z"/>
<path d="M3971 874 c-12 -14 -21 -27 -19 -30 3 -2 17 10 33 26 16 17 25 30 19
29 -5 0 -20 -11 -33 -25z"/>
<path d="M4072 800 c15 -23 28 -26 28 -6 0 8 -7 17 -16 20 -24 9 -25 8 -12
-14z"/>
<path d="M3947 770 c-9 -14 -15 -37 -13 -52 2 -19 -1 -25 -10 -21 -8 3 -14 1
-14 -5 0 -5 6 -12 14 -15 16 -6 26 12 26 47 0 12 5 27 11 33 6 6 9 17 7 24 -3
9 -10 5 -21 -11z"/>
<path d="M4016 771 c-9 -10 -14 -25 -10 -35 9 -22 24 -20 24 4 0 21 20 29 20
8 0 -7 5 -5 11 5 21 35 -15 51 -45 18z"/>
<path d="M4030 674 c-14 -14 -35 -30 -47 -35 -13 -5 -23 -17 -23 -29 0 -11 -7
-20 -15 -20 -16 0 -55 -55 -55 -77 0 -29 36 -6 73 48 13 18 20 21 26 11 6 -10
10 -10 20 2 7 8 10 20 6 26 -9 15 17 69 37 76 10 3 18 10 18 15 0 15 -14 9
-40 -17z"/>
<path d="M3910 630 c0 -16 5 -30 10 -30 6 0 10 14 10 30 0 17 -4 30 -10 30 -5
0 -10 -13 -10 -30z"/>
<path d="M4077 600 c-23 -34 -21 -45 4 -21 12 11 19 25 17 32 -3 8 -10 4 -21
-11z"/>
<path d="M3820 550 c0 -11 5 -20 10 -20 6 0 10 9 10 20 0 11 -4 20 -10 20 -5
0 -10 -9 -10 -20z"/>
<path d="M3990 479 c-15 -27 -10 -31 13 -9 11 11 14 20 8 24 -5 4 -15 -3 -21
-15z"/>
<path d="M4079 478 c-15 -29 -112 -151 -157 -200 -30 -32 -70 -133 -58 -145 6
-7 68 63 139 157 40 52 77 101 84 108 12 12 19 102 8 102 -2 0 -10 -10 -16
-22z"/>
<path d="M4027 270 c-38 -50 -90 -115 -118 -147 -37 -42 -49 -64 -48 -87 0
-30 1 -30 15 -10 8 11 28 36 45 55 17 19 45 54 62 79 17 25 33 47 37 50 3 3
17 21 30 40 13 19 30 41 37 48 11 11 19 62 10 62 -1 0 -33 -41 -70 -90z"/>
<path d="M4025 171 c-38 -52 -87 -112 -107 -133 l-37 -38 64 0 c36 0 65 3 65
8 0 4 12 20 26 37 55 64 65 90 62 157 l-3 64 -70 -95z"/>
<path d="M4063 44 l-33 -44 35 0 c35 0 35 0 35 45 0 25 -1 45 -2 44 -2 0 -18
-20 -35 -45z"/>
</g>
</svg>
