<?xml version="1.0" standalone="no"?>
<!DOCTYPE svg PUBLIC "-//W3C//DTD SVG 20010904//EN"
 "http://www.w3.org/TR/2001/REC-SVG-20010904/DTD/svg10.dtd">
<svg version="1.0" xmlns="http://www.w3.org/2000/svg"
 width="332.000000pt" height="315.000000pt" viewBox="0 0 332.000000 315.000000"
 preserveAspectRatio="xMidYMid meet">
<metadata>
Created by potrace 1.16, written by Peter Selinger 2001-2019
</metadata>
<g transform="translate(0.000000,315.000000) scale(0.100000,-0.100000)"
fill="#000000" stroke="none">
<path d="M0 1575 l0 -1575 1660 0 1660 0 0 1575 0 1575 -1660 0 -1660 0 0
-1575z m1875 1226 c22 -10 55 -34 73 -55 37 -42 42 -62 13 -46 -11 5 -22 10
-24 10 -12 0 -15 -33 -5 -60 9 -27 7 -34 -13 -57 -21 -21 -30 -24 -67 -19 -23
3 -59 14 -80 25 -38 19 -39 19 -70 1 -82 -50 -91 -154 -26 -314 19 -46 77
-148 111 -195 2 -3 9 4 17 14 13 18 16 12 39 -61 28 -90 77 -196 88 -192 18 7
169 205 244 318 132 202 159 217 370 205 72 -5 164 -9 207 -9 42 -1 80 -4 84
-8 4 -5 79 -8 166 -8 127 0 158 -3 158 -14 0 -23 -30 -40 -79 -46 l-46 -6 74
-11 c81 -13 112 -32 93 -56 -10 -11 -9 -17 3 -27 11 -9 12 -17 4 -32 -6 -11
-8 -26 -5 -33 7 -20 -21 -45 -50 -45 -17 0 -24 -6 -24 -19 0 -19 -18 -31 -45
-31 -8 0 -26 -12 -40 -26 -19 -19 -32 -24 -51 -20 -19 5 -24 3 -24 -14 0 -15
-7 -20 -28 -20 -17 0 -32 -8 -40 -21 -10 -16 -21 -20 -42 -17 -21 3 -30 0 -33
-14 -4 -12 -15 -18 -35 -18 -16 0 -35 -7 -42 -15 -7 -8 -24 -15 -39 -15 -29
-1 -103 -8 -111 -10 -3 -2 -8 -2 -12 -1 -5 0 -8 -5 -8 -12 -1 -15 -35 -57 -47
-57 -4 0 -14 -9 -21 -20 -7 -11 -19 -20 -27 -20 -7 0 -25 -21 -38 -47 -13 -27
-31 -61 -40 -78 -8 -16 -34 -68 -57 -115 -48 -97 -74 -130 -106 -130 -18 0
-24 -9 -34 -50 -6 -27 -9 -54 -5 -60 4 -6 -1 -18 -11 -25 -11 -8 -14 -15 -8
-15 5 0 10 -19 9 -42 -1 -24 -4 -42 -8 -40 -4 1 -12 2 -17 2 -7 0 -7 6 0 19
16 31 3 50 -28 42 -22 -6 -31 -20 -53 -77 -36 -98 -53 -128 -108 -188 -55 -60
-93 -122 -111 -179 -7 -21 -18 -41 -26 -44 -11 -4 -11 -9 2 -28 10 -15 13 -32
9 -46 -4 -11 -2 -40 5 -64 12 -42 13 -43 76 -59 35 -9 89 -16 120 -16 49 0 55
-2 44 -15 -8 -10 -11 -32 -8 -60 l6 -45 -62 0 c-64 0 -93 -10 -82 -29 9 -15
-29 -13 -74 3 l-35 13 -6 99 c-4 74 -11 110 -27 141 -12 23 -22 51 -22 63 0
11 -6 20 -12 20 -12 0 -74 -29 -143 -67 -16 -9 -70 -31 -118 -50 -114 -42
-151 -67 -137 -94 8 -14 7 -28 -6 -54 -11 -23 -15 -48 -11 -72 4 -19 7 -36 9
-37 39 -23 171 -76 189 -76 37 0 39 -6 18 -50 -11 -21 -19 -44 -19 -51 0 -7
-7 -8 -17 -4 -35 14 -125 18 -132 7 -8 -14 -90 23 -98 44 -3 8 1 49 9 91 10
53 11 89 5 113 -5 19 -10 53 -10 76 -2 35 -8 46 -49 81 -26 23 -62 44 -80 48
-18 4 -47 16 -64 26 -24 14 -52 19 -115 20 l-84 1 88 42 c74 36 92 50 116 89
16 25 45 62 64 84 45 51 53 67 67 141 21 118 21 122 -3 122 -29 0 -75 44 -82
78 -3 15 -13 47 -22 72 -9 25 -18 63 -20 85 -3 22 -16 63 -30 91 -13 29 -29
84 -35 123 -9 65 -12 70 -27 58 -23 -19 -120 -67 -137 -67 -8 0 -14 5 -14 11
0 6 -8 2 -17 -9 -10 -11 -28 -23 -41 -27 -17 -5 -24 -1 -31 17 -6 13 -10 18
-10 11 -2 -38 -91 -73 -91 -37 0 13 -6 11 -26 -10 -20 -19 -37 -26 -67 -26
-34 0 -39 2 -34 20 5 18 3 18 -25 -5 -35 -30 -98 -35 -98 -8 0 15 -2 15 -19
-1 -11 -10 -38 -20 -62 -23 l-42 -6 5 31 c4 29 3 30 -24 25 -35 -7 -47 17 -25
51 11 16 12 23 4 23 -64 -2 -62 27 8 98 30 31 55 58 55 60 0 2 -13 -1 -29 -6
-30 -11 -92 0 -98 16 -2 6 36 32 85 59 167 93 332 201 332 217 0 11 21 24 60
38 35 13 95 49 141 84 44 34 99 73 123 87 24 14 68 40 99 58 30 17 65 32 78
32 13 0 56 -17 96 -38 85 -44 144 -108 267 -284 47 -68 102 -141 121 -163 l34
-40 1 50 c0 28 -6 59 -13 70 -43 63 -68 115 -53 109 14 -5 15 -2 7 20 -6 14
-20 44 -32 68 -60 117 -85 257 -69 383 19 150 72 263 140 297 49 25 180 24
235 -1z m105 -160 c0 -4 29 -33 65 -62 60 -50 78 -80 56 -93 -4 -3 -45 12 -90
34 l-82 40 14 27 c7 16 12 36 10 46 -3 10 1 17 11 17 9 0 16 -4 16 -9z m210
-1548 c0 -7 -4 -13 -9 -13 -5 0 -9 -21 -9 -46 0 -26 -5 -51 -11 -57 -6 -6 -11
-21 -11 -34 0 -14 -6 -23 -15 -23 -17 0 -20 16 -5 25 6 3 10 20 10 36 0 17 4
28 9 24 6 -3 9 5 9 17 -3 56 2 85 17 85 8 0 15 -6 15 -14z m-50 -208 c0 -8 -4
-15 -10 -15 -5 0 -10 -7 -10 -16 0 -8 -7 -22 -15 -30 -13 -14 -15 -13 -15 5 0
12 5 21 10 21 6 0 10 11 10 25 0 16 6 25 15 25 8 0 15 -7 15 -15z m-19 -99 c5
3 9 0 9 -6 0 -15 -23 -7 -26 8 -1 7 0 8 3 2 2 -5 9 -8 14 -4z"/>
<path d="M2800 1956 c0 -2 8 -10 18 -17 15 -13 16 -12 3 4 -13 16 -21 21 -21
13z"/>
</g>
</svg>
