<?xml version="1.0" standalone="no"?>
<!DOCTYPE svg PUBLIC "-//W3C//DTD SVG 20010904//EN"
 "http://www.w3.org/TR/2001/REC-SVG-20010904/DTD/svg10.dtd">
<svg version="1.0" xmlns="http://www.w3.org/2000/svg"
 width="148.000000pt" height="230.000000pt" viewBox="0 0 148.000000 230.000000"
 preserveAspectRatio="xMidYMid meet">
<metadata>
Created by potrace 1.16, written by Peter Selinger 2001-2019
</metadata>
<g transform="translate(0.000000,230.000000) scale(0.100000,-0.100000)"
fill="#000000" stroke="none">
<path d="M0 1150 l0 -1150 740 0 740 0 0 604 c0 676 7 616 -75 616 -51 0 -95
14 -95 31 0 8 4 8 15 -1 12 -10 15 -10 15 4 0 9 4 16 10 16 5 0 7 -6 5 -12 -4
-10 11 -13 57 -12 l63 1 3 227 c1 146 -1 225 -7 221 -6 -3 -20 0 -32 7 -16 10
-23 10 -26 1 -2 -7 -10 -10 -17 -7 -7 3 -18 -1 -24 -9 -9 -11 -23 -12 -59 -5
-27 4 -83 13 -125 19 -89 13 -94 30 -10 28 107 -3 103 -5 85 41 -9 22 -20 40
-25 40 -4 0 -8 7 -8 15 0 9 -6 12 -15 9 -8 -4 -15 -12 -15 -19 0 -20 -59 -13
-66 8 -3 9 -12 17 -20 17 -17 0 -18 12 -2 28 6 6 8 15 4 19 -4 4 -11 2 -15 -6
-6 -10 -11 -9 -24 3 -14 15 -17 15 -26 -1 -10 -17 -10 -17 -11 0 0 39 -58 143
-102 183 -55 51 -104 69 -188 68 -113 -1 -170 -44 -249 -189 -31 -56 -44 -92
-47 -128 -2 -28 -8 -55 -14 -61 -7 -7 -10 -6 -10 2 0 6 -9 16 -20 22 -16 9
-24 7 -36 -5 -26 -26 -44 -19 -38 14 5 25 2 32 -22 44 -16 8 -35 12 -41 10 -7
-3 -13 -1 -13 5 0 9 -11 11 -65 15 -16 1 -36 6 -44 11 -10 7 -12 6 -6 -4 5 -8
3 -11 -5 -8 -15 5 -42 108 -29 108 5 0 9 -8 10 -17 0 -15 3 -14 16 5 8 12 25
22 37 22 12 0 31 7 42 16 18 14 18 15 -4 4 -18 -9 -23 -8 -29 7 -4 10 -13 23
-21 29 -12 9 -12 13 -2 19 8 5 16 2 22 -9 8 -14 12 -15 38 -1 16 8 34 23 39
32 10 17 10 16 11 -2 0 -16 2 -17 9 -5 6 8 7 19 4 25 -3 5 0 4 8 -2 18 -17 29
-16 29 2 0 10 10 15 28 15 21 0 24 2 12 10 -15 10 -12 11 23 14 6 1 18 7 26
14 12 12 16 11 23 -2 5 -9 13 -14 19 -11 5 4 9 1 9 -4 0 -6 -7 -11 -15 -11 -8
0 -15 5 -15 10 0 6 -4 10 -10 10 -15 0 -12 -26 3 -39 8 -6 17 -7 21 -3 4 4 11
7 14 7 24 2 51 18 46 27 -4 6 -9 5 -15 -3 -4 -7 -11 -10 -15 -7 -12 12 5 38
31 48 19 7 25 15 21 28 -4 13 0 18 14 19 16 1 19 -3 14 -22 -3 -12 -1 -26 5
-29 6 -4 12 -2 12 3 1 6 3 16 4 21 1 6 3 17 4 26 2 26 21 5 21 -24 1 -23 2
-25 11 -9 6 9 16 15 22 11 7 -3 3 2 -7 10 -20 16 -19 16 1 16 11 0 23 7 27 15
4 11 15 14 41 9 20 -3 35 -1 35 5 0 5 8 12 18 14 10 3 5 5 -12 6 -22 1 -26 4
-18 14 8 10 5 13 -14 15 -22 2 -23 -1 -14 -18 6 -11 7 -20 2 -20 -6 0 -12 9
-15 20 -4 15 -13 19 -40 18 -30 -1 -36 -5 -41 -30 -7 -38 -24 -36 -18 2 l4 30
-291 0 -291 0 0 -1150z m340 998 c0 -15 -18 -17 -36 -4 -17 13 -17 14 9 13 15
-1 27 -5 27 -9z m417 -140 c7 -6 17 -27 23 -48 6 -21 21 -45 35 -54 14 -9 25
-23 25 -30 0 -19 -48 -34 -93 -28 -49 6 -77 -18 -77 -65 0 -40 26 -46 40 -8
10 27 13 28 47 19 13 -4 20 -10 17 -15 -3 -5 2 -9 10 -9 9 0 16 4 16 8 0 5 11
14 24 20 40 18 40 -12 1 -82 -19 -35 -35 -74 -35 -87 0 -39 -14 -53 -46 -45
l-29 8 23 18 c28 23 28 34 -1 26 -21 -5 -24 -2 -24 25 0 16 -6 37 -15 45 -13
13 -15 13 -15 -1 0 -8 5 -15 11 -15 6 -1 -4 -7 -23 -15 -18 -8 -38 -12 -45 -8
-6 3 -1 -5 12 -19 12 -13 22 -27 22 -30 0 -11 -44 5 -70 24 -35 28 -49 57 -50
104 0 38 2 41 28 40 16 -1 26 -6 25 -13 -4 -20 11 -15 31 9 28 32 10 54 -44
50 l-43 -3 7 51 c12 92 27 124 66 137 38 14 126 8 147 -9z m-607 -13 c0 -8 -7
-15 -15 -15 -8 0 -15 7 -15 15 0 8 7 15 15 15 8 0 15 -7 15 -15z m-95 -73 c0
-7 -3 -12 -7 -12 -5 0 -12 0 -18 0 -5 0 -10 6 -10 14 0 8 8 13 18 12 9 -2 17
-8 17 -14z m590 -323 c22 -1 32 -3 23 -6 -10 -2 -18 -9 -18 -14 0 -8 7 -10 49
-13 27 -2 22 -25 -8 -41 -34 -17 -27 -21 -97 56 -18 20 -20 49 -2 31 7 -7 30
-13 53 -13z m765 -169 c0 -5 -12 -10 -27 -9 -25 0 -26 1 -8 9 27 12 35 12 35
0z m-694 -15 c4 -8 12 -15 20 -15 8 0 14 -4 14 -9 0 -13 46 -19 64 -9 33 18
56 17 71 -5 8 -12 15 -17 15 -12 0 6 4 4 9 -4 11 -17 4 -138 -10 -174 -8 -19
-8 -31 -1 -40 8 -10 3 -19 -21 -38 -58 -46 -76 -52 -145 -45 -101 11 -220 46
-223 68 -1 4 -1 15 -1 23 0 28 2 32 25 42 14 7 27 27 36 57 10 37 22 53 51 71
21 13 41 29 45 35 3 5 15 10 25 10 17 0 18 4 10 26 -12 32 -12 34 0 34 6 0 13
-7 16 -15z m579 5 c-3 -5 -14 -10 -23 -10 -15 0 -15 2 -2 10 20 13 33 13 25 0z
m60 -31 c-3 -10 -1 -20 5 -24 15 -9 -14 -35 -39 -35 -23 0 -28 -15 -9 -26 6
-4 27 -9 47 -11 58 -6 49 -13 -18 -13 -54 0 -65 3 -89 27 l-27 27 55 11 c54
11 58 15 45 45 -4 11 1 16 15 16 14 0 18 -5 15 -17z m-281 -214 c-17 -8 -44
-17 -60 -20 -20 -4 -15 1 16 14 25 11 52 20 60 20 8 -1 1 -7 -16 -14z m-599
-594 c-3 -6 3 -14 12 -20 21 -11 17 -17 -20 -26 -21 -6 -27 -4 -27 9 0 9 -3
15 -7 14 -5 -2 -9 2 -11 7 -2 6 7 13 20 17 34 9 40 9 33 -1z m290 -131 c3 -5
-1 -10 -9 -10 -8 0 -18 5 -21 10 -3 6 1 10 9 10 8 0 18 -4 21 -10z"/>
</g>
</svg>
