<?xml version="1.0" standalone="no"?>
<!DOCTYPE svg PUBLIC "-//W3C//DTD SVG 20010904//EN"
 "http://www.w3.org/TR/2001/REC-SVG-20010904/DTD/svg10.dtd">
<svg version="1.0" xmlns="http://www.w3.org/2000/svg"
 width="2176.000000pt" height="1557.000000pt" viewBox="0 0 2176.000000 1557.000000"
 preserveAspectRatio="xMidYMid meet">
<metadata>
Created by potrace 1.16, written by Peter Selinger 2001-2019
</metadata>
<g transform="translate(0.000000,1557.000000) scale(0.100000,-0.100000)"
fill="#000000" stroke="none">
<path d="M0 15474 l0 -96 88 5 c117 8 162 17 162 32 0 7 8 16 18 20 30 12 384
24 475 16 49 -5 166 -4 260 1 113 6 199 5 252 -2 103 -13 208 -19 423 -25 128
-4 177 -8 187 -18 18 -19 400 -28 1165 -28 508 0 592 2 640 16 85 25 112 29
119 17 10 -17 296 -20 341 -5 57 19 248 34 454 34 187 0 245 -7 329 -40 15 -6
123 -14 240 -17 202 -6 213 -8 232 -29 42 -47 162 -79 173 -47 3 9 15 10 39 6
25 -5 38 -3 44 7 6 10 9 11 9 2 0 -7 9 -13 21 -13 11 0 17 5 14 10 -3 6 -1 10
5 10 7 0 9 8 5 22 -6 17 -4 20 9 15 11 -5 16 -1 16 13 0 18 -7 20 -67 20 -42
0 -80 6 -104 18 -41 19 -70 53 -50 60 6 2 11 10 11 18 0 8 8 14 19 14 10 0 24
7 31 15 14 17 87 20 138 5 22 -6 53 -5 90 1 46 9 63 8 87 -4 92 -44 245 -58
360 -32 101 22 150 23 173 2 10 -9 28 -17 41 -17 29 0 37 -25 17 -55 -9 -13
-16 -40 -16 -59 0 -19 -4 -38 -10 -41 -14 -9 -12 -26 3 -24 22 5 77 -12 77
-23 0 -14 148 -4 163 11 7 7 57 11 124 11 95 0 121 4 158 21 44 21 55 21 348
16 254 -4 310 -7 355 -22 28 -10 52 -22 52 -26 0 -17 67 -30 96 -18 16 7 38
11 50 11 13 -1 26 8 34 23 7 13 28 29 46 35 18 6 35 17 38 25 3 8 15 15 26 15
12 0 40 9 63 20 23 12 74 30 112 41 39 11 93 27 120 36 37 11 100 16 240 18
105 1 209 6 231 10 27 4 44 3 48 -4 4 -6 22 -11 41 -11 49 0 135 -19 172 -37
26 -14 40 -15 85 -5 29 6 68 14 87 17 l34 5 -7 -47 c-3 -25 -13 -55 -22 -64
-20 -22 -34 -94 -27 -131 3 -16 14 -30 27 -34 11 -4 24 -12 28 -18 5 -8 109
-12 340 -14 246 -2 334 -6 340 -15 5 -8 8 -7 8 6 0 9 5 17 10 17 6 0 10 -7 10
-15 0 -8 6 -12 14 -9 8 3 24 -4 35 -15 19 -19 38 -21 238 -28 120 -5 241 -7
268 -5 28 2 94 5 148 8 53 3 97 10 97 15 0 5 16 9 35 9 22 0 38 6 41 15 4 8
15 15 25 15 19 0 100 29 109 39 3 3 19 7 35 8 17 1 50 7 75 13 25 6 64 14 88
17 23 3 42 9 42 14 0 12 62 22 174 25 137 5 166 8 166 17 0 4 23 7 50 7 28 0
50 5 50 10 0 6 7 10 16 10 38 0 97 25 111 47 15 22 14 25 -6 39 -11 8 -21 23
-21 32 0 9 -16 30 -36 45 -19 16 -33 34 -31 40 2 8 52 13 158 16 275 6 352 4
364 -12 5 -8 25 -22 44 -32 34 -17 36 -17 70 1 20 10 39 23 42 27 14 19 138
20 211 2 59 -14 92 -16 173 -10 117 9 106 9 265 0 69 -4 139 -11 155 -15 17
-5 104 -11 195 -15 104 -4 167 -10 171 -17 4 -6 29 -12 56 -13 28 -1 61 -10
77 -21 24 -15 53 -19 158 -22 70 -3 128 -8 128 -13 0 -5 16 -9 35 -9 19 0 43
-4 53 -9 26 -14 109 -50 166 -72 71 -28 172 -79 193 -98 10 -9 30 -22 46 -28
15 -7 27 -17 27 -22 0 -24 74 -31 326 -31 169 0 264 -4 264 -10 0 -5 7 -10 15
-10 8 0 15 7 15 15 0 22 96 21 108 -1 8 -15 39 -17 233 -21 129 -2 225 -8 227
-13 5 -13 32 -13 32 0 0 6 18 10 39 10 43 0 71 20 71 50 0 10 4 22 10 25 6 3
10 18 10 33 0 15 8 35 18 44 32 30 62 70 62 83 0 25 31 45 70 45 21 0 42 5 45
10 3 6 35 10 70 10 35 0 67 4 70 10 3 5 40 8 88 5 45 -3 109 0 142 6 33 6 78
13 100 16 22 3 47 12 56 20 46 40 197 70 215 42 4 -7 48 -10 128 -8 123 2 262
-18 275 -40 4 -6 22 -10 41 -10 76 2 247 -23 287 -42 48 -23 254 -44 336 -33
91 11 745 20 932 12 249 -10 258 -11 275 -29 13 -14 46 -16 275 -12 143 2 308
5 368 7 62 3 107 1 107 -5 0 -5 55 -9 124 -9 97 0 128 -3 140 -15 8 -8 31 -15
51 -15 37 0 95 -24 95 -39 0 -5 16 -11 35 -14 19 -3 42 -13 51 -21 8 -9 31
-16 50 -16 19 0 34 -4 34 -10 0 -5 8 -10 19 -10 31 0 81 -21 81 -35 0 -9 21
-16 65 -20 36 -4 65 -11 65 -16 0 -5 9 -9 20 -9 11 0 20 5 20 10 0 6 12 9 27
8 21 -2 30 3 41 24 7 16 24 31 38 34 13 4 27 16 30 28 4 16 14 22 37 24 18 1
37 9 43 17 9 12 49 15 231 15 151 0 231 4 254 13 23 8 99 12 236 12 l203 0 0
138 0 137 -10880 0 -10880 0 0 -96z m5670 -114 c0 -5 -7 -10 -15 -10 -8 0 -15
5 -15 10 0 6 7 10 15 10 8 0 15 -4 15 -10z"/>
<path d="M9955 12623 c-127 -12 -256 -58 -320 -113 -21 -17 -53 -30 -100 -39
-126 -23 -249 -50 -315 -69 -52 -15 -70 -25 -87 -52 -13 -18 -23 -45 -23 -60
0 -60 -92 -122 -214 -146 -38 -7 -77 -21 -86 -29 -24 -22 -35 -97 -18 -129 18
-35 118 -87 139 -73 29 18 49 1 49 -41 0 -46 -12 -59 -65 -67 -68 -11 -102
-50 -121 -138 -18 -86 -17 -146 5 -219 51 -168 60 -241 38 -303 -9 -25 -24
-45 -41 -53 -15 -8 -31 -24 -36 -37 -5 -13 -14 -26 -20 -30 -6 -4 -22 -24 -35
-46 -23 -36 -25 -47 -24 -171 0 -121 4 -164 25 -266 5 -24 17 -40 44 -57 40
-25 73 -65 84 -102 4 -11 13 -27 21 -33 8 -7 15 -26 15 -43 0 -71 51 -111 145
-112 43 0 36 10 103 -155 15 -37 32 -182 32 -274 0 -87 21 -203 50 -276 10
-25 26 -88 35 -140 18 -96 46 -160 92 -211 20 -22 24 -37 26 -120 2 -84 6
-100 35 -154 18 -33 32 -73 32 -88 0 -16 9 -40 20 -54 11 -14 20 -36 20 -49 0
-44 20 -75 112 -166 85 -85 95 -98 106 -148 16 -71 32 -200 32 -253 0 -23 9
-67 21 -97 32 -82 40 -140 41 -300 2 -107 -2 -152 -12 -170 -9 -17 -15 -76
-18 -188 l-5 -163 29 -52 c15 -29 61 -92 101 -140 40 -48 73 -92 73 -96 0 -19
168 -181 202 -195 39 -17 77 -68 87 -120 6 -25 17 -36 63 -58 42 -20 61 -36
73 -62 19 -40 107 -126 129 -126 27 0 42 -96 23 -150 -13 -39 -4 -36 -208 -63
-79 -10 -113 -19 -134 -35 -24 -19 -39 -21 -132 -21 -58 1 -109 -3 -113 -7 -5
-5 -10 -20 -12 -34 -3 -24 -6 -25 -77 -25 -65 0 -74 2 -77 19 -3 22 -21 36
-46 36 -10 0 -18 5 -18 10 0 16 -37 12 -44 -5 -8 -22 -98 -20 -118 3 -30 34
-50 204 -46 397 1 99 -2 186 -6 194 -5 8 -15 97 -21 198 -12 172 -14 185 -35
200 -18 13 -21 22 -17 57 9 66 -5 140 -26 144 -12 2 -21 -6 -28 -26 -9 -25
-17 -30 -75 -42 -53 -11 -71 -20 -92 -46 -32 -37 -78 -62 -127 -69 -24 -3 -54
-20 -93 -53 -31 -27 -73 -55 -92 -63 -19 -7 -57 -35 -85 -61 -27 -26 -75 -60
-105 -75 -37 -20 -56 -36 -60 -53 -4 -18 -16 -27 -46 -36 -78 -22 -163 -95
-213 -179 -13 -23 -32 -35 -75 -48 -31 -10 -65 -15 -76 -12 -27 9 -89 -20 -99
-47 -5 -13 -5 -30 1 -40 5 -12 5 -25 -2 -38 -13 -25 -26 -25 -39 -2 -9 15 -12
16 -34 2 -13 -8 -39 -24 -57 -35 -19 -11 -50 -36 -70 -56 -20 -20 -58 -46 -84
-57 -26 -12 -66 -37 -90 -57 -24 -19 -47 -35 -52 -35 -27 0 -87 -24 -111 -44
-15 -13 -45 -29 -65 -35 -40 -13 -82 -55 -113 -114 -13 -25 -25 -35 -36 -32
-23 8 -84 -21 -107 -50 -12 -14 -24 -39 -27 -55 -4 -17 -19 -39 -33 -51 -23
-18 -27 -28 -27 -76 0 -40 -5 -58 -17 -67 -22 -16 -23 -30 -3 -46 21 -18 19
-46 -7 -69 -24 -23 -27 -58 -9 -140 22 -107 9 -205 -31 -239 -13 -11 -15 -34
-11 -150 3 -75 5 -254 4 -397 -1 -233 -3 -261 -18 -272 -9 -7 -24 -13 -33 -13
-10 0 -25 -17 -35 -37 -10 -21 -22 -46 -26 -55 -5 -10 -9 -24 -9 -32 0 -8 -5
-16 -11 -18 -6 -2 -13 -51 -16 -121 -3 -64 -9 -117 -13 -117 -4 0 -9 -43 -12
-96 -2 -59 -9 -98 -16 -103 -15 -9 -23 -80 -27 -251 -2 -74 -6 -161 -10 -192
-3 -35 -2 -66 5 -78 6 -11 8 -25 4 -31 -3 -6 -8 -70 -10 -142 -2 -73 -10 -181
-18 -242 -7 -60 -14 -159 -15 -220 -2 -60 -7 -111 -12 -113 -5 -2 -9 -21 -9
-43 0 -35 -3 -39 -25 -39 -22 0 -25 4 -25 40 0 27 -4 40 -14 40 -10 0 -16 -21
-21 -74 -4 -50 -11 -76 -21 -80 -11 -4 -14 4 -14 34 0 33 -3 40 -20 40 -17 0
-20 -7 -20 -40 l0 -40 -40 0 c-39 0 -40 -1 -40 -33 0 -21 7 -38 20 -47 25 -18
28 -70 4 -70 -13 0 -15 7 -10 30 4 22 2 30 -9 30 -10 0 -15 -10 -15 -30 0 -16
-4 -30 -10 -30 -6 0 -10 -37 -10 -90 0 -72 -3 -90 -15 -90 -8 0 -17 -14 -21
-35 l-6 -35 -60 0 c-70 0 -98 -12 -98 -43 0 -24 -43 -47 -88 -47 -19 0 -22 -6
-24 -47 -1 -27 -1 -57 1 -68 8 -73 2 -237 -9 -250 -8 -9 -16 -70 -21 -153 -22
-360 -38 -442 -89 -442 -14 0 -45 6 -70 14 -80 26 -152 46 -164 46 -18 0 -70
51 -92 90 -10 19 -22 37 -26 40 -9 7 -38 118 -38 147 0 13 -13 35 -30 50 -16
14 -30 32 -30 40 0 7 -4 13 -9 13 -5 0 -13 9 -16 20 -3 11 -15 20 -26 20 -12
0 -19 7 -19 18 0 11 -11 31 -24 47 l-24 28 -43 -17 c-39 -16 -44 -16 -55 -2
-6 9 -15 16 -19 16 -17 0 -65 65 -65 87 0 13 -4 23 -10 23 -17 0 -60 54 -60
75 0 12 -4 25 -9 31 -14 14 -40 194 -35 243 2 24 9 50 15 57 6 7 8 18 5 23 -9
14 16 104 31 114 8 5 13 28 13 57 0 49 1 50 30 50 28 0 30 2 30 40 0 33 3 40
20 40 13 0 20 7 20 20 0 11 -4 20 -10 20 -5 0 -10 18 -10 40 0 36 -2 40 -25
40 -22 0 -25 4 -25 40 0 33 -3 40 -20 40 -17 0 -20 7 -20 40 0 39 -1 40 -34
40 -21 0 -36 6 -40 15 -7 19 -50 19 -70 0 -8 -8 -19 -15 -24 -15 -6 0 -12 7
-16 15 -3 8 -17 15 -31 15 -16 0 -25 6 -25 15 0 8 -5 15 -10 15 -16 0 -70 59
-70 76 0 9 -8 18 -18 21 -10 2 -33 28 -50 56 -18 29 -32 48 -32 44 0 -5 -17 9
-37 31 -21 22 -55 47 -75 55 -25 11 -37 23 -40 39 -2 12 -13 27 -25 32 -17 8
-23 22 -29 75 -4 37 -7 78 -6 93 2 17 -4 31 -19 41 -15 11 -23 30 -26 61 -3
26 -10 49 -14 52 -5 3 -9 20 -9 39 0 57 -7 65 -59 65 -26 0 -51 3 -55 7 -4 4
-22 6 -41 5 -26 -3 -35 1 -40 17 -3 11 -16 23 -28 27 -27 9 -43 24 -51 52 -4
12 -18 25 -32 28 -13 3 -24 10 -24 15 0 16 -31 9 -37 -9 -15 -41 -93 -81 -93
-47 0 8 5 15 10 15 6 0 10 11 10 25 0 16 -6 25 -15 25 -10 0 -15 10 -15 30 0
20 -5 30 -15 30 -10 0 -15 10 -15 30 0 17 -4 30 -10 30 -5 0 -10 16 -10 36 0
21 -4 33 -10 29 -12 -8 -36 15 -37 35 -1 8 -5 58 -11 110 -5 52 -8 125 -7 163
l3 67 -74 0 -74 0 0 -35 c0 -24 -5 -35 -15 -35 -10 0 -15 11 -15 35 0 35 -1
35 -42 35 -53 0 -64 -7 -73 -43 l-8 -29 -141 2 c-77 1 -151 -1 -163 -5 -26 -8
-31 -33 -8 -41 8 -4 15 -17 15 -29 0 -23 33 -62 83 -98 15 -11 28 -33 32 -55
4 -20 12 -40 18 -44 9 -6 9 -10 1 -15 -12 -9 -23 -124 -29 -303 -8 -222 -15
-310 -31 -357 -11 -31 -17 -89 -19 -168 -1 -66 -5 -127 -8 -135 -10 -29 -27
-156 -31 -240 -13 -245 -28 -448 -36 -475 -13 -47 -34 -99 -43 -106 -4 -3 -8
-30 -8 -60 -1 -152 -31 -312 -62 -334 -21 -14 -107 -22 -94 -8 4 3 -2 13 -13
20 -15 10 -18 21 -14 39 4 15 2 24 -6 24 -7 0 -10 7 -6 15 4 11 -2 15 -27 15
-24 0 -28 -3 -17 -10 13 -9 13 -11 0 -19 -8 -6 -12 -13 -8 -16 3 -4 2 -19 -3
-35 -9 -24 -18 -30 -64 -37 -29 -6 -106 -6 -172 -2 -251 16 -537 24 -745 20
-166 -2 -225 0 -248 10 -16 8 -30 18 -30 22 0 5 -4 6 -9 3 -14 -9 -41 4 -41
20 0 8 -10 14 -25 14 -14 0 -25 3 -25 8 1 18 19 28 73 39 31 7 64 19 72 27 8
8 20 17 27 20 10 5 10 7 1 12 -7 3 -13 15 -13 27 0 13 -12 30 -30 42 -16 11
-30 26 -30 33 0 17 -25 15 -44 -3 -8 -8 -17 -15 -21 -15 -15 0 -35 -31 -35
-55 0 -23 -2 -24 -14 -13 -8 8 -16 23 -19 34 -4 15 -5 15 -6 2 0 -9 -10 -19
-20 -23 -11 -3 -23 -14 -26 -25 -3 -10 -12 -21 -19 -23 -11 -4 -14 5 -13 41 2
44 0 47 -24 50 -24 3 -27 8 -33 60 -4 31 -14 113 -23 182 -8 69 -17 169 -20
222 -5 93 -6 98 -28 98 -20 0 -23 6 -27 51 -7 70 -1 89 28 89 13 0 24 5 24 10
0 6 -11 10 -25 10 -20 0 -25 5 -25 25 0 20 5 25 23 25 19 0 26 8 35 39 15 49
15 74 0 89 -9 9 -9 12 0 12 9 0 12 19 10 70 -2 38 -6 70 -10 70 -5 0 -8 23 -8
50 l0 50 -100 0 -100 0 0 30 c0 44 -16 37 -24 -10 l-6 -40 -90 0 c-88 0 -90 0
-90 -24 0 -30 16 -36 101 -36 39 0 69 -4 69 -10 0 -6 -44 -10 -111 -10 -124 0
-169 15 -169 57 0 21 -5 23 -45 23 -47 0 -59 -15 -32 -42 8 -7 17 -26 21 -41
3 -15 11 -27 16 -27 6 0 10 -11 10 -24 0 -20 -6 -25 -32 -28 -30 -3 -31 -4
-15 -20 20 -19 23 -48 5 -48 -6 0 -4 -6 7 -13 18 -14 14 -37 -8 -37 -15 -1
-57 -82 -57 -109 0 -11 -6 -24 -14 -28 -10 -6 -15 -46 -20 -162 -3 -85 -10
-157 -14 -160 -13 -9 -33 -72 -26 -83 3 -5 2 -14 -3 -21 -17 -21 -53 -200 -59
-289 -5 -74 -9 -91 -31 -114 -23 -25 -28 -26 -91 -21 -42 4 -71 12 -78 22 -6
8 -21 15 -34 15 -19 0 -21 4 -16 23 13 41 12 72 -3 72 -8 0 -19 14 -24 30 -13
40 -12 40 -37 15 -14 -14 -23 -39 -27 -73 -6 -55 -15 -67 -50 -67 -13 0 -23
-4 -23 -10 0 -5 -13 -4 -29 3 -30 13 -62 47 -74 80 -3 9 -13 17 -22 17 -11 0
-15 11 -15 39 0 22 -4 41 -10 43 -5 2 -11 19 -13 38 -2 20 -13 56 -24 80 -18
39 -22 71 -27 235 -3 105 -6 196 -6 203 0 8 -18 12 -55 12 l-55 0 0 -1215 0
-1215 10880 0 10880 0 -1 408 c0 224 -3 401 -6 395 -11 -29 -103 -6 -103 26 0
14 -127 15 -132 1 -1 -5 -24 -14 -50 -18 -45 -9 -47 -8 -56 18 -7 19 -23 31
-56 44 -43 16 -46 20 -47 54 -2 47 2 106 7 111 3 3 95 8 205 12 110 5 209 11
219 14 17 5 20 16 20 75 l0 68 -77 6 c-43 3 -145 9 -226 12 -174 8 -170 4
-171 129 -1 73 -3 81 -23 90 -20 9 -23 17 -23 75 0 78 -17 199 -29 214 -11 13
-32 147 -36 230 -6 123 -18 216 -28 216 -6 0 -7 32 -2 85 4 53 3 85 -3 85 -5
0 -13 35 -17 77 -4 43 -11 87 -16 100 -19 50 -77 83 -103 58 -11 -11 -15 -10
-27 6 -26 37 -89 16 -89 -30 0 -15 -6 -21 -24 -21 -20 0 -24 6 -28 44 -3 25
-14 62 -25 83 -23 44 -31 91 -38 227 -3 54 -8 102 -11 107 -7 11 17 89 28 89
4 0 8 9 8 20 0 11 12 26 29 34 18 10 29 24 30 38 1 13 2 32 3 43 1 11 1 44 0
73 -2 39 -6 52 -17 52 -10 0 -15 10 -15 30 l0 30 -65 0 c-37 0 -65 4 -65 10 0
6 11 10 24 10 12 0 35 11 50 25 21 19 26 33 26 70 0 39 -3 45 -21 45 -11 0
-17 5 -14 10 3 6 0 17 -9 25 -16 17 -66 20 -66 5 0 -5 -4 -10 -10 -10 -5 0
-10 9 -10 20 0 11 6 20 13 20 8 0 7 4 -3 10 -8 5 -32 10 -52 10 -21 0 -38 5
-38 10 0 6 7 10 15 10 8 0 15 5 15 11 0 6 8 18 17 27 16 16 15 17 -15 20 -30
3 -32 6 -32 43 0 28 -4 39 -15 39 -11 0 -15 -11 -15 -41 0 -23 -7 -47 -15 -55
-8 -9 -15 -26 -15 -40 0 -13 -4 -24 -10 -24 -5 0 -10 -9 -10 -20 0 -25 -45
-28 -78 -5 -24 18 -114 11 -135 -10 -7 -6 -18 -10 -25 -7 -6 2 -12 -1 -12 -6
0 -5 -11 -13 -25 -16 -56 -14 -6 -66 64 -66 12 0 39 -9 61 -20 22 -11 46 -20
53 -20 8 0 28 -7 43 -15 16 -8 39 -15 50 -15 42 0 46 -20 28 -155 -4 -27 -11
-56 -17 -62 -6 -9 -5 -18 3 -28 10 -13 11 -24 1 -56 -7 -24 -9 -45 -3 -52 15
-21 32 -93 32 -141 0 -39 -3 -46 -20 -46 -14 0 -20 -7 -20 -24 0 -13 6 -26 12
-28 16 -6 11 -169 -5 -181 -9 -6 -9 -10 1 -14 6 -2 12 -11 12 -19 0 -8 5 -14
10 -14 6 0 10 -7 10 -15 0 -8 -4 -15 -10 -15 -16 0 -13 -299 3 -330 19 -36 29
-118 17 -140 -13 -25 -30 -222 -20 -235 8 -10 -2 -205 -15 -303 -4 -28 -13
-52 -19 -53 -6 0 -69 -1 -141 -2 l-130 -2 -3 -31 c-3 -34 -43 -64 -86 -64 -24
0 -26 -3 -26 -42 l0 -41 -116 6 c-64 4 -119 8 -121 10 -2 2 -5 18 -6 35 -3 43
-49 57 -154 47 -175 -16 -245 -13 -236 11 12 31 -21 42 -117 40 -81 -1 -94 1
-98 16 -2 10 -13 18 -23 18 -14 0 -19 7 -19 30 0 20 -5 30 -15 30 -10 0 -15
-10 -15 -30 0 -20 -5 -30 -15 -30 -10 0 -15 10 -15 30 0 26 -4 30 -26 30 -31
0 -51 18 -56 51 -2 18 -10 25 -30 27 -26 3 -28 1 -28 -32 0 -53 -28 -76 -90
-76 -38 0 -50 4 -50 15 0 8 -6 15 -13 15 -10 0 -16 51 -25 213 -7 116 -12 245
-12 285 0 39 -4 72 -9 72 -4 0 -11 37 -15 82 -4 45 -12 88 -18 96 -7 8 -11 27
-10 43 2 24 -2 29 -19 29 -20 0 -21 4 -17 77 2 51 8 78 16 81 9 3 7 9 -7 19
-12 8 -21 24 -21 37 0 12 -5 27 -12 34 -6 6 -14 68 -19 149 -4 76 -15 183 -24
238 -10 55 -21 122 -25 149 -4 28 -12 52 -18 54 -7 2 -12 17 -12 33 0 17 -8
36 -20 46 -11 10 -20 28 -20 40 0 20 -5 23 -40 23 -42 0 -54 14 -19 23 16 4
20 12 17 34 -3 26 -7 29 -60 37 -46 7 -58 13 -58 28 0 14 -8 18 -32 18 -18 0
-43 3 -55 6 -27 7 -30 -8 -7 -30 14 -15 14 -16 -3 -17 -51 -4 -109 4 -119 17
-15 18 -54 18 -54 0 0 -8 -8 -22 -17 -32 -12 -12 -14 -19 -6 -21 9 -3 9 -12 2
-29 -5 -14 -9 -38 -9 -54 0 -20 -6 -31 -20 -35 -11 -3 -23 -18 -27 -33 -7 -30
-93 -130 -128 -148 -12 -6 -38 -14 -57 -18 -20 -4 -53 -18 -74 -33 -54 -36
-97 -53 -137 -53 -26 0 -38 -7 -57 -32 -19 -26 -26 -55 -37 -162 -17 -155 -29
-206 -48 -206 -7 0 -15 -5 -17 -11 -2 -6 -24 -13 -49 -16 -37 -4 -49 -11 -62
-32 -10 -17 -31 -32 -56 -39 -29 -9 -41 -18 -43 -35 -2 -17 -11 -23 -40 -25
-29 -2 -37 -8 -42 -28 -5 -17 -13 -24 -29 -24 -13 0 -28 -5 -34 -11 -8 -8 -17
-8 -29 -1 -12 7 -27 5 -50 -4 -18 -8 -49 -14 -69 -14 l-35 0 0 -80 c0 -77 -1
-80 -24 -80 -22 0 -24 -5 -30 -72 -4 -40 -11 -74 -16 -76 -6 -2 -10 -26 -10
-53 0 -46 -2 -49 -25 -49 -21 0 -25 -5 -26 -30 -1 -16 -2 -36 -3 -42 -1 -7 9
-14 22 -16 14 -2 22 -10 22 -23 0 -10 7 -19 15 -19 28 0 16 -30 -12 -31 -16 0
-22 -3 -15 -6 6 -2 12 -20 12 -39 0 -30 -3 -34 -25 -34 -23 0 -25 -4 -25 -45
l0 -45 -50 0 -50 0 0 45 c0 38 -3 45 -20 45 -24 0 -28 38 -5 46 17 7 21 34 5
34 -5 0 -10 18 -10 40 0 22 -4 40 -10 40 -5 0 -10 18 -10 40 0 39 -1 40 -35
40 l-35 0 0 153 c0 217 -21 670 -31 682 -5 5 -9 21 -9 36 0 16 -8 34 -18 41
-11 8 -24 44 -36 103 -10 50 -26 99 -36 110 -28 33 -70 110 -70 132 0 22 -51
127 -75 153 -9 10 -18 41 -22 71 -4 32 -24 91 -48 144 -34 71 -44 106 -50 166
-5 63 -12 86 -39 126 -26 39 -32 57 -28 86 3 27 -4 54 -26 99 -17 35 -35 92
-41 128 -23 133 -31 154 -59 171 -31 18 -64 107 -55 151 5 26 -53 146 -114
238 -15 23 -23 49 -23 78 0 24 -7 56 -15 72 -8 16 -19 57 -25 92 -10 67 -24
112 -54 168 -10 19 -23 69 -27 113 -7 54 -19 96 -40 139 -29 57 -31 69 -31
167 -1 60 -6 121 -14 141 -7 19 -15 83 -18 141 -4 58 -11 121 -16 140 -6 18
-10 61 -10 94 0 47 -7 73 -31 120 -24 46 -33 79 -39 141 -5 61 -12 88 -28 109
-18 22 -22 41 -22 96 0 47 -4 71 -14 76 -21 13 -36 48 -29 71 4 17 -4 30 -31
55 -29 27 -36 41 -36 71 0 49 -23 92 -76 141 -23 22 -46 54 -50 70 -4 17 -25
51 -46 77 -33 39 -65 60 -186 121 -159 79 -196 92 -314 102 -71 7 -78 10 -114
46 -40 41 -86 58 -108 40 -16 -13 -76 7 -136 45 -50 32 -165 55 -268 53 -90
-2 -117 5 -159 44 -17 15 -45 22 -120 29 -104 9 -151 22 -170 45 -16 20 -75
32 -158 33 -49 0 -81 6 -105 19 -21 11 -69 21 -118 25 -46 4 -109 17 -140 28
-31 11 -95 26 -142 33 -47 7 -110 22 -140 33 -30 11 -82 25 -115 32 -33 7 -73
18 -90 25 -16 7 -48 18 -70 25 -22 7 -47 18 -55 25 -20 17 -88 45 -110 45 -10
0 -40 16 -65 36 -26 20 -64 42 -84 49 -21 7 -64 26 -97 42 -32 17 -75 33 -94
37 -19 3 -44 16 -57 27 -13 13 -29 19 -38 15 -15 -5 -16 -20 -11 -114 2 -59
12 -159 20 -222 8 -63 25 -245 37 -404 l23 -288 -22 -92 c-28 -118 -42 -200
-42 -245 0 -20 -8 -66 -19 -102 -10 -36 -22 -94 -26 -128 -7 -57 -23 -91 -46
-91 -5 0 -18 -19 -30 -42 -12 -24 -32 -56 -45 -71 -21 -25 -24 -39 -24 -108 0
-74 2 -80 23 -88 28 -11 59 -55 51 -74 -4 -11 -18 -12 -71 -5 -62 9 -67 8 -92
-15 -14 -13 -34 -27 -43 -30 -9 -3 -27 -29 -40 -57 -20 -45 -28 -52 -65 -62
-35 -8 -43 -15 -43 -33 0 -29 10 -32 122 -46 126 -15 204 -67 163 -108 -13
-14 -45 -16 -218 -13 -111 1 -305 3 -432 5 -222 2 -296 10 -264 27 8 5 57 11
109 15 132 8 160 13 200 37 25 15 60 23 120 27 l85 6 3 36 c4 48 -19 73 -60
64 -22 -5 -45 2 -97 29 -45 24 -88 38 -127 42 -91 9 -122 22 -140 56 -9 17
-13 40 -10 54 5 17 2 24 -9 24 -18 0 -18 0 -15 120 1 55 7 101 14 110 6 8 19
31 28 51 13 28 27 41 62 54 35 13 46 24 51 45 7 33 36 61 92 89 38 19 41 24
48 73 8 71 29 110 97 190 32 36 58 75 58 85 1 32 24 61 80 100 61 43 114 126
125 198 4 22 19 81 34 130 38 121 50 186 54 277 l2 77 -33 6 c-18 3 -36 4 -41
1 -4 -3 -11 -29 -14 -58 -5 -41 -12 -57 -32 -71 -14 -10 -25 -27 -25 -38 0
-33 -74 -29 -105 7 -27 31 -44 30 -75 -6 -26 -32 -54 -39 -64 -15 -6 17 -36
20 -36 4 0 -6 -7 -8 -16 -5 -9 3 -34 1 -55 -6 -48 -14 -54 -9 -34 28 18 34 20
74 3 74 -6 0 0 9 13 21 20 17 24 30 24 77 0 50 -3 58 -22 67 -13 5 -23 14 -23
20 0 6 -9 16 -19 22 -15 10 -21 29 -27 83 -4 47 -13 77 -26 92 -17 20 -19 34
-14 108 17 300 25 584 16 600 -12 23 -13 217 -1 224 15 9 33 119 29 181 l-3
60 -80 23 c-44 13 -91 21 -105 18 -14 -3 -99 2 -190 9 -91 8 -185 15 -210 17
-25 1 -59 8 -77 15 -43 17 -43 17 -54 -16 -8 -23 -18 -30 -51 -35 -25 -4 -45
-3 -52 4 -14 14 -12 141 3 168 6 12 20 26 30 32 16 8 25 4 50 -21 31 -30 32
-31 81 -19 31 7 70 9 102 5 85 -12 176 -8 201 10 12 8 31 15 43 15 20 0 34 17
34 41 0 5 -9 9 -21 9 -11 0 -37 13 -57 28 -34 26 -43 28 -112 26 -43 -1 -76
-7 -78 -13 -5 -14 -42 -15 -42 -1 0 5 -12 10 -27 10 -89 2 -115 2 -183 0 -95
-4 -140 15 -140 60 0 16 7 35 15 44 8 8 15 19 15 24 0 5 11 13 25 16 14 4 25
11 25 16 0 17 27 11 34 -7 6 -14 9 -14 26 5 11 11 17 27 14 35 -3 9 4 22 17
30 20 14 20 17 6 31 -9 9 -20 16 -26 16 -6 0 -11 5 -11 10 0 6 -11 21 -24 33
-13 12 -26 32 -30 45 -4 12 -12 22 -17 22 -5 0 -9 5 -9 11 0 6 -9 23 -19 38
-11 14 -20 44 -22 66 -2 29 -12 50 -36 75 -23 24 -32 41 -29 55 8 32 -3 60
-27 70 -37 16 -28 48 18 63 36 12 44 11 97 -13 32 -15 74 -29 94 -32 43 -7
104 -73 104 -113 0 -30 32 -101 66 -147 13 -17 21 -38 18 -46 -8 -23 47 -77
72 -71 16 4 23 0 27 -15 3 -12 1 -21 -4 -21 -5 0 -9 -33 -9 -74 0 -71 1 -73
23 -69 13 3 31 -4 44 -16 25 -23 53 -28 53 -8 0 7 9 19 20 27 26 19 26 61 0
80 -16 11 -19 22 -14 46 3 19 1 35 -5 38 -6 4 -11 2 -11 -3 0 -6 -11 -11 -25
-11 -16 0 -25 6 -25 15 0 8 7 15 15 15 10 0 15 10 15 28 0 23 8 33 38 48 20
11 46 34 57 51 25 39 64 63 103 63 40 0 91 30 98 57 3 13 1 37 -5 54 -6 18
-11 45 -11 60 0 19 -6 30 -20 34 -21 7 -26 20 -12 29 4 2 32 7 62 11 76 8 98
14 150 38 52 24 60 32 60 70 0 15 5 27 11 27 6 0 9 7 7 16 -2 8 -7 14 -12 14
-5 -1 -12 2 -15 7 -3 5 -27 24 -53 42 -35 25 -51 31 -60 24 -20 -16 -95 -28
-170 -28 -56 0 -71 4 -87 22 -23 24 -60 24 -286 2 -94 -9 -120 -9 -123 1 -3 7
-13 20 -23 28 -11 9 -19 27 -19 39 0 13 -4 23 -10 23 -5 0 -10 17 -11 38 0 20
-3 31 -6 25 -6 -16 -23 -17 -23 -2 0 6 -7 17 -15 25 -8 9 -15 22 -15 30 0 8 7
14 15 14 12 0 15 15 15 79 0 84 5 93 53 105 15 3 27 13 27 20 0 8 11 17 25 20
14 4 25 14 25 23 0 10 11 27 24 38 31 27 41 61 21 72 -9 5 -17 22 -18 39 -1
16 -12 37 -24 47 -17 13 -23 29 -23 57 0 46 -10 50 -122 50 -48 0 -78 4 -78
11 0 11 60 39 86 39 9 0 27 9 41 20 14 11 49 22 83 26 32 3 61 12 64 19 2 7
28 15 58 19 29 4 72 16 95 26 50 22 138 29 155 12 7 -7 32 -12 57 -12 53 0 68
-8 85 -41 6 -13 26 -28 44 -33 17 -5 32 -15 32 -22 0 -8 4 -14 9 -14 5 0 11
-22 15 -49 4 -31 12 -51 22 -55 13 -5 16 -18 12 -67 -3 -45 -1 -62 9 -66 7 -3
13 -17 13 -31 0 -14 3 -22 7 -19 4 4 18 -13 33 -38 15 -25 29 -42 33 -38 4 3
7 -15 7 -42 0 -27 7 -75 16 -107 14 -47 21 -58 38 -58 11 0 26 -4 32 -8 22
-15 44 -57 44 -84 0 -23 23 -48 57 -63 2 -1 10 -63 16 -120 1 -11 6 -23 12
-27 12 -9 7 -342 -6 -346 -5 -2 -9 -14 -9 -27 0 -13 -4 -27 -10 -30 -5 -3 -10
-17 -10 -31 0 -21 5 -24 33 -24 37 0 77 -24 77 -45 0 -8 12 -22 28 -32 49 -31
70 -57 70 -88 0 -16 5 -31 11 -33 6 -2 11 -14 11 -27 0 -13 7 -30 15 -37 30
-27 40 -37 53 -53 10 -12 28 -15 74 -13 l61 3 13 50 c8 28 19 64 24 81 14 43
5 61 -38 75 -21 6 -48 21 -62 33 -14 12 -36 28 -50 34 -28 14 -52 56 -43 78 3
8 19 14 38 14 67 0 65 -6 65 189 1 280 18 400 60 426 15 9 11 126 -5 155 -8
14 -15 50 -15 80 0 30 -5 87 -11 125 -5 39 -15 120 -22 180 -11 88 -20 121
-44 166 -24 46 -31 74 -39 155 -4 54 -7 136 -6 182 3 102 -10 134 -91 213 -55
53 -60 62 -59 97 1 33 -4 45 -36 77 -20 21 -46 56 -57 79 -17 34 -26 42 -54
44 -19 2 -43 10 -55 17 -12 7 -43 17 -71 20 -27 4 -66 17 -85 30 -21 14 -59
25 -94 29 -43 5 -92 23 -190 71 -72 35 -148 67 -170 71 -21 4 -59 18 -85 33
l-46 26 -270 1 c-148 1 -288 0 -310 -3z m-456 -349 c39 -8 39 -20 -1 -64 -32
-34 -34 -35 -108 -34 -76 1 -155 21 -155 39 0 6 11 12 24 13 14 2 41 15 60 28
37 25 109 32 180 18z m561 -1049 c0 -41 -2 -45 -25 -45 -28 0 -32 14 -10 36 8
9 15 24 15 35 0 10 5 19 10 19 6 0 10 -20 10 -45z m772 -837 c13 -7 24 -13 26
-14 1 -1 0 -9 -4 -18 -5 -12 -14 -16 -29 -12 -15 4 -28 -1 -40 -14 -20 -22
-46 -19 -107 12 -44 21 -47 31 -15 53 26 18 132 14 169 -7z m-1745 -114 c3 -8
-1 -22 -10 -31 -13 -14 -16 -13 -22 6 -11 35 19 59 32 25z m1254 -1421 c7 -17
9 -89 7 -183 -3 -133 -6 -160 -22 -185 l-19 -29 -29 35 c-58 67 -62 77 -62
163 0 121 11 174 41 202 36 33 71 31 84 -3z m-63 -901 c-4 -38 -45 -44 -54 -8
-9 36 11 59 38 45 13 -7 18 -19 16 -37z m742 5 c0 -42 -30 -58 -101 -55 -64 3
-64 3 -64 33 0 34 19 42 108 44 53 1 57 0 57 -22z m-65 -206 c-4 -23 -11 -41
-16 -41 -10 0 -12 60 -3 85 12 31 26 -2 19 -44z m-142 -84 c64 -1 77 -3 77
-17 0 -8 -9 -24 -21 -33 -11 -10 -18 -24 -16 -32 3 -7 -12 -32 -34 -56 -27
-29 -36 -46 -29 -53 5 -5 10 -20 10 -33 0 -15 6 -23 18 -23 23 -1 49 -39 60
-87 8 -36 -8 -219 -21 -241 -3 -4 -7 -124 -8 -265 -1 -196 -5 -261 -15 -274
-7 -10 -14 -27 -14 -38 0 -11 -14 -36 -30 -55 -23 -27 -33 -31 -42 -22 -7 7
-31 12 -53 12 -29 0 -47 6 -60 20 -10 11 -26 20 -36 20 -20 0 -84 52 -100 81
-20 37 -31 519 -13 559 7 14 15 64 18 113 8 96 26 150 56 169 11 7 20 18 20
25 0 17 15 16 34 -2 8 -8 30 -15 49 -15 19 0 40 7 47 15 7 8 19 15 26 15 25 0
14 15 -24 33 -35 16 -38 16 -50 0 -12 -17 -15 -16 -37 9 -12 14 -42 32 -66 39
-75 22 -99 44 -99 93 0 23 3 46 7 50 4 4 66 4 138 0 71 -4 165 -7 208 -7z
m253 -353 c8 -29 -7 -49 -30 -41 -16 6 -22 48 -9 60 14 15 33 6 39 -19z m-696
-1439 c104 -8 117 -12 123 -34 9 -34 -9 -46 -65 -44 -101 4 -133 4 -211 -3
-78 -6 -79 -6 -75 17 4 32 99 83 138 74 8 -2 49 -7 90 -10z m731 -315 c11 0
46 7 77 16 58 17 75 17 377 -2 166 -10 189 -48 48 -80 -71 -16 -140 -18 -303
-12 -36 1 -92 1 -125 0 -33 -1 -117 1 -187 5 -98 6 -131 12 -144 25 -29 29
-10 45 63 57 110 17 127 18 150 4 12 -7 32 -13 44 -13z m-590 -42 c23 -46 15
-67 -19 -49 -11 6 -54 11 -94 11 -40 1 -86 6 -102 13 -27 12 -28 14 -12 29 9
9 38 20 64 24 26 3 65 10 87 14 50 8 51 8 76 -42z m-387 -34 c24 -9 9 -24 -24
-24 -29 0 -45 12 -33 24 8 8 37 8 57 0z m1227 -255 c13 -14 42 -30 64 -34 27
-6 34 -10 21 -13 -26 -6 -274 18 -304 29 -27 11 -172 1 -172 -11 0 -12 -49
-21 -65 -13 -27 15 2 35 56 39 29 2 55 8 59 13 7 12 92 18 221 17 89 -1 97 -3
120 -27z m-861 -33 c0 -31 -11 -35 -164 -52 -97 -11 -132 -12 -142 -3 -46 38
23 64 158 61 32 -1 68 3 80 8 44 17 68 12 68 -14z m447 -308 c29 -12 53 -25
53 -30 0 -5 -11 -14 -25 -20 -19 -8 -39 -8 -82 2 -69 16 -77 21 -68 49 9 28
53 28 122 -1z m-525 -24 c23 4 48 11 54 17 16 13 54 -5 54 -26 0 -42 -8 -45
-124 -45 -133 0 -153 8 -102 39 20 13 36 27 36 33 0 6 9 3 20 -7 15 -14 29
-16 62 -11z m82 -333 c17 -19 17 -20 -3 -30 -22 -12 -80 -15 -106 -5 -13 5 -8
12 22 30 47 29 65 30 87 5z m-6754 -835 c0 -20 -16 -36 -36 -36 -25 0 -34 24
-11 33 15 7 47 8 47 3z m430 -987 c0 -6 14 -9 32 -7 30 3 32 1 34 -32 6 -72
12 -93 36 -114 14 -11 65 -66 113 -121 49 -55 94 -104 102 -108 7 -4 13 -15
13 -22 0 -8 5 -15 11 -15 6 0 9 -7 5 -15 -3 -9 0 -15 9 -15 8 0 32 -17 53 -38
22 -22 54 -41 77 -47 52 -13 85 -61 85 -122 0 -40 3 -45 30 -54 27 -10 30 -15
30 -53 0 -35 4 -45 25 -56 25 -13 33 -30 15 -30 -5 0 -10 -11 -10 -24 0 -13
-11 -31 -25 -42 -14 -10 -25 -25 -25 -32 0 -7 -7 -15 -15 -18 -8 -4 -15 -17
-15 -31 0 -14 -13 -37 -29 -53 -16 -16 -32 -42 -36 -57 -9 -39 -25 -54 -47
-47 -10 3 -26 0 -34 -6 -8 -7 -27 -10 -42 -7 -33 7 -102 -7 -111 -21 -3 -6
-19 -14 -34 -17 -15 -4 -27 -13 -27 -20 0 -16 -28 -30 -67 -34 -7 0 -13 -10
-13 -21 0 -11 -7 -20 -14 -20 -19 0 -61 -41 -61 -59 0 -33 -23 -19 -27 17 -7
50 -34 82 -70 82 -16 0 -28 5 -28 12 0 6 -10 31 -21 56 -18 36 -23 72 -30 215
-5 95 -13 228 -18 297 -8 118 -7 154 5 260 2 25 6 95 7 157 2 90 5 116 20 133
9 11 17 29 17 40 0 11 5 20 10 20 6 0 10 7 10 15 0 9 7 18 15 21 8 3 17 14 20
25 7 20 25 26 25 8z m16773 -242 c2 -7 2 -36 -1 -65 l-5 -52 -47 0 -48 0 -4
48 c-7 76 -3 82 52 82 29 0 50 -5 53 -13z m-2893 -72 c0 -30 -3 -55 -8 -55
-18 0 -42 43 -42 75 0 31 3 35 25 35 24 0 25 -3 25 -55z m-9472 -77 c3 -13
-14 -16 -105 -17 -74 0 -103 2 -93 9 8 5 47 10 87 10 39 0 75 5 78 11 9 14 29
6 33 -13z m9443 -120 c1 -7 1 -21 0 -30 -1 -10 4 -18 13 -18 9 0 16 -7 16 -15
0 -8 4 -15 9 -15 21 0 31 -70 26 -185 -7 -161 -11 -181 -44 -216 -28 -28 -30
-29 -130 -29 l-101 0 0 45 0 45 -40 0 c-22 0 -40 5 -40 10 0 6 5 10 10 10 6 0
10 14 10 30 0 27 -3 30 -31 30 l-32 0 6 47 c3 26 10 49 16 51 6 2 11 10 11 18
0 17 26 19 34 2 5 -10 7 -10 12 0 3 7 12 18 19 26 8 7 17 25 20 39 8 32 35 44
51 23 17 -24 24 -19 24 15 0 32 34 78 57 79 6 0 19 -7 28 -17 14 -14 18 -14
26 -2 5 8 7 23 4 35 -5 21 1 34 17 34 4 0 9 -6 9 -12z m-1421 -568 l-7 -75 -1
95 c0 52 3 86 7 75 4 -11 4 -54 1 -95z m-15867 -232 c22 -20 25 -30 24 -78 -1
-36 -9 -66 -21 -85 -11 -17 -19 -43 -18 -60 3 -46 -10 -59 -52 -51 -33 6 -36
10 -36 40 0 33 -33 74 -73 89 -9 3 -17 16 -17 27 0 12 -4 18 -10 15 -13 -8 -8
36 5 51 6 5 18 13 28 17 9 3 17 11 17 17 0 5 10 10 23 10 13 0 32 7 43 15 27
21 57 18 87 -7z m936 -85 c2 -1 -1 -8 -7 -15 -5 -7 -12 -26 -14 -43 -3 -28 -6
-30 -50 -33 -27 -2 -48 -7 -48 -13 0 -5 -7 -9 -15 -9 -11 0 -15 12 -17 45 -1
25 -2 53 -2 63 -1 14 10 18 59 22 33 3 67 1 75 -5 8 -5 17 -11 19 -12z m370 1
c64 -7 80 -20 34 -27 -23 -3 -22 -4 8 -6 33 -1 37 -4 41 -31 3 -17 1 -33 -4
-36 -5 -3 0 -14 12 -24 24 -21 28 -70 5 -70 -9 0 -15 -10 -15 -26 0 -31 -21
-54 -49 -54 -16 0 -22 -8 -27 -40 -7 -44 -21 -53 -26 -17 -3 19 -10 22 -55 25
-38 2 -53 7 -53 18 0 7 -7 14 -16 14 -11 0 -14 5 -10 16 3 9 6 31 6 49 0 25 5
35 20 40 27 8 25 23 -5 49 -25 22 -25 23 -9 61 12 30 13 40 4 43 -20 7 11 22
46 22 17 0 59 -3 93 -6z m17871 -14 c0 -5 7 -10 15 -10 8 0 15 5 15 10 0 6 37
10 90 10 73 0 90 -3 90 -15 0 -8 7 -15 15 -15 9 0 15 -9 15 -24 l0 -24 -352 0
c-194 0 -426 2 -515 5 -151 5 -163 6 -163 24 0 18 11 19 203 21 256 4 331 1
335 -12 5 -13 32 -13 32 0 0 6 38 10 95 10 78 0 95 3 95 15 0 8 7 15 15 15 8
0 15 -4 15 -10z m-17509 -47 c1 -16 1 -32 0 -36 -1 -4 6 -16 15 -25 11 -10 13
-17 5 -20 -6 -2 -8 -14 -5 -28 3 -13 2 -24 -4 -24 -5 0 -12 -18 -16 -40 -3
-22 -11 -40 -16 -40 -6 0 -10 5 -10 11 0 19 -28 39 -54 39 -16 0 -26 6 -26 15
0 10 -10 15 -30 15 -29 0 -30 2 -30 45 0 25 -4 45 -10 45 -5 0 -10 5 -10 10 0
6 11 10 25 10 20 0 25 5 25 25 0 24 2 25 70 25 69 0 70 0 71 -27z m892 6 c13
-6 32 -29 42 -51 16 -37 16 -44 2 -91 -9 -29 -18 -64 -21 -79 -4 -16 -11 -28
-16 -28 -6 0 -10 -6 -10 -13 0 -7 -9 -19 -19 -27 -16 -11 -21 -31 -27 -92 -7
-82 -21 -104 -26 -40 -3 36 -4 37 -48 42 -44 5 -45 6 -43 37 2 24 -3 37 -22
51 -15 12 -25 30 -25 46 0 16 -4 24 -13 21 -9 -4 -11 7 -9 40 3 36 1 45 -12
45 -9 0 -16 7 -16 15 0 8 4 15 10 15 5 0 12 16 16 35 5 28 12 36 33 41 68 14
117 28 126 35 13 12 49 11 78 -2z m15797 -4 c0 -9 -6 -12 -15 -9 -8 4 -15 10
-15 15 0 5 7 9 15 9 8 0 15 -7 15 -15z m-2520 -15 c0 -5 -9 -10 -20 -10 -11 0
-20 5 -20 10 0 6 9 10 20 10 11 0 20 -4 20 -10z m-13680 -80 c0 -11 5 -20 10
-20 6 0 10 -4 10 -10 0 -6 -28 -10 -65 -10 -37 0 -65 4 -65 10 0 6 5 10 10 10
6 0 10 9 10 20 0 17 7 20 45 20 38 0 45 -3 45 -20z m-60 -440 c0 -5 -9 -10
-20 -10 -11 0 -20 5 -20 10 0 6 9 10 20 10 11 0 20 -4 20 -10z m60 0 c0 -5 -7
-10 -15 -10 -8 0 -15 5 -15 10 0 6 7 10 15 10 8 0 15 -4 15 -10z m-30 -55 c0
-8 7 -15 15 -15 8 0 15 -4 15 -10 0 -6 -28 -10 -65 -10 -37 0 -65 4 -65 10 0
6 16 10 35 10 24 0 35 5 35 15 0 8 7 15 15 15 8 0 15 -7 15 -15z m-30 -85 c0
-20 -5 -30 -15 -30 -10 0 -15 10 -15 30 0 20 5 30 15 30 10 0 15 -10 15 -30z
m60 0 c0 -20 -5 -30 -15 -30 -10 0 -15 10 -15 30 0 20 5 30 15 30 10 0 15 -10
15 -30z"/>
<path d="M4390 1655 c0 -14 5 -25 10 -25 6 0 10 -4 10 -10 0 -5 -11 -10 -25
-10 -14 0 -25 -4 -25 -10 0 -19 53 -10 72 13 17 19 18 22 4 25 -9 2 -16 12
-16 23 0 10 -7 19 -15 19 -9 0 -15 -9 -15 -25z"/>
<path d="M17920 2110 c0 -5 7 -10 15 -10 8 0 15 5 15 10 0 6 -7 10 -15 10 -8
0 -15 -4 -15 -10z"/>
<path d="M18000 2100 c0 -11 5 -20 10 -20 6 0 10 9 10 20 0 11 -4 20 -10 20
-5 0 -10 -9 -10 -20z"/>
<path d="M660 1195 c0 -8 4 -15 9 -15 5 0 11 7 15 15 3 9 0 15 -9 15 -8 0 -15
-7 -15 -15z"/>
<path d="M11805 10203 c-6 -5 -16 -20 -24 -35 -8 -16 -18 -28 -23 -28 -20 0
-5 -32 19 -41 15 -6 31 -16 35 -22 10 -16 43 4 43 25 0 9 6 22 13 31 8 9 12
28 10 44 -2 23 -8 28 -33 31 -16 1 -35 -1 -40 -5z"/>
<path d="M8895 9560 c-4 -6 0 -22 9 -35 9 -13 18 -43 22 -67 8 -54 41 -134 71
-173 33 -43 55 -65 65 -65 13 0 9 56 -6 92 -8 18 -22 58 -31 89 -11 41 -28 67
-60 99 -25 24 -45 50 -45 57 0 16 -16 17 -25 3z"/>
<path d="M11314 8886 c-11 -29 6 -126 22 -126 8 0 14 10 14 26 0 31 23 28 28
-4 5 -30 20 -28 28 4 6 24 0 92 -9 101 -3 2 -21 6 -41 10 -27 4 -37 2 -42 -11z"/>
<path d="M20557 4148 c-3 -12 -1 -30 4 -40 9 -18 12 -16 30 18 23 47 24 44 -5
44 -16 0 -26 -7 -29 -22z"/>
<path d="M20620 4080 c0 -5 -7 -10 -15 -10 -8 0 -15 -9 -15 -21 0 -18 5 -20
42 -17 46 3 57 17 33 42 -18 18 -45 21 -45 6z"/>
<path d="M2310 3985 c-12 -14 -12 -18 1 -26 17 -12 87 -5 102 10 15 15 9 18
-44 26 -36 5 -48 3 -59 -10z"/>
<path d="M20560 3980 c0 -21 8 -24 49 -20 23 2 51 21 51 34 0 3 -22 6 -50 6
-43 0 -50 -3 -50 -20z"/>
<path d="M16858 3694 c-3 -3 -4 -14 -1 -25 4 -15 14 -19 52 -19 54 0 61 4 54
31 -4 15 -14 19 -52 19 -26 0 -50 -3 -53 -6z"/>
<path d="M17638 3673 c-10 -2 -18 -9 -18 -14 0 -5 53 -9 120 -9 118 0 157 11
83 24 -42 6 -158 6 -185 -1z"/>
<path d="M17585 3660 c3 -5 10 -10 16 -10 5 0 9 5 9 10 0 6 -7 10 -16 10 -8 0
-12 -4 -9 -10z"/>
<path d="M18210 3585 c0 -8 7 -15 15 -15 8 0 15 7 15 15 0 8 -7 15 -15 15 -8
0 -15 -7 -15 -15z"/>
<path d="M20100 3560 c0 -5 7 -10 15 -10 8 0 15 5 15 10 0 6 -7 10 -15 10 -8
0 -15 -4 -15 -10z"/>
<path d="M2652 1663 c3 -27 5 -28 71 -31 l67 -3 0 31 0 30 -71 0 -70 0 3 -27z"/>
</g>
</svg>
