<?xml version="1.0" standalone="no"?>
<!DOCTYPE svg PUBLIC "-//W3C//DTD SVG 20010904//EN"
 "http://www.w3.org/TR/2001/REC-SVG-20010904/DTD/svg10.dtd">
<svg version="1.0" xmlns="http://www.w3.org/2000/svg"
 width="2442.000000pt" height="1742.000000pt" viewBox="0 0 2442.000000 1742.000000"
 preserveAspectRatio="xMidYMid meet">
<metadata>
Created by potrace 1.16, written by Peter Selinger 2001-2019
</metadata>
<g transform="translate(0.000000,1742.000000) scale(0.100000,-0.100000)"
fill="#000000" stroke="none">
<path d="M0 8710 l0 -8710 12210 0 12210 0 0 520 c0 516 0 520 -20 520 -26 0
-37 -27 -21 -52 6 -10 9 -23 6 -28 -10 -16 -55 -12 -55 5 0 36 -24 65 -59 71
-23 5 -36 3 -39 -5 -2 -6 -23 -11 -47 -11 -25 0 -50 -6 -59 -15 -16 -17 -36
-20 -36 -6 0 5 -18 8 -41 6 -34 -3 -42 0 -46 15 -3 11 -14 22 -24 25 -14 5
-19 16 -19 46 0 33 -3 39 -21 39 -19 0 -49 21 -49 35 0 4 11 5 26 3 17 -2 31
4 42 19 16 20 31 23 177 32 88 6 187 14 220 19 l60 7 3 83 c2 62 0 82 -10 82
-114 1 -471 23 -498 30 -42 11 -78 64 -66 96 4 11 10 70 12 132 4 96 3 112
-11 112 -11 0 -15 11 -15 45 0 52 -27 191 -43 220 -9 18 -17 80 -32 264 -2 30
-9 57 -15 61 -17 10 -40 59 -40 84 0 12 -4 26 -9 31 -9 10 -15 67 -26 270 -8
136 -23 172 -83 204 -16 9 -22 21 -22 46 0 40 -9 44 -30 15 -16 -23 -65 -27
-83 -8 -29 31 -36 71 -42 218 -6 163 -11 212 -25 245 -5 11 -26 56 -45 100
-22 47 -40 108 -46 150 -5 38 -13 88 -18 110 -7 27 -7 42 1 46 8 5 8 16 0 38
-7 19 -9 59 -5 97 5 52 2 71 -13 99 -10 19 -26 35 -35 35 -10 0 -20 11 -23 25
-4 15 -13 25 -25 25 -10 0 -21 9 -24 21 -3 11 -15 23 -26 26 -15 4 -21 13 -21
34 0 22 -5 29 -20 29 -15 0 -20 -7 -20 -30 0 -46 -20 -80 -47 -80 -12 0 -23
-4 -23 -8 0 -15 -101 -59 -135 -60 -59 -1 -151 -23 -160 -38 -5 -8 -18 -25
-27 -36 -10 -12 -18 -24 -18 -28 0 -12 53 -33 105 -41 94 -15 120 -20 140 -29
11 -5 35 -11 53 -14 44 -8 60 -26 65 -71 3 -21 10 -41 16 -45 12 -7 12 -8 -38
-106 -12 -23 -21 -60 -21 -83 0 -22 -4 -41 -10 -41 -5 0 -10 -4 -10 -10 0 -5
7 -10 16 -10 34 0 70 -65 60 -111 -3 -18 -1 -38 5 -45 9 -11 7 -15 -5 -20 -9
-3 -16 -12 -16 -20 0 -8 -4 -14 -10 -14 -5 0 -10 -26 -10 -57 0 -32 -5 -91
-10 -131 -13 -102 -15 -264 -3 -287 30 -57 35 -80 37 -171 1 -55 10 -126 19
-159 12 -45 13 -70 6 -100 -5 -22 -11 -87 -13 -145 -3 -58 -8 -185 -12 -283
-4 -98 -11 -180 -15 -183 -5 -3 -9 -21 -9 -40 0 -24 -5 -34 -15 -34 -8 0 -15
-5 -15 -11 0 -5 5 -7 10 -4 6 3 10 1 10 -4 0 -7 -22 -11 -52 -10 -29 0 -47 3
-40 6 36 14 1 23 -93 23 -98 0 -105 1 -105 20 0 17 -7 20 -44 20 -36 0 -46 -4
-51 -20 -5 -17 -15 -20 -71 -20 -50 0 -64 -3 -64 -15 0 -10 -9 -15 -27 -14
-16 0 -22 3 -15 6 22 9 13 23 -15 23 -52 0 -103 20 -103 39 0 20 -19 31 -51
31 -11 0 -19 7 -19 16 0 37 -25 45 -142 43 -99 -1 -113 1 -116 15 -2 11 -10
15 -19 12 -8 -3 -17 -6 -19 -6 -2 0 -4 -18 -4 -40 l0 -40 -95 0 c-78 0 -95 -3
-95 -15 0 -9 -9 -15 -21 -15 -11 0 -27 7 -35 15 -9 8 -29 15 -45 15 -37 0 -59
20 -59 53 0 14 -7 28 -16 31 -27 10 -54 7 -54 -8 0 -15 -27 -29 -40 -21 -5 3
-7 12 -4 19 6 16 -76 28 -130 19 -35 -5 -36 -7 -36 -49 0 -44 0 -44 -35 -44
-35 0 -35 0 -35 45 0 25 -4 45 -10 45 -5 0 -10 25 -10 55 0 51 -2 55 -24 55
-22 0 -23 3 -30 113 -13 229 -26 363 -36 402 -7 22 -16 67 -21 100 -9 62 -26
105 -41 105 -12 0 -10 68 2 72 12 4 -9 68 -22 68 -4 0 -8 14 -8 30 0 20 -5 30
-15 30 -18 0 -19 14 -5 41 8 14 6 25 -6 44 -13 19 -18 66 -24 221 -5 119 -12
200 -19 207 -6 6 -11 35 -11 63 0 29 -4 56 -10 59 -5 3 -10 17 -10 30 0 39
-11 55 -37 55 -20 0 -23 4 -18 20 5 15 -2 29 -25 50 -43 40 -60 39 -60 -5 0
-28 -4 -35 -20 -35 -13 0 -20 7 -20 20 0 13 -7 20 -19 20 -12 0 -21 9 -25 25
-6 23 -10 25 -70 25 -49 0 -65 -4 -70 -16 -10 -25 -7 -34 9 -34 8 0 15 -3 15
-6 0 -13 -30 -34 -49 -34 -11 0 -26 -7 -35 -15 -8 -8 -17 -15 -21 -15 -10 0
-35 -28 -35 -39 0 -6 -4 -11 -10 -11 -5 0 -10 -9 -10 -21 0 -19 -5 -21 -57
-19 -122 5 -173 1 -173 -14 0 -7 -7 -19 -15 -26 -8 -7 -15 -20 -15 -30 0 -10
-10 -20 -22 -23 -93 -23 -113 -30 -128 -47 -10 -11 -22 -20 -27 -20 -6 0 -16
-7 -23 -15 -7 -8 -20 -15 -29 -15 -9 0 -23 -10 -31 -21 -26 -37 -41 -49 -61
-49 -10 0 -19 -4 -19 -8 0 -4 -14 -13 -30 -19 -23 -9 -30 -17 -30 -40 -1 -33
-22 -119 -33 -129 -4 -4 -7 -16 -7 -26 0 -19 -15 -49 -40 -80 -10 -13 -28 -18
-62 -18 -27 0 -48 -5 -48 -10 0 -6 -20 -20 -45 -32 -32 -16 -45 -28 -45 -43 0
-32 -28 -65 -55 -65 -14 0 -29 -8 -34 -19 -14 -25 -62 -41 -122 -41 -36 0 -55
6 -77 25 -17 14 -40 25 -51 25 -22 0 -59 33 -88 77 -9 13 -21 23 -27 23 -7 0
-19 11 -26 25 -8 14 -25 28 -39 31 -14 3 -35 10 -46 17 -11 6 -40 14 -65 17
-39 4 -45 8 -48 30 -1 14 -7 49 -13 78 -9 45 -13 52 -35 52 -17 0 -25 7 -28
23 -8 42 -26 216 -26 255 0 43 -13 55 -50 45 -38 -10 -141 28 -184 69 -11 10
-24 18 -29 18 -4 0 -28 14 -52 30 -33 22 -55 30 -89 30 -39 0 -47 4 -63 30 -9
17 -25 30 -35 30 -10 0 -18 5 -18 10 0 6 -9 10 -21 10 -26 0 -49 23 -49 49 0
12 -5 21 -11 21 -23 0 -38 36 -39 88 0 28 -4 52 -10 52 -6 0 -10 35 -10 85 0
94 7 85 -82 100 -29 4 -38 11 -38 25 0 11 -3 20 -6 20 -10 0 -34 -28 -34 -39
0 -6 -20 -11 -45 -11 l-45 0 0 -55 0 -55 -95 0 -95 0 0 -35 0 -35 -55 0 -55 0
0 -57 c0 -32 -3 -75 -6 -96 -6 -34 -9 -37 -40 -37 -34 0 -34 -1 -34 -45 l0
-45 -180 0 -180 0 0 -45 c0 -33 -4 -45 -15 -45 -12 0 -15 -13 -15 -55 0 -30
-4 -55 -10 -55 -5 0 -10 -18 -10 -40 0 -39 -1 -40 -35 -40 -32 0 -35 -2 -35
-30 0 -16 5 -30 10 -30 6 0 10 -7 10 -15 0 -8 -4 -15 -10 -15 -5 0 -10 -11
-10 -25 0 -14 -4 -25 -10 -25 -5 0 -10 -9 -10 -20 0 -17 -7 -20 -50 -20 l-50
0 0 -45 0 -45 -40 0 c-34 0 -40 -3 -40 -20 0 -29 95 -120 124 -120 13 0 26 -7
30 -15 4 -11 -2 -15 -27 -15 -18 0 -38 -4 -45 -8 -16 -11 -4 -72 14 -72 20 0
17 -28 -2 -32 -15 -3 -17 -16 -15 -91 2 -82 1 -87 -18 -87 -18 0 -21 -6 -21
-45 0 -33 -4 -45 -15 -45 -10 0 -15 -10 -15 -32 0 -18 -3 -57 -6 -86 l-7 -52
-118 0 c-73 0 -119 -4 -119 -10 0 -5 -9 -10 -20 -10 -11 0 -20 5 -20 10 0 15
-26 12 -43 -4 -17 -17 -53 -11 -61 10 -3 8 -1 26 5 40 7 21 6 31 -6 44 -14 16
-14 19 0 33 19 20 20 57 0 57 -11 0 -15 12 -15 45 0 37 -3 45 -19 45 -21 0
-31 19 -31 59 l0 28 -100 -1 c-55 0 -100 -4 -100 -8 0 -22 -21 -4 -26 22 -4
16 -15 32 -25 35 -11 4 -19 11 -19 16 0 5 -7 9 -15 9 -8 0 -20 9 -27 20 -14
23 -74 28 -80 8 -3 -9 -9 -8 -22 5 -29 28 -86 19 -86 -13 0 -25 -16 -34 -24
-14 -11 27 -7 54 9 60 18 7 20 24 4 24 -16 0 -38 31 -39 53 0 25 -18 21 -22
-5 -2 -18 -11 -24 -35 -26 -30 -3 -33 -1 -33 23 0 18 7 28 26 35 22 9 25 14
19 42 -8 33 -46 78 -67 78 -23 1 -48 27 -48 49 0 24 -21 51 -39 51 -6 0 -11 9
-11 19 0 11 -4 21 -10 23 -5 1 -11 21 -12 43 -3 44 -12 55 -45 55 -16 0 -23 6
-23 20 0 17 -7 20 -43 20 -31 0 -45 -5 -55 -20 -16 -26 -90 -28 -118 -2 -10 9
-32 22 -49 27 -22 8 -31 18 -33 38 -2 15 -9 27 -17 27 -7 0 -26 10 -42 23 -15
13 -49 36 -75 51 -46 26 -48 29 -48 72 0 41 -6 52 -66 123 l-67 78 -59 7 c-33
3 -64 8 -69 12 -5 3 -9 26 -9 52 0 26 -7 60 -15 76 -10 19 -15 52 -14 90 2 62
-6 106 -20 106 -15 0 -47 35 -73 80 -18 32 -28 67 -33 123 -5 57 -14 92 -36
132 -16 30 -29 61 -29 68 0 8 -11 19 -25 25 -14 6 -25 17 -25 23 0 6 -14 24
-30 39 -35 33 -38 50 -10 50 13 0 20 7 20 19 0 11 6 22 13 24 9 4 8 8 -3 16
-23 16 -50 13 -50 -5 0 -14 -8 -15 -47 -9 -27 3 -53 12 -60 18 -8 9 -9 49 -2
150 10 159 19 201 49 225 17 14 24 36 33 101 l11 83 54 46 c54 46 91 106 92
147 0 11 6 32 14 47 27 51 45 164 46 278 1 128 16 230 35 245 18 15 32 75 41
165 4 51 14 88 30 116 22 38 24 51 24 193 0 138 2 155 20 179 18 23 20 38 19
142 -2 64 1 122 6 130 29 47 43 1344 18 1612 l-15 157 -64 122 c-73 141 -152
232 -244 279 -33 16 -62 41 -73 59 -13 22 -29 33 -60 41 -63 16 -97 36 -152
91 -27 28 -77 77 -110 110 -63 63 -160 119 -206 119 -46 0 -89 12 -89 25 0 28
-124 105 -170 105 -12 0 -53 31 -98 74 -85 81 -162 126 -216 126 -25 0 -45 9
-69 30 -19 17 -39 30 -45 30 -6 0 -32 11 -58 25 -26 14 -53 25 -60 25 -8 0
-31 15 -51 33 -48 43 -124 87 -149 87 -11 0 -25 -5 -32 -12 -16 -16 -15 -111
2 -152 12 -28 12 -55 4 -151 -8 -85 -7 -120 1 -128 15 -15 13 -67 -4 -97 -21
-36 -18 -80 5 -105 l21 -22 -21 -54 c-14 -35 -24 -94 -31 -174 -25 -318 -35
-362 -98 -440 -13 -16 -39 -62 -57 -101 -18 -40 -37 -75 -44 -79 -6 -3 -24
-36 -41 -73 -16 -37 -39 -76 -50 -88 -15 -16 -19 -33 -18 -66 4 -74 -54 -130
-149 -143 l-52 -7 0 -54 c0 -47 -2 -54 -20 -54 -11 0 -20 -4 -20 -10 0 -5 15
-10 33 -10 19 0 39 -7 49 -19 15 -18 14 -19 -23 -30 -21 -6 -50 -9 -64 -5 -16
4 -34 0 -49 -9 -20 -14 -25 -29 -36 -115 -10 -78 -10 -103 0 -121 14 -28 15
-144 0 -221 -6 -30 -14 -82 -19 -116 -13 -89 -30 -115 -83 -128 -24 -5 -28 -3
-35 22 -13 47 -55 88 -98 96 -22 4 -92 7 -155 7 -112 -1 -117 0 -170 30 -50
29 -65 33 -166 38 -101 6 -113 9 -143 34 -18 15 -45 27 -59 27 -47 0 -158 27
-188 46 -82 51 -92 79 -41 118 42 32 102 34 157 6 26 -13 49 -18 68 -14 22 5
40 -1 68 -20 34 -23 49 -26 124 -26 47 0 125 -9 174 -20 156 -35 192 -24 183
56 -6 59 -24 76 -90 85 -31 4 -71 18 -93 33 -27 18 -64 29 -119 37 -44 6 -102
17 -130 25 -78 22 -153 34 -210 34 -36 0 -60 6 -76 19 -14 10 -41 26 -62 34
-20 9 -37 23 -37 31 0 8 -12 28 -26 45 -15 18 -24 40 -22 53 3 20 10 23 50 26
26 2 62 -4 83 -12 21 -9 58 -16 84 -16 27 0 58 -8 77 -19 26 -16 44 -18 120
-14 87 5 90 4 155 -30 69 -37 135 -54 204 -53 34 1 40 4 43 24 5 30 -15 80
-43 112 -12 14 -30 37 -39 52 -17 25 -16 27 13 61 17 19 31 45 31 59 0 13 6
32 14 43 7 11 17 35 21 53 6 28 2 38 -29 72 -20 22 -36 44 -36 49 0 4 -19 11
-42 13 -24 3 -60 16 -80 30 -70 48 -204 78 -262 58 -28 -9 -41 -7 -88 15 -52
24 -68 25 -283 32 l-229 6 -33 35 c-18 18 -33 36 -33 38 0 54 -27 213 -44 258
-13 34 -26 99 -30 146 -6 71 -4 91 11 122 10 21 23 38 29 38 6 0 19 9 29 20
13 15 20 49 28 143 9 110 8 130 -7 173 -10 27 -26 105 -36 174 -16 103 -17
136 -8 200 6 41 11 116 12 166 1 98 13 127 50 122 14 -2 30 -21 47 -56 14 -29
49 -76 77 -105 54 -55 72 -90 72 -137 0 -22 12 -38 51 -70 28 -25 61 -65 76
-94 31 -61 68 -112 106 -146 21 -19 27 -33 27 -66 0 -59 51 -134 91 -134 28 0
37 -3 86 -28 13 -7 31 -12 41 -12 9 0 32 -12 50 -28 17 -15 45 -37 62 -50 19
-15 30 -33 30 -48 0 -14 10 -30 24 -39 30 -20 37 -50 45 -215 4 -74 10 -142
14 -151 4 -8 21 -23 36 -32 16 -9 45 -33 64 -52 19 -19 41 -35 49 -35 17 0 68
-57 68 -76 0 -20 -27 -17 -52 6 -21 20 -78 28 -78 12 0 -5 -13 -22 -30 -38
-38 -37 -37 -50 1 -70 24 -12 45 -14 85 -9 50 6 54 9 70 46 18 40 29 48 37 27
3 -10 8 -10 21 1 15 13 21 13 44 -1 15 -8 48 -21 75 -28 35 -9 47 -17 47 -31
0 -25 12 -24 30 1 8 11 25 20 38 20 12 0 33 6 45 14 12 8 35 17 50 20 38 7 50
17 88 79 18 29 50 71 72 93 58 62 50 75 -53 91 -157 25 -137 63 43 85 92 11
108 15 114 33 4 11 6 183 4 382 -3 344 -2 363 16 386 16 21 18 34 12 83 -4 33
-12 77 -18 99 -13 49 -14 115 -2 115 15 0 32 54 41 131 5 41 14 119 21 173 10
89 10 101 -5 111 -24 18 -140 25 -419 24 -285 0 -304 4 -299 61 3 43 17 72 42
88 13 8 125 14 361 18 273 6 342 10 346 21 3 7 2 38 -2 69 -6 48 -9 54 -26 49
-15 -5 -19 -2 -19 14 0 12 -6 21 -13 21 -8 0 -24 9 -37 20 -12 11 -38 22 -56
26 -36 7 -47 24 -15 24 24 0 33 13 25 34 -4 10 -18 16 -35 16 -16 0 -29 5 -29
11 0 7 -7 17 -16 24 -11 8 -14 19 -10 33 7 19 15 22 67 22 52 0 63 -4 90 -29
27 -26 37 -30 85 -28 44 2 54 5 54 20 0 9 5 17 10 17 6 0 23 11 38 25 15 14
31 25 36 25 5 0 17 10 28 23 15 16 18 31 14 57 -3 19 0 47 7 63 13 29 48 48
55 28 2 -6 12 -11 23 -11 10 0 19 -4 19 -10 0 -5 9 -14 20 -20 16 -9 24 -7 36
5 14 13 13 15 -7 15 l-22 0 24 21 c16 15 20 23 12 26 -20 7 -15 25 5 19 21 -6
62 22 46 32 -15 9 -44 78 -44 103 0 12 -7 19 -18 19 -10 0 -24 10 -32 21 -8
12 -21 27 -27 35 -7 7 -13 15 -13 19 0 15 -31 35 -55 35 -14 0 -28 7 -31 15
-4 8 -12 15 -20 15 -8 0 -14 5 -14 10 0 6 -16 10 -35 8 -19 -1 -40 3 -47 10
-7 7 -27 12 -45 12 -27 0 -33 4 -33 20 0 12 -9 38 -20 60 -28 55 -26 78 8 86
15 4 35 14 46 23 14 12 41 16 120 16 55 0 108 -3 117 -7 21 -9 98 9 117 29 13
13 17 34 15 94 -1 90 -12 107 -83 128 -77 23 -89 29 -105 60 -16 32 -12 76 10
98 7 7 16 33 20 58 6 46 7 46 24 26 22 -25 31 -27 31 -6 0 8 9 24 20 35 25 25
25 43 0 99 -11 24 -20 56 -20 72 0 21 -7 31 -27 41 -21 10 -29 23 -35 57 -4
25 -11 47 -15 50 -5 3 -16 33 -27 66 -10 33 -22 70 -26 82 -5 11 -6 24 -3 27
4 3 34 6 69 6 53 0 67 -4 93 -26 17 -14 31 -32 31 -40 0 -20 34 -82 62 -116
13 -14 42 -31 66 -37 23 -7 43 -17 43 -24 1 -7 2 -23 3 -36 1 -19 9 -27 36
-34 19 -5 43 -16 53 -24 14 -13 24 -14 50 -6 46 14 149 6 163 -12 7 -10 28
-15 60 -15 52 0 58 4 132 84 18 20 38 36 45 36 7 0 30 18 51 39 30 31 41 53
53 107 9 38 15 92 14 119 -1 48 1 52 45 90 25 22 57 50 71 63 14 13 36 28 49
33 14 5 30 21 36 36 7 16 27 46 45 68 36 42 57 102 73 203 6 34 27 106 46 160
27 73 37 116 39 172 1 41 10 122 19 180 16 100 14 152 -5 176 -5 6 -2 81 7
175 13 126 15 220 10 404 -3 132 -7 247 -9 255 -1 9 -13 32 -25 51 -12 20 -22
49 -22 64 0 32 -46 81 -112 117 -24 13 -49 36 -56 51 -14 29 -17 31 -65 41
-18 4 -36 19 -48 41 -16 26 -34 39 -71 52 -28 10 -71 37 -97 60 -31 28 -73 52
-128 73 -46 17 -83 35 -83 39 0 16 -76 58 -126 70 -37 9 -95 10 -230 3 -167
-9 -183 -8 -231 10 -29 11 -56 25 -60 31 -19 29 -77 67 -103 67 -15 0 -43 6
-62 14 -19 8 -58 18 -87 22 -28 4 -54 11 -57 15 -3 5 -13 9 -23 9 -10 0 -43
20 -75 44 -76 60 -139 74 -244 57 -91 -16 -164 -59 -208 -124 -16 -23 -56 -69
-90 -102 -34 -33 -69 -73 -79 -88 -10 -16 -50 -46 -89 -68 -82 -45 -98 -64
-122 -145 -20 -71 -29 -88 -71 -137 -18 -20 -33 -47 -33 -60 0 -34 -18 -46
-59 -40 -53 7 -101 23 -101 34 0 5 -5 9 -11 9 -7 0 -17 7 -23 15 -16 22 -75
27 -112 10 -17 -8 -67 -20 -110 -26 -64 -10 -88 -19 -123 -46 -24 -18 -53 -33
-65 -33 -44 0 -154 -80 -156 -113 0 -4 -9 -29 -21 -54 -38 -85 -9 -169 79
-228 58 -40 63 -50 51 -101 -4 -22 -9 -61 -9 -89 0 -27 -7 -75 -15 -105 -9
-34 -15 -102 -15 -180 0 -152 -32 -323 -73 -385 -14 -22 -33 -68 -43 -103 -11
-40 -24 -67 -36 -73 -19 -10 -20 -20 -16 -127 3 -96 7 -124 25 -157 54 -100
53 -183 -1 -169 -18 4 -27 1 -36 -16 -16 -29 -55 -43 -121 -41 -65 1 -92 -20
-104 -79 -4 -19 -13 -44 -20 -56 -16 -24 -6 -137 13 -156 7 -7 12 -24 12 -38
0 -14 6 -34 14 -45 7 -11 16 -33 20 -49 l7 -30 23 29 23 29 7 -30 c4 -17 2
-43 -4 -58 -5 -15 -10 -38 -10 -52 0 -14 -7 -27 -15 -30 -19 -8 -20 -24 -2
-24 8 0 19 -10 25 -22 17 -35 34 -107 27 -119 -17 -26 106 -179 144 -179 12 0
34 -8 47 -19 16 -13 49 -21 105 -25 111 -10 124 -17 155 -78 25 -49 26 -58 20
-143 -9 -128 -25 -194 -51 -211 -12 -8 -30 -33 -40 -57 -28 -69 -31 -72 -73
-78 -23 -3 -43 -7 -45 -10 -23 -28 -37 -58 -37 -79 0 -14 -7 -34 -15 -44 -8
-11 -15 -31 -15 -44 0 -39 -41 -142 -61 -152 -19 -11 -42 -74 -60 -167 -10
-57 -15 -64 -47 -80 -62 -31 -68 -102 -23 -286 8 -32 7 -36 -5 -26 -8 6 -28
14 -45 18 -40 8 -59 55 -68 166 -6 64 -15 96 -46 160 -21 44 -49 93 -63 109
-21 26 -23 37 -20 102 3 63 1 74 -15 78 -21 5 -53 -26 -73 -73 -8 -18 -26 -48
-41 -66 -16 -18 -36 -44 -45 -58 -9 -13 -46 -37 -82 -52 -50 -21 -67 -34 -75
-56 -5 -15 -32 -44 -60 -64 -32 -23 -61 -55 -78 -88 -28 -50 -29 -51 -108 -72
-76 -19 -80 -21 -77 -47 3 -34 -10 -41 -108 -58 -56 -10 -84 -21 -108 -42 -18
-15 -44 -28 -57 -28 -13 0 -26 -4 -29 -8 -3 -5 -30 -14 -60 -21 -31 -7 -88
-28 -128 -48 -40 -19 -105 -41 -145 -48 -53 -9 -78 -19 -91 -35 -12 -15 -43
-28 -97 -41 -62 -14 -86 -26 -114 -53 -42 -40 -78 -56 -129 -56 -23 0 -51 -9
-73 -24 -19 -13 -87 -41 -150 -62 -62 -20 -119 -41 -125 -46 -16 -11 -64 -14
-91 -5 -18 7 -25 3 -37 -22 -13 -24 -26 -32 -73 -42 -66 -14 -117 -37 -176
-80 -50 -36 -110 -64 -160 -73 -21 -4 -57 -20 -81 -36 -24 -17 -53 -30 -64
-30 -18 0 -62 -15 -117 -40 -11 -5 -45 -12 -75 -16 -30 -3 -71 -14 -90 -24
-50 -25 -161 -57 -258 -74 -105 -18 -138 -45 -148 -117 -5 -36 -13 -52 -30
-64 -13 -8 -24 -22 -24 -30 0 -17 -25 -59 -63 -106 -101 -123 -131 -175 -155
-264 -13 -49 -28 -109 -33 -132 -18 -92 -42 -160 -73 -213 -18 -30 -43 -88
-55 -127 -12 -40 -25 -73 -30 -73 -4 0 -24 -16 -44 -35 -20 -19 -40 -35 -45
-35 -28 0 -109 -141 -142 -247 -11 -37 -32 -84 -45 -103 -34 -49 -45 -84 -45
-138 0 -79 -18 -164 -46 -217 -17 -33 -29 -75 -34 -125 -5 -46 -21 -105 -41
-155 -27 -67 -34 -97 -38 -184 -6 -103 -6 -105 -36 -121 -28 -15 -30 -22 -42
-109 -10 -76 -21 -109 -57 -181 -28 -54 -51 -118 -61 -166 -9 -44 -23 -86 -30
-94 -31 -36 -125 -249 -125 -285 0 -24 -24 -94 -49 -143 -10 -21 -21 -59 -25
-86 -3 -27 -12 -57 -20 -65 -7 -9 -26 -43 -41 -76 -15 -33 -41 -88 -57 -122
-16 -34 -36 -88 -44 -120 -8 -32 -26 -83 -39 -114 -14 -31 -25 -69 -25 -85 0
-16 -14 -49 -31 -74 -50 -74 -70 -119 -79 -178 -7 -42 -16 -62 -34 -77 -23
-18 -25 -29 -30 -122 -2 -59 -10 -113 -19 -130 -8 -15 -22 -55 -32 -88 -9 -33
-25 -76 -36 -97 -10 -20 -19 -46 -19 -56 0 -21 -33 -53 -72 -70 -27 -11 -58
-66 -58 -101 0 -9 -9 -32 -19 -52 -11 -20 -25 -56 -31 -80 -6 -24 -18 -53 -25
-65 -7 -11 -16 -45 -19 -75 -11 -89 -17 -108 -36 -114 -27 -9 -30 -36 -14
-153 7 -59 14 -127 14 -152 0 -25 7 -66 15 -93 13 -42 12 -50 -3 -77 -22 -38
-37 -44 -66 -25 -13 9 -49 16 -82 17 -57 1 -94 14 -94 32 0 5 -9 16 -19 25
-10 9 -21 28 -23 41 -1 14 -13 29 -26 35 -12 5 -22 15 -22 22 0 10 -31 13
-125 13 -93 0 -125 -3 -125 -12 0 -7 -6 -80 -15 -163 -8 -82 -21 -283 -30
-445 -15 -275 -43 -494 -65 -510 -14 -10 -21 -79 -29 -276 -9 -201 -15 -234
-50 -262 -9 -6 -29 -10 -46 -7 -43 7 -103 -10 -124 -34 -10 -12 -28 -21 -40
-21 -12 0 -21 -6 -21 -15 0 -19 -7 -19 -26 0 -17 16 -44 20 -44 6 0 -5 7 -11
15 -15 23 -9 18 -26 -9 -26 -15 0 -26 -7 -29 -20 -3 -12 -14 -20 -27 -20 -16
0 -20 -4 -16 -16 11 -30 -4 -64 -30 -64 -21 0 -24 -5 -24 -35 l0 -35 -64 0
c-41 0 -70 5 -78 13 -11 12 -16 12 -26 1 -7 -7 -12 -18 -12 -24 0 -5 -4 -10
-10 -10 -5 0 -10 11 -10 25 0 16 -6 25 -15 25 -8 0 -15 9 -15 20 0 16 -7 20
-30 20 -20 0 -30 5 -30 15 0 8 5 15 10 15 6 0 10 7 10 15 0 10 11 15 35 15 19
0 35 5 35 10 0 6 -20 10 -44 10 -36 0 -46 4 -51 20 -5 16 -15 20 -51 20 -24 0
-44 -4 -44 -8 0 -15 -49 -32 -90 -32 -38 0 -40 -1 -40 -33 0 -34 -27 -67 -55
-67 -8 0 -15 -4 -15 -9 0 -19 -32 -41 -61 -41 -19 0 -29 5 -29 15 0 8 -6 15
-14 15 -17 0 -31 68 -21 100 3 11 2 20 -4 20 -5 0 -13 9 -16 20 -7 23 -60 28
-68 7 -3 -9 -26 -12 -78 -11 -77 2 -99 -8 -99 -45 0 -15 -6 -21 -21 -21 -11 0
-27 -7 -35 -15 -21 -20 -84 -20 -84 0 0 8 -7 15 -15 15 -8 0 -15 -7 -15 -15 0
-20 -63 -20 -84 0 -18 18 -24 19 -41 2 -8 -9 -40 -14 -84 -15 l-70 -2 -3 37
c-3 32 -8 38 -38 48 -31 11 -35 16 -32 44 1 17 -2 31 -7 31 -16 0 -30 148 -35
376 -5 197 -3 234 10 253 14 19 14 42 4 189 -6 92 -15 259 -20 372 -5 113 -12
244 -15 293 l-7 87 -54 0 -54 0 0 -45 c0 -45 0 -45 -35 -45 -35 0 -35 0 -35
-45 l0 -45 -60 0 -60 0 0 45 c0 38 -3 45 -20 45 -19 0 -20 7 -20 95 l0 95
-140 0 -140 0 0 -95 c0 -57 -4 -95 -10 -95 -5 0 -10 -20 -10 -45 0 -25 -4 -45
-10 -45 -5 0 -10 -13 -10 -29 0 -16 -7 -45 -15 -64 -8 -20 -15 -47 -15 -60 0
-13 -8 -32 -19 -43 -13 -14 -22 -47 -29 -110 -6 -49 -22 -124 -36 -167 -14
-43 -26 -87 -26 -98 0 -11 -5 -30 -12 -42 -20 -36 -29 -121 -38 -357 -10 -246
-14 -278 -41 -328 -11 -18 -19 -41 -19 -52 0 -10 -7 -23 -15 -27 -13 -8 -21
-35 -41 -141 -4 -17 -11 -32 -15 -32 -5 0 -9 -12 -9 -26 0 -40 -18 -64 -47
-64 -25 0 -26 -1 -20 -51 4 -35 3 -49 -5 -47 -14 5 -22 108 -8 108 6 0 10 9
10 20 0 11 -4 20 -10 20 -5 0 -10 9 -10 20 0 11 -4 20 -10 20 -5 0 -10 -9 -10
-20 0 -30 -17 -24 -23 8 -8 35 -46 78 -82 92 -25 10 -27 13 -21 50 6 36 4 40
-14 40 -15 0 -20 -7 -20 -25 0 -14 -4 -25 -10 -25 -5 0 -10 -9 -10 -20 0 -11
-7 -23 -15 -26 -9 -4 -15 -19 -15 -39 0 -29 -4 -34 -28 -37 -22 -2 -28 -9 -30
-33 -4 -41 -27 -55 -90 -55 -71 0 -82 12 -82 93 0 56 -4 70 -31 106 -35 49
-34 40 -49 351 -6 124 -13 233 -16 243 -4 13 -17 17 -60 17 l-54 0 0 35 c0 19
5 35 10 35 6 0 10 -11 10 -25 0 -18 4 -23 16 -18 10 4 14 16 12 42 -3 32 -6
36 -31 36 -27 1 -27 0 -27 -65 -1 -47 -3 -60 -10 -48 -6 10 -14 265 -19 625
-10 756 -8 13688 3 13724 7 23 15 26 88 37 44 6 84 9 88 7 16 -10 160 17 160
30 0 8 14 13 38 13 20 0 59 4 87 10 61 12 1005 3 1005 -9 0 -5 7 -9 15 -9 8 0
15 -4 15 -9 0 -5 10 -9 22 -9 126 -2 594 -24 668 -32 199 -21 1750 -50 1750
-32 0 12 72 23 184 28 80 3 91 1 107 -17 15 -18 25 -20 61 -14 24 4 96 9 161
11 64 3 117 9 117 13 0 19 271 33 530 28 262 -6 350 -12 360 -27 3 -5 67 -14
143 -21 75 -6 137 -16 137 -20 0 -5 27 -9 59 -9 33 0 61 -4 63 -10 2 -5 54
-12 116 -16 61 -4 112 -11 112 -16 0 -12 118 -10 122 3 2 7 47 13 121 17 l117
5 12 39 c7 25 22 45 40 56 15 9 30 24 33 33 11 34 55 52 127 53 37 0 68 4 68
8 0 13 91 9 186 -7 86 -16 164 -13 164 6 0 5 31 9 69 9 61 0 70 -3 76 -20 7
-23 -2 -60 -16 -60 -5 0 -9 -18 -9 -39 0 -22 -4 -43 -10 -46 -20 -13 -9 -36
20 -41 17 -4 30 -10 30 -15 0 -5 6 -9 13 -9 7 0 19 -9 27 -20 11 -16 26 -20
67 -20 28 0 55 5 58 10 4 6 15 8 25 5 10 -3 40 0 66 6 27 6 88 13 136 14 62 2
100 9 130 23 37 17 62 20 169 18 86 -1 131 -5 141 -14 12 -10 77 -13 275 -12
142 1 311 -2 376 -6 78 -5 117 -4 117 3 0 6 12 13 28 16 15 3 37 15 49 26 12
12 28 21 36 21 7 0 24 11 37 25 13 14 29 25 35 25 6 0 34 11 61 25 27 14 81
30 119 36 39 6 88 21 110 32 33 17 56 20 140 19 95 -1 153 -6 238 -19 20 -3
37 -1 37 4 0 9 127 11 150 1 44 -18 61 -22 125 -30 95 -11 98 -11 198 -5 l87
7 0 -34 c0 -20 -8 -40 -20 -51 -10 -9 -27 -34 -38 -54 -16 -32 -18 -50 -13
-119 0 -11 12 -24 26 -30 14 -6 25 -17 25 -23 0 -6 9 -20 21 -30 18 -16 32
-17 100 -12 56 4 79 3 79 -6 0 -8 50 -11 175 -11 118 0 175 4 175 11 0 7 46 9
148 6 235 -8 367 -22 396 -40 16 -11 46 -17 84 -17 32 0 62 -4 68 -10 20 -20
165 -31 243 -19 42 6 107 8 145 4 68 -6 73 -5 111 24 29 22 51 31 81 31 40 0
84 25 84 48 0 5 12 12 28 15 15 2 53 14 84 26 32 11 74 21 95 21 21 1 65 7 98
15 37 9 112 15 193 15 72 0 132 4 132 9 0 4 28 12 63 15 81 9 137 25 162 47
11 9 46 20 77 24 35 5 59 13 62 22 3 8 10 12 14 9 4 -2 8 10 9 29 1 23 -6 40
-23 56 -13 12 -24 28 -24 35 0 6 -16 26 -35 43 -19 17 -35 37 -35 46 0 13
-678 15 -6565 15 l-6565 0 0 -8710z m12512 5571 c39 -1 53 -7 84 -36 30 -29
44 -35 79 -35 24 0 48 6 54 14 7 8 47 16 112 20 64 5 113 13 133 24 26 14 59
17 197 16 186 -1 222 -9 277 -60 49 -46 87 -66 114 -59 30 8 64 -17 52 -36
-17 -27 -21 -182 -5 -187 6 -2 11 -9 11 -16 0 -6 9 -18 20 -26 21 -15 28 -50
10 -50 -5 0 -10 -5 -10 -11 0 -7 -9 -19 -19 -28 -13 -11 -20 -32 -21 -66 -5
-91 -2 -100 50 -156 45 -50 49 -58 50 -105 0 -29 -6 -58 -15 -70 -8 -10 -15
-26 -15 -35 0 -9 -11 -28 -25 -43 -14 -15 -25 -35 -25 -46 0 -10 -9 -21 -19
-25 -11 -3 -22 -13 -25 -21 -8 -22 -26 -7 -26 22 0 21 -5 24 -35 24 -22 0 -35
-5 -35 -13 0 -10 -14 -13 -57 -9 -32 3 -61 9 -64 14 -4 6 -34 10 -68 11 -51 0
-64 -3 -80 -22 -21 -24 -28 -22 -69 22 -9 9 -26 17 -39 17 -12 0 -28 6 -35 13
-22 21 -92 41 -96 28 -5 -14 -52 -15 -52 -1 0 6 -9 10 -20 10 -11 0 -20 -4
-20 -9 0 -4 -31 -9 -70 -10 -60 -1 -71 1 -82 19 -7 11 -18 20 -25 20 -7 0 -13
4 -13 9 0 4 -18 11 -39 14 -39 5 -91 44 -91 67 0 19 -40 50 -64 50 -13 0 -45
9 -70 20 -25 10 -53 17 -61 14 -10 -4 -15 0 -15 15 0 12 -4 21 -10 21 -5 0
-10 9 -10 20 0 11 -3 20 -7 20 -5 0 -6 38 -4 85 3 81 2 85 -18 85 -19 0 -21 6
-21 56 0 48 -4 60 -26 80 -17 17 -23 30 -19 43 3 11 1 22 -5 26 -6 4 -9 14 -6
22 3 8 -1 21 -9 29 -14 15 -10 44 6 44 5 0 9 14 9 31 0 17 4 28 10 24 6 -4 10
7 10 24 0 17 -4 31 -10 31 -5 0 -10 6 -10 13 0 6 -14 18 -31 26 -17 7 -27 17
-22 22 7 7 217 17 268 12 11 -1 41 -2 67 -2z m1012 -1024 c11 -10 11 -15 0
-25 -26 -24 -41 -12 -28 22 7 19 12 20 28 3z m-3098 -396 c0 -19 -11 -22 -35
-7 -11 7 -11 10 0 17 22 14 35 10 35 -10z m1176 -2028 c23 -21 23 -39 -2 -88
-11 -22 -20 -48 -20 -60 0 -28 -15 -49 -29 -41 -6 4 -11 12 -11 17 0 6 -11 27
-25 47 -29 42 -33 102 -9 126 20 21 73 20 96 -1z m-542 -2322 c25 -4 67 -20
95 -36 68 -41 108 -53 190 -60 106 -9 183 -26 189 -42 9 -22 -11 -52 -39 -59
-55 -14 -323 17 -357 41 -13 8 -30 15 -40 15 -9 0 -52 18 -94 40 -43 22 -88
40 -101 40 -30 0 -31 28 -2 59 19 20 28 22 68 16 25 -4 66 -10 91 -14z m49
-1073 c20 -13 54 -24 76 -25 314 -17 361 -26 449 -86 35 -25 122 -57 152 -57
16 0 24 -23 24 -68 0 -52 -8 -60 -66 -67 -46 -7 -53 -4 -94 26 -42 32 -183 79
-196 66 -3 -3 -20 -1 -37 4 -28 8 -263 35 -325 37 -33 1 -92 49 -92 74 0 12
-7 29 -16 39 -19 21 -13 34 30 60 40 24 51 24 95 -3z m1035 -283 c23 -35 21
-88 -5 -111 -21 -19 -21 -18 -41 6 -22 27 -21 88 2 115 17 21 25 19 44 -10z
m-981 -90 c20 -8 58 -15 84 -15 26 -1 77 -8 113 -16 36 -8 103 -22 150 -30 65
-11 102 -25 155 -56 148 -87 156 -95 130 -131 -8 -12 -15 -30 -15 -41 0 -44
-54 -72 -80 -41 -7 8 -29 19 -49 24 -20 4 -61 14 -91 21 -30 7 -66 21 -80 32
-24 17 -155 40 -210 36 -14 0 -49 15 -80 36 -40 27 -62 36 -82 32 -17 -3 -35
2 -52 15 -24 19 -26 24 -19 77 3 31 11 60 17 64 18 13 71 9 109 -7z m-3 -380
c17 -9 30 -20 30 -24 0 -5 55 -11 123 -13 l122 -4 68 -42 c37 -23 82 -45 100
-49 18 -3 46 -13 62 -21 17 -9 50 -18 74 -21 59 -8 70 -27 47 -79 -10 -22 -27
-43 -38 -45 -25 -7 -70 6 -114 33 -26 17 -72 27 -186 41 -83 10 -154 21 -157
25 -3 3 2 11 12 18 18 14 13 16 -120 47 -64 15 -123 40 -124 53 -2 22 3 81 8
89 7 12 63 8 93 -8z m43 -384 c24 -11 73 -27 108 -36 42 -10 74 -26 94 -45 17
-17 40 -30 51 -30 11 0 24 -4 30 -9 11 -11 116 -17 131 -8 6 4 32 4 58 0 59
-8 85 -40 65 -78 l-13 -24 -172 2 c-133 2 -177 6 -190 17 -16 14 -208 80 -231
80 -29 0 -47 113 -22 138 17 17 39 15 91 -7z m22 -426 c22 -8 76 -14 120 -15
76 -1 147 -18 202 -48 12 -7 29 -12 37 -12 8 0 30 -20 48 -45 20 -27 45 -48
63 -53 27 -8 23 -10 -36 -17 -79 -8 -119 -1 -176 31 -23 13 -57 24 -76 24 -19
0 -45 8 -58 19 -19 15 -34 18 -79 14 -93 -9 -151 38 -120 96 13 25 22 25 75 6z
m327 -469 c19 -12 56 -25 81 -28 56 -7 83 -24 66 -44 -11 -13 -51 -16 -223
-15 -112 0 -190 87 -91 102 88 13 131 10 167 -15z m-7398 -1412 c9 -23 8 -24
-19 -24 -28 0 -30 5 -12 25 16 19 24 18 31 -1z m70 0 c9 -22 8 -24 -9 -24 -8
0 -15 9 -15 20 0 24 15 27 24 4z m256 -468 c0 -26 5 -36 21 -41 19 -6 20 -12
14 -68 -10 -102 -16 -137 -25 -137 -4 0 -11 -11 -14 -25 -4 -14 -13 -25 -21
-25 -18 0 -18 -1 -4 39 6 17 15 31 20 31 5 0 9 5 9 10 0 6 -16 10 -35 10 -35
0 -35 0 -35 45 0 33 -4 45 -15 45 -22 0 -18 15 10 36 30 23 33 44 5 44 -23 0
-27 25 -7 45 12 11 23 15 70 24 4 0 7 -14 7 -33z m-18 -431 c-14 -31 -32 -33
-32 -2 0 29 20 51 34 37 6 -6 5 -18 -2 -35z m13846 -322 c-10 -2 -26 -2 -35 0
-10 3 -2 5 17 5 19 0 27 -2 18 -5z m25 -43 c31 -36 22 -50 -32 -50 -54 0 -77
17 -66 50 9 28 74 28 98 0z m31 -80 c31 -11 35 -40 6 -40 -11 0 -20 -4 -20
-10 0 -19 -41 -10 -67 16 -21 21 -23 28 -12 35 19 12 62 11 93 -1z m36 -380
c0 -5 9 -10 20 -10 11 0 20 5 20 10 0 6 20 10 45 10 25 0 45 -4 45 -10 0 -5 7
-10 15 -10 8 0 15 5 15 10 0 6 7 10 15 10 10 0 15 -10 15 -30 0 -29 -1 -30
-49 -30 -41 0 -51 4 -56 20 -3 11 -12 20 -20 20 -8 0 -17 -9 -20 -20 -6 -18
-15 -20 -86 -20 -46 0 -79 4 -79 10 0 6 20 10 45 10 38 0 45 3 45 20 0 11 7
20 15 20 8 0 15 -4 15 -10z m1630 0 c0 -5 -9 -10 -20 -10 -11 0 -20 5 -20 10
0 6 9 10 20 10 11 0 20 -4 20 -10z m30 -40 c0 -5 -7 -10 -15 -10 -8 0 -15 5
-15 10 0 6 7 10 15 10 8 0 15 -4 15 -10z m-17100 -60 c0 -20 -5 -30 -15 -30
-10 0 -15 10 -15 30 0 20 5 30 15 30 10 0 15 -10 15 -30z m15570 -15 c0 -12
-18 -15 -100 -15 -82 0 -100 3 -100 15 0 12 18 15 100 15 82 0 100 -3 100 -15z
m-16240 -35 c0 -11 -7 -20 -15 -20 -8 0 -15 9 -15 20 0 11 7 20 15 20 8 0 15
-9 15 -20z m19698 -642 c7 -7 12 -20 12 -30 0 -17 -20 -18 -360 -18 -198 0
-360 4 -360 8 0 5 11 15 25 22 19 10 30 11 50 2 30 -14 255 -17 255 -4 0 5 46
10 103 11 83 2 182 10 253 20 5 0 15 -4 22 -11z"/>
<path d="M13241 17410 c19 -11 149 -9 149 3 0 4 -37 7 -82 7 -56 -1 -78 -4
-67 -10z"/>
<path d="M13690 17416 c0 -2 21 -18 48 -34 49 -32 98 -34 109 -6 3 7 20 16 39
20 69 13 31 24 -81 24 -63 0 -115 -2 -115 -4z"/>
<path d="M14080 17411 c0 -17 82 -23 256 -20 238 4 397 -1 410 -12 13 -10 238
-31 376 -34 54 -1 103 -7 110 -13 8 -6 44 -16 81 -23 37 -7 67 -16 67 -21 0
-4 9 -8 20 -8 11 0 20 -4 20 -10 0 -6 51 -10 134 -10 79 0 137 -4 141 -10 3
-5 14 -10 24 -10 10 0 45 -13 77 -30 32 -16 62 -30 67 -30 7 0 59 -22 157 -67
76 -35 180 -105 180 -120 0 -7 11 -13 25 -13 15 0 25 -6 25 -14 0 -22 27 -28
168 -33 72 -3 132 -10 132 -14 0 -5 9 -9 20 -9 11 0 20 5 20 11 0 7 68 8 218
5 290 -7 382 -14 399 -32 10 -9 37 -14 81 -14 112 0 295 -19 302 -30 7 -12 40
-3 40 11 0 5 11 9 25 9 16 0 25 6 25 16 0 9 11 26 24 38 14 12 26 37 29 61 4
22 11 41 17 43 5 2 10 12 10 22 0 29 11 50 26 50 8 0 14 5 14 10 0 6 9 10 21
10 18 0 20 4 15 25 -7 27 22 65 50 65 8 0 22 7 30 15 12 11 39 15 108 15 54 0
97 5 103 11 7 7 58 12 130 13 95 1 137 6 216 28 54 15 104 34 111 41 12 12
290 40 386 39 93 -1 233 -22 269 -41 32 -18 155 -40 211 -39 63 1 120 -10 120
-23 0 -5 8 -9 19 -9 10 0 36 -7 57 -16 26 -11 53 -14 88 -10 28 3 69 1 91 -5
44 -13 264 -12 280 1 11 9 418 23 605 21 69 -1 217 -7 330 -14 113 -6 244 -12
293 -12 48 0 87 -3 87 -8 0 -4 82 -7 183 -7 100 0 205 -3 232 -8 28 -4 151 -9
275 -11 126 -1 226 -7 228 -12 2 -5 19 -9 38 -9 19 0 34 -4 34 -10 0 -5 11
-10 24 -10 13 0 29 -7 36 -15 7 -8 21 -15 31 -15 10 0 21 -4 24 -10 3 -5 20
-10 36 -10 17 0 32 -6 35 -15 4 -8 15 -15 25 -15 10 0 19 -4 19 -10 0 -5 5
-10 11 -10 6 0 17 -7 25 -15 9 -8 30 -15 48 -15 18 0 43 -9 56 -20 12 -11 39
-22 59 -26 38 -6 124 -44 129 -56 5 -12 42 -10 42 2 0 6 18 10 40 10 52 0 112
25 143 59 14 16 40 31 61 35 20 4 36 11 36 16 0 6 9 10 20 10 11 0 20 5 20 10
0 6 18 10 39 10 22 0 41 5 43 11 6 17 420 18 425 2 4 -10 67 -13 270 -13 222
0 267 -2 279 -15 9 -8 20 -15 25 -15 5 0 9 80 9 190 l0 190 -5170 0 c-3215 0
-5170 -4 -5170 -9z"/>
<path d="M12918 11878 c-20 -24 -24 -58 -8 -58 6 0 10 9 10 19 0 11 7 26 15
35 8 8 15 17 15 20 0 13 -16 5 -32 -16z"/>
<path d="M12965 11790 c-3 -11 -12 -20 -18 -20 -7 0 -29 -5 -49 -11 -40 -10
-53 -39 -19 -39 11 0 22 -6 24 -12 4 -10 8 -10 15 1 8 11 10 11 14 0 6 -18 38
12 38 36 0 9 7 23 15 31 19 19 19 34 1 34 -8 0 -18 -9 -21 -20z"/>
<path d="M13090 11564 c0 -9 7 -14 17 -12 25 5 28 28 4 28 -12 0 -21 -6 -21
-16z"/>
<path d="M13000 11530 c0 -5 9 -10 20 -10 11 0 20 5 20 10 0 6 -9 10 -20 10
-11 0 -20 -4 -20 -10z"/>
<path d="M12928 11463 c-47 -7 -30 -30 18 -24 6 1 9 -20 6 -57 -3 -45 0 -61
12 -71 28 -23 40 2 40 81 1 71 0 73 -24 74 -14 1 -37 -1 -52 -3z"/>
<path d="M12460 9985 c0 -17 5 -25 13 -22 6 2 12 12 12 22 0 10 -6 20 -12 23
-8 2 -13 -6 -13 -23z"/>
<path d="M23100 4696 c0 -8 -6 -17 -12 -20 -10 -5 -10 -7 0 -12 8 -4 12 -29
12 -74 0 -45 -4 -70 -12 -73 -10 -4 -10 -8 1 -16 10 -6 14 -24 13 -50 -4 -54
14 -53 21 1 3 24 11 44 16 46 16 5 13 22 -4 22 -8 0 -15 5 -15 10 0 6 7 13 15
16 16 7 21 60 6 66 -6 2 -11 24 -13 50 -2 30 -8 48 -15 48 -7 0 -13 -6 -13
-14z"/>
<path d="M2675 4555 c-27 -32 -35 -35 -82 -35 -46 0 -53 -3 -53 -20 0 -18 7
-20 55 -20 30 0 55 -4 55 -10 0 -6 42 -10 105 -10 63 0 105 4 105 10 0 6 23
10 50 10 43 0 50 3 50 20 0 17 -7 20 -50 20 -39 0 -54 5 -75 25 -14 14 -25 30
-25 35 0 6 -24 10 -52 10 -48 0 -56 -4 -83 -35z"/>
<path d="M3239 4564 c-6 -8 -18 -14 -25 -14 -8 0 -14 -3 -14 -8 0 -4 -18 -6
-40 -4 -25 3 -40 0 -40 -7 0 -6 -7 -11 -15 -11 -19 0 -19 -27 0 -47 9 -8 48
-19 88 -25 92 -12 657 -18 657 -7 0 14 40 10 56 -5 8 -8 14 -22 14 -30 0 -9 7
-16 15 -16 8 0 15 -5 15 -11 0 -7 8 -19 18 -28 10 -9 24 -31 32 -49 7 -19 19
-40 27 -48 19 -18 53 -18 53 1 0 7 8 18 17 24 15 8 16 14 5 43 -6 19 -12 63
-12 97 l0 63 53 -3 c101 -5 127 -1 127 21 0 13 -7 20 -20 20 -11 0 -20 7 -20
15 0 8 -7 15 -15 15 -8 0 -15 5 -15 10 0 22 -40 9 -46 -15 -8 -32 -24 -33 -24
-1 0 13 -7 27 -16 30 -22 8 -24 8 -24 -7 0 -15 -24 -15 -210 -3 -58 3 -223 8
-367 10 -217 4 -264 2 -274 -10z"/>
<path d="M18310 4200 c-11 -7 -12 -12 -3 -21 13 -13 153 -3 153 11 0 20 -121
29 -150 10z"/>
<path d="M4020 4115 c0 -35 0 -35 45 -35 44 0 45 0 45 33 0 33 -1 34 -45 35
l-45 2 0 -35z"/>
<path d="M15836 2945 c4 -8 10 -15 15 -15 5 0 9 7 9 15 0 8 -7 15 -15 15 -9 0
-12 -6 -9 -15z"/>
<path d="M24140 1610 c0 -17 7 -20 45 -20 25 0 45 5 45 10 0 6 -9 10 -20 10
-11 0 -20 5 -20 10 0 6 -11 10 -25 10 -18 0 -25 -5 -25 -20z"/>
</g>
</svg>
