<?xml version="1.0" standalone="no"?>
<!DOCTYPE svg PUBLIC "-//W3C//DTD SVG 20010904//EN"
 "http://www.w3.org/TR/2001/REC-SVG-20010904/DTD/svg10.dtd">
<svg version="1.0" xmlns="http://www.w3.org/2000/svg"
 width="1580.000000pt" height="1120.000000pt" viewBox="0 0 1580.000000 1120.000000"
 preserveAspectRatio="xMidYMid meet">
<metadata>
Created by potrace 1.16, written by Peter Selinger 2001-2019
</metadata>
<g transform="translate(0.000000,1120.000000) scale(0.100000,-0.100000)"
fill="#000000" stroke="none">
<path d="M6945 9610 c-30 -8 -30 -8 8 -9 23 -1 36 3 32 9 -3 6 -7 9 -8 9 -1
-1 -15 -5 -32 -9z"/>
<path d="M6548 9543 c-35 -9 -17 -20 44 -27 61 -6 87 2 74 23 -7 11 -83 13
-118 4z"/>
<path d="M6365 9500 c3 -5 17 -10 31 -10 14 0 22 4 19 10 -3 6 -17 10 -31 10
-14 0 -22 -4 -19 -10z"/>
<path d="M6244 9480 c-12 -5 -25 -13 -29 -19 -3 -6 -26 -11 -51 -11 -25 0 -55
-6 -67 -12 -20 -12 -15 -14 43 -19 l65 -5 -33 -15 c-29 -12 -33 -18 -28 -41 5
-24 2 -28 -16 -28 -12 0 -29 7 -39 16 -10 9 -37 18 -61 21 l-43 6 39 11 c22 6
41 17 44 24 5 17 -56 15 -92 -3 -15 -8 -42 -15 -60 -15 -17 -1 -49 -8 -71 -16
-22 -9 -55 -19 -73 -24 -19 -4 -41 -15 -51 -24 -11 -10 -36 -16 -65 -16 -32 0
-48 -5 -52 -15 -4 -10 -19 -15 -43 -15 -20 0 -45 -6 -56 -14 -11 -7 -35 -17
-54 -21 -19 -4 -63 -20 -99 -36 -35 -16 -70 -29 -77 -29 -7 0 -26 -6 -42 -14
-30 -14 -80 -37 -178 -81 -129 -58 -234 -109 -405 -195 -16 -8 -32 -23 -36
-32 -3 -10 -14 -18 -24 -18 -22 0 -118 -50 -175 -92 -22 -16 -62 -43 -90 -61
-51 -32 -214 -155 -250 -188 -11 -10 -49 -42 -85 -71 -116 -94 -386 -374 -435
-451 -11 -18 -41 -61 -67 -96 -27 -35 -48 -68 -48 -73 0 -5 -12 -26 -27 -45
-50 -65 -175 -314 -212 -423 -82 -237 -90 -266 -126 -440 -71 -345 -75 -814
-10 -1185 33 -187 46 -248 101 -449 173 -642 515 -1309 998 -1951 236 -314
589 -678 896 -927 183 -147 206 -165 338 -256 227 -157 513 -316 747 -416 22
-10 49 -21 60 -26 11 -5 38 -16 60 -24 22 -7 79 -28 126 -45 195 -70 447 -131
689 -168 164 -24 661 -24 805 1 485 83 789 189 1170 407 180 103 495 323 600
419 22 20 58 49 80 65 21 16 48 38 60 50 11 11 51 45 90 76 93 74 473 446 480
470 4 11 11 19 18 19 6 0 46 37 90 83 43 45 101 105 128 132 27 28 49 55 49
62 0 6 9 15 20 18 11 3 20 10 20 14 0 4 27 37 60 72 33 35 76 87 95 114 19 28
52 70 74 95 47 51 50 65 19 90 -21 16 -25 17 -51 3 l-29 -15 23 -15 c34 -23
34 -23 24 -31 -9 -6 -39 -42 -143 -171 -15 -19 -34 -42 -44 -51 -9 -10 -18
-26 -20 -36 -2 -10 -14 -21 -28 -24 -14 -3 -25 -13 -25 -23 0 -23 -19 -26 -23
-4 -2 9 4 20 12 23 9 3 16 17 16 30 0 15 6 24 15 24 9 0 20 11 25 25 8 22 51
66 99 102 13 9 14 14 3 24 -10 11 -15 9 -28 -9 -10 -14 -26 -22 -45 -22 -26 0
-30 3 -27 24 3 25 -19 59 -33 50 -15 -9 -10 106 5 122 22 21 36 17 36 -11 0
-32 8 -32 53 6 40 33 48 63 20 74 -13 4 -25 -2 -40 -21 l-22 -28 -10 26 c-13
36 -36 42 -49 12 -8 -15 -17 -22 -27 -18 -13 5 -15 -19 -15 -199 0 -180 -2
-208 -17 -223 -16 -15 -16 -17 0 -29 23 -16 22 -20 -15 -71 -28 -40 -68 -60
-68 -34 0 6 -11 15 -25 20 -30 11 -33 40 -5 40 12 0 20 -7 20 -16 0 -9 7 -14
18 -12 10 2 17 12 16 25 0 13 4 19 13 16 10 -4 13 40 14 233 0 132 1 307 2
389 l2 150 -33 3 c-26 3 -32 8 -32 27 0 13 7 28 14 32 10 6 16 30 18 78 l3 70
33 3 c17 2 32 9 32 15 0 19 39 39 61 32 29 -9 48 20 49 73 0 39 2 42 28 43 24
0 25 1 7 9 -11 5 -14 9 -7 9 7 1 25 12 39 26 l27 24 -28 11 c-15 5 -35 10 -45
10 -22 0 -41 19 -34 36 2 7 25 23 49 35 37 18 55 20 102 14 52 -6 56 -5 41 10
-8 8 -38 20 -65 25 -27 5 -61 12 -76 16 -21 5 -28 3 -28 -9 0 -9 -13 -18 -31
-22 -24 -5 -36 -2 -54 15 -12 12 -29 21 -36 20 -32 -5 -47 1 -52 20 -3 11 -13
23 -24 27 -39 14 -42 39 -8 55 28 13 33 33 9 42 -24 9 -34 7 -34 -8 0 -13 -61
-56 -81 -56 -14 0 -11 26 6 40 21 17 19 40 -4 40 -10 0 -24 7 -32 16 -7 8 -21
13 -31 11 -13 -4 -18 1 -18 18 0 16 -9 26 -30 35 -16 7 -30 16 -30 21 0 4 -13
23 -30 41 -26 28 -39 58 -25 58 20 0 59 -30 77 -59 26 -44 53 -71 69 -71 7 0
20 -7 30 -16 10 -9 23 -14 30 -12 11 4 -150 178 -165 178 -12 0 -41 36 -57 70
-9 19 -65 91 -124 160 -59 68 -119 140 -133 160 -34 46 -94 110 -104 110 -15
0 -8 -17 22 -55 35 -45 37 -55 9 -55 -14 0 -24 10 -32 30 -9 23 -17 30 -39 30
-23 0 -28 -4 -28 -26 0 -17 -6 -28 -20 -31 -33 -9 -26 -49 9 -56 25 -5 45 -33
42 -59 0 -3 6 -12 14 -18 8 -7 15 -23 15 -36 0 -14 7 -51 16 -83 l17 -58 58
-17 c32 -9 68 -16 79 -16 11 0 20 -4 20 -10 0 -5 12 -10 28 -11 24 0 25 -1 7
-10 -16 -7 -13 -8 12 -4 29 4 34 1 39 -21 9 -34 -1 -42 -71 -55 -33 -6 -63
-15 -66 -20 -7 -12 -34 -13 -69 -4 -14 3 -30 7 -36 8 -34 7 -133 99 -134 125
0 6 -6 12 -13 12 -15 0 -59 45 -75 75 -23 45 -15 108 20 157 10 14 9 21 -9 38
-13 11 -26 19 -30 18 -23 -6 -73 16 -78 33 -4 11 -5 73 -4 137 2 64 0 123 -5
130 -4 7 -5 28 -2 46 4 21 1 44 -9 62 -16 31 -19 54 -7 53 42 -4 75 -28 88
-64 8 -22 11 -52 8 -67 -4 -18 -1 -28 6 -28 8 0 10 -9 6 -25 -5 -18 -1 -27 13
-35 11 -5 21 -22 23 -37 4 -40 42 -44 60 -6 9 17 20 27 31 25 33 -6 17 31 -33
80 -27 26 -50 52 -50 56 0 5 -13 21 -28 38 -16 16 -41 48 -56 72 -14 23 -31
42 -36 42 -6 0 -20 16 -31 35 -12 19 -25 35 -29 35 -11 0 -6 -1070 5 -1094 7
-17 10 -17 20 -3 9 13 14 12 35 -11 l25 -25 -29 7 -29 7 7 -43 c3 -24 8 -56
11 -73 11 -60 16 -59 -331 -62 -282 -2 -320 0 -336 14 -22 20 -23 51 -3 80 8
11 17 40 20 64 4 24 13 78 21 119 12 65 14 310 12 1652 -2 1206 -6 1580 -15
1589 -13 13 -20 -5 -27 -76 -2 -22 -2 12 1 76 4 105 2 121 -17 158 -12 22 -26
41 -31 41 -15 0 -10 -20 11 -47 20 -26 25 -63 11 -96 -5 -15 -10 -12 -25 20
l-18 38 -10 -25 c-20 -53 16 -189 57 -212 24 -14 27 -142 14 -875 -13 -775
-13 -778 -53 -721 -13 19 -16 61 -16 263 0 228 -1 241 -20 258 -19 16 -20 29
-20 406 l0 389 -45 0 -45 -1 0 -373 c0 -372 0 -373 21 -379 17 -6 19 -9 8 -16
-39 -24 -39 -22 -39 380 l0 389 -29 7 -30 6 -4 112 c-5 124 -26 244 -44 255
-9 5 -6 12 8 21 17 10 20 10 14 -1 -3 -7 2 -3 13 10 24 26 43 22 81 -19 l26
-27 19 45 c12 28 15 47 9 52 -6 3 -20 28 -32 55 -17 40 -21 68 -21 163 0 97
-3 119 -19 139 l-18 23 -21 -22 c-18 -20 -20 -36 -21 -147 -1 -99 -4 -127 -16
-136 -8 -6 -15 -21 -15 -33 0 -11 -4 -21 -10 -21 -5 0 -10 10 -10 23 0 35 -17
45 -66 39 l-45 -5 6 36 c6 33 5 35 -14 30 -16 -4 -21 -1 -21 16 0 12 -6 21
-15 21 -8 0 -15 7 -15 15 0 8 -7 15 -15 15 -8 0 -15 8 -16 18 0 14 -2 14 -9
-3 -7 -17 -9 -17 -9 -2 -1 11 -9 17 -25 17 -21 0 -24 6 -29 51 -4 29 -8 53
-10 56 -2 2 -16 -1 -30 -6 -14 -6 -27 -7 -29 -3 -2 4 -19 15 -38 25 -19 9 -28
17 -19 17 20 0 29 29 29 98 0 28 5 52 10 52 6 0 10 -11 10 -24 0 -24 16 -36
51 -36 16 0 19 -7 19 -50 0 -40 3 -48 15 -44 10 4 15 0 15 -16 0 -11 4 -19 9
-16 5 4 12 0 14 -6 12 -30 25 17 20 73 l-6 58 34 3 c30 3 34 7 37 36 2 18 10
36 18 39 8 3 14 18 14 35 0 25 -4 29 -19 25 -29 -7 -51 11 -51 45 0 23 -4 29
-15 24 -10 -4 -15 1 -15 14 0 15 -7 20 -25 20 -14 0 -25 -4 -25 -10 0 -5 9
-10 19 -10 17 0 31 -18 31 -41 0 -5 -11 -9 -25 -9 -16 0 -25 -6 -25 -15 0 -20
-90 -25 -177 -10 -29 5 -33 10 -33 35 0 28 -3 30 -35 30 -25 0 -35 4 -35 15 0
22 -13 25 -132 28 -60 1 -112 7 -118 13 -6 6 -12 40 -12 75 -1 35 -7 67 -12
71 -6 4 -30 8 -53 8 -24 0 -43 5 -43 10 0 6 -7 10 -15 10 -10 0 -15 11 -15 35
0 24 -5 35 -15 35 -10 0 -15 10 -15 30 0 23 -4 30 -20 30 -11 0 -20 6 -20 14
0 8 -6 17 -12 19 -7 3 2 8 20 12 22 5 32 13 32 26 0 16 -8 19 -50 19 -27 0
-50 -4 -50 -10 0 -5 5 -10 10 -10 7 0 7 -6 0 -19 -5 -11 -10 -32 -10 -48 0
-17 -10 -36 -27 -50 -24 -21 -36 -23 -135 -23 l-108 0 1 38 c1 20 -2 56 -6 80
-4 28 -3 42 4 42 6 0 11 7 11 15 0 12 19 15 108 15 65 0 112 -4 119 -11 8 -8
13 -2 18 21 8 37 -2 52 -19 28 -11 -15 -40 -17 -249 -20 l-236 -3 -16 27 c-13
23 -20 26 -53 22 -46 -7 -92 -24 -92 -34 0 -4 8 -11 18 -15 29 -11 -16 -37
-52 -29 -28 6 -29 6 -22 -29 6 -31 4 -35 -18 -41 -18 -4 -26 -14 -28 -34 l-3
-27 -104 2 c-79 2 -109 -2 -127 -14 -16 -10 -24 -11 -24 -4 0 7 -4 10 -8 7 -4
-2 -8 4 -9 14 -2 17 4 19 58 14 l59 -5 0 41 c0 34 3 40 23 41 25 1 27 2 84 13
28 5 44 14 48 27 4 10 12 19 19 19 18 0 66 24 66 33 0 4 -6 10 -14 13 -8 3
-17 16 -20 30 l-6 24 -185 -1 c-156 -1 -187 2 -201 15 -17 17 -66 20 -100 6z
m109 -41 c26 -7 37 -15 37 -29 0 -26 -35 -26 -75 0 -16 11 -40 20 -53 20 -13
0 -20 4 -17 10 8 13 60 13 108 -1z m217 -19 c3 -1 -4 -5 -15 -9 -23 -9 -47 -3
-39 10 4 7 27 7 54 -1z m97 -46 c-9 -9 -28 6 -21 18 4 6 10 6 17 -1 6 -6 8
-13 4 -17z m-416 -5 c30 -16 5 -39 -42 -39 -45 0 -48 5 -17 31 24 22 32 23 59
8z m-391 -67 c0 -22 39 -42 80 -42 33 0 43 -10 30 -30 -6 -10 -30 -12 -111 -7
-56 4 -107 11 -113 17 -7 7 -6 10 2 10 16 0 15 37 0 47 -15 9 26 20 80 22 25
1 32 -3 32 -17z m-330 -81 c0 -5 -15 -12 -34 -15 -22 -4 -37 -14 -41 -26 -4
-14 -15 -20 -37 -20 -36 0 -33 21 5 31 15 4 34 14 43 23 16 17 64 22 64 7z
m65 -22 c10 -15 -1 -23 -20 -15 -9 3 -13 10 -10 16 8 13 22 13 30 -1z m-51
-55 c5 -12 -1 -15 -26 -12 -42 4 -50 28 -10 28 18 0 32 -6 36 -16z m-474 -103
c0 -5 -11 -12 -25 -15 -14 -4 -25 -11 -25 -16 0 -5 -19 -19 -42 -31 -24 -12
-51 -30 -60 -39 -17 -18 -48 -21 -49 -6 -1 15 103 86 126 86 12 0 28 7 35 15
14 16 40 20 40 6z m-338 -173 c-9 -9 -15 -9 -24 0 -9 9 -7 12 12 12 19 0 21
-3 12 -12z m3292 -43 c-6 -16 -24 -21 -24 -7 0 11 11 22 21 22 5 0 6 -7 3 -15z
m-3574 -130 c-13 -13 -32 -28 -44 -31 -11 -4 -26 -13 -34 -20 -16 -16 -42 -19
-42 -4 0 6 7 10 16 10 9 0 30 16 47 35 19 22 40 35 56 35 l24 0 -23 -25z m25
-81 c-18 -13 -35 -10 -35 6 0 10 31 19 44 12 5 -3 1 -11 -9 -18z m3862 -1125
c6 -6 9 -18 6 -25 -3 -8 0 -20 6 -28 9 -11 5 -16 -20 -25 -46 -16 -54 -14 -69
14 -10 19 -19 23 -37 19 -12 -4 -35 -3 -49 0 l-27 7 22 15 c12 9 35 14 53 11
19 -2 39 2 46 10 16 16 54 17 69 2z m210 -25 c2 -7 -12 -15 -31 -18 -40 -8
-49 -17 -40 -40 4 -10 18 -16 35 -16 19 0 29 -5 29 -15 0 -19 -34 -19 -50 0
-7 8 -30 20 -51 25 -41 11 -53 30 -20 30 11 0 23 5 26 10 4 6 11 8 16 5 5 -4
9 3 9 15 0 18 5 21 37 18 20 -2 38 -8 40 -14z m-1402 -44 c0 -8 -8 -16 -17
-18 -13 -2 -18 3 -18 18 0 15 5 20 18 18 9 -2 17 -10 17 -18z m982 -9 c18 -24
-20 -40 -45 -19 -9 9 -32 19 -49 23 -55 11 -37 24 25 18 35 -4 62 -12 69 -22z
m-132 -36 c113 -15 213 -39 228 -54 6 -6 20 -11 32 -11 23 0 139 -45 201 -77
38 -21 41 -25 47 -75 4 -29 4 -83 0 -120 -5 -55 -3 -72 12 -94 16 -25 16 -28
1 -39 -11 -9 -14 -21 -10 -41 14 -74 -37 -112 -87 -63 -29 29 -59 38 -59 19 0
-6 11 -20 25 -32 14 -12 25 -27 25 -33 0 -12 -70 -53 -79 -45 -3 3 -6 21 -6
40 0 28 -4 36 -21 38 -20 3 -51 49 -40 59 3 3 19 0 37 -6 39 -13 49 -14 49 -2
0 18 -31 41 -55 41 -12 0 -25 7 -29 15 -3 9 -18 15 -40 15 -20 0 -36 6 -39 15
-9 21 -85 57 -142 66 -27 4 -79 13 -115 19 -35 6 -127 11 -205 13 -131 2 -145
0 -220 -27 -100 -35 -120 -47 -172 -103 -29 -31 -43 -55 -43 -73 0 -15 -7 -33
-15 -40 -31 -26 -4 -177 43 -241 34 -45 142 -144 209 -192 64 -45 161 -97 180
-97 8 0 21 -7 29 -15 9 -8 24 -15 35 -15 11 0 22 -7 25 -15 6 -14 226 -125
249 -125 7 0 18 -7 25 -15 15 -19 46 -19 57 -2 9 15 63 32 63 20 0 -14 -15
-28 -40 -40 l-25 -11 33 -18 c19 -11 57 -34 85 -51 28 -18 56 -33 61 -33 6 0
22 -12 37 -26 27 -26 49 -25 49 1 0 8 -10 24 -22 36 l-23 21 35 -7 c19 -4 35
-8 36 -9 27 -45 50 -96 43 -96 -6 0 -23 7 -39 15 -41 21 -37 4 7 -35 35 -31
37 -32 50 -14 10 14 17 16 30 8 23 -14 28 -34 9 -34 -30 0 -25 -19 16 -62 23
-23 50 -56 60 -73 l18 -30 0 31 c0 17 -11 48 -25 68 -28 41 -31 56 -12 56 22
0 44 -23 71 -75 34 -65 34 -95 1 -95 -29 0 -32 -16 -9 -48 28 -41 44 -130 44
-250 0 -103 -4 -128 -32 -217 -17 -55 -40 -109 -49 -120 -10 -11 -38 -47 -63
-80 -111 -149 -262 -248 -456 -300 -30 -8 -73 -21 -95 -29 -22 -8 -52 -15 -67
-16 -16 0 -70 -7 -120 -16 -157 -28 -458 -8 -684 45 -122 29 -370 110 -383
125 -6 7 -11 88 -11 203 -2 242 5 260 82 208 20 -14 40 -25 44 -25 4 0 26 -9
48 -19 80 -37 134 -59 165 -66 17 -3 33 -11 36 -16 4 -5 14 -9 24 -9 10 0 41
-6 67 -14 27 -8 74 -21 104 -30 30 -8 112 -22 181 -31 116 -15 139 -15 261 -1
164 19 241 45 302 104 26 24 46 48 46 54 0 6 8 20 17 30 25 28 32 198 9 233
-9 13 -16 30 -16 38 0 17 -95 137 -125 157 -13 8 -49 33 -82 56 -74 51 -89 59
-348 184 -115 55 -217 105 -225 111 -8 5 -26 14 -39 19 -13 6 -34 19 -48 30
-13 10 -37 22 -53 25 -17 4 -30 11 -30 16 0 5 -11 14 -25 19 -14 5 -25 14 -25
19 0 5 -10 13 -22 16 -36 11 -238 226 -238 253 0 5 -8 20 -19 33 -31 41 -52
123 -61 241 -9 119 -8 129 17 247 14 67 33 109 107 233 25 42 203 195 256 220
19 9 52 23 73 32 20 8 37 22 37 30 0 12 10 16 38 16 20 1 48 7 62 15 14 8 42
14 63 15 21 0 47 5 58 10 32 18 258 39 349 34 47 -3 130 -11 185 -19z m-2530
-14 c110 -23 215 -50 236 -62 9 -4 65 -16 125 -25 194 -30 627 -11 672 29 25
23 38 21 64 -8 21 -24 22 -33 19 -177 -1 -83 -7 -162 -12 -176 l-10 -25 -141
7 c-78 4 -180 12 -227 16 -47 5 -87 7 -89 5 -2 -2 8 -21 22 -42 14 -20 26 -41
26 -45 0 -4 14 -30 30 -59 31 -51 54 -113 84 -221 18 -64 21 -275 6 -345 -6
-24 -14 -60 -19 -80 -36 -159 -187 -372 -333 -470 -129 -86 -285 -151 -438
-185 -33 -7 -149 -12 -285 -13 -190 -1 -236 -4 -266 -18 -59 -26 -101 -58
-147 -111 l-44 -49 4 -83 c3 -75 6 -85 32 -113 35 -36 98 -60 191 -72 69 -9
447 -40 725 -59 80 -6 159 -15 175 -20 17 -5 59 -12 95 -16 76 -7 212 -39 257
-59 17 -8 36 -15 42 -15 20 0 114 -61 174 -113 116 -101 181 -234 193 -398 18
-236 -96 -467 -311 -633 -98 -75 -150 -106 -257 -152 -204 -87 -397 -134 -633
-154 -365 -30 -674 14 -925 133 -132 62 -178 94 -260 176 -237 240 -190 498
137 742 26 20 92 60 146 89 53 28 97 55 97 59 0 3 -33 23 -72 43 -81 41 -169
114 -211 176 -98 141 -102 343 -9 490 50 79 173 192 260 236 17 9 32 18 32 20
0 3 -35 23 -77 46 -173 93 -297 226 -389 416 -65 132 -85 224 -86 379 0 264
95 485 291 674 31 29 67 60 81 69 14 9 29 22 33 29 4 7 12 13 17 13 5 0 33 14
62 31 178 105 393 151 663 144 101 -3 193 -12 250 -24z m705 9 c12 -8 11 -10
-7 -10 -13 0 -23 5 -23 10 0 13 11 13 30 0z m270 -40 c0 -5 -9 -10 -21 -10
-11 0 -17 5 -14 10 3 6 13 10 21 10 8 0 14 -4 14 -10z m1954 1 c3 -5 21 -12
40 -15 43 -8 55 -33 21 -42 -35 -9 -50 0 -68 35 -14 27 -7 46 7 22z m-1419
-10 c3 -6 -4 -15 -15 -21 -17 -9 -20 -8 -20 10 0 20 24 28 35 11z m-31 -160
c3 -5 -5 -16 -19 -25 -27 -18 -30 -15 -15 15 11 20 25 25 34 10z m-58 -88
c-11 -11 -19 6 -11 24 8 17 8 17 12 0 3 -10 2 -21 -1 -24z m782 -92 c10 -6 4
-10 -18 -15 -44 -8 -60 -8 -60 3 0 17 57 26 78 12z m902 -98 c0 -35 -17 -36
-23 0 -2 17 -2 36 0 41 8 12 23 -15 23 -41z m-1203 -47 c-4 -9 -11 -16 -17
-16 -11 0 -14 33 -3 43 11 11 26 -10 20 -27z m963 -275 c0 -14 -9 -56 -19 -93
-10 -37 -16 -70 -13 -73 3 -3 -3 -5 -13 -5 -24 0 -65 46 -65 72 0 12 6 29 14
37 22 25 56 90 56 108 0 14 2 14 20 -2 11 -10 20 -30 20 -44z m-970 28 c0 -11
-4 -17 -10 -14 -5 3 -10 13 -10 21 0 8 5 14 10 14 6 0 10 -9 10 -21z m66 -51
c7 -25 3 -29 -23 -22 -22 6 -37 29 -28 44 9 14 44 -1 51 -22z m1110 9 c15 -9
15 -70 0 -90 -21 -27 -52 -13 -66 28 -16 49 -6 73 29 70 15 -1 32 -4 37 -8z
m-1066 -63 c0 -31 -23 -28 -28 4 -2 15 2 22 12 22 11 0 16 -9 16 -26z m1232
-87 c4 -7 7 -122 5 -257 l-2 -245 -48 -3 -48 -3 1 260 c1 235 3 260 18 264 24
7 65 -2 74 -16z m-692 -12 c0 -9 -7 -18 -16 -22 -18 -7 -39 11 -30 26 11 17
46 13 46 -4z m-390 -25 c0 -5 -7 -10 -15 -10 -8 0 -15 5 -15 10 0 6 7 10 15
10 8 0 15 -4 15 -10z m230 -40 c0 -5 -3 -10 -7 -10 -5 0 -18 -3 -30 -6 -17 -5
-23 -2 -23 10 0 11 9 16 30 16 17 0 30 -4 30 -10z m-70 -35 c0 -8 -7 -15 -15
-15 -26 0 -18 20 13 29 1 1 2 -6 2 -14z m-1000 -9 c0 -7 -7 -19 -15 -26 -12
-10 -15 -9 -15 7 0 11 3 23 7 26 11 12 23 8 23 -7z m1095 -36 c0 -19 -55 -26
-66 -9 -12 21 0 30 34 27 20 -2 32 -8 32 -18z m445 -25 c26 -13 30 -21 30 -55
0 -41 -7 -47 -38 -31 -9 5 -25 12 -34 15 -21 6 -23 38 -6 66 15 24 12 24 48 5z
m-365 -26 c4 -6 5 -13 2 -16 -8 -8 -67 7 -67 18 0 13 57 11 65 -2z m180 -90
c-4 -5 -16 -9 -28 -9 -21 1 -21 1 -3 15 20 15 41 11 31 -6z m369 -18 c17 -7
17 -9 4 -22 -14 -12 -13 -16 9 -37 37 -34 28 -66 -18 -70 -33 -3 -38 0 -47 27
-6 17 -24 37 -41 46 -17 8 -31 20 -31 25 0 11 47 26 68 22 6 -2 12 2 12 8 0
11 16 12 44 1z m-2148 -88 c-10 -10 -19 5 -10 18 6 11 8 11 12 0 2 -7 1 -15
-2 -18z m2412 -135 c7 -7 12 -20 12 -30 0 -10 7 -18 15 -18 11 0 15 -12 15
-50 0 -43 -3 -50 -20 -50 -14 0 -20 -7 -20 -23 0 -13 9 -32 20 -42 22 -20 26
-50 9 -60 -5 -4 -25 4 -44 16 -44 30 -58 90 -28 117 29 25 37 69 18 99 -25 37
-6 70 23 41z m-1412 -83 c18 -15 18 -15 -5 -13 -14 2 -26 9 -29 16 -5 17 10
15 34 -3z m1344 -200 c0 -8 -4 -15 -10 -15 -5 0 -10 7 -10 15 0 8 5 15 10 15
6 0 10 -7 10 -15z m-830 -45 c9 -17 8 -20 -8 -20 -10 0 -27 -7 -38 -15 -33
-25 -36 -17 -8 20 30 40 39 43 54 15z m54 -36 c23 -9 20 -24 -4 -24 -11 0 -20
7 -20 15 0 17 2 18 24 9z m62 -42 c6 -4 14 -17 18 -29 7 -21 5 -22 -16 -14
-13 4 -24 18 -26 30 -3 22 5 26 24 13z m-38 -64 c-7 -19 -38 -22 -38 -4 0 10
9 16 21 16 12 0 19 -5 17 -12z m811 -117 c-11 -48 -11 -55 4 -66 20 -15 40
-105 26 -119 -6 -6 -9 -6 -9 1 0 6 -11 25 -25 42 -18 21 -25 41 -25 68 0 21
-2 57 -6 79 -4 31 -1 49 12 69 l18 27 9 -23 c5 -16 4 -43 -4 -78z m1188 52
c10 -16 23 -32 30 -36 7 -4 13 -13 13 -20 0 -12 10 -23 109 -124 33 -34 61
-67 61 -73 0 -6 7 -13 15 -16 24 -9 8 -22 -20 -16 -15 2 -36 18 -48 33 -11 16
-26 29 -32 29 -10 0 -32 24 -98 105 -14 17 -27 44 -29 60 -2 24 -8 31 -30 33
-25 3 -28 0 -28 -27 0 -21 -5 -31 -15 -31 -9 0 -15 9 -15 24 0 13 7 26 15 30
8 3 15 14 15 24 0 41 32 43 57 5z m-1070 -50 c-3 -10 -5 -2 -5 17 0 19 2 27 5
18 2 -10 2 -26 0 -35z m-860 -196 c16 -16 0 -42 -21 -34 -9 4 -16 16 -16 27 0
12 -4 19 -8 16 -4 -2 -14 0 -22 6 -11 7 -5 8 20 4 19 -4 40 -12 47 -19z m763
-54 c0 -25 -1 -26 -24 -17 -19 7 -21 35 -4 52 15 15 28 -2 28 -35z m791 11 c4
-16 7 -54 7 -84 l0 -55 -19 40 c-21 46 -26 139 -6 133 6 -3 15 -18 18 -34z
m-923 -86 c-5 -32 -28 -35 -28 -4 0 17 5 26 16 26 10 0 14 -7 12 -22z m146
-31 c-3 -9 -13 -17 -21 -17 -8 0 -12 3 -10 8 2 4 7 16 11 26 4 13 10 16 17 9
5 -5 7 -17 3 -26z m826 -29 c7 -18 9 -19 9 -5 1 24 18 21 32 -5 7 -13 18 -27
25 -33 19 -14 5 -31 -31 -38 -42 -8 -50 1 -53 56 -2 52 4 59 18 25z m575 -12
c0 -35 -20 -45 -34 -17 -14 25 -3 53 18 49 10 -2 16 -13 16 -32z m72 -52 c3
-8 -1 -23 -10 -31 -8 -9 -23 -13 -31 -10 -22 8 -20 44 2 50 30 8 32 7 39 -9z
m-1477 -15 c0 -4 -7 -6 -15 -3 -8 4 -15 10 -15 15 0 4 7 6 15 3 8 -4 15 -10
15 -15z m1540 -46 c0 5 7 2 15 -7 21 -20 3 -66 -25 -66 -17 0 -20 -7 -20 -40
0 -29 -4 -40 -15 -40 -10 0 -15 11 -16 33 l-2 32 -7 -35 -7 -35 -2 41 c-1 49
16 67 56 59 15 -3 22 -2 16 1 -7 3 -13 22 -13 42 0 28 3 33 10 22 5 -8 10 -11
10 -7z m-1486 -19 c8 -21 -1 -34 -25 -34 -21 0 -25 20 -7 38 16 16 25 15 32
-4z m769 -29 c-4 -15 -56 -12 -61 3 -3 10 5 13 29 10 19 -2 33 -7 32 -13z m-5
-82 c-5 -25 -28 -28 -28 -4 0 12 6 21 16 21 9 0 14 -7 12 -17z m-194 -58 c11
-8 17 -18 13 -22 -9 -8 -57 14 -57 27 0 14 22 12 44 -5z m-424 -21 c0 -14 -4
-23 -10 -19 -5 3 -10 15 -10 26 0 10 5 19 10 19 6 0 10 -12 10 -26z m121 15
c-13 -5 -30 -17 -36 -26 -9 -12 -14 -13 -19 -4 -12 19 14 41 48 40 30 0 30 -1
7 -10z m1319 -20 c0 -5 -4 -9 -10 -9 -5 0 -10 7 -10 16 0 8 5 12 10 9 6 -3 10
-10 10 -16z m-1890 2 c0 -14 -18 -23 -30 -16 -6 4 -8 11 -5 16 8 12 35 12 35
0z m2110 -56 c7 -8 10 -22 6 -31 -3 -8 -1 -24 4 -35 7 -12 7 -31 2 -51 -8 -30
-12 -33 -45 -33 -20 0 -45 -8 -57 -17 -11 -10 -22 -18 -24 -18 -2 0 -11 16
-21 36 -14 30 -15 38 -4 45 10 6 11 9 2 9 -7 0 -13 7 -13 15 0 8 6 15 14 15 8
0 16 10 18 23 2 15 10 22 26 23 12 1 22 -4 22 -10 0 -5 10 2 22 17 25 31 31
33 48 12z m-1064 -44 c13 -17 7 -48 -9 -54 -7 -2 -33 2 -59 9 -45 14 -52 24
-34 52 11 18 87 12 102 -7z m790 -31 c0 -11 -5 -20 -11 -20 -9 0 -10 5 -6 30
2 19 18 10 17 -10z m266 -942 c-9 -9 -12 -4 -11 23 0 32 1 33 11 11 8 -17 8
-26 0 -34z m45 -51 c-6 -19 -22 -6 -25 20 -2 27 -2 27 13 8 8 -10 14 -23 12
-28z m-197 -322 c0 -8 -4 -15 -10 -15 -5 0 -10 7 -10 15 0 8 5 15 10 15 6 0
10 -7 10 -15z m-179 -18 c-6 -8 -8 -17 -5 -20 12 -12 -26 -38 -46 -32 -26 8
-26 35 0 35 11 0 20 7 20 15 0 9 9 15 21 15 17 0 19 -3 10 -13z"/>
<path d="M5065 7053 c-62 -3 -159 -29 -185 -49 -8 -6 -27 -14 -41 -17 -44 -11
-152 -128 -192 -209 -50 -104 -76 -265 -59 -381 23 -166 39 -217 99 -318 71
-121 152 -185 321 -255 61 -25 313 -25 392 1 117 37 215 104 240 165 7 16 16
30 20 30 14 0 59 104 78 180 41 166 7 442 -71 570 -69 115 -153 190 -271 240
-51 22 -201 51 -245 48 -14 -1 -53 -3 -86 -5z"/>
<path d="M4820 4522 c-92 -62 -160 -131 -195 -199 -21 -42 -27 -67 -27 -120 0
-112 35 -174 151 -261 191 -144 502 -210 827 -176 132 14 171 22 307 65 73 23
168 76 226 125 93 80 129 223 82 329 -26 59 -43 79 -96 114 -122 78 -284 114
-593 131 -108 6 -240 15 -292 20 -52 5 -144 12 -205 15 l-110 7 -75 -50z"/>
<path d="M8802 8524 c-7 -14 -16 -23 -21 -19 -5 3 -3 -9 6 -26 l15 -30 24 22
c30 28 33 79 6 79 -11 0 -24 -12 -30 -26z"/>
<path d="M8910 8525 c0 -8 9 -15 20 -15 11 0 20 7 20 15 0 8 -9 15 -20 15 -11
0 -20 -7 -20 -15z"/>
<path d="M9003 8524 c-9 -25 13 -40 26 -16 10 19 6 32 -11 32 -5 0 -11 -7 -15
-16z"/>
<path d="M9176 8525 c-11 -8 -34 -15 -52 -15 -18 0 -36 -5 -40 -11 -10 -17 86
-3 138 21 l43 19 -35 0 c-19 0 -44 -6 -54 -14z"/>
<path d="M9488 8513 c-3 -4 -2 -19 2 -33 l6 -25 8 24 c8 22 -7 52 -16 34z"/>
<path d="M8983 8473 c-13 -2 -23 -9 -23 -15 0 -5 7 -7 16 -4 9 3 24 6 35 6 10
0 19 5 19 10 0 10 -8 11 -47 3z"/>
<path d="M8860 8440 c-11 -21 1 -27 34 -14 13 5 14 9 5 20 -16 19 -26 18 -39
-6z"/>
<path d="M9493 8389 c-8 -9 -10 -36 -6 -77 8 -84 25 -65 21 23 -2 54 -5 65
-15 54z"/>
<path d="M9488 8153 c-4 -71 1 -115 13 -107 12 7 12 164 0 164 -5 0 -11 -26
-13 -57z"/>
<path d="M9490 7470 c0 -294 -1 -678 -3 -853 l-3 -317 30 29 c22 23 27 33 19
43 -8 9 -13 257 -18 808 -4 437 -11 802 -16 810 -5 9 -9 -208 -9 -520z"/>
<path d="M10590 7340 c0 -5 7 -10 15 -10 8 0 15 5 15 10 0 6 -7 10 -15 10 -8
0 -15 -4 -15 -10z"/>
<path d="M10465 7289 c-11 -17 1 -21 15 -4 8 9 8 15 2 15 -6 0 -14 -5 -17 -11z"/>
<path d="M10382 7181 c-26 -36 -14 -50 15 -18 30 33 36 47 20 47 -7 0 -23 -13
-35 -29z"/>
<path d="M10184 7146 c-4 -9 -4 -20 0 -23 3 -4 12 -1 18 5 9 9 9 15 0 24 -9 9
-13 7 -18 -6z"/>
<path d="M10280 7150 c0 -5 5 -10 10 -10 19 0 10 -37 -15 -64 -25 -27 -32 -46
-17 -46 10 1 82 69 82 78 0 5 -13 18 -30 30 -16 13 -30 18 -30 12z"/>
<path d="M10950 7075 c-10 -12 -10 -15 3 -15 19 0 31 16 18 24 -5 3 -14 -1
-21 -9z"/>
<path d="M10170 7045 c0 -8 5 -15 10 -15 6 0 10 7 10 15 0 8 -4 15 -10 15 -5
0 -10 -7 -10 -15z"/>
<path d="M10212 7019 c2 -6 8 -10 13 -10 5 0 11 4 13 10 2 6 -4 11 -13 11 -9
0 -15 -5 -13 -11z"/>
<path d="M10146 6940 c-16 -17 -38 -30 -48 -30 -10 0 -23 -11 -28 -24 -5 -14
-18 -30 -30 -36 -11 -6 -20 -16 -21 -23 0 -7 -27 -32 -59 -57 -63 -48 -115
-106 -102 -114 4 -2 58 44 119 102 62 59 135 128 162 154 28 26 51 50 51 53 0
12 -17 3 -44 -25z"/>
<path d="M9621 6929 c-6 -18 -11 -38 -11 -45 0 -19 47 -17 54 2 9 25 7 54 -5
54 -5 0 -7 5 -4 10 3 6 0 10 -8 10 -8 0 -20 -14 -26 -31z"/>
<path d="M9915 6920 c3 -5 13 -10 21 -10 9 0 14 -11 14 -31 0 -26 3 -30 23
-27 39 5 33 41 -11 61 -44 19 -56 21 -47 7z"/>
<path d="M9920 6824 c0 -14 3 -14 15 -4 8 7 15 14 15 16 0 2 -7 4 -15 4 -8 0
-15 -7 -15 -16z"/>
<path d="M9690 6720 c0 -11 7 -20 15 -20 8 0 15 9 15 20 0 11 -7 20 -15 20 -8
0 -15 -9 -15 -20z"/>
<path d="M10518 6682 c-18 -21 -41 -41 -50 -45 -20 -7 -53 -55 -44 -64 11 -12
56 20 68 49 7 15 17 28 21 28 10 0 67 55 67 64 0 18 -33 1 -62 -32z"/>
<path d="M9619 6650 c-25 -25 -28 -33 -19 -50 15 -28 26 -25 39 10 7 20 17 30
30 30 14 0 21 6 21 20 0 30 -36 25 -71 -10z"/>
<path d="M9776 6614 c-9 -20 -15 -38 -12 -41 5 -6 76 57 76 68 0 5 -10 9 -23
9 -17 0 -28 -10 -41 -36z"/>
<path d="M9692 6610 c-7 -12 -24 -25 -38 -31 -22 -8 -24 -12 -14 -24 10 -12
18 -9 55 23 41 35 48 52 22 52 -7 0 -18 -9 -25 -20z"/>
<path d="M10368 6540 c-42 -35 -48 -50 -19 -50 30 0 63 33 59 58 -3 22 -4 22
-40 -8z"/>
<path d="M9715 6541 c-6 -11 9 -23 19 -14 9 9 7 23 -3 23 -6 0 -12 -4 -16 -9z"/>
<path d="M9643 6493 c-14 -5 -48 -71 -42 -78 6 -6 79 64 79 76 0 10 -17 11
-37 2z"/>
<path d="M10217 6403 c-42 -42 -77 -83 -77 -90 0 -23 38 -14 57 13 36 52 85
103 104 109 21 7 23 35 3 42 -6 2 -45 -31 -87 -74z"/>
<path d="M10272 6308 c-16 -16 -15 -38 2 -38 18 0 39 27 31 40 -8 13 -18 13
-33 -2z"/>
<path d="M10080 6275 c-14 -16 -10 -18 14 -9 9 3 16 10 16 15 0 14 -16 11 -30
-6z"/>
<path d="M9995 6197 c-8 -13 -26 -30 -40 -37 -14 -7 -25 -17 -25 -22 0 -14 30
-9 36 7 4 8 13 15 21 15 17 0 42 28 43 48 0 20 -18 14 -35 -11z"/>
<path d="M10323 6203 c-18 -7 -16 -23 2 -23 8 0 15 7 15 15 0 8 -1 15 -2 14
-2 0 -9 -3 -15 -6z"/>
<path d="M9997 6132 c-15 -15 -27 -33 -27 -39 0 -21 21 -25 35 -7 11 15 15 16
29 5 14 -12 15 -10 10 20 -9 49 -17 52 -47 21z"/>
<path d="M10070 6031 c0 -11 -6 -21 -12 -24 -8 -2 -9 -8 -4 -13 5 -5 11 -4 13
4 8 21 43 14 43 -9 0 -14 5 -19 17 -17 24 5 29 37 6 45 -10 3 -22 12 -26 20
-12 20 -37 16 -37 -6z"/>
<path d="M10160 5874 c0 -19 171 -214 187 -214 22 0 14 36 -14 63 -16 15 -36
35 -46 45 -10 9 -39 38 -64 65 -42 43 -63 57 -63 41z"/>
<path d="M10290 5851 c0 -6 5 -13 10 -16 6 -3 10 -17 10 -31 0 -13 6 -24 13
-25 6 0 20 -2 30 -4 16 -3 22 10 18 41 -1 7 6 14 14 18 9 3 13 11 10 17 -5 7
-13 5 -26 -7 -17 -15 -20 -15 -43 0 -29 18 -36 20 -36 7z"/>
<path d="M10614 5836 c-8 -22 3 -33 18 -18 9 9 9 15 0 24 -9 9 -13 7 -18 -6z"/>
<path d="M10360 5637 c0 -8 9 -22 20 -32 19 -18 20 -17 20 1 0 20 -17 44 -32
44 -4 0 -8 -6 -8 -13z"/>
<path d="M9570 5610 c0 -5 4 -10 9 -10 6 0 13 5 16 10 3 6 -1 10 -9 10 -9 0
-16 -4 -16 -10z"/>
<path d="M10513 5593 c-18 -7 -16 -43 2 -43 8 0 15 4 15 9 0 5 3 16 6 25 6 16
0 19 -23 9z"/>
<path d="M10600 5570 c0 -11 7 -20 15 -20 8 0 15 9 15 20 0 11 -7 20 -15 20
-8 0 -15 -9 -15 -20z"/>
<path d="M10420 5562 c0 -5 14 -21 30 -37 25 -24 30 -26 30 -11 0 10 -10 26
-22 37 -25 20 -38 24 -38 11z"/>
<path d="M9780 5521 c0 -11 4 -21 9 -21 18 0 21 18 6 30 -13 10 -15 9 -15 -9z"/>
<path d="M10640 5510 c0 -19 5 -30 14 -30 22 0 28 17 16 40 -16 29 -30 25 -30
-10z"/>
<path d="M10534 5506 c-3 -14 -12 -26 -20 -26 -17 0 -18 -12 -2 -28 16 -16 28
-15 28 2 0 8 9 18 21 21 14 5 19 14 17 28 -4 32 -36 34 -44 3z"/>
<path d="M9721 5467 c-5 -13 -19 -27 -31 -30 -17 -4 -21 -12 -18 -34 2 -22 9
-29 31 -31 24 -3 27 0 27 27 0 21 6 32 21 36 14 5 19 14 17 28 -4 31 -36 34
-47 4z"/>
<path d="M9628 5469 c-22 -12 -24 -39 -3 -39 16 0 29 22 23 39 -2 6 -9 6 -20
0z"/>
<path d="M10593 5451 c-3 -11 -13 -21 -24 -24 -10 -3 -19 -9 -19 -15 0 -12
180 -202 191 -202 22 0 5 31 -41 74 -53 49 -61 69 -33 84 10 6 14 16 10 26 -9
22 -28 20 -34 -4 -6 -21 -12 -24 -37 -14 -23 9 -20 41 4 49 24 8 27 45 4 45
-9 0 -18 -9 -21 -19z"/>
<path d="M10910 5215 c0 -37 8 -43 28 -23 20 20 15 58 -8 58 -16 0 -20 -7 -20
-35z"/>
<path d="M10780 5155 c7 -8 16 -12 21 -9 13 8 1 24 -18 24 -13 0 -13 -3 -3
-15z"/>
<path d="M10877 5164 c-13 -13 -7 -44 8 -44 8 0 15 7 15 15 0 8 0 18 1 22 1
10 -16 15 -24 7z"/>
<path d="M10830 5100 c0 -5 7 -10 15 -10 8 0 15 5 15 10 0 6 -7 10 -15 10 -8
0 -15 -4 -15 -10z"/>
<path d="M10880 5052 c0 -10 43 -52 53 -52 16 0 5 29 -13 35 -11 3 -20 11 -20
16 0 5 -4 9 -10 9 -5 0 -10 -4 -10 -8z"/>
<path d="M10960 4980 c0 -5 5 -10 10 -10 6 0 20 -10 32 -22 41 -41 91 -78 106
-78 12 0 10 6 -8 25 -13 14 -28 25 -32 25 -5 0 -26 16 -46 35 -36 34 -62 45
-62 25z"/>
<path d="M11090 4965 c0 -11 7 -15 23 -13 12 2 22 8 22 13 0 6 -10 11 -22 13
-16 2 -23 -2 -23 -13z"/>
<path d="M11140 4841 c0 -11 39 -25 47 -18 3 3 2 10 -2 16 -8 13 -45 15 -45 2z"/>
<path d="M10440 4776 c0 -10 9 -16 21 -16 24 0 21 23 -4 28 -10 2 -17 -3 -17
-12z"/>
<path d="M11295 4770 c3 -5 13 -10 21 -10 8 0 12 5 9 10 -3 6 -13 10 -21 10
-8 0 -12 -4 -9 -10z"/>
<path d="M10570 4676 c0 -17 23 -27 40 -16 10 6 8 11 -8 19 -27 14 -32 14 -32
-3z"/>
<path d="M10650 4630 c0 -5 9 -10 21 -10 11 0 17 5 14 10 -3 6 -13 10 -21 10
-8 0 -14 -4 -14 -10z"/>
<path d="M11410 4619 c-26 -13 -30 -18 -15 -18 11 0 31 8 45 19 31 24 17 24
-30 -1z"/>
<path d="M10935 4540 c-4 -6 10 -10 35 -10 25 0 39 4 35 10 -3 6 -19 10 -35
10 -16 0 -32 -4 -35 -10z"/>
<path d="M11590 4465 c0 -8 5 -15 10 -15 6 0 10 7 10 15 0 8 -4 15 -10 15 -5
0 -10 -7 -10 -15z"/>
<path d="M10553 4193 c9 -2 23 -2 30 0 6 3 -1 5 -18 5 -16 0 -22 -2 -12 -5z"/>
<path d="M10656 4088 c-4 -51 -12 -85 -21 -92 -10 -8 -13 -28 -12 -64 3 -64
24 -88 63 -70 13 6 24 16 24 21 0 5 7 15 17 22 12 9 17 31 19 89 3 67 0 82
-19 109 -19 28 -56 67 -62 67 -1 0 -5 -37 -9 -82z"/>
<path d="M10930 3840 c0 -24 25 -27 34 -4 9 23 8 24 -14 24 -13 0 -20 -7 -20
-20z"/>
<path d="M11117 3826 c-3 -8 -3 -17 0 -20 7 -7 33 13 33 25 0 15 -27 10 -33
-5z"/>
<path d="M11010 3804 c0 -17 22 -14 28 4 2 7 -3 12 -12 12 -9 0 -16 -7 -16
-16z"/>
<path d="M10963 3764 c-7 -18 11 -39 26 -30 17 11 13 46 -4 46 -9 0 -18 -7
-22 -16z"/>
<path d="M11069 3747 c-6 -14 -20 -28 -30 -30 -21 -6 -26 -27 -6 -27 14 0 63
68 54 77 -4 3 -11 -6 -18 -20z"/>
<path d="M10593 3535 c0 -38 2 -53 4 -32 2 20 2 52 0 70 -2 17 -4 1 -4 -38z"/>
</g>
</svg>
