<?xml version="1.0" standalone="no"?>
<!DOCTYPE svg PUBLIC "-//W3C//DTD SVG 20010904//EN"
 "http://www.w3.org/TR/2001/REC-SVG-20010904/DTD/svg10.dtd">
<svg version="1.0" xmlns="http://www.w3.org/2000/svg"
 width="964.000000pt" height="722.000000pt" viewBox="0 0 964.000000 722.000000"
 preserveAspectRatio="xMidYMid meet">
<metadata>
Created by potrace 1.16, written by Peter Selinger 2001-2019
</metadata>
<g transform="translate(0.000000,722.000000) scale(0.100000,-0.100000)"
fill="#000000" stroke="none">
<path d="M0 3610 l0 -3610 3670 0 3670 0 -6 43 c-3 23 -7 48 -9 54 -3 10 -92
12 -402 11 -219 -2 -420 0 -447 4 -32 5 -57 15 -70 30 l-21 22 25 -19 25 -20
-19 22 c-10 13 -22 20 -26 18 -4 -3 -43 34 -86 81 -72 80 -76 86 -49 81 17 -4
158 -27 315 -52 157 -26 384 -64 505 -86 121 -22 274 -46 340 -54 218 -26 339
-45 415 -66 41 -11 125 -30 185 -42 105 -20 145 -21 868 -24 l757 -4 0 3611 0
3610 -4820 0 -4820 0 0 -3610z m3188 1744 c34 -3 62 -10 62 -16 0 -7 4 -7 13
0 17 14 42 -2 34 -22 -5 -13 2 -16 41 -17 26 0 296 -12 600 -27 517 -26 552
-26 552 -10 0 9 4 19 8 22 14 9 35 -12 29 -28 -6 -14 4 -16 75 -16 l81 0 -7
-92 c-3 -51 -11 -244 -16 -428 -17 -556 -28 -821 -34 -827 -5 -5 -432 5 -1493
34 l-223 6 -1 61 c0 34 -3 72 -6 86 -11 52 -14 633 -4 643 6 6 11 16 11 21 0
6 -5 4 -10 -4 -8 -13 -10 -13 -10 2 0 9 4 18 9 20 5 2 12 86 16 188 4 102 9
196 10 210 2 14 4 28 4 32 1 3 9 9 19 11 11 3 9 5 -8 6 -47 2 -53 14 -47 79 3
33 8 66 12 72 7 11 115 9 283 -6z m1490 -79 c-9 -9 -92 -12 -113 -4 -13 5 5 8
49 8 38 1 67 -1 64 -4z m2625 -1529 c160 -41 347 -139 347 -183 0 -91 -513 20
-659 143 -32 27 -40 58 -18 68 29 14 235 -4 330 -28z m-265 -179 c6 0 12 -3
12 -7 0 -4 -42 -7 -92 -8 l-93 -1 35 17 c28 14 44 16 80 9 25 -5 51 -9 58 -10z
m-20 -44 c-32 -2 -86 -2 -120 0 -35 2 -9 3 57 3 66 0 94 -1 63 -3z m102 -45
c22 -24 26 -53 9 -64 -11 -6 -374 -6 -504 0 -33 2 -102 4 -152 5 -55 0 -93 5
-93 11 0 6 19 10 43 10 27 0 37 3 28 9 -11 7 -11 9 0 14 8 3 0 6 -18 6 -17 1
-35 6 -38 11 -4 7 8 8 34 4 28 -4 41 -3 41 5 0 8 88 11 315 11 310 0 314 0
335 -22z m-767 5 c-13 -2 -35 -2 -50 0 -16 2 -5 4 22 4 28 0 40 -2 28 -4z
m1396 -317 c-2 -2 -78 -6 -169 -9 -91 -3 -145 -2 -120 2 47 8 296 14 289 7z
m-7189 -54 l145 -7 3 -27 c4 -33 19 -38 18 -5 -1 16 5 22 19 22 14 0 20 -6 19
-22 -1 -23 2 -23 115 -23 74 0 111 4 101 9 -8 6 -18 7 -23 4 -4 -3 -25 -2 -45
2 l-37 8 28 9 c15 5 27 14 27 20 0 12 740 4 869 -9 l64 -6 -6 -74 c-3 -42 -2
-73 4 -73 8 0 13 59 12 134 0 16 6 18 66 12 36 -3 119 -9 184 -12 104 -6 117
-9 117 -25 0 -10 4 -20 9 -23 5 -3 8 2 7 11 0 10 7 19 17 21 11 2 17 -3 17
-16 0 -19 10 -20 173 -26 94 -3 256 -7 360 -9 176 -3 187 -3 187 15 0 10 7 18
15 18 8 0 15 -9 15 -20 0 -18 7 -20 70 -20 l70 0 0 -51 0 -50 -297 5 c-164 3
-457 8 -651 12 -195 3 -360 8 -367 11 -12 4 -14 -18 -12 -131 1 -75 -1 -137
-5 -139 -10 -3 -25 -239 -17 -269 5 -18 7 -14 12 22 7 47 27 276 27 305 0 13
3 15 13 6 10 -8 14 -7 14 4 0 8 -5 15 -11 15 -6 0 -4 5 5 10 11 6 28 6 49 -1
26 -9 34 -9 41 2 6 10 9 8 9 -8 0 -20 5 -23 45 -23 33 0 45 4 45 15 0 8 5 15
10 15 7 0 7 -6 1 -19 -6 -10 -8 -20 -6 -23 3 -2 -10 -2 -28 0 -18 3 -28 1 -24
-4 5 -5 10 -7 12 -4 2 3 14 -5 28 -18 22 -21 34 -23 143 -24 66 -1 125 1 130
5 6 3 44 4 85 2 41 -2 79 0 84 4 6 4 24 4 40 0 29 -7 29 -7 -7 -8 -29 -1 -38
-5 -38 -18 0 -16 12 -18 100 -18 94 -1 100 0 100 20 0 15 2 17 9 6 6 -9 10
-10 16 -2 5 9 10 9 21 0 11 -9 15 -8 19 3 4 10 15 13 32 10 24 -4 25 -3 19 21
-3 15 -1 29 6 33 7 4 8 3 4 -4 -4 -6 0 -25 9 -42 13 -25 20 -29 40 -24 19 5
25 2 25 -10 0 -9 6 -16 13 -17 6 0 3 -4 -8 -9 -17 -7 -16 -9 10 -10 17 -2 34
-2 39 -1 5 1 6 -7 3 -19 -3 -11 0 -20 6 -20 8 0 7 -3 -1 -9 -8 -4 -13 -12 -13
-16 1 -4 -29 -9 -66 -11 -67 -4 -612 -13 -806 -14 -58 0 -96 -4 -92 -9 3 -6
185 -7 459 -4 249 3 465 3 480 -1 14 -3 26 -12 26 -20 0 -7 13 -16 30 -19 23
-5 30 -12 30 -29 0 -14 -3 -18 -8 -12 -5 9 -11 8 -20 -2 -11 -12 -9 -14 8 -14
15 0 20 -7 20 -24 0 -28 -25 -40 -77 -38 -24 1 -31 -2 -26 -13 3 -8 9 -15 15
-15 5 0 6 6 2 13 -6 9 -4 9 7 0 7 -7 28 -13 46 -13 18 0 33 -5 33 -11 0 -8 4
-8 13 -1 10 8 20 5 41 -15 23 -21 27 -32 23 -59 -3 -19 -2 -34 4 -34 5 0 9 -9
9 -19 0 -26 10 -51 20 -51 5 0 11 15 13 33 3 17 2 -96 -1 -253 -3 -192 -8
-287 -16 -292 -6 -4 -38 -8 -71 -8 -33 0 -141 -7 -240 -15 -99 -8 -243 -19
-320 -25 -215 -16 -486 -40 -525 -46 -19 -3 -66 -8 -104 -11 l-68 -5 6 98 c8
132 24 446 31 614 3 84 2 131 -4 125 -11 -11 -13 -39 -35 -475 -9 -168 -19
-319 -21 -337 -7 -39 18 -35 -415 -68 -1001 -75 -1134 -85 -1183 -85 l-37 0 6
113 c3 61 17 253 29 426 13 173 22 318 19 322 -2 4 1 70 6 146 6 76 13 194 16
263 3 69 9 149 14 179 6 30 10 84 10 120 0 36 5 82 10 101 5 19 12 46 15 60 5
19 4 22 -4 10 -9 -13 -11 -12 -11 4 0 17 6 18 83 11 45 -4 147 -10 227 -13z
m8367 -82 c4 -82 23 -501 33 -740 12 -286 26 -588 41 -874 6 -118 8 -219 6
-224 -6 -8 -514 36 -1192 103 -198 20 -382 38 -410 41 -387 36 -1270 126
-1274 130 -6 6 -22 1533 -17 1569 3 19 12 20 346 23 234 1 347 -1 356 -9 8 -7
77 -10 198 -8 168 2 211 7 174 22 -7 3 35 6 93 6 102 1 107 0 114 -21 l8 -23
4 24 5 23 121 -6 c67 -4 160 -9 207 -11 47 -3 252 -4 455 -4 300 0 374 3 390
14 15 11 57 14 180 12 l160 -2 2 -45z m-5797 26 c0 -8 -60 -12 -72 -4 -8 4 4
8 30 8 23 0 42 -2 42 -4z m1615 -61 c473 -3 930 -8 1016 -11 l156 -6 5 -187
c11 -372 10 -1211 -1 -1211 -6 0 -11 5 -11 10 0 7 -165 10 -475 10 -416 0
-475 2 -475 15 0 11 -12 15 -47 15 -27 0 -58 3 -71 6 -18 5 -24 2 -29 -15 -5
-19 -12 -21 -76 -21 l-70 0 7 499 c5 351 4 501 -3 506 -6 3 -12 5 -13 3 -1 -2
-4 -228 -7 -503 l-6 -500 -480 4 c-393 3 -481 6 -488 17 -12 21 -147 20 -147
-1 0 -11 -12 -15 -47 -16 -27 -1 -54 -1 -60 0 -8 1 -10 -5 -7 -14 9 -23 -4
-51 -17 -38 -19 19 -20 100 -6 573 7 256 13 494 14 530 0 36 1 130 2 209 l2
143 237 -6 c130 -3 624 -8 1097 -11z m-2262 -297 c3 -10 2 -18 -2 -18 -5 0
-16 -3 -25 -6 -12 -4 -16 0 -16 15 0 25 -3 26 -35 5 -15 -10 -25 -12 -25 -5 0
6 6 12 13 13 6 1 -13 4 -43 8 -55 7 -55 7 23 8 47 1 77 6 77 13 0 14 24 -11
33 -33z m-320 15 c-13 -2 -33 -2 -45 0 -13 2 -3 4 22 4 25 0 35 -2 23 -4z
m105 0 c-10 -2 -28 -2 -40 0 -13 2 -5 4 17 4 22 1 32 -1 23 -4z m1252 -1117
c0 -2 2 -10 5 -18 4 -9 -5 -13 -32 -12 -27 1 -39 6 -41 18 -3 12 4 16 32 16
20 0 36 -2 36 -4z m220 -6 c8 -5 13 -10 10 -11 -40 -8 -73 -8 -91 1 -15 9 -24
9 -32 1 -6 -6 -23 -11 -38 -11 -28 0 -44 12 -32 24 10 10 166 7 183 -4z m96
-5 c10 -8 15 -15 9 -16 -40 -6 -61 -5 -67 4 -17 28 25 37 58 12z m124 -5 c0
-14 -70 -17 -81 -4 -7 9 -5 13 8 16 25 5 73 -3 73 -12z m197 -2 c-2 -8 -19
-12 -40 -12 -21 1 -37 -2 -37 -7 0 -5 -22 -9 -49 -9 -40 0 -50 3 -54 20 -5 19
0 20 90 20 71 0 94 -3 90 -12z m108 0 c-3 -7 -18 -13 -35 -13 -16 0 -35 6 -41
13 -10 10 -4 12 34 12 33 0 45 -4 42 -12z m103 0 c-6 -17 -51 -18 -74 -1 -16
11 -12 13 30 13 33 0 46 -4 44 -12z m106 -1 c-7 -19 -60 -19 -75 -1 -10 12 -4
14 34 14 35 0 45 -3 41 -13z m108 1 c-17 -17 -69 -19 -83 -2 -10 12 -3 14 42
14 41 0 50 -3 41 -12z m320 5 c-6 -2 -10 -9 -6 -14 7 -12 -21 -11 -68 3 -30 9
-41 9 -47 0 -7 -12 -43 -10 -75 3 -10 4 -21 4 -25 -1 -10 -16 -58 -15 -71 1
-11 13 7 15 146 14 88 0 153 -3 146 -6z m315 0 c-9 -2 -15 -9 -12 -14 4 -5 -7
-9 -24 -9 -16 0 -33 5 -36 10 -8 13 -45 13 -45 1 0 -12 -59 -11 -66 1 -3 4
-12 8 -20 8 -8 0 -13 -4 -9 -9 3 -6 -11 -9 -34 -8 -23 1 -43 7 -45 14 -4 10
27 13 152 12 86 -1 149 -3 139 -6z m98 -3 c-3 -5 0 -11 7 -11 7 -1 -3 -5 -22
-8 -34 -7 -60 2 -60 20 0 5 18 9 41 9 24 0 38 -4 34 -10z m109 -6 c5 -12 -1
-15 -31 -12 -48 5 -57 28 -10 28 22 0 37 -6 41 -16z m102 7 c-4 -5 0 -12 6
-14 7 -3 -6 -5 -29 -5 -55 2 -61 28 -7 28 19 0 33 -4 30 -9z m119 -1 c-11 -5
-15 -10 -10 -11 6 -1 -6 -5 -25 -8 -32 -6 -49 2 -50 22 0 4 24 7 53 6 38 0 47
-3 32 -9z m1585 -332 c217 -23 296 -34 253 -36 -35 -2 -63 -7 -63 -11 0 -5
-15 -7 -34 -5 -27 3 -35 0 -39 -15 -5 -19 -21 -22 -43 -9 -5 4 -23 6 -40 6
-41 -1 -95 12 -89 22 7 12 -26 22 -39 11 -11 -9 -40 12 -30 22 3 2 -7 2 -21 0
-14 -3 -25 -1 -25 4 0 6 -12 11 -27 12 -36 2 -153 29 -133 30 8 1 157 -13 330
-31z m373 -45 c-7 -2 -21 -2 -30 0 -10 3 -4 5 12 5 17 0 24 -2 18 -5z"/>
<path d="M3345 5170 c-35 -39 7 -99 61 -86 14 4 30 17 36 31 25 56 -54 102
-97 55z"/>
<path d="M3510 5151 c0 -12 1 -21 3 -21 1 -1 44 -3 95 -7 69 -4 92 -2 92 7 0
10 3 10 15 0 8 -7 34 -14 58 -15 39 -3 43 -1 42 18 -1 18 -7 21 -31 18 -16 -1
-32 -8 -36 -15 -5 -6 -8 0 -8 14 0 19 -2 22 -10 10 -5 -8 -12 -11 -16 -7 -4 4
-16 -1 -26 -10 -18 -16 -18 -16 -12 0 7 20 -6 22 -25 5 -12 -11 -13 -10 -7 6
5 16 3 17 -21 11 -36 -10 -41 -10 -80 -1 -29 7 -33 5 -33 -13z m115 -11 c3 -5
-1 -10 -9 -10 -9 0 -16 5 -16 10 0 6 4 10 9 10 6 0 13 -4 16 -10z"/>
<path d="M3864 5135 c1 -21 6 -25 36 -26 19 -1 51 -2 70 -3 19 -1 38 3 43 8 5
8 9 8 15 0 12 -19 58 -14 59 6 1 14 -8 17 -56 19 -32 1 -74 4 -94 6 -27 4 -39
0 -47 -13 -9 -15 -10 -14 -5 6 5 15 2 22 -8 22 -10 0 -14 -9 -13 -25z"/>
<path d="M4140 5143 c0 -6 -9 -9 -20 -6 -15 4 -20 0 -20 -16 0 -17 6 -21 30
-21 17 0 30 5 30 13 0 8 3 7 10 -3 5 -8 12 -11 16 -7 4 4 14 2 21 -5 11 -9 16
-9 23 2 13 21 3 30 -34 30 -17 0 -37 5 -44 12 -8 8 -12 9 -12 1z"/>
<path d="M3863 5043 c9 -2 23 -2 30 0 6 3 -1 5 -18 5 -16 0 -22 -2 -12 -5z"/>
<path d="M3060 5010 c0 -6 16 -10 35 -10 19 0 35 4 35 8 0 5 -16 9 -35 10 -19
1 -35 -3 -35 -8z"/>
<path d="M3150 5007 c0 -5 4 -6 9 -2 5 3 12 1 16 -5 3 -5 43 -10 88 -10 49 0
77 4 72 9 -12 12 -185 19 -185 8z"/>
<path d="M3350 5002 c0 -5 14 -12 31 -16 48 -9 109 -7 109 4 0 6 -24 10 -54
10 -30 0 -61 3 -70 6 -9 3 -16 2 -16 -4z"/>
<path d="M3656 4889 c3 -5 24 -9 46 -9 23 0 39 2 37 4 -9 8 -88 13 -83 5z"/>
<path d="M3780 4880 c20 -13 50 -13 50 0 0 6 -15 10 -32 10 -25 0 -29 -3 -18
-10z"/>
<path d="M3840 4882 c0 -5 7 -9 15 -9 8 0 15 4 15 9 0 4 -7 8 -15 8 -8 0 -15
-4 -15 -8z"/>
<path d="M3895 4880 c-4 -7 6 -10 29 -8 19 1 32 6 30 10 -7 12 -52 10 -59 -2z"/>
<path d="M3098 4623 c12 -2 30 -2 40 0 9 3 -1 5 -23 4 -22 0 -30 -2 -17 -4z"/>
<path d="M3103 4523 c9 -2 23 -2 30 0 6 3 -1 5 -18 5 -16 0 -22 -2 -12 -5z"/>
<path d="M3193 4523 c9 -2 23 -2 30 0 6 3 -1 5 -18 5 -16 0 -22 -2 -12 -5z"/>
<path d="M3163 4423 c9 -2 25 -2 35 0 9 3 1 5 -18 5 -19 0 -27 -2 -17 -5z"/>
<path d="M3060 4380 c0 -16 7 -20 40 -22 22 -1 48 -2 58 -2 10 -1 18 8 20 22
3 21 0 22 -57 22 -54 0 -61 -2 -61 -20z"/>
<path d="M3683 4133 c9 -2 23 -2 30 0 6 3 -1 5 -18 5 -16 0 -22 -2 -12 -5z"/>
<path d="M3980 4126 c0 -9 30 -14 35 -6 4 6 -3 10 -14 10 -12 0 -21 -2 -21 -4z"/>
<path d="M4058 3993 c12 -2 30 -2 40 0 9 3 -1 5 -23 4 -22 0 -30 -2 -17 -4z"/>
<path d="M1540 3050 c0 -5 10 -10 23 -10 12 0 32 -3 45 -6 16 -5 22 -2 22 10
0 12 -10 16 -45 16 -25 0 -45 -4 -45 -10z"/>
<path d="M596 2906 c4 -11 -4 -17 -30 -22 -38 -7 -43 -13 -24 -32 31 -31 104
10 82 45 -14 22 -36 29 -28 9z"/>
<path d="M397 2650 c-5 -19 0 -20 69 -20 67 0 74 2 74 20 0 18 -7 20 -69 20
-60 0 -69 -2 -74 -20z"/>
<path d="M1979 2655 c-2 -5 -2 -28 1 -50 3 -22 8 -33 11 -25 6 19 -4 89 -12
75z"/>
<path d="M2350 2640 c0 -22 7 -25 29 -11 16 10 6 31 -15 31 -8 0 -14 -9 -14
-20z"/>
<path d="M2400 2642 c0 -14 8 -17 45 -14 25 2 45 8 45 13 0 5 -3 9 -7 10 -5 0
-25 2 -45 4 -31 3 -38 1 -38 -13z"/>
<path d="M2266 2615 c4 -8 10 -15 15 -15 4 0 6 7 3 15 -4 8 -10 15 -15 15 -4
0 -6 -7 -3 -15z"/>
<path d="M2588 2608 c-13 -3 17 -6 66 -7 49 -1 87 2 83 5 -8 8 -121 10 -149 2z"/>
<path d="M2493 2603 c9 -2 25 -2 35 0 9 3 1 5 -18 5 -19 0 -27 -2 -17 -5z"/>
<path d="M2788 2603 c12 -2 32 -2 45 0 12 2 2 4 -23 4 -25 0 -35 -2 -22 -4z"/>
<path d="M2010 2570 c0 -5 7 -10 16 -10 8 0 12 5 9 10 -3 6 -10 10 -16 10 -5
0 -9 -4 -9 -10z"/>
<path d="M2050 2570 c0 -6 39 -10 90 -10 50 0 90 4 90 9 0 6 -40 10 -90 10
-51 0 -90 -4 -90 -9z"/>
<path d="M2240 2570 c0 -5 16 -10 35 -10 19 0 35 5 35 10 0 6 -16 10 -35 10
-19 0 -35 -4 -35 -10z"/>
<path d="M2360 2570 c0 -5 7 -10 15 -10 8 0 15 5 15 10 0 6 -7 10 -15 10 -8 0
-15 -4 -15 -10z"/>
<path d="M2400 2570 c0 -5 4 -10 9 -10 6 0 13 5 16 10 3 6 -1 10 -9 10 -9 0
-16 -4 -16 -10z"/>
<path d="M2440 2571 c0 -5 16 -9 35 -9 19 0 35 4 35 9 0 5 -16 9 -35 9 -19 0
-35 -4 -35 -9z"/>
<path d="M600 2535 c0 -8 5 -15 10 -15 6 0 10 7 10 15 0 8 -4 15 -10 15 -5 0
-10 -7 -10 -15z"/>
<path d="M2004 2538 c-3 -4 16 -8 42 -8 26 0 44 3 40 7 -9 10 -76 10 -82 1z"/>
<path d="M2115 2540 c-12 -6 17 -9 78 -9 57 -1 97 3 97 9 0 11 -146 11 -175 0z"/>
<path d="M2310 2540 c0 -5 18 -10 40 -10 22 0 40 5 40 10 0 6 -18 10 -40 10
-22 0 -40 -4 -40 -10z"/>
<path d="M2410 2540 c0 -5 7 -10 15 -10 8 0 15 5 15 10 0 6 -7 10 -15 10 -8 0
-15 -4 -15 -10z"/>
<path d="M617 2480 c-3 -12 0 -20 8 -20 16 0 37 25 28 33 -13 13 -31 7 -36
-13z"/>
<path d="M2443 2426 c2 -6 19 -10 38 -9 19 0 53 1 77 2 23 1 42 6 42 11 0 6
-32 9 -80 8 -54 -1 -79 -5 -77 -12z"/>
<path d="M1518 2413 c-16 -2 -28 -11 -28 -19 0 -11 26 -14 145 -14 138 0 145
1 145 20 0 19 -6 20 -117 19 -65 -1 -130 -4 -145 -6z m109 -17 c3 -3 -15 -6
-40 -6 -26 0 -47 4 -47 9 0 10 77 7 87 -3z m98 4 c4 -6 -7 -10 -24 -10 -17 0
-31 5 -31 10 0 6 11 10 24 10 14 0 28 -4 31 -10z"/>
<path d="M2717 2413 c96 -3 102 -5 106 -26 3 -18 4 -18 3 3 -1 25 -1 25 -106
26 l-105 0 102 -3z"/>
<path d="M918 2403 c-113 -3 -118 -5 -118 -25 0 -21 2 -21 122 -15 66 4 138 7
160 7 31 0 38 3 38 20 0 17 -6 20 -42 18 -24 -1 -96 -4 -160 -5z"/>
<path d="M1150 2390 c0 -18 7 -20 88 -20 135 0 222 11 222 26 0 11 -31 14
-155 14 -148 0 -155 -1 -155 -20z m205 0 c-3 -5 -19 -10 -35 -10 -16 0 -32 5
-35 10 -4 6 10 10 35 10 25 0 39 -4 35 -10z"/>
<path d="M433 2384 c-3 -8 -2 -19 3 -23 5 -4 81 -5 169 -2 142 5 160 8 163 24
3 16 -10 17 -163 17 -141 0 -167 -2 -172 -16z m215 -11 c-16 -2 -40 -2 -55 0
-16 2 -3 4 27 4 30 0 43 -2 28 -4z"/>
<path d="M2104 2348 c-7 -11 8 -15 48 -14 32 1 67 15 42 17 -51 4 -87 3 -90
-3z"/>
<path d="M1990 2340 c0 -5 23 -10 50 -10 28 0 50 5 50 10 0 6 -22 10 -50 10
-27 0 -50 -4 -50 -10z"/>
<path d="M2822 2325 c0 -16 2 -22 5 -12 2 9 2 23 0 30 -3 6 -5 -1 -5 -18z"/>
<path d="M2193 2313 c-33 -6 -28 -23 7 -23 20 0 30 5 30 15 0 8 -3 14 -7 14
-5 -1 -18 -4 -30 -6z"/>
<path d="M1990 2300 c0 -5 7 -10 16 -10 8 0 12 5 9 10 -3 6 -10 10 -16 10 -5
0 -9 -4 -9 -10z"/>
<path d="M2115 2300 c3 -5 15 -10 26 -10 10 0 19 5 19 10 0 6 -12 10 -26 10
-14 0 -23 -4 -19 -10z"/>
<path d="M1990 2234 c0 -6 10 -10 23 -8 12 1 30 3 40 3 36 2 15 17 -23 16 -22
0 -40 -5 -40 -11z"/>
<path d="M2083 2238 c-2 -5 19 -8 46 -8 29 0 51 5 51 10 0 12 -89 9 -97 -2z"/>
<path d="M2810 2220 c0 -5 7 -10 15 -10 8 0 15 5 15 10 0 6 -7 10 -15 10 -8 0
-15 -4 -15 -10z"/>
<path d="M2050 2200 c0 -14 15 -19 29 -11 9 6 7 10 -8 14 -12 3 -21 1 -21 -3z"/>
<path d="M2100 2198 c0 -5 23 -8 50 -8 28 0 50 5 50 10 0 6 -21 9 -50 8 -27
-2 -50 -6 -50 -10z"/>
<path d="M606 2193 c-3 -4 -6 -15 -6 -25 0 -16 3 -17 20 -8 11 6 20 15 20 19
0 11 -26 22 -34 14z"/>
<path d="M1193 2133 c-95 -3 -103 -5 -103 -23 0 -17 7 -20 53 -20 30 0 95 3
145 6 81 6 92 9 92 25 0 16 -7 19 -42 17 -24 -1 -89 -4 -145 -5z m82 -23 c-28
-12 -55 -12 -55 0 0 6 17 10 38 9 30 0 33 -2 17 -9z"/>
<path d="M1995 2130 c-3 -5 3 -10 14 -10 12 0 21 5 21 10 0 6 -6 10 -14 10 -8
0 -18 -4 -21 -10z"/>
<path d="M2050 2131 c0 -9 79 -5 88 4 3 3 -16 5 -41 5 -26 0 -47 -4 -47 -9z"/>
<path d="M888 2123 c-120 -3 -128 -5 -128 -23 0 -19 7 -20 104 -20 146 0 196
8 196 31 0 14 -6 18 -22 17 -13 -1 -80 -4 -150 -5z m62 -23 c0 -5 -9 -10 -20
-10 -11 0 -20 5 -20 10 0 6 9 10 20 10 11 0 20 -4 20 -10z"/>
<path d="M550 2110 c-118 -4 -135 -7 -138 -23 -5 -25 19 -30 96 -22 49 6 62
10 47 16 -17 6 -14 8 12 8 17 1 38 4 47 7 9 3 16 1 16 -4 0 -6 -8 -13 -17 -15
-10 -3 11 -5 47 -4 59 2 65 4 68 25 3 18 -1 22 -20 20 -13 -1 -84 -5 -158 -8z"/>
<path d="M2015 2101 c-31 -5 -40 -10 -40 -26 0 -17 8 -20 56 -23 59 -3 87 13
75 43 -6 15 -22 17 -91 6z"/>
<path d="M3126 2102 c-2 -4 -1 -14 5 -22 7 -12 9 -10 9 8 0 23 -5 28 -14 14z"/>
<path d="M2270 2039 c-39 -5 -34 -6 29 -7 41 -1 71 1 68 5 -9 9 -42 9 -97 2z"/>
<path d="M2380 2042 c0 -12 92 -14 110 -2 11 7 -3 10 -47 10 -35 0 -63 -4 -63
-8z"/>
<path d="M2038 2033 c-33 -2 -58 -9 -58 -15 0 -7 16 -9 46 -4 26 3 55 6 65 6
11 0 19 5 19 10 0 6 -3 9 -7 8 -5 -1 -34 -3 -65 -5z"/>
<path d="M2120 2029 c0 -5 20 -9 45 -9 25 0 45 4 45 10 0 5 -20 9 -45 8 -25 0
-45 -4 -45 -9z"/>
<path d="M2640 2010 c0 -12 79 -10 86 2 3 4 -15 8 -40 8 -25 0 -46 -4 -46 -10z"/>
<path d="M2165 1990 c-26 -7 -24 -8 18 -9 26 0 47 3 47 7 0 10 -27 11 -65 2z"/>
<path d="M1975 1980 c-3 -5 1 -10 9 -10 9 0 16 5 16 10 0 6 -4 10 -9 10 -6 0
-13 -4 -16 -10z"/>
<path d="M2098 1978 c9 -9 15 -9 24 0 9 9 7 12 -12 12 -19 0 -21 -3 -12 -12z"/>
<path d="M586 1903 c-3 -4 -6 -15 -6 -25 0 -16 3 -17 20 -8 11 6 20 15 20 19
0 11 -26 22 -34 14z"/>
<path d="M2643 1878 c-4 -8 4 -10 62 -10 50 0 55 1 55 10 0 10 -110 10 -117 0z"/>
<path d="M2474 1868 c-2 -4 -1 -9 3 -11 12 -7 153 5 153 13 0 9 -150 7 -156
-2z"/>
<path d="M2278 1863 c-64 -5 -62 -25 2 -22 34 2 50 7 50 16 0 7 -1 12 -2 11
-2 -1 -24 -3 -50 -5z"/>
<path d="M2370 1859 c0 -12 77 -11 85 1 3 5 -13 9 -40 8 -25 0 -45 -4 -45 -9z"/>
<path d="M2795 1750 c-3 -5 3 -10 14 -10 12 0 21 5 21 10 0 6 -6 10 -14 10 -8
0 -18 -4 -21 -10z"/>
<path d="M2665 1740 c-18 -8 -17 -9 8 -9 15 -1 27 4 27 9 0 12 -8 12 -35 0z"/>
<path d="M2710 1746 c0 -9 39 -13 51 -5 10 6 4 9 -18 9 -18 0 -33 -2 -33 -4z"/>
<path d="M2375 1728 c-159 -12 -216 -26 -90 -22 148 6 335 21 342 28 8 8 -114
5 -252 -6z"/>
<path d="M2013 1723 c9 -2 23 -2 30 0 6 3 -1 5 -18 5 -16 0 -22 -2 -12 -5z"/>
<path d="M2075 1700 c-17 -7 -15 -9 12 -9 17 -1 35 4 38 9 7 12 -22 12 -50 0z"/>
<path d="M2150 1700 c19 -13 30 -13 30 0 0 6 -10 10 -22 10 -19 0 -20 -2 -8
-10z"/>
<path d="M1970 1691 c0 -6 17 -7 38 -4 51 8 53 13 4 13 -23 0 -42 -4 -42 -9z"/>
<path d="M2300 1690 c0 -5 7 -10 15 -10 8 0 15 5 15 10 0 6 -7 10 -15 10 -8 0
-15 -4 -15 -10z"/>
<path d="M2238 1678 c8 -8 17 -8 34 0 22 10 21 11 -11 11 -27 1 -32 -2 -23
-11z"/>
<path d="M2080 1670 c20 -13 50 -13 50 0 0 6 -15 10 -32 10 -25 0 -29 -3 -18
-10z"/>
<path d="M1993 1663 c15 -2 37 -2 50 0 12 2 0 4 -28 4 -27 0 -38 -2 -22 -4z"/>
<path d="M2025 1601 c-56 -6 -60 -8 -60 -31 0 -25 0 -25 80 -21 44 2 83 5 88
8 4 2 7 15 7 29 0 26 2 26 -115 15z"/>
<path d="M8824 3059 c-3 -5 15 -9 40 -9 25 0 46 4 46 9 0 4 -18 8 -40 8 -22 0
-43 -4 -46 -8z"/>
<path d="M7350 3050 c0 -5 7 -10 15 -10 8 0 15 5 15 10 0 6 -7 10 -15 10 -8 0
-15 -4 -15 -10z"/>
<path d="M6312 2873 c-42 -15 -32 -83 13 -83 26 0 50 32 41 55 -6 18 -37 34
-54 28z"/>
<path d="M6440 2850 c0 -17 6 -20 43 -19 28 2 44 7 44 15 0 7 -7 12 -16 11 -9
0 -28 3 -43 6 -24 6 -28 4 -28 -13z"/>
<path d="M6543 2850 c2 -25 54 -29 54 -5 0 10 -6 13 -19 9 -10 -3 -18 -1 -18
5 0 6 -4 11 -9 11 -6 0 -9 -9 -8 -20z"/>
<path d="M6651 2848 c-1 -22 3 -26 24 -23 33 3 42 12 27 27 -8 8 -15 8 -26 -1
-12 -10 -15 -9 -19 6 -3 12 -5 9 -6 -9z"/>
<path d="M6716 2862 c-3 -5 1 -18 9 -28 14 -18 15 -18 12 3 -4 27 -13 38 -21
25z"/>
<path d="M6784 2845 c-2 -28 -1 -29 44 -16 20 6 32 6 32 0 0 -5 4 -9 8 -9 7 0
8 25 3 49 -1 2 -7 -2 -14 -8 -8 -6 -17 -7 -21 -3 -4 4 -15 -2 -23 -13 -15 -20
-15 -20 -10 3 3 13 0 22 -6 22 -7 0 -13 -11 -13 -25z"/>
<path d="M7034 2857 c-6 -17 2 -37 15 -37 9 0 8 37 -2 46 -4 4 -9 0 -13 -9z"/>
<path d="M7077 2863 c-12 -12 -7 -43 7 -43 9 0 12 8 8 25 -5 27 -6 28 -15 18z"/>
<path d="M7626 2854 c-33 -32 -13 -74 36 -74 40 0 59 41 33 70 -22 24 -48 26
-69 4z"/>
<path d="M7796 2863 c-3 -3 -6 -15 -6 -25 0 -16 7 -18 53 -17 56 2 78 25 26
27 -15 0 -36 5 -47 11 -11 6 -22 7 -26 4z"/>
<path d="M8050 2870 c-1 -3 -4 -18 -6 -33 -2 -22 1 -27 11 -23 8 3 17 1 21 -5
8 -13 34 8 34 27 0 17 -26 18 -36 2 -6 -9 -10 -5 -15 12 -4 14 -8 23 -9 20z"/>
<path d="M8887 2862 c7 -4 12 -21 12 -37 -1 -17 4 -46 9 -65 9 -32 10 -28 11
38 1 68 0 72 -21 72 -15 0 -19 -3 -11 -8z"/>
<path d="M6610 2843 c0 -10 4 -14 8 -8 4 6 11 13 16 18 5 4 2 7 -7 7 -10 0
-17 -8 -17 -17z"/>
<path d="M6885 2850 c-7 -11 14 -36 23 -25 4 6 13 10 21 10 8 0 16 5 18 12 4
12 -54 16 -62 3z"/>
<path d="M6960 2839 c0 -13 8 -17 28 -17 19 1 28 6 28 18 0 12 -9 17 -28 17
-20 0 -28 -5 -28 -18z"/>
<path d="M7105 2842 c3 -7 5 -16 5 -19 0 -3 6 0 14 6 10 8 16 9 21 1 10 -16
27 -12 23 8 -2 12 -13 17 -36 18 -24 0 -31 -3 -27 -14z"/>
<path d="M7400 2840 c0 -19 3 -21 12 -12 9 9 9 15 0 24 -9 9 -12 7 -12 -12z"/>
<path d="M7910 2850 c0 -5 6 -10 13 -10 9 0 8 -3 -2 -9 -7 -5 -9 -11 -4 -14 5
-3 15 -2 23 3 9 5 19 5 27 -1 9 -8 11 -5 10 10 -1 15 -6 19 -19 15 -10 -3 -18
-1 -18 5 0 6 -7 11 -15 11 -8 0 -15 -4 -15 -10z"/>
<path d="M8120 2852 c0 -18 12 -42 21 -42 13 0 4 43 -9 48 -7 2 -12 -1 -12 -6z"/>
<path d="M8208 2835 c2 -14 8 -25 13 -25 5 0 9 11 9 25 0 14 -6 25 -14 25 -9
0 -12 -8 -8 -25z"/>
<path d="M8268 2853 c-32 -5 -37 -28 -8 -36 14 -4 20 0 20 11 1 15 2 15 11 0
14 -25 26 -22 24 4 -2 24 -7 27 -47 21z"/>
<path d="M8502 2839 c4 -29 25 -36 23 -7 -1 12 -7 24 -14 26 -8 3 -12 -4 -9
-19z"/>
<path d="M8549 2858 c-8 -26 -3 -48 11 -48 13 0 16 6 12 25 -3 20 -19 35 -23
23z"/>
<path d="M8000 2833 c0 -10 4 -14 8 -8 4 6 11 13 16 18 5 4 2 7 -7 7 -10 0
-17 -8 -17 -17z"/>
<path d="M8327 2843 c-8 -7 11 -33 24 -33 5 0 9 9 9 20 0 19 -20 27 -33 13z"/>
<path d="M8370 2830 c0 -20 1 -20 27 -3 15 10 24 12 19 5 -4 -7 -1 -15 9 -19
10 -3 21 0 26 8 6 10 9 10 9 2 0 -7 8 -13 18 -13 14 0 15 2 2 10 -12 8 -12 12
-2 18 7 5 -12 9 -48 10 -54 2 -60 0 -60 -18z"/>
<path d="M8580 2843 c0 -5 4 -14 9 -22 8 -12 12 -12 25 -2 11 9 16 10 16 2 0
-6 7 -11 15 -11 8 0 15 5 15 10 0 6 0 13 0 18 0 11 -44 9 -52 -3 -5 -6 -8 -6
-8 3 0 6 -4 12 -10 12 -5 0 -10 -3 -10 -7z"/>
<path d="M6803 2763 c9 -2 25 -2 35 0 9 3 1 5 -18 5 -19 0 -27 -2 -17 -5z"/>
<path d="M6170 2700 c0 -6 16 -10 35 -10 19 0 35 4 35 8 0 5 -16 9 -35 10 -19
1 -35 -3 -35 -8z"/>
<path d="M6280 2699 c0 -5 12 -9 27 -9 30 0 27 9 -6 15 -11 2 -21 0 -21 -6z"/>
<path d="M6460 2699 c0 -5 11 -9 25 -9 14 0 25 2 25 4 0 2 -11 6 -25 8 -14 3
-25 1 -25 -3z"/>
<path d="M7480 2680 c0 -5 7 -10 15 -10 8 0 15 5 15 10 0 6 -7 10 -15 10 -8 0
-15 -4 -15 -10z"/>
<path d="M7630 2678 c0 -4 9 -8 20 -8 11 0 20 4 20 8 0 4 -9 8 -20 8 -11 0
-20 -4 -20 -8z"/>
<path d="M7690 2680 c-8 -5 -12 -11 -9 -14 2 -3 11 -1 19 4 8 5 12 11 9 14 -2
3 -11 1 -19 -4z"/>
<path d="M7750 2675 c0 -8 8 -11 20 -8 11 3 20 7 20 8 0 1 -9 5 -20 8 -12 3
-20 0 -20 -8z"/>
<path d="M7820 2676 c0 -6 9 -12 20 -13 11 -1 20 2 20 6 0 5 -9 11 -20 14 -12
3 -20 0 -20 -7z"/>
<path d="M7940 2671 c0 -6 9 -9 20 -8 11 1 20 5 20 9 0 4 -9 8 -20 8 -11 0
-20 -4 -20 -9z"/>
<path d="M8923 2595 c0 -22 2 -30 4 -17 2 12 2 30 0 40 -3 9 -5 -1 -4 -23z"/>
<path d="M6628 2588 c-9 -5 -4 -8 15 -8 15 0 27 4 27 8 0 11 -25 11 -42 0z"/>
<path d="M6710 2588 c0 -4 14 -8 30 -8 17 0 30 5 30 10 0 6 -13 9 -30 8 -16
-1 -30 -6 -30 -10z"/>
<path d="M6790 2590 c-12 -8 -10 -10 8 -10 13 0 20 4 17 10 -7 12 -6 12 -25 0z"/>
<path d="M6855 2590 c-17 -6 -16 -7 8 -12 15 -3 27 -2 27 3 0 13 -14 17 -35 9z"/>
<path d="M8127 2558 c-8 -5 -5 -8 8 -9 11 -1 30 -3 43 -4 17 -2 20 1 11 11
-11 14 -42 15 -62 2z"/>
<path d="M8280 2551 c0 -5 14 -9 30 -9 17 1 30 5 30 10 0 4 -13 8 -30 8 -16 0
-30 -4 -30 -9z"/>
<path d="M7412 2510 c0 -19 2 -27 5 -17 2 9 2 25 0 35 -3 9 -5 1 -5 -18z"/>
<path d="M6733 2349 c11 -7 23 -7 35 0 14 9 11 10 -18 10 -29 0 -32 -1 -17
-10z"/>
<path d="M8153 2293 c9 -2 23 -2 30 0 6 3 -1 5 -18 5 -16 0 -22 -2 -12 -5z"/>
<path d="M6180 2021 c0 -16 10 -21 54 -26 62 -8 76 -3 69 25 -5 17 -14 20 -64
20 -52 0 -59 -2 -59 -19z"/>
<path d="M7510 1944 c0 -25 23 -34 93 -34 43 0 47 2 47 24 0 23 -4 25 -70 28
-66 3 -70 2 -70 -18z"/>
<path d="M6205 1512 c-3 -3 -5 -13 -5 -22 0 -18 52 -30 131 -30 32 0 39 4 39
20 0 14 -9 20 -32 24 -62 10 -127 13 -133 8z"/>
<path d="M7540 1367 c0 -23 4 -25 68 -30 114 -11 132 -10 132 12 0 27 -2 28
-107 35 l-93 8 0 -25z"/>
<path d="M4661 2763 c1 -67 4 -88 9 -68 12 45 12 165 0 165 -6 0 -10 -38 -9
-97z"/>
<path d="M3636 2827 c-21 -16 -18 -45 6 -61 14 -8 22 -6 40 12 18 18 20 26 12
40 -15 22 -35 26 -58 9z"/>
<path d="M3760 2820 c0 -12 7 -20 18 -21 9 0 28 -1 42 -3 18 -1 26 4 26 15 0
10 -9 17 -23 17 -14 0 -20 -5 -16 -12 3 -6 -3 -3 -14 7 -25 22 -33 22 -33 -3z"/>
<path d="M3869 2838 c-1 -2 -3 -12 -4 -23 -1 -15 4 -20 21 -20 15 0 22 6 21
17 -1 13 -4 14 -14 6 -12 -10 -17 -4 -14 15 1 6 -7 10 -10 5z"/>
<path d="M3961 2818 c-1 -21 4 -28 18 -28 11 0 23 5 26 10 5 8 11 7 21 -1 11
-9 14 -8 14 9 0 25 -47 28 -53 3 -3 -12 -7 -10 -15 9 l-11 25 0 -27z"/>
<path d="M4348 2815 c-3 -14 -1 -25 3 -25 5 0 9 11 9 25 0 14 -2 25 -4 25 -2
0 -6 -11 -8 -25z"/>
<path d="M3925 2819 c-4 -6 -5 -13 -2 -16 7 -7 27 6 27 18 0 12 -17 12 -25 -2z"/>
<path d="M4090 2809 c0 -16 4 -19 23 -13 29 9 30 10 21 25 -5 9 -11 7 -22 -7
-13 -16 -14 -17 -9 -1 4 9 2 17 -3 17 -6 0 -10 -9 -10 -21z"/>
<path d="M4150 2816 c0 -8 5 -18 10 -21 6 -3 10 3 10 14 0 12 -4 21 -10 21 -5
0 -10 -6 -10 -14z"/>
<path d="M4185 2819 c-4 -5 -3 -14 1 -20 4 -8 9 -7 15 2 7 11 9 11 9 -1 0 -13
2 -13 9 -1 7 10 13 12 23 5 20 -16 58 -15 52 0 -3 7 -15 12 -27 12 -12 -1 -34
1 -49 5 -15 4 -30 3 -33 -2z"/>
<path d="M4310 2816 c0 -8 5 -18 10 -21 6 -3 10 3 10 14 0 12 -4 21 -10 21 -5
0 -10 -6 -10 -14z"/>
<path d="M4908 2819 c-25 -14 -23 -56 2 -64 39 -12 66 35 38 63 -14 14 -18 14
-40 1z"/>
<path d="M5024 2816 c-9 -23 -1 -29 45 -30 30 -1 39 3 38 14 -1 10 -10 16 -26
15 -15 -1 -32 3 -38 8 -9 6 -15 4 -19 -7z"/>
<path d="M5127 2823 c-10 -17 3 -38 26 -39 11 -1 17 5 17 18 0 17 -3 18 -14 9
-11 -10 -15 -8 -18 6 -2 13 -6 15 -11 6z"/>
<path d="M5227 2823 c-11 -10 -8 -43 3 -43 6 0 10 11 10 25 0 26 -2 29 -13 18z"/>
<path d="M4376 2805 c6 -16 54 -15 54 1 0 10 -10 14 -29 12 -16 -1 -27 -7 -25
-13z"/>
<path d="M5185 2809 c-4 -6 -5 -13 -2 -16 7 -7 27 6 27 18 0 12 -17 12 -25 -2z"/>
<path d="M5250 2792 c0 -24 1 -24 19 -8 15 13 20 14 24 4 3 -7 6 -4 6 8 1 16
-5 22 -24 22 -20 0 -25 -5 -25 -26z"/>
<path d="M5350 2801 c0 -14 7 -19 25 -17 14 0 25 7 25 15 0 8 -7 11 -20 8 -11
-3 -18 -1 -14 4 3 5 0 9 -5 9 -6 0 -11 -9 -11 -19z"/>
<path d="M5410 2806 c0 -8 5 -18 10 -21 6 -3 10 3 10 14 0 12 -4 21 -10 21 -5
0 -10 -6 -10 -14z"/>
<path d="M5570 2806 c0 -23 16 -27 17 -5 1 10 -2 19 -8 19 -5 0 -9 -6 -9 -14z"/>
<path d="M5609 2818 c-6 -21 -5 -38 2 -38 5 0 9 9 9 20 0 16 -7 28 -11 18z"/>
<path d="M5440 2801 c0 -16 18 -22 23 -9 4 9 6 8 6 -2 1 -13 2 -13 11 0 7 11
12 12 18 4 9 -15 62 -15 56 0 -5 14 -114 20 -114 7z"/>
<path d="M5633 2796 c5 -16 57 -16 57 0 0 10 -9 14 -30 12 -17 -1 -29 -6 -27
-12z"/>
<path d="M3783 2743 c9 -2 23 -2 30 0 6 3 -1 5 -18 5 -16 0 -22 -2 -12 -5z"/>
<path d="M3541 2684 c6 -7 20 -11 31 -9 33 7 31 12 -6 17 -27 3 -33 1 -25 -8z"/>
<path d="M3620 2682 c0 -9 97 -8 106 1 4 4 -18 7 -49 7 -31 0 -57 -3 -57 -8z"/>
<path d="M3740 2680 c0 -13 20 -13 40 0 12 8 9 10 -12 10 -16 0 -28 -4 -28
-10z"/>
<path d="M3810 2680 c0 -5 7 -10 15 -10 8 0 15 5 15 10 0 6 -7 10 -15 10 -8 0
-15 -4 -15 -10z"/>
<path d="M3870 2678 c0 -5 14 -8 30 -8 17 0 30 4 30 10 0 5 -13 8 -30 7 -16
-1 -30 -5 -30 -9z"/>
<path d="M5080 2670 c0 -5 9 -10 20 -10 11 0 20 5 20 10 0 6 -9 10 -20 10 -11
0 -20 -4 -20 -10z"/>
<path d="M5150 2668 c0 -4 11 -8 25 -8 14 0 25 4 25 10 0 5 -11 9 -25 8 -14
-1 -25 -6 -25 -10z"/>
<path d="M4020 2592 c0 -11 39 -12 45 -1 4 5 -5 9 -19 9 -14 0 -26 -4 -26 -8z"/>
<path d="M4135 2590 c-3 -5 1 -10 9 -10 9 0 16 5 16 10 0 6 -4 10 -9 10 -6 0
-13 -4 -16 -10z"/>
<path d="M5300 2580 c0 -5 4 -10 9 -10 6 0 13 5 16 10 3 6 -1 10 -9 10 -9 0
-16 -4 -16 -10z"/>
<path d="M3530 2080 c0 -18 7 -20 55 -20 48 0 55 2 55 20 0 18 -7 20 -55 20
-48 0 -55 -2 -55 -20z"/>
<path d="M4810 2069 c0 -18 5 -20 52 -17 41 2 54 7 56 21 3 14 -5 17 -52 17
-50 0 -56 -2 -56 -21z"/>
</g>
</svg>
