<?xml version="1.0" standalone="no"?>
<!DOCTYPE svg PUBLIC "-//W3C//DTD SVG 20010904//EN"
 "http://www.w3.org/TR/2001/REC-SVG-20010904/DTD/svg10.dtd">
<svg version="1.0" xmlns="http://www.w3.org/2000/svg"
 width="536.000000pt" height="302.000000pt" viewBox="0 0 536.000000 302.000000"
 preserveAspectRatio="xMidYMid meet">
<metadata>
Created by potrace 1.16, written by Peter Selinger 2001-2019
</metadata>
<g transform="translate(0.000000,302.000000) scale(0.100000,-0.100000)"
fill="#000000" stroke="none">
<path d="M0 2711 c0 -338 3 -375 30 -366 12 4 19 -1 23 -14 6 -25 0 -31 -30
-31 l-23 0 0 -253 0 -254 78 -16 c42 -9 116 -24 164 -33 72 -14 90 -21 104
-41 9 -14 12 -29 7 -33 -4 -5 -84 6 -178 24 l-170 32 -3 -335 c-1 -184 0 -336
3 -339 7 -7 525 -35 532 -29 3 4 -2 135 -13 291 -17 268 -17 286 -1 304 22 24
22 48 0 62 -15 9 -11 10 20 6 20 -2 37 -1 37 4 0 19 29 -3 32 -23 2 -18 9 -21
33 -19 16 2 33 8 36 14 4 6 23 7 48 3 31 -5 41 -11 41 -26 0 -18 14 -24 52
-21 10 1 18 -3 18 -8 0 -11 -27 -18 -80 -22 -32 -3 -35 -6 -46 -53 -6 -27 -12
-45 -13 -39 -2 16 -51 4 -51 -12 0 -31 -18 -12 -22 24 -5 40 6 82 25 94 8 5 7
8 -5 8 -9 0 -18 6 -21 13 -12 35 -19 -17 -20 -165 l-2 -163 114 -8 c63 -4 117
-9 119 -12 2 -2 2 -16 -2 -30 -6 -24 -9 -25 -84 -23 -71 1 -73 2 -27 8 49 6
48 6 -29 10 -58 4 -80 2 -84 -8 -2 -7 -2 -15 0 -18 6 -5 438 -14 438 -9 0 2
-4 15 -10 29 -12 31 -26 33 -35 5 -6 -17 -13 -20 -46 -17 -21 2 -39 0 -39 -4
0 -17 -30 -7 -40 13 -13 24 2 49 31 49 31 0 42 66 13 83 -8 4 -14 13 -14 18 0
6 5 7 11 4 14 -9 50 25 42 39 -4 6 0 5 9 -2 8 -7 22 -10 30 -7 17 7 23 -71 8
-110 -9 -23 -7 -25 19 -25 l28 0 7 86 c6 85 3 111 -13 86 -5 -9 -30 -11 -92
-6 -84 7 -85 7 -87 35 -1 15 2 31 8 34 6 4 8 21 4 42 -6 34 -6 36 17 30 12 -3
29 -1 36 5 10 8 17 8 25 0 8 -8 16 -7 29 1 15 9 24 9 41 -2 19 -12 23 -11 35
5 7 10 13 23 13 28 0 6 -4 5 -9 -3 -11 -18 -167 -6 -196 15 -17 13 -18 16 -3
30 15 15 17 15 28 -5 6 -12 15 -19 21 -16 5 4 9 0 9 -7 0 -8 5 -6 11 5 12 21
33 23 25 2 -4 -13 2 -14 37 -8 23 4 50 7 59 7 13 0 19 12 24 46 3 25 8 53 11
63 2 10 -1 17 -9 17 -10 0 -9 3 2 10 31 20 40 11 40 -41 0 -28 4 -48 9 -44 5
3 12 1 16 -4 3 -5 13 -9 23 -9 9 0 36 -2 58 -6 32 -5 46 -3 58 10 10 9 20 14
23 10 7 -7 6 -122 -3 -293 -7 -121 -7 -123 -31 -123 -22 0 -23 -3 -20 -50 2
-27 9 -56 16 -63 9 -12 8 -16 -2 -20 -8 -3 -17 -17 -19 -31 -6 -32 -4 -32 22
-4 24 26 27 12 3 -22 -27 -39 -37 -47 -53 -42 -8 3 -4 -5 9 -17 13 -11 19 -21
12 -21 -14 0 -41 -24 -41 -36 0 -5 5 -3 12 4 18 18 27 15 21 -8 -3 -11 -9 -17
-15 -14 -12 7 -39 -16 -32 -27 3 -5 12 -9 21 -9 13 0 14 2 2 18 -13 15 -12 16
4 3 25 -20 21 -40 -8 -37 -13 2 -22 -1 -19 -5 3 -5 11 -9 19 -9 7 0 15 -6 18
-12 7 -20 22 1 42 57 10 28 23 56 28 63 5 6 13 27 16 45 7 32 7 32 75 35 53 2
73 -1 87 -14 15 -13 31 -16 81 -11 34 3 64 10 66 16 4 11 35 10 297 -4 39 -2
89 -4 113 -4 38 -1 42 -3 42 -25 0 -13 5 -26 12 -28 9 -3 9 -21 -2 -76 -18
-97 -7 -103 15 -8 l16 76 92 0 c51 0 109 -3 129 -6 37 -6 37 -7 24 -33 -15
-28 -10 -81 7 -81 6 0 8 -3 5 -6 -4 -3 -16 -1 -27 6 -18 9 -21 8 -21 -9 0 -25
-10 -31 -56 -33 -32 -1 -43 5 -85 50 -56 58 -67 57 -14 -1 19 -21 33 -41 31
-45 -2 -4 -34 -7 -70 -6 l-66 1 30 -18 c17 -11 30 -24 30 -29 0 -6 4 -9 9 -5
9 5 41 -31 41 -47 0 -5 -13 -2 -29 6 -16 9 -32 12 -36 8 -5 -4 -5 -1 -1 6 4 7
-5 24 -23 43 -17 16 -30 35 -28 42 1 6 -13 19 -31 28 -31 16 -32 18 -13 24 24
7 27 27 8 43 -11 10 -94 18 -217 21 -25 1 -31 4 -21 10 10 7 7 9 -12 8 -31 -2
-32 -6 -12 -54 8 -19 15 -37 15 -39 0 -9 -89 -3 -95 6 -4 6 10 10 36 10 36 0
40 2 29 15 -16 19 -120 21 -120 3 0 -9 -16 -13 -45 -14 -25 0 -45 3 -45 8 0 4
12 8 26 8 14 0 23 4 19 10 -3 6 -2 10 4 10 5 0 12 -6 14 -12 3 -8 6 -6 6 5 1
9 8 17 16 17 8 0 15 5 15 10 0 6 19 10 42 10 63 0 34 18 -34 21 -42 2 -62 -2
-76 -14 -10 -9 -27 -17 -38 -18 -18 0 -18 -1 1 -9 23 -10 20 -11 -50 -16 -27
-2 -58 -5 -68 -6 -18 -2 -32 -31 -23 -47 4 -5 3 -16 0 -25 -7 -18 -39 -22 -49
-6 -10 17 -25 11 -25 -9 0 -22 -20 -32 -49 -24 -12 3 -21 13 -21 25 0 17 -6
19 -37 17 -68 -4 -75 -1 -67 24 3 12 3 19 -1 15 -5 -4 -15 -2 -23 5 -13 9 -14
9 -8 0 4 -8 2 -13 -4 -13 -6 0 -8 -5 -4 -11 4 -8 9 -7 15 2 5 8 9 9 9 3 0 -6
-9 -18 -19 -25 -12 -9 -22 -32 -26 -62 -6 -45 -5 -47 19 -47 23 0 24 2 14 31
-6 16 -8 32 -5 35 3 3 10 -11 17 -30 6 -20 17 -36 25 -36 7 0 18 -13 25 -30 7
-16 18 -30 24 -30 18 0 73 -76 63 -86 -8 -8 -37 8 -37 21 0 24 -25 23 -37 -1
-10 -23 -9 -24 20 -24 24 0 28 -3 17 -10 -12 -8 -11 -10 8 -10 12 0 22 -5 22
-10 0 -7 -30 -9 -82 -6 -46 2 -154 5 -241 5 -87 1 -156 5 -153 10 3 4 55 12
116 16 62 4 108 11 104 16 -3 5 4 9 15 9 24 0 27 10 9 28 -9 9 -9 12 0 12 7 0
12 4 12 9 0 5 -9 7 -20 4 -12 -3 -20 0 -20 7 0 9 -4 9 -12 2 -27 -22 -91 -32
-132 -21 l-41 11 33 29 c24 22 42 29 73 29 59 0 39 16 -30 24 -33 4 -63 11
-66 16 -4 6 -1 10 6 10 8 0 8 4 -1 15 -20 24 -30 18 -31 -17 -1 -19 -3 -25 -6
-15 -6 22 4 67 15 67 4 0 19 -11 34 -25 22 -21 31 -23 52 -15 23 8 25 12 15
34 -7 15 -23 28 -41 31 -24 6 -29 11 -26 33 3 25 0 27 -41 33 -37 5 -44 3 -49
-13 -6 -24 -22 -23 -22 2 0 11 -3 20 -7 20 -5 0 -8 25 -8 54 0 44 -4 56 -17
60 -17 4 -24 45 -18 114 1 12 -3 22 -8 22 -13 0 -22 -25 -22 -61 0 -18 -4 -28
-10 -24 -5 3 -10 20 -10 37 0 17 -3 29 -6 25 -3 -3 -3 -58 1 -122 l7 -115 37
5 c30 4 28 2 -14 -12 -45 -14 -75 -15 -290 -4 -132 6 -268 11 -302 11 l-63 0
0 -80 c0 -87 -6 -78 65 -93 11 -3 1 -5 -22 -6 l-43 -1 0 -370 0 -370 1951 0
1951 0 -7 190 -7 189 23 5 c13 3 146 7 295 10 l271 6 6 -137 c4 -75 7 -165 7
-200 l0 -63 435 0 435 0 0 480 0 480 -46 0 c-75 0 -79 -9 -67 -163 6 -73 9
-134 8 -136 -2 -2 -16 6 -31 18 -16 13 -41 21 -64 21 -43 0 -67 19 -47 39 9
10 6 17 -15 34 -26 21 -27 27 -40 202 -13 174 -14 180 -35 183 -13 2 -23 8
-23 13 0 5 -11 9 -25 9 -13 0 -28 7 -33 16 -7 13 -19 15 -58 10 -69 -9 -103
-8 -434 9 -162 8 -327 16 -367 18 -60 2 -73 5 -77 20 -7 26 2 45 25 52 21 7
22 16 13 64 -6 28 -10 32 -30 27 -24 -6 -24 -5 -25 76 0 46 -2 133 -5 194 l-5
112 32 11 c18 6 30 14 27 16 -5 6 -210 -66 -357 -124 -41 -17 -69 -25 -62 -18
6 6 11 27 11 46 0 19 7 42 15 51 14 16 13 17 -25 17 -22 0 -40 -4 -40 -9 0
-13 -21 -5 -22 7 -1 16 -31 34 -55 35 -66 1 -73 42 -12 69 l41 19 -84 11 c-45
6 -159 18 -253 26 -93 9 -182 21 -197 27 -30 11 -36 35 -17 70 10 19 16 20 82
12 40 -4 104 -9 142 -10 132 -3 141 -4 126 -13 -9 -6 8 -11 50 -16 35 -3 72
-9 83 -12 12 -3 16 -1 12 6 -4 6 -22 12 -39 12 l-32 2 35 7 c19 4 31 8 25 9
-5 1 -154 17 -330 35 -317 32 -320 32 -323 56 l-4 23 94 -6 93 -5 -83 13 c-87
14 -130 32 -52 22 25 -3 124 -13 220 -21 96 -9 192 -18 213 -20 20 -2 37 -1
37 4 0 4 -33 10 -72 13 -171 14 -392 39 -460 52 -56 11 -62 13 -23 10 164 -14
219 -17 215 -12 -3 3 -22 7 -43 9 -51 3 -47 18 6 19 34 1 37 2 17 8 -52 14 0
19 106 10 60 -5 115 -12 122 -14 6 -2 12 0 12 5 0 6 -17 11 -37 11 -22 1 -29
4 -16 6 35 7 197 -14 201 -26 2 -6 8 -11 13 -11 6 0 7 5 3 12 -5 8 -2 9 10 5
13 -5 19 -1 23 13 3 11 12 20 21 20 46 0 -11 11 -147 30 -182 24 -191 24 -191
6 0 -22 -75 -24 -180 -3 -52 10 -105 16 -117 14 -32 -6 -29 7 5 19 l27 11 -40
11 c-22 7 -249 39 -505 72 -256 33 -514 67 -575 75 -60 8 -123 15 -140 15 -16
0 -37 5 -45 10 -10 6 3 8 40 5 54 -5 54 -4 15 6 -22 6 -65 9 -95 6 -30 -2 -48
-1 -40 2 8 3 -23 11 -70 18 -72 10 -75 11 -20 7 36 -3 95 -8 133 -11 l67 -6 0
37 c0 20 -5 36 -11 36 -15 0 -3 143 11 148 6 2 6 11 -1 24 -6 11 -8 31 -5 44
4 15 2 24 -6 24 -8 0 -9 3 -2 10 17 17 110 -2 106 -21 -2 -8 -5 -50 -7 -94 -2
-44 -1 -68 1 -52 3 15 10 27 15 27 10 0 9 -170 -1 -199 -3 -7 2 -16 10 -18 12
-4 12 -3 1 5 -9 7 -10 12 -2 16 6 4 11 29 11 55 0 64 11 141 20 141 4 0 6 -46
4 -102 -2 -99 -1 -96 12 40 9 102 26 74 23 -37 -2 -55 -2 -101 1 -104 3 -2 37
-7 75 -10 89 -8 235 -26 258 -33 10 -3 17 0 17 8 0 10 2 10 8 1 4 -6 46 -16
92 -22 153 -19 166 -19 178 0 7 11 23 17 41 17 27 -1 30 -4 25 -23 -5 -21 -1
-23 48 -29 29 -4 70 -9 91 -12 42 -6 39 -11 37 83 l-1 63 28 -5 c15 -2 44 -7
64 -10 l37 -5 7 -75 c4 -41 10 -75 15 -75 5 0 15 -3 24 -6 13 -5 16 1 16 29 0
19 -4 37 -9 39 -10 3 -19 94 -10 102 2 2 95 -6 206 -19 111 -13 226 -23 255
-22 29 0 77 -2 106 -7 34 -5 52 -4 52 2 0 9 -55 18 -162 26 -21 2 -38 -1 -38
-5 0 -5 -11 -4 -24 1 -13 5 -26 7 -28 4 -3 -2 -39 1 -80 7 -54 8 -78 16 -86
30 -11 16 -9 19 9 19 11 0 18 -4 15 -9 -4 -6 17 -8 48 -5 36 3 57 0 62 -7 5
-9 2 -10 -9 -6 -10 3 -17 2 -17 -3 0 -13 37 -13 45 0 8 13 45 13 45 0 0 -5 8
-10 19 -10 16 0 18 7 16 44 -3 42 0 49 62 120 35 42 68 76 72 76 4 0 13 11 18
23 6 13 18 24 27 24 12 0 13 -4 5 -14 -9 -10 -8 -13 5 -13 8 0 23 11 32 25 10
15 26 25 40 25 12 0 26 5 30 11 4 8 -3 9 -25 4 -18 -4 -31 -3 -31 3 0 6 -28
15 -63 21 -81 14 -82 14 -66 -5 12 -14 10 -19 -15 -39 -26 -21 -66 -24 -66 -5
0 5 -8 11 -17 13 -10 3 3 5 30 6 51 1 67 23 25 35 -38 10 -45 6 -13 -9 31 -14
17 -19 -22 -9 -12 3 -19 12 -17 19 4 8 -7 14 -30 17 -29 3 -36 1 -36 -13 0 -9
-9 -19 -20 -22 -12 -3 -18 -1 -14 5 4 6 -8 7 -31 4 -20 -3 -34 -2 -31 3 5 8
-64 22 -188 39 -43 6 -51 11 -57 35 l-7 27 126 -1 c70 0 160 -6 200 -13 60
-11 72 -11 72 0 0 10 15 14 55 14 52 0 55 -1 55 -24 0 -22 6 -26 48 -31 26 -4
55 -9 65 -12 14 -3 17 2 17 31 l0 36 54 0 54 0 6 -107 c15 -255 18 -283 31
-283 7 0 24 -9 38 -20 30 -23 38 -25 31 -6 -4 11 3 12 38 5 24 -4 47 -8 52 -9
4 0 6 -6 3 -14 -3 -7 1 -26 9 -41 8 -15 14 -36 14 -47 0 -11 23 -49 52 -84 52
-65 65 -76 54 -49 -5 14 2 15 53 9 52 -6 63 -4 96 19 l37 25 -46 7 c-25 4 -46
11 -46 16 0 12 24 11 55 -3 31 -14 67 2 98 46 l20 29 -22 18 c-13 11 -37 19
-53 19 -30 0 -31 -1 -25 -41 5 -38 4 -40 -16 -35 -11 3 -27 0 -34 -6 -16 -13
-16 -10 -2 30 6 17 17 33 25 36 18 7 18 26 0 26 -19 0 -27 117 -8 132 7 7 12
7 12 1 0 -10 202 -53 244 -53 16 0 18 5 13 38 -3 20 -9 106 -13 189 l-7 153
554 3 c305 1 -653 3 -2128 5 l-2683 2 0 -309z m402 254 c-2 -25 -7 -45 -11
-45 -4 0 -5 16 -3 35 3 21 0 35 -7 35 -6 0 -12 -17 -12 -37 -1 -26 -3 -30 -6
-14 -7 36 5 71 25 71 14 0 17 -8 14 -45z m149 22 c9 -12 19 -32 23 -45 4 -12
10 -20 14 -18 4 2 7 -9 7 -25 0 -16 -3 -29 -7 -29 -5 0 -8 8 -8 19 0 10 -15
30 -34 45 l-34 26 -6 -48 c-3 -26 -7 -76 -8 -112 -3 -56 -1 -65 14 -62 9 1 21
-6 27 -16 9 -17 7 -17 -34 -8 -24 6 -41 14 -38 19 3 5 7 46 9 91 2 44 6 90 8
101 3 11 5 35 5 53 1 26 5 32 24 32 12 0 29 -11 38 -23z m374 -69 c-11 -141
-11 -141 4 -146 8 -3 11 0 7 7 -4 6 -4 16 0 23 5 7 7 30 5 51 -1 21 2 44 8 51
6 6 12 31 13 54 3 39 5 43 28 40 25 -3 25 -4 23 -93 -2 -49 -5 -108 -7 -131
-5 -49 15 -66 80 -69 l42 -1 6 70 c12 137 18 176 27 176 12 0 11 -39 -2 -160
-11 -97 -11 -102 9 -122 17 -17 18 -25 10 -49 l-10 -29 -36 30 c-40 33 -96 41
-106 15 -3 -10 1 -14 12 -13 9 1 31 0 47 -2 17 -2 -4 -6 -45 -10 -53 -5 -78
-3 -87 5 -7 7 -10 14 -8 17 2 2 -11 2 -30 0 -19 -2 -48 3 -66 12 -37 19 -42
20 -34 6 3 -5 1 -10 -4 -10 -6 0 -11 7 -11 15 0 8 -5 15 -11 15 -5 0 -8 4 -4
9 3 5 7 23 9 41 4 34 12 47 23 36 4 -4 1 -11 -7 -16 -12 -8 -12 -10 4 -10 15
0 16 -3 6 -15 -9 -11 -9 -17 2 -28 16 -16 82 -31 73 -17 -3 6 -13 10 -22 10
-14 0 -14 3 2 20 18 20 41 28 31 11 -9 -14 5 -71 17 -71 6 0 7 3 4 7 -4 3 1
15 10 25 16 18 16 18 0 12 -21 -8 -21 0 -1 31 14 22 14 24 -5 35 -16 8 -21 8
-21 -2 0 -12 -52 -48 -69 -48 -9 0 -7 37 2 46 13 14 7 34 -10 35 -16 1 -16 2
-2 6 12 3 18 21 23 66 18 164 16 157 48 157 l30 0 -7 -92z m2875 82 c0 -5 10
-11 23 -11 l22 -2 -22 -4 c-12 -2 -31 0 -41 6 -15 8 -23 7 -32 -4 -10 -13 -10
-19 4 -34 11 -13 14 -21 7 -26 -17 -10 -13 -61 5 -76 13 -10 17 -10 24 0 5 9
10 10 14 2 8 -12 -2 -34 -12 -27 -4 2 -15 -1 -24 -8 -17 -13 -20 -68 -5 -92 8
-14 55 -15 63 -2 3 5 11 2 18 -7 8 -11 28 -17 57 -18 24 -1 47 -6 51 -11 4 -6
13 -4 22 4 14 11 16 10 10 -4 -5 -13 -14 -16 -38 -12 -17 3 -68 11 -113 17
-97 15 -90 0 -96 197 l-4 122 33 0 c19 0 34 -4 34 -10z m210 -31 c0 -32 -3
-39 -12 -31 -7 5 -33 15 -58 21 l-45 11 53 -5 c50 -4 52 -3 52 20 0 14 2 25 5
25 3 0 5 -19 5 -41z m-2482 7 c59 -13 139 -29 177 -36 39 -6 83 -15 99 -20 16
-5 33 -7 37 -4 5 3 9 1 9 -4 0 -5 14 -12 30 -15 28 -6 41 -29 23 -40 -5 -3
-89 13 -188 34 -342 74 -325 69 -325 90 0 24 9 24 138 -5z m-311 -28 c-3 -18
-9 -72 -13 -121 -3 -48 -11 -90 -16 -93 -6 -4 -7 15 -3 48 3 29 8 78 11 108 6
84 8 90 17 90 5 0 7 -15 4 -32z m-538 5 c0 -11 -3 -13 -6 -5 -2 6 -10 9 -15 6
-7 -4 -8 -2 -4 4 11 18 26 14 25 -5z m625 11 c8 -3 12 -12 10 -19 -3 -8 -12
-11 -20 -8 -9 3 -14 -1 -14 -13 0 -9 -2 -15 -5 -12 -6 5 4 58 10 58 2 0 10 -3
19 -6z m2794 -97 c12 -3 11 -5 -5 -6 -22 -1 -23 3 -21 57 l2 57 3 -52 c3 -38
8 -53 21 -56z m-2728 43 c9 29 1 -98 -9 -150 -4 -21 -7 10 -6 75 0 61 2 97 4
80 4 -30 4 -30 11 -5z m38 -59 c0 -44 -3 -58 -13 -55 -7 3 -11 13 -10 22 2 26
17 92 20 92 2 0 3 -27 3 -59z m-97 12 c0 -31 2 -34 9 -18 5 11 9 16 10 10 1
-5 5 -1 10 10 7 17 9 15 9 -11 1 -17 -2 -52 -5 -77 -6 -42 -9 -46 -35 -45 -16
1 -29 6 -29 12 0 6 -4 5 -9 -3 -16 -24 -18 3 -8 82 9 64 13 77 29 77 14 0 18
-8 19 -37z m176 20 c4 -10 11 -21 16 -24 5 -4 10 -25 11 -48 2 -40 2 -40 -28
-37 -25 3 -32 8 -34 31 -8 64 19 122 35 78z m424 -44 c99 -20 130 -32 117 -45
-5 -5 -180 27 -230 42 -21 6 -24 24 -4 24 7 0 60 -9 117 -21z m-185 1 c27 -11
27 -11 8 -29 -26 -25 -64 -37 -64 -19 0 24 12 58 21 58 4 0 20 -5 35 -10z
m2291 -102 c-2 -18 -4 -6 -4 27 0 33 2 48 4 33 2 -15 2 -42 0 -60z m-56 9 c-8
-8 -11 -4 -11 14 0 33 14 47 18 19 2 -12 -1 -27 -7 -33z m-3325 32 c3 -6 1
-15 -6 -19 -6 -4 -11 -10 -11 -14 1 -3 -1 -6 -4 -6 -3 0 -5 2 -5 5 0 3 0 14 0
25 0 22 15 27 26 9z m1290 -4 c37 -19 17 -19 -27 0 -19 8 -27 14 -18 15 9 0
30 -7 45 -15z m-1248 -13 c2 -7 -3 -12 -12 -12 -9 0 -16 7 -16 16 0 17 22 14
28 -4z m3409 -54 c-2 -13 -4 -3 -4 22 0 25 2 35 4 23 2 -13 2 -33 0 -45z
m-2237 20 c0 -16 -3 -18 -13 -9 -8 6 -17 8 -20 4 -4 -3 -7 3 -7 14 0 16 5 20
20 16 12 -3 20 -14 20 -25z m1239 18 c-2 -2 -17 -6 -34 -10 -22 -5 -26 -4 -15
4 14 9 59 15 49 6z m-987 -68 c-5 -95 -9 -104 -11 -25 0 42 2 77 7 77 4 0 6
-24 4 -52z m-102 32 c11 -8 9 -9 -12 -8 -16 1 -28 6 -28 10 0 11 22 10 40 -2z
m1030 0 c0 -5 7 -10 16 -10 9 0 12 5 8 12 -4 7 -3 8 4 4 7 -4 12 -11 12 -17 0
-12 -37 -12 -45 1 -3 5 -13 6 -22 3 -11 -4 -14 -3 -9 5 9 15 36 16 36 2z
m-1153 -22 c12 -6 20 -15 17 -20 -3 -4 -9 -6 -13 -4 -4 3 -26 6 -49 7 -33 2
-42 7 -42 21 0 14 6 16 33 12 17 -3 42 -10 54 -16z m1276 9 c4 3 7 1 7 -5 0
-7 -11 -12 -25 -12 -24 0 -32 10 -18 23 3 4 11 2 18 -3 7 -5 15 -7 18 -3z
m-1119 -23 c25 -10 19 -34 -8 -34 -35 0 -56 10 -56 26 0 14 36 19 64 8z
m-1274 -24 c13 -9 13 -10 0 -10 -11 0 -9 -4 5 -13 11 -7 54 -15 95 -18 l75 -6
-73 -1 c-78 -2 -105 6 -122 38 -12 22 -4 25 20 10z m676 -4 c18 -6 20 -11 15
-39 -4 -17 -10 -31 -14 -29 -4 1 -20 2 -37 2 -25 0 -30 4 -30 24 0 38 11 57
29 52 9 -2 26 -7 37 -10z m1704 -7 c0 -5 4 -8 9 -4 5 3 12 2 15 -3 8 -14 -28
-10 -42 5 -11 11 -11 13 2 13 9 0 16 -5 16 -11z m-1175 -15 c33 -3 68 -8 78
-10 20 -6 23 -24 3 -24 -8 0 -16 -4 -18 -10 -2 -6 -25 -6 -68 0 -131 20 -130
20 -130 41 0 18 5 20 38 15 20 -3 64 -8 97 -12z m1001 7 c-3 -4 -17 -7 -32 -5
-41 4 -41 14 0 14 20 0 35 -4 32 -9z m914 -46 c0 -36 5 -48 30 -68 17 -14 30
-33 30 -41 0 -9 4 -16 10 -16 5 0 7 6 4 14 -3 8 -1 17 5 20 17 11 21 -11 7
-38 l-13 -26 -32 40 c-18 22 -40 40 -49 40 -11 0 -13 3 -5 8 12 8 6 62 -7 62
-9 0 -20 47 -13 54 3 3 11 2 19 -1 9 -3 14 -20 14 -48z m-805 29 c19 -14 17
-15 -20 -8 -22 4 -48 8 -57 8 -10 0 -18 4 -18 8 0 14 74 8 95 -8z m-228 -1
c-4 -3 -2 -12 4 -20 9 -10 7 -13 -10 -13 -12 0 -19 5 -16 10 3 6 0 10 -7 11
-7 0 -4 4 7 9 25 11 30 12 22 3z m123 -38 c0 -3 -21 -4 -47 -3 -27 1 -40 3
-30 6 9 2 17 10 17 17 0 11 6 11 30 -1 17 -9 30 -17 30 -19z m200 25 c0 -5
-13 -10 -30 -10 -16 0 -30 5 -30 10 0 6 14 10 30 10 17 0 30 -4 30 -10z
m-1902 -27 c-10 -2 -28 -2 -40 0 -13 2 -5 4 17 4 22 1 32 -1 23 -4z m663 -4
c46 -6 88 -15 94 -20 5 -6 5 -9 0 -9 -24 0 -188 29 -193 34 -7 8 3 8 99 -5z
m22 -35 c32 -4 60 -11 63 -15 7 -12 -27 -10 -114 5 -76 14 -117 33 -47 23 22
-4 66 -9 98 -13z m506 -61 c0 -25 -1 -25 -8 -8 -5 11 -7 23 -4 28 8 14 13 7
12 -20z m-2410 -98 c0 -5 -6 -1 -14 9 -8 11 -15 24 -15 30 0 5 7 1 15 -10 8
-10 14 -23 14 -29z m734 38 c-7 -2 -21 -2 -30 0 -10 3 -4 5 12 5 17 0 24 -2
18 -5z m527 -18 c256 -29 250 -29 250 -9 0 10 6 14 18 10 9 -2 44 -7 77 -10
111 -12 135 -17 135 -32 0 -9 12 -14 36 -14 l35 0 -2 -75 c-1 -41 1 -78 4 -82
4 -3 7 -22 8 -42 0 -30 2 -32 9 -15 7 19 31 36 53 38 4 1 12 7 16 15 7 11 25
12 104 2 53 -6 110 -10 129 -10 18 1 -31 9 -110 18 -78 9 -143 21 -144 26 -1
14 74 25 96 13 10 -5 35 -8 56 -6 21 2 37 0 34 -3 -2 -4 29 -10 69 -14 39 -4
137 -17 217 -30 105 -17 133 -23 100 -25 -32 -2 -14 -6 60 -14 74 -9 107 -9
113 -2 5 7 6 4 3 -7 -3 -10 -6 -27 -6 -38 0 -15 -8 -19 -42 -20 -30 -2 -35 -3
-15 -6 15 -2 27 -11 27 -19 0 -10 14 -14 48 -16 26 0 70 -2 97 -3 53 -2 114
-24 68 -25 -27 0 -31 -16 -5 -24 9 -3 -1 -3 -23 -1 -22 3 -116 12 -210 21 -93
9 -171 17 -173 19 -2 2 1 13 8 24 8 17 8 21 -3 21 -8 0 -17 -9 -20 -20 -6 -25
-14 -25 -191 -4 -117 14 -140 15 -147 3 -12 -19 -11 -6 1 25 9 24 7 26 -15 26
-17 0 -25 -6 -25 -16 0 -19 28 -20 -329 16 -113 12 -208 23 -213 26 -5 3 -6 9
-3 14 9 14 -29 20 -205 35 -137 11 -141 13 -138 48 l3 32 65 -4 c36 -2 73 -7
83 -12 17 -9 24 1 10 15 -4 3 -6 28 -4 55 l2 49 -68 6 c-69 6 -213 6 -213 0 0
-2 18 -8 40 -14 36 -10 40 -14 36 -36 -3 -16 0 -27 10 -31 9 -3 12 -13 9 -24
-4 -11 -2 -19 4 -19 6 0 11 -6 11 -13 0 -20 -40 -34 -75 -27 -23 4 -29 10 -27
25 2 10 -2 36 -8 56 -8 24 -10 57 -6 93 9 67 -17 65 276 31z m-595 5 c39 -6
83 -13 99 -16 24 -5 28 -3 23 10 -7 18 -6 19 17 10 9 -3 14 -10 11 -15 -3 -4
18 -11 47 -15 50 -7 51 -8 23 -16 -20 -5 -79 1 -180 18 -189 33 -215 48 -40
24z m1445 -40 c214 -29 433 -60 451 -63 23 -4 49 -27 49 -43 0 -8 -11 -16 -25
-20 -35 -9 -31 -24 7 -24 25 0 29 -3 20 -12 -7 -7 -27 -12 -44 -12 -44 1 -398
42 -518 60 -52 7 -119 14 -147 14 -31 0 -53 4 -53 11 0 5 5 7 10 4 6 -3 10 -1
10 4 0 6 -7 11 -16 11 -13 0 -12 5 5 29 12 16 21 36 21 44 0 16 31 26 65 21
11 -2 85 -13 165 -24z m-1830 -31 c0 -16 -2 -18 -14 -7 -8 7 -10 15 -5 16 5 2
6 9 3 14 -4 7 -2 8 4 4 7 -4 12 -16 12 -27z m973 2 c4 -4 4 -22 1 -40 -7 -31
-7 -32 -53 -26 -99 13 -97 12 -93 51 l4 35 67 -6 c36 -4 69 -10 74 -14z m-315
-6 c11 -11 -5 -10 -58 2 l-55 13 54 -5 c29 -2 56 -7 59 -10z m1941 -271 c1 -1
0 -8 -4 -14 -5 -8 -21 -10 -48 -6 -46 8 -59 14 -52 25 4 8 94 3 104 -5z
m-1325 -153 c3 -5 -1 -15 -10 -22 -14 -12 -14 -14 3 -20 16 -7 16 -8 -3 -8
-17 -1 -21 5 -22 29 -1 29 19 42 32 21z m868 -89 l-4 -88 139 -85 c76 -47 150
-89 166 -93 15 -3 27 -12 27 -20 0 -7 25 -30 55 -51 31 -21 66 -50 79 -65 21
-26 24 -27 50 -13 34 18 70 13 74 -9 2 -12 -6 -21 -22 -28 -26 -10 -32 -21
-19 -34 4 -4 7 -24 6 -44 -1 -21 1 -27 4 -14 6 28 27 24 31 -7 2 -13 -4 -28
-15 -36 -17 -13 -17 -14 0 -20 15 -6 17 -21 15 -124 0 -64 -3 -100 -5 -81 -5
44 -20 120 -28 143 -6 14 -3 16 11 10 18 -6 18 -6 2 14 -10 11 -19 33 -19 49
-1 18 -3 22 -6 11 -4 -14 -8 -16 -19 -6 -17 14 -178 9 -194 -7 -6 -6 -11 -44
-11 -85 -1 -96 -6 -118 -34 -125 -25 -6 -35 -37 -35 -105 0 -28 4 -39 15 -39
8 0 15 -4 15 -10 0 -5 11 -12 24 -16 26 -6 40 -29 29 -47 -4 -6 -10 -1 -14 12
-5 12 -14 21 -21 20 -7 -2 -24 1 -37 5 -18 6 -21 10 -10 17 11 7 10 9 -3 9
-18 0 -22 -11 -18 -39 1 -10 -4 -9 -16 4 -18 17 -19 17 -24 -6 -4 -17 -8 -20
-14 -11 -8 13 -76 10 -128 -4 -13 -4 -18 0 -18 14 0 16 -5 18 -27 13 -26 -5
-26 -6 -5 -9 32 -5 27 -18 -10 -27 -96 -24 -103 -2 -17 44 41 21 54 32 37 29
-34 -6 -39 20 -7 40 29 18 22 56 -11 60 -79 9 -90 23 -32 40 l37 11 -3 446
c-2 245 0 445 5 445 4 0 6 -40 5 -88z m-1002 63 c11 -13 8 -15 -19 -15 -31 0
-42 14 -18 23 20 9 24 8 37 -8z m538 8 c-10 -2 -26 -2 -35 0 -10 3 -2 5 17 5
19 0 27 -2 18 -5z m-141 -17 c-3 -8 1 -17 10 -20 8 -4 13 -13 10 -21 -5 -12
-2 -12 21 -3 15 6 47 12 72 13 38 1 46 -2 47 -17 2 -15 -6 -18 -39 -18 -58 0
-44 -7 30 -15 41 -4 62 -2 62 4 0 6 8 12 18 12 16 1 16 2 0 6 -18 5 -25 23 -9
23 12 0 9 33 -4 42 -10 8 145 2 260 -10 l70 -7 3 -377 3 -378 -56 0 c-40 0
-55 -4 -55 -14 0 -9 -8 -12 -27 -8 l-28 6 25 7 25 7 -27 1 c-19 1 -28 -4 -28
-14 0 -8 -4 -15 -10 -15 -5 0 -10 7 -10 15 0 21 -20 23 -255 30 -115 3 -249 8
-298 12 -79 5 -87 4 -81 -11 4 -11 1 -16 -10 -16 -9 0 -16 7 -16 15 0 8 -4 15
-10 15 -5 0 -10 -9 -10 -20 0 -25 -20 -26 -27 -1 -5 20 -41 31 -98 31 -28 0
-32 -3 -28 -19 7 -26 -17 -38 -33 -17 -8 11 -11 40 -8 84 2 37 9 162 15 277
14 255 25 410 27 372 3 -39 19 -67 41 -67 14 0 20 -10 25 -40 5 -33 10 -40 29
-40 18 0 19 -2 7 -10 -13 -8 -12 -10 3 -10 21 0 22 -16 2 -28 -20 -10 -10 -38
15 -45 11 -3 29 4 41 14 12 10 26 20 31 20 4 1 13 2 19 3 6 0 19 21 29 45 11
29 20 40 25 32 4 -7 15 -11 25 -8 11 3 21 -1 24 -9 3 -8 11 -14 17 -14 8 0 8
4 -1 15 -7 8 -11 15 -9 15 2 0 20 4 38 10 27 7 32 7 23 -2 -7 -7 -12 -22 -12
-34 0 -12 -3 -30 -6 -39 -6 -14 -11 -12 -38 14 -42 40 -71 44 -71 11 0 -38
-50 -73 -145 -103 -114 -36 -122 -42 -90 -67 41 -32 67 -33 128 -5 43 20 57
23 64 13 11 -19 10 -32 -7 -54 -24 -32 -17 -49 30 -72 41 -20 49 -21 79 -8 45
19 106 74 106 96 0 11 -9 20 -22 22 -27 4 -32 18 -15 41 11 17 15 17 49 2 21
-8 49 -15 63 -15 50 0 90 114 40 115 -32 1 -46 15 -43 43 2 21 -3 29 -30 42
-18 9 -29 19 -25 23 4 5 -1 5 -11 1 -13 -5 -23 -2 -31 10 -12 15 -13 15 -18
-4 -3 -11 -13 -20 -24 -20 -15 0 -15 2 -3 10 8 5 11 13 6 17 -4 4 -16 -3 -27
-16 -14 -17 -19 -19 -19 -7 0 18 36 40 50 31 6 -3 10 -2 10 4 0 5 -4 13 -10
16 -12 7 -12 16 -1 34 7 10 13 11 30 2 16 -9 21 -9 21 2 0 7 -5 18 -12 25 -10
10 -5 11 20 6 27 -6 31 -4 26 10 -4 11 -1 16 11 16 11 0 15 -5 12 -14z m133
-11 c0 -9 -6 -12 -15 -9 -8 4 -12 10 -9 15 8 14 24 10 24 -6z m-241 -10 c2 -3
-14 -5 -37 -5 -23 0 -42 5 -42 11 0 10 68 5 79 -6z m1681 -11 c0 -9 -10 -14
-27 -14 -25 0 -26 1 -8 20 19 21 35 18 35 -6z m-1970 -11 c0 -13 -3 -13 -15
-3 -12 10 -15 10 -15 0 0 -8 -3 -11 -6 -7 -4 3 -4 13 -1 21 8 19 37 10 37 -11z
m0 -33 c0 -5 -11 -10 -25 -10 -14 0 -25 5 -25 10 0 6 11 10 25 10 14 0 25 -4
25 -10z m2060 -20 c14 -11 22 -20 19 -20 -9 0 -69 31 -69 36 0 10 27 2 50 -16z
m-61 -6 c44 -22 30 -34 -38 -34 -57 0 -58 1 -53 25 5 30 41 34 91 9z m489 -55
c-12 -7 -58 -23 -126 -44 l-23 -7 24 24 c13 13 28 31 33 39 5 9 29 23 54 31
l45 15 3 -25 c2 -14 -2 -29 -10 -33z m-340 4 c-5 -29 -25 -25 -30 7 -3 16 -3
32 0 35 9 8 33 -25 30 -42z m-2598 -14 c0 -5 -12 -9 -27 -9 -26 0 -26 1 -8 14
20 14 35 12 35 -5z m2944 -51 c8 -6 8 -10 0 -15 -6 -5 -14 -15 -17 -23 -4 -12
-6 -12 -6 2 -1 15 -6 15 -57 -3 -31 -11 -61 -18 -68 -16 -6 2 19 14 57 26 60
20 67 26 68 49 1 21 2 23 6 7 3 -11 10 -23 17 -27z m-3149 13 c-3 -6 -14 -10
-23 -10 -15 1 -15 2 1 6 9 2 17 9 17 15 0 6 3 9 6 5 3 -3 3 -10 -1 -16z m2076
-1 c19 -15 20 -19 8 -20 -9 0 -27 9 -40 20 -19 15 -20 19 -8 20 9 0 27 -9 40
-20z m637 -17 c5 -21 10 -29 11 -18 1 14 9 20 28 22 14 0 21 -2 14 -6 -8 -5
-6 -14 7 -29 19 -22 38 -31 27 -12 -12 19 13 43 61 61 61 24 68 24 47 0 -10
-10 -29 -32 -42 -49 -17 -21 -37 -33 -63 -37 -38 -7 -38 -7 -38 -56 0 -40 -3
-49 -17 -49 -10 0 -42 -3 -70 -6 l-53 -7 0 57 0 57 -147 -2 c-82 -1 -167 -4
-190 -7 l-43 -4 0 -59 c0 -32 -3 -59 -7 -59 -5 0 -28 14 -52 30 -24 16 -59 32
-77 36 -36 7 -57 24 -29 24 8 0 44 18 79 40 51 32 133 70 152 70 3 0 2 -11 -2
-24 -9 -39 31 -22 43 17 l9 32 99 6 c55 3 132 6 172 7 l71 2 10 -37z m-1698
-13 c0 -14 -14 -12 -28 2 -19 19 -14 30 8 18 11 -6 20 -15 20 -20z m-36 -17
c4 -9 2 -21 -4 -27 -7 -7 -10 -7 -10 1 0 6 -3 18 -6 27 -3 9 -2 16 4 16 5 0
13 -8 16 -17z m-24 -24 c0 -5 -4 -9 -10 -9 -5 0 -10 7 -10 16 0 8 5 12 10 9 6
-3 10 -10 10 -16z m-942 -36 c18 -25 15 -63 -5 -63 -13 0 -14 -3 -5 -12 18
-18 15 -28 -8 -28 -11 0 -20 4 -20 10 0 5 -13 7 -30 3 -25 -5 -29 -3 -24 11 3
9 1 23 -6 31 -10 13 -8 15 14 15 14 0 26 5 26 11 0 8 4 9 13 0 8 -6 17 -8 21
-4 4 4 11 1 16 -7 8 -13 10 -12 10 2 0 18 -41 35 -57 25 -14 -9 -36 10 -28 23
10 16 66 5 83 -17z m800 4 c2 -9 -2 -17 -9 -17 -7 0 -9 3 -6 7 4 3 1 13 -6 21
-10 13 -9 14 3 10 8 -2 16 -12 18 -21z m282 8 c-7 -8 -20 -15 -29 -15 -11 1
-8 5 9 15 32 18 35 18 20 0z m2069 -102 c1 -46 -3 -83 -8 -83 -5 0 -7 9 -4 19
5 18 -10 28 -51 35 -21 4 -71 35 -93 59 l-22 24 37 16 c20 9 57 22 82 30 56
17 58 14 59 -100z m-589 47 l0 -50 -64 0 c-36 0 -67 4 -70 8 -3 5 -3 25 1 45
6 40 14 44 86 46 l47 1 0 -50z m-3090 -45 c0 -29 -47 -65 -85 -65 -28 0 -35 4
-35 19 0 11 12 29 28 40 33 25 92 28 92 6z m2870 -10 c0 -8 -7 -15 -15 -15
-16 0 -20 12 -8 23 11 12 23 8 23 -8z m-1394 -14 c-11 -17 -97 -52 -116 -46
-29 9 -24 25 8 25 15 0 43 8 62 19 33 17 56 19 46 2z m1594 -110 l0 -100 -27
-3 c-24 -3 -28 -8 -28 -33 0 -29 -2 -30 -63 -38 -35 -5 -66 -6 -70 -2 -8 8 19
25 30 19 4 -3 8 0 8 6 0 6 -10 8 -25 4 -19 -5 -25 -2 -25 9 0 9 11 17 28 20
25 4 25 4 -5 6 l-33 1 0 105 0 105 105 0 105 0 0 -99z m-2624 77 c-2 -7 -6
-21 -11 -30 -4 -10 -4 -25 -1 -34 5 -14 4 -15 -8 -5 -11 9 -15 9 -19 -1 -4 -9
-6 -7 -6 4 -1 9 6 23 14 32 8 8 15 22 15 30 0 9 4 16 9 16 5 0 8 -6 7 -12z
m34 -34 c0 -8 5 -12 10 -9 6 3 10 2 10 -3 0 -6 -7 -12 -15 -16 -8 -3 -15 -12
-15 -21 0 -8 -4 -15 -10 -15 -11 0 -14 63 -3 73 11 12 23 8 23 -9z m2774 -40
c12 -4 16 -20 16 -55 l0 -49 -69 0 c-54 0 -70 4 -75 16 -8 21 -8 79 1 87 8 9
106 9 127 1z m1426 -204 c0 -5 -10 -10 -22 -9 -22 0 -22 1 -3 9 11 5 21 9 23
9 1 1 2 -3 2 -9z m-3540 -20 c0 -5 -7 -10 -15 -10 -8 0 -15 5 -15 10 0 6 7 10
15 10 8 0 15 -4 15 -10z m2905 -35 c6 -2 -36 -4 -92 -4 -56 -1 -104 3 -107 8
-5 7 175 4 199 -4z m649 -150 c6 -98 5 -144 -3 -157 -6 -10 -11 -34 -11 -54
l0 -37 -39 7 c-34 5 -41 3 -46 -15 -4 -11 -10 -19 -13 -17 -4 2 -54 27 -112
55 -113 56 -168 72 -241 73 -33 0 -49 5 -53 16 -3 9 -6 67 -6 130 l0 114 28 1
c15 0 88 6 162 14 74 7 178 12 230 11 l95 -1 9 -140z m-1695 95 c10 -31 -2
-43 -13 -14 -5 12 -14 15 -38 10 -31 -6 -31 -6 -13 14 26 29 51 25 64 -10z
m1107 -3 c5 -4 10 -69 12 -143 l4 -135 -43 3 -44 3 -6 125 c-3 69 -7 127 -8
129 0 2 -10 1 -20 -2 -11 -3 -22 1 -25 9 -3 8 -28 14 -68 17 -35 2 -6 3 64 3
69 -1 130 -5 134 -9z m-846 -20 c0 -9 -10 -12 -31 -9 -22 3 -27 7 -18 13 21
13 49 11 49 -4z m-730 -72 c0 -8 -9 -19 -21 -25 -20 -11 -20 -11 -4 14 20 30
25 32 25 11z m305 -2 c-2 -10 -4 -22 -4 -27 -1 -15 -11 -1 -16 23 -2 13 1 21
10 21 7 0 12 -8 10 -17z m1155 -48 c0 -42 -3 -43 -24 -10 -18 27 -14 45 10 45
9 0 14 -11 14 -35z m-3537 -31 c61 -11 42 -19 -33 -16 -38 2 -70 8 -70 13 0
10 48 12 103 3z m3027 -10 c0 -2 -11 -4 -25 -4 -14 0 -25 4 -25 9 0 4 11 6 25
3 14 -2 25 -6 25 -8z m-1526 -19 c10 -8 23 -12 27 -9 4 2 24 -4 44 -15 42 -22
36 -30 -20 -24 -60 5 -76 8 -120 22 -79 25 -80 24 40 39 6 1 19 -5 29 -13z
m-341 -15 c-3 -11 -14 -20 -24 -20 -22 0 -24 11 -7 28 19 19 37 14 31 -8z m52
10 c3 -5 -1 -10 -9 -10 -9 0 -16 5 -16 10 0 6 4 10 9 10 6 0 13 -4 16 -10z
m2312 -21 c10 -25 9 -30 -2 -26 -7 3 -15 -3 -18 -14 -4 -16 -14 -19 -71 -19
-52 0 -66 3 -66 15 0 9 -10 15 -22 16 -13 1 -5 5 17 9 22 5 59 6 83 3 37 -5
42 -3 42 14 0 20 8 33 19 33 4 0 12 -14 18 -31z m-1312 -13 c0 -13 -3 -28 -7
-32 -10 -10 -21 23 -14 41 9 23 22 18 21 -9z m-132 0 c6 -15 -1 -26 -15 -26
-4 0 -8 9 -8 20 0 23 15 27 23 6z m1082 -16 c-3 -5 -13 -10 -21 -10 -8 0 -14
5 -14 10 0 6 9 10 21 10 11 0 17 -4 14 -10z m713 -6 c55 -16 212 -89 212 -99
0 -3 -25 -5 -55 -5 -50 0 -55 2 -52 22 1 15 -5 23 -25 28 -19 6 -28 4 -32 -6
-4 -10 -12 -11 -36 -2 -17 6 -48 8 -68 4 -26 -4 -32 -2 -22 4 8 5 30 10 48 10
22 0 32 5 32 15 0 12 -15 15 -75 15 -60 0 -75 3 -75 15 0 21 75 20 148 -1z
m-3268 -4 c0 -6 -14 -13 -31 -17 -21 -4 -38 -17 -51 -39 -24 -41 -28 -42 -28
-9 0 17 7 28 23 34 13 5 29 16 36 25 15 18 51 22 51 6z m-1170 -10 c0 -5 -6
-10 -14 -10 -8 0 -18 5 -21 10 -3 6 3 10 14 10 12 0 21 -4 21 -10z m55 0 c3
-5 -3 -10 -14 -10 -11 0 -23 5 -26 10 -3 6 3 10 14 10 11 0 23 -4 26 -10z m55
-2 c0 -10 2 -10 8 -1 14 22 79 13 104 -14 l23 -26 -47 6 c-53 7 -66 -7 -17
-17 22 -4 30 -11 27 -23 -5 -25 -54 -46 -119 -51 -67 -5 -119 10 -151 43 -28
30 -43 32 -28 4 13 -24 4 -41 -11 -19 -16 25 -6 55 16 53 11 -2 49 2 84 8 48
9 65 16 68 30 6 21 43 26 43 7z m2025 2 c-3 -5 2 -10 12 -10 16 0 16 -1 1 -16
-13 -13 -28 -15 -82 -9 -80 9 -87 25 -12 25 30 0 58 5 61 10 3 6 11 10 16 10
6 0 7 -4 4 -10z m1784 -6 c3 -2 0 -9 -6 -15 -15 -15 -185 2 -191 20 -4 12 12
13 94 7 54 -4 101 -10 103 -12z m-466 -11 c-13 -2 -35 -2 -50 0 -16 2 -5 4 22
4 28 0 40 -2 28 -4z m-1154 -19 c2 -2 2 -6 0 -9 -8 -7 -49 7 -49 17 0 8 38 2
49 -8z m212 -4 c16 0 29 5 29 11 0 6 7 4 15 -4 8 -9 20 -17 27 -20 34 -12 -7
-14 -100 -5 -57 5 -114 7 -125 5 -12 -2 -3 -5 21 -6 51 -1 55 -16 7 -25 -40
-8 -59 1 -61 27 -2 15 8 17 72 17 52 0 74 4 75 13 0 10 2 10 6 0 2 -7 18 -13
34 -13z m947 -7 c5 -18 -10 -16 -34 2 -18 15 -18 15 5 13 14 -2 26 -9 29 -15z
m445 7 c15 0 27 -4 27 -10 0 -14 -147 -13 -155 1 -4 6 -13 8 -21 5 -8 -3 -14
0 -14 6 0 7 21 9 68 5 37 -4 79 -7 95 -7z m-2513 -9 c0 -5 10 -12 23 -14 19
-4 19 -4 -5 -6 -15 0 -29 3 -32 7 -3 5 -19 7 -37 4 -22 -3 -30 -1 -25 7 9 13
76 15 76 2z m540 -22 c0 -5 -13 -9 -30 -9 -16 0 -30 5 -30 10 0 6 7 10 15 10
8 0 15 5 15 11 0 8 5 8 15 -1 8 -7 15 -16 15 -21z m115 21 c-3 -5 -13 -10 -21
-10 -8 0 -12 5 -9 10 3 6 13 10 21 10 8 0 12 -4 9 -10z m2915 -34 c0 -6 -7 -2
-15 8 -14 19 -21 10 -15 -19 1 -5 -2 -6 -7 -2 -11 12 -11 31 1 39 12 8 36 -9
36 -26z m-3286 13 c-18 -5 -75 -5 -135 0 l-104 8 135 1 c96 0 126 -2 104 -9z
m151 1 c-7 -12 -59 -12 -95 0 -19 6 -9 8 38 9 40 1 61 -3 57 -9z m831 1 c-5
-8 -56 -3 -56 5 0 2 14 4 31 4 16 0 28 -4 25 -9z m-1996 -21 c24 -1 24 -1 6
-15 -37 -28 -75 -14 -62 22 5 12 9 14 18 5 7 -7 23 -12 38 -12z m467 10 c11 0
7 -7 -12 -21 -21 -17 -29 -19 -35 -9 -12 19 0 42 17 36 8 -3 22 -6 30 -6z
m1096 3 c-13 -2 -33 -2 -45 0 -13 2 -3 4 22 4 25 0 35 -2 23 -4z m332 -3 c4
-6 -11 -10 -39 -10 -25 0 -48 5 -51 10 -4 6 11 10 39 10 25 0 48 -4 51 -10z
m967 0 c29 -6 64 -14 78 -17 25 -6 25 -6 -5 -12 -23 -5 -30 -12 -29 -29 1 -20
-4 -22 -58 -22 -32 0 -58 -4 -58 -10 0 -5 41 -7 103 -4 56 2 192 7 302 9 110
2 229 8 265 12 64 8 270 -5 270 -17 0 -3 -64 -6 -142 -6 -79 0 -417 -4 -753
-8 -335 -5 -607 -5 -603 -1 4 4 113 7 242 7 130 0 238 3 241 8 2 4 -18 8 -45
9 -27 0 -67 5 -89 10 -22 4 -52 6 -67 3 -23 -4 -26 -2 -20 13 6 16 2 17 -37
12 -36 -5 -45 -3 -56 14 -7 12 -18 18 -27 15 -8 -3 -14 -2 -14 2 0 4 37 7 83
7 80 -1 122 -12 115 -31 -5 -14 53 -17 66 -4 8 9 4 10 -16 5 -46 -12 -32 10
14 22 45 12 63 8 38 -7 -19 -12 -18 -12 52 -15 38 -2 56 1 51 8 -6 9 22 37 38
37 5 0 32 -5 61 -10z m-3136 -73 c4 -4 -95 -7 -220 -7 -125 0 -225 3 -223 8 6
9 434 8 443 -1z m4656 -23 c40 -6 46 -9 44 -30 -1 -23 -4 -24 -78 -24 -42 0
-80 -5 -83 -10 -11 -18 -24 -1 -22 27 3 38 47 49 139 37z m-2464 -11 c-10 -2
-28 -2 -40 0 -13 2 -5 4 17 4 22 1 32 -1 23 -4z m2252 -47 c0 -13 -5 -26 -12
-28 -7 -3 -8 -9 -3 -19 5 -8 8 -22 6 -33 -1 -10 3 -23 11 -27 11 -8 11 -10 -1
-18 -9 -6 -10 -11 -2 -15 6 -4 11 -15 11 -24 0 -15 -2 -15 -11 -2 -9 12 -10
12 -5 -3 3 -10 6 -22 6 -27 0 -4 9 -10 20 -13 11 -3 20 -9 20 -14 0 -5 -49 -5
-112 0 -117 9 -226 -3 -240 -26 -6 -9 -8 -9 -8 1 0 8 -20 12 -65 12 -64 0 -65
0 -65 28 -1 15 -3 52 -6 84 l-6 56 79 7 c151 13 239 26 303 46 36 10 52 17 35
15 -16 -2 -57 2 -90 9 l-60 13 98 1 c96 1 97 1 97 -23z m175 -66 c-45 -11 -95
-11 -95 0 0 6 27 9 63 9 49 -1 56 -3 32 -9z m90 -50 l20 -9 -20 -1 c-17 -2
-16 -3 4 -9 14 -4 27 -13 29 -20 4 -11 -11 -13 -77 -9 -48 3 -77 1 -69 -4 12
-8 -25 -3 -60 8 -24 7 -3 22 45 30 l48 8 -55 7 c-50 5 -47 6 30 7 47 0 94 -3
105 -8z m45 -76 c0 -2 -13 -4 -30 -4 -16 0 -30 4 -30 8 0 5 14 7 30 4 17 -2
30 -6 30 -8z m-40 -26 c0 -10 -57 -8 -90 2 -18 6 -9 7 32 6 32 0 58 -4 58 -8z
m40 -13 c-7 -8 -20 -15 -29 -15 -11 0 -8 5 9 14 33 19 35 19 20 1z m-420 -130
l0 -25 -100 0 c-89 0 -100 2 -99 18 0 9 3 12 5 6 3 -7 34 -9 92 -6 93 4 105 8
82 22 -13 8 -12 10 3 10 12 0 17 -8 17 -25z"/>
<path d="M970 2724 c0 -3 7 -12 15 -20 8 -8 12 -21 9 -29 -3 -7 -1 -22 5 -32
10 -17 11 -17 17 4 4 13 11 20 20 16 29 -11 12 15 -26 41 -22 14 -40 24 -40
20z"/>
<path d="M1277 2843 c-2 -21 0 -42 4 -47 5 -6 9 3 9 21 0 17 3 38 6 47 3 9 2
16 -4 16 -5 0 -12 -17 -15 -37z"/>
<path d="M1302 2790 c0 -19 2 -27 5 -17 2 9 2 25 0 35 -3 9 -5 1 -5 -18z"/>
<path d="M1482 2825 c0 -16 2 -22 5 -12 2 9 2 23 0 30 -3 6 -5 -1 -5 -18z"/>
<path d="M1343 2313 c9 -2 23 -2 30 0 6 3 -1 5 -18 5 -16 0 -22 -2 -12 -5z"/>
<path d="M1580 2300 c0 -5 -8 -7 -17 -4 -17 5 -17 5 -1 -8 11 -9 19 -38 23
-85 8 -81 10 -83 107 -83 l57 0 -2 87 -3 88 -39 7 c-59 10 -125 9 -125 -2z"/>
<path d="M2243 2163 c9 -2 23 -2 30 0 6 3 -1 5 -18 5 -16 0 -22 -2 -12 -5z"/>
<path d="M2363 2153 c15 -2 37 -2 50 0 12 2 0 4 -28 4 -27 0 -38 -2 -22 -4z"/>
<path d="M2480 2072 c0 -5 14 -7 30 -4 17 2 30 6 30 8 0 2 -13 4 -30 4 -16 0
-30 -4 -30 -8z"/>
<path d="M2630 980 c0 -5 6 -10 13 -11 6 0 -1 -5 -18 -10 -16 -5 -36 -7 -42
-4 -15 5 -28 -37 -19 -60 4 -10 20 -15 50 -15 58 0 74 22 52 75 -14 32 -36 48
-36 25z"/>
<path d="M2576 852 c-3 -6 3 -12 15 -15 12 -3 19 -1 16 6 -5 15 -24 20 -31 9z"/>
<path d="M2133 1844 c0 -13 3 -21 8 -18 5 3 9 -1 9 -8 0 -9 3 -9 10 2 15 23
12 37 -9 43 -14 3 -18 -1 -18 -19z"/>
<path d="M2227 1854 c-14 -15 -6 -34 14 -34 14 0 19 5 17 17 -3 18 -20 27 -31
17z"/>
<path d="M1833 1779 c-1 -10 5 -19 13 -19 17 0 18 14 1 28 -10 8 -13 6 -14 -9z"/>
<path d="M1945 1770 c3 -5 16 -10 28 -10 18 0 19 2 7 10 -20 13 -43 13 -35 0z"/>
<path d="M1460 1661 c0 -11 4 -22 9 -25 4 -3 6 6 3 19 -5 30 -12 33 -12 6z"/>
<path d="M2145 1606 c-10 -7 -16 -19 -13 -27 3 -8 2 -24 -3 -37 -8 -22 -10
-22 -31 -8 -12 9 -33 16 -47 16 -21 0 -23 -3 -18 -33 4 -26 1 -36 -14 -45 -10
-7 -19 -19 -19 -28 0 -12 -6 -15 -24 -10 -34 8 -205 -43 -238 -72 -22 -18 -16
-27 32 -52 55 -28 91 -26 123 8 15 16 25 30 23 33 -7 6 34 8 61 3 42 -8 67
-91 41 -133 -16 -26 0 -45 65 -77 72 -37 96 -30 130 36 18 36 27 67 25 90 -3
30 -7 36 -33 40 -18 3 -35 15 -45 32 -13 25 -13 29 1 43 14 14 19 14 59 0 24
-8 51 -13 61 -10 41 13 30 145 -12 145 -13 0 -20 6 -18 18 1 9 1 30 0 46 -1
25 -4 28 -26 24 -14 -3 -25 -1 -25 3 0 14 -34 11 -55 -5z m44 -104 c-4 -2 -18
2 -31 9 l-23 13 25 6 c18 4 27 2 31 -9 4 -9 3 -17 -2 -19z m-159 -128 c0 -20
-17 -26 -24 -8 -3 8 -2 12 4 9 6 -3 10 -1 10 5 0 6 -7 13 -15 16 -8 4 -15 11
-15 17 0 5 9 2 20 -8 11 -10 20 -24 20 -31z m138 -55 c52 -51 52 -51 42 -90
-13 -46 -42 -79 -70 -79 -29 0 -110 42 -110 57 0 16 9 16 40 -2 14 -8 34 -14
46 -15 20 0 21 1 7 56 -13 52 -13 57 4 76 18 21 18 21 -5 7 -20 -12 -24 -12
-32 1 -5 8 -10 21 -10 28 0 26 37 10 88 -39z m-363 24 c34 -16 46 -33 24 -33
-15 0 -69 33 -69 42 0 11 5 10 45 -9z"/>
<path d="M3275 1631 c-3 -5 0 -13 6 -16 14 -10 99 4 99 16 0 12 -97 12 -105 0z"/>
<path d="M3210 1590 c-12 -8 -11 -10 8 -10 12 0 22 5 22 10 0 13 -11 13 -30 0z"/>
<path d="M4681 403 c-1 -7 -10 -13 -20 -13 -11 0 -22 -3 -24 -7 -7 -11 220 0
230 11 5 5 -30 6 -84 3 -68 -5 -93 -4 -96 6 -4 9 -6 9 -6 0z"/>
<path d="M4653 343 c9 -2 23 -2 30 0 6 3 -1 5 -18 5 -16 0 -22 -2 -12 -5z"/>
<path d="M1576 2798 c-10 -100 -16 -245 -11 -250 4 -3 15 -4 26 -1 13 4 19 14
19 34 0 16 -5 29 -11 29 -16 0 -2 152 14 162 9 5 8 8 -3 8 -13 0 -13 1 0 10
10 6 11 10 3 10 -7 0 -13 7 -13 16 0 9 5 12 11 8 7 -4 10 -1 7 7 -3 8 -12 15
-21 17 -12 2 -17 -8 -21 -50z"/>
<path d="M4010 2611 c0 -45 1 -47 53 -56 l37 -7 0 45 c0 42 -2 45 -31 51 -55
11 -59 9 -59 -33z"/>
<path d="M4113 2588 c4 -28 11 -56 17 -62 7 -7 10 -6 10 2 0 7 4 12 9 12 6 0
33 17 60 37 l50 38 -57 12 c-97 20 -96 21 -89 -39z"/>
<path d="M1622 2580 c0 -19 2 -27 5 -17 2 9 2 25 0 35 -3 9 -5 1 -5 -18z"/>
<path d="M2910 2430 c0 -5 4 -10 9 -10 6 0 13 5 16 10 3 6 -1 10 -9 10 -9 0
-16 -4 -16 -10z"/>
<path d="M3805 2251 c-10 -10 -4 -235 7 -246 10 -10 268 -37 293 -31 23 6 25
10 19 44 -3 20 -8 75 -12 122 l-7 84 -135 18 c-74 9 -136 15 -139 13 -9 -10 9
-16 88 -27 58 -9 76 -14 61 -20 -37 -13 -21 -27 40 -34 l60 -7 0 -62 0 -62
-50 5 c-27 2 -50 1 -50 -4 0 -5 14 -9 32 -9 17 0 33 -6 35 -12 3 -7 -2 -13
-11 -13 -9 0 -16 4 -16 9 0 5 -20 6 -44 4 -25 -3 -65 -2 -90 1 -54 8 -56 13
-65 143 -4 63 -9 91 -16 84z"/>
<path d="M3255 2219 c22 -4 54 -8 70 -8 26 0 27 2 10 9 -11 5 -42 8 -70 8
l-50 0 40 -9z"/>
<path d="M4240 1732 c0 -4 9 -8 19 -8 11 0 17 4 15 8 -3 4 -12 8 -20 8 -8 0
-14 -4 -14 -8z"/>
<path d="M4725 1710 c66 -22 79 -22 66 -1 -6 9 -31 16 -68 18 l-58 3 60 -20z"/>
<path d="M717 1643 c5 -12 2 -15 -10 -10 -9 3 -17 2 -17 -3 0 -6 6 -10 13 -10
21 0 40 17 33 29 -11 17 -26 13 -19 -6z"/>
<path d="M4205 1631 c-11 -5 -24 -6 -29 -3 -5 3 -6 0 -2 -6 4 -8 15 -8 36 0
17 5 30 12 30 14 0 6 -12 4 -35 -5z"/>
<path d="M4244 1616 c-18 -14 -18 -15 4 -13 12 1 22 7 22 14 0 16 -2 16 -26
-1z"/>
<path d="M4112 1308 c2 -15 11 -24 26 -26 18 -3 22 1 22 22 0 21 -5 26 -26 26
-21 0 -25 -4 -22 -22z"/>
<path d="M1100 1210 c0 -13 5 -20 13 -17 6 2 12 10 12 17 0 7 -6 15 -12 18 -8
2 -13 -5 -13 -18z"/>
<path d="M1410 1013 c0 -10 -3 -27 -6 -38 -4 -17 -1 -21 20 -20 32 2 44 13 22
21 -25 9 -19 26 7 18 25 -7 23 -5 -15 19 -27 17 -28 17 -28 0z"/>
<path d="M2180 967 c0 -4 20 -35 45 -69 25 -34 45 -58 45 -53 -1 11 -90 132
-90 122z"/>
<path d="M456 945 c-3 -8 -1 -15 4 -15 13 0 22 18 11 24 -5 3 -11 -1 -15 -9z"/>
<path d="M936 864 c-3 -9 -6 -31 -6 -49 0 -27 5 -34 27 -39 28 -8 43 5 43 37
0 14 -5 17 -20 12 -27 -9 -25 9 3 28 16 12 18 16 7 16 -9 1 -22 -5 -29 -11
-11 -11 -13 -10 -8 5 8 21 -9 23 -17 1z"/>
<path d="M1100 716 c0 -17 14 -29 23 -20 8 8 -3 34 -14 34 -5 0 -9 -6 -9 -14z"/>
<path d="M1139 717 c6 -8 8 -16 6 -19 -3 -3 6 -13 20 -22 l25 -16 -12 27 c-13
29 -26 43 -42 43 -5 0 -3 -6 3 -13z"/>
<path d="M1066 664 c-5 -18 -3 -30 6 -35 32 -21 58 -1 33 25 -9 8 -15 19 -15
23 1 4 -3 9 -8 11 -5 1 -13 -9 -16 -24z"/>
<path d="M3900 345 c0 -22 4 -25 40 -25 l40 0 0 -52 0 -51 153 8 c83 4 167 7
185 6 31 -2 32 0 32 39 0 47 -24 65 -46 35 -13 -18 -14 -18 -14 5 l0 23 -140
-6 -140 -5 0 24 c0 22 -4 24 -55 24 -52 0 -55 -1 -55 -25z m305 -75 c-3 -5
-42 -10 -86 -10 -51 0 -78 4 -74 10 3 6 42 10 86 10 51 0 78 -4 74 -10z"/>
<path d="M4365 260 c3 -5 13 -10 21 -10 8 0 14 5 14 10 0 6 -9 10 -21 10 -11
0 -17 -4 -14 -10z"/>
<path d="M4165 209 c-88 -5 -166 -11 -172 -14 -15 -5 -17 -147 -3 -180 6 -15
9 -16 9 -4 1 18 53 24 284 36 96 5 127 3 127 -6 0 -7 -4 -10 -8 -7 -4 2 -81
-1 -171 -8 -89 -7 -176 -12 -192 -10 -16 2 -29 -1 -29 -6 0 -5 90 -9 208 -10
l207 -1 -3 98 c-2 54 -5 104 -7 111 -5 13 -10 13 -250 1z"/>
</g>
</svg>
