<?xml version="1.0" standalone="no"?>
<!DOCTYPE svg PUBLIC "-//W3C//DTD SVG 20010904//EN"
 "http://www.w3.org/TR/2001/REC-SVG-20010904/DTD/svg10.dtd">
<svg version="1.0" xmlns="http://www.w3.org/2000/svg"
 width="1129.000000pt" height="847.000000pt" viewBox="0 0 1129.000000 847.000000"
 preserveAspectRatio="xMidYMid meet">
<metadata>
Created by potrace 1.16, written by Peter Selinger 2001-2019
</metadata>
<g transform="translate(0.000000,847.000000) scale(0.100000,-0.100000)"
fill="#000000" stroke="none">
<path d="M0 5525 l0 -2944 77 -3 c68 -3 78 -5 82 -23 3 -17 1 -18 -13 -6 -11
9 -28 11 -58 5 -24 -4 -35 -9 -26 -11 19 -5 51 -50 43 -62 -3 -5 -27 -17 -55
-27 l-50 -18 0 -628 0 -628 69 0 c39 0 73 4 76 10 3 5 35 10 71 10 64 0 65 0
71 30 5 29 8 30 57 31 28 0 45 3 39 6 -7 2 -13 14 -13 25 0 15 5 18 20 13 14
-5 20 -2 20 9 0 13 14 16 75 16 71 0 75 -1 81 -25 6 -24 9 -25 84 -25 72 0 79
2 94 25 9 14 35 39 58 56 31 22 42 37 43 57 0 23 5 27 33 30 26 3 32 8 32 27
0 23 17 35 47 35 28 0 93 -33 93 -47 0 -8 13 -13 33 -13 31 0 34 3 43 42 l9
43 80 6 c92 8 129 20 147 49 18 28 45 25 55 -6 l9 -26 47 51 c26 28 54 51 62
51 8 0 15 5 15 10 0 6 32 11 73 12 l72 2 -68 5 c-37 3 -67 9 -67 14 0 4 0 16
0 27 0 18 7 20 61 20 46 0 65 -4 74 -17 13 -18 35 -10 35 13 0 8 9 14 20 14
11 0 20 7 20 15 0 32 33 55 79 55 37 0 49 5 73 32 26 30 29 31 54 17 23 -12
27 -11 39 4 7 9 17 17 24 17 6 0 11 7 11 16 0 16 36 54 51 54 4 0 9 -10 11
-23 3 -20 9 -22 71 -25 63 -3 68 -2 77 22 10 27 29 35 75 31 22 -1 33 4 42 19
10 18 12 18 13 4 0 -15 10 -18 69 -18 68 0 69 0 75 31 4 24 1 35 -19 55 -14
14 -23 29 -20 33 2 5 27 11 55 15 l50 7 2 69 c0 39 1 76 2 83 1 6 -9 16 -21
22 -12 5 -24 20 -26 33 -4 19 1 26 25 34 32 12 33 28 0 43 -19 8 -22 18 -22
72 l0 63 -32 0 c-18 0 -40 5 -48 10 -10 6 -11 10 -3 10 7 0 15 11 19 25 4 16
13 25 25 25 15 0 19 7 19 35 0 30 3 35 23 35 32 0 37 7 23 35 -15 33 -46 33
-46 1 0 -32 -9 -37 -53 -29 -43 7 -48 20 -12 29 32 8 32 30 0 38 -18 5 -25 13
-25 30 0 25 17 36 55 36 34 0 41 18 11 30 -14 5 -26 14 -26 20 0 5 -9 10 -20
10 -11 0 -20 5 -20 11 0 5 -4 8 -9 4 -17 -10 -59 17 -64 41 -2 13 0 24 5 24 5
0 6 5 3 10 -8 14 -118 13 -132 -1 -6 -6 -16 -8 -23 -4 -8 5 -6 11 7 20 14 11
16 16 5 26 -19 20 -15 33 16 46 23 10 141 32 178 33 6 0 25 14 42 30 24 22 41
30 69 30 22 0 48 9 63 20 14 11 33 20 43 20 25 0 21 25 -5 26 -13 1 -96 3
-185 4 -135 2 -163 5 -163 17 0 7 17 21 38 29 63 25 75 31 137 60 33 16 62 32
63 36 2 4 9 8 15 8 7 0 18 4 26 9 12 8 12 12 2 25 -11 13 -9 16 16 23 46 13
381 9 472 -5 99 -15 488 -20 736 -10 161 7 250 2 390 -21 33 -5 145 -17 250
-26 154 -13 214 -15 325 -6 74 6 245 13 379 16 188 4 268 10 344 25 115 23
148 25 165 8 18 -18 14 -46 -6 -53 -25 -7 -42 -69 -35 -128 4 -33 17 -64 39
-95 18 -26 41 -61 50 -79 10 -18 30 -37 47 -43 33 -11 30 -13 106 57 25 24 56
43 69 43 12 0 22 4 22 9 0 5 16 15 36 21 20 7 50 24 67 39 18 16 41 31 52 34
51 15 98 35 104 45 3 5 33 18 66 27 33 9 67 24 75 33 8 10 27 25 43 35 15 9
27 27 27 38 0 33 29 79 57 90 21 8 24 14 21 39 -4 28 -3 29 33 25 30 -3 39 0
44 14 4 13 13 17 30 14 18 -4 24 -1 25 13 2 76 4 79 53 82 41 3 47 1 47 -17 0
-11 -15 -32 -34 -46 -40 -30 -51 -61 -27 -74 25 -14 236 -41 314 -41 59 0 68
2 58 14 -10 12 -8 17 8 25 11 6 32 11 48 11 15 0 66 5 112 12 l85 12 -70 13
c-110 21 -114 23 -114 39 0 8 17 22 37 30 39 17 119 16 468 -6 83 -5 197 -12
254 -15 139 -8 241 -35 241 -65 0 -4 -22 -10 -48 -13 -26 -3 -68 -14 -92 -23
l-45 -18 101 -16 c106 -17 115 -21 152 -54 24 -21 26 -21 645 -18 342 2 804 7
1027 13 l405 9 27 30 c15 16 32 48 38 71 10 37 8 48 -15 103 -30 70 -26 98 21
135 60 47 152 5 155 -71 3 -70 5 -87 11 -94 9 -8 188 -28 194 -21 3 3 12 33
20 67 8 34 23 75 35 91 23 33 76 47 109 29 27 -15 50 -68 50 -117 0 -21 4 -43
8 -49 4 -6 47 -14 97 -18 49 -4 93 -10 97 -12 10 -6 10 -74 2 -138 -6 -42 -11
-49 -43 -64 -20 -9 -47 -17 -61 -17 -75 -4 -80 -6 -80 -21 0 -10 6 -14 14 -11
7 3 25 -1 39 -8 21 -11 26 -11 31 1 7 19 36 6 36 -16 0 -12 9 -20 22 -22 39
-5 48 -45 54 -230 5 -183 2 -171 59 -247 18 -25 99 -101 107 -101 5 0 8 1296
8 2880 l0 2880 -1630 0 c-896 0 -1630 -2 -1630 -5 0 -3 7 -13 15 -22 36 -42
85 -111 106 -150 12 -24 26 -43 30 -43 4 0 37 -44 73 -97 82 -121 151 -222
171 -248 71 -92 105 -140 105 -146 0 -7 120 -130 179 -183 40 -36 51 -63 51
-125 0 -35 5 -53 20 -66 11 -10 20 -24 20 -30 0 -7 7 -18 15 -25 9 -7 49 -63
90 -125 40 -61 81 -117 89 -124 9 -8 16 -18 16 -23 0 -5 18 -33 40 -63 22 -30
40 -57 40 -60 0 -5 73 -109 105 -150 9 -11 33 -45 53 -76 103 -156 193 -288
221 -323 17 -21 31 -43 31 -47 0 -5 20 -35 45 -68 24 -32 49 -69 55 -82 5 -13
30 -51 55 -84 25 -33 94 -134 154 -225 60 -91 116 -172 124 -181 8 -9 34 -48
57 -85 22 -38 56 -89 75 -114 18 -25 34 -50 34 -56 1 -6 10 -22 20 -35 47 -61
87 -140 93 -184 2 -25 -1 -31 -21 -33 -15 -2 -28 3 -33 12 -6 11 -23 16 -53
16 -38 0 -45 -3 -45 -19 0 -46 -31 -70 -44 -35 -5 14 -9 14 -33 0 -16 -8 -37
-18 -48 -22 -15 -5 -7 -9 35 -18 39 -8 56 -16 58 -28 3 -16 -5 -18 -71 -18
-57 0 -76 4 -81 15 -4 11 -21 15 -66 15 -51 0 -60 3 -60 18 0 10 -5 23 -10 28
-15 15 -132 -2 -147 -22 -6 -9 -17 -13 -23 -9 -14 8 -40 -12 -40 -32 0 -11 7
-13 30 -8 20 4 30 3 30 -6 0 -8 -12 -10 -39 -6 -35 4 -43 1 -72 -29 -18 -19
-40 -34 -48 -34 -24 0 -60 -60 -59 -97 1 -18 -4 -38 -10 -46 -6 -7 -14 -32
-18 -55 -4 -24 -14 -47 -23 -51 -9 -5 -95 -12 -191 -16 -96 -4 -178 -12 -181
-17 -3 -5 -17 -11 -30 -13 -70 -12 -111 -24 -128 -39 -9 -9 -26 -16 -37 -16
-11 0 -30 -7 -43 -16 -12 -9 -60 -27 -105 -39 -46 -13 -92 -29 -104 -36 -17
-11 -24 -11 -34 -1 -16 16 -39 15 -77 -4 -22 -11 -44 -14 -71 -9 -27 5 -49 2
-71 -9 -18 -9 -38 -16 -44 -16 -25 0 -63 -41 -68 -72 -7 -43 -71 -280 -79
-294 -4 -6 -12 -40 -18 -77 -5 -36 -13 -74 -17 -83 -3 -9 -11 -47 -17 -83 -10
-62 -13 -66 -36 -64 -14 1 -65 4 -115 7 -160 10 -407 27 -535 38 -169 14 -169
14 -200 -19 -56 -58 -90 -82 -130 -93 -23 -6 -47 -21 -56 -35 -9 -14 -25 -25
-35 -25 -28 0 -69 -22 -69 -37 0 -7 -11 -13 -25 -13 -29 0 -32 18 -7 46 9 11
22 29 28 40 9 14 21 18 48 16 31 -2 36 0 36 18 0 15 -6 20 -25 20 -21 0 -24 3
-17 17 8 13 4 21 -15 36 -22 18 -24 26 -21 81 3 60 3 61 -24 64 -26 3 -28 6
-28 53 0 43 3 49 20 49 11 0 23 -7 26 -15 4 -9 19 -15 40 -15 35 0 46 13 19
24 -8 3 -15 14 -15 25 0 26 -32 43 -73 39 -27 -2 -31 -7 -29 -25 6 -45 -43
-86 -63 -53 -11 17 -27 11 -21 -8 4 -11 -1 -25 -11 -34 -31 -27 -77 -29 -140
-6 -83 29 -248 21 -388 -18 -69 -20 -123 -29 -175 -29 l-75 0 -43 -44 -42 -44
-80 5 c-101 6 -114 17 -71 57 39 36 92 53 164 51 47 -2 114 15 127 31 3 3 20
14 37 23 66 33 102 63 91 74 -14 14 -1 32 23 32 12 0 17 4 13 11 -4 7 -21 9
-40 6 -36 -6 -56 9 -33 24 8 5 34 9 58 9 40 0 43 -2 37 -24 -8 -31 2 -38 30
-20 13 9 32 13 44 9 25 -8 27 11 3 38 -17 19 -17 20 8 14 14 -4 53 -1 88 6 59
12 61 14 43 30 -17 15 -23 15 -81 1 -35 -9 -66 -12 -70 -8 -3 5 -40 9 -82 9
-71 0 -79 2 -121 35 -25 19 -44 38 -42 42 2 4 0 9 -6 13 -5 3 -10 -1 -10 -9 0
-27 -46 -24 -95 6 -21 12 -42 17 -54 13 -11 -3 -30 0 -43 8 -13 8 -40 18 -60
21 -30 6 -38 4 -38 -9 0 -8 7 -15 15 -15 23 0 35 -31 18 -48 -20 -21 -143 -4
-143 19 0 5 6 9 14 9 18 0 31 39 18 52 -15 15 -30 2 -37 -32 -7 -31 -12 -34
-39 -24 -13 5 -14 9 -5 20 12 15 -1 19 -16 5 -6 -5 -28 -14 -50 -20 -48 -15
-81 -28 -115 -47 -14 -7 -36 -19 -50 -25 -14 -6 -33 -15 -42 -20 -10 -5 -24
-9 -33 -9 -8 0 -40 -14 -72 -31 -31 -17 -84 -35 -117 -40 -34 -5 -76 -16 -93
-25 -18 -8 -47 -21 -65 -28 -18 -7 -66 -30 -105 -50 -55 -27 -85 -36 -123 -36
-42 0 -50 -3 -50 -19 0 -10 -11 -26 -25 -35 -22 -14 -34 -15 -87 -6 -33 6 -73
21 -89 32 -16 12 -35 18 -44 14 -25 -9 -13 -27 31 -45 63 -26 68 -30 49 -51
-9 -10 -36 -20 -62 -23 -26 -3 -52 -12 -58 -21 -17 -23 -53 -20 -111 9 -57 28
-99 68 -89 84 3 6 31 11 61 11 30 0 54 2 54 3 0 2 -7 18 -16 36 -13 26 -20 30
-37 24 -30 -10 -65 -7 -81 6 -20 16 -20 219 -1 353 8 57 15 135 15 174 0 73
15 104 51 104 8 0 38 22 67 50 44 42 59 50 90 50 21 0 46 6 57 13 29 19 118
37 184 37 32 0 83 5 112 10 121 24 403 10 617 -31 57 -10 122 -19 145 -19 49
0 182 24 247 44 45 15 225 48 355 67 38 5 74 14 79 19 6 6 57 10 116 10 113 0
185 14 176 33 -3 7 -9 20 -12 29 -5 15 -58 38 -87 38 -5 0 -25 7 -44 17 -33
15 -38 15 -84 -1 -28 -10 -57 -15 -70 -11 -24 8 -136 -13 -145 -26 -7 -13
-271 -11 -279 1 -4 7 -12 7 -25 0 -26 -14 -66 -12 -82 3 -9 10 -34 12 -83 10
-39 -3 -74 -5 -80 -5 -5 0 -33 3 -61 7 -49 7 -52 6 -58 -19 -6 -26 -20 -34
-31 -17 -3 5 -36 12 -73 15 -104 10 -212 28 -218 37 -3 5 -13 9 -23 9 -10 0
-21 9 -24 19 -3 11 -17 22 -37 26 -20 4 -51 26 -77 53 l-45 46 -90 -2 c-50 -1
-94 -4 -98 -7 -18 -11 -22 19 -5 32 17 12 17 13 2 13 -9 0 -17 -4 -17 -10 0
-16 -23 -12 -76 15 -27 14 -59 25 -71 25 -13 0 -23 5 -23 10 0 6 31 10 72 10
52 0 76 4 90 17 15 13 23 14 43 5 13 -6 48 -14 76 -18 52 -7 52 -7 37 14 -8
12 -26 30 -40 42 -21 16 -27 31 -33 82 -9 94 -27 171 -42 189 -19 22 -17 26
20 46 27 14 66 17 242 19 219 3 256 -2 470 -60 55 -15 198 -13 327 5 43 5 197
10 342 11 286 0 293 2 280 52 -12 49 -13 49 -376 51 -270 2 -342 5 -348 15 -7
12 -43 12 -212 1 -186 -11 -207 -11 -248 5 -77 29 -266 57 -292 43 -21 -11
-138 5 -177 25 -15 8 -53 19 -85 25 -33 6 -67 18 -77 27 -22 20 -39 11 -39
-20 0 -16 7 -26 23 -30 19 -5 20 -8 6 -16 -21 -12 -100 27 -107 53 -4 16 -11
19 -48 14 -24 -2 -44 -1 -44 4 0 5 5 9 10 9 6 0 10 5 10 10 0 6 -6 10 -12 9
-37 -4 -82 29 -72 54 4 11 -4 21 -25 32 -28 14 -30 18 -20 37 23 43 74 85 109
91 19 4 58 10 87 15 54 9 93 34 93 60 0 10 7 12 25 8 17 -4 25 -2 25 6 0 22
-14 36 -40 39 -24 4 -25 7 -22 65 3 49 0 63 -13 68 -13 4 -16 19 -14 73 2 105
-8 183 -26 204 -12 12 -20 46 -25 101 -17 188 -42 384 -51 400 -5 10 -9 31 -9
47 0 16 -5 42 -10 57 -7 18 -7 31 -1 37 6 6 7 17 2 26 -5 9 -16 70 -25 136 -9
66 -21 145 -26 175 -5 30 -14 105 -20 165 -6 61 -17 148 -25 195 -8 47 -15
112 -16 145 0 33 -8 110 -17 170 l-17 110 -322 3 -321 2 -5 -47 c-7 -61 -21
-131 -34 -163 -6 -14 -20 -99 -32 -190 -12 -91 -29 -187 -37 -213 -8 -26 -20
-101 -26 -165 -6 -64 -16 -139 -22 -167 l-12 -50 -60 -5 c-41 -4 -78 -15 -120
-38 -33 -18 -67 -30 -75 -27 -13 5 -23 19 -76 111 -25 45 -32 95 -88 624 -37
359 -31 330 -71 330 -41 0 -40 12 -19 -200 34 -368 37 -450 14 -450 -16 0 -40
46 -64 125 -14 44 -30 90 -35 103 -6 12 -14 32 -20 45 -5 12 -25 67 -44 122
-90 265 -86 255 -112 255 -13 0 -24 -5 -24 -11 0 -12 63 -197 80 -234 5 -11
16 -42 24 -70 8 -27 30 -90 50 -140 20 -49 36 -95 36 -100 0 -20 70 -156 99
-193 41 -52 65 -147 82 -327 6 -66 19 -192 30 -280 19 -147 24 -207 48 -500 8
-102 21 -209 47 -395 21 -158 21 -199 -5 -242 -29 -49 -37 -134 -23 -246 7
-48 17 -143 23 -212 6 -69 15 -133 21 -142 15 -30 47 -22 63 16 16 37 11 96
-31 399 -20 139 -18 152 30 175 22 11 26 19 22 40 -21 109 -21 109 23 140 22
16 55 35 72 43 30 12 37 11 88 -17 31 -17 62 -41 68 -55 7 -13 13 -58 13 -100
0 -41 5 -101 11 -133 7 -42 7 -66 -1 -92 -10 -30 -9 -38 5 -54 9 -10 18 -36
20 -58 2 -22 9 -77 15 -123 6 -46 15 -122 21 -168 5 -47 14 -103 20 -126 6
-23 9 -55 7 -71 l-3 -29 -115 3 c-63 1 -157 5 -207 8 -82 5 -94 4 -100 -12 -4
-12 1 -23 18 -36 13 -10 29 -22 36 -28 15 -12 30 -13 35 -1 2 5 82 12 179 15
141 5 179 4 187 -7 16 -19 23 -262 8 -281 -9 -11 -23 -12 -71 -5 -71 11 -193
3 -253 -17 -23 -8 -47 -12 -53 -9 -19 13 -59 -5 -59 -25 0 -17 7 -20 43 -20
23 0 67 7 97 15 33 9 100 15 167 15 97 0 114 -2 122 -18 6 -12 5 -25 -5 -42
-19 -36 -18 -60 5 -60 33 0 34 -5 28 -140 -2 -56 -9 -89 -30 -132 -34 -72 -86
-128 -119 -128 -20 0 -27 -7 -34 -32 -11 -37 -22 -43 -48 -23 -25 19 -9 67 25
75 20 5 25 13 30 55 5 46 12 69 42 132 17 38 1 37 -42 -2 -30 -27 -41 -45 -41
-66 0 -16 -12 -51 -27 -79 -27 -48 -29 -50 -73 -50 -73 0 -92 -28 -34 -50 31
-12 31 -40 -1 -74 -22 -24 -23 -28 -10 -58 7 -18 21 -35 32 -36 33 -7 37 -21
10 -33 -38 -17 -34 -39 7 -39 36 0 86 32 86 56 0 7 9 19 20 26 11 7 20 20 20
29 0 12 6 16 20 12 17 -5 20 0 20 27 0 26 11 45 48 84 53 56 107 153 118 211
4 26 14 39 30 45 21 8 22 13 14 35 -6 15 -10 52 -10 84 0 32 -7 77 -15 100
l-14 41 35 0 c39 0 70 -14 164 -75 58 -37 93 -52 195 -82 29 -9 30 -11 27 -63
-1 -30 -8 -71 -14 -90 -16 -49 -17 -245 -1 -261 15 -15 17 -67 4 -87 -4 -8
-16 -12 -27 -10 -11 2 -20 -4 -22 -15 -3 -13 2 -16 19 -15 17 2 26 -4 33 -25
12 -33 1 -56 -35 -73 -13 -6 -40 -19 -59 -28 -27 -12 -62 -16 -148 -14 -62 1
-116 6 -119 11 -8 13 39 52 92 77 32 15 36 18 17 19 -13 1 -35 -5 -50 -13 -51
-26 -161 -48 -210 -42 -84 11 -133 6 -219 -21 -57 -18 -72 -37 -48 -63 11 -12
12 -19 3 -28 -8 -8 -8 -23 2 -56 13 -47 4 -75 -24 -76 -22 -1 -68 -47 -65 -66
8 -44 7 -44 -401 -44 -260 0 -398 4 -417 11 l-28 11 25 12 c17 7 123 11 328
12 289 0 304 1 323 20 18 19 19 23 5 56 -9 20 -19 99 -26 189 -17 253 -48 593
-86 939 -8 74 -18 178 -24 230 -5 52 -14 133 -20 180 -6 47 -15 130 -21 185
-5 55 -16 161 -24 235 -7 74 -23 227 -34 340 -11 113 -28 268 -36 345 -9 77
-20 194 -25 260 -6 66 -14 154 -20 195 -9 72 -12 99 -25 270 -3 41 -10 118
-15 170 -5 52 -14 154 -20 225 -6 72 -18 198 -25 280 -8 83 -16 175 -18 205
-2 30 -11 107 -21 170 -9 63 -21 143 -25 177 -14 91 -29 118 -69 117 -28 -2
-32 1 -32 22 l0 24 -1170 0 -1170 0 0 -2945z m1718 2915 c2 -13 -12 -15 -94
-14 -93 2 -147 13 -68 15 21 0 57 4 79 9 54 11 79 8 83 -10z m596 -147 c8 -26
32 -248 76 -688 34 -349 41 -419 56 -547 16 -148 18 -234 4 -243 -5 -3 -20 11
-33 32 -42 65 -52 70 -160 75 -56 3 -103 10 -110 17 -18 18 -19 828 -1 856 14
22 120 395 139 488 6 31 21 36 29 10z m-844 -394 c0 -42 -13 -51 -30 -20 -11
22 -13 64 -3 74 14 14 33 -17 33 -54z m50 -469 c0 -10 5 -22 10 -25 6 -3 10
-20 10 -36 0 -23 -4 -30 -17 -27 -20 4 -34 50 -26 89 6 31 23 30 23 -1z m1742
-611 c20 -27 47 -202 35 -233 -4 -9 -27 -25 -51 -36 -24 -10 -49 -27 -54 -36
-13 -24 -130 -38 -151 -19 -8 8 -17 51 -22 107 -5 51 -14 105 -20 120 -6 15
-7 37 -3 50 4 13 7 26 6 31 -3 11 11 8 32 -8 16 -12 23 -11 55 3 20 9 47 25
60 35 35 25 89 19 113 -14z m-1675 -160 c28 -10 31 -18 23 -54 l-7 -30 -7 26
c-6 21 -16 28 -49 35 -28 6 -43 15 -45 28 -3 16 0 17 30 11 18 -4 43 -11 55
-16z m103 -663 c0 -30 -4 -35 -30 -41 -34 -8 -60 7 -60 34 0 26 21 41 57 41
31 0 33 -2 33 -34z m80 -126 c0 -5 -7 -10 -15 -10 -8 0 -15 5 -15 10 0 6 7 10
15 10 8 0 15 -4 15 -10z m10 -74 c0 -9 -7 -12 -20 -9 -11 3 -20 9 -20 14 0 5
9 9 20 9 11 0 20 -6 20 -14z m48 -43 c3 -21 -1 -23 -37 -23 -45 0 -49 5 -24
32 22 25 57 19 61 -9z m1966 -411 c18 -57 19 -64 4 -78 -15 -15 -17 -14 -31
12 -16 33 -30 118 -20 128 15 14 28 -4 47 -62z m6476 -238 c0 -8 -9 -14 -21
-14 -15 0 -19 4 -15 16 3 9 6 20 6 26 0 6 6 6 15 -2 8 -7 15 -19 15 -26z
m-6643 -198 c4 -7 41 -28 82 -46 56 -24 94 -33 155 -37 90 -6 109 -17 126 -68
9 -26 8 -45 -5 -89 -15 -52 -19 -56 -46 -56 -40 0 -147 38 -184 64 -35 26
-161 99 -188 109 -15 6 -17 16 -15 64 3 51 6 58 28 64 37 10 38 10 47 -5z
m6566 -66 c65 -51 28 -188 -65 -236 -39 -20 -101 -18 -129 5 -20 16 -24 28
-23 69 4 129 135 226 217 162z m351 -23 c16 -12 27 -28 62 -93 23 -44 13 -79
-27 -93 -80 -28 -139 2 -139 69 0 39 16 96 33 118 12 16 48 16 71 -1z m-820
-32 c9 -14 16 -45 16 -74 0 -42 -5 -56 -31 -86 -18 -20 -45 -43 -60 -51 -31
-15 -85 -19 -93 -5 -6 9 23 117 45 166 32 75 91 99 123 50z m-715 -271 c10 -9
-13 -116 -31 -139 -30 -38 -62 -31 -66 15 -4 42 13 103 34 125 14 13 47 13 63
-1z m155 0 c3 -9 -4 -45 -16 -80 -18 -54 -26 -64 -43 -62 -18 3 -20 9 -17 67
1 35 7 70 13 77 16 19 56 17 63 -2z m-343 -21 c6 -72 -20 -148 -53 -159 -60
-19 -78 38 -42 134 15 40 18 42 55 42 30 0 39 -4 40 -17z m-219 -19 c16 -34 1
-108 -27 -134 -40 -38 -105 -24 -105 23 0 37 24 102 45 119 29 24 74 20 87 -8z
m-257 -21 c23 -23 12 -90 -20 -123 -22 -21 -27 -23 -39 -10 -21 21 -10 137 13
143 28 8 29 7 46 -10z m-5645 -103 c0 -32 -4 -61 -9 -64 -11 -7 -20 59 -14
101 8 52 23 27 23 -37z m7837 -22 c19 -19 27 -77 18 -133 -5 -34 -16 -57 -44
-86 -35 -38 -41 -40 -87 -37 -47 3 -50 5 -73 49 l-24 45 18 57 c13 41 29 67
58 93 35 32 44 36 80 31 22 -3 46 -12 54 -19z m-448 -29 c32 -53 35 -93 9
-146 -13 -25 -35 -55 -49 -65 -55 -41 -151 -31 -170 19 -15 39 -11 119 6 133
8 7 15 18 15 25 0 7 14 25 31 39 25 21 41 26 85 26 50 0 56 -2 73 -31z m822
-16 c39 -64 57 -106 51 -121 -10 -28 -82 -92 -102 -92 -82 0 -114 121 -58 217
16 27 26 33 53 33 27 0 37 -6 56 -37z m-1320 14 c39 -30 49 -87 28 -160 -9
-33 -14 -38 -32 -34 -12 3 -43 9 -70 12 -26 4 -49 10 -52 14 -4 7 12 143 20
169 6 16 85 15 106 -1z m-857 -159 c15 -23 16 -92 1 -137 -6 -20 -11 -22 -48
-16 -48 8 -57 18 -57 61 0 48 26 102 52 107 13 2 26 5 30 6 4 0 14 -9 22 -21z
m192 -13 c15 -62 -60 -91 -81 -31 -8 24 -6 31 13 46 27 23 60 15 68 -15z
m-412 3 c22 -31 20 -70 -5 -118 -17 -33 -26 -40 -51 -40 -47 0 -68 16 -68 53
0 48 19 105 38 116 30 18 70 13 86 -11z m560 9 c17 -12 17 -14 1 -27 -19 -16
-48 -3 -53 24 -4 20 26 22 52 3z m-805 -49 c14 -25 14 -30 -6 -65 -12 -21 -28
-38 -35 -38 -14 0 -32 99 -23 123 8 22 48 9 64 -20z m-4263 -136 c5 -4 29 -28
53 -54 53 -59 46 -76 -32 -76 -61 0 -81 12 -67 38 6 10 10 34 10 53 0 44 11
56 36 39z m5972 -165 c3 -31 0 -37 -16 -37 -23 0 -47 25 -62 64 -15 39 4 51
45 28 23 -14 31 -26 33 -55z m-6191 -48 l28 -11 -25 -10 c-30 -12 -354 -13
-372 -1 -41 25 307 46 369 22z m2941 -17 c2 -7 -7 -12 -23 -12 -24 0 -26 2
-15 15 14 17 31 16 38 -3z m-3333 -2 c4 -6 -22 -10 -69 -10 -44 0 -76 4 -76
10 0 6 30 10 69 10 39 0 73 -4 76 -10z m1925 -10 c91 -11 166 -20 168 -20 1 0
7 -11 12 -25 7 -19 23 -28 67 -40 32 -9 69 -20 83 -25 14 -4 54 -14 90 -20 60
-11 100 -36 100 -60 0 -16 -63 -40 -104 -40 -23 0 -75 -9 -116 -20 -41 -11
-98 -20 -125 -20 -28 0 -66 -5 -85 -10 -63 -19 -1041 -30 -1102 -13 l-28 8 23
29 23 29 335 2 c184 2 346 6 362 10 20 5 27 13 27 31 0 13 5 25 10 25 19 3 25
5 47 17 12 7 85 14 175 17 164 7 183 9 173 25 -4 6 -56 10 -123 10 -71 0 -139
6 -172 15 -30 8 -72 15 -92 15 -49 0 -68 9 -68 30 0 23 61 49 115 49 22 1 114
-8 205 -19z m-1880 -66 c25 -8 69 -14 98 -14 56 0 97 -14 87 -31 -4 -5 -105
-9 -246 -9 -200 0 -239 2 -239 14 0 21 56 46 104 47 23 0 59 4 81 8 22 5 47 6
55 4 8 -3 35 -11 60 -19z m1453 -1 c4 -3 28 -14 53 -22 25 -9 47 -20 48 -26 1
-12 -171 -19 -214 -8 -39 10 -40 23 -4 45 29 17 105 24 117 11z m-655 -42 c-3
-14 -32 -16 -282 -14 -153 1 -280 4 -284 7 -3 4 0 12 7 19 9 9 75 12 242 13
126 1 232 4 235 7 3 2 23 0 45 -6 28 -7 39 -14 37 -26z m-1956 -666 c-5 -28
-22 -24 -22 6 0 10 6 19 14 19 9 0 12 -8 8 -25z m-1735 1 c21 -21 -55 -30
-172 -21 -54 4 -93 11 -88 15 16 17 245 22 260 6z m343 -1396 c12 -8 9 -10
-12 -10 -16 0 -28 5 -28 10 0 13 20 13 40 0z"/>
<path d="M6457 7900 c-3 -13 -14 -20 -30 -20 -20 0 -30 -10 -51 -53 -81 -167
26 -388 232 -479 26 -11 63 -28 82 -38 52 -26 178 -48 325 -55 127 -7 129 -6
112 12 -9 11 -17 27 -17 36 0 9 -16 24 -35 33 -26 12 -34 21 -30 34 7 21 -34
54 -92 74 -24 8 -39 20 -41 32 -2 13 -18 25 -50 36 -26 10 -57 26 -69 38 -12
11 -27 20 -33 20 -13 0 -13 17 0 25 16 10 3 22 -30 28 -17 4 -30 13 -30 22 0
8 -12 18 -27 21 -34 9 -92 71 -93 100 0 11 -5 25 -12 32 -7 7 -12 24 -13 40 0
20 -6 28 -22 30 -13 2 -31 14 -42 28 -23 29 -27 30 -34 4z"/>
<path d="M4351 7365 c0 -11 4 -29 9 -40 l9 -20 0 20 c0 11 -4 29 -9 40 l-9 20
0 -20z"/>
<path d="M4372 7210 c-1 -19 3 -53 7 -75 l9 -40 0 50 c0 28 -4 61 -8 75 -7 23
-8 22 -8 -10z"/>
<path d="M4397 6952 c2 -53 11 -127 19 -164 8 -37 14 -86 15 -110 1 -24 5 -54
10 -68 5 -16 6 8 3 64 -4 49 -10 99 -15 110 -4 12 -11 74 -14 139 -4 64 -10
119 -15 122 -4 2 -5 -39 -3 -93z"/>
<path d="M7345 6990 c-8 -27 6 -52 24 -41 9 6 11 18 7 35 -8 31 -22 34 -31 6z"/>
<path d="M4450 6514 c0 -14 4 -23 9 -20 5 3 7 15 4 26 -7 28 -13 25 -13 -6z"/>
<path d="M4464 6330 c5 -102 10 -120 26 -120 6 0 7 33 4 78 -7 108 -13 142
-25 142 -7 0 -9 -34 -5 -100z"/>
<path d="M7088 4728 c-3 -21 -8 -23 -49 -20 -26 2 -50 -1 -54 -7 -3 -6 -1 -11
5 -11 6 0 9 -4 5 -9 -3 -5 -1 -12 5 -16 15 -9 12 -52 -5 -59 -8 -3 -30 1 -49
9 -20 8 -46 15 -58 15 -13 0 -60 9 -105 21 -124 33 -141 16 -73 -70 23 -28 38
-55 36 -60 -3 -5 6 -17 21 -26 24 -16 34 -17 83 -7 31 7 71 12 89 12 25 0 32
4 28 14 -11 27 19 36 118 35 110 -2 119 3 110 63 -4 28 -1 39 12 46 15 9 15
11 1 26 -9 8 -18 19 -20 23 -5 12 -64 43 -81 43 -9 0 -17 -10 -19 -22z"/>
<path d="M6920 4715 c0 -9 5 -15 11 -13 6 2 11 8 11 13 0 5 -5 11 -11 13 -6 2
-11 -4 -11 -13z"/>
<path d="M3071 4636 c-23 -28 12 -36 136 -34 67 2 116 6 109 11 -41 27 -227
44 -245 23z"/>
<path d="M3415 4610 c-4 -6 -14 -10 -23 -9 -40 4 -43 0 -25 -26 13 -17 28 -24
52 -25 30 0 33 2 27 23 -3 12 -6 28 -6 35 0 15 -16 16 -25 2z"/>
<path d="M3370 4525 c0 -8 5 -15 10 -15 6 0 10 7 10 15 0 8 -4 15 -10 15 -5 0
-10 -7 -10 -15z"/>
<path d="M5635 4470 c-4 -6 7 -10 24 -10 17 0 31 5 31 10 0 6 -11 10 -24 10
-14 0 -28 -4 -31 -10z"/>
<path d="M6344 4344 c3 -9 6 -18 6 -20 0 -2 7 -4 15 -4 18 0 19 12 3 28 -17
17 -31 15 -24 -4z"/>
<path d="M4253 4123 c9 -2 23 -2 30 0 6 3 -1 5 -18 5 -16 0 -22 -2 -12 -5z"/>
<path d="M3741 4024 c-19 -8 -32 -16 -29 -19 7 -7 128 18 128 27 0 13 -62 8
-99 -8z"/>
<path d="M7815 3499 c-47 -15 -273 -21 -465 -12 -146 7 -280 3 -260 -7 8 -4
261 -19 440 -26 135 -5 177 -3 228 10 35 9 76 16 90 16 39 0 73 11 66 21 -7
11 -60 10 -99 -2z"/>
<path d="M10077 3369 c-10 -6 -55 -9 -102 -7 -47 2 -85 -1 -85 -5 0 -14 263
-4 268 11 5 15 -55 16 -81 1z"/>
<path d="M10274 3369 c-2 -4 10 -9 27 -13 43 -8 59 -8 59 3 0 10 -80 20 -86
10z"/>
<path d="M10650 3350 c-30 -9 -14 -18 40 -22 27 -2 34 -7 32 -20 -2 -14 4 -18
28 -18 19 0 30 5 30 14 0 14 6 17 65 31 27 7 28 8 10 15 -25 11 -171 11 -205
0z"/>
<path d="M2266 3043 c-12 -12 -5 -23 14 -23 11 0 20 4 20 9 0 11 -26 22 -34
14z"/>
<path d="M4100 2840 c0 -5 7 -10 16 -10 8 0 12 5 9 10 -3 6 -10 10 -16 10 -5
0 -9 -4 -9 -10z"/>
<path d="M11140 2720 c0 -5 9 -10 21 -10 11 0 17 5 14 10 -3 6 -13 10 -21 10
-8 0 -14 -4 -14 -10z"/>
<path d="M11125 2688 c-4 -10 -14 -18 -22 -18 -8 0 -28 -7 -45 -16 -25 -13
-36 -14 -50 -5 -28 17 -135 14 -142 -4 -3 -8 -15 -15 -27 -15 -27 0 -101 -21
-113 -32 -6 -4 -17 -8 -25 -8 -9 0 -43 -14 -75 -30 -32 -17 -67 -30 -77 -30
-12 0 -19 -7 -19 -20 0 -11 -4 -20 -8 -20 -5 0 -14 -12 -21 -27 -10 -23 -9
-30 9 -55 20 -27 20 -78 -1 -78 -5 0 -9 -11 -9 -25 0 -25 -32 -51 -50 -40 -6
3 -10 36 -10 72 0 55 -2 64 -16 59 -9 -3 -20 -6 -25 -6 -5 0 -9 -30 -9 -66 0
-56 -3 -67 -19 -71 -11 -3 -22 -16 -26 -30 -4 -16 -11 -23 -20 -19 -11 4 -17
-5 -21 -35 -4 -22 -13 -43 -20 -46 -8 -3 -14 -17 -14 -32 0 -15 -9 -37 -21
-50 -11 -12 -18 -28 -15 -36 3 -9 -7 -18 -29 -26 -32 -12 -36 -18 -46 -69
l-11 -56 -70 0 c-46 1 -73 -3 -75 -11 -3 -8 8 -10 36 -6 54 7 111 -4 111 -22
0 -8 -6 -15 -14 -15 -8 0 -16 -7 -20 -15 -14 -37 -96 -40 -96 -4 0 11 -7 19
-15 19 -8 0 -15 5 -15 10 0 6 -7 10 -16 10 -11 0 -14 -5 -10 -16 4 -12 1 -14
-14 -9 -13 4 -20 2 -20 -7 0 -15 -45 -38 -76 -38 -34 0 -40 -30 -6 -31 l27 -1
-30 -8 c-16 -4 -52 -8 -80 -9 -50 -2 -92 -22 -81 -39 7 -12 -31 -52 -49 -52
-8 0 -15 -9 -15 -20 0 -11 -4 -20 -10 -20 -5 0 -10 11 -10 25 0 26 -1 26 -72
23 -67 -3 -73 -5 -76 -25 -3 -21 -9 -23 -67 -23 l-63 0 -6 -34 c-5 -28 -13
-37 -39 -45 -76 -24 -134 -12 -139 28 -3 23 -8 26 -49 29 l-47 3 -11 -49 c-7
-27 -11 -53 -10 -58 2 -5 0 -19 -5 -31 -7 -22 -12 -23 -130 -23 -67 0 -126 4
-132 9 -5 5 -70 12 -145 16 -134 7 -137 7 -144 -14 -4 -15 -15 -21 -36 -21
-16 0 -29 5 -29 10 0 6 -4 10 -10 10 -5 0 -10 -9 -10 -20 0 -11 -4 -20 -8 -20
-4 0 -9 -47 -10 -104 l-3 -105 28 -4 c15 -2 -24 -5 -87 -7 -63 -1 -122 -3
-130 -4 -8 -2 -32 -3 -52 -4 l-38 -2 0 -59 c0 -57 1 -60 28 -64 l27 -4 -27 -2
c-20 -1 -29 -8 -34 -26 -4 -18 -13 -25 -29 -25 -13 0 -25 -7 -29 -15 -8 -21
-104 -21 -112 0 -5 11 -23 15 -74 15 -60 0 -69 3 -75 20 -5 17 -15 20 -64 20
l-58 0 -6 -50 c-3 -28 -4 -57 -1 -64 3 -7 25 -16 50 -19 55 -6 58 -8 49 -46
-6 -30 -8 -31 -61 -31 -53 0 -54 0 -54 30 l0 30 -130 0 c-123 0 -130 -1 -130
-20 0 -18 7 -20 64 -20 l65 0 3 -32 c3 -33 3 -33 68 -38 l65 -6 -65 -6 c-36
-4 -96 -11 -135 -16 l-70 -9 63 -1 c80 -2 82 -22 2 -22 -33 0 -60 -3 -60 -7 0
-5 25 -6 56 -5 32 2 61 -1 67 -7 6 -6 41 -11 78 -11 l67 0 7 -40 7 -39 86 -3
c82 -3 87 -4 90 -25 2 -15 10 -23 23 -23 10 0 19 -5 19 -11 0 -28 30 -39 109
-39 65 0 81 -3 81 -15 0 -8 8 -15 18 -15 10 0 33 -15 51 -34 31 -32 32 -35 14
-45 -16 -9 -16 -12 -3 -21 8 -5 25 -10 36 -10 15 0 24 -8 28 -25 6 -22 12 -25
54 -25 34 0 54 6 70 20 25 24 32 25 32 5 0 -8 5 -15 10 -15 6 0 10 -7 10 -15
0 -8 9 -20 20 -27 11 -7 20 -18 20 -24 0 -30 64 -58 72 -32 3 8 16 6 44 -8 29
-14 39 -25 39 -43 0 -31 28 -49 49 -32 10 9 13 22 9 42 -3 18 -1 29 6 29 6 0
11 -7 11 -15 0 -8 5 -15 10 -15 6 0 10 -9 10 -20 0 -11 7 -23 15 -26 8 -4 15
-14 15 -24 0 -11 13 -24 30 -32 17 -7 30 -19 30 -25 0 -10 258 -13 1275 -13
l1275 0 0 1346 c0 740 -4 1343 -8 1340 -5 -3 -36 -8 -70 -10 -51 -5 -63 -3
-71 12 -9 16 -10 16 -16 0z m-1255 -1058 c0 -6 -26 -10 -59 -10 -33 0 -63 5
-66 10 -4 6 18 10 59 10 37 0 66 -4 66 -10z m-795 -228 c7 -4 2 -16 -12 -31
l-22 -24 -11 27 c-5 15 -10 29 -10 32 0 7 44 4 55 -4z m105 -112 c0 -13 -26
-19 -41 -9 -12 8 -12 10 0 18 15 10 41 4 41 -9z m-820 -265 c0 -31 3 -35 28
-36 15 -1 38 -5 52 -9 15 -5 -28 -8 -112 -9 l-138 -1 0 45 0 45 85 0 85 0 0
-35z m-195 -115 c17 -7 15 -9 -12 -9 -18 -1 -33 4 -33 9 0 12 17 12 45 0z m10
-60 c-5 -8 -11 -8 -17 -2 -6 6 -7 16 -3 22 5 8 11 8 17 2 6 -6 7 -16 3 -22z
m-312 13 c-18 -2 -48 -2 -65 0 -18 2 -4 4 32 4 36 0 50 -2 33 -4z m37 -129 l0
-35 -52 3 c-46 3 -53 6 -56 26 -3 17 2 22 17 22 12 0 21 5 21 10 0 6 16 10 35
10 33 0 35 -2 35 -36z m-185 -48 c6 -2 -11 -5 -37 -7 -30 -3 -48 0 -48 6 0 10
53 10 85 1z m665 -388 c0 -16 -3 -19 -11 -11 -6 6 -8 16 -5 22 11 17 16 13 16
-11z"/>
<path d="M3995 2611 c-106 -6 -158 -22 -117 -35 42 -14 18 -36 -39 -36 -19 0
-29 -5 -29 -15 0 -12 -14 -15 -70 -15 -63 0 -70 -2 -70 -20 0 -18 -7 -20 -70
-20 l-70 0 -1 48 c-1 26 0 57 1 70 1 16 -4 22 -18 22 -23 0 -50 -28 -36 -38
22 -16 34 -56 34 -111 0 -33 -4 -61 -9 -63 -6 -1 -12 -16 -14 -33 -3 -28 -7
-30 -50 -33 -46 -3 -47 -4 -47 -38 0 -34 0 -34 45 -34 49 0 56 -8 25 -30 -11
-8 -20 -20 -20 -27 0 -7 -9 -13 -20 -13 -11 0 -20 -5 -20 -11 0 -8 -4 -8 -14
0 -11 9 -19 9 -35 -1 -29 -18 -28 -56 2 -60 21 -3 22 -8 23 -83 0 -102 10
-155 30 -155 8 0 19 -11 24 -25 5 -14 13 -25 18 -25 4 0 13 -15 20 -33 13 -35
12 -35 120 -43 39 -3 72 -10 72 -14 0 -5 33 -10 73 -12 56 -2 72 -6 72 -18 0
-12 -15 -15 -77 -15 -58 1 -78 -2 -78 -12 0 -7 5 -13 10 -13 6 0 10 -7 10 -15
0 -12 14 -15 70 -15 69 0 70 1 70 26 0 21 4 25 23 22 14 -2 23 -11 25 -25 2
-15 10 -23 23 -23 12 0 19 -7 19 -19 0 -28 8 -31 101 -35 48 -3 85 -9 87 -15
2 -7 34 -11 78 -11 59 0 74 3 74 15 0 8 7 15 15 15 8 0 15 7 15 15 0 9 9 15
21 15 15 0 19 5 15 15 -3 9 3 20 14 27 25 16 26 28 1 28 -11 0 -22 4 -25 9
-10 16 5 41 25 41 27 0 24 18 -3 22 -19 2 -23 9 -23 38 0 29 4 36 23 38 14 2
22 10 22 23 0 10 7 19 15 19 8 0 15 -9 15 -20 0 -13 7 -20 20 -20 12 0 20 7
20 16 0 21 -40 53 -67 54 -24 0 -32 25 -10 33 9 4 8 6 -2 6 -18 1 6 31 25 31
21 0 18 59 -3 66 -35 11 -48 22 -45 38 2 9 -2 16 -8 16 -6 0 -8 5 -5 10 3 6
22 10 41 10 53 0 44 30 -19 60 -41 20 -52 30 -51 48 1 12 -4 22 -11 22 -21 0
-25 26 -25 161 l0 129 -42 1 c-89 4 -83 1 -80 42 2 20 0 36 -5 35 -4 -1 -53
-4 -108 -7z m23 -198 c-10 -2 -28 -2 -40 0 -13 2 -5 4 17 4 22 1 32 -1 23 -4z
m-314 -35 c-3 -13 -7 -23 -8 -23 0 0 -38 1 -83 3 -62 3 -83 7 -83 17 0 10 19
15 68 18 37 2 77 4 90 5 20 2 22 -1 16 -20z m106 -98 c0 -5 -9 -10 -21 -10
-11 0 -17 5 -14 10 3 6 13 10 21 10 8 0 14 -4 14 -10z"/>
<path d="M6780 1885 c0 -12 14 -15 70 -15 56 0 70 3 70 15 0 12 -14 15 -70 15
-56 0 -70 -3 -70 -15z"/>
<path d="M7070 1861 c0 -12 5 -21 10 -21 6 0 10 6 10 14 0 8 -4 18 -10 21 -5
3 -10 -3 -10 -14z"/>
<path d="M9527 1753 c-17 -4 -17 -6 5 -17 51 -27 58 -27 58 -1 0 26 -16 30
-63 18z"/>
<path d="M8330 1390 c0 -5 7 -10 15 -10 8 0 15 5 15 10 0 6 -7 10 -15 10 -8 0
-15 -4 -15 -10z"/>
<path d="M8050 1300 l0 -30 65 0 65 0 0 30 0 30 -65 0 -65 0 0 -30z"/>
<path d="M8187 1219 c-4 -29 -4 -56 -1 -60 3 -5 37 -9 75 -9 l70 0 -3 58 -3
57 -66 3 -66 3 -6 -52z"/>
<path d="M7183 1060 c0 -36 2 -50 4 -32 2 17 2 47 0 65 -2 17 -4 3 -4 -33z"/>
<path d="M7346 1077 c1 -23 2 -50 3 -59 1 -15 11 -18 61 -18 l60 0 0 60 0 60
-62 0 -63 0 1 -43z"/>
<path d="M7767 1043 c-4 -3 -7 -15 -7 -25 0 -16 9 -18 70 -18 68 0 70 1 70 25
0 24 -2 25 -63 25 -35 0 -67 -3 -70 -7z"/>
<path d="M7200 915 l0 -65 70 0 70 0 0 65 0 65 -70 0 -70 0 0 -65z"/>
</g>
</svg>
