<?xml version="1.0" standalone="no"?>
<!DOCTYPE svg PUBLIC "-//W3C//DTD SVG 20010904//EN"
 "http://www.w3.org/TR/2001/REC-SVG-20010904/DTD/svg10.dtd">
<svg version="1.0" xmlns="http://www.w3.org/2000/svg"
 width="1262.000000pt" height="1200.000000pt" viewBox="0 0 1262.000000 1200.000000"
 preserveAspectRatio="xMidYMid meet">
<metadata>
Created by potrace 1.16, written by Peter Selinger 2001-2019
</metadata>
<g transform="translate(0.000000,1200.000000) scale(0.100000,-0.100000)"
fill="#000000" stroke="none">
<path d="M3752 11982 c71 -25 90 -45 82 -87 -5 -27 -1 -40 20 -68 14 -19 26
-38 26 -43 0 -5 8 -25 19 -44 10 -19 21 -49 25 -66 4 -18 16 -40 26 -49 10 -9
22 -30 25 -47 4 -18 17 -34 32 -41 15 -7 33 -29 44 -54 11 -27 32 -51 56 -66
48 -31 78 -70 132 -173 48 -93 68 -115 120 -129 l36 -11 -3 -89 c-8 -299 -7
-325 25 -425 37 -114 53 -195 54 -276 1 -32 4 -70 8 -84 8 -24 8 -24 25 15 24
54 42 127 71 275 14 69 31 157 40 195 8 39 20 97 25 129 6 33 13 63 16 67 2 4
13 55 24 113 11 58 24 115 30 125 5 11 10 35 10 54 0 19 9 55 20 80 12 26 21
68 21 94 0 27 7 66 14 88 12 37 18 66 46 213 6 31 19 89 30 129 10 39 19 82
19 95 0 13 6 32 13 43 8 11 17 28 20 38 6 16 -26 17 -596 16 -575 -1 -600 -1
-555 -17z m706 -590 c2 -7 -3 -12 -12 -12 -9 0 -16 7 -16 16 0 17 22 14 28 -4z
m-12 -57 c19 -15 19 -15 0 -30 -17 -12 -17 -18 -6 -45 8 -20 9 -34 3 -43 -6
-6 -13 -24 -17 -39 -14 -58 -40 -24 -50 64 -10 93 19 132 70 93z"/>
<path d="M6650 11985 c14 -8 31 -14 38 -15 8 0 59 -22 115 -48 115 -55 177
-78 258 -96 30 -7 69 -22 85 -34 16 -11 72 -35 126 -52 53 -17 102 -37 108
-45 7 -8 18 -15 24 -15 6 0 38 -14 71 -30 33 -17 70 -30 83 -30 13 0 33 -12
47 -28 13 -16 43 -34 67 -41 24 -7 66 -25 93 -40 28 -16 75 -36 105 -46 30
-10 64 -26 76 -36 11 -11 26 -19 32 -19 7 0 22 -16 33 -35 18 -29 24 -33 40
-25 13 8 25 7 40 -1 28 -14 14 -25 -41 -34 -107 -16 -225 -6 -340 30 -59 18
-109 25 -231 29 -99 4 -166 3 -183 -4 -15 -5 -48 -13 -74 -16 -25 -3 -60 -11
-77 -18 -21 -9 -37 -10 -48 -4 -10 5 -24 5 -34 0 -19 -9 -123 -28 -213 -37
-30 -4 -59 -10 -65 -15 -5 -4 -39 -16 -75 -26 -36 -10 -77 -26 -92 -37 -16
-12 -52 -22 -91 -26 -38 -4 -75 -15 -92 -26 -15 -11 -41 -29 -59 -40 -39 -25
-95 -81 -119 -117 -17 -27 -83 -68 -110 -68 -8 0 -22 -8 -31 -19 -20 -22 -99
-47 -116 -36 -7 5 -9 45 -5 130 6 148 -5 212 -43 247 -36 33 -92 64 -131 73
-17 4 -44 13 -60 21 -16 8 -47 16 -69 18 -21 2 -45 7 -52 11 -28 17 -161 38
-139 22 58 -43 118 -71 158 -73 25 -1 65 -7 87 -13 37 -10 44 -17 68 -70 14
-32 26 -69 26 -81 0 -28 -48 -130 -70 -147 -34 -27 -151 -5 -195 37 -20 19
-24 19 -53 5 -43 -22 -107 -3 -128 37 -8 15 -16 28 -19 28 -11 0 -24 -80 -16
-101 4 -13 5 -31 0 -39 -35 -65 -79 -173 -78 -192 1 -13 -4 -52 -10 -88 -7
-36 -17 -94 -23 -130 -5 -36 -16 -77 -24 -92 -8 -15 -14 -42 -14 -60 0 -18 -8
-52 -17 -76 -14 -38 -15 -54 -6 -109 10 -58 16 -68 59 -106 26 -23 59 -46 73
-51 41 -14 53 -26 40 -42 -18 -22 -58 -17 -91 11 -16 14 -40 25 -52 25 -28 0
-69 -44 -83 -90 -6 -19 -23 -62 -37 -95 -14 -33 -26 -71 -26 -85 0 -14 -9 -43
-20 -65 -11 -22 -20 -44 -20 -51 0 -6 -7 -17 -15 -24 -12 -10 -19 -9 -37 2
-33 21 -136 37 -183 29 -42 -8 -115 -47 -128 -68 -4 -7 -24 -17 -45 -23 -88
-24 -182 -150 -182 -243 0 -23 -6 -52 -14 -63 -8 -11 -18 -35 -23 -54 -5 -18
-15 -36 -22 -38 -12 -4 -13 13 -7 94 13 177 13 169 -10 172 -24 3 -64 -39 -64
-68 0 -10 -8 -28 -19 -41 -43 -56 -102 -217 -126 -344 -14 -74 -15 -98 -5
-151 13 -69 31 -88 113 -114 21 -6 50 -22 65 -34 15 -13 66 -42 115 -66 48
-24 87 -47 87 -51 0 -13 -93 -36 -217 -55 -62 -9 -117 -22 -123 -29 -14 -17
23 -157 55 -206 42 -65 92 -173 123 -264 41 -123 53 -140 143 -215 44 -35 114
-100 156 -143 81 -82 134 -117 177 -117 29 0 28 -1 103 100 30 41 64 85 75 96
10 12 22 34 27 50 12 47 41 38 59 -18 14 -46 14 -49 -13 -104 -20 -40 -30 -52
-36 -43 -15 25 -38 -12 -45 -76 -6 -48 -13 -63 -36 -83 -15 -13 -28 -33 -28
-44 0 -11 -13 -32 -30 -46 -16 -15 -30 -32 -30 -40 0 -22 -60 -90 -91 -103
-22 -9 -36 -9 -54 -1 -49 22 -65 45 -65 89 0 35 -3 42 -22 45 -13 2 -24 11
-26 22 -4 19 -3 19 23 2 25 -16 29 -17 43 -2 19 19 14 25 -30 36 -18 4 -39 9
-47 11 -10 3 -15 -8 -17 -39 -3 -51 -6 -57 -31 -44 -28 14 -81 -4 -88 -31 -10
-36 -29 -71 -42 -80 -7 -4 -13 -19 -13 -33 0 -20 -9 -28 -44 -43 l-43 -19 -7
-81 c-7 -79 -11 -88 -50 -115 -17 -11 -17 -14 -2 -29 15 -15 14 -19 -14 -58
-16 -23 -39 -49 -50 -56 -12 -9 -20 -26 -20 -44 0 -24 -4 -29 -25 -29 -21 0
-25 5 -25 31 0 27 -3 30 -27 27 -24 -3 -28 -7 -25 -30 1 -16 -2 -38 -9 -50
-11 -21 -12 -20 -25 11 -8 18 -23 35 -33 38 -31 8 -49 44 -45 88 3 33 -1 45
-28 72 -18 18 -41 33 -52 33 -33 0 -66 11 -66 23 0 5 8 16 18 23 15 13 15 15
1 24 -9 5 -27 18 -40 29 -19 16 -21 22 -11 29 21 14 10 45 -18 52 -21 5 -25
12 -26 42 -1 20 -11 57 -23 82 -11 25 -21 61 -21 79 0 38 -32 139 -55 174 -9
13 -24 23 -35 23 -16 0 -20 7 -20 30 0 17 -4 30 -10 30 -5 0 -16 16 -24 35
-16 37 -47 55 -96 55 -31 0 -43 19 -34 54 3 14 -1 27 -10 35 -9 8 -16 23 -16
34 0 11 -8 30 -18 41 -10 12 -27 41 -37 65 -18 40 -18 44 -2 52 13 8 17 24 17
63 0 61 21 118 50 139 16 11 23 32 31 102 5 48 12 91 15 96 2 4 7 50 10 101 3
51 10 96 16 99 6 4 7 42 2 103 -4 62 -3 96 3 96 6 0 13 18 17 41 4 23 13 47
20 55 8 7 17 32 21 53 4 28 13 42 26 46 17 6 19 12 13 38 -3 18 -11 35 -17 38
-13 9 0 29 19 29 8 0 14 6 14 14 0 8 21 34 47 59 l46 45 -21 27 c-26 33 -27
48 -7 65 19 16 19 72 0 125 -16 43 -20 97 -8 109 4 3 8 49 9 102 2 55 8 101
14 110 18 21 5 43 -35 60 -38 15 -45 25 -17 22 9 -1 43 1 74 6 51 7 58 11 67
37 13 38 6 56 -27 64 -58 14 -69 46 -23 65 39 16 46 38 21 65 -29 31 -26 73 5
85 14 5 25 14 25 19 0 5 15 14 34 21 27 8 35 17 38 41 4 27 1 31 -24 36 -17 3
-28 12 -28 22 -1 23 -24 51 -43 51 -9 0 -19 -11 -23 -25 -3 -14 -10 -22 -16
-19 -11 7 -88 -73 -88 -92 0 -7 8 -17 17 -23 16 -8 15 -10 -8 -16 -33 -8 -69
-70 -69 -118 0 -26 -6 -39 -25 -51 -22 -14 -25 -23 -24 -79 0 -76 -10 -157
-21 -157 -14 0 -40 -67 -40 -102 0 -21 -7 -40 -20 -51 -16 -13 -20 -29 -20
-76 0 -33 -5 -72 -12 -88 -6 -15 -17 -77 -24 -138 -7 -60 -18 -137 -24 -170
-6 -33 -9 -88 -6 -123 5 -57 2 -68 -29 -129 -27 -53 -33 -75 -29 -103 4 -23
-2 -57 -16 -98 -14 -40 -19 -72 -15 -91 5 -24 0 -36 -23 -62 -30 -33 -30 -34
-74 -21 -110 33 -126 35 -157 22 -19 -8 -31 -20 -31 -31 0 -11 3 -19 8 -19 4
-1 18 -10 31 -21 26 -21 65 -148 54 -175 -4 -10 -24 -14 -70 -14 -84 0 -153
-37 -198 -105 -22 -33 -40 -48 -67 -55 -20 -6 -40 -15 -43 -20 -3 -6 -14 -10
-23 -10 -10 0 -49 -15 -88 -34 -61 -29 -114 -69 -201 -153 -26 -25 -30 -61 -9
-69 7 -3 65 15 128 40 64 25 137 52 164 61 86 27 326 76 422 86 51 5 96 10
100 10 22 4 32 -3 32 -20 0 -11 7 -27 15 -35 9 -9 23 -39 32 -68 8 -29 26 -65
39 -81 13 -16 24 -34 24 -40 0 -17 66 -115 105 -157 19 -19 38 -54 44 -77 6
-23 27 -65 46 -94 20 -28 40 -72 46 -96 5 -25 16 -58 24 -74 8 -15 15 -38 15
-50 0 -12 6 -30 14 -38 7 -9 28 -54 46 -101 25 -65 34 -105 37 -169 4 -83 3
-85 -24 -107 -15 -13 -34 -23 -42 -24 -24 0 -108 -79 -142 -133 -18 -28 -74
-92 -124 -142 -61 -60 -99 -107 -114 -140 -12 -27 -29 -63 -37 -80 -20 -42
-54 -154 -54 -177 0 -40 -84 -166 -125 -188 -15 -8 -43 -37 -63 -65 -19 -27
-59 -75 -88 -105 -40 -43 -53 -66 -59 -100 -4 -27 -25 -72 -51 -111 -40 -61
-84 -169 -84 -206 0 -26 -58 -137 -90 -171 -50 -55 -62 -95 -70 -242 -4 -74
-15 -166 -25 -205 -20 -85 -30 -143 -50 -305 -21 -165 -27 -183 -138 -425 -33
-71 -64 -146 -68 -165 -15 -71 -73 -225 -116 -308 -18 -35 -33 -69 -33 -75 -1
-7 -9 -30 -20 -52 -11 -22 -19 -48 -20 -58 0 -10 -9 -35 -20 -55 -11 -20 -31
-68 -45 -107 -14 -38 -32 -82 -40 -97 -8 -14 -15 -37 -15 -51 0 -13 -6 -30
-14 -36 -8 -7 -18 -31 -21 -54 -9 -51 -39 -148 -65 -202 -10 -22 -28 -85 -41
-140 -12 -55 -31 -111 -41 -124 -10 -13 -18 -30 -18 -38 0 -9 -20 -63 -46
-122 -25 -58 -49 -115 -53 -126 -5 -11 -21 -48 -35 -81 -14 -34 -26 -69 -26
-79 0 -9 -6 -29 -14 -43 -14 -26 -23 -55 -82 -247 -15 -49 -32 -108 -39 -130
-7 -22 -18 -66 -24 -97 -12 -70 -25 -95 -110 -222 -36 -54 -88 -133 -115 -175
-27 -42 -62 -95 -78 -118 -78 -114 -197 -397 -248 -588 -10 -38 -29 -101 -41
-140 -25 -81 -48 -196 -49 -242 l0 -33 4265 0 c2346 0 4265 4 4265 8 0 5 -7
31 -15 58 -8 26 -12 59 -9 71 4 13 2 29 -4 36 -10 12 -31 96 -37 152 -2 17
-15 54 -29 82 -14 29 -26 62 -26 72 0 11 -5 23 -11 26 -5 4 -8 14 -6 23 2 10
-5 34 -15 55 -10 20 -23 74 -29 120 -10 90 -45 285 -59 332 -5 17 -14 62 -21
100 -6 39 -16 90 -20 115 -5 25 -18 113 -29 195 -11 83 -26 197 -34 255 -8 58
-17 149 -20 203 -3 54 -8 102 -10 106 -3 4 -5 56 -5 117 0 60 -1 120 -1 134 0
14 0 45 0 69 0 52 28 133 44 128 6 -2 12 -17 14 -33 12 -138 21 -239 27 -294
4 -36 8 -96 10 -135 2 -76 19 -214 35 -285 6 -25 17 -94 25 -155 34 -257 46
-331 55 -355 5 -14 14 -63 19 -110 9 -82 30 -196 52 -290 26 -110 48 -223 63
-330 17 -118 21 -137 56 -254 11 -37 21 -101 22 -142 l3 -74 720 0 721 0 -2
198 c-1 205 -18 312 -57 373 -12 18 -15 48 -14 126 1 56 4 103 7 105 66 44
128 70 150 63 34 -11 80 -59 90 -96 14 -46 13 -86 -2 -99 -7 -5 -24 -19 -38
-30 -24 -19 -25 -20 -6 -35 17 -13 20 -31 23 -145 2 -87 8 -142 18 -166 8 -20
15 -53 15 -74 0 -21 12 -63 26 -95 19 -41 25 -67 21 -91 l-6 -34 790 0 789 0
0 3224 0 3224 -22 28 c-78 94 -221 214 -257 214 -9 0 -35 13 -58 29 -40 27
-41 29 -26 51 11 15 14 35 10 66 -4 37 -14 54 -66 109 -33 36 -61 70 -61 75 0
4 -13 22 -30 38 -16 17 -30 37 -30 45 0 8 -19 22 -42 32 -58 25 -78 44 -78 72
0 16 -18 43 -50 76 -27 28 -50 54 -50 57 0 3 -32 32 -70 65 -39 33 -73 70 -77
83 -5 20 -11 22 -64 22 -32 0 -59 -4 -59 -8 0 -5 13 -21 29 -38 80 -82 102
-116 95 -148 -12 -60 -11 -61 -113 54 -36 40 -42 43 -55 30 -24 -24 -24 -20
14 -425 5 -55 15 -155 21 -222 25 -256 -11 -521 -90 -668 -11 -22 -21 -44 -21
-50 0 -14 -68 -103 -112 -148 -20 -20 -39 -45 -43 -57 -3 -11 -10 -20 -14 -20
-5 0 -31 -21 -58 -47 -54 -52 -120 -79 -174 -71 -17 3 -50 2 -72 -3 -30 -5
-50 -3 -70 8 -28 14 -57 65 -57 99 0 22 -73 131 -77 117 -3 -7 -10 -10 -16 -8
-28 10 -73 -62 -61 -98 5 -12 7 -25 6 -30 -1 -4 -5 -82 -8 -175 -3 -92 -8
-210 -13 -262 -4 -52 -3 -112 1 -133 5 -20 8 -68 7 -105 -1 -88 8 -233 25
-407 8 -85 10 -147 5 -157 -6 -10 -5 -26 1 -40 5 -13 17 -68 25 -123 9 -55 21
-108 27 -119 6 -11 12 -40 13 -65 1 -25 7 -75 13 -111 15 -88 33 -249 39 -340
2 -41 9 -80 15 -87 6 -8 11 -83 13 -190 1 -98 5 -186 9 -195 5 -11 2 -23 -8
-33 -9 -9 -16 -20 -16 -25 0 -5 -3 -15 -6 -23 -3 -9 6 -25 21 -40 l27 -24 -32
-23 c-30 -21 -32 -22 -45 -4 -14 18 -20 57 -15 98 1 10 -3 46 -9 80 -13 80
-41 272 -46 316 -2 19 -11 71 -20 115 -9 44 -21 103 -25 130 -25 145 -51 277
-64 335 -8 36 -24 137 -36 225 -32 243 -49 361 -65 460 -8 50 -14 106 -14 125
0 19 -7 81 -15 137 -20 129 -26 646 -8 708 6 22 12 76 13 120 1 104 17 239 34
291 8 23 14 54 13 70 0 16 9 63 20 105 12 41 19 85 15 97 -3 12 -1 34 5 50 6
16 6 35 2 43 -6 9 -2 20 11 32 10 10 19 24 19 32 0 9 11 25 25 37 29 25 34 75
8 85 -31 12 -113 91 -113 109 0 6 -6 17 -13 23 -8 6 -20 30 -27 53 -8 24 -24
57 -37 74 -15 20 -23 45 -23 69 0 62 -20 105 -48 105 -45 0 -88 79 -70 129 6
17 4 29 -9 43 -14 16 -15 24 -6 49 11 28 10 31 -20 50 -18 10 -45 19 -62 18
-16 0 -70 4 -119 10 -77 9 -93 14 -120 39 -32 30 -133 82 -160 82 -8 0 -31 14
-49 30 -19 17 -42 30 -50 30 -24 0 -197 -58 -221 -73 -12 -8 -45 -19 -74 -26
-29 -6 -63 -17 -75 -25 -12 -7 -67 -26 -122 -40 -55 -15 -108 -31 -117 -37
-10 -5 -41 -9 -70 -9 -48 0 -54 -3 -94 -45 -23 -25 -46 -45 -52 -45 -6 0 -21
-11 -34 -24 -90 -92 -178 -150 -292 -193 -34 -13 -55 -29 -72 -54 -23 -37 -73
-57 -112 -45 -9 3 -35 8 -56 10 -39 5 -76 26 -45 26 22 0 46 29 55 65 4 18 40
63 86 110 66 67 78 84 73 105 -3 15 6 54 21 95 15 39 26 85 25 102 -1 18 6 44
14 57 12 17 15 42 13 85 -3 65 1 73 34 75 45 2 47 96 2 96 -35 0 -74 132 -55
183 11 27 55 56 100 63 14 3 40 19 56 38 17 18 52 43 79 56 26 13 67 37 91 55
23 18 60 39 81 46 21 7 55 28 75 45 20 18 46 35 58 39 12 3 21 10 21 14 0 5
14 14 31 21 17 7 50 29 73 48 22 19 51 39 63 45 13 5 25 19 29 31 3 12 15 31
26 43 29 32 18 48 -45 62 -63 14 -91 5 -162 -48 -64 -49 -93 -62 -148 -68 -34
-4 -57 -13 -65 -25 -16 -22 -53 -42 -119 -64 -26 -9 -65 -29 -85 -45 -21 -16
-51 -32 -67 -35 -16 -3 -31 -14 -34 -23 -2 -10 -28 -25 -63 -36 -32 -11 -66
-27 -75 -35 -48 -43 -85 -70 -132 -94 -29 -14 -57 -36 -62 -48 -6 -13 -20 -24
-32 -26 -12 -2 -37 -20 -54 -40 -18 -20 -42 -41 -52 -47 -23 -11 -33 -29 -41
-66 -6 -29 -32 -58 -94 -108 -24 -19 -42 -42 -42 -54 0 -11 -25 -44 -58 -76
-33 -31 -71 -73 -86 -93 -20 -27 -38 -39 -64 -44 -22 -4 -48 -19 -64 -35 -17
-19 -37 -29 -55 -29 -33 0 -53 -16 -53 -42 0 -13 -16 -27 -50 -42 -27 -13 -67
-42 -87 -64 l-38 -41 -92 6 c-107 7 -115 16 -58 67 19 17 48 56 64 86 29 56
35 62 85 76 19 6 32 18 36 34 9 32 79 110 99 110 21 0 56 53 72 108 7 25 25
54 43 69 26 22 31 33 31 72 0 35 4 48 20 56 11 6 37 27 58 47 31 29 37 40 32
61 -6 22 -3 26 24 32 33 7 44 18 48 49 2 11 11 28 20 38 13 14 13 18 2 18 -14
1 14 21 36 27 6 1 27 6 48 12 45 11 68 37 60 69 -3 12 -1 22 3 22 5 0 27 17
50 38 64 59 98 86 114 94 12 5 11 7 -5 7 -22 1 50 41 74 41 11 0 10 4 -5 15
-17 14 -17 16 -3 28 9 6 14 17 12 23 -6 19 26 44 67 50 35 6 39 10 42 38 3 26
9 33 42 44 22 7 75 13 118 13 74 1 80 2 91 26 10 23 14 24 91 23 45 -1 87 -2
94 -1 17 1 15 19 -4 38 -11 11 -12 19 -5 26 6 6 11 20 11 32 0 15 9 24 33 30
28 9 33 16 41 58 6 28 15 47 23 47 7 0 13 7 13 15 0 8 9 15 20 15 11 0 26 10
35 23 12 19 13 29 3 55 -7 18 -20 35 -30 38 -10 3 -18 11 -18 18 0 8 -7 19
-15 26 -8 7 -15 19 -15 27 0 23 74 116 131 165 l53 46 -30 28 c-66 62 -71 64
-179 64 -68 0 -127 -6 -178 -19 -42 -11 -121 -25 -176 -31 -56 -6 -117 -18
-136 -25 -19 -8 -51 -15 -72 -15 -21 0 -56 -5 -78 -10 -22 -5 -94 -14 -159
-20 -155 -13 -187 -22 -209 -59 -11 -19 -14 -32 -7 -36 5 -3 7 -17 4 -29 -4
-19 0 -25 25 -36 20 -8 33 -22 37 -39 3 -14 10 -41 16 -59 6 -22 6 -42 -1 -62
-7 -20 -7 -39 0 -58 7 -19 6 -38 -1 -56 -5 -15 -10 -41 -10 -58 0 -16 -6 -42
-13 -56 -19 -38 -57 -122 -69 -152 -6 -14 -16 -36 -24 -50 -7 -14 -21 -41 -30
-60 -9 -19 -23 -47 -30 -62 -8 -14 -14 -33 -14 -43 0 -9 -16 -46 -35 -84 -19
-37 -35 -71 -35 -75 0 -4 -15 -26 -34 -49 -18 -23 -43 -61 -55 -85 -12 -24
-37 -60 -56 -81 -19 -21 -35 -42 -35 -46 0 -4 -20 -29 -44 -56 -25 -27 -55
-71 -67 -97 -12 -26 -33 -60 -46 -75 -13 -16 -23 -35 -23 -43 0 -8 -16 -38
-35 -67 -19 -28 -35 -59 -35 -67 0 -9 -7 -25 -15 -36 -8 -10 -15 -26 -15 -35
0 -9 -9 -28 -20 -42 -11 -14 -20 -32 -20 -41 0 -8 -13 -30 -29 -48 -16 -18
-39 -55 -51 -81 -13 -27 -31 -52 -40 -55 -30 -12 -126 -125 -155 -182 -74
-147 -132 -247 -205 -351 -24 -35 -60 -93 -78 -128 -19 -36 -45 -76 -58 -90
-13 -14 -24 -30 -24 -34 0 -10 -109 -179 -120 -187 -4 -3 -24 -36 -44 -74 -21
-38 -48 -83 -60 -100 -41 -55 -84 -140 -91 -179 -4 -21 -27 -68 -51 -104 -24
-37 -44 -74 -44 -83 0 -8 -14 -35 -30 -59 -17 -24 -30 -54 -30 -67 0 -12 -13
-52 -30 -89 -16 -37 -30 -80 -30 -96 0 -16 -14 -54 -31 -84 -17 -30 -28 -58
-25 -63 6 -10 -19 -145 -33 -177 -13 -31 -34 -164 -35 -223 -1 -29 -6 -56 -12
-60 -6 -4 -15 -21 -18 -38 -4 -17 -18 -42 -32 -54 -13 -13 -24 -33 -24 -44 -1
-12 -7 -32 -15 -46 -8 -14 -14 -44 -15 -67 0 -29 -5 -45 -17 -52 -15 -8 -15
-13 -5 -36 7 -14 12 -28 12 -31 0 -9 -69 -34 -94 -34 -15 0 -30 -8 -36 -19 -9
-18 -5 -20 48 -26 80 -9 98 -15 81 -26 -24 -15 -116 -11 -133 7 -14 14 -18 13
-40 -13 -21 -24 -27 -26 -43 -15 -10 7 -25 15 -35 18 -9 3 -19 18 -23 32 -8
34 -21 42 -71 42 -22 0 -44 3 -48 8 -4 4 -13 7 -19 7 -7 0 -14 11 -15 25 -5
33 -11 39 -51 42 -47 3 -63 39 -33 71 29 31 28 42 -8 57 -22 9 -30 19 -30 37
0 25 -54 148 -69 157 -4 3 -15 -4 -24 -15 -20 -23 -40 -24 -57 -4 -9 11 -10
19 -1 28 8 10 8 22 -1 43 -10 27 -8 35 18 75 16 24 35 50 41 57 7 7 13 22 13
32 0 21 37 97 51 106 5 3 9 16 9 29 0 28 17 70 41 103 12 15 16 34 13 55 -5
37 -1 45 43 75 19 13 44 48 62 85 40 81 63 120 79 130 6 4 12 15 12 23 0 8 4
22 9 32 4 9 16 34 27 56 10 21 20 33 22 27 5 -14 74 74 91 117 11 27 11 35 0
48 -7 9 -15 32 -16 50 -2 29 3 37 28 49 16 9 29 22 29 30 0 7 9 17 20 20 11 4
35 29 52 56 18 27 36 49 40 49 5 0 8 11 8 24 0 25 16 36 56 36 22 0 24 4 24
45 0 25 5 45 10 45 6 0 10 5 10 11 0 6 7 17 15 25 22 22 19 55 -5 61 -24 6
-25 21 -2 48 20 25 46 36 58 26 5 -5 28 -6 51 -4 30 4 40 9 36 19 -3 8 -1 15
3 15 5 1 19 3 31 4 26 3 53 22 53 38 0 6 7 19 17 29 9 11 11 18 5 18 -7 0 -12
11 -12 25 0 18 7 28 23 34 13 5 36 24 51 41 21 26 26 39 21 62 -4 16 -2 35 4
42 12 14 12 32 7 174 -1 52 -7 97 -12 100 -5 4 -15 25 -23 47 -7 22 -23 48
-35 57 -18 15 -21 27 -21 100 0 46 -4 90 -8 100 -6 12 -3 18 12 23 27 8 27 26
-2 53 l-24 22 -39 -55 c-21 -31 -54 -74 -72 -96 -17 -23 -35 -53 -38 -68 -4
-14 -28 -49 -54 -77 -26 -27 -55 -64 -63 -80 -9 -17 -23 -37 -32 -44 -9 -8
-27 -35 -40 -61 -13 -25 -31 -49 -39 -52 -21 -8 -86 -108 -86 -133 0 -12 7
-27 15 -34 28 -23 16 -44 -38 -70 -58 -28 -74 -52 -103 -155 -10 -38 -27 -70
-45 -88 -20 -19 -29 -38 -29 -60 0 -18 -9 -47 -20 -65 -11 -18 -20 -45 -20
-60 0 -15 -6 -36 -14 -47 -7 -11 -17 -36 -21 -55 -4 -19 -20 -55 -36 -79 -21
-32 -29 -57 -29 -88 0 -29 -10 -64 -30 -103 -16 -33 -30 -69 -30 -80 0 -11 -9
-37 -20 -57 -11 -21 -20 -45 -20 -53 0 -34 -30 -95 -64 -132 -20 -23 -36 -51
-36 -64 0 -55 -50 -128 -94 -136 -21 -3 -54 -81 -55 -129 -1 -17 -10 -33 -27
-44 -14 -9 -30 -30 -36 -46 -12 -34 -13 -35 -66 -9 -22 11 -54 20 -69 20 -23
0 -32 8 -48 38 -26 50 -65 92 -86 92 -10 0 -33 19 -53 43 -33 39 -34 43 -18
55 22 16 17 60 -9 88 -13 14 -20 36 -21 62 0 24 -6 43 -13 46 -8 3 -17 25 -20
51 -4 25 -11 48 -16 51 -15 9 -10 83 7 109 9 13 17 30 18 37 1 7 11 31 20 53
10 22 21 54 25 70 4 19 17 35 35 43 28 14 51 54 60 107 3 15 13 33 22 40 17
12 17 14 1 29 -9 10 -17 23 -17 31 0 15 27 28 41 19 13 -8 50 6 44 17 -4 5 0
9 9 9 20 0 25 22 8 39 -12 12 -11 16 5 24 25 14 42 38 43 60 0 9 5 17 10 17 6
0 10 9 10 19 0 11 8 22 19 26 20 6 50 33 91 81 40 45 42 52 25 77 -14 23 -14
25 10 43 14 10 25 24 25 31 0 6 5 13 12 15 21 7 36 80 22 107 -10 19 -9 29 4
57 9 18 22 34 27 34 17 0 45 39 45 63 1 28 17 48 58 72 17 11 32 22 32 26 0 4
12 10 27 14 21 5 24 8 12 16 -7 5 -9 9 -4 9 6 0 11 31 11 70 1 65 4 72 34 100
18 16 37 30 44 30 6 0 29 22 50 49 37 46 71 71 99 71 12 0 37 65 37 95 0 8 4
15 10 15 5 0 14 19 21 43 6 23 20 62 30 87 10 25 21 71 23 102 5 67 10 76 42
88 29 11 30 29 4 63 -27 34 -26 37 15 37 28 0 35 4 35 19 0 11 -4 23 -10 26
-5 3 -7 19 -3 35 7 38 -4 80 -21 80 -7 0 -19 7 -26 15 -11 13 -10 18 6 30 15
11 19 26 19 82 0 56 4 75 26 108 14 22 31 54 37 72 5 17 22 45 36 61 15 16 32
37 40 47 7 9 25 18 39 18 20 0 32 9 47 33 13 20 32 35 50 39 22 5 37 20 60 61
18 30 40 58 49 64 10 5 24 22 30 38 7 16 24 33 42 39 16 6 29 15 28 20 -3 12
30 82 57 122 13 20 24 46 24 58 0 13 4 23 8 23 5 0 18 9 30 20 18 17 20 25 12
41 -12 21 -6 39 14 39 7 0 23 11 36 25 20 21 22 29 13 45 -10 14 -9 21 3 31 9
7 29 33 46 58 38 56 87 101 110 101 11 0 15 5 12 15 -6 15 41 64 62 65 13 0
104 99 104 112 0 4 -3 8 -7 8 -5 0 -14 4 -21 8 -22 14 -2 41 39 52 28 8 39 16
39 30 0 10 -5 22 -10 25 -7 4 -2 21 11 45 l21 38 -22 30 c-17 23 -21 39 -17
69 14 95 20 107 76 161 52 49 59 53 91 47 85 -17 139 -21 161 -13 15 6 33 5
47 -2 29 -13 62 3 62 29 0 19 29 51 47 51 6 0 16 7 23 15 10 12 10 18 0 30
-10 12 -8 25 12 67 16 34 28 81 33 132 l7 79 -61 -6 c-54 -6 -61 -5 -61 11 1
30 72 100 120 117 124 45 172 44 270 -9 92 -49 139 -115 181 -252 33 -106 55
-117 174 -90 214 51 278 70 331 101 26 15 76 33 112 41 35 7 76 21 89 29 13 9
54 20 91 25 98 12 176 29 277 62 314 101 373 103 515 17 97 -59 129 -47 124
48 -2 39 3 74 15 108 11 28 22 75 26 105 9 77 -4 91 -82 94 -67 3 -129 34
-191 98 -17 18 -48 49 -67 68 -25 24 -34 41 -31 55 4 16 -3 25 -27 38 -46 25
-72 78 -72 146 l0 56 -38 3 c-21 2 -58 -1 -81 -6 -64 -13 -171 3 -241 38 -114
56 -258 120 -269 120 -27 0 -228 111 -252 139 -21 25 -34 31 -65 31 -27 0 -39
-4 -39 -14 0 -8 37 -52 83 -98 46 -46 102 -111 125 -145 23 -34 55 -71 72 -83
36 -26 31 -40 -14 -40 -51 0 -223 55 -331 105 -27 13 -63 27 -80 31 -16 4 -46
15 -65 24 -19 10 -51 21 -70 25 -19 4 -48 13 -65 20 -27 12 -186 76 -485 195
-58 23 -119 48 -137 57 -53 26 -172 45 -308 49 -118 4 -128 3 -105 -11z
m-1170 -1474 c0 -48 -28 -76 -65 -67 -52 13 -53 89 -1 111 44 19 66 4 66 -44z
m-1717 -278 c-8 -21 -22 -5 -16 18 4 15 8 17 13 8 5 -7 6 -18 3 -26z m1637
-252 c0 -4 -18 -16 -40 -26 -37 -17 -42 -17 -57 -3 -14 15 -13 17 7 28 12 6
27 9 34 7 7 -3 19 -1 26 3 15 9 30 4 30 -9z m-1777 -87 c7 -7 -29 -44 -43 -44
-11 0 -14 33 -3 43 8 9 38 9 46 1z m1742 -44 c0 -20 -76 -43 -102 -31 -28 13
-31 56 -6 70 21 11 108 -20 108 -39z m-85 -409 c30 -6 76 -13 103 -16 51 -7
87 -35 87 -67 0 -30 -28 -32 -129 -10 -53 12 -109 22 -124 22 -29 0 -97 25
-97 35 0 3 8 17 17 31 18 28 21 28 143 5z m3061 -1548 c9 -63 6 -73 -33 -109
-33 -30 -44 -34 -66 -28 -15 4 -40 9 -57 10 -16 1 -32 3 -35 4 -3 0 6 7 20 15
14 7 27 24 30 36 9 38 137 103 141 72z m-199 -185 c-6 -6 -15 -9 -18 -5 -4 3
-4 14 0 23 5 13 9 15 18 6 9 -9 9 -15 0 -24z m-3062 -134 c0 -8 -4 -14 -10
-14 -5 0 -10 9 -10 21 0 11 5 17 10 14 6 -3 10 -13 10 -21z m2451 -479 c28
-19 61 -35 73 -35 24 -1 46 -16 62 -45 7 -11 19 -19 27 -17 11 2 19 -10 27
-40 7 -24 16 -59 22 -78 8 -31 6 -42 -16 -84 -14 -27 -26 -55 -26 -63 0 -20
-56 -127 -74 -142 -9 -8 -16 -26 -16 -41 0 -15 -7 -33 -15 -40 -8 -7 -15 -18
-15 -24 0 -6 -14 -31 -30 -56 -17 -25 -33 -62 -37 -83 -3 -21 -14 -44 -24 -50
-11 -7 -19 -21 -19 -32 0 -11 -6 -30 -14 -41 -8 -11 -30 -59 -50 -105 -19 -47
-46 -108 -60 -136 -14 -28 -26 -57 -26 -64 -1 -18 -38 -82 -122 -208 -38 -56
-68 -106 -68 -112 0 -6 -13 -29 -29 -52 -62 -92 -91 -147 -104 -198 -4 -14
-20 -43 -37 -64 -16 -21 -30 -46 -30 -56 0 -10 -5 -21 -11 -25 -6 -3 -24 -34
-40 -68 -17 -33 -41 -79 -54 -101 -37 -60 -90 -174 -104 -225 -7 -25 -22 -61
-32 -81 -11 -20 -19 -46 -19 -58 0 -37 -41 -154 -67 -193 -14 -21 -29 -59 -34
-84 -5 -26 -23 -68 -39 -94 -17 -26 -30 -53 -30 -62 0 -8 -11 -25 -25 -38 -14
-13 -25 -29 -25 -36 0 -7 -6 -17 -14 -21 -7 -4 -19 -19 -26 -33 -7 -14 -22
-35 -33 -47 -11 -13 -17 -26 -14 -30 13 -12 -25 -43 -62 -49 -20 -4 -43 -12
-51 -20 -10 -8 -48 -13 -110 -14 -107 -2 -150 5 -150 26 0 8 -11 20 -25 26
-31 14 -29 42 2 46 39 6 47 26 28 77 -10 25 -21 45 -26 45 -4 0 -21 14 -38 30
-29 29 -30 34 -25 91 5 53 3 62 -17 78 -23 18 -19 41 7 41 8 0 14 5 14 12 0 6
8 20 17 30 14 16 15 22 4 39 -9 15 -9 24 -1 34 8 9 6 17 -6 29 -9 10 -15 18
-13 19 2 1 19 13 37 26 25 17 37 20 45 12 6 -6 23 -11 38 -11 23 0 27 5 35 43
4 23 9 56 10 72 3 46 9 62 25 82 19 22 59 105 59 122 0 7 5 9 10 6 6 -3 10 1
10 9 0 9 5 16 10 16 6 0 10 9 10 20 0 10 7 23 15 27 19 11 45 86 35 103 -13
21 12 80 41 96 15 7 30 23 34 34 3 11 11 20 16 20 5 0 26 26 46 58 20 31 41
61 47 65 8 6 8 10 0 13 -26 11 -47 32 -40 42 3 6 21 14 38 18 37 8 57 29 58
62 0 17 6 22 25 22 14 0 25 2 25 4 0 2 3 11 6 19 3 10 -2 17 -13 20 -14 4 -14
5 4 6 26 1 63 30 63 48 0 7 10 13 23 13 37 0 62 24 63 62 1 18 10 68 19 111
17 75 17 79 0 91 -13 9 -15 15 -7 20 7 4 12 20 12 35 0 16 7 34 15 41 13 11
14 32 9 131 l-7 118 39 41 c81 84 90 102 59 114 -22 8 -6 36 21 36 14 0 41 7
60 15 29 12 35 19 31 36 -7 26 6 62 32 88 11 11 28 35 37 53 18 35 25 45 74
94 19 20 30 41 30 60 0 22 8 34 29 47 19 11 34 32 43 59 11 36 20 46 62 66 38
18 47 27 43 42 -6 25 61 88 103 97 16 3 35 12 41 19 18 22 46 16 100 -21z
m682 -106 c31 -26 37 -37 37 -69 0 -21 6 -45 14 -53 8 -8 18 -32 21 -53 11
-66 38 -148 57 -176 10 -14 18 -33 18 -43 0 -9 6 -28 13 -43 23 -45 63 -310
77 -507 6 -82 14 -184 18 -225 3 -41 5 -114 3 -161 l-3 -87 47 -23 c25 -13 49
-28 53 -34 14 -22 40 -113 47 -162 6 -44 4 -54 -14 -72 -12 -12 -29 -21 -38
-21 -10 0 -38 -7 -62 -15 -56 -20 -75 -13 -106 39 -19 32 -24 56 -24 102 0 63
-23 264 -47 404 -8 47 -23 204 -34 350 -11 146 -24 297 -29 335 -10 71 -67
255 -121 385 -34 83 -39 134 -12 149 28 17 45 13 85 -20z m254 -155 c13 -8 27
-23 30 -32 4 -9 26 -36 50 -60 38 -39 83 -117 83 -146 0 -6 13 -36 30 -68 27
-51 71 -200 105 -355 8 -34 18 -70 23 -80 11 -22 23 -83 27 -138 3 -39 14
-132 35 -300 14 -109 32 -373 33 -470 0 -44 -4 -176 -9 -293 -10 -222 -13
-231 -56 -232 -47 0 -68 142 -73 485 -2 127 -8 242 -13 256 -6 14 -18 116 -27
225 -9 109 -22 228 -30 264 -8 36 -19 99 -25 140 -16 104 -79 305 -130 415
-90 195 -126 260 -169 305 -41 43 -45 72 -12 98 20 17 94 9 128 -14z m0 -1679
c28 -74 123 -419 123 -446 0 -36 -30 -19 -60 34 -16 28 -49 108 -71 177 -45
136 -60 240 -39 265 19 22 30 15 47 -30z m567 -2139 c17 -19 41 -48 54 -65
l23 -30 -38 -16 c-61 -26 -88 -29 -103 -10 -11 14 -11 20 -1 37 11 17 9 23 -8
42 -24 25 -27 46 -9 64 21 21 49 13 82 -22z m252 -174 c80 -41 255 -156 306
-200 18 -16 50 -35 71 -41 92 -30 271 -148 352 -230 21 -23 47 -41 58 -41 10
0 33 -15 50 -32 18 -18 54 -45 80 -61 35 -20 47 -32 43 -45 -3 -12 6 -23 37
-38 23 -11 44 -28 45 -38 3 -15 -1 -17 -30 -11 -18 4 -41 16 -52 28 -10 12
-25 21 -33 19 -9 -2 -13 3 -11 15 4 21 -31 31 -43 11 -5 -7 -6 3 -2 25 l6 37
-37 0 c-31 0 -36 3 -36 23 0 27 -29 45 -100 62 -40 10 -45 13 -43 38 2 23 -2
27 -26 27 -16 0 -34 7 -41 14 -14 18 -91 56 -112 56 -8 0 -23 9 -34 21 -29 32
-173 105 -236 119 -38 9 -58 18 -58 28 0 8 -11 23 -25 34 -14 11 -25 28 -25
38 0 24 -15 33 -65 40 -28 4 -43 12 -51 29 -16 31 -63 61 -96 61 -34 0 -36 12
-5 33 30 21 32 21 113 -21z m-263 -15 c15 -10 16 -16 5 -39 -7 -16 -18 -28
-24 -28 -21 0 -35 27 -28 54 7 29 21 33 47 13z m1748 -1177 c10 -6 19 -17 19
-25 0 -7 20 -35 45 -62 27 -29 45 -57 45 -72 0 -13 11 -39 25 -57 16 -21 25
-46 25 -69 0 -20 5 -46 11 -57 8 -15 8 -36 -1 -79 -15 -71 -51 -108 -130 -135
-30 -10 -62 -24 -71 -31 -30 -25 -48 -14 -79 47 -16 33 -30 72 -30 87 0 16 -5
44 -11 63 -29 91 -28 118 7 212 19 50 34 98 34 106 0 20 59 82 78 82 7 0 22
-5 33 -10z"/>
<path d="M6630 5596 c0 -15 56 -33 67 -22 9 9 -2 17 -26 19 -11 1 -21 5 -21 9
0 4 -4 8 -10 8 -5 0 -10 -6 -10 -14z"/>
<path d="M5995 4021 c-3 -5 -1 -12 4 -15 13 -8 42 4 35 15 -7 12 -31 12 -39 0z"/>
<path d="M8015 11930 c-3 -5 1 -10 9 -10 9 0 16 5 16 10 0 6 -4 10 -9 10 -6 0
-13 -4 -16 -10z"/>
<path d="M7711 9368 c-11 -3 -52 -10 -92 -14 -41 -3 -96 -15 -124 -24 -27 -10
-70 -20 -95 -24 -57 -7 -225 -62 -265 -86 -71 -44 -158 -149 -302 -365 -47
-71 -95 -139 -104 -150 -17 -19 -35 -48 -88 -146 -11 -20 -35 -56 -54 -81 -19
-25 -38 -56 -42 -69 -4 -13 -13 -33 -20 -45 -8 -12 -17 -38 -21 -58 -6 -33 -4
-38 15 -43 27 -7 27 -33 0 -33 -11 0 -28 -4 -38 -9 -19 -11 -105 -134 -115
-166 -3 -11 -26 -47 -51 -80 -25 -33 -50 -78 -56 -100 -6 -22 -14 -44 -19 -50
-4 -5 -10 -31 -13 -58 l-7 -47 34 33 c19 19 39 44 46 56 6 13 26 29 43 36 18
8 54 35 81 60 26 25 54 45 62 45 20 0 154 122 154 141 0 10 25 42 55 73 30 30
55 62 55 70 0 8 20 38 45 67 25 29 45 57 45 63 0 6 11 22 25 36 40 39 100 114
125 156 13 22 41 60 62 85 22 26 48 70 59 100 25 66 141 207 186 225 18 8 52
14 75 14 36 0 52 7 92 40 27 22 59 40 72 40 41 0 94 27 94 48 0 19 26 46 73
76 19 12 27 24 25 39 -2 17 6 27 42 44 29 14 44 27 42 37 -2 9 4 24 13 33 9 8
13 19 8 23 -11 11 -100 17 -122 8z"/>
<path d="M11290 8703 c0 -9 7 -24 16 -34 23 -26 41 -118 54 -284 19 -237 23
-250 107 -335 40 -41 110 -152 127 -205 9 -26 20 -84 23 -129 6 -75 9 -83 44
-121 21 -23 42 -53 48 -67 6 -17 20 -27 39 -31 19 -4 58 -33 104 -77 40 -39
85 -78 99 -87 15 -9 34 -28 43 -44 9 -15 35 -42 57 -60 23 -18 48 -48 55 -66
16 -37 113 -140 159 -168 65 -39 253 -185 303 -234 l52 -52 0 425 c0 305 -3
426 -11 426 -26 0 -88 63 -118 120 -44 83 -128 170 -199 208 -89 47 -105 39
-55 -26 23 -31 25 -37 13 -56 -7 -11 -16 -61 -19 -111 l-6 -90 -28 0 c-26 0
-31 7 -58 70 -17 38 -36 77 -44 85 -7 8 -20 31 -28 50 -27 65 -94 138 -154
167 -49 25 -64 40 -124 128 -47 68 -77 126 -95 180 -15 44 -48 121 -72 170
-57 113 -154 213 -239 245 -66 25 -93 26 -93 3z"/>
<path d="M3520 8584 c0 -8 9 -14 20 -14 11 0 20 4 20 9 0 5 -9 11 -20 14 -13
3 -20 0 -20 -9z"/>
<path d="M9433 8484 c-3 -8 -1 -20 6 -27 17 -17 13 -29 -9 -22 -11 3 -29 4
-39 0 -17 -5 -19 -13 -15 -69 3 -49 1 -68 -11 -79 -8 -9 -15 -29 -15 -46 0
-24 4 -31 20 -31 11 0 20 6 20 14 0 7 7 19 15 26 17 14 20 60 4 60 -6 0 -4 7
5 15 20 21 36 19 36 -5 0 -23 13 -25 59 -9 26 9 31 16 31 43 0 18 5 37 12 44
22 22 -13 43 -84 51 -5 1 -8 12 -8 26 0 28 -17 34 -27 9z"/>
<path d="M11890 8191 c0 -5 3 -17 6 -25 8 -20 124 -110 131 -102 10 9 -48 77
-73 86 -13 5 -24 14 -24 19 0 6 -9 15 -20 21 -12 6 -20 7 -20 1z"/>
<path d="M9265 8159 c-5 -16 -12 -19 -35 -14 -24 5 -29 3 -32 -17 -2 -15 -11
-24 -25 -26 -25 -4 -31 -33 -10 -50 8 -7 19 -6 37 3 14 8 35 14 48 15 12 0 22
5 22 12 0 6 9 21 20 33 12 13 17 28 13 43 -7 28 -30 29 -38 1z"/>
<path d="M10757 6009 c-16 -16 -27 -37 -25 -47 3 -17 51 -32 76 -24 18 6 15
67 -5 84 -17 15 -20 13 -46 -13z"/>
</g>
</svg>
