<?xml version="1.0" standalone="no"?>
<!DOCTYPE svg PUBLIC "-//W3C//DTD SVG 20010904//EN"
 "http://www.w3.org/TR/2001/REC-SVG-20010904/DTD/svg10.dtd">
<svg version="1.0" xmlns="http://www.w3.org/2000/svg"
 width="72000.000000pt" height="40500.000000pt" viewBox="0 0 72000.000000 40500.000000"
 preserveAspectRatio="xMidYMid meet">
<metadata>
Created by potrace 1.16, written by Peter Selinger 2001-2019
</metadata>
<g transform="translate(0.000000,40500.000000) scale(3.750000,-3.750000)"
fill="#000000" stroke="none">
<path d="M920 10703 c0 -54 5 -197 10 -318 5 -121 17 -395 25 -610 9 -214 20
-442 23 -505 l7 -115 170 -6 c94 -4 337 -10 540 -13 204 -4 469 -9 590 -11
411 -8 920 -13 875 -8 -54 5 -79 23 -33 23 l32 0 -2 75 c-2 54 1 75 11 75 6 0
12 5 12 10 0 9 -14 14 -32 11 -5 0 -8 3 -8 9 0 5 -5 10 -11 10 -27 0 -38 36
-39 121 l0 86 86 7 c47 3 89 4 93 2 4 -3 5 8 3 25 -4 24 -9 29 -33 29 -16 0
-29 5 -29 10 0 6 16 10 35 10 28 0 35 4 35 20 0 16 -7 20 -30 20 -16 0 -30 5
-30 10 0 6 -9 10 -20 10 -24 0 -27 13 -35 143 -5 80 -4 97 8 97 18 0 33 130
16 141 -8 5 -8 8 0 13 6 4 11 25 11 47 0 32 3 39 20 39 11 0 20 -4 20 -10 0
-5 11 -10 25 -10 14 0 25 5 25 10 0 6 7 10 15 10 8 0 16 10 17 23 0 12 2 28 2
35 1 8 9 18 19 23 9 6 17 17 17 24 0 10 10 15 30 15 25 0 30 -4 30 -25 0 -16
6 -25 15 -25 10 0 15 10 15 31 0 31 0 31 41 24 30 -5 44 -3 50 6 6 10 9 8 9
-8 0 -14 6 -23 15 -23 8 0 15 -4 15 -10 0 -5 13 -10 29 -10 26 0 29 4 37 43
l8 42 4 -57 c2 -32 7 -58 12 -58 5 0 11 -8 15 -19 3 -12 18 -21 41 -24 38 -6
94 -28 94 -37 -1 -15 -78 -91 -95 -94 -25 -4 -58 -57 -49 -80 5 -14 42 -22 82
-17 6 1 12 -3 12 -9 0 -21 32 -9 61 25 17 19 40 35 51 35 18 0 19 -5 14 -67
-3 -38 -9 -107 -12 -155 -3 -49 -9 -88 -14 -88 -4 0 -10 -19 -13 -42 -3 -23
-13 -47 -21 -54 -9 -6 -16 -23 -16 -37 0 -19 -6 -26 -22 -29 -13 -2 -24 -11
-26 -20 -5 -26 36 -23 59 4 l19 21 1 -24 c1 -13 1 -27 1 -30 -1 -4 8 -5 18 -2
24 6 25 -1 4 -79 -8 -33 -14 -76 -12 -97 3 -35 4 -36 43 -36 28 0 40 5 42 15
1 8 4 35 8 60 5 39 10 48 34 56 23 9 29 19 34 54 8 61 45 128 100 181 50 50
74 109 43 109 -9 0 -24 -10 -34 -22 -9 -12 -32 -37 -49 -56 -18 -19 -33 -39
-33 -44 0 -4 -4 -8 -10 -8 -5 0 -10 19 -10 43 0 37 6 49 45 90 24 26 51 47 59
47 9 0 23 11 32 25 9 14 22 25 30 25 7 0 11 6 8 13 -7 20 24 43 38 29 16 -16
36 -15 54 3 11 11 14 26 8 60 -7 50 -28 60 -37 18 -3 -16 -15 -38 -27 -51 -17
-18 -25 -21 -36 -11 -12 10 -18 8 -29 -7 -8 -10 -15 -15 -15 -10 0 14 -40 -26
-40 -41 0 -7 -7 -13 -16 -13 -9 0 -14 7 -13 18 3 23 -10 52 -35 80 -17 19 -18
26 -8 40 7 9 15 25 18 35 4 9 10 17 15 17 5 0 9 7 9 15 0 8 11 31 25 51 22 33
23 37 8 52 -9 9 -22 32 -30 51 -16 36 -8 51 29 51 9 0 20 10 23 21 4 12 10 17
14 12 8 -13 121 -28 121 -16 0 15 80 93 95 93 26 0 85 44 91 68 9 32 -17 58
-42 44 -11 -5 -30 -8 -44 -7 -14 2 -35 -3 -46 -11 -18 -11 -25 -11 -40 1 -18
14 -18 15 7 37 14 13 33 35 43 51 9 15 25 27 35 27 10 0 21 7 25 15 3 8 15 15
26 15 12 0 25 10 31 24 14 30 49 47 72 34 10 -5 37 -6 62 -2 41 6 46 9 55 43
5 20 10 43 10 52 0 9 9 28 21 43 l20 26 -110 0 c-104 0 -111 -1 -111 -20 0
-11 5 -20 12 -20 9 0 9 -3 0 -12 -7 -7 -12 -19 -12 -28 0 -16 -87 -77 -188
-132 -41 -22 -57 -26 -72 -18 -10 5 -28 10 -39 10 -16 0 -21 6 -21 28 0 15 -4
32 -8 37 -9 13 -62 17 -62 4 0 -5 -7 -9 -15 -9 -8 0 -15 6 -15 13 0 9 -2 9 -8
1 -4 -7 -18 -14 -32 -17 -25 -4 -25 -4 3 -6 33 -1 36 -18 3 -27 -39 -9 -41
-53 -5 -87 28 -24 29 -29 15 -43 -9 -8 -20 -12 -26 -9 -5 3 -10 2 -10 -4 0 -5
-13 -12 -28 -16 -16 -3 -46 -24 -67 -45 -36 -37 -85 -54 -85 -30 0 6 6 10 13
10 9 0 9 2 0 8 -6 4 -13 25 -15 47 l-3 40 -77 3 -78 3 0 -41 c0 -29 -4 -40
-15 -40 -8 0 -15 5 -15 10 0 6 -9 10 -20 10 -16 0 -20 7 -20 30 0 19 5 30 14
30 11 0 15 19 18 80 l3 79 -35 4 c-23 2 -15 4 23 5 31 1 57 5 57 10 0 4 15 7
33 7 l32 0 3 68 3 67 -1411 0 -1410 0 0 -97z m2640 -183 c0 -26 -5 -40 -13
-40 -9 0 -11 12 -9 40 2 22 8 40 13 40 5 0 9 -18 9 -40z m600 -8 c0 -16 -37
-52 -53 -52 -28 0 -24 25 7 42 35 19 46 22 46 10z m80 -91 c0 -11 -12 -23 -30
-31 -16 -7 -30 -16 -30 -21 0 -5 -4 -9 -10 -9 -5 0 -10 8 -10 18 0 13 40 45
78 61 1 1 2 -7 2 -18z m-420 -125 c0 -13 6 -27 13 -29 21 -9 -15 -27 -55 -27
-38 0 -38 0 -38 40 l0 40 40 0 c36 0 40 -3 40 -24z m275 -37 c7 -10 -21 -38
-37 -39 -12 0 -9 19 5 35 15 17 24 18 32 4z m-74 -703 c-6 -14 -13 -26 -16
-26 -7 0 -1 32 9 48 13 21 17 7 7 -22z m-1033 -423 c-21 -2 -55 -2 -75 0 -21
2 -4 4 37 4 41 0 58 -2 38 -4z"/>
<path d="M4272 10775 c-12 -13 -24 -35 -28 -49 -4 -17 -12 -23 -31 -23 -25 0
-43 -17 -43 -40 0 -7 11 -13 25 -13 14 0 25 3 25 8 0 4 10 12 23 18 40 20 222
116 226 120 2 2 -36 4 -86 4 -83 0 -91 -2 -111 -25z"/>
<path d="M4857 10653 c-4 -3 -7 -16 -7 -29 0 -17 4 -21 20 -17 21 6 24 12 14
37 -7 17 -16 20 -27 9z"/>
<path d="M4887 10523 c-11 -20 -19 -75 -9 -69 12 7 27 65 19 72 -3 3 -7 2 -10
-3z"/>
<path d="M4622 10453 c4 -37 21 -39 35 -3 11 28 10 30 -14 30 -21 0 -24 -4
-21 -27z"/>
<path d="M4694 10385 c4 -16 7 -36 8 -43 2 -19 23 -8 26 14 2 11 -7 29 -19 40
l-22 19 7 -30z"/>
<path d="M4182 9948 c-7 -7 -12 -16 -12 -20 0 -15 15 -8 28 12 13 22 3 27 -16
8z"/>
<path d="M4760 9896 c-14 -37 -14 -104 1 -89 17 17 31 95 20 106 -7 7 -14 1
-21 -17z"/>
<path d="M4912 9853 c-7 -12 -12 -33 -12 -47 0 -28 19 -76 31 -76 4 0 14 -3
23 -6 12 -5 16 0 15 17 0 22 -1 23 -9 4 -10 -26 -16 -11 -28 70 -7 54 -9 58
-20 38z"/>
<path d="M4536 9838 c-3 -7 -11 -33 -18 -58 -15 -46 -13 -80 3 -80 5 0 12 18
15 40 4 22 11 43 15 46 13 7 11 64 -1 64 -6 0 -12 -6 -14 -12z"/>
<path d="M4457 9804 c-4 -4 -7 -14 -7 -23 0 -11 3 -12 11 -4 6 6 10 16 7 23
-2 6 -7 8 -11 4z"/>
<path d="M4143 9549 c-30 -19 -53 -62 -53 -100 0 -35 83 -97 89 -67 7 32 9
188 3 188 -4 0 -21 -9 -39 -21z"/>
<path d="M4723 9482 c-30 -5 -29 -16 2 -30 21 -10 27 -9 32 4 7 20 -6 31 -34
26z"/>
<path d="M4600 9422 c0 -16 -9 -37 -20 -47 -11 -10 -23 -33 -26 -52 -4 -19
-12 -37 -19 -40 -7 -2 -19 -17 -25 -33 -10 -24 -9 -33 4 -52 13 -19 16 -19 16
-5 0 10 7 20 15 23 8 4 15 15 15 26 0 11 11 39 25 62 28 49 44 130 26 140 -7
5 -11 -3 -11 -22z"/>
<path d="M3738 9432 c-12 -2 -18 -12 -17 -30 1 -17 3 -21 6 -9 2 9 8 17 13 17
5 0 11 -8 13 -17 4 -17 5 -17 6 0 0 9 6 17 11 17 14 0 12 17 -2 22 -7 2 -21 3
-30 0z"/>
<path d="M4906 9418 c-3 -10 -8 -25 -11 -34 -7 -23 6 -144 16 -144 4 0 13 24
20 54 10 44 9 61 -4 97 -11 33 -16 39 -21 27z"/>
<path d="M4017 9366 c-7 -17 11 -118 22 -129 21 -21 31 6 29 72 -3 63 -5 68
-25 68 -12 0 -24 -5 -26 -11z"/>
<path d="M4130 9336 c0 -14 5 -28 10 -31 6 -3 10 -3 10 2 0 4 3 18 6 31 5 16
2 22 -10 22 -10 0 -16 -9 -16 -24z"/>
<path d="M15050 9194 c-58 -12 -107 -23 -110 -25 -3 -1 -9 -3 -15 -4 -23 -5
-51 -19 -70 -36 -23 -22 -95 -76 -175 -131 -66 -46 -142 -111 -184 -157 -17
-19 -61 -66 -99 -105 -51 -54 -73 -87 -92 -136 -14 -36 -25 -75 -25 -86 0 -12
-7 -27 -15 -34 -8 -7 -15 -18 -15 -25 0 -14 -58 -45 -84 -45 -18 0 -77 -55
-95 -88 -18 -33 -13 -75 14 -126 14 -26 25 -52 25 -58 0 -6 16 -33 36 -60 32
-43 37 -56 36 -104 0 -43 7 -68 35 -122 20 -37 39 -80 43 -97 5 -16 24 -68 44
-115 20 -46 36 -88 36 -92 0 -4 -12 -8 -26 -8 -14 0 -41 -7 -60 -16 -35 -17
-35 -17 -33 -78 3 -91 16 -125 69 -183 27 -30 51 -67 55 -85 4 -18 19 -49 34
-68 14 -19 33 -48 41 -63 34 -66 90 -99 135 -79 30 14 30 14 61 -95 22 -76 85
-219 103 -233 13 -10 51 -70 51 -79 0 -6 -12 -13 -27 -17 -27 -5 -90 -31 -198
-79 -27 -13 -89 -36 -136 -53 -89 -31 -278 -107 -364 -147 -222 -101 -219 -99
-313 -239 -38 -57 -77 -125 -87 -152 -10 -27 -24 -63 -31 -80 -8 -18 -19 -67
-25 -110 -5 -44 -14 -95 -19 -114 -5 -19 -16 -84 -25 -145 -9 -60 -23 -135
-31 -165 -17 -65 -19 -277 -3 -335 7 -22 16 -92 22 -156 l10 -116 -37 -99
c-21 -55 -41 -108 -46 -119 -4 -11 -15 -58 -24 -104 -8 -46 -20 -87 -25 -90
-6 -4 -17 -22 -25 -42 -8 -19 -34 -62 -58 -94 -97 -135 -135 -281 -82 -320 18
-13 18 -14 2 -20 -10 -4 -18 -17 -18 -30 0 -14 -13 -33 -35 -49 -30 -23 -41
-42 -51 -88 -1 -5 -2 -15 -3 -24 0 -10 -7 -14 -15 -11 -8 3 -16 2 -18 -2 -2
-4 -37 -28 -78 -53 -65 -39 -79 -44 -110 -37 -63 14 -211 31 -216 26 -16 -16
26 -49 112 -91 104 -50 193 -125 214 -180 11 -30 11 -116 0 -116 -11 0 -30 49
-30 74 0 44 -22 48 -55 10 -17 -19 -42 -49 -57 -66 -16 -18 -28 -38 -28 -45 0
-23 -35 -49 -91 -68 -30 -11 -62 -26 -72 -34 -15 -13 -19 -12 -36 5 -22 24
-52 161 -60 274 -6 86 -21 130 -45 130 -7 0 -21 9 -31 20 -15 17 -16 24 -7 46
17 36 16 38 -30 84 -37 36 -43 39 -57 25 -17 -17 -18 -127 -1 -171 6 -14 10
-78 10 -142 0 -160 -23 -214 -95 -224 -14 -2 -26 10 -46 45 -24 44 -27 61 -31
190 -3 78 -2 169 2 202 5 40 4 66 -4 78 -12 20 -105 57 -142 57 -31 0 -34 -20
-34 -216 0 -94 -3 -226 -7 -292 -7 -140 -9 -142 -89 -96 -81 48 -121 131 -134
279 -13 146 -15 151 -74 184 -116 66 -136 53 -136 -87 l-1 -97 -20 38 c-11 21
-23 61 -26 88 -6 53 -31 80 -83 92 -14 3 -40 11 -58 18 -28 12 -34 12 -43 -1
-11 -16 -3 -179 11 -214 4 -12 14 -41 21 -66 7 -25 16 -49 21 -54 4 -6 8 -21
8 -34 0 -57 57 -102 129 -102 42 0 77 -27 97 -75 16 -40 26 -50 72 -71 29 -13
59 -24 66 -24 7 0 19 -7 26 -15 7 -8 25 -15 41 -15 16 0 29 -4 29 -10 0 -5 6
-10 14 -10 8 0 16 -6 18 -12 3 -8 22 -12 53 -10 26 1 45 -1 41 -5 -4 -4 8 -15
26 -24 l33 -17 -35 -16 c-35 -15 -35 -15 53 -16 48 0 87 2 87 4 0 3 -4 16 -10
30 -5 14 -6 26 -2 26 7 0 42 -95 42 -111 0 -2 -118 -5 -263 -6 -412 -4 -730
-12 -876 -24 -146 -11 -157 -8 -146 40 7 29 -8 41 -53 41 -23 0 -40 -7 -53
-22 -13 -17 -18 -19 -19 -8 0 12 -2 12 -9 2 -14 -23 -19 17 -35 278 -34 538
-59 1180 -45 1145 4 -11 8 -35 8 -54 1 -27 4 -31 14 -22 8 6 17 8 20 4 4 -3
24 -7 45 -8 21 -1 44 -5 50 -9 9 -5 12 6 11 41 -1 56 -15 176 -18 151 -1 -19
-21 -26 -21 -8 0 6 -25 10 -55 10 l-55 0 0 -42 c0 -23 -2 -39 -4 -37 -9 10
-27 264 -45 654 -11 231 -25 508 -31 615 -5 107 -12 276 -15 375 -4 158 -3
175 8 135 l13 -45 17 26 c20 31 87 55 99 36 10 -16 8 91 -2 123 -4 14 -8 20
-9 14 -1 -8 -22 -12 -56 -12 -30 1 -61 -4 -68 -11 -18 -14 -30 130 -58 684
-11 220 -28 573 -39 785 -11 212 -29 581 -41 820 -12 239 -23 437 -25 439 -13
14 -12 -42 6 -385 11 -208 24 -478 30 -599 5 -121 12 -254 15 -295 3 -41 10
-165 15 -275 5 -110 19 -378 30 -595 11 -217 24 -492 30 -610 6 -118 15 -294
20 -390 6 -96 17 -321 25 -500 8 -179 17 -359 20 -400 6 -83 53 -1025 90
-1790 3 -63 10 -189 15 -280 5 -91 12 -230 16 -310 4 -80 8 -163 9 -185 2 -22
6 -109 10 -192 l8 -153 -102 -2 c-55 -1 -115 -2 -133 -3 -17 -1 -198 -5 -402
-9 -204 -3 -524 -11 -711 -16 -187 -5 -567 -14 -845 -20 -278 -6 -689 -15
-915 -20 -393 -9 -600 -14 -1185 -25 -146 -3 -314 -7 -375 -10 -60 -3 -216 -7
-345 -10 -129 -3 -329 -7 -445 -10 -115 -3 -430 -10 -700 -15 -269 -6 -672
-14 -895 -20 -223 -5 -522 -12 -665 -15 -143 -3 -456 -10 -695 -15 -239 -5
-552 -12 -695 -15 -143 -3 -345 -7 -450 -10 -104 -3 -305 -8 -445 -10 -140 -3
-266 -8 -279 -11 l-24 -5 7 88 c11 145 24 391 51 903 14 267 27 510 30 540 2
30 7 111 10 180 3 69 10 204 15 300 6 96 15 267 20 380 6 113 12 230 15 260 3
30 10 159 15 285 6 127 17 345 25 485 15 257 43 764 70 1290 9 157 20 357 25
445 10 159 12 386 3 353 -6 -24 -20 -23 -28 2 -7 22 -34 39 -73 46 -15 3 -29
10 -33 16 -10 16 -17 -66 -39 -452 -11 -195 -24 -413 -30 -485 -5 -71 -13
-206 -16 -300 -3 -93 -14 -296 -25 -450 -10 -154 -19 -317 -19 -362 0 -45 -4
-126 -10 -180 -5 -54 -16 -242 -25 -418 -8 -176 -20 -381 -25 -455 -10 -131
-30 -475 -50 -865 -5 -104 -12 -212 -15 -240 -5 -45 -28 -467 -55 -1010 -6
-110 -15 -261 -20 -335 -6 -74 -10 -166 -10 -205 l0 -70 152 3 c84 1 245 6
358 10 113 4 244 6 293 4 l87 -3 0 -187 c1 -103 2 -214 4 -247 2 -33 7 -172
10 -310 3 -137 9 -328 12 -423 l6 -172 3598 0 3598 0 6 31 c9 47 8 49 -19 49
-14 0 -25 5 -25 10 0 6 -7 10 -15 10 -10 0 -15 10 -15 30 0 24 -4 30 -21 30
-26 0 -44 18 -53 53 -6 26 -5 27 34 27 40 0 40 0 40 40 l0 39 -57 3 c-53 3
-56 4 -40 20 9 9 17 26 17 37 0 18 6 21 50 21 28 0 50 5 50 10 0 6 9 10 20 10
13 0 24 10 31 27 13 36 25 43 77 43 41 0 42 1 42 35 0 28 -4 35 -20 35 -17 0
-20 7 -20 40 l0 40 45 0 c43 0 45 -1 45 -30 0 -28 2 -30 40 -30 22 0 40 -4 40
-10 0 -5 13 -10 30 -10 25 0 29 4 29 27 0 75 17 187 29 191 6 2 12 -1 12 -6 0
-19 27 -20 111 -6 156 25 177 30 193 47 15 15 14 18 -10 42 -23 23 -33 26 -78
23 -28 -2 -54 -7 -57 -11 -3 -4 -19 -10 -35 -13 -16 -3 -33 -9 -38 -14 -10
-10 2 -32 14 -25 5 3 11 1 15 -5 3 -5 3 -10 -2 -10 -4 -1 -41 -5 -81 -9 -56
-7 -80 -6 -101 5 -15 8 -55 14 -89 15 -39 1 -66 7 -73 15 -13 16 4 19 82 15
40 -2 46 0 57 24 16 35 16 35 -13 35 -14 0 -25 5 -25 10 0 6 9 10 19 10 19 0
35 23 24 34 -4 3 -20 6 -36 6 -22 0 -28 4 -23 15 3 9 0 15 -8 15 -8 0 -17 6
-19 13 -4 8 -6 6 -6 -4 -1 -12 -8 -15 -26 -11 -14 2 -25 8 -25 12 0 5 -14 22
-30 38 -17 17 -30 40 -30 51 0 11 -7 24 -16 29 -13 7 -14 13 -6 28 6 10 12 13
12 7 0 -23 18 -14 24 12 4 16 13 25 26 25 10 0 22 5 25 10 4 6 10 8 15 5 4 -3
13 2 19 9 7 8 8 17 4 19 -5 3 -182 6 -393 6 -212 1 -405 1 -430 2 -189 4
-3524 -4 -3935 -9 -480 -6 -523 -8 -549 -25 -15 -10 -83 -64 -151 -120 -119
-99 -194 -159 -276 -222 -21 -16 -62 -49 -91 -72 -63 -49 -101 -62 -123 -40
-8 9 -15 23 -15 31 0 9 -7 16 -16 16 -12 0 -15 6 -10 26 4 15 3 23 -2 20 -9
-6 -16 16 -29 94 -3 19 -12 39 -19 43 -8 5 -14 25 -15 50 0 62 -13 120 -24
116 -6 -2 -11 26 -13 71 -3 104 -8 119 -44 134 -27 12 -9 14 163 20 107 4 255
10 329 13 74 3 185 5 245 5 129 -2 231 9 228 23 -2 6 -7 10 -13 10 -16 0 -12
20 4 23 10 2 20 -7 26 -23 l10 -26 127 4 c71 3 134 5 141 5 6 1 24 0 40 -1 24
-1 673 12 797 16 43 2 50 5 56 27 6 25 8 23 22 -20 4 -12 6 -11 6 3 1 21 5 21
37 1 21 -15 45 -16 177 -10 150 7 205 8 712 21 143 3 305 8 359 10 55 2 244 7
420 11 177 4 332 11 345 16 l23 8 -36 38 c-42 43 -48 60 -44 128 l3 49 290 7
c160 3 524 11 810 17 852 19 1387 31 1805 41 455 11 940 11 840 0 -36 -4 -123
-8 -194 -9 -71 0 -127 -3 -125 -6 3 -2 65 -5 139 -6 101 -1 129 -4 113 -12
-30 -13 -29 -25 2 -33 25 -6 35 -24 13 -24 -16 0 -1 -13 20 -18 53 -11 234
-22 277 -17 98 11 250 12 257 1 5 -7 23 -4 57 11 l49 21 6 -22 c13 -48 7 -75
-18 -82 -23 -5 -92 -1 -181 11 -28 4 -36 2 -25 -5 11 -7 0 -10 -40 -10 -39 0
-51 -3 -40 -10 10 -7 -39 -10 -150 -11 -91 -1 -150 -4 -132 -6 40 -5 42 -23 2
-23 -20 0 -30 -5 -30 -15 0 -8 7 -15 15 -15 8 0 15 -9 15 -20 0 -11 6 -20 14
-20 7 0 16 -13 20 -30 5 -27 10 -30 41 -30 l35 0 0 50 c0 43 3 50 20 50 18 0
20 -7 20 -54 0 -40 4 -55 16 -60 8 -3 12 -11 9 -17 -4 -5 0 -16 8 -22 19 -16
28 -55 13 -61 -6 -2 12 -2 39 1 28 3 56 10 63 16 9 7 16 7 24 -1 7 -7 28 -12
48 -12 20 0 39 -2 42 -5 6 -6 325 -13 1053 -21 308 -4 572 -7 587 -8 31 -1 67
-35 60 -55 -3 -10 2 -12 22 -9 19 4 29 0 36 -13 15 -26 13 -29 -19 -29 -30 0
-41 -14 -41 -52 0 -14 6 -19 23 -18 12 1 38 1 57 0 l35 -2 -35 -10 c-19 -6
-49 -17 -67 -24 -17 -8 -36 -14 -41 -14 -6 0 -12 -4 -14 -8 -6 -15 -129 -63
-188 -74 l-60 -12 16 -24 c15 -22 14 -25 -5 -39 -12 -8 -21 -20 -21 -27 0 -7
-9 -25 -20 -39 l-20 -25 30 -11 30 -10 0 -84 c0 -46 3 -87 7 -90 10 -11 34 54
27 75 -14 45 49 62 120 33 19 -8 59 -20 88 -26 l51 -11 -76 -73 c-42 -40 -77
-77 -77 -83 0 -10 -60 -42 -79 -42 -6 0 -11 -4 -11 -8 0 -11 -123 -91 -162
-104 -36 -13 -61 -25 -98 -50 -14 -9 -45 -19 -69 -23 -54 -8 -150 -51 -173
-78 -10 -11 -18 -16 -18 -10 0 9 -53 -1 -105 -21 -11 -4 -33 -13 -50 -19 -16
-5 -37 -16 -46 -24 -8 -7 -23 -13 -31 -13 -24 0 -48 -11 -48 -21 0 -18 -41
-49 -64 -49 -31 0 -56 -10 -56 -21 0 -5 1332 -8 3223 -7 l3222 3 2 330 c0 182
6 418 12 525 10 183 23 481 55 1310 8 190 11 365 8 390 -7 43 -9 45 -47 51
-22 4 -110 10 -195 14 -176 7 -190 10 -190 33 0 21 21 123 65 307 59 244 103
446 125 570 12 66 25 134 30 150 5 17 11 41 13 55 1 14 26 56 54 94 84 113
105 161 111 244 4 58 0 84 -18 134 l-22 61 32 121 c18 67 43 157 56 201 55
186 70 323 56 511 -9 113 -12 125 -48 192 -101 187 -143 250 -220 331 -44 47
-89 100 -98 116 -24 40 -218 189 -361 275 -63 39 -117 70 -121 70 -3 0 -18 8
-32 19 -27 19 -67 42 -157 91 -90 49 -159 93 -221 141 -34 26 -81 57 -105 70
-24 12 -69 39 -100 60 -30 20 -73 47 -95 59 -39 23 -124 52 -124 44 0 -18 35
-66 62 -85 59 -41 98 -83 98 -104 0 -48 -107 -182 -300 -376 -189 -190 -238
-235 -426 -385 -126 -101 -128 -101 -152 -60 -16 27 -25 33 -42 29 -11 -3 -25
-14 -30 -24 -6 -10 -26 -25 -44 -34 -42 -20 -48 -34 -34 -73 9 -22 9 -37 1
-54 -10 -23 -10 -23 -47 17 -67 74 -161 190 -200 247 -46 67 -62 148 -30 146
11 -1 53 21 94 49 41 28 93 60 115 72 42 23 60 34 142 91 28 19 84 57 124 84
41 27 76 52 79 55 3 4 22 20 43 35 39 30 47 53 22 62 -13 6 -13 8 2 23 39 35
81 109 93 161 7 30 32 110 56 177 48 134 53 169 27 189 -14 11 -15 15 -5 22 7
5 10 16 7 24 -7 18 -35 28 -79 28 -27 0 -28 -2 -22 -34 6 -31 3 -37 -34 -66
-22 -17 -40 -38 -40 -46 0 -15 -16 -19 -24 -5 -8 12 -58 1 -79 -17 -13 -11
-16 -24 -11 -49 4 -23 1 -41 -10 -58 -9 -14 -14 -29 -12 -34 5 -8 -21 -39 -58
-69 -9 -7 -42 -22 -73 -33 -53 -18 -132 -20 -208 -5 -11 3 -23 5 -27 5 -37 4
43 83 125 124 33 17 59 37 63 50 4 11 13 27 20 34 7 8 16 30 20 51 3 20 12 47
20 59 8 12 14 27 14 32 0 15 -46 6 -65 -13 -10 -9 -30 -20 -46 -23 -16 -3 -32
-10 -35 -14 -7 -12 -64 -11 -64 1 0 6 6 10 14 10 8 0 16 7 20 15 3 8 12 15 21
15 8 0 15 4 15 9 0 5 21 19 46 31 41 19 57 21 120 15 41 -4 74 -9 74 -11 0 -2
-9 -13 -21 -25 -23 -23 -21 -43 7 -46 10 -1 31 -5 45 -9 24 -5 27 -2 38 39 11
39 11 48 -6 77 -31 55 -38 67 -51 83 -7 8 -10 26 -7 39 8 32 -16 52 -51 44
-26 -7 -59 -40 -79 -81 -17 -32 -176 -48 -175 -17 0 4 13 22 29 39 19 22 30
48 35 82 3 27 13 63 22 80 24 49 8 61 -82 61 -41 0 -93 -5 -116 -11 -69 -18
-117 0 -146 54 l-23 43 22 50 c17 41 20 61 15 121 -4 51 -1 84 9 114 8 23 15
62 15 88 0 25 6 53 13 62 12 16 51 23 41 7 -10 -16 99 -148 122 -148 3 0 18
-8 32 -18 95 -65 238 -83 297 -37 18 13 35 22 38 19 10 -10 66 57 69 84 3 25
7 28 62 34 32 4 61 10 64 13 13 12 0 100 -16 112 -15 11 -15 12 -2 13 24 0 37
57 25 105 -23 90 -127 144 -285 145 -99 1 -188 -7 -205 -20 -5 -4 -27 -13 -47
-19 -45 -15 -60 -32 -67 -78 -5 -31 -11 -38 -39 -45 -25 -7 -32 -14 -32 -33 0
-31 -13 -38 -51 -30 -28 6 -30 10 -24 34 16 65 13 75 -30 82 -22 4 -51 2 -65
-4 -37 -15 -51 -10 -98 41 -46 50 -43 62 15 60 42 -2 52 8 27 27 -18 14 -18
14 6 16 14 1 48 2 77 3 58 1 102 26 46 26 -37 0 -63 9 -63 21 0 5 12 9 28 9
32 0 57 14 49 27 -3 5 8 18 26 28 43 25 77 57 77 73 0 7 16 20 35 28 23 9 33
19 29 27 -4 7 -4 9 1 5 4 -4 23 1 40 12 18 11 39 18 47 15 8 -3 21 1 28 10 7
8 17 15 22 15 6 0 24 6 41 13 18 8 64 21 102 31 60 14 82 15 150 5 44 -6 86
-16 92 -21 14 -11 7 -32 -7 -23 -4 3 -14 -2 -21 -11 -11 -14 -10 -16 6 -14 35
4 40 1 80 -47 30 -35 46 -69 67 -142 15 -53 28 -107 28 -120 0 -14 6 -32 13
-40 21 -25 47 -103 47 -141 0 -19 6 -64 14 -100 8 -36 20 -89 27 -119 7 -34 9
-88 4 -152 -4 -69 -3 -99 4 -99 6 0 11 5 11 10 0 6 5 9 12 8 7 -2 15 17 20 47
10 55 29 105 40 105 5 0 8 -6 8 -14 0 -8 6 -16 14 -19 10 -4 16 -24 18 -54 l3
-48 48 -3 c38 -3 49 0 54 15 4 10 13 23 21 29 10 7 12 20 8 40 -10 42 -31 65
-66 73 -38 7 -41 20 -9 42 59 42 92 30 103 -40 8 -50 16 -55 65 -41 50 13 66
53 56 140 -12 99 -80 134 -149 75 -32 -27 -76 -34 -76 -11 0 8 11 24 26 35 29
23 64 131 64 201 0 48 19 113 38 132 7 7 12 17 12 23 0 6 16 26 36 44 19 19
42 44 50 57 9 12 31 30 50 39 43 20 43 26 2 23 -33 -3 -33 -3 -33 42 0 26 -10
65 -24 93 -22 45 -22 49 -7 72 20 30 9 86 -24 128 -14 17 -20 40 -20 74 0 35
-7 58 -25 85 -29 43 -30 48 -11 48 21 0 28 32 20 85 -3 25 -8 45 -10 45 -18 0
-54 -27 -54 -41 0 -13 -9 -17 -37 -17 -37 0 -127 23 -148 38 -21 15 -130 41
-210 51 -78 8 -234 -5 -286 -26 -12 -4 -18 1 -23 19 -5 21 -13 26 -35 26 -18
0 -47 14 -77 36 -74 56 -194 102 -294 112 -72 6 -103 4 -190 -14z m1325 -272
c-8 -8 -25 10 -19 20 4 6 9 5 15 -3 4 -7 6 -15 4 -17z m-1462 -2766 c4 -10 1
-13 -9 -9 -15 6 -19 23 -5 23 5 0 11 -7 14 -14z m80 -110 c20 -21 37 -42 37
-46 0 -4 10 -14 23 -23 12 -8 37 -29 56 -46 19 -17 41 -31 48 -31 7 0 13 -4
13 -10 0 -5 7 -10 15 -10 33 0 12 -21 -47 -49 -81 -37 -170 -101 -183 -129
-19 -42 -21 -22 -8 71 11 80 10 93 -2 103 -11 8 -13 21 -9 43 4 18 2 37 -5 45
-9 10 -9 20 -3 33 6 10 8 43 6 73 -3 47 -2 52 9 35 6 -11 29 -37 50 -59z m301
-661 c15 -15 12 -38 -7 -62 -6 -9 -6 -13 2 -13 6 0 11 -7 11 -16 0 -27 -30 11
-41 51 -15 52 3 71 35 40z m-1153 -845 c11 0 37 -17 58 -37 21 -21 52 -51 69
-66 31 -28 32 -29 26 -100 -6 -64 -4 -75 15 -96 12 -13 21 -31 21 -41 0 -9 4
-20 9 -25 5 -6 11 -39 13 -75 l3 -65 63 0 c55 0 62 -2 62 -20 1 -11 9 -38 20
-60 11 -22 19 -49 20 -60 0 -11 9 -44 20 -73 38 -99 24 -120 -72 -107 -34 5
-58 3 -75 -6 -22 -12 -26 -11 -34 4 -6 9 -18 17 -27 18 -10 0 -12 3 -4 6 6 2
12 9 12 15 0 6 -8 7 -17 4 -10 -4 -14 -4 -11 0 4 4 -3 25 -16 48 -25 43 -42
171 -25 182 18 11 8 44 -18 61 -39 25 -40 27 -48 117 -7 74 -6 81 14 97 24 20
28 61 6 79 -8 7 -15 18 -15 25 0 18 -70 72 -103 80 -33 9 -35 23 -4 35 20 8
20 9 2 10 -21 1 -55 22 -55 34 0 10 43 25 58 20 8 -2 22 -4 33 -4z m1918 -55
l-33 -45 27 -28 c15 -16 27 -32 27 -37 0 -5 7 -17 17 -27 15 -17 14 -18 -15
-19 -44 -2 -49 -3 -58 -11 -11 -11 -34 40 -34 74 0 17 9 46 21 65 12 18 19 40
16 48 -5 13 9 19 51 24 8 0 -1 -19 -19 -44z m-1464 -227 c48 -24 60 -52 25
-63 -11 -3 -20 -11 -20 -16 0 -5 -9 -9 -20 -9 -23 0 -100 66 -100 85 0 30 55
32 115 3z m1425 13 c0 -12 -20 -25 -27 -18 -7 7 6 27 18 27 5 0 9 -4 9 -9z
m-440 -69 c52 -25 73 -42 105 -87 22 -31 52 -72 68 -92 36 -48 41 -72 23 -108
-9 -17 -16 -40 -16 -52 0 -23 -56 -73 -82 -73 -17 0 -46 31 -71 77 -18 34 -23
78 -7 68 5 -3 7 0 4 9 -8 22 -32 27 -73 17 -20 -5 -61 -8 -91 -7 -30 2 -65 -1
-77 -7 -20 -9 -48 -56 -66 -109 -4 -10 -14 -18 -24 -18 -13 0 -14 -3 -5 -12
18 -18 15 -53 -6 -71 -10 -10 -50 -25 -88 -35 -38 -10 -84 -26 -103 -36 -28
-15 -46 -17 -95 -11 -34 4 -79 8 -101 10 -22 2 -51 7 -65 13 -36 14 -100 75
-100 95 0 9 -4 17 -10 17 -5 0 -9 15 -8 33 1 19 -2 39 -6 46 -4 6 -10 28 -12
48 -3 20 -9 42 -15 49 -6 7 -12 38 -14 69 -2 32 -8 62 -14 68 -21 21 -8 30 64
43 67 13 125 25 160 33 22 6 102 11 178 11 76 0 147 5 158 10 43 23 147 39
234 36 75 -3 101 -9 155 -34z m171 -550 c56 -87 60 -114 27 -197 -18 -43 -42
-74 -109 -138 -93 -89 -158 -141 -216 -172 -20 -11 -43 -26 -51 -32 -7 -7 -20
-13 -28 -13 -16 0 -115 -40 -124 -49 -3 -4 -16 -8 -30 -10 -14 -1 -33 -8 -44
-13 -17 -9 -18 -7 -14 16 5 27 -12 51 -33 44 -7 -2 -22 5 -35 16 -31 28 -16
56 31 56 18 0 36 4 40 9 3 5 19 13 37 16 29 7 114 53 148 81 8 6 22 14 31 15
39 9 183 144 173 161 -4 6 -3 8 3 5 6 -4 18 2 28 13 14 16 15 20 4 21 -10 0
-11 2 -1 6 6 2 12 15 12 28 0 12 7 28 15 35 16 13 20 36 8 42 -5 2 -15 17 -24
33 -17 32 -15 55 4 55 7 1 27 14 46 30 19 16 38 27 43 24 5 -3 31 -40 59 -82z
m-1481 -327 c56 -229 56 -228 13 -419 l-18 -79 -114 6 c-62 4 -116 9 -119 12
-3 3 3 20 12 37 14 26 17 53 14 133 -3 86 0 103 16 122 20 23 54 108 63 158 3
17 12 39 18 50 7 11 23 56 36 99 l23 80 22 -75 c12 -41 27 -96 34 -124z m753
113 c50 -55 62 -108 23 -108 -19 0 -22 -4 -19 -24 5 -24 0 -34 -39 -77 -27
-28 -37 -24 -58 27 -33 76 -24 228 15 257 5 4 19 -5 30 -19 11 -14 33 -40 48
-56z m-1852 -185 c52 -85 78 -157 79 -214 0 -58 -18 -98 -39 -85 -8 5 -11 38
-10 102 1 72 -2 99 -14 112 -14 15 -51 122 -42 122 1 0 13 -17 26 -37z m1749
-74 c0 -11 -4 -17 -10 -14 -5 3 -10 13 -10 21 0 8 5 14 10 14 6 0 10 -9 10
-21z m-2723 -435 c-3 -4 -14 -3 -24 0 -15 6 -15 8 -3 16 16 10 39 -4 27 -16z
m-1351 -183 c4 -32 9 -40 17 -32 6 6 29 11 52 11 22 0 47 5 55 10 8 5 11 10 6
10 -5 0 -3 7 4 15 11 13 80 15 529 13 l516 -2 -490 -7 c-269 -3 -504 -7 -521
-8 l-30 -1 10 -77 11 -78 655 -3 c360 -1 661 -4 668 -7 6 -2 12 -20 12 -40 0
-19 4 -35 8 -35 5 0 19 -35 31 -77 62 -223 61 -219 45 -198 -8 11 -17 31 -20
45 -3 14 -9 36 -14 50 -4 14 -14 54 -21 89 -12 62 -16 69 -53 95 -11 7 -20 24
-21 37 -1 22 -7 24 -53 27 -29 2 -60 -2 -69 -7 -10 -6 -12 -11 -5 -11 19 0 14
-18 -7 -25 -10 -3 -21 -15 -24 -25 -4 -15 -14 -20 -40 -20 -19 0 -40 -7 -47
-15 -7 -9 -20 -13 -27 -10 -8 3 -21 -1 -29 -9 -18 -18 -19 -112 -1 -119 6 -3
-3 -8 -20 -12 -18 -4 -33 -12 -33 -18 0 -7 -4 -7 -12 1 -20 20 -43 13 -76 -23
-41 -47 -110 -65 -244 -65 -91 0 -100 -2 -93 -17 3 -10 9 -48 12 -85 4 -51 3
-68 -7 -68 -7 0 -10 -8 -7 -20 5 -19 0 -20 -78 -20 -46 0 -86 -4 -90 -10 -3
-5 -12 -7 -19 -4 -7 3 -16 -3 -20 -13 -3 -10 -9 -25 -12 -33 -5 -13 -4 -13 6
0 10 13 11 12 6 -3 -3 -10 -6 -23 -6 -28 0 -5 -5 -9 -11 -9 -6 0 -17 -7 -25
-15 -22 -21 -57 -19 -72 5 -22 36 -132 19 -132 -21 0 -10 -4 -21 -10 -24 -6
-4 -10 33 -11 102 -1 59 -3 117 -5 128 -1 11 -6 54 -10 95 -6 62 -32 160 -34
125 0 -6 -12 -12 -27 -13 -16 -1 -41 -6 -58 -10 l-30 -9 2 -124 2 -124 -13
150 c-27 292 -36 451 -34 565 0 63 3 99 5 80 2 -19 6 -55 9 -79z m1613 -596
c0 -5 -4 -3 -9 5 -5 8 -9 22 -9 30 0 16 17 -16 18 -35z m40 -135 c0 -9 -4 -8
-9 5 -5 11 -9 27 -9 35 0 9 4 8 9 -5 5 -11 9 -27 9 -35z m15 -37 c11 -40 17
-83 12 -83 -3 0 -9 15 -14 33 -6 17 -13 40 -17 50 -4 10 -3 17 3 17 6 0 13 -8
16 -17z m-1665 -7 c-2 -2 -83 -6 -179 -9 -96 -2 -166 -1 -155 4 20 8 342 13
334 5z m-6185 -152 c4 -9 5 -19 2 -21 -6 -6 -46 20 -46 29 0 15 38 8 44 -8z
m-674 -19 c0 -10 -10 -15 -26 -15 -22 0 -25 2 -14 15 7 8 19 15 26 15 8 0 14
-7 14 -15z m125 -13 c0 -18 -20 -15 -23 4 -3 10 1 15 10 12 7 -3 13 -10 13
-16z m-2907 -41 c4 -11 -3 -13 -28 -8 -18 4 -58 8 -89 9 l-56 1 65 7 c86 9
103 8 108 -9z m2095 5 c4 -9 -3 -16 -18 -19 -30 -5 -38 2 -24 20 15 17 35 17
42 -1z m2650 -26 c3 -13 0 -20 -9 -20 -8 0 -14 9 -14 20 0 11 4 20 9 20 5 0
11 -9 14 -20z m-2063 -41 c0 -6 -9 -8 -22 -3 -29 8 -31 10 -23 23 7 13 45 -4
45 -20z m-214 6 c18 -13 18 -14 -4 -8 -12 3 -25 9 -28 14 -8 14 10 11 32 -6z
m-362 -21 c10 -25 7 -34 -9 -34 -9 0 -15 9 -15 25 0 28 15 34 24 9z m-1330
-59 c6 -17 -19 -45 -40 -45 -14 0 -20 41 -7 53 12 12 41 7 47 -8z m10695 -191
c3 -16 1 -17 -13 -5 -19 16 -21 34 -3 29 6 -3 14 -13 16 -24z m-4099 -23 c0
-5 -13 -11 -30 -13 -29 -4 -37 1 -23 15 10 10 53 8 53 -2z m3943 -360 c39 -18
39 -18 14 -25 -26 -6 -137 34 -137 50 0 11 79 -5 123 -25z m-91 -38 c42 -21
77 -44 78 -51 0 -7 14 -19 31 -26 l31 -13 -46 -6 c-25 -4 -53 -4 -62 0 -9 3
-35 7 -58 7 -33 1 -43 6 -53 26 -14 27 -18 100 -6 100 4 0 42 -17 85 -37z
m236 10 c-10 -2 -28 -2 -40 0 -13 2 -5 4 17 4 22 1 32 -1 23 -4z m-4095 -29
c-4 -19 -81 -27 -127 -13 -25 7 -46 17 -46 21 0 5 39 7 88 4 48 -2 86 -8 85
-12z m205 -56 c2 -12 -7 -17 -43 -20 -57 -4 -92 6 -53 15 15 4 34 4 42 1 11
-4 16 -1 16 11 0 21 34 16 38 -7z m-305 -142 c23 -18 22 -25 -4 -19 -12 3 -24
1 -28 -5 -4 -6 -27 -13 -51 -16 -36 -4 -39 -4 -15 3 l30 9 -27 1 c-17 1 -28 7
-28 15 0 24 95 33 123 12z m8752 -186 c72 -6 158 -13 192 -16 l63 -6 -6 -56
c-4 -31 -8 -58 -8 -59 -1 -2 -40 2 -87 7 -46 5 -104 10 -128 10 -83 0 -31 -13
92 -24 l122 -11 1 -112 0 -113 -30 0 c-17 1 -65 5 -106 11 -41 6 -131 16 -200
22 -69 7 -125 17 -125 22 0 6 10 11 22 13 14 2 20 8 16 18 -4 10 3 14 22 14
22 0 26 -4 22 -20 -3 -11 -1 -20 4 -20 5 0 9 11 9 25 0 17 7 28 22 34 l22 8
-21 12 c-12 6 -35 11 -51 11 -16 0 -35 7 -42 15 -7 8 -24 15 -39 15 l-26 1 29
25 c19 17 37 24 53 21 13 -2 26 -1 28 4 7 10 -79 23 -99 16 -8 -3 -29 -2 -45
3 -24 7 -31 5 -31 -6 0 -9 10 -14 28 -14 19 0 28 -5 29 -17 1 -15 -8 -18 -54
-21 -30 -1 -52 1 -50 5 3 5 -14 6 -38 5 -39 -4 -43 -7 -47 -34 -9 -58 45 -86
164 -88 26 0 50 -5 54 -11 5 -8 -11 -10 -57 -5 -35 3 -98 7 -139 8 l-75 3 -3
30 c-2 17 -1 62 3 101 l6 70 142 -3 c78 -2 161 -8 185 -14 24 -5 48 -6 55 -2
8 5 3 9 -13 13 -23 5 -25 11 -28 69 -3 56 -1 62 15 58 10 -3 77 -11 148 -17z
m-8917 -157 c-10 -2 -26 -2 -35 0 -10 3 -2 5 17 5 19 0 27 -2 18 -5z"/>
<path d="M14153 2869 c-46 -13 -41 -19 18 -19 45 0 49 2 35 15 -8 8 -16 15
-18 14 -2 0 -18 -5 -35 -10z"/>
<path d="M17334 216 c-18 -47 33 -95 74 -70 21 14 27 50 12 70 -16 18 -79 19
-86 0z"/>
<path d="M3780 9193 c0 -9 -3 -13 -6 -10 -4 4 -14 -1 -23 -11 -9 -9 -22 -17
-28 -18 -44 -4 -41 -7 21 -20 67 -15 70 -15 90 5 13 14 16 21 7 21 -8 0 -11 6
-7 17 7 18 -9 33 -36 33 -10 0 -18 -7 -18 -17z"/>
<path d="M15440 9192 c0 -10 50 -35 57 -28 3 2 -9 12 -26 21 -17 8 -31 12 -31
7z"/>
<path d="M4292 9140 c3 -31 1 -51 -6 -54 -6 -2 14 -4 44 -4 30 0 49 2 43 5 -7
2 -13 9 -13 15 0 5 -9 23 -21 39 -11 16 -17 33 -14 39 3 6 -4 10 -16 10 -20 0
-21 -4 -17 -50z"/>
<path d="M5245 9121 c-5 -9 -1 -33 8 -48 5 -7 27 -13 50 -13 26 0 37 4 29 8
-7 5 -10 15 -7 23 4 11 -6 18 -35 26 -22 5 -42 7 -45 4z"/>
<path d="M3708 9103 c12 -2 30 -2 40 0 9 3 -1 5 -23 4 -22 0 -30 -2 -17 -4z"/>
<path d="M4023 9093 c9 -2 25 -2 35 0 9 3 1 5 -18 5 -19 0 -27 -2 -17 -5z"/>
<path d="M987 8858 c-4 -46 -9 -156 -13 -245 l-7 -163 135 0 c74 0 230 -3 346
-7 l210 -6 7 44 c3 24 5 82 3 129 l-3 85 -9 -121 -8 -122 -327 5 c-179 3 -329
8 -333 12 -4 3 -4 59 -1 124 l6 117 656 -5 c361 -2 854 -9 1096 -15 242 -5
580 -12 750 -15 171 -3 429 -7 575 -10 146 -3 524 -10 840 -15 316 -6 726 -15
910 -20 184 -6 403 -9 485 -8 l150 2 -120 6 c-102 4 -116 7 -95 17 l25 12 -27
0 c-23 1 -28 6 -28 25 0 14 -4 28 -10 31 -6 3 -10 1 -10 -5 0 -6 -4 -8 -10 -5
-6 4 -10 -5 -10 -21 0 -35 -7 -28 -11 11 -3 20 0 29 9 28 8 -2 12 11 12 37 l0
40 54 0 c30 0 58 5 61 10 3 6 27 11 53 12 26 1 -97 5 -273 9 -176 4 -507 12
-735 18 -228 6 -534 13 -680 16 -146 3 -461 10 -700 15 -239 5 -662 14 -940
20 -278 6 -795 17 -1150 25 -355 8 -697 15 -761 15 l-116 0 -6 -82z m205 28
c3 -14 1 -31 -3 -38 -5 -7 -9 -32 -9 -55 l0 -43 -71 0 -71 0 6 31 c3 17 6 53
6 80 l0 49 69 0 c65 0 69 -1 73 -24z m164 -44 c7 -15 14 -20 18 -13 10 15 63
14 70 -1 5 -10 7 -10 12 0 3 6 19 12 34 12 16 0 32 5 35 10 3 6 25 9 48 9 30
-2 34 -3 15 -6 -16 -2 -28 -8 -28 -13 0 -14 51 -22 66 -10 7 7 36 10 69 8 43
-3 55 -1 51 9 -3 7 1 13 9 13 8 0 15 -6 15 -14 0 -20 91 -17 107 4 10 13 14
12 32 -7 13 -13 16 -23 9 -25 -14 -5 -20 -38 -7 -38 5 0 9 -4 9 -10 0 -13 -37
-13 -45 -1 -3 6 -24 0 -47 -12 -30 -16 -42 -19 -45 -9 -3 6 -13 12 -24 12 -14
0 -19 7 -19 25 0 14 -4 25 -10 25 -5 0 -10 -10 -10 -22 0 -20 -6 -23 -45 -25
-25 -1 -47 2 -50 6 -2 5 -38 6 -80 3 -49 -3 -80 -1 -89 7 -10 8 -16 9 -21 1
-10 -16 -53 -12 -63 7 -9 16 -11 16 -27 0 -17 -17 -70 -23 -78 -9 -2 4 -2 26
1 50 4 43 5 43 40 40 27 -2 40 -9 48 -26z m767 -19 c10 -22 8 -28 -13 -47 -21
-18 -35 -20 -88 -18 -52 3 -61 6 -52 17 7 8 11 27 10 42 -1 15 -2 30 -1 33 0
3 30 3 67 2 59 -3 66 -6 77 -29z m184 19 c-20 -22 -22 -73 -5 -90 16 -16 1
-29 -20 -16 -20 13 -28 75 -12 104 6 11 20 20 32 20 20 0 20 -1 5 -18z m-92
-1 c-6 -5 -19 -11 -30 -14 -18 -4 -18 -5 3 -6 27 -1 30 -21 2 -21 -11 0 -20
-7 -20 -15 0 -9 9 -15 22 -15 15 0 19 -3 11 -11 -5 -5 -22 -7 -37 -3 -23 5
-26 11 -26 50 l0 44 42 0 c25 0 38 -4 33 -9z m185 -18 c0 -24 2 -25 15 -13 11
11 31 14 82 10 l68 -5 3 -32 c3 -28 0 -33 -19 -33 -17 0 -20 5 -17 25 3 14 1
25 -3 25 -5 0 -9 -11 -9 -25 0 -23 -3 -25 -48 -25 -26 0 -53 5 -60 12 -9 9
-12 9 -12 0 0 -7 -16 -12 -41 -12 l-40 0 5 48 c2 26 5 48 5 50 1 1 17 2 36 2
31 0 35 -3 35 -27z m477 -28 c16 -63 16 -75 0 -75 -7 0 -17 21 -24 48 -6 26
-15 55 -19 66 -5 14 -3 17 11 15 13 -3 23 -20 32 -54z m74 13 c7 -24 14 -47
14 -53 0 -5 4 -15 8 -22 9 -14 -8 -27 -23 -18 -5 3 -10 14 -10 23 -1 9 -7 35
-15 56 -13 38 -12 56 4 56 4 0 14 -19 22 -42z m78 15 c9 -17 10 -17 23 0 11
15 20 16 61 8 27 -5 57 -6 68 -4 18 5 20 1 17 -43 -2 -38 -7 -50 -21 -52 -12
-3 -20 4 -24 17 -3 12 -10 21 -15 21 -5 0 -7 -4 -4 -8 9 -15 -11 -35 -25 -26
-8 5 -22 7 -31 6 -12 -2 -18 3 -18 15 0 12 -8 18 -25 19 -18 1 -25 -3 -23 -14
2 -9 -4 -18 -13 -19 -12 -3 -14 4 -11 34 6 66 20 82 41 46z m547 -9 c20 -30
10 -90 -18 -108 -24 -15 -34 0 -15 22 21 23 22 65 2 82 -15 12 -12 30 5 30 5
0 17 -12 26 -26z m-336 -24 c0 -33 3 -40 20 -40 11 0 20 -4 20 -10 0 -5 -16
-10 -35 -10 l-35 0 0 50 c0 38 4 50 15 50 11 0 15 -11 15 -40z m190 25 c6 -8
10 -29 8 -47 -3 -29 -7 -33 -35 -36 -28 -3 -33 1 -39 22 -3 14 -4 33 0 41 3 9
0 15 -9 15 -9 0 -15 -13 -17 -37 -2 -27 -8 -39 -20 -41 -15 -3 -18 4 -18 37 0
30 -4 41 -16 41 -8 0 -12 4 -9 10 9 15 142 10 155 -5z m83 -42 l5 -43 -36 0
c-28 0 -33 3 -24 12 16 16 15 55 0 61 -8 3 -3 9 12 15 31 12 36 7 43 -45z
m-828 37 c5 -8 11 -7 20 0 8 6 26 10 42 8 25 -3 28 -7 28 -38 0 -24 -5 -35
-15 -35 -10 0 -15 10 -15 28 1 15 -3 27 -7 27 -4 0 -8 -11 -8 -24 0 -30 -18
-44 -26 -21 -6 14 -8 14 -26 -2 -14 -13 -23 -15 -35 -7 -29 18 -38 41 -24 58
15 18 56 21 66 6z m3343 -7 c-10 -2 -26 -2 -35 0 -10 3 -2 5 17 5 19 0 27 -2
18 -5z m112 -122 c0 -20 -6 -21 -90 -21 -80 0 -90 2 -90 18 0 16 11 18 90 21
85 2 90 1 90 -18z m-221 -23 c0 -16 -2 -18 -6 -8 -3 8 -11 18 -17 22 -7 5 -4
8 7 8 11 0 17 -7 16 -22z m-421 -5 c-26 -2 -71 -2 -100 0 -29 2 -8 3 47 3 55
0 79 -1 53 -3z"/>
<path d="M1300 8820 c0 -21 4 -30 13 -27 6 2 12 14 12 27 0 13 -6 25 -12 28
-9 2 -13 -7 -13 -28z"/>
<path d="M1395 8817 c-4 -10 -5 -21 -1 -24 10 -10 18 4 13 24 -4 17 -4 17 -12
0z"/>
<path d="M1483 8814 c-8 -21 1 -27 47 -31 40 -4 55 10 23 21 -10 3 -28 10 -41
16 -18 7 -24 6 -29 -6z"/>
<path d="M1640 8800 c0 -22 7 -25 29 -11 16 10 6 31 -15 31 -8 0 -14 -9 -14
-20z"/>
<path d="M2010 8805 c0 -19 5 -35 10 -35 6 0 10 16 10 35 0 19 -4 35 -10 35
-5 0 -10 -16 -10 -35z"/>
<path d="M2070 8808 c0 -42 5 -47 19 -19 7 13 6 24 -4 37 -13 18 -14 16 -15
-18z"/>
<path d="M2350 8785 c0 -8 5 -15 10 -15 6 0 10 7 10 15 0 8 -4 15 -10 15 -5 0
-10 -7 -10 -15z"/>
<path d="M2453 8773 c9 -2 23 -2 30 0 6 3 -1 5 -18 5 -16 0 -22 -2 -12 -5z"/>
<path d="M3390 8781 c0 -11 5 -23 10 -26 6 -4 10 5 10 19 0 14 -4 26 -10 26
-5 0 -10 -9 -10 -19z"/>
<path d="M2642 8786 c1 -10 8 -17 13 -17 15 1 12 24 -3 29 -9 3 -13 -2 -10
-12z"/>
<path d="M6878 8803 c28 -2 76 -2 105 0 28 2 5 3 -53 3 -58 0 -81 -1 -52 -3z"/>
<path d="M10051 8648 c-1 -46 3 -78 9 -78 11 0 11 80 0 125 -6 22 -8 9 -9 -47z"/>
<path d="M10230 8646 c0 -44 4 -76 10 -76 6 0 10 30 10 69 0 39 -4 73 -10 76
-6 4 -10 -22 -10 -69z"/>
<path d="M10430 8636 c0 -44 4 -76 10 -76 6 0 10 30 10 69 0 39 -4 73 -10 76
-6 4 -10 -22 -10 -69z"/>
<path d="M10100 8650 l0 -50 40 -1 c22 -1 46 -2 53 -3 11 -1 13 27 8 92 -1 8
-18 12 -51 12 l-50 0 0 -50z m88 -7 c3 -31 2 -33 -31 -33 -31 0 -35 3 -39 30
-6 37 -1 42 37 38 26 -3 30 -7 33 -35z"/>
<path d="M10310 8682 c0 -5 7 -15 15 -22 14 -12 14 -15 -1 -31 -21 -24 -9 -39
13 -17 14 15 18 15 40 1 30 -20 44 -8 14 13 -21 15 -21 17 -5 35 21 24 14 34
-11 15 -16 -12 -22 -12 -42 1 -13 9 -23 11 -23 5z"/>
<path d="M1232 8662 c-12 -4 -28 -17 -35 -28 -7 -12 -18 -31 -25 -43 -11 -18
-10 -22 3 -27 8 -3 15 -16 15 -28 0 -34 20 -46 75 -46 54 0 75 12 75 42 0 10
3 18 8 18 4 0 14 5 22 10 12 8 6 18 -35 60 -49 50 -59 54 -103 42z m68 -64
c25 -27 21 -44 -8 -40 -18 3 -22 -2 -22 -22 0 -21 -5 -26 -26 -26 -25 0 -25 2
-19 43 12 70 37 85 75 45z"/>
<path d="M9947 8634 c-12 -12 4 -24 34 -24 34 0 39 15 7 24 -29 7 -33 7 -41 0z"/>
<path d="M9953 8583 c9 -2 25 -2 35 0 9 3 1 5 -18 5 -19 0 -27 -2 -17 -5z"/>
<path d="M1855 8540 c0 -22 3 -40 7 -40 5 0 8 10 8 21 0 18 5 21 30 17 25 -4
30 -1 29 16 0 12 -3 15 -6 9 -7 -19 -53 -16 -53 2 0 8 -3 15 -7 15 -5 0 -8
-18 -8 -40z"/>
<path d="M2897 8573 c-10 -9 -9 -93 1 -93 5 0 10 23 11 50 1 50 0 56 -12 43z"/>
<path d="M2536 8550 c13 -49 24 -71 34 -65 8 5 7 12 -2 22 -7 9 -19 28 -25 42
l-13 26 6 -25z"/>
<path d="M2581 8544 c-17 -38 -6 -42 14 -5 8 17 12 31 7 31 -5 0 -14 -12 -21
-26z"/>
<path d="M2821 8523 c1 -27 3 -40 6 -30 2 9 10 17 18 17 19 0 36 25 29 44 -3
9 -17 16 -30 16 -22 0 -24 -4 -23 -47z m49 17 c0 -5 -5 -12 -11 -16 -14 -8
-33 11 -25 25 7 11 36 4 36 -9z"/>
<path d="M1945 8539 c-8 -26 16 -54 39 -46 10 4 16 18 16 37 0 25 -4 30 -24
30 -16 0 -27 -7 -31 -21z m43 -11 c-2 -13 -7 -23 -13 -23 -5 0 -11 10 -13 23
-2 15 2 22 13 22 11 0 15 -7 13 -22z"/>
<path d="M2018 8525 c-2 -19 0 -35 4 -35 4 0 8 11 8 24 0 28 19 44 30 26 5 -9
9 -9 14 -1 13 21 26 11 26 -20 0 -16 4 -28 8 -25 7 4 8 18 3 57 -1 4 -21 7
-45 7 -43 1 -44 0 -48 -33z"/>
<path d="M2163 8554 c24 -7 12 -23 -13 -17 -21 5 -25 -4 -14 -31 7 -18 54 -22
54 -5 0 5 -5 7 -10 4 -6 -4 -19 -4 -28 0 -14 7 -13 9 8 14 30 8 33 35 5 38
-16 1 -16 1 -2 -3z"/>
<path d="M3381 8513 c0 -26 3 -42 6 -35 3 7 16 18 30 23 35 13 28 53 -9 57
-27 3 -28 2 -27 -45z m46 14 c-6 -20 -27 -19 -27 2 0 14 5 19 15 14 9 -3 14
-10 12 -16z"/>
<path d="M2663 8543 c9 -2 17 -9 17 -14 0 -6 -9 -7 -21 -4 -17 6 -20 3 -17
-17 2 -18 10 -23 33 -25 18 -1 22 1 10 4 -34 9 -41 23 -11 23 22 0 27 4 22 16
-3 9 -6 18 -6 20 0 2 -10 3 -22 3 -17 -1 -19 -2 -5 -6z"/>
<path d="M2750 8536 c0 -9 5 -16 10 -16 6 0 10 4 10 9 0 6 -4 13 -10 16 -5 3
-10 -1 -10 -9z"/>
<path d="M4361 8512 c-1 -45 -17 -60 -48 -47 -16 7 -15 9 5 14 13 3 23 9 23
14 -1 4 -1 12 -1 17 0 6 -10 10 -22 9 -13 0 -17 -3 -10 -6 21 -8 13 -20 -12
-18 -13 2 -29 -5 -37 -16 -17 -24 -35 -24 -48 -1 -9 15 -10 15 -11 -5 0 -18 6
-23 24 -23 14 0 32 7 41 16 15 15 17 15 28 0 16 -21 118 -18 125 4 4 12 2 13
-9 3 -20 -20 -39 -15 -39 8 0 16 5 20 20 16 13 -3 20 0 20 9 0 8 -9 14 -19 14
-11 0 -22 8 -24 18 -3 9 -5 -2 -6 -26z"/>
<path d="M2610 8510 c0 -16 4 -30 8 -30 5 0 9 14 9 30 0 17 -4 30 -9 30 -4 0
-8 -13 -8 -30z"/>
<path d="M2714 8527 c3 -10 6 -25 6 -33 0 -8 5 -14 10 -14 15 0 12 22 -7 45
-14 18 -15 18 -9 2z"/>
<path d="M2780 8515 c-14 -27 -5 -49 10 -25 9 14 14 50 7 50 -2 0 -10 -11 -17
-25z"/>
<path d="M2922 8520 c-2 -34 11 -53 34 -48 14 2 19 12 20 38 1 26 1 28 -3 8
-3 -19 -10 -28 -23 -28 -13 0 -20 9 -23 28 -4 26 -4 26 -5 2z"/>
<path d="M2994 8529 c-4 -7 1 -16 10 -21 20 -11 21 -29 1 -22 -8 4 -15 1 -15
-6 0 -6 10 -10 22 -8 26 3 38 38 14 38 -22 0 -20 17 2 23 13 4 12 5 -5 6 -12
0 -25 -4 -29 -10z"/>
<path d="M3468 8532 c-19 -4 -26 -62 -8 -62 6 0 10 11 10 24 0 13 6 26 13 29
17 6 5 14 -15 9z"/>
<path d="M4200 8532 c0 -6 9 -8 20 -5 11 3 28 -1 37 -8 14 -12 16 -12 11 1 -5
16 -68 27 -68 12z"/>
<path d="M3505 8519 c-11 -16 -2 -17 25 -2 24 12 24 13 3 13 -12 0 -25 -5 -28
-11z"/>
<path d="M3580 8520 c0 -5 -7 -10 -15 -10 -8 0 -15 -7 -15 -16 0 -12 -7 -15
-25 -12 -14 3 -25 1 -25 -4 0 -15 27 -20 49 -9 13 7 22 8 26 1 3 -5 17 -10 31
-10 18 0 24 5 24 23 -1 19 -2 20 -10 5 -10 -16 -50 -15 -50 2 0 15 30 32 45
26 8 -3 15 -1 15 4 0 6 -11 10 -25 10 -14 0 -25 -4 -25 -10z"/>
<path d="M3651 8493 c1 -27 3 -31 6 -13 2 14 12 31 21 38 14 11 13 12 -6 12
-19 0 -22 -5 -21 -37z"/>
<path d="M3720 8521 c14 -5 18 -9 10 -10 -43 -3 -46 -51 -3 -51 21 0 24 4 21
33 -2 26 -8 32 -28 34 l-25 2 25 -8z m12 -43 c-9 -9 -15 -9 -24 0 -9 9 -7 12
12 12 19 0 21 -3 12 -12z"/>
<path d="M3770 8514 c0 -13 3 -14 13 -5 18 14 27 5 28 -28 l1 -26 7 24 c9 35
29 37 34 4 4 -22 5 -21 3 7 -1 33 -3 34 -43 37 -34 2 -43 -1 -43 -13z"/>
<path d="M4520 8505 c-7 -9 -10 -18 -6 -22 3 -3 6 -1 6 5 0 7 9 12 21 12 11 0
17 5 14 10 -9 14 -21 12 -35 -5z"/>
<path d="M4440 8468 c0 -9 4 -19 9 -22 12 -8 41 4 41 16 0 6 -8 7 -17 4 -9 -4
-20 -1 -25 6 -6 10 -8 9 -8 -4z"/>
<path d="M4510 8459 c0 -5 7 -9 15 -9 8 0 15 -5 15 -11 0 -6 -7 -9 -15 -5 -8
3 -15 1 -15 -4 0 -16 37 -11 44 6 8 22 9 21 -19 26 -14 3 -25 1 -25 -3z"/>
<path d="M3583 8443 c9 -2 23 -2 30 0 6 3 -1 5 -18 5 -16 0 -22 -2 -12 -5z"/>
<path d="M15755 8430 c-17 -6 -16 -7 7 -12 16 -3 29 0 32 7 5 13 -10 15 -39 5z"/>
<path d="M2090 8303 c-21 -313 -20 -323 32 -323 27 0 28 1 28 59 l0 59 63 4
c110 6 110 6 105 -63 -4 -54 -3 -59 16 -60 12 -1 34 -3 49 -5 16 -1 30 2 32 9
2 7 6 81 7 165 2 116 0 152 -9 152 -7 0 -16 1 -20 3 -5 1 -10 -32 -13 -73 -3
-51 -9 -75 -17 -74 -7 1 -60 2 -118 3 l-105 1 0 75 c0 73 -1 75 -25 75 -14 0
-25 -3 -25 -7z"/>
<path d="M1332 8253 c1 -37 2 -40 5 -15 5 40 14 41 31 2 19 -42 28 -38 28 13
1 23 -1 32 -3 20 -6 -30 -17 -29 -31 2 -18 40 -32 29 -30 -22z"/>
<path d="M1445 8264 l20 -16 -20 2 c-33 4 -36 1 -25 -20 7 -13 20 -19 38 -19
l27 2 -27 4 c-35 5 -37 23 -2 23 20 0 25 4 20 16 -3 9 -6 18 -6 20 0 2 -10 4
-22 4 -23 -1 -23 -1 -3 -16z"/>
<path d="M2988 8269 c-10 -5 -18 -15 -18 -21 0 -9 3 -9 12 0 7 7 20 12 31 12
10 0 15 5 12 10 -8 12 -15 12 -37 -1z"/>
<path d="M1491 8255 c-1 -24 15 -52 24 -43 4 3 0 19 -9 35 -13 23 -15 24 -15
8z"/>
<path d="M3126 8254 c-8 -22 -8 -24 8 -24 21 0 26 13 11 27 -10 10 -14 9 -19
-3z"/>
<path d="M3407 8252 c-16 -17 -15 -20 8 -42 26 -24 47 -23 22 1 -7 8 -13 24
-12 37 2 27 2 27 -18 4z"/>
<path d="M3810 8255 c0 -8 -6 -15 -14 -15 -15 0 -26 -21 -26 -51 0 -14 7 -19
30 -19 29 0 30 1 30 50 0 28 -4 50 -10 50 -5 0 -10 -7 -10 -15z m0 -50 c0 -16
-6 -25 -15 -25 -28 0 -18 40 13 49 1 1 2 -10 2 -24z"/>
<path d="M1220 8250 c0 -5 9 -10 21 -10 11 0 17 5 14 10 -3 6 -13 10 -21 10
-8 0 -14 -4 -14 -10z"/>
<path d="M3500 8246 c0 -7 -10 -17 -22 -21 -23 -6 -23 -6 3 -16 21 -8 25 -15
22 -37 l-5 -27 20 25 c22 27 24 58 6 78 -16 16 -24 15 -24 -2z"/>
<path d="M3614 8220 c1 -39 4 -45 25 -48 29 -5 41 13 39 58 l-1 35 -6 -40 c-5
-31 -10 -40 -26 -40 -16 0 -21 9 -26 40 l-7 40 2 -45z"/>
<path d="M5170 8231 c-11 -21 -14 -183 -4 -244 4 -22 12 -36 18 -34 6 3 10 11
8 18 -2 8 0 11 4 7 8 -8 110 61 145 98 23 25 24 26 5 40 -11 7 -31 24 -45 36
-15 13 -48 40 -73 61 -45 36 -48 37 -58 18z m61 -43 c28 -27 34 -36 16 -25
-21 14 -32 15 -47 7 -18 -10 -20 -8 -20 25 0 19 2 35 3 35 2 0 24 -19 48 -42z"/>
<path d="M5623 8243 c15 -2 37 -2 50 0 12 2 0 4 -28 4 -27 0 -38 -2 -22 -4z"/>
<path d="M6955 8243 c43 -6 46 -13 31 -71 -7 -29 -10 -55 -5 -58 8 -5 25 62
21 83 -2 8 4 10 15 6 14 -5 13 0 -6 20 -17 19 -33 27 -55 26 l-31 -2 30 -4z"/>
<path d="M1546 8233 c-11 -11 -6 -23 9 -23 8 0 15 4 15 9 0 13 -16 22 -24 14z"/>
<path d="M3697 8234 c-10 -11 -9 -64 2 -64 5 0 11 11 13 25 4 36 22 36 30 0 6
-29 6 -29 5 5 -2 27 -7 36 -22 38 -12 2 -24 0 -28 -4z"/>
<path d="M3850 8220 c-11 -20 1 -60 18 -60 12 0 32 22 32 35 0 5 -4 4 -9 -4
-11 -17 -45 -7 -38 12 2 6 13 12 25 11 13 0 18 4 15 13 -8 19 -31 16 -43 -7z"/>
<path d="M5618 8223 c12 -2 30 -2 40 0 9 3 -1 5 -23 4 -22 0 -30 -2 -17 -4z"/>
<path d="M5770 8220 c0 -5 6 -10 14 -10 8 0 23 -3 33 -7 16 -6 16 -5 4 10 -15
18 -51 23 -51 7z"/>
<path d="M6135 8219 c-11 -17 1 -21 15 -4 8 9 8 15 2 15 -6 0 -14 -5 -17 -11z"/>
<path d="M6319 8213 c6 -12 11 -34 11 -48 0 -14 -5 -36 -11 -48 -10 -21 -10
-21 5 -3 9 11 16 34 16 51 0 17 -7 40 -16 51 -15 18 -15 18 -5 -3z"/>
<path d="M1235 8210 c3 -5 10 -10 16 -10 5 0 9 5 9 10 0 6 -7 10 -16 10 -8 0
-12 -4 -9 -10z"/>
<path d="M2972 8205 c4 -23 44 -33 62 -15 8 9 4 10 -16 5 -19 -5 -29 -2 -37
12 -11 17 -12 17 -9 -2z"/>
<path d="M4335 8210 c-4 -6 4 -10 19 -10 24 0 26 -3 26 -49 0 -30 -5 -51 -12
-54 -7 -3 0 -6 17 -6 18 -1 26 2 19 9 -5 5 -8 30 -6 55 3 38 7 45 23 43 10 -2
19 2 21 7 4 14 -98 19 -107 5z"/>
<path d="M6180 8212 c0 -10 36 -9 46 1 4 4 -5 7 -19 7 -15 0 -27 -4 -27 -8z"/>
<path d="M6917 8213 c-10 -10 -8 -51 2 -58 5 -3 12 -1 16 5 3 5 1 10 -5 10 -6
0 -8 10 -4 25 6 25 3 31 -9 18z"/>
<path d="M3080 8193 c-24 -12 -24 -13 -3 -13 12 0 25 5 28 11 11 16 2 17 -25
2z"/>
<path d="M6255 8165 c0 -36 3 -45 18 -45 9 0 17 5 17 10 0 6 -4 10 -10 10 -5
0 -10 16 -10 35 0 19 -3 35 -7 35 -5 0 -8 -20 -8 -45z"/>
<path d="M5600 8190 c0 -5 7 -10 15 -10 8 0 15 5 15 10 0 6 -7 10 -15 10 -8 0
-15 -4 -15 -10z"/>
<path d="M5860 8191 c15 -6 18 -9 9 -10 -22 -1 -40 -24 -31 -38 4 -7 18 -11
30 -10 19 1 22 6 20 32 -2 24 -8 30 -28 32 l-25 2 25 -8z m20 -30 c0 -5 -7
-11 -15 -15 -15 -5 -20 5 -8 17 9 10 23 9 23 -2z"/>
<path d="M5912 8162 l1 -37 4 33 c5 39 14 40 50 5 26 -24 26 -26 6 -20 -13 3
-23 1 -23 -4 0 -5 11 -9 25 -9 31 0 33 22 3 44 l-23 17 23 -6 c12 -4 22 -2 22
3 0 6 -20 10 -45 10 l-45 0 2 -36z"/>
<path d="M6033 8193 c9 -2 17 -9 17 -14 0 -6 -9 -7 -21 -4 -17 6 -20 3 -17
-17 2 -18 10 -23 33 -25 18 -1 22 1 10 4 -34 9 -41 23 -11 23 22 0 27 4 22 16
-3 9 -6 18 -6 20 0 2 -10 3 -22 3 -17 -1 -19 -2 -5 -6z"/>
<path d="M6880 8171 c0 -16 -7 -34 -15 -41 -20 -16 -19 -49 1 -57 10 -4 27 6
47 26 23 22 27 31 15 31 -8 0 -23 -12 -33 -26 -13 -20 -20 -23 -28 -14 -9 9
-6 16 14 30 20 15 25 26 21 50 -5 38 -22 39 -22 1z"/>
<path d="M7077 8192 l23 -7 -20 -30 c-27 -40 -25 -45 13 -44 23 1 26 3 10 6
-28 5 -29 13 -3 46 27 34 26 37 -12 36 -28 -1 -29 -2 -11 -7z"/>
<path d="M7420 8190 c0 -5 7 -10 15 -10 8 0 15 5 15 10 0 6 -7 10 -15 10 -8 0
-15 -4 -15 -10z"/>
<path d="M5770 8178 c0 -11 32 -10 48 1 9 5 3 8 -17 7 -17 -1 -31 -4 -31 -8z"/>
<path d="M6180 8180 c0 -6 12 -10 27 -10 29 0 24 12 -7 17 -11 2 -20 -2 -20
-7z"/>
<path d="M7134 8166 c-9 -25 0 -51 20 -54 26 -5 40 12 32 42 -7 29 -43 36 -52
12z m43 -12 c8 -21 -13 -42 -28 -27 -13 13 -5 43 11 43 6 0 13 -7 17 -16z"/>
<path d="M7204 8166 c-9 -25 0 -51 20 -54 26 -5 40 12 32 42 -7 29 -43 36 -52
12z m41 -22 c0 -10 -8 -20 -17 -22 -18 -3 -26 27 -11 42 12 11 28 0 28 -20z"/>
<path d="M7283 8173 c-7 -3 -12 -19 -12 -36 2 -31 2 -31 6 -4 5 35 34 33 44
-3 l7 -25 1 28 c1 34 21 36 21 2 0 -14 5 -25 10 -25 10 0 6 47 -5 59 -8 7 -55
10 -72 4z"/>
<path d="M5618 8163 c12 -2 30 -2 40 0 9 3 -1 5 -23 4 -22 0 -30 -2 -17 -4z"/>
<path d="M7471 8138 c2 -31 2 -31 6 -5 6 36 33 36 33 0 0 -17 3 -24 10 -17 17
17 0 54 -26 54 -21 0 -24 -5 -23 -32z"/>
<path d="M5600 8130 c0 -5 20 -10 45 -10 25 0 45 5 45 10 0 6 -20 10 -45 10
-25 0 -45 -4 -45 -10z"/>
<path d="M6130 8134 c0 -13 18 -39 24 -34 2 3 -2 14 -10 24 -8 11 -14 16 -14
10z"/>
<path d="M7426 8121 c-4 -5 -2 -12 3 -15 5 -4 12 -2 15 3 4 5 2 12 -3 15 -5 4
-12 2 -15 -3z"/>
<path d="M2177 8073 c-4 -3 -7 -21 -7 -40 0 -29 3 -33 25 -33 23 0 25 4 25 40
0 32 -4 40 -18 40 -10 0 -22 -3 -25 -7z"/>
<path d="M2737 8063 c-9 -15 -12 -128 -4 -140 5 -7 22 -13 38 -13 18 0 28 4
24 10 -3 6 -17 10 -31 10 -23 0 -24 3 -24 60 l0 60 55 0 c30 0 55 5 55 10 0
11 -106 14 -113 3z"/>
<path d="M4470 8056 c0 -8 -10 -16 -22 -18 -15 -2 -24 -11 -26 -25 -3 -19 1
-23 22 -23 19 0 26 -5 26 -20 0 -29 29 -25 40 6 6 14 14 23 19 20 5 -3 14 1
21 9 10 12 7 17 -14 26 -14 7 -26 19 -27 28 -1 18 -4 9 -13 -30 -5 -22 -10
-25 -33 -21 -26 5 -26 5 -5 13 19 7 33 49 17 49 -3 0 -5 -6 -5 -14z"/>
<path d="M1320 8021 c-15 -29 -12 -46 11 -67 23 -20 53 -10 55 20 2 13 1 13
-3 1 -6 -19 -37 -19 -53 0 -28 34 18 69 50 40 21 -19 28 -7 8 13 -18 18 -56
14 -68 -7z"/>
<path d="M4201 8023 c0 -13 2 -14 6 -4 4 10 7 10 13 1 5 -8 9 -7 13 4 5 11 1
16 -13 16 -13 0 -20 -6 -19 -17z"/>
<path d="M4371 8023 c0 -13 2 -14 6 -4 5 11 7 11 14 0 7 -11 9 -10 9 4 0 9 -7
17 -15 17 -8 0 -15 -8 -14 -17z"/>
<path d="M2878 8023 l32 -4 0 -65 0 -64 -57 -1 c-42 0 -52 -3 -38 -9 34 -15
81 -11 97 8 9 11 14 38 14 77 l-1 60 -40 1 c-32 1 -34 1 -7 -3z"/>
<path d="M1419 8018 c-6 -16 -7 -88 -1 -88 5 0 23 11 42 25 19 14 47 25 62 25
15 0 28 4 28 9 0 13 -30 35 -37 27 -4 -4 -1 -11 7 -16 10 -6 5 -9 -17 -8 -18
1 -34 7 -37 15 -4 10 -43 20 -47 11z m46 -38 c0 -8 -8 -16 -17 -18 -13 -2 -18
3 -18 18 0 15 5 20 18 18 9 -2 17 -10 17 -18z"/>
<path d="M1578 8012 c-20 -4 -26 -62 -7 -62 5 0 8 4 5 9 -9 15 5 41 21 41 11
0 14 -7 11 -25 -3 -14 -1 -25 3 -25 14 0 10 57 -3 62 -7 2 -21 3 -30 0z"/>
<path d="M2972 8008 c-7 -7 -12 -16 -12 -22 0 -6 5 -5 12 2 7 7 23 12 36 12
13 0 20 4 17 10 -8 14 -38 13 -53 -2z"/>
<path d="M6957 7993 c20 -3 41 -14 53 -30 11 -14 20 -21 20 -16 0 21 -47 53
-76 51 -29 -1 -29 -1 3 -5z"/>
<path d="M3039 7968 c-21 -41 -39 -46 -65 -20 -17 16 -18 16 -11 -1 4 -10 7
-21 7 -23 0 -10 47 -3 58 8 10 10 15 10 21 -1 11 -16 43 -11 49 9 4 13 3 13
-11 2 -20 -17 -37 -8 -37 19 0 22 20 25 39 7 11 -11 13 -10 9 2 -8 25 -45 24
-59 -2z"/>
<path d="M3119 7978 c0 -7 -2 -25 -3 -41 -1 -20 2 -26 12 -22 7 3 20 5 28 5 8
0 14 8 13 18 0 10 -3 12 -6 5 -7 -20 -33 -15 -33 5 0 26 11 34 27 21 10 -9 13
-8 13 5 0 19 -50 23 -51 4z"/>
<path d="M3195 7951 c10 -30 11 -41 2 -45 -9 -3 -8 -5 1 -5 7 -1 17 11 22 25
12 32 12 37 1 29 -5 -3 -12 4 -16 15 -3 11 -10 20 -15 20 -5 0 -3 -18 5 -39z"/>
<path d="M1493 7956 c4 -14 47 -21 47 -8 0 5 -11 12 -25 15 -16 3 -24 0 -22
-7z"/>
<path d="M1640 7956 c0 -9 5 -16 10 -16 6 0 10 4 10 9 0 6 -4 13 -10 16 -5 3
-10 -1 -10 -9z"/>
<path d="M6922 7958 c-17 -17 -15 -45 4 -52 14 -5 15 -4 5 8 -18 21 -2 46 29
46 36 0 48 -31 26 -65 -9 -13 -12 -26 -8 -29 16 -9 34 61 22 84 -12 23 -59 27
-78 8z"/>
<path d="M6891 7924 c-1 -17 -10 -39 -21 -49 -23 -21 -25 -38 -7 -53 9 -8 21
-2 45 20 19 16 31 32 28 36 -4 3 -18 -6 -32 -21 -14 -15 -30 -24 -36 -21 -7 5
-2 15 14 29 23 19 25 27 18 56 l-8 34 -1 -31z"/>
<path d="M7083 7943 l27 -4 -25 -33 c-14 -18 -25 -36 -25 -40 0 -3 28 -5 63
-4 60 3 62 4 65 31 2 18 -2 29 -12 33 -21 8 -46 -13 -46 -37 0 -14 -7 -19 -26
-19 l-26 0 21 34 c27 44 27 46 -11 45 -31 -2 -31 -2 -5 -6z m97 -53 c0 -11 -6
-20 -13 -20 -19 0 -27 10 -20 26 8 21 33 17 33 -6z"/>
<path d="M7436 7935 c-11 -8 -16 -18 -12 -22 4 -4 11 -1 15 6 6 9 18 11 37 7
24 -6 26 -5 15 8 -16 20 -30 20 -55 1z"/>
<path d="M7588 7927 c-8 -22 7 -70 22 -75 12 -4 13 -2 3 9 -15 15 -17 46 -4
51 5 2 3 8 -4 15 -10 9 -14 9 -17 0z"/>
<path d="M7210 7911 c-12 -23 -5 -47 17 -55 20 -8 33 1 33 24 0 48 -30 67 -50
31z m40 -21 c0 -11 -7 -20 -15 -20 -8 0 -15 9 -15 20 0 11 7 20 15 20 8 0 15
-9 15 -20z"/>
<path d="M7290 7921 c-12 -4 -14 -14 -9 -36 l7 -30 1 28 c1 16 7 27 15 27 8 0
17 -12 19 -27 l4 -28 2 28 c1 34 28 36 34 2 4 -23 4 -23 3 2 -1 21 -6 28 -21
28 -11 1 -25 3 -30 7 -6 3 -17 3 -25 -1z"/>
<path d="M7487 7890 c-5 -20 -47 -29 -47 -10 0 6 -5 10 -12 10 -6 0 -3 -9 7
-20 10 -11 24 -20 31 -20 13 0 44 37 44 52 0 17 -18 7 -23 -12z"/>
<path d="M7561 7886 c-1 -13 -6 -17 -21 -13 -24 6 -27 -11 -4 -20 20 -8 37 10
31 33 -5 18 -5 18 -6 0z"/>
<path d="M2110 7875 c-13 -16 -6 -35 15 -35 16 0 28 -27 15 -35 -6 -4 -14 -4
-19 0 -5 3 -12 1 -16 -5 -9 -15 38 -12 54 3 11 10 14 10 18 0 3 -7 18 -13 34
-13 28 0 30 2 27 33 -3 28 -7 32 -33 34 -22 1 -24 0 -6 -4 l23 -5 -27 -14
c-23 -12 -29 -12 -42 1 -8 8 -19 15 -24 15 -5 0 -9 5 -9 10 0 6 9 10 20 10 11
0 20 5 20 10 0 15 -36 12 -50 -5z m110 -65 c0 -5 -4 -10 -9 -10 -6 0 -13 5
-16 10 -3 6 1 10 9 10 9 0 16 -4 16 -10z"/>
<path d="M2254 7834 c8 -30 22 -51 30 -43 2 2 6 15 9 29 2 14 2 19 0 13 -6
-18 -23 -16 -23 1 0 8 -5 18 -11 22 -9 5 -10 -1 -5 -22z"/>
<path d="M2343 7853 c9 -2 15 -8 12 -13 -3 -5 -12 -7 -19 -4 -19 7 -28 -22
-11 -36 8 -6 24 -10 37 -7 20 4 20 4 -4 6 -31 1 -39 21 -10 21 10 0 22 3 25 7
10 10 -13 33 -32 32 -13 -1 -13 -2 2 -6z"/>
<path d="M4036 7813 c1 -26 6 -49 12 -51 7 -2 9 9 5 32 -3 22 -1 42 7 51 10
12 9 15 -6 15 -16 0 -19 -7 -18 -47z"/>
<path d="M4620 7846 c0 -8 -10 -16 -22 -18 -18 -2 -23 -10 -23 -33 0 -25 4
-30 28 -33 26 -3 27 -2 27 47 0 28 -2 51 -5 51 -3 0 -5 -6 -5 -14z m-2 -53
c-2 -10 -10 -18 -18 -18 -8 0 -16 8 -18 18 -2 12 3 17 18 17 15 0 20 -5 18
-17z"/>
<path d="M4418 7825 c-9 -21 -8 -28 7 -45 18 -20 55 -28 55 -12 0 5 -10 8 -22
8 -19 -1 -23 4 -23 29 0 26 4 30 28 30 15 -1 27 3 27 7 0 4 -14 8 -30 8 -23 0
-33 -6 -42 -25z"/>
<path d="M4093 7833 c-16 -6 -17 -63 -2 -63 5 0 8 4 5 9 -10 16 6 42 21 37 9
-4 13 -1 11 6 -5 14 -18 18 -35 11z"/>
<path d="M4159 7824 c-14 -17 -15 -16 40 -43 49 -23 71 -26 71 -11 0 6 -6 10
-12 9 -26 -3 -39 1 -33 11 4 6 10 8 14 6 4 -3 13 -1 20 4 17 10 5 30 -17 29
-14 0 -13 -2 3 -8 15 -6 10 -9 -23 -15 -48 -7 -83 4 -42 14 20 5 22 7 8 12 -9
4 -22 1 -29 -8z"/>
<path d="M4314 7833 c-15 -3 -23 -13 -26 -34 -3 -16 -1 -29 3 -29 4 0 9 10 11
23 2 14 10 22 23 23 49 3 51 4 35 14 -8 5 -17 9 -20 8 -3 0 -15 -3 -26 -5z"/>
<path d="M5118 7800 c-3 -38 5 -54 15 -27 3 9 9 7 24 -5 27 -25 40 -22 17 3
-15 16 -16 22 -5 29 21 12 5 40 -23 40 -21 0 -24 -5 -28 -40z m42 15 c0 -8 -7
-15 -15 -15 -8 0 -15 7 -15 15 0 8 7 15 15 15 8 0 15 -7 15 -15z"/>
<path d="M4504 7816 c-9 -25 0 -51 20 -54 26 -5 40 12 32 42 -7 29 -43 36 -52
12z m44 -25 c-5 -24 -38 -27 -38 -3 0 10 3 21 6 25 11 11 35 -5 32 -22z"/>
<path d="M4675 7815 c19 -16 19 -16 -7 -10 -23 4 -28 2 -28 -14 0 -26 21 -40
45 -30 19 7 19 8 -2 8 -32 1 -39 21 -8 21 20 0 26 4 23 17 -2 10 -12 19 -23
21 -20 4 -20 4 0 -13z"/>
<path d="M1100 7818 c-5 -33 -6 -138 -1 -138 16 1 122 111 116 121 -5 7 -24
-8 -52 -40 -24 -28 -49 -51 -54 -51 -6 0 -7 5 -4 10 10 17 13 90 4 96 -5 3 -9
4 -9 2z"/>
<path d="M5203 7788 c2 -28 6 -34 30 -36 23 -3 27 0 27 20 -1 21 -2 22 -14 6
-20 -26 -34 -22 -40 12 -6 30 -6 30 -3 -2z"/>
<path d="M5270 7784 c0 -21 4 -33 10 -29 6 3 10 19 10 36 0 16 -4 29 -10 29
-5 0 -10 -16 -10 -36z"/>
<path d="M5300 7810 c0 -5 5 -10 10 -10 6 0 10 -12 11 -27 0 -16 3 -22 6 -15
7 18 -5 62 -17 62 -6 0 -10 -4 -10 -10z"/>
<path d="M1248 7773 c-3 -36 -5 -38 -38 -39 -27 0 -44 -9 -72 -38 -43 -43 -44
-46 -23 -46 8 0 15 4 15 9 0 5 8 8 17 7 11 0 18 6 18 19 0 14 8 21 27 23 26 3
27 1 22 -27 -6 -28 -4 -31 20 -31 22 0 26 5 26 28 0 15 3 51 6 80 5 34 3 52
-4 52 -6 0 -12 -17 -14 -37z"/>
<path d="M1313 7769 c-13 -13 -6 -39 10 -39 6 0 18 -7 28 -16 13 -12 22 -13
38 -5 25 14 31 14 31 1 0 -5 -9 -10 -20 -10 -11 0 -20 -5 -20 -11 0 -6 10 -9
23 -7 18 2 22 9 22 38 0 29 -4 36 -22 38 -13 2 -23 -1 -23 -7 0 -6 10 -11 23
-12 21 0 21 -1 -3 -10 -19 -8 -33 -6 -59 8 l-34 18 29 12 c23 10 25 12 9 13
-12 0 -26 -5 -32 -11z"/>
<path d="M4155 7769 c7 -11 35 -12 35 -1 0 4 -9 8 -20 9 -11 1 -18 -2 -15 -8z"/>
<path d="M1646 7729 c-9 -23 -14 -44 -11 -47 3 -3 5 0 5 6 0 7 11 12 25 12 14
0 25 -5 25 -11 0 -14 72 -7 77 8 2 6 -5 14 -16 18 -12 3 -21 11 -21 16 0 6 9
7 21 4 15 -5 19 -4 15 4 -12 19 -46 13 -46 -9 0 -11 7 -20 15 -20 8 0 15 -4
15 -10 0 -5 -9 -10 -21 -10 -15 0 -25 11 -36 40 -9 22 -19 40 -23 40 -4 0 -15
-19 -24 -41z m30 -6 c-10 -10 -19 5 -10 18 6 11 8 11 12 0 2 -7 1 -15 -2 -18z"/>
<path d="M3813 7740 c-3 -11 -11 -20 -19 -20 -7 0 -18 -9 -24 -21 -14 -26 3
-49 36 -49 22 0 24 4 24 55 0 56 -8 71 -17 35z m-3 -55 c0 -16 -6 -25 -15 -25
-15 0 -21 31 -8 43 13 14 23 6 23 -18z"/>
<path d="M1455 7726 c7 -46 21 -52 40 -16 9 17 14 34 11 37 -3 3 -11 -6 -17
-21 l-13 -27 -12 28 -13 28 4 -29z"/>
<path d="M1524 7736 c-15 -39 22 -74 49 -47 9 9 5 11 -12 9 -13 -2 -26 3 -29
11 -3 8 0 11 7 7 6 -4 19 -2 28 3 15 9 13 11 -12 12 -30 1 -30 1 -5 9 24 8 24
8 2 9 -12 1 -25 -5 -28 -13z"/>
<path d="M3599 7728 c-1 -13 -3 -33 -4 -45 -1 -13 2 -23 6 -23 5 0 9 9 9 19 0
12 8 21 23 24 l22 4 -22 2 c-28 1 -31 21 -4 21 11 0 23 5 26 10 4 6 -7 10 -24
10 -25 0 -31 -4 -32 -22z"/>
<path d="M6891 7703 c-26 -27 -31 -37 -20 -44 16 -10 26 -2 31 26 3 15 10 19
28 17 14 -1 40 -3 58 -3 l32 -1 0 -57 0 -57 -55 -2 c-49 -1 -55 1 -55 18 0 11
-7 20 -15 20 -20 0 -19 -36 1 -44 9 -3 42 -6 75 -6 l59 0 0 73 c0 43 -5 78
-12 85 -7 7 -30 12 -52 11 -33 0 -47 -7 -75 -36z"/>
<path d="M3668 7695 c-6 -30 -3 -43 8 -33 3 4 4 19 2 35 l-3 28 -7 -30z"/>
<path d="M3696 7698 c-8 -31 -7 -38 3 -38 5 0 11 10 13 22 5 35 26 33 31 -4
l4 -33 1 38 c2 33 -1 37 -22 37 -16 0 -26 -7 -30 -22z"/>
<path d="M4059 7693 c-12 -15 -12 -16 4 -10 10 4 25 7 33 7 8 0 14 5 14 10 0
16 -36 11 -51 -7z"/>
<path d="M7213 7655 c0 -33 2 -45 4 -27 2 18 2 45 0 60 -2 15 -4 0 -4 -33z"/>
<path d="M1300 7690 c0 -5 11 -10 25 -10 14 0 25 5 25 10 0 6 -11 10 -25 10
-14 0 -25 -4 -25 -10z"/>
<path d="M5121 7672 c-14 -32 -6 -75 15 -93 9 -8 14 -8 14 -1 0 6 -4 14 -10
17 -13 8 -13 61 0 86 6 10 7 19 2 19 -5 0 -15 -13 -21 -28z"/>
<path d="M5318 7690 c14 -17 16 -86 2 -95 -5 -3 -10 -12 -10 -18 0 -7 7 -3 15
7 21 28 19 90 -2 107 -15 11 -16 11 -5 -1z"/>
<path d="M7071 7653 c1 -27 4 -38 6 -26 2 13 13 24 26 26 l22 4 -22 2 c-28 1
-31 21 -3 21 11 0 20 5 20 10 0 6 -11 10 -25 10 -23 0 -25 -3 -24 -47z"/>
<path d="M7238 7663 c6 -65 10 -70 11 -15 0 28 -3 52 -7 52 -4 0 -6 -17 -4
-37z"/>
<path d="M7310 7679 c-10 -17 -8 -21 9 -26 12 -3 21 -9 21 -14 0 -5 5 -9 10
-9 18 0 11 18 -10 25 -26 8 -26 25 1 25 11 0 17 5 14 10 -10 17 -34 11 -45
-11z"/>
<path d="M3470 7685 c0 -12 61 -68 67 -61 4 3 -6 20 -22 36 -26 27 -45 38 -45
25z"/>
<path d="M5170 7680 c0 -12 8 -12 35 0 18 8 17 9 -7 9 -16 1 -28 -3 -28 -9z"/>
<path d="M5240 7680 c0 -12 8 -12 35 0 18 8 17 9 -7 9 -16 1 -28 -3 -28 -9z"/>
<path d="M6981 7676 c-16 -19 -11 -29 8 -17 7 5 12 14 9 21 -3 9 -8 7 -17 -4z"/>
<path d="M4131 7643 c1 -37 2 -37 8 -8 8 36 32 39 42 5 4 -14 7 -18 8 -8 2 30
-11 48 -35 48 -21 0 -24 -4 -23 -37z"/>
<path d="M4200 7645 c0 -19 5 -35 10 -35 6 0 10 16 10 35 0 19 -4 35 -10 35
-5 0 -10 -16 -10 -35z"/>
<path d="M4239 7673 c0 -5 -2 -25 -4 -45 -2 -21 0 -38 5 -38 6 0 10 5 10 10 0
6 7 10 15 10 18 0 34 28 28 51 -5 18 -52 28 -54 12z m44 -39 c-8 -20 -33 -17
-33 4 0 10 3 22 7 25 10 11 32 -13 26 -29z"/>
<path d="M4310 7636 c0 -43 0 -44 25 -33 14 7 25 19 24 27 0 10 -2 11 -6 3 -8
-20 -33 -15 -33 6 0 34 21 34 55 1 21 -20 40 -30 51 -27 16 4 16 5 -3 6 -32 2
-39 21 -8 21 21 0 26 4 21 16 -3 9 -6 18 -6 20 0 2 -8 4 -17 3 -11 0 -13 -3
-5 -6 21 -8 13 -21 -13 -19 -14 0 -27 7 -30 14 -2 6 -16 12 -30 12 -23 0 -25
-4 -25 -44z"/>
<path d="M4450 7670 c0 -5 7 -10 15 -10 8 0 15 5 15 10 0 6 -7 10 -15 10 -8 0
-15 -4 -15 -10z"/>
<path d="M4660 7666 c0 -2 6 -9 14 -15 10 -9 16 -8 26 4 11 13 8 15 -14 15
-14 0 -26 -2 -26 -4z"/>
<path d="M7144 7640 c1 -27 5 -35 20 -35 11 0 21 5 23 12 3 7 -3 9 -16 6 -15
-4 -20 1 -24 24 -4 22 -5 21 -3 -7z"/>
<path d="M7368 7640 c-11 -19 -26 -30 -40 -31 -18 -1 -19 -2 -5 -6 10 -3 25 1
33 8 11 9 18 9 26 1 7 -7 21 -12 33 -12 18 0 18 1 -4 13 -13 6 -24 17 -24 22
0 6 11 16 24 22 l24 13 -25 0 c-17 0 -30 -9 -42 -30z"/>
<path d="M7447 7663 c-4 -3 -6 -20 -6 -37 2 -27 2 -28 6 -6 2 14 12 31 21 38
14 10 14 12 1 12 -9 0 -19 -3 -22 -7z"/>
<path d="M7503 7663 c9 -2 17 -8 17 -13 0 -4 -9 -6 -20 -3 -21 5 -25 -3 -14
-31 4 -10 17 -16 33 -15 20 1 22 2 6 6 -30 7 -43 23 -19 23 26 0 34 8 27 26
-3 8 -15 13 -27 13 -16 -1 -17 -2 -3 -6z"/>
<path d="M7573 7663 c9 -2 17 -8 17 -13 0 -4 -9 -6 -21 -3 -17 5 -20 2 -17
-18 2 -19 10 -24 33 -26 18 -1 22 1 10 4 -30 8 -42 23 -19 23 26 0 34 8 27 26
-3 8 -15 13 -27 13 -16 -1 -17 -2 -3 -6z"/>
<path d="M7621 7631 c2 -30 3 -32 6 -8 5 34 33 36 33 2 0 -14 5 -25 10 -25 14
0 12 46 -2 57 -7 6 -21 10 -30 10 -14 0 -18 -8 -17 -36z"/>
<path d="M4099 7646 c9 -11 8 -15 -5 -20 -9 -3 -20 -4 -24 -1 -5 3 -11 1 -15
-5 -10 -16 41 -12 55 5 12 15 6 35 -12 35 -7 0 -7 -5 1 -14z"/>
<path d="M5170 7650 c0 -5 11 -10 25 -10 14 0 25 5 25 10 0 6 -11 10 -25 10
-14 0 -25 -4 -25 -10z"/>
<path d="M5240 7650 c0 -5 9 -10 20 -10 11 0 20 -7 20 -15 0 -9 -9 -15 -22
-15 -16 0 -19 -3 -11 -11 7 -7 19 -9 27 -6 21 8 21 53 0 61 -23 9 -34 7 -34
-4z"/>
<path d="M6982 7621 c2 -7 7 -12 11 -12 12 1 9 15 -3 20 -7 2 -11 -2 -8 -8z"/>
<path d="M16299 7423 c-15 -7 -32 -19 -38 -27 -9 -11 -6 -14 18 -18 17 -2 28
0 25 4 -3 5 4 17 16 28 26 23 14 31 -21 13z"/>
<path d="M16115 7370 c-9 -29 3 -41 33 -36 15 2 37 5 50 5 33 1 27 21 -7 21
-16 0 -34 7 -41 15 -17 20 -27 19 -35 -5z"/>
<path d="M2210 7241 c0 -5 11 -11 25 -13 14 -2 25 -6 25 -10 0 -5 0 -53 0
-108 l0 -100 -29 0 c-17 0 -33 -4 -36 -10 -4 -6 22 -10 69 -10 44 0 76 4 76
10 0 6 -13 10 -29 10 -28 0 -29 2 -25 38 2 20 5 74 8 120 l4 82 -44 0 c-24 0
-44 -4 -44 -9z"/>
<path d="M2430 7240 c0 -5 11 -10 25 -10 l25 0 0 -110 0 -110 -35 0 c-19 0
-35 -4 -35 -10 0 -6 34 -10 82 -10 45 0 78 3 74 7 -4 4 -17 8 -29 8 -21 0 -22
4 -25 123 l-3 122 -39 0 c-22 0 -40 -4 -40 -10z"/>
<path d="M16109 7243 c-9 -2 -21 -15 -28 -29 -14 -31 -15 -238 -1 -229 6 3 10
-1 10 -9 0 -8 -4 -17 -10 -21 -9 -6 -7 -138 5 -230 3 -27 2 -79 -3 -115 -5
-36 -8 -66 -7 -68 2 -2 18 27 36 65 27 57 32 80 33 143 1 77 -16 133 -49 160
-19 16 -19 30 2 45 12 9 18 38 24 123 8 115 19 152 44 152 7 0 17 5 20 10 6
10 -43 12 -76 3z"/>
<path d="M3520 7231 c0 -6 5 -12 10 -12 6 -1 15 -3 20 -4 6 -1 14 -3 18 -4 5
0 7 -29 6 -63 -2 -35 -3 -82 -4 -105 0 -41 -1 -43 -30 -43 -56 0 -30 -18 36
-25 44 -5 69 -4 77 4 8 8 2 13 -22 17 l-33 7 3 116 4 116 -42 3 c-26 2 -43 -1
-43 -7z"/>
<path d="M10520 7226 c0 -8 -6 -16 -12 -19 -10 -3 -10 -7 -1 -18 7 -8 12 -24
11 -34 -1 -11 2 -87 7 -168 l8 -149 -187 4 c-102 1 -186 0 -186 -4 0 -5 -7 -8
-15 -8 -8 0 -15 -4 -15 -10 0 -6 79 -10 216 -10 l216 0 -6 128 c-11 229 -18
302 -27 302 -5 0 -9 -6 -9 -14z"/>
<path d="M1564 7200 c-5 -21 -12 -30 -25 -30 -25 0 -25 -16 0 -23 29 -7 16
-57 -15 -57 -13 0 -24 -4 -24 -10 0 -5 9 -10 21 -10 17 0 20 -5 18 -32 -4 -39
14 -55 19 -18 5 33 20 50 44 50 16 0 19 -6 17 -34 -2 -19 0 -38 4 -42 7 -7 11
3 21 49 5 21 12 27 32 27 14 0 23 4 19 10 -3 6 -15 10 -27 10 -14 0 -18 5 -14
16 3 9 6 22 6 30 0 8 10 14 25 14 14 0 25 5 25 10 0 6 -9 10 -20 10 -16 0 -20
7 -20 30 0 17 -4 30 -9 30 -5 0 -11 -13 -14 -30 -5 -24 -12 -30 -32 -30 -21 0
-25 5 -25 30 0 17 -5 30 -10 30 -6 0 -13 -13 -16 -30z m68 -55 c3 -3 3 -17 0
-30 -3 -20 -10 -25 -34 -25 -23 0 -29 4 -24 16 3 9 6 22 6 30 0 13 40 20 52 9z"/>
<path d="M1740 7110 c0 -93 3 -121 13 -118 7 3 13 26 15 56 l3 52 55 0 54 0 0
-55 c0 -42 3 -55 15 -55 12 0 15 14 15 68 0 37 3 91 6 120 6 43 4 52 -9 52
-12 0 -17 -12 -19 -52 l-3 -53 -55 0 -55 0 -1 50 c-1 38 -5 51 -17 53 -15 3
-17 -10 -17 -118z"/>
<path d="M3848 7198 c-3 -29 -7 -33 -37 -36 -47 -5 -78 -28 -91 -68 -15 -44 1
-96 36 -114 21 -12 29 -12 53 3 36 21 41 21 41 0 0 -10 3 -13 9 -7 5 5 12 64
16 132 6 106 5 122 -8 122 -10 0 -17 -11 -19 -32z m-7 -113 c-4 -80 -64 -126
-89 -70 -30 66 1 129 61 123 31 -3 31 -3 28 -53z"/>
<path d="M15867 7208 c-5 -16 -12 -17 -46 -12 -46 7 -74 -7 -64 -34 17 -44 54
-91 68 -86 8 4 15 2 15 -3 0 -5 16 -8 36 -8 50 2 64 25 64 102 l0 64 -34 -3
c-24 -1 -36 -8 -39 -20z"/>
<path d="M2842 7106 c1 -63 7 -118 11 -122 14 -15 42 12 53 51 15 55 30 54 45
-5 11 -42 17 -50 33 -48 14 2 22 14 27 37 12 58 15 186 4 186 -5 0 -10 -7 -10
-15 -10 -107 -18 -160 -24 -160 -4 0 -14 21 -22 48 -18 61 -38 61 -59 0 -9
-26 -19 -50 -22 -53 -3 -4 -9 39 -13 94 -10 140 -28 130 -23 -13z"/>
<path d="M4155 7198 c-2 -7 -5 -61 -7 -121 l-3 -107 41 0 c93 0 136 38 136
120 0 81 -19 100 -115 114 -35 5 -48 4 -52 -6z m110 -33 c20 -19 25 -34 25
-75 0 -65 -30 -100 -85 -100 l-36 0 5 73 c2 39 5 84 5 100 1 23 5 27 31 27 19
0 40 -9 55 -25z"/>
<path d="M1236 7163 c-3 -21 -6 -56 -6 -79 0 -49 -16 -71 -55 -77 -16 -2 6 -4
50 -4 49 -1 68 2 50 6 l-30 7 2 92 c2 51 1 92 -1 92 -2 0 -6 -17 -10 -37z"/>
<path d="M4403 7190 c-30 -12 -40 -55 -19 -79 9 -10 37 -26 61 -35 48 -19 65
-47 44 -73 -10 -11 -27 -14 -71 -11 -49 4 -56 2 -46 -10 9 -10 28 -13 71 -10
62 5 87 22 87 60 0 25 -42 63 -81 74 -71 20 -59 77 15 74 57 -2 63 -1 46 10
-18 12 -77 12 -107 0z"/>
<path d="M2004 7165 c-51 -35 -56 -128 -9 -159 24 -16 80 -21 109 -10 32 12
15 21 -29 16 -50 -5 -85 15 -85 50 0 17 7 19 68 16 65 -3 67 -2 70 23 4 38
-32 79 -72 79 -17 0 -41 -7 -52 -15z m80 -18 c10 -7 17 -22 15 -32 -4 -16 -12
-19 -54 -16 -28 1 -52 4 -54 7 -2 2 4 15 13 29 18 28 52 33 80 12z"/>
<path d="M2649 7141 c-55 -56 -24 -160 49 -161 63 -1 110 59 98 125 -13 68
-94 88 -147 36z m105 -13 c22 -31 20 -70 -5 -102 -24 -31 -52 -33 -79 -6 -42
42 -15 130 40 130 18 0 34 -8 44 -22z"/>
<path d="M3091 7144 c-26 -22 -31 -33 -31 -70 0 -85 83 -125 144 -69 21 20 26
33 26 74 0 42 -4 53 -26 70 -36 28 -76 26 -113 -5z m92 -7 c29 -20 32 -77 7
-110 -40 -51 -100 -27 -100 41 0 68 48 103 93 69z"/>
<path d="M3307 7164 c-11 -11 -8 -184 3 -184 11 0 19 29 22 89 2 34 9 48 28
63 29 21 56 16 65 -13 4 -10 12 -19 20 -19 21 0 6 39 -23 58 -23 15 -27 15
-54 -1 -28 -16 -32 -16 -42 -2 -6 9 -15 13 -19 9z"/>
<path d="M10314 7034 c3 -8 2 -13 -3 -10 -4 3 -19 -6 -31 -19 l-23 -25 72 0
72 0 -18 25 c-10 13 -24 25 -30 25 -7 0 -13 5 -13 10 0 6 -7 10 -16 10 -10 0
-14 -5 -10 -16z m42 -29 c21 -16 12 -18 -37 -8 -28 5 -30 7 -14 14 28 11 29
11 51 -6z"/>
<path d="M3994 7016 c-9 -24 4 -48 23 -44 12 2 18 12 18 28 0 29 -32 41 -41
16z"/>
<path d="M2683 6774 c-8 -21 13 -42 28 -27 13 13 5 43 -11 43 -6 0 -13 -7 -17
-16z"/>
<path d="M2442 6768 c-7 -7 -12 -23 -12 -36 0 -18 -4 -23 -16 -18 -9 3 -21 3
-27 -1 -7 -4 -2 -9 13 -13 23 -5 25 -11 30 -78 3 -50 10 -76 20 -82 20 -13
103 -13 95 0 -3 6 -22 10 -40 10 -40 0 -48 17 -43 96 l3 49 43 -2 c23 -1 42 2
42 7 0 5 -19 10 -42 12 -39 3 -43 5 -43 30 -1 34 -8 41 -23 26z"/>
<path d="M1167 6763 c-3 -5 14 -8 36 -8 39 0 43 -3 54 -35 11 -31 12 -32 12
-9 1 14 -7 33 -17 42 -19 17 -77 23 -85 10z"/>
<path d="M1516 6709 c-11 -111 -8 -179 9 -179 12 0 15 13 15 55 l0 55 55 0
c70 0 72 18 3 22 l-53 3 -3 43 -3 42 60 0 c34 0 61 4 61 10 0 6 -30 10 -69 10
l-68 0 -7 -61z"/>
<path d="M4210 6755 c0 -8 7 -15 15 -15 8 0 15 7 15 15 0 8 -7 15 -15 15 -8 0
-15 -7 -15 -15z"/>
<path d="M4490 6735 c0 -33 -2 -35 -34 -35 -22 0 -45 -9 -63 -24 -24 -21 -28
-31 -27 -74 0 -28 6 -58 13 -66 17 -20 65 -21 81 -1 7 8 19 15 27 15 9 0 13
-6 9 -15 -3 -8 -1 -15 4 -15 6 0 10 51 10 125 0 77 -4 125 -10 125 -5 0 -10
-16 -10 -35z m0 -112 c0 -45 -4 -58 -22 -74 -49 -40 -88 -15 -88 56 0 50 34
84 78 77 32 -4 32 -5 32 -59z"/>
<path d="M5500 6755 c-10 -11 -10 -19 -2 -27 15 -15 44 -2 40 19 -4 23 -22 27
-38 8z"/>
<path d="M6169 6742 c-41 -43 -66 -127 -55 -186 6 -34 73 -132 83 -122 3 3 -6
19 -20 36 -53 62 -59 170 -15 233 12 18 26 34 30 35 10 5 10 22 1 21 -5 0 -15
-8 -24 -17z"/>
<path d="M6320 6756 c0 -4 13 -26 29 -49 53 -75 50 -160 -8 -236 -16 -22 -20
-32 -11 -29 29 9 70 82 76 134 5 42 2 60 -16 98 -22 42 -70 99 -70 82z"/>
<path d="M3703 6733 c3 -10 19 -61 35 -113 23 -75 34 -96 49 -98 13 -2 22 4
26 15 2 10 21 62 40 116 19 53 32 97 28 97 -4 0 -22 -42 -41 -92 -49 -137 -51
-137 -90 -14 -19 58 -38 106 -43 106 -5 0 -7 -8 -4 -17z"/>
<path d="M5006 6738 c-2 -7 -7 -61 -10 -120 -6 -93 -5 -108 9 -108 12 0 15 14
16 73 0 39 4 81 9 92 9 22 9 22 30 -47 16 -52 35 -48 55 12 26 79 35 70 35
-34 0 -80 3 -96 15 -96 13 0 15 17 13 117 -3 103 -5 118 -21 121 -17 3 -23 -7
-59 -98 -10 -24 -11 -22 -33 35 -22 57 -50 83 -59 53z"/>
<path d="M1730 6637 c0 -51 5 -88 12 -95 15 -15 74 -16 83 -2 3 6 13 10 21 10
8 0 12 -4 9 -10 -3 -5 0 -10 8 -10 10 0 16 19 20 68 10 101 9 122 -7 122 -10
0 -17 -21 -23 -72 -7 -63 -11 -74 -34 -87 -47 -26 -59 -11 -59 79 0 64 -3 80
-15 80 -12 0 -15 -16 -15 -83z"/>
<path d="M1957 6713 c-10 -10 -8 -183 2 -183 4 0 12 28 15 63 8 65 34 107 67
107 33 0 41 -25 34 -100 -6 -58 -5 -70 8 -70 20 0 31 123 14 159 -15 32 -58
39 -93 16 -21 -14 -24 -14 -24 0 0 16 -12 20 -23 8z"/>
<path d="M2235 6711 c-50 -21 -73 -84 -50 -138 15 -35 41 -47 95 -41 51 5 47
24 -4 20 -36 -3 -46 0 -60 19 -24 35 -20 76 10 106 22 22 31 24 66 19 36 -6
40 -5 28 9 -13 16 -53 19 -85 6z"/>
<path d="M3557 6673 l-57 -48 57 -52 c32 -28 61 -49 66 -46 5 3 -15 27 -45 53
l-53 49 25 17 c42 31 86 73 75 74 -6 0 -36 -21 -68 -47z"/>
<path d="M4600 6713 c0 -6 20 -27 45 -49 41 -34 57 -63 38 -64 -5 -1 -26 -16
-47 -35 -62 -55 -34 -52 33 3 l60 50 -34 26 c-18 14 -39 31 -47 38 -29 28 -48
40 -48 31z"/>
<path d="M2625 6700 c3 -5 20 -10 37 -10 l31 0 -7 -52 c-3 -29 -6 -63 -6 -75
0 -20 -5 -23 -36 -23 -21 0 -33 -4 -29 -10 8 -13 155 -13 155 -1 0 5 -12 11
-27 13 l-28 3 2 83 2 82 -50 0 c-31 0 -48 -4 -44 -10z"/>
<path d="M2855 6685 c-20 -19 -25 -34 -25 -74 0 -42 4 -53 26 -70 38 -30 80
-27 115 8 38 38 41 109 7 141 -32 29 -92 27 -123 -5z m103 -7 c18 -18 15 -98
-5 -120 -32 -36 -88 -14 -99 39 -6 30 8 71 30 85 17 12 61 9 74 -4z"/>
<path d="M3058 6619 c-3 -79 3 -111 17 -97 2 2 5 32 6 66 2 70 28 106 71 100
22 -3 23 -8 26 -85 2 -65 6 -83 17 -83 22 0 21 152 -1 174 -17 18 -69 22 -79
6 -3 -5 -13 -10 -21 -10 -8 0 -12 5 -9 10 3 6 -1 10 -9 10 -12 0 -15 -19 -18
-91z"/>
<path d="M3975 6690 c-4 -6 5 -7 23 -4 41 8 72 -23 72 -74 0 -50 -23 -82 -60
-82 -52 0 -81 53 -61 111 12 36 10 46 -7 27 -10 -13 -15 -44 -13 -85 2 -50 71
-80 120 -53 46 24 51 125 8 155 -24 17 -73 20 -82 5z"/>
<path d="M4188 6693 l32 -4 0 -79 0 -79 -37 -4 c-21 -2 -4 -4 37 -4 41 0 62 2
45 4 l-30 4 3 84 3 85 -43 -2 c-37 -1 -38 -2 -10 -5z"/>
<path d="M5252 6688 c-20 -20 -14 -23 35 -23 45 0 48 -2 51 -27 3 -26 1 -28
-35 -28 -21 0 -49 -7 -61 -16 -24 -17 -29 -56 -9 -71 20 -17 69 -22 90 -9 15
8 21 8 24 -1 13 -36 23 -4 23 71 0 78 -2 85 -25 100 -29 19 -76 21 -93 4z m88
-118 c0 -32 -72 -57 -83 -27 -9 25 13 47 48 47 28 0 35 -4 35 -20z"/>
<path d="M5483 6692 c-40 -4 -44 -22 -5 -22 28 0 28 0 27 -70 l0 -70 -33 0
c-23 0 -32 -4 -30 -12 3 -9 30 -14 76 -16 60 -2 72 0 72 13 0 9 -9 15 -25 15
-25 0 -25 1 -25 79 0 85 -2 89 -57 83z"/>
<path d="M5650 6595 c0 -78 3 -95 15 -95 12 0 15 14 15 63 0 53 4 67 23 85 27
26 52 28 61 6 3 -9 6 -47 6 -85 0 -55 3 -69 15 -69 12 0 15 15 15 76 0 41 -5
84 -10 95 -12 22 -68 26 -89 7 -11 -10 -14 -10 -18 0 -3 6 -11 12 -19 12 -11
0 -14 -20 -14 -95z"/>
<path d="M1208 6626 c-19 -14 -23 -26 -10 -26 4 0 13 9 20 20 14 23 13 24 -10
6z"/>
<path d="M1130 6555 c-11 -13 -2 -15 71 -13 76 2 78 2 22 5 -35 2 -63 8 -63
13 0 15 -16 12 -30 -5z"/>
<path d="M6487 6403 c-8 -15 6 -453 14 -453 5 0 9 104 9 230 0 205 -5 255 -23
223z"/>
<path d="M2872 6317 c-5 -6 -12 -21 -14 -32 -2 -12 -11 -20 -25 -20 -32 0 -29
-19 3 -23 26 -4 26 -5 20 -58 -6 -54 3 -90 28 -106 17 -11 96 -9 96 2 0 6 -15
10 -33 10 -47 0 -57 15 -57 87 l0 63 45 0 c25 0 45 5 45 10 0 6 -10 10 -22 10
-48 0 -65 11 -62 36 3 28 -9 39 -24 21z"/>
<path d="M3798 6313 c-76 -87 -75 -228 1 -297 28 -26 27 -10 -4 34 -51 74 -48
168 10 244 27 36 22 51 -7 19z"/>
<path d="M3948 6290 c3 -26 9 -40 18 -40 10 0 14 12 14 40 0 32 -4 40 -18 40
-14 0 -17 -7 -14 -40z"/>
<path d="M4020 6290 c0 -45 23 -57 34 -17 11 41 7 57 -14 57 -17 0 -20 -7 -20
-40z"/>
<path d="M5034 6316 c-8 -22 0 -69 12 -73 17 -6 23 75 6 82 -7 2 -15 -2 -18
-9z"/>
<path d="M5112 6322 c-10 -7 -9 -68 2 -79 12 -12 26 11 26 42 0 36 -9 48 -28
37z"/>
<path d="M1136 6311 c-3 -4 5 -6 17 -4 12 2 35 0 51 -6 25 -10 28 -15 24 -45
-2 -19 0 -32 4 -30 4 3 8 20 8 38 0 25 -6 35 -25 44 -30 14 -72 16 -79 3z"/>
<path d="M2416 6303 c-36 -19 -56 -63 -56 -126 0 -45 4 -59 26 -81 45 -44 120
-33 147 22 33 65 26 146 -17 181 -23 19 -68 21 -100 4z m88 -35 c36 -51 10
-162 -40 -174 -59 -15 -97 97 -55 164 26 40 71 45 95 10z"/>
<path d="M3527 6313 c-4 -3 -7 -17 -7 -30 0 -18 -5 -23 -25 -23 -14 0 -25 -4
-25 -10 0 -5 11 -10 25 -10 24 0 25 -2 25 -69 0 -85 12 -101 76 -101 24 0 44
5 44 10 0 6 -15 10 -33 10 -47 0 -57 15 -57 87 l0 63 45 0 c57 0 59 18 3 22
-40 3 -43 5 -40 31 3 26 -14 37 -31 20z"/>
<path d="M5462 6308 c-14 -14 -16 -62 -2 -87 7 -14 4 -24 -15 -41 -32 -30 -32
-70 -2 -98 26 -24 52 -27 93 -12 19 8 30 8 38 0 5 -5 16 -10 24 -10 13 0 -21
50 -75 110 l-23 25 30 23 c54 42 34 102 -32 102 -13 0 -29 -5 -36 -12z m70
-37 c-2 -25 -28 -61 -43 -61 -11 0 -23 66 -14 80 4 6 19 10 33 8 22 -2 26 -8
24 -27z m-21 -126 c13 -19 29 -35 34 -35 6 0 1 -7 -9 -15 -57 -43 -117 16 -73
73 15 19 22 15 48 -23z"/>
<path d="M5892 6304 c-24 -17 -29 -53 -10 -83 9 -15 7 -23 -10 -42 -62 -65 19
-151 101 -108 16 9 22 9 25 0 2 -6 13 -11 25 -11 13 0 17 3 11 8 -20 13 -33
47 -23 63 12 19 11 59 -1 59 -5 0 -10 -13 -10 -30 0 -38 -9 -38 -43 1 l-27 31
30 25 c18 14 30 34 30 48 0 25 -33 55 -60 55 -9 0 -26 -7 -38 -16z m72 -19 c9
-25 -19 -73 -45 -75 -15 0 -29 52 -19 71 13 23 55 26 64 4z m-21 -145 c33 -47
29 -60 -19 -60 -28 0 -36 5 -44 25 -10 27 5 75 24 75 6 0 24 -18 39 -40z"/>
<path d="M6310 6292 c0 -28 15 -60 24 -52 2 3 6 20 8 39 2 26 -1 35 -14 37
-13 2 -18 -5 -18 -24z"/>
<path d="M6388 6315 c-9 -9 7 -80 17 -78 13 4 13 75 -1 80 -5 2 -13 1 -16 -2z"/>
<path d="M6534 6312 c-5 -4 -9 -13 -8 -19 1 -7 2 -25 3 -39 2 -40 26 -23 27
20 1 38 -5 49 -22 38z"/>
<path d="M6602 6277 c4 -51 22 -56 26 -6 2 26 -1 38 -13 43 -14 5 -16 -1 -13
-37z"/>
<path d="M6750 6306 c0 -8 5 -18 11 -22 19 -11 49 -87 49 -125 0 -43 -16 -94
-42 -131 -11 -16 -15 -28 -9 -28 6 0 23 19 38 43 35 55 43 139 18 188 -25 48
-65 94 -65 75z"/>
<path d="M15850 6290 c-18 -14 -21 -20 -9 -20 9 0 24 9 34 20 23 26 8 26 -25
0z"/>
<path d="M4162 6284 c-22 -15 -27 -38 -16 -68 4 -9 28 -26 56 -38 56 -24 73
-47 54 -73 -13 -18 -91 -26 -114 -11 -7 4 -12 3 -12 -2 0 -14 26 -22 70 -22
52 0 87 15 95 39 11 36 -4 57 -61 85 -30 15 -58 34 -61 42 -10 26 20 45 71 46
31 0 43 4 35 9 -23 14 -93 10 -117 -7z"/>
<path d="M2607 6263 c-4 -3 -7 -41 -7 -84 0 -59 4 -82 17 -94 16 -17 57 -17
97 0 14 6 17 5 12 -3 -4 -7 -1 -12 7 -12 20 0 27 31 27 123 0 62 -3 77 -15 77
-11 0 -15 -13 -16 -52 -1 -74 -11 -100 -41 -117 -44 -25 -58 -3 -58 90 0 73
-6 90 -23 72z"/>
<path d="M3047 6264 c-4 -4 -7 -68 -7 -141 0 -103 3 -134 13 -131 6 3 13 21
15 41 3 36 5 37 41 37 75 0 117 67 91 144 -14 42 -47 55 -93 38 -25 -9 -32 -9
-41 4 -7 8 -15 12 -19 8z m124 -51 c23 -61 -14 -127 -68 -121 -26 3 -28 7 -31
50 -3 40 1 52 22 73 33 33 64 32 77 -2z"/>
<path d="M3260 6182 c0 -64 4 -82 18 -95 22 -20 54 -22 85 -6 16 9 22 9 25 0
2 -6 10 -11 18 -11 11 0 14 20 14 95 0 78 -3 95 -15 95 -10 0 -15 -12 -17 -37
-3 -81 -6 -94 -23 -113 -10 -11 -26 -20 -35 -20 -33 0 -42 25 -37 99 5 65 4
71 -14 71 -17 0 -19 -8 -19 -78z"/>
<path d="M4395 6247 c-34 -21 -44 -41 -45 -87 0 -65 20 -90 74 -90 62 0 87 24
93 87 5 48 4 51 -29 77 -38 28 -62 32 -93 13z m93 -78 c3 -51 -12 -77 -48 -84
-29 -5 -43 2 -59 32 -35 67 24 143 84 108 14 -9 21 -25 23 -56z"/>
<path d="M4569 6255 c-3 -5 -6 -52 -8 -104 -3 -75 0 -92 10 -89 9 3 16 28 19
74 5 75 13 94 36 94 13 0 15 -15 13 -82 -1 -55 2 -83 9 -86 8 -2 12 16 12 60
0 61 17 108 40 108 5 0 10 -37 12 -82 2 -47 7 -83 13 -83 11 0 19 127 10 162
-6 27 -36 31 -56 7 -11 -14 -13 -14 -21 0 -10 18 -43 21 -53 6 -10 -16 -23
-12 -27 8 -2 9 -6 13 -9 7z"/>
<path d="M4823 6235 c-27 -19 -46 -75 -37 -109 14 -55 94 -85 139 -52 18 13
15 13 -28 9 -41 -5 -50 -2 -67 17 -36 41 -27 50 49 50 l69 0 -4 33 c-9 59 -72
86 -121 52z m81 -21 c31 -31 20 -44 -39 -44 -59 0 -63 4 -39 38 18 26 56 29
78 6z"/>
<path d="M1150 6199 c0 -6 8 -9 18 -6 9 2 30 -3 46 -11 25 -12 27 -18 22 -45
-4 -23 -3 -28 4 -17 17 25 12 58 -10 65 -11 3 -20 11 -20 16 0 5 -13 9 -30 9
-16 0 -30 -5 -30 -11z"/>
<path d="M5570 6154 c0 -41 16 -38 22 6 3 20 0 30 -9 30 -8 0 -13 -13 -13 -36z"/>
<path d="M1123 6083 c15 -2 37 -2 50 0 12 2 0 4 -28 4 -27 0 -38 -2 -22 -4z"/>
<path d="M2040 5835 c0 -33 -2 -35 -35 -35 -24 0 -45 -9 -67 -29 -29 -26 -33
-36 -33 -79 0 -81 57 -120 105 -72 11 11 22 20 25 20 3 0 5 -9 5 -20 0 -34 17
-22 24 18 3 20 6 81 6 135 0 80 -3 97 -15 97 -10 0 -15 -11 -15 -35z m-4 -110
c0 -40 -5 -56 -25 -77 -44 -49 -81 -28 -81 45 0 50 34 89 74 85 30 -3 31 -4
32 -53z"/>
<path d="M3314 5855 c-7 -18 3 -35 21 -35 18 0 26 15 19 34 -8 20 -33 21 -40
1z"/>
<path d="M3076 5844 c-3 -9 -6 -23 -6 -33 0 -11 -8 -17 -22 -16 -33 0 -38 -19
-5 -23 26 -3 27 -5 27 -71 0 -53 4 -72 18 -84 20 -18 92 -23 92 -7 0 6 -12 10
-26 10 -49 0 -64 16 -63 68 1 70 10 86 50 86 50 1 52 20 2 24 -40 3 -43 5 -43
33 0 31 -14 39 -24 13z"/>
<path d="M1479 5848 c-3 -11 -7 -68 -10 -148 l-3 -95 72 -3 c45 -2 72 1 72 8
0 5 -21 10 -47 10 -66 0 -75 8 -65 56 8 39 8 39 57 39 29 0 50 5 52 13 3 9
-11 12 -52 12 l-56 0 3 43 3 42 58 3 c81 4 71 22 -13 22 -38 0 -70 -1 -71 -2z"/>
<path d="M2150 5778 c0 -40 -3 -97 -6 -125 -6 -45 -4 -53 10 -53 15 0 22 37
17 93 -2 14 6 17 53 17 31 0 56 5 56 10 0 6 -23 10 -51 10 l-50 0 3 48 3 47
49 0 c30 0 51 5 54 13 3 9 -16 12 -67 12 l-71 0 0 -72z"/>
<path d="M1133 5778 c-44 -65 -47 -72 -35 -64 11 7 75 106 68 106 -3 0 -17
-19 -33 -42z"/>
<path d="M1198 5775 c-4 -22 -8 -55 -8 -72 l0 -33 -62 -2 -63 -2 70 -5 c71 -6
146 -1 98 7 -20 3 -22 10 -25 75 -3 65 -4 68 -10 32z"/>
<path d="M1690 5710 c0 -49 0 -93 -1 -97 0 -4 4 -9 10 -11 5 -2 13 27 17 67 7
79 35 119 73 106 19 -6 21 -14 21 -91 0 -64 3 -84 14 -84 9 0 15 21 20 70 6
70 -2 105 -28 122 -18 13 -53 9 -66 -7 -7 -8 -16 -15 -21 -15 -5 0 -9 7 -9 15
0 8 -7 15 -15 15 -12 0 -15 -17 -15 -90z"/>
<path d="M2367 5793 c-4 -3 -7 -41 -7 -83 0 -62 4 -80 18 -93 23 -21 65 -22
82 -2 7 8 16 15 21 15 5 0 9 -7 9 -15 0 -8 5 -15 10 -15 6 0 10 21 10 48 0 26
3 71 6 100 6 44 4 52 -10 52 -13 0 -16 -11 -16 -65 0 -58 -3 -69 -26 -90 -29
-27 -34 -28 -58 -19 -13 5 -16 23 -16 90 0 77 -5 95 -23 77z"/>
<path d="M2589 5763 c0 -21 -2 -66 -6 -100 -4 -53 -3 -63 11 -63 13 0 16 12
16 63 0 54 4 67 24 86 15 14 33 21 48 19 22 -3 23 -7 26 -86 2 -60 6 -82 15
-79 15 5 22 140 8 166 -13 23 -63 32 -87 14 -23 -17 -34 -16 -34 2 0 8 -4 15
-10 15 -5 0 -10 -17 -11 -37z"/>
<path d="M2864 5784 c-59 -29 -74 -116 -28 -159 31 -28 94 -34 113 -11 10 12
6 13 -29 9 -54 -7 -80 15 -80 69 0 57 35 89 84 78 27 -6 36 -5 36 5 0 27 -50
32 -96 9z"/>
<path d="M3264 5791 c-9 -9 9 -21 32 -21 23 0 24 -2 24 -75 l0 -75 -35 0 c-19
0 -35 -4 -35 -10 0 -6 33 -10 80 -10 47 0 80 4 80 10 0 6 -13 10 -30 10 l-29
0 -3 86 -3 87 -38 1 c-21 1 -40 -1 -43 -3z"/>
<path d="M3490 5770 c-39 -39 -38 -126 3 -155 29 -20 80 -19 106 3 42 33 44
130 4 159 -27 20 -90 16 -113 -7z m104 -22 c22 -31 20 -80 -4 -106 -41 -44
-100 -16 -100 47 0 49 24 81 60 81 18 0 34 -8 44 -22z"/>
<path d="M3690 5695 c0 -78 3 -95 15 -95 12 0 15 14 15 63 0 53 4 67 23 85 13
12 33 22 45 22 27 0 35 -28 30 -109 -3 -53 -1 -61 15 -61 15 0 17 10 17 73 0
49 -5 80 -16 95 -17 24 -53 29 -87 11 -16 -9 -22 -9 -25 0 -2 6 -10 11 -18 11
-11 0 -14 -20 -14 -95z"/>
<path d="M6938 5753 c21 -4 22 -9 22 -88 0 -71 -3 -84 -17 -87 -10 -3 2 -4 27
-5 25 0 35 2 23 4 -22 4 -23 9 -23 88 0 79 1 84 23 88 12 2 0 3 -28 3 -27 0
-40 -1 -27 -3z"/>
<path d="M12972 4168 c-16 -16 -15 -28 2 -28 16 0 29 27 17 34 -4 3 -13 0 -19
-6z"/>
<path d="M12912 4118 c-7 -7 -12 -17 -12 -24 0 -6 -7 -14 -15 -18 -8 -3 -23
-21 -32 -40 -13 -29 -14 -38 -3 -51 16 -20 49 -19 71 1 14 13 16 21 7 39 -8
19 -6 29 11 53 11 17 21 35 21 41 0 15 -33 14 -48 -1z"/>
<path d="M11506 3868 c-12 -57 0 -87 57 -144 42 -41 70 -58 148 -88 81 -31
104 -45 153 -95 58 -58 58 -59 53 -107 -3 -27 -6 -58 -8 -69 -3 -12 2 -21 13
-23 11 -2 18 4 20 18 l3 21 22 -20 c18 -17 22 -18 27 -5 10 25 7 49 -6 62 -7
7 -13 16 -14 20 0 4 -9 25 -19 47 -22 47 -23 54 -14 80 13 39 -20 82 -85 111
-161 71 -161 71 -129 106 11 12 12 18 4 18 -7 0 -11 6 -9 12 8 23 -20 38 -71
38 -63 0 -129 20 -134 40 -2 8 -7 -2 -11 -22z"/>
<path d="M11746 3831 c-3 -5 0 -11 7 -14 8 -3 14 1 14 9 0 16 -13 19 -21 5z"/>
<path d="M10727 3134 c-7 -7 0 -351 9 -401 l5 -33 -177 0 c-186 0 -247 -10
-242 -40 3 -12 19 -15 88 -14 47 1 148 2 224 3 l139 1 -6 113 c-4 61 -10 172
-13 245 -7 123 -11 142 -27 126z"/>
<path d="M10455 2930 c8 -13 125 -13 145 0 10 7 -11 10 -68 10 -53 0 -81 -4
-77 -10z"/>
<path d="M10500 2892 c0 -19 23 -31 42 -21 27 15 22 29 -12 29 -16 0 -30 -4
-30 -8z"/>
<path d="M10282 2619 c-11 -17 -12 -40 -2 -123 6 -55 10 -146 8 -201 l-3 -100
-175 -3 c-96 -2 -182 -6 -190 -9 -8 -3 -21 -5 -27 -4 -7 1 -13 -5 -13 -14 0
-12 -14 -15 -72 -16 -40 -1 -194 -5 -343 -9 -269 -8 -269 -8 70 -4 845 10
1164 17 1215 23 30 4 -49 6 -176 3 l-231 -5 -6 114 c-4 63 -10 171 -13 242 -7
129 -15 150 -42 106z"/>
<path d="M19180 2551 c-6 -13 -7 -36 0 -72 15 -76 20 -72 20 14 0 43 -2 77 -5
77 -2 0 -9 -9 -15 -19z"/>
<path d="M10050 2402 c0 -60 4 -91 10 -87 6 3 10 20 10 37 0 25 3 29 20 25 24
-6 45 17 35 40 -5 12 -9 14 -12 6 -3 -7 -13 -13 -24 -13 -14 0 -19 7 -19 28 0
15 -5 34 -10 42 -7 10 -10 -14 -10 -78z"/>
<path d="M1124 2458 c-9 -28 -13 -81 -14 -193 -1 -49 -7 -126 -13 -170 l-12
-79 -205 -4 c-212 -3 -260 -11 -260 -44 0 -16 16 -17 223 -12 122 3 681 14
1242 25 561 10 1335 26 1720 34 385 8 943 19 1240 25 297 5 738 14 980 20 242
5 661 14 930 20 1835 37 2257 46 2070 48 -82 1 -352 -3 -600 -8 -247 -5 -792
-16 -1210 -25 -418 -8 -971 -19 -1230 -25 -258 -6 -920 -19 -1470 -30 -550
-11 -1223 -25 -1495 -30 -272 -6 -715 -14 -985 -20 -269 -5 -583 -12 -696 -16
-114 -3 -209 -2 -211 3 -3 4 -1 58 2 118 17 262 21 385 11 385 -5 0 -13 -10
-17 -22z"/>
<path d="M931 2283 c0 -36 3 -43 9 -28 12 28 12 75 0 75 -5 0 -10 -21 -9 -47z"/>
<path d="M927 2176 c-4 -15 -6 -31 -2 -34 10 -10 16 6 13 35 l-3 28 -8 -29z"/>
<path d="M19186 2024 c-3 -9 -6 -57 -6 -108 0 -51 -5 -128 -10 -172 -6 -46
-11 -423 -13 -912 l-2 -832 23 0 22 0 0 1020 c0 561 -2 1020 -4 1020 -2 0 -7
-7 -10 -16z"/>
<path d="M5482 1938 c-7 -7 -12 -20 -12 -30 0 -10 -4 -18 -10 -18 -5 0 -10 11
-10 25 0 29 -12 32 -31 8 -12 -15 -12 -16 4 -10 12 4 17 1 17 -9 0 -12 -7 -15
-25 -12 -17 4 -25 1 -25 -8 0 -8 11 -14 25 -14 18 0 23 -4 19 -15 -4 -8 -1
-15 5 -15 6 0 11 7 11 15 0 9 7 18 15 21 8 4 15 14 15 24 0 25 20 36 31 19 12
-19 11 -56 -1 -64 -6 -4 -17 -1 -25 5 -9 7 -15 8 -15 2 0 -5 7 -15 15 -22 12
-10 18 -10 30 0 27 22 15 110 -15 110 -3 0 -11 -5 -18 -12z"/>
<path d="M5557 1944 c-4 -4 -7 -18 -7 -31 0 -17 6 -23 21 -23 16 0 20 5 17 27
-3 26 -18 39 -31 27z"/>
<path d="M4450 1881 c0 -34 4 -61 10 -61 6 0 10 24 10 54 0 30 -4 58 -10 61
-6 4 -10 -17 -10 -54z"/>
<path d="M5320 1930 c0 -5 9 -10 20 -10 11 0 20 -6 20 -13 0 -8 -9 -22 -20
-32 -29 -27 -25 -45 10 -45 17 0 30 5 30 10 0 6 -10 10 -22 10 -19 0 -20 2 -6
18 22 25 28 48 15 61 -14 14 -47 15 -47 1z"/>
<path d="M5599 1894 c-26 -63 -20 -64 14 -3 16 27 23 49 17 49 -6 0 -20 -21
-31 -46z"/>
<path d="M4587 1923 c-13 -13 -7 -21 13 -16 28 8 26 -19 -6 -56 l-26 -31 39 1
c23 1 29 3 16 6 -26 5 -30 18 -9 30 25 15 29 51 7 62 -23 13 -26 13 -34 4z"/>
<path d="M4870 1920 c0 -6 11 -8 25 -4 14 3 25 3 25 -1 0 -5 -11 -23 -25 -41
-33 -44 -32 -54 10 -54 40 0 48 17 9 22 l-25 3 25 34 c34 45 33 51 -9 51 -19
0 -35 -5 -35 -10z"/>
<path d="M3466 1898 c-26 -36 -16 -128 14 -128 5 0 2 12 -6 28 -18 34 -18 46
2 83 19 37 12 49 -10 17z"/>
<path d="M4130 1912 c0 -5 10 -13 23 -17 19 -6 19 -8 5 -12 -22 -6 -23 -19 -3
-27 22 -8 7 -39 -16 -33 -11 3 -19 1 -19 -5 0 -5 12 -8 28 -6 25 3 27 6 27 53
0 44 -3 50 -22 53 -13 2 -23 -1 -23 -6z"/>
<path d="M4297 1902 c-21 -23 -22 -56 -1 -76 17 -18 64 -22 64 -6 0 6 -11 10
-24 10 -31 0 -46 19 -35 48 6 15 17 22 34 22 14 0 25 5 25 10 0 17 -46 11 -63
-8z"/>
<path d="M4665 1910 c-3 -5 -1 -10 4 -10 15 0 14 -53 -1 -68 -9 -9 -6 -12 16
-12 22 0 27 4 22 16 -3 9 -6 31 -6 50 0 33 -20 47 -35 24z"/>
<path d="M3578 1898 c15 -15 16 -82 2 -109 -6 -10 -7 -19 -2 -19 14 0 32 48
32 83 0 33 -15 57 -34 57 -6 0 -5 -5 2 -12z"/>
<path d="M4956 1894 c-16 -41 2 -75 35 -67 24 7 33 37 19 63 -13 24 -45 27
-54 4z m44 -30 c0 -33 -33 -30 -38 4 -3 17 2 22 17 22 16 0 21 -6 21 -26z"/>
<path d="M5034 1885 c-8 -34 1 -55 26 -55 25 0 34 21 26 55 -4 16 -13 25 -26
25 -13 0 -22 -9 -26 -25z m44 -17 c-5 -34 -38 -37 -38 -4 0 20 5 26 21 26 15
0 20 -5 17 -22z"/>
<path d="M5104 1897 c-6 -16 0 -54 9 -63 4 -4 7 7 7 24 0 22 5 32 15 32 10 0
15 -10 15 -32 0 -17 3 -28 8 -24 4 4 7 17 7 29 0 11 6 22 13 24 8 3 12 -6 12
-26 0 -17 5 -31 11 -31 6 0 9 16 7 38 -3 37 -3 37 -51 40 -32 1 -49 -2 -53
-11z"/>
<path d="M5230 1894 c0 -8 5 -12 10 -9 6 3 10 10 10 16 0 5 -4 9 -10 9 -5 0
-10 -7 -10 -16z"/>
<path d="M3770 1850 c0 -49 1 -50 31 -50 17 0 28 4 24 10 -3 6 -14 10 -25 10
-15 0 -17 6 -13 40 4 26 2 40 -6 40 -7 0 -11 -19 -11 -50z"/>
<path d="M4388 1889 c-22 -13 -23 -52 -2 -70 33 -27 72 33 44 67 -14 16 -19
17 -42 3z m32 -34 c0 -25 -23 -35 -35 -15 -10 16 2 40 20 40 9 0 15 -9 15 -25z"/>
<path d="M5631 1886 c-16 -19 -7 -46 14 -46 22 0 30 29 13 46 -13 13 -16 13
-27 0z"/>
<path d="M3090 1873 c-13 -15 -12 -16 3 -10 12 4 17 1 17 -9 0 -12 -6 -15 -25
-10 -14 4 -25 2 -25 -4 0 -5 9 -10 21 -10 13 0 23 -8 26 -21 5 -20 6 -20 18 3
6 13 8 27 3 33 -4 5 -8 17 -8 27 0 22 -10 22 -30 1z"/>
<path d="M3197 1866 c-4 -15 -6 -31 -2 -34 10 -10 16 6 13 35 l-3 28 -8 -29z"/>
<path d="M3970 1881 c0 -5 8 -12 18 -15 10 -3 7 -4 -8 -3 -28 2 -39 -25 -20
-48 14 -17 50 -20 50 -5 0 6 -9 10 -19 10 -11 0 -23 5 -26 10 -3 6 4 10 18 10
31 0 38 9 26 31 -10 19 -39 26 -39 10z"/>
<path d="M1330 1860 c0 -13 -7 -20 -20 -20 -13 0 -22 -9 -26 -25 -9 -38 2 -55
36 -55 l30 0 0 60 c0 33 -4 60 -10 60 -5 0 -10 -9 -10 -20z m0 -54 c0 -31 -14
-40 -30 -21 -10 12 -10 18 0 30 18 22 30 18 30 -9z"/>
<path d="M1368 1828 c-3 -29 -1 -57 4 -62 4 -6 8 -1 8 12 0 27 16 29 23 2 3
-14 14 -20 31 -20 14 0 26 5 26 10 0 6 -9 10 -19 10 -11 0 -23 5 -26 10 -3 6
4 10 18 10 31 0 38 9 26 31 -13 25 -36 24 -51 -1 -19 -30 -27 -24 -21 15 3 21
2 35 -5 35 -5 0 -12 -24 -14 -52z"/>
<path d="M3401 1871 c-11 -7 -10 -10 5 -14 13 -3 10 -5 -9 -6 -23 -1 -28 -5
-25 -22 4 -29 30 -45 54 -34 17 8 16 9 -8 13 -35 4 -37 22 -3 22 28 0 31 8 13
33 -9 11 -18 14 -27 8z"/>
<path d="M3509 1864 c-11 -14 -9 -19 11 -35 l25 -19 -23 0 c-13 0 -20 -4 -17
-10 10 -16 42 -11 49 7 5 11 -1 23 -16 35 l-23 18 23 0 c13 0 20 4 17 10 -9
15 -31 12 -46 -6z"/>
<path d="M3840 1839 c0 -24 4 -38 10 -34 6 3 10 22 10 41 0 19 -4 34 -10 34
-5 0 -10 -18 -10 -41z"/>
<path d="M3872 1848 c2 -48 12 -58 18 -19 7 46 30 53 31 9 0 -30 1 -31 9 -10
14 33 2 52 -31 52 -27 0 -29 -3 -27 -32z"/>
<path d="M1235 1815 c0 -47 3 -55 19 -55 14 0 16 3 7 13 -6 8 -9 16 -7 18 2 2
6 21 9 42 5 30 3 37 -11 37 -14 0 -17 -10 -17 -55z"/>
<path d="M3260 1835 c0 -34 0 -35 -36 -29 -25 4 -34 2 -29 -5 3 -6 24 -11 46
-11 39 0 39 0 39 40 0 22 -4 40 -10 40 -5 0 -10 -16 -10 -35z"/>
<path d="M3298 1835 c-2 -20 0 -38 4 -41 4 -3 8 4 8 15 0 26 10 51 21 51 5 0
9 -13 9 -29 0 -17 5 -33 11 -36 7 -5 9 6 7 31 -3 34 -7 39 -29 42 -24 3 -27
-1 -31 -33z"/>
<path d="M731 1842 c-12 -22 -3 -37 27 -47 30 -9 23 -28 -14 -37 -27 -6 -27
-6 6 -5 28 2 36 6 38 24 2 16 -4 26 -22 35 -33 14 -33 28 -1 28 14 0 25 5 25
10 0 17 -49 11 -59 -8z"/>
<path d="M808 1843 c-2 -10 -2 -33 0 -53 l4 -37 54 -1 54 -1 0 33 c0 41 -21
62 -47 47 -16 -9 -16 -10 5 -11 12 0 22 -4 22 -10 0 -5 -9 -10 -20 -10 -11 0
-23 -7 -26 -15 -4 -8 -12 -15 -18 -15 -17 0 -13 39 5 51 10 6 10 9 2 9 -7 0
-13 7 -13 15 0 21 -18 19 -22 -2z m92 -63 c0 -5 -9 -10 -21 -10 -11 0 -17 5
-14 10 3 6 13 10 21 10 8 0 14 -4 14 -10z"/>
<path d="M5230 1845 c0 -8 5 -15 10 -15 6 0 10 7 10 15 0 8 -4 15 -10 15 -5 0
-10 -7 -10 -15z"/>
<path d="M933 1828 c2 -7 10 -13 17 -13 7 0 15 6 18 13 2 7 -5 12 -18 12 -13
0 -20 -5 -17 -12z"/>
<path d="M1039 1835 c-1 -5 -1 -14 0 -19 4 -18 -11 -46 -25 -46 -9 0 -14 11
-14 30 0 17 -4 30 -10 30 -12 0 -13 -50 -2 -66 8 -12 100 -13 120 -1 19 13 14
34 -10 42 l-23 8 23 4 c12 2 22 9 22 14 0 14 -48 11 -53 -3 -4 -10 -8 -9 -16
2 -6 8 -11 11 -12 5z m61 -57 c0 -5 -11 -8 -25 -8 -18 0 -25 5 -25 19 0 17 3
18 25 8 14 -7 25 -15 25 -19z"/>
<path d="M1140 1825 c0 -8 5 -15 10 -15 6 0 10 7 10 15 0 8 -4 15 -10 15 -5 0
-10 -7 -10 -15z"/>
<path d="M4200 1808 c0 -19 2 -20 10 -8 13 19 13 30 0 30 -5 0 -10 -10 -10
-22z"/>
<path d="M940 1775 c0 -16 6 -25 15 -25 8 0 15 5 15 10 0 6 -5 10 -11 10 -6 0
-9 7 -5 15 3 8 1 15 -4 15 -6 0 -10 -11 -10 -25z"/>
<path d="M5148 1413 c12 -2 30 -2 40 0 9 3 -1 5 -23 4 -22 0 -30 -2 -17 -4z"/>
<path d="M8802 678 c4 -59 28 -63 28 -4 0 35 -4 46 -16 46 -12 0 -14 -9 -12
-42z"/>
<path d="M8650 530 c0 -27 3 -30 30 -30 27 0 30 3 30 30 0 27 -3 30 -30 30
-27 0 -30 -3 -30 -30z"/>
<path d="M8540 60 c0 -11 7 -20 15 -20 8 0 15 -4 15 -10 0 -5 7 -10 15 -10 8
0 15 5 15 10 0 6 18 10 40 10 33 0 40 3 40 20 0 22 -16 27 -23 8 -4 -10 -7
-10 -18 0 -7 6 -32 12 -56 12 -36 0 -43 -3 -43 -20z"/>
<path d="M9085 10 c-24 -6 -18 -8 30 -9 42 0 56 2 45 9 -17 11 -32 11 -75 0z"/>
</g>
</svg>
