<?xml version="1.0" standalone="no"?>
<!DOCTYPE svg PUBLIC "-//W3C//DTD SVG 20010904//EN"
 "http://www.w3.org/TR/2001/REC-SVG-20010904/DTD/svg10.dtd">
<svg version="1.0" xmlns="http://www.w3.org/2000/svg"
 width="496.000000pt" height="881.000000pt" viewBox="0 0 496.000000 881.000000"
 preserveAspectRatio="xMidYMid meet">
<metadata>
Created by potrace 1.16, written by Peter Selinger 2001-2019
</metadata>
<g transform="translate(0.000000,881.000000) scale(0.100000,-0.100000)"
fill="#000000" stroke="none">
<path d="M3606 8748 c-10 -101 -34 -313 -50 -448 -8 -69 -17 -156 -21 -195 -3
-38 -9 -95 -15 -125 -24 -142 -47 -376 -55 -560 -3 -74 -8 -155 -12 -180 -3
-25 -6 -51 -6 -57 0 -7 -12 -13 -26 -13 -22 -1 -24 -2 -9 -11 15 -8 17 -21 13
-87 -2 -43 -8 -98 -14 -122 -5 -25 -13 -80 -16 -122 l-7 -78 -62 0 c-59 0
-400 23 -522 36 -74 7 -88 -4 -99 -73 -4 -26 -17 -102 -30 -168 -13 -66 -42
-217 -65 -335 -22 -118 -44 -232 -49 -254 -8 -34 -7 -39 10 -43 22 -6 25 -19
7 -26 -7 -2 22 -7 65 -11 43 -4 81 -5 84 -2 4 3 -8 6 -25 6 -26 0 -32 4 -32
21 0 17 4 20 23 15 12 -3 34 -6 50 -6 20 0 27 -5 27 -20 0 -12 -7 -20 -17 -20
-10 -1 0 -7 22 -15 22 -8 48 -12 58 -9 9 3 17 1 17 -4 0 -4 42 -8 93 -8 75 1
98 -3 122 -18 19 -13 30 -15 33 -8 4 14 62 16 62 2 0 -5 -8 -7 -17 -4 -15 5
-15 4 -3 -4 13 -9 81 -15 133 -13 10 1 17 9 17 21 0 22 16 24 82 14 33 -6 36
-9 28 -29 -8 -21 -5 -23 33 -29 30 -5 38 -9 27 -16 -8 -5 -17 -5 -20 -1 -5 9
-89 20 -205 26 -38 2 -79 6 -90 9 -12 2 -66 10 -120 17 -90 13 -96 15 -60 21
28 5 21 6 -23 3 -34 -3 -122 4 -195 14 -216 31 -229 33 -222 21 4 -7 -2 -7
-21 0 -23 9 -25 9 -15 -4 10 -12 9 -14 -8 -9 -12 3 -21 1 -21 -4 0 -10 -92
-34 -112 -29 -7 1 -10 1 -5 -1 4 -3 5 -9 1 -14 -3 -5 -3 -9 -1 -9 27 0 640
-95 812 -125 126 -23 31 -16 -135 10 -153 24 -166 24 -221 10 -62 -16 -287
-18 -265 -2 6 5 -1 6 -17 3 -19 -5 -29 -2 -33 9 -4 8 -14 15 -23 15 -9 1 -1 7
17 15 37 16 41 25 11 25 -13 0 -18 -4 -13 -12 4 -7 3 -8 -5 -4 -6 4 -9 11 -6
15 2 5 -36 14 -85 20 -50 7 -90 16 -90 21 0 5 -43 -6 -95 -23 l-95 -31 0 -36
c0 -19 4 -41 9 -49 6 -9 87 -27 232 -52 360 -60 734 -119 763 -119 14 0 88 31
164 69 75 38 155 77 177 86 22 10 50 29 62 42 18 21 27 23 60 17 21 -3 48 -12
60 -20 12 -8 26 -14 30 -14 4 0 1 5 -7 10 -24 15 2 13 285 -25 341 -47 309
-38 301 -86 -6 -38 -5 -39 14 -29 15 8 20 21 20 50 0 22 -2 40 -5 40 -3 0 -71
9 -153 21 -81 11 -172 21 -204 22 -31 1 -54 5 -52 8 2 3 -61 14 -139 23 -78
10 -156 22 -174 27 -24 8 -38 7 -55 -4 -13 -8 -42 -20 -65 -27 -23 -7 -40 -17
-37 -21 3 -5 -3 -6 -12 -2 -12 4 -15 3 -10 -5 5 -8 1 -10 -10 -5 -11 4 -15 3
-10 -5 3 -6 1 -14 -5 -18 -8 -4 -9 -3 -5 4 4 7 1 12 -6 13 -7 0 33 24 90 52
81 41 100 55 90 65 -9 9 -9 12 4 12 9 0 19 8 22 18 7 22 138 642 167 792 12
63 24 109 26 103 4 -11 -34 -203 -121 -612 -40 -187 -44 -219 -34 -247 14 -39
33 -44 108 -27 30 7 62 13 70 13 13 0 13 -1 0 -10 -12 -8 -12 -10 5 -11 l20 0
-20 -9 c-29 -12 -9 -17 120 -33 104 -13 111 -13 142 6 18 10 33 16 33 13 0 -3
-12 -12 -27 -20 l-28 -14 40 -8 c22 -4 71 -8 110 -8 62 -1 70 1 73 19 3 16 1
18 -9 8 -10 -10 -16 -9 -31 4 -29 26 -23 43 14 36 22 -4 29 -3 24 5 -4 7 -16
12 -26 12 -10 0 -20 5 -22 11 -3 8 -18 4 -46 -10 -23 -12 -42 -19 -42 -16 0 2
21 16 48 29 l47 24 -37 16 c-51 22 -58 21 -143 -21 -64 -32 -77 -36 -85 -23
-6 9 -6 16 0 18 6 2 10 9 10 16 0 7 24 21 53 31 46 17 49 20 27 25 l-25 6 30
16 c17 9 57 27 90 40 33 14 88 40 121 59 50 28 59 37 48 46 -10 10 -19 7 -43
-13 -29 -24 -36 -24 -32 0 1 5 -12 6 -29 3 -16 -4 -30 -3 -30 1 0 12 69 34 81
26 8 -5 9 -3 5 5 -6 9 1 11 27 6 26 -5 35 -3 34 7 -1 7 3 35 7 62 6 34 11 44
18 35 6 -10 7 -7 3 9 -4 13 -3 47 1 75 6 42 9 47 14 27 3 -14 6 7 6 47 0 39 5
77 11 84 13 17 58 258 49 266 -3 4 -6 -7 -7 -23 0 -16 -3 -24 -5 -17 -3 6 2
53 11 104 8 50 14 94 12 96 -14 13 -31 -63 -83 -384 l-58 -363 -61 -20 c-133
-45 -345 -123 -342 -127 2 -2 23 4 47 12 24 8 45 13 47 11 2 -2 -24 -13 -58
-25 -34 -11 -65 -19 -67 -16 -3 3 1 5 8 5 7 0 11 2 8 5 -9 10 -98 -27 -91 -38
4 -7 0 -8 -13 -3 -10 4 -15 4 -11 -1 5 -4 22 -8 38 -9 17 -1 36 -10 44 -20 12
-17 18 -17 71 -6 32 6 59 10 61 8 7 -7 -91 -35 -161 -46 -38 -6 -77 -15 -87
-21 -24 -12 -24 -19 7 176 14 88 29 203 34 255 5 52 18 160 29 240 12 80 27
196 34 259 l12 114 40 13 c39 13 39 13 5 7 -19 -3 -53 -5 -76 -4 -36 1 -45 -3
-76 -37 -19 -21 -41 -60 -49 -86 l-14 -48 -59 6 c-32 3 -80 6 -105 6 -78 0
-78 -1 -56 154 10 75 21 136 25 136 4 0 7 18 8 41 1 22 4 44 6 48 3 4 17 129
31 277 14 148 34 357 45 464 11 107 25 245 30 305 9 101 47 309 99 542 12 51
21 95 21 98 0 3 -15 5 -34 5 l-33 0 -7 -62z m483 -2700 c-2 -35 -15 -43 -71
-44 -32 -1 -58 2 -58 5 0 5 100 46 123 50 4 0 7 -5 6 -11z m-49 -62 c0 -8 -14
-19 -31 -25 -39 -13 -39 -13 -39 -1 0 6 15 17 33 25 40 18 37 18 37 1z m-733
-351 c0 -8 -2 -13 -5 -11 -2 3 -33 -9 -69 -25 -93 -42 -101 -35 -13 11 86 45
87 45 87 25z m-664 -12 c4 -2 7 -9 7 -15 0 -7 -17 -8 -47 -4 -65 10 -83 15
-83 28 0 10 104 3 123 -9z"/>
<path d="M4085 8798 c-6 -21 -42 -284 -80 -593 -20 -159 -47 -346 -60 -415
-14 -69 -36 -224 -50 -345 -30 -256 -53 -446 -61 -492 -4 -18 -2 -33 3 -33 5
0 15 42 22 93 7 50 15 101 17 112 3 11 7 35 9 54 3 18 7 36 10 40 2 4 7 28 10
53 4 25 10 68 15 95 l8 48 2 -55 2 -55 13 70 c6 39 15 105 19 148 4 42 11 75
16 72 5 -3 7 18 5 47 -3 44 -2 48 5 23 7 -23 8 -17 5 30 -2 35 -1 50 3 35 6
-18 11 -4 21 60 19 123 57 354 85 514 14 77 23 143 20 148 -3 5 -2 14 4 21 14
19 34 130 36 201 0 35 4 62 9 59 12 -7 8 12 -5 25 -9 9 -8 12 5 12 10 0 17 8
17 20 0 17 -7 20 -50 20 -32 0 -52 -5 -55 -12z m-131 -1162 c-4 -59 -9 -104
-12 -102 -2 3 -1 53 3 111 4 59 9 104 12 102 2 -3 1 -53 -3 -111z"/>
<path d="M4580 8085 c0 -3 -11 -92 -25 -197 -14 -105 -25 -196 -26 -202 0 -6
-4 -2 -8 9 -8 21 -13 -3 -25 -125 -5 -41 -3 -50 4 -35 8 16 9 12 6 -19 -3 -21
-11 -84 -17 -139 -9 -71 -15 -95 -21 -81 -6 13 -7 9 -3 -15 3 -18 5 -47 5 -62
l0 -29 36 32 c32 30 35 37 30 70 -4 25 -2 38 5 38 7 0 10 13 7 35 -2 19 0 35
4 35 5 0 8 15 8 33 -1 17 4 56 10 86 6 30 9 62 7 73 -3 10 -1 20 3 23 4 3 11
33 15 67 4 35 15 119 26 188 10 69 19 131 19 138 0 6 7 12 16 12 13 0 14 3 5
13 -6 8 -9 16 -6 18 2 3 -5 5 -16 6 -10 1 -26 9 -35 17 -16 16 -24 20 -24 11z"/>
<path d="M3586 7582 c-10 -89 -16 -166 -12 -169 3 -4 6 2 6 11 0 10 7 72 16
137 8 66 14 135 12 152 -2 18 -11 -41 -22 -131z"/>
<path d="M4946 7648 c-3 -18 -6 -76 -7 -128 -1 -52 -7 -134 -14 -182 -6 -48
-10 -90 -7 -93 3 -3 14 -5 24 -5 17 0 18 13 18 220 0 121 -2 220 -4 220 -2 0
-6 -15 -10 -32z"/>
<path d="M4654 7498 c1 -32 0 -33 -39 -33 -34 0 -41 -4 -43 -22 -3 -20 0 -21
35 -16 21 3 40 10 41 15 2 4 12 8 23 8 12 0 19 7 19 20 0 11 5 20 11 20 5 0 7
5 3 11 -4 8 -9 7 -15 -2 -8 -12 -11 -12 -18 1 -7 10 -6 17 2 22 8 5 7 8 -4 8
-13 0 -17 -8 -15 -32z"/>
<path d="M4295 6944 l-90 -13 95 6 c52 3 104 9 115 14 18 7 17 8 -5 7 -14 -1
-65 -7 -115 -14z"/>
<path d="M3823 6803 c0 -32 2 -46 4 -30 4 22 9 27 34 27 22 0 29 5 29 20 0 11
5 20 10 20 6 0 10 4 10 8 0 4 -16 9 -35 10 -23 2 -35 -2 -35 -10 0 -10 -2 -10
-9 0 -5 9 -8 -9 -8 -45z"/>
<path d="M4316 6173 c-3 -16 -8 -48 -12 -72 -6 -41 -5 -44 10 -29 9 9 16 21
16 27 0 6 3 11 8 11 4 0 6 -66 4 -147 -2 -81 -1 -145 1 -143 11 11 15 330 5
336 -5 3 -8 15 -5 25 3 12 0 19 -8 19 -7 0 -16 -12 -19 -27z"/>
<path d="M4309 5775 c-6 -44 0 -75 17 -75 8 0 14 6 15 13 0 6 5 3 10 -8 7 -14
8 -8 4 24 -8 59 -24 88 -26 46 l-1 -30 -7 30 -7 30 -5 -30z"/>
<path d="M2588 5722 c-21 -2 -38 -7 -38 -11 0 -11 150 -31 183 -24 30 6 37 23
10 24 -10 0 -40 4 -68 7 -27 4 -67 6 -87 4z"/>
<path d="M3650 5633 c-46 -6 -57 -17 -52 -51 2 -16 -3 -43 -12 -60 -9 -17 -16
-35 -16 -41 0 -25 212 -45 248 -23 10 7 9 16 -3 45 -8 20 -15 51 -15 68 0 18
-3 30 -6 26 -10 -9 -66 22 -59 33 6 10 -18 11 -85 3z"/>
<path d="M1484 5438 c3 -29 8 -98 11 -153 3 -55 8 -132 11 -172 l6 -72 34 -7
c26 -5 34 -11 34 -28 1 -11 6 -111 12 -221 6 -110 11 -294 12 -410 0 -115 5
-221 9 -235 5 -16 5 -20 -1 -11 -7 9 -9 3 -9 -20 3 -104 -3 -159 -18 -159 -8
0 -15 -5 -15 -10 0 -6 -14 -24 -30 -42 -17 -17 -29 -37 -26 -45 3 -7 1 -15 -5
-19 -6 -3 -21 -29 -35 -57 -14 -29 -36 -72 -49 -97 -13 -25 -29 -69 -35 -97
-6 -29 -16 -53 -21 -53 -5 0 -9 -10 -9 -21 0 -12 -8 -28 -17 -35 -17 -13 -17
-13 2 -14 15 0 17 -2 7 -9 -8 -5 -18 -37 -23 -72 -19 -130 -37 -274 -34 -279
1 -3 -14 -18 -33 -35 -25 -20 -34 -24 -29 -12 4 11 2 17 -8 17 -8 0 -15 -4
-15 -10 0 -5 -6 -10 -14 -10 -10 0 -12 -12 -9 -47 l4 -48 -77 -60 c-43 -33
-83 -60 -90 -60 -17 0 -77 -45 -70 -52 7 -8 -13 -33 -26 -33 -5 0 -6 6 -2 13
4 7 3 9 -2 4 -5 -5 -9 -12 -9 -15 0 -13 -16 -32 -26 -32 -6 0 -7 6 -3 13 5 8
2 7 -9 -2 -10 -8 -15 -16 -12 -19 7 -7 -15 -32 -27 -32 -6 0 -4 8 3 18 13 15
12 16 -4 3 -9 -8 -15 -16 -12 -19 7 -7 -15 -32 -27 -32 -6 0 -4 8 3 18 13 15
12 16 -4 3 -9 -8 -15 -16 -12 -19 6 -7 -25 -42 -37 -42 -5 0 -6 5 -2 12 4 7 3
8 -5 4 -6 -4 -9 -12 -6 -17 3 -5 -15 -23 -41 -41 -26 -18 -153 -116 -283 -218
-130 -102 -276 -216 -324 -253 l-87 -68 0 -373 c0 -284 3 -375 12 -385 10 -11
10 -13 1 -7 -10 6 -13 -16 -13 -93 0 -68 4 -101 11 -101 8 0 8 -4 1 -12 -5 -7
-10 -54 -10 -105 0 -84 2 -93 20 -99 16 -5 18 -8 7 -15 -9 -6 -10 -9 -2 -9 6
0 15 5 18 11 4 6 13 8 21 5 8 -3 14 -1 14 4 0 6 17 11 38 11 32 2 33 2 7 6
-56 7 -76 14 -70 24 4 5 -3 17 -15 27 -20 16 -20 19 -6 31 13 11 17 9 26 -14
9 -23 13 -25 25 -15 9 7 13 15 10 19 -3 3 -10 -1 -16 -9 -7 -11 -8 -7 -3 13 4
17 2 27 -5 27 -6 0 -11 5 -11 12 0 6 3 8 6 5 4 -3 16 -1 27 5 17 9 19 8 13 -8
-6 -19 -6 -19 8 0 12 14 12 22 3 36 -6 10 -15 16 -21 13 -5 -4 -7 1 -3 11 4
10 7 20 7 22 0 2 8 4 18 4 16 1 16 1 -1 14 -9 7 -17 19 -17 25 0 15 25 41 39
41 17 0 13 18 -6 30 -14 9 -6 10 35 7 30 -2 48 -1 42 3 -10 6 -1 14 30 25 3 1
13 5 24 10 11 5 26 4 37 -4 11 -6 19 -7 19 -2 0 5 -10 13 -21 16 -17 6 -19 9
-8 16 9 6 10 9 2 9 -6 0 -18 -7 -27 -15 -20 -20 -25 -19 -23 5 1 11 5 20 10
20 4 0 6 4 3 9 -3 5 1 12 10 15 22 9 26 8 18 -5 -4 -8 1 -9 16 -4 16 5 20 4
15 -4 -4 -7 16 0 44 15 27 15 48 31 45 35 -2 5 -11 6 -19 2 -20 -7 -19 7 3 24
16 13 15 14 -5 10 l-22 -5 21 29 c17 22 24 26 35 17 8 -6 12 -17 9 -25 -6 -16
3 -43 15 -43 4 0 13 9 19 20 8 16 8 18 -4 14 -11 -4 -13 0 -9 14 2 11 0 23 -6
26 -6 4 -11 13 -11 19 1 7 5 6 13 -4 7 -8 21 -18 31 -22 16 -6 17 -5 7 7 -7 8
-9 21 -5 27 4 8 3 9 -4 5 -19 -12 -14 25 6 40 25 20 48 17 49 -6 1 -11 -2 -20
-5 -20 -4 0 -8 -9 -9 -20 -1 -11 4 -20 13 -20 8 0 14 5 14 10 0 6 6 10 14 10
8 0 17 6 19 13 4 9 8 8 16 -3 10 -13 12 -13 20 0 15 23 1 32 -37 25 -32 -6
-34 -5 -22 9 7 9 10 19 7 23 -4 3 0 15 8 26 11 15 12 24 4 34 -8 9 -7 14 4 19
9 3 20 3 26 0 5 -3 17 -3 26 0 14 6 14 9 -4 25 -21 20 -61 26 -61 9 0 -5 5
-10 12 -10 6 0 3 -9 -7 -20 -10 -11 -15 -20 -10 -20 4 0 2 -6 -4 -13 -6 -8 -7
-18 -3 -22 4 -5 1 -5 -6 -1 -15 9 -12 36 7 56 10 10 10 15 2 18 -9 3 -9 7 0
18 9 11 8 14 -5 14 -9 0 -16 -4 -16 -10 0 -5 -5 -10 -11 -10 -7 0 -5 10 6 26
9 14 14 28 11 32 -3 3 -6 0 -6 -8 0 -10 -3 -10 -15 0 -12 10 -13 15 -4 21 10
6 10 11 0 22 -8 11 -9 17 -1 22 15 9 42 -15 36 -32 -7 -16 30 -18 40 -1 5 8 2
9 -9 5 -10 -3 -17 -4 -17 -2 0 10 39 43 44 37 3 -3 6 0 6 7 0 9 -6 11 -17 6
-10 -4 -27 -10 -38 -12 -17 -5 -18 -3 -7 8 7 8 36 14 68 15 61 2 78 11 64 34
-8 13 -10 12 -10 -2 0 -10 -6 -18 -14 -18 -10 0 -13 10 -11 35 2 19 -1 35 -6
35 -5 0 -9 3 -9 8 0 4 19 8 41 9 42 1 76 21 51 30 -6 3 -10 9 -6 14 3 5 -1 9
-9 9 -7 0 -14 6 -14 14 0 9 6 12 16 8 14 -5 14 -3 2 11 -11 14 -11 17 0 17 10
0 11 2 2 8 -21 13 9 41 35 31 28 -11 29 -19 1 -12 -16 5 -20 2 -18 -12 2 -10
10 -20 18 -23 9 -3 11 0 6 8 -5 8 -4 11 3 6 15 -9 4 -36 -14 -36 -8 0 -14 -4
-14 -9 0 -13 71 16 90 37 13 14 13 15 -1 4 -13 -10 -19 -9 -29 3 -8 10 -9 15
-2 15 6 0 9 7 5 16 -5 15 -1 16 31 10 24 -5 36 -4 32 3 -3 5 -3 11 1 14 5 2 2
2 -5 1 -17 -4 -42 6 -42 17 0 5 11 7 24 3 14 -3 27 -1 32 7 5 9 2 10 -10 6
-12 -5 -16 -3 -13 5 5 15 39 11 48 -4 8 -12 29 23 29 47 0 9 4 14 9 11 5 -4
13 6 19 21 9 28 9 28 16 5 9 -27 23 -25 43 5 14 20 13 21 -9 16 -19 -6 -21 -4
-11 9 10 11 10 17 0 28 -10 10 -8 12 9 8 12 -3 28 -2 35 3 10 6 7 9 -12 9 -16
0 -26 6 -26 15 0 17 9 19 23 6 14 -14 66 0 71 19 3 12 11 16 24 13 14 -4 19 0
19 17 0 28 24 21 28 -8 5 -30 22 -28 22 3 0 18 -9 29 -32 40 -18 8 -24 13 -13
9 58 -17 75 -17 69 0 -4 11 -18 16 -45 16 -21 0 -39 5 -39 10 0 6 18 10 40 10
34 0 40 3 40 21 0 11 -5 17 -10 14 -6 -3 -10 3 -10 15 0 14 5 20 17 18 24 -4
29 30 6 48 -16 13 -15 13 10 2 23 -9 30 -9 37 1 4 8 13 11 18 7 6 -4 18 10 28
31 22 48 19 45 49 48 16 2 25 -2 25 -10 0 -19 13 -25 30 -14 13 8 13 10 1 18
-11 7 -9 11 10 21 17 10 24 10 27 1 2 -6 11 -11 19 -11 9 0 13 -6 9 -15 -6
-18 3 -19 39 -5 23 9 26 8 21 -5 -3 -10 1 -15 13 -15 10 0 21 -7 25 -15 3 -8
13 -15 22 -15 10 0 14 -5 10 -15 -3 -9 0 -15 9 -15 24 0 57 -40 52 -62 -4 -14
-2 -18 9 -14 9 3 12 1 9 -4 -3 -6 -13 -10 -21 -10 -8 0 -14 -4 -14 -10 0 -5
-9 -10 -20 -10 -20 0 -29 29 -10 31 6 1 15 2 20 3 18 2 11 21 -10 24 -13 2
-20 -2 -20 -12 0 -9 -5 -16 -11 -16 -6 0 -9 -7 -6 -15 4 -8 2 -17 -3 -20 -15
-9 -9 -65 7 -65 8 0 12 -4 8 -9 -3 -5 -1 -12 4 -15 5 -4 12 -2 15 3 8 13 -4
42 -15 35 -5 -3 -6 2 -3 10 7 19 73 58 85 50 5 -3 7 -9 4 -13 -2 -4 14 -14 35
-21 22 -7 40 -17 40 -21 0 -5 -6 -6 -12 -4 -17 6 -54 -22 -43 -32 4 -5 10 -2
12 5 6 17 32 15 39 -3 4 -8 10 -12 15 -9 15 9 79 -8 79 -21 0 -7 8 -19 17 -26
15 -13 16 -11 10 11 l-6 25 19 -25 c11 -14 20 -19 20 -12 0 6 5 12 10 12 7 0
7 -6 0 -19 -16 -31 -12 -41 18 -41 22 0 24 2 12 11 -13 9 -13 10 0 6 8 -2 15
-12 15 -21 0 -10 8 -22 18 -27 12 -7 17 -6 17 2 0 7 11 9 34 5 39 -7 86 1 86
16 0 5 -10 8 -22 6 -11 -2 -23 3 -26 11 -8 23 67 6 91 -20 12 -12 22 -18 24
-12 2 6 19 7 41 4 30 -5 37 -11 36 -28 0 -12 6 -25 13 -27 8 -3 12 -2 9 2 -2
4 0 14 5 22 7 10 12 11 15 4 3 -6 16 -9 29 -6 17 3 32 -4 51 -23 14 -14 32
-24 40 -21 8 3 14 2 14 -3 0 -11 -36 -21 -77 -21 -18 0 -33 -3 -33 -6 0 -10
28 -34 40 -34 6 0 9 -4 5 -10 -3 -5 -12 -7 -20 -3 -9 3 -15 -1 -15 -11 0 -17
-20 -21 -36 -7 -5 5 -18 5 -29 1 -17 -7 -16 -9 13 -15 23 -6 30 -11 23 -19 -7
-9 -2 -24 16 -49 25 -35 25 -38 9 -61 -20 -31 -20 -40 -2 -33 9 4 17 -2 21
-14 7 -19 8 -20 26 -3 11 10 19 12 19 6 0 -7 -4 -12 -9 -12 -5 0 -11 -9 -14
-20 -7 -25 -27 -26 -27 -1 0 10 -7 21 -15 25 -9 3 -15 0 -15 -9 0 -18 -5 -19
-29 -3 -15 9 -22 8 -37 -7 -17 -17 -17 -17 3 -11 11 3 31 2 44 -3 18 -7 19
-10 6 -10 -10 -1 -22 -11 -26 -23 l-9 -23 -9 22 c-6 15 -12 20 -22 14 -18 -12
-6 -29 32 -45 18 -8 26 -15 19 -15 -7 -1 -22 4 -32 9 -13 7 -21 7 -25 0 -3 -5
-1 -10 5 -10 8 0 10 -9 6 -26 -6 -23 -4 -25 16 -19 18 5 20 4 8 -4 -21 -15
-50 -13 -56 3 -3 8 -11 13 -18 10 -7 -3 -19 2 -26 11 -10 12 -10 15 4 15 9 0
16 -3 16 -7 0 -5 11 -8 25 -8 33 0 26 20 -8 20 -32 1 -44 10 -22 18 8 4 15 2
15 -4 0 -6 8 -6 21 1 14 8 17 15 10 24 -12 14 -8 65 5 74 10 8 15 74 5 68 -4
-3 -20 11 -36 29 -15 19 -31 32 -36 30 -4 -3 -5 4 -2 15 4 16 0 20 -19 20 -13
0 -29 5 -36 12 -9 9 -12 7 -12 -11 0 -12 4 -19 10 -16 13 8 13 -1 -1 -27 -8
-14 -8 -23 0 -31 8 -8 11 -5 11 12 0 15 4 21 13 17 6 -3 20 -9 30 -12 11 -4
17 -16 16 -33 -1 -17 -3 -20 -6 -8 -2 9 -9 15 -14 12 -5 -4 -9 -1 -9 5 0 6 -4
9 -9 6 -4 -3 -6 -16 -4 -29 4 -20 9 -23 36 -19 18 3 38 9 45 15 11 9 13 6 10
-13 -3 -22 -7 -25 -45 -23 -40 2 -59 -10 -31 -19 9 -3 4 -15 -14 -36 -14 -17
-28 -28 -31 -26 -3 3 -10 -11 -16 -32 -6 -21 -9 -39 -8 -40 15 -12 46 -12 51
1 4 10 -1 15 -14 15 -11 0 -20 7 -20 15 0 8 7 15 15 15 9 0 18 7 21 15 4 8 14
15 23 15 13 0 13 2 2 9 -11 7 -11 9 0 13 11 4 49 -24 49 -36 0 -10 -40 -12
-49 -3 -8 8 -11 8 -11 0 0 -7 -9 -15 -21 -18 -11 -4 -18 -9 -16 -12 3 -2 14 0
25 6 18 9 19 7 17 -22 -3 -31 -4 -32 -45 -29 -42 3 -70 -10 -70 -32 0 -6 7 -3
14 7 14 18 36 23 36 7 0 -5 13 -7 30 -4 20 5 30 3 30 -6 0 -7 -7 -10 -15 -6
-8 3 -15 1 -15 -5 0 -6 -5 -7 -11 -3 -8 4 -9 -1 -4 -17 10 -31 11 -32 25 -24
9 6 9 10 -1 16 -10 6 -4 9 19 9 17 0 32 -5 32 -11 0 -6 -7 -9 -14 -6 -10 4
-13 1 -9 -9 6 -17 15 -18 31 -2 10 10 16 8 30 -5 16 -17 16 -18 0 -11 -20 7
-23 -3 -8 -26 7 -12 10 -12 10 -1 0 8 6 11 16 7 15 -6 15 4 -4 54 -5 13 -4 13
10 0 8 -8 13 -21 11 -27 -3 -7 2 -13 10 -13 8 0 17 6 20 13 3 7 9 2 16 -13 11
-24 11 -24 5 7 -3 19 -1 34 7 39 8 5 11 2 7 -7 -4 -11 3 -13 34 -11 43 5 43
17 0 17 -29 0 -38 25 -13 33 9 3 11 0 6 -9 -5 -8 -4 -11 0 -6 5 4 9 16 10 27
1 18 -12 25 -37 21 -5 0 -8 6 -8 14 0 11 11 15 43 15 32 0 44 4 44 15 0 11 -4
12 -14 4 -10 -9 -13 -8 -13 5 0 9 5 17 10 17 6 1 15 2 22 3 7 0 15 12 18 26 5
20 7 22 12 8 8 -20 -1 -60 -16 -70 -7 -5 -7 -8 2 -8 7 0 19 14 26 32 12 27 15
29 19 12 4 -16 5 -16 6 -1 1 21 21 23 21 2 0 -21 18 -19 23 3 3 11 5 7 6 -10
0 -15 -4 -30 -9 -33 -7 -4 -7 -12 0 -25 13 -24 13 -50 -1 -50 -5 0 -7 5 -4 10
6 9 -7 14 -27 11 -4 0 -11 11 -14 24 -7 30 -25 28 -39 -3 -5 -12 -16 -22 -24
-22 -11 0 -11 3 -1 15 7 9 10 18 6 22 -3 3 -6 1 -6 -5 0 -7 -7 -12 -15 -12
-21 0 -19 -27 3 -38 9 -5 28 -8 42 -6 14 3 31 5 38 6 6 1 12 6 12 12 1 6 7 0
14 -13 8 -15 16 -20 20 -12 12 18 28 12 21 -8 -3 -11 -2 -22 3 -25 6 -3 12 4
16 17 8 32 7 49 -3 43 -9 -6 -21 27 -20 54 0 12 2 12 7 -1 5 -13 13 -14 31 -8
19 8 21 12 11 24 -7 9 -8 15 -2 15 5 0 12 -6 15 -14 4 -9 14 -12 26 -9 17 4
21 13 21 44 0 22 5 39 11 39 6 0 9 -17 7 -42 -2 -36 0 -43 14 -40 22 4 39 -29
34 -68 -3 -27 -1 -31 15 -27 13 3 21 -3 28 -22 9 -23 10 -21 7 16 -2 27 1 43
8 43 6 0 4 5 -4 11 -11 8 -8 9 15 4 17 -4 34 -13 38 -21 4 -8 16 -14 25 -14
13 0 14 2 4 9 -10 6 -7 10 12 13 14 3 26 1 26 -3 0 -5 5 -9 11 -9 5 0 7 5 4
10 -3 6 -1 10 4 10 6 0 11 7 11 15 0 18 17 20 22 3 3 -7 12 -4 27 11 12 12 29
20 37 17 7 -3 17 1 21 9 5 7 11 14 16 14 4 1 15 1 25 2 10 0 12 3 5 6 -14 5
-18 24 -5 22 4 -1 18 -1 31 0 18 1 22 5 18 20 -2 10 -1 25 4 32 7 11 9 10 9
-3 0 -16 4 -16 47 -3 25 8 50 12 55 9 4 -3 8 -1 8 4 0 5 8 12 19 15 20 5 24
26 37 195 l7 83 -42 16 -41 16 5 46 c11 99 48 887 85 1811 11 267 22 522 26
567 l6 81 48 -5 47 -5 8 149 c4 81 12 197 19 256 9 77 9 110 2 112 -6 2 -105
20 -221 40 -115 20 -354 63 -531 95 -176 33 -347 64 -380 69 -91 15 -264 47
-547 101 -142 28 -267 50 -279 50 -19 0 -20 -4 -14 -52z m190 -90 c3 -13 6
-43 7 -68 0 -25 3 -40 5 -33 3 7 13 9 22 6 16 -6 16 -5 1 13 -11 13 -14 27 -8
44 7 25 7 25 8 2 1 -13 8 -31 17 -39 14 -14 15 -13 9 19 -10 53 18 60 43 11 8
-14 18 -20 32 -16 16 4 20 0 21 -18 1 -17 3 -19 6 -6 2 9 11 17 20 17 11 0 14
7 11 25 -7 32 -5 32 173 -5 279 -57 435 -88 484 -97 41 -7 51 -12 53 -31 2
-12 8 -20 13 -17 5 3 6 -1 3 -9 -3 -9 -9 -16 -13 -16 -4 0 -5 -17 -3 -38 l4
-39 -48 -1 c-27 -2 -51 3 -55 9 -9 16 -94 -7 -123 -33 -48 -43 -55 -51 -53
-57 3 -11 -26 -75 -43 -96 -10 -11 -20 -30 -23 -42 -5 -21 -2 -23 39 -23 35 0
44 4 44 18 1 16 1 16 14 0 7 -10 21 -18 30 -18 14 0 16 -6 10 -37 -4 -21 -11
-39 -15 -41 -14 -6 -10 -80 4 -85 6 -3 0 -6 -15 -6 -23 -1 -28 -6 -28 -26 0
-22 4 -25 40 -25 27 0 40 4 40 14 0 7 7 19 15 26 9 8 15 29 15 56 0 24 -6 49
-15 58 -29 29 -19 46 29 46 27 0 48 6 57 16 17 20 65 45 73 37 3 -4 6 0 7 8 1
8 4 1 8 -16 3 -16 4 -123 1 -237 -4 -158 -8 -210 -19 -220 -11 -11 -13 -3 -8
49 5 67 -4 85 -31 60 -14 -13 -20 -13 -34 -3 -10 7 -18 18 -18 23 0 5 -12 15
-27 22 -23 11 -29 10 -40 -5 -16 -22 -17 -46 -1 -62 9 -9 9 -18 -1 -38 -6 -15
-10 -27 -9 -29 2 -1 24 -9 51 -19 55 -21 61 -44 25 -107 -20 -37 -21 -41 -7
-67 19 -33 16 -102 -6 -114 -8 -5 -27 -20 -43 -34 -15 -14 -4 -9 23 11 91 66
139 95 156 95 10 0 27 15 38 34 20 32 33 43 54 44 10 1 36 33 37 45 0 5 -18
-6 -40 -23 -23 -18 -43 -30 -45 -28 -6 6 13 827 21 896 5 49 8 53 27 48 12 -3
41 -8 65 -12 23 -4 45 -11 48 -15 3 -5 10 -7 15 -3 6 3 5 -3 -2 -14 -20 -32
-4 -37 38 -12 35 20 36 21 13 1 -14 -11 -33 -23 -42 -27 -15 -4 -18 -17 -18
-68 0 -35 -3 -85 -7 -111 -4 -35 -3 -46 5 -41 8 5 12 -3 12 -23 0 -16 -4 -33
-10 -36 -5 -3 -10 -26 -10 -51 0 -25 4 -43 8 -40 4 2 13 2 19 -2 16 -10 63
-149 57 -167 -4 -8 -1 -15 7 -15 7 0 9 -3 6 -6 -10 -10 -38 17 -30 29 3 5 1 7
-4 4 -16 -10 -29 11 -50 81 l-20 63 0 -81 c-1 -71 0 -79 13 -63 12 17 13 16
14 -9 0 -27 -19 -51 -21 -26 -3 27 -18 -69 -18 -115 -1 -34 5 -54 18 -69 l20
-21 41 31 c23 17 48 28 56 25 8 -3 14 0 14 7 0 6 5 8 10 5 15 -9 1 -26 -18
-23 -19 3 -42 -9 -42 -22 0 -5 21 -12 48 -16 26 -3 52 -10 57 -14 18 -12 123
-33 139 -27 8 3 16 1 18 -5 3 -7 20 -17 39 -23 32 -11 34 -14 39 -68 4 -43 2
-57 -8 -57 -10 0 -10 -5 -2 -21 6 -11 9 -25 7 -32 -3 -7 -10 -1 -16 13 l-12
25 8 -25 c3 -14 8 -85 10 -158 l4 -133 -35 -14 c-48 -20 -54 -35 -11 -25 46
10 49 -13 4 -29 -40 -14 -42 -14 -33 2 4 7 3 9 -2 4 -5 -5 -10 -13 -10 -18 -1
-5 -2 -11 -3 -13 0 -3 -15 0 -31 6 -26 9 -29 12 -18 26 12 13 11 14 -8 2 -14
-8 -31 -10 -50 -5 l-29 8 25 8 c20 7 18 8 -10 3 -43 -6 -330 74 -330 92 0 18
-39 28 -55 14 -9 -7 -15 -8 -15 -2 0 5 -6 9 -12 8 -25 -2 -288 76 -282 85 3 5
-2 6 -10 3 -8 -3 -45 4 -84 15 -38 12 -77 21 -86 21 -9 0 -58 -29 -110 -65
-52 -36 -99 -65 -105 -65 -6 0 -38 -19 -71 -42 -116 -81 -130 -89 -134 -76 -2
7 -9 144 -15 303 -7 160 -16 385 -21 500 -6 116 -14 311 -20 435 -6 124 -12
260 -15 303 -4 70 -3 77 14 77 11 0 21 -9 25 -22z m1226 -701 c0 -22 -2 -38
-4 -36 -12 12 -44 108 -38 114 14 14 42 -38 42 -78z m118 28 c51 -21 60 -54
15 -56 -30 -1 -25 -3 20 -13 21 -5 27 -12 27 -32 0 -31 -25 -42 -49 -20 -29
27 -45 19 -21 -11 23 -30 16 -45 -18 -37 -17 5 -22 14 -22 38 0 17 -3 41 -6
53 -4 15 -1 22 13 26 15 4 15 5 -3 6 -12 0 -24 7 -27 15 -8 21 4 58 17 53 6
-3 30 -13 54 -22z m-76 -107 c-4 -53 -16 -62 -26 -23 -6 25 -2 38 19 61 13 15
12 17 7 -38z m38 -114 c0 -19 -2 -34 -4 -34 -2 0 -12 -3 -22 -7 -13 -5 -15 -3
-8 8 9 15 10 20 12 57 3 36 22 15 22 -24z m-341 -760 c3 -3 0 -9 -5 -14 -12
-12 -44 -3 -44 11 0 4 -7 5 -17 2 -11 -4 -14 -3 -9 6 7 11 62 7 75 -5z m-598
-55 c383 -96 719 -209 1063 -358 73 -32 50 -35 -35 -5 -41 14 -81 28 -89 29
-8 2 -40 13 -71 24 -30 11 -66 21 -80 23 -13 2 -29 7 -36 11 -18 12 -576 197
-713 237 -89 26 -253 81 -259 86 -10 9 30 1 220 -47z m378 -170 c36 -13 44
-49 10 -49 -11 0 -18 4 -14 9 3 5 0 13 -6 17 -8 4 -9 3 -5 -4 4 -7 1 -12 -8
-12 -10 0 -16 9 -16 25 0 29 -2 28 39 14z m176 -69 c3 -5 22 -10 42 -10 26 0
36 -5 40 -20 3 -11 14 -20 24 -20 11 0 19 -4 19 -8 0 -11 -41 -48 -60 -55 -12
-4 -11 -6 3 -6 10 -1 30 13 44 29 15 19 34 30 50 30 l25 0 -24 -29 c-30 -38
-184 -115 -164 -83 4 7 -4 8 -26 1 -49 -14 -67 -12 -45 5 26 20 21 23 -40 19
l-58 -3 59 14 c33 7 64 20 70 28 6 8 21 18 34 22 24 8 51 46 32 46 -5 0 -10
-4 -10 -9 0 -5 -20 -21 -45 -35 -54 -30 -90 -42 -81 -28 3 6 -2 8 -12 5 -10
-2 -34 0 -53 5 l-34 10 42 1 c23 1 44 5 47 10 3 4 -7 6 -22 4 -21 -4 -16 2 23
25 28 17 57 37 64 46 15 18 47 21 56 6z m-162 -36 c-6 -16 -52 -38 -61 -30 -9
9 19 35 41 39 12 2 23 5 24 6 1 0 0 -6 -4 -15z m309 -107 c-37 -39 -104 -67
-158 -66 l-49 1 48 8 c27 5 65 20 85 33 77 51 109 62 74 24z m-1349 -637 c20
-1 21 -1 4 -11 -10 -6 -25 -8 -33 -5 -16 6 -64 -13 -64 -26 0 -4 -7 -8 -15 -8
-25 0 14 37 48 45 15 4 27 12 28 19 0 7 2 7 6 -1 2 -7 14 -13 26 -13z m1117
-648 c13 -11 12 -12 -6 -7 -15 4 -24 -1 -33 -17 -7 -14 -9 -16 -6 -5 14 51 17
68 9 66 -21 -4 -28 2 -14 11 11 7 17 4 25 -13 5 -12 16 -28 25 -35z m96 -17
c-3 -8 -2 -15 3 -15 4 0 6 -11 3 -25 -5 -31 -28 -27 -24 3 2 13 -2 22 -10 22
-8 1 -6 6 6 15 25 19 30 19 22 0z m-1916 -65 c0 -16 -30 -11 -36 5 -5 12 -9
13 -20 4 -8 -7 -17 -9 -21 -6 -3 4 2 9 11 13 9 3 13 10 10 16 -3 5 8 2 25 -6
17 -9 31 -21 31 -26z m1870 0 c0 -21 5 -30 16 -30 8 0 12 -5 9 -10 -4 -6 -11
-8 -16 -5 -5 4 -9 2 -9 -4 0 -5 8 -15 18 -20 9 -6 13 -10 7 -11 -21 0 -38 18
-31 35 4 13 2 16 -9 11 -12 -4 -13 -2 -2 16 9 16 9 22 0 25 -18 6 -16 23 2 23
10 0 15 -10 15 -30z m154 5 c3 -9 0 -15 -9 -15 -27 0 -15 -19 18 -29 25 -7 27
-9 10 -10 -13 -1 -23 -5 -23 -11 0 -5 -4 -10 -10 -10 -5 0 -10 7 -10 16 0 9
-9 18 -19 21 -32 8 -34 32 -3 30 17 -1 26 3 25 11 -4 17 14 15 21 -3z m-219
-66 c-4 -5 8 -12 25 -15 17 -4 28 -9 26 -12 -3 -2 0 -14 6 -26 l11 -21 -23 20
c-16 14 -24 16 -27 8 -3 -7 -14 -13 -25 -13 -19 0 -19 1 3 20 20 16 21 19 7
20 -11 0 -18 8 -18 21 0 11 5 17 10 14 6 -4 8 -11 5 -16z"/>
<path d="M2026 4603 c-3 -25 -6 -60 -5 -77 0 -25 2 -27 8 -12 7 19 8 18 14 -4
8 -32 24 -16 30 30 l4 35 1 -37 c2 -41 28 -54 38 -20 3 9 10 25 15 35 7 13 5
17 -6 17 -8 0 -15 5 -15 11 0 6 -9 9 -19 6 -15 -4 -21 2 -26 23 -11 48 -32 44
-39 -7z"/>
<path d="M2765 4309 c-9 -17 -14 -33 -11 -37 3 -3 6 1 6 8 0 7 3 11 6 7 8 -8
44 35 37 45 -9 16 -23 7 -38 -23z"/>
<path d="M3805 5304 c-6 -41 -2 -64 9 -53 10 10 18 99 8 99 -5 0 -13 -21 -17
-46z"/>
<path d="M4345 5330 c-3 -5 -7 -40 -10 -77 -2 -37 -1 -54 2 -38 5 27 6 28 13
10 6 -13 9 3 9 48 1 66 -2 77 -14 57z"/>
<path d="M4380 5305 c0 -12 -3 -38 -6 -56 -3 -19 -2 -29 3 -23 6 8 28 8 83 -2
41 -7 91 -13 110 -12 l35 1 -32 4 c-18 2 -33 8 -33 14 0 5 -6 9 -14 9 -8 0
-16 7 -20 15 -3 8 -14 15 -25 15 -14 0 -19 5 -16 20 4 20 1 21 -67 35 -13 2
-18 -3 -18 -20z"/>
<path d="M4937 5176 c-17 -25 -17 -29 -3 -45 18 -20 21 -42 6 -57 -18 -18 -20
-52 -3 -58 9 -4 18 -5 20 -3 2 3 2 46 1 98 l-3 93 -18 -28z"/>
<path d="M4046 5060 c-43 -33 -81 -61 -83 -63 -2 -3 8 -3 23 -1 49 5 54 -3 49
-69 -5 -54 -10 -65 -38 -90 -18 -15 -36 -31 -42 -36 -12 -11 -65 18 -65 36 0
7 -5 13 -11 13 -6 0 -9 6 -6 14 3 7 0 19 -6 25 -8 8 -4 18 14 38 l24 26 -37
-27 c-21 -16 -38 -33 -39 -40 0 -6 -4 -32 -8 -58 -4 -26 -5 -47 -2 -46 40 4
58 -18 19 -24 -18 -2 -23 -9 -23 -30 1 -15 -5 -30 -11 -32 -13 -5 -11 49 5
147 6 34 5 45 -3 39 -6 -5 -75 -55 -153 -111 -162 -117 -147 -88 -158 -301 -3
-63 -8 -148 -12 -187 -6 -72 -5 -73 18 -73 19 0 21 2 9 10 -13 8 -12 10 3 10
9 0 17 -7 17 -15 0 -8 16 -18 38 -24 20 -5 57 -15 82 -22 57 -15 208 -13 229
4 14 11 14 10 1 -7 -14 -19 -13 -19 28 -12 l43 6 -3 -32 c-2 -18 -7 -32 -13
-31 -15 2 -115 -56 -149 -86 -15 -14 -32 -36 -37 -49 -5 -13 -20 -25 -36 -28
-17 -3 -37 -19 -50 -39 l-22 -33 45 24 c24 13 44 19 44 14 0 -6 4 -10 10 -10
5 0 6 8 3 18 -6 15 -4 15 9 4 14 -11 16 -10 11 9 -5 17 -3 20 7 14 9 -6 11 -4
5 5 -10 17 16 32 32 18 10 -8 12 -7 7 6 -5 13 7 22 19 14 1 -1 12 4 23 10 17
9 24 9 34 -3 16 -19 33 -8 27 16 -3 11 -1 17 4 13 15 -9 10 -51 -8 -65 -9 -8
-46 -50 -83 -94 -37 -44 -142 -162 -234 -263 -154 -170 -172 -192 -162 -192 2
0 77 82 167 182 233 258 313 341 317 328 2 -6 -5 -21 -15 -33 -37 -42 -53 -77
-48 -100 5 -19 -5 -36 -47 -82 -29 -33 -47 -55 -40 -51 27 17 8 -12 -76 -108
-202 -232 -272 -315 -272 -322 0 -4 8 0 18 9 10 10 21 15 24 12 2 -3 15 7 29
23 l24 27 -27 -24 c-16 -14 -28 -20 -28 -14 0 12 45 55 51 48 3 -3 19 10 35
28 28 31 28 31 2 8 -16 -14 -28 -21 -28 -17 0 13 122 146 130 141 4 -2 16 5
26 18 l19 22 -22 -19 c-13 -11 -23 -15 -23 -9 0 12 45 55 52 48 2 -3 15 7 29
22 13 15 16 21 7 14 -10 -7 -18 -9 -18 -4 0 13 35 44 42 37 3 -3 23 15 43 40
39 48 64 62 44 25 -6 -12 -9 -30 -6 -40 3 -12 -7 -36 -26 -62 -18 -23 -41 -55
-51 -72 -41 -64 -198 -245 -208 -239 -7 4 -1 15 13 26 13 11 18 17 12 13 -9
-4 -13 2 -13 21 0 23 -2 25 -15 14 -13 -11 -13 -15 -3 -21 10 -7 10 -11 -1
-21 -10 -10 -12 -10 -7 0 15 25 -11 11 -45 -25 l-34 -38 32 29 c37 33 56 28
27 -6 l-19 -23 22 18 c15 13 23 15 28 7 8 -12 -33 -62 -45 -55 -4 3 -16 -5
-26 -18 l-19 -22 23 19 c34 29 27 9 -16 -43 -21 -25 -44 -55 -52 -66 -15 -20
-14 -20 8 -1 28 24 29 9 0 -21 -12 -13 -19 -23 -16 -23 4 0 26 24 49 53 24 28
33 43 21 33 -12 -11 -22 -15 -22 -9 0 13 35 45 42 38 3 -3 11 3 19 12 13 16
12 17 -3 4 -10 -7 -18 -9 -18 -4 0 13 35 45 42 38 3 -3 11 2 19 12 9 11 10 14
2 9 -7 -4 -13 -3 -13 2 0 12 45 53 52 47 2 -3 13 5 24 17 l19 23 -22 -19 c-13
-11 -23 -15 -23 -9 0 13 35 45 42 38 3 -3 13 5 24 17 l19 23 -22 -19 c-13 -11
-23 -15 -23 -9 0 13 45 55 52 48 3 -3 22 16 43 42 60 74 62 78 46 68 -10 -6
-12 -4 -7 4 5 7 11 10 14 7 3 -4 17 4 31 16 l25 23 -16 -26 c-9 -15 -14 -36
-11 -47 3 -15 -9 -39 -41 -81 -25 -33 -42 -62 -37 -66 5 -3 12 -1 16 5 4 6 10
8 15 5 4 -3 18 7 29 22 11 16 21 23 21 17 0 -6 -9 -23 -20 -37 -11 -14 -20
-33 -20 -43 0 -16 1 -16 16 2 41 50 -7 -22 -80 -121 -65 -87 -82 -105 -84 -87
-2 12 -8 20 -13 17 -5 -4 -5 -13 1 -24 7 -14 2 -28 -21 -60 -17 -22 -32 -41
-33 -41 -2 0 -1 12 2 26 3 17 1 25 -5 21 -6 -4 -9 -19 -7 -34 2 -23 -13 -49
-77 -131 -44 -56 -84 -116 -89 -132 -5 -17 -7 -30 -5 -30 1 0 43 53 91 118
181 241 307 402 312 397 3 -3 0 -11 -6 -17 -15 -15 -16 -31 -1 -22 7 4 10 2 8
-4 -7 -21 -392 -532 -397 -527 -3 2 75 111 173 240 97 130 175 238 173 241 -6
5 -26 -21 -208 -261 -134 -176 -144 -193 -146 -236 -1 -26 -5 -57 -9 -70 -10
-34 0 -22 104 120 50 68 91 129 91 137 0 8 5 14 10 14 6 0 15 11 20 25 5 14
14 25 20 25 5 0 10 7 10 15 0 8 9 19 20 25 11 6 18 14 16 19 -3 4 11 24 30 45
19 20 34 42 34 47 0 5 7 12 15 15 8 4 15 12 15 19 0 8 5 17 10 20 25 16 5 -26
-45 -93 -31 -40 -52 -78 -49 -84 4 -6 3 -8 -3 -5 -5 3 -75 -83 -156 -191 -142
-193 -146 -200 -153 -260 -3 -34 -4 -62 -1 -62 5 0 179 238 376 513 35 49 72
94 82 100 11 7 19 17 19 24 0 7 15 34 34 61 42 58 42 58 61 262 9 91 22 224
30 295 8 72 24 218 35 325 34 320 68 622 95 850 30 250 39 340 34 340 -2 0
-40 -27 -83 -60z m-24 -285 c-4 -55 -5 -56 -85 -132 -45 -42 -71 -69 -58 -60
13 9 48 39 77 67 l54 52 0 -30 c0 -32 -15 -51 -23 -30 -3 10 -9 9 -22 -4 -17
-16 -17 -17 8 -24 18 -4 27 -13 27 -26 0 -18 -4 -19 -50 -13 -49 7 -53 5 -126
-45 -41 -29 -78 -49 -81 -46 -4 3 0 6 8 6 10 0 11 2 2 8 -8 5 1 15 24 30 19
13 32 18 28 12 -5 -8 -3 -11 6 -8 8 3 14 10 14 16 0 5 4 14 9 19 5 5 6 3 2 -4
-4 -7 -3 -13 2 -13 16 0 21 12 9 25 -9 9 -14 9 -25 -1 -19 -19 -45 -6 -38 20
3 11 6 36 6 53 0 28 6 36 40 53 38 19 48 49 11 35 -12 -5 -13 -4 -4 6 10 10
15 9 28 -1 16 -13 44 2 120 65 17 13 32 24 35 25 3 0 3 -25 2 -55z"/>
<path d="M86 4646 l-86 -29 0 -1261 c0 -1148 1 -1258 16 -1240 8 10 13 12 9 4
-3 -8 13 6 37 31 53 57 230 200 278 224 65 32 184 109 260 165 41 31 96 69
123 84 52 31 66 60 49 104 -51 132 -108 397 -147 682 -3 25 -15 99 -26 165
-11 66 -22 134 -24 150 -2 17 -11 77 -19 135 -14 90 -24 160 -51 350 -2 19 -7
55 -11 80 -3 25 -12 72 -20 104 -9 32 -17 71 -19 85 -7 42 -32 105 -44 109 -6
2 -11 9 -11 17 0 19 -92 55 -164 64 -57 6 -74 4 -150 -23z"/>
<path d="M4769 4118 c-12 -22 -12 -22 14 -5 32 21 38 21 31 2 -3 -8 -11 -13
-17 -12 -7 1 -11 -3 -10 -9 1 -7 -6 -10 -17 -7 -16 4 -19 2 -13 -12 4 -11 2
-16 -3 -12 -5 3 -23 -15 -38 -39 l-29 -45 24 -17 c13 -9 52 -42 85 -75 34 -32
64 -55 66 -50 3 4 3 3 2 -4 -2 -7 8 -31 21 -55 35 -64 37 -100 9 -141 -26 -39
-155 -121 -204 -131 -8 -2 -22 -6 -30 -9 -40 -16 -146 -38 -216 -44 -95 -8
-95 -8 -184 -166 -109 -196 -137 -236 -157 -233 -10 2 -12 1 -5 -1 18 -6 16
-13 -24 -73 -20 -30 -44 -68 -54 -85 -9 -16 -27 -47 -40 -67 -12 -21 -17 -38
-11 -38 6 0 37 -20 68 -43 219 -166 395 -289 506 -356 20 -12 37 -25 37 -28 0
-2 -15 4 -32 15 -18 10 -62 36 -98 58 -36 21 -84 53 -107 71 -23 18 -45 33
-50 33 -5 0 -20 11 -33 25 -13 14 -29 25 -37 25 -7 0 -13 4 -13 10 0 5 -12 13
-27 16 -16 4 -36 17 -46 28 -21 24 -34 26 -62 13 -18 -9 -19 -8 -6 6 14 18 13
19 -31 21 -15 1 -31 6 -35 10 -4 5 -2 6 5 2 15 -9 15 -4 1 28 -7 14 -18 27
-26 30 -9 4 -11 2 -7 -6 5 -7 2 -9 -8 -5 -18 6 -62 -29 -53 -43 3 -5 -3 -15
-13 -22 -11 -7 -28 -34 -40 -60 -20 -47 -20 -47 0 -53 11 -4 17 -9 14 -12 -11
-11 -54 27 -51 44 2 10 4 24 4 31 1 7 5 11 10 8 9 -6 26 22 23 37 -1 4 2 7 7
7 10 0 24 36 24 62 0 10 5 14 15 10 10 -3 13 -1 8 6 -4 7 -2 12 3 12 6 0 11 6
11 13 0 7 9 18 21 25 16 11 18 16 9 28 -11 12 -7 18 11 16 3 -1 6 6 6 14 0 24
-13 16 -42 -26 -29 -42 -42 -52 -30 -22 16 40 23 72 14 67 -5 -4 -9 0 -10 7
-1 19 -20 -51 -23 -87 -3 -37 -23 -75 -95 -185 -62 -93 -92 -152 -68 -132 15
13 168 9 190 -5 7 -4 17 -8 22 -8 6 0 37 -9 70 -19 33 -10 67 -19 76 -21 8 -2
32 -10 53 -19 21 -9 47 -16 57 -16 11 0 19 -5 19 -11 0 -5 5 -7 10 -4 6 3 16
3 23 -2 6 -4 14 -8 17 -9 25 -5 69 -19 85 -27 11 -6 26 -12 33 -14 13 -3 19
-5 65 -18 15 -4 27 -11 27 -16 0 -5 6 -6 14 -3 7 3 21 -2 30 -11 9 -9 16 -12
16 -5 0 6 10 4 25 -6 14 -9 28 -14 32 -11 3 4 18 0 33 -8 15 -8 30 -11 34 -8
3 4 6 2 6 -4 0 -5 7 -10 15 -10 17 0 78 -17 150 -43 28 -10 62 -21 77 -24 14
-3 33 -9 42 -12 14 -6 16 23 16 291 0 260 -2 296 -15 291 -15 -5 -19 4 -16 34
1 11 -1 10 -9 -3 -13 -21 -32 -13 -23 9 5 13 1 15 -17 9 -21 -7 -22 -5 -18 25
4 29 4 31 -8 15 -13 -17 -14 -16 -23 9 -6 14 -14 26 -18 25 -23 -4 -32 3 -26
18 4 10 2 14 -5 9 -6 -3 -13 -2 -17 3 -3 6 -12 8 -20 4 -11 -4 -13 -1 -9 11 3
9 1 23 -6 30 -9 12 -7 17 7 24 10 5 25 7 33 5 10 -3 9 0 -3 7 -9 6 -22 8 -27
5 -22 -13 -31 7 -13 28 10 12 12 17 4 12 -11 -6 -13 -4 -8 9 4 10 7 20 7 22 0
3 4 3 9 -1 6 -3 8 6 5 21 -3 15 -6 32 -7 38 -1 6 -6 14 -12 18 -5 4 0 8 13 8
26 0 29 15 5 26 -29 12 -37 11 -66 -13 -16 -13 -33 -23 -39 -23 -6 0 -7 -7 -4
-15 3 -9 -1 -18 -9 -22 -12 -4 -13 -9 -4 -19 9 -12 6 -13 -21 -7 -25 4 -31 3
-26 -6 5 -8 2 -11 -9 -9 -22 4 -29 -30 -12 -51 10 -12 8 -13 -13 -8 -14 4 -28
7 -32 7 -10 0 14 51 33 71 9 9 18 21 20 26 8 19 126 101 184 127 96 45 158 72
188 84 l27 12 0 360 c-1 279 -4 359 -13 353 -7 -4 -5 2 3 12 8 10 10 16 4 12
-6 -4 -19 2 -29 13 -18 19 -17 20 11 21 l29 1 -27 9 c-17 7 -25 15 -21 25 6
17 -9 18 -25 2 -10 -10 -15 -10 -21 1 -5 7 -27 15 -50 17 -33 3 -42 0 -52 -18z
m-75 -1047 c3 -4 -1 -16 -8 -27 -12 -15 -16 -16 -30 -5 -15 13 -15 15 1 27 21
16 30 17 37 5z m-177 -113 c-1 -16 3 -22 13 -20 10 1 9 -2 -4 -13 -12 -9 -15
-15 -7 -15 10 0 11 -3 2 -14 -8 -10 -9 -16 -1 -21 5 -3 10 -11 10 -18 0 -6 -7
-2 -15 9 -16 21 -21 114 -5 114 5 0 9 -10 7 -22z"/>
<path d="M3658 3977 c-81 -30 -185 -93 -130 -80 12 3 22 9 22 14 0 5 6 6 14 3
12 -5 158 66 181 87 13 12 11 12 -87 -24z"/>
<path d="M3536 3881 c-57 -20 -75 -29 -62 -34 10 -4 23 -4 29 0 18 12 81 33
85 28 2 -2 -9 -10 -25 -19 -15 -8 -22 -15 -15 -16 7 0 29 16 49 35 42 41 42
41 -61 6z"/>
<path d="M3648 3583 c-10 -11 -18 -30 -18 -43 0 -29 8 -23 14 11 7 36 7 36 15
14 5 -12 4 -26 -3 -35 -6 -8 -1 -6 12 4 22 19 30 32 13 21 -5 -3 -11 7 -13 21
-3 26 -3 26 -20 7z"/>
<path d="M3588 3513 c-19 -22 -29 -73 -15 -73 7 0 6 -5 -1 -12 -7 -7 -17 -13
-22 -13 -6 0 -10 -4 -11 -10 0 -5 -6 -17 -12 -25 -6 -8 5 0 24 18 27 25 35 39
31 57 -2 14 -1 33 3 42 7 17 8 16 15 -2 4 -11 3 -26 -3 -35 -6 -8 3 -2 21 14
18 17 32 32 32 34 0 3 -10 -3 -21 -14 -22 -19 -22 -19 -15 9 7 31 -4 35 -26
10z"/>
<path d="M3650 3259 c-24 -29 -39 -50 -32 -45 8 5 12 1 12 -11 0 -15 2 -15 9
-3 6 8 7 18 5 22 -3 4 -2 13 2 19 4 8 9 7 15 -2 6 -10 9 -6 9 13 0 30 19 49
21 21 1 -10 1 -22 0 -26 -1 -5 3 -6 8 -3 5 4 13 2 16 -4 5 -8 11 -7 21 1 17
14 10 28 -14 25 -11 -2 -19 5 -22 22 -5 23 -7 22 -50 -29z"/>
<path d="M4896 3213 c-4 -4 -17 -8 -29 -8 -12 0 -26 -10 -33 -23 -8 -16 -13
-20 -17 -10 -3 7 -4 3 -4 -9 1 -17 5 -20 19 -12 9 5 21 15 25 22 4 6 24 20 43
29 19 9 28 17 19 17 -9 1 -19 -2 -23 -6z"/>
<path d="M3506 3084 c-53 -64 -96 -124 -95 -133 0 -10 4 -7 10 9 14 34 50 71
62 63 6 -3 7 -1 3 6 -4 7 5 26 23 47 36 40 42 27 9 -19 -15 -22 -17 -28 -5
-18 9 7 17 10 17 6 0 -4 7 -1 17 6 9 8 24 14 35 14 10 0 18 3 18 8 0 4 0 10 0
13 0 4 -7 1 -15 -6 -21 -18 -19 4 3 22 9 9 25 14 35 13 9 -2 15 1 11 6 -3 5
-10 7 -15 4 -16 -11 -10 11 9 28 13 12 22 14 30 7 7 -6 10 -7 7 -4 -3 4 1 14
8 23 11 14 10 14 -5 2 -10 -7 -18 -10 -18 -6 0 5 -9 0 -21 -11 -20 -18 -20
-18 -14 9 4 15 3 27 -2 27 -6 0 -53 -52 -107 -116z m70 18 c-33 -47 -46 -59
-46 -43 0 6 5 11 10 11 6 0 10 13 10 29 0 17 5 33 10 36 6 3 10 -2 10 -12 1
-17 1 -17 11 0 6 10 8 24 6 32 -3 7 -3 16 1 20 3 3 9 -2 13 -12 4 -12 -5 -33
-25 -61z"/>
<path d="M1187 3133 c-4 -3 -7 -19 -7 -35 0 -21 4 -29 16 -26 8 2 15 6 15 11
-1 4 -1 18 -1 32 0 24 -10 32 -23 18z"/>
<path d="M3504 3005 c-4 -8 -10 -12 -15 -9 -5 3 -9 0 -9 -5 0 -6 -6 -11 -14
-11 -7 0 -16 -10 -19 -22 -5 -21 -5 -21 7 -6 7 10 16 15 19 11 4 -3 7 -1 7 5
0 7 5 12 11 12 5 0 7 -6 3 -12 -6 -10 -5 -10 8 -1 8 7 17 11 20 8 3 -3 11 3
19 12 13 16 12 17 -3 5 -17 -14 -35 -1 -23 18 3 6 4 10 0 10 -3 0 -8 -7 -11
-15z"/>
<path d="M3495 2940 c-4 -6 -10 -8 -14 -6 -4 3 -19 -6 -34 -20 -31 -29 -34
-29 -39 -6 -3 9 -5 -2 -5 -26 0 -40 1 -41 14 -22 8 11 18 18 23 15 4 -3 14 3
21 12 12 14 12 16 0 9 -9 -6 -12 -5 -9 5 3 8 10 13 16 12 5 -1 18 7 27 17 10
11 15 20 12 20 -3 0 -9 -5 -12 -10z"/>
<path d="M3530 2945 c-1 -5 -2 -13 -1 -17 0 -5 -3 -7 -7 -5 -5 1 -22 -14 -37
-33 -26 -31 -26 -33 -4 -12 14 12 28 20 31 17 10 -10 30 24 25 42 -3 10 -6 14
-7 8z"/>
<path d="M1918 2151 c-18 -21 -14 -33 8 -24 8 3 14 1 14 -4 0 -5 8 -9 18 -10
9 -1 26 -3 37 -5 15 -2 21 3 23 21 3 16 0 22 -10 19 -7 -3 -12 -13 -10 -23 3
-14 1 -15 -11 -4 -8 8 -11 17 -6 20 5 3 -2 11 -16 17 -32 15 -28 15 -47 -7z"/>
<path d="M2085 2132 c2 -12 11 -16 33 -15 17 2 34 -2 37 -7 3 -6 16 -10 28 -9
20 1 19 2 -6 13 -15 7 -24 16 -20 20 4 4 0 4 -8 1 -9 -3 -27 -1 -41 4 -22 8
-26 7 -23 -7z"/>
<path d="M1862 2104 c-7 -8 -17 -12 -22 -9 -4 3 -7 -6 -5 -20 1 -14 -2 -28 -7
-31 -4 -3 -5 -10 -2 -16 4 -6 0 -14 -7 -19 -11 -7 -11 -9 2 -9 12 0 19 13 23
45 5 27 12 45 21 45 7 0 15 7 19 15 7 19 -5 19 -22 -1z"/>
<path d="M1910 2078 c0 -18 5 -40 11 -48 9 -13 10 -13 6 2 -4 11 2 18 20 22
21 6 23 9 12 22 -7 8 -19 12 -27 9 -10 -3 -12 0 -8 10 3 8 1 15 -4 15 -6 0
-10 -15 -10 -32z"/>
<path d="M1420 2050 c15 -5 18 -8 9 -9 -27 -2 -31 -29 -6 -42 12 -7 19 -8 15
-5 -3 4 3 17 15 29 20 20 20 21 1 28 -10 4 -28 7 -39 7 -16 0 -15 -2 5 -8z"/>
<path d="M2058 1984 c-5 -4 -8 -18 -8 -31 0 -12 -4 -23 -10 -23 -5 0 -10 -9
-10 -20 0 -11 5 -20 10 -20 6 0 10 5 10 11 0 7 10 20 22 30 11 11 16 19 10 19
-6 0 -12 9 -14 21 -2 11 -6 17 -10 13z"/>
<path d="M1894 1923 c3 -37 -25 -59 -56 -42 -18 10 -24 8 -35 -7 -15 -21 -17
-38 -3 -29 6 3 10 13 10 21 0 8 5 14 10 14 6 0 8 -11 6 -25 -3 -14 -1 -25 4
-25 5 0 7 -6 4 -14 -4 -10 2 -12 20 -9 15 3 33 0 41 -7 10 -8 15 -9 15 -2 0 6
-5 14 -10 17 -6 4 -7 12 -3 18 5 8 2 8 -9 -1 -13 -10 -15 -9 -14 10 1 15 7 22
18 20 19 -3 33 27 19 41 -5 5 -7 15 -5 22 3 7 1 16 -5 19 -6 4 -9 -5 -7 -21z"/>
<path d="M1741 1909 c5 -11 14 -17 19 -14 5 3 12 0 15 -6 5 -7 -2 -10 -21 -7
-15 1 -29 -2 -31 -7 -4 -13 36 -14 55 -2 19 13 14 24 -18 40 -29 15 -29 15
-19 -4z"/>
<path d="M1940 1915 c-6 -8 -9 -19 -5 -25 3 -5 2 -10 -2 -10 -14 0 -9 -63 5
-67 9 -4 18 19 10 30 -1 1 4 12 11 25 10 18 9 22 -4 22 -18 0 -19 12 -3 28 7
7 9 12 6 12 -3 0 -11 -7 -18 -15z"/>
<path d="M751 1906 c-8 -10 -9 -16 -1 -21 5 -3 10 1 10 9 0 9 4 16 8 16 11 0
32 -22 32 -34 0 -5 -3 -7 -6 -3 -4 3 -13 -1 -22 -9 -9 -9 -17 -12 -21 -6 -4 7
-15 6 -30 -3 -23 -12 -22 -12 18 -10 27 1 50 10 66 25 l25 23 -26 14 c-33 16
-39 16 -53 -1z"/>
<path d="M1603 1780 c-6 -17 -19 -30 -28 -30 -11 0 -15 -5 -11 -16 3 -8 1 -25
-5 -36 -8 -14 -8 -23 0 -31 8 -8 11 -8 11 1 0 7 15 13 33 13 l32 2 -35 6 c-23
4 -31 9 -22 14 6 5 12 5 12 0 0 -4 5 -1 10 7 8 12 11 13 19 1 6 -10 10 -10 16
-1 4 7 2 16 -5 20 -8 5 -10 17 -7 32 10 37 -7 52 -20 18z"/>
<path d="M4906 1714 c11 -15 13 -25 7 -21 -7 5 -13 4 -13 -2 0 -6 8 -11 19
-11 13 0 19 7 19 25 0 14 -4 25 -8 25 -5 0 -16 3 -25 7 -16 5 -16 3 1 -23z"/>
<path d="M600 1707 c0 -8 -7 -17 -15 -21 -8 -3 -15 -13 -15 -21 0 -10 -5 -13
-12 -9 -7 4 -8 3 -4 -4 4 -7 23 -12 43 -12 31 0 35 3 30 20 -4 18 -2 20 16 14
19 -6 20 -5 9 9 -8 9 -21 13 -29 10 -10 -4 -14 -2 -9 5 3 6 2 13 -4 17 -5 3
-10 0 -10 -8z"/>
<path d="M787 1705 c-9 -8 -21 -15 -28 -15 -6 0 -18 -8 -25 -17 -10 -14 -16
-15 -22 -6 -6 10 -12 10 -28 -2 -18 -13 -18 -14 5 -8 17 4 22 3 17 -5 -4 -7
-2 -12 5 -12 10 0 10 -3 1 -12 -9 -9 -15 -9 -24 0 -15 15 -31 16 -22 0 5 -8 2
-9 -9 -5 -14 5 -16 2 -11 -18 4 -18 2 -25 -9 -25 -13 0 -47 -40 -47 -55 0 -4
9 -3 20 0 22 7 26 -5 8 -23 -9 -9 -8 -12 5 -12 26 0 32 28 12 50 -12 13 -14
20 -6 20 7 0 19 7 28 15 12 12 18 13 29 4 8 -6 11 -15 8 -20 -3 -5 2 -6 10 -3
18 7 22 24 6 24 -10 0 -5 9 28 45 6 7 12 21 12 29 0 20 19 20 40 1 16 -15 18
-14 18 9 0 16 -5 23 -12 20 -6 -3 -3 1 7 9 10 9 14 18 8 21 -5 3 -16 -1 -24
-9z"/>
<path d="M1900 1653 c0 -17 -6 -20 -32 -19 -18 0 -36 5 -40 11 -4 5 -10 7 -13
3 -4 -3 3 -16 14 -27 19 -19 21 -19 21 -3 1 13 4 11 15 -8 11 -19 14 -21 15
-7 0 11 8 17 25 17 29 0 30 7 10 34 -15 20 -15 19 -15 -1z"/>
<path d="M4794 1635 c11 -8 25 -15 31 -15 5 0 16 -9 22 -20 11 -16 10 -18 -4
-13 -12 5 -14 3 -7 -8 4 -8 7 -22 6 -31 -2 -12 3 -18 15 -18 14 0 15 2 5 9
-11 7 -11 9 1 14 10 4 14 0 12 -11 -2 -9 -4 -21 -4 -25 -1 -5 -5 -5 -11 -2 -6
4 -7 -1 -3 -11 5 -13 3 -15 -8 -9 -11 6 -12 5 -2 -5 10 -11 16 -11 32 4 16 14
19 15 24 2 4 -11 1 -13 -11 -9 -14 6 -15 4 -4 -9 8 -10 22 -13 38 -10 20 4 25
1 22 -9 -3 -8 -12 -13 -19 -11 -8 2 -6 -4 6 -16 20 -19 20 -19 23 16 2 25 -2
38 -13 44 -8 5 -12 15 -8 21 4 7 -2 5 -12 -3 -10 -8 -16 -10 -12 -3 4 7 0 16
-10 22 -16 9 -15 10 6 8 25 -2 39 27 19 40 -6 3 -8 1 -4 -5 3 -6 1 -14 -5 -18
-12 -7 -31 15 -23 28 3 4 -1 8 -9 8 -16 0 -31 27 -28 49 2 12 0 13 -12 3 -11
-9 -22 -10 -43 -2 -27 9 -28 9 -10 -5z"/>
<path d="M1780 1607 c0 -9 -5 -17 -11 -17 -5 0 -7 6 -3 13 4 7 3 8 -2 4 -5 -5
-9 -24 -9 -43 0 -28 2 -31 11 -19 7 9 18 13 29 9 16 -6 17 -3 11 22 -9 35 -26
56 -26 31z"/>
<path d="M2017 1590 c6 -22 -7 -26 -24 -9 -8 8 -13 8 -17 0 -4 -6 -1 -11 7
-11 8 0 17 -7 21 -15 8 -23 21 -18 33 14 9 24 8 31 -4 35 -21 8 -22 8 -16 -14z"/>
<path d="M2580 1593 c0 -7 5 -13 11 -13 6 0 9 -7 5 -15 -3 -8 -1 -25 4 -37 8
-22 9 -21 10 7 0 17 3 39 6 50 4 16 0 21 -15 21 -12 0 -21 -6 -21 -13z"/>
<path d="M740 1586 c0 -14 29 -26 63 -26 9 0 17 4 17 9 0 5 -10 7 -22 4 -17
-3 -19 -2 -10 5 11 7 8 11 -10 15 -33 9 -38 9 -38 -7z"/>
<path d="M1904 1556 c-5 -6 -10 -37 -11 -68 0 -48 3 -59 18 -63 11 -4 19 -15
19 -26 0 -10 4 -19 10 -19 15 0 7 43 -10 58 -13 11 -11 12 10 7 22 -6 21 -4
-7 15 -28 18 -36 40 -17 40 3 0 3 -4 0 -9 -3 -4 3 -8 14 -7 11 0 20 4 20 9 0
4 0 10 0 15 0 4 -4 1 -8 -6 -7 -10 -13 -8 -26 7 -13 14 -14 21 -5 27 8 4 10 3
5 -4 -4 -7 -5 -12 -2 -12 3 0 10 10 17 21 6 13 7 19 1 15 -6 -3 -12 -2 -14 3
-1 5 -8 4 -14 -3z"/>
<path d="M2025 1510 c11 -36 24 -50 49 -50 17 0 18 2 6 10 -8 5 -10 10 -4 10
6 0 11 7 11 15 0 8 -7 15 -14 15 -8 0 -11 -4 -8 -10 12 -19 -8 -10 -28 13
l-19 22 7 -25z"/>
<path d="M1510 1510 c0 -8 -8 -10 -25 -6 -20 5 -26 2 -31 -18 -3 -14 -11 -23
-17 -22 -7 2 -9 1 -4 -1 4 -3 7 -11 7 -19 0 -8 4 -14 10 -14 5 0 7 8 4 18 -4
11 -3 13 3 5 6 -8 14 -9 23 -3 13 8 12 10 -3 10 -10 0 -15 5 -12 11 4 5 12 8
18 6 7 -2 18 3 25 12 10 13 11 14 9 1 -2 -8 -2 -12 0 -9 2 4 12 5 21 2 13 -3
18 2 18 16 0 13 -4 17 -10 11 -6 -6 -14 -6 -23 1 -10 9 -13 8 -13 -1z"/>
<path d="M1308 1473 c-10 -2 -18 -9 -18 -15 0 -5 7 -8 15 -4 8 3 14 0 12 -7
-1 -7 4 -12 11 -11 6 1 21 2 32 3 13 1 20 8 20 23 0 21 0 21 -14 2 -14 -18
-15 -18 -21 -1 -4 9 -10 16 -14 16 -3 -1 -14 -3 -23 -6z"/>
<path d="M1499 1452 c-31 -16 -36 -27 -16 -36 6 -3 -4 -4 -23 -1 l-35 5 30
-14 c28 -13 31 -12 45 8 21 31 43 23 28 -10 -15 -31 -1 -45 19 -19 11 14 17
16 20 8 9 -24 22 -13 20 17 -1 22 -7 30 -21 30 -14 0 -16 3 -8 13 15 18 -21
17 -59 -1z"/>
<path d="M1617 1453 c10 -3 9 -8 -2 -20 -17 -16 -20 -38 -5 -28 6 3 15 -4 20
-17 11 -23 11 -23 6 0 -3 15 1 22 12 23 10 1 7 4 -8 9 -16 5 -19 8 -8 9 11 1
15 6 12 16 -4 8 -14 15 -23 14 -10 0 -11 -2 -4 -6z"/>
<path d="M4884 1365 c-28 -31 -9 -39 40 -17 37 18 48 35 19 30 -10 -1 -23 0
-28 4 -6 3 -20 -4 -31 -17z"/>
<path d="M1564 1355 c-5 -11 -11 -12 -25 -5 -15 8 -17 7 -13 -5 4 -8 12 -15
20 -15 8 0 14 -6 14 -12 0 -7 6 -4 12 7 6 11 19 25 27 32 14 11 13 12 -7 13
-12 0 -25 -7 -28 -15z"/>
<path d="M4764 1340 c4 -35 16 -53 16 -24 0 13 3 15 8 7 6 -9 12 -7 25 7 17
20 16 20 -10 14 -19 -4 -24 -3 -15 4 11 7 10 10 -3 16 -25 9 -25 9 -21 -24z"/>
<path d="M905 1350 c-6 -10 -5 -11 15 -14 5 0 18 -9 30 -18 22 -19 26 -8 10
23 -11 20 -45 26 -55 9z"/>
<path d="M1005 1317 c3 -7 -8 -18 -25 -25 -16 -8 -30 -18 -30 -23 0 -14 17
-11 34 7 9 8 16 11 16 6 0 -6 9 -8 20 -5 11 3 18 9 15 13 -3 5 -1 11 5 15 18
11 10 25 -15 25 -15 0 -23 -5 -20 -13z"/>
<path d="M4873 1289 c6 -16 14 -29 18 -29 4 0 5 -9 2 -20 -7 -27 -25 -25 -43
5 -15 24 -16 24 -28 5 -11 -18 -10 -20 10 -21 17 0 19 -2 8 -7 -8 -4 -16 -13
-18 -20 -2 -10 2 -10 19 -1 15 8 19 8 15 0 -10 -15 7 -14 23 2 11 10 13 9 7
-3 -4 -8 0 -6 8 4 9 11 16 25 16 32 0 14 28 27 41 18 5 -3 9 0 9 5 0 6 -7 12
-15 12 -33 3 -66 19 -60 29 3 4 -1 10 -9 13 -11 5 -12 0 -3 -24z"/>
<path d="M817 1295 c12 -9 21 -21 19 -28 -1 -6 -1 -9 1 -4 3 4 9 7 14 7 6 0 8
-4 5 -9 -6 -10 19 -23 27 -14 3 3 1 16 -5 29 -9 18 -14 21 -20 12 -7 -10 -11
-9 -22 5 -7 9 -19 17 -27 17 -8 0 -4 -6 8 -15z"/>
<path d="M4924 1216 c3 -17 -2 -27 -19 -36 -13 -7 -21 -18 -18 -26 3 -9 -3
-14 -18 -15 -18 -1 -19 -3 -6 -6 10 -3 29 -15 42 -29 13 -13 32 -24 42 -23 12
0 7 6 -14 16 -26 13 -33 23 -33 44 0 33 30 55 48 37 9 -9 12 -3 12 25 0 30 -4
37 -20 37 -16 0 -19 -5 -16 -24z"/>
<path d="M1086 1214 c-20 -20 -21 -35 -1 -28 8 4 15 1 15 -6 0 -7 9 -1 20 13
11 14 20 28 20 31 0 12 -39 5 -54 -10z"/>
<path d="M4770 1111 c0 -5 5 -11 12 -13 21 -7 1 -37 -22 -33 -19 4 -20 2 -8
-12 12 -15 11 -15 -9 -5 -30 16 -38 15 -23 -3 7 -8 16 -12 21 -9 5 3 10 -5 10
-18 1 -20 2 -21 6 -3 3 11 17 33 31 48 22 23 28 25 37 14 5 -8 20 -17 33 -21
12 -4 22 -12 22 -17 0 -5 5 -9 10 -9 6 0 10 7 10 15 0 8 -4 16 -10 16 -5 1
-15 2 -21 3 -6 0 -17 9 -24 19 -7 10 -22 19 -34 20 -12 1 -21 5 -21 9 0 4 -4
8 -10 8 -5 0 -10 -4 -10 -9z"/>
<path d="M617 1083 c10 -15 13 -24 6 -20 -6 4 -14 3 -18 -3 -3 -5 -3 -10 2
-11 52 -5 59 -3 60 13 1 10 -2 16 -7 13 -5 -3 -17 3 -27 15 -25 29 -36 25 -16
-7z"/>
<path d="M4905 930 c9 -15 -17 -37 -40 -33 -19 3 -19 3 0 -5 25 -11 78 8 65
23 -6 7 -7 15 -3 18 3 4 -1 7 -11 7 -9 0 -14 -4 -11 -10z"/>
<path d="M546 868 c3 -5 1 -15 -6 -23 -7 -9 -8 -15 0 -20 17 -11 12 -45 -7
-45 -15 0 -16 -2 -3 -10 10 -6 16 -6 18 0 2 6 8 7 14 4 6 -4 8 2 3 16 -5 15
-2 25 6 31 11 6 10 9 -4 14 -12 5 -14 11 -7 24 6 13 5 18 -5 18 -8 0 -12 -4
-9 -9z"/>
<path d="M4350 825 c-7 -8 -16 -13 -20 -10 -4 3 -10 -2 -14 -10 -3 -8 0 -14 6
-12 6 1 13 -4 16 -12 2 -8 0 -11 -6 -7 -25 15 -21 -16 5 -39 15 -13 22 -25 16
-25 -7 0 -13 5 -13 10 0 6 -6 10 -13 10 -7 0 -22 9 -34 19 -20 19 -52 13 -39
-7 4 -6 -3 -8 -16 -5 -23 5 -22 4 2 -16 14 -11 34 -20 45 -19 17 1 17 1 -2 5
-13 2 -23 8 -23 13 0 18 20 20 50 5 32 -16 42 -32 14 -21 -13 5 -14 3 -6 -6 6
-7 11 -17 12 -23 3 -20 10 -18 10 4 0 17 4 22 16 17 9 -3 18 -6 20 -6 3 0 2
-4 -1 -10 -3 -5 -1 -10 4 -10 17 0 13 18 -6 29 -12 7 -14 10 -4 11 11 0 11 3
0 16 -27 33 -20 70 11 54 13 -7 19 -6 24 6 3 8 2 12 -3 9 -5 -3 -13 -1 -16 5
-4 6 -16 8 -28 5 -21 -6 -21 -6 -3 9 11 9 17 18 14 21 -3 3 -11 -1 -18 -10z"/>
<path d="M335 820 c-3 -5 -17 -7 -30 -4 -15 3 -25 0 -25 -7 0 -8 12 -10 34 -6
l34 5 -14 -35 c-8 -19 -10 -32 -5 -28 6 3 11 12 11 20 0 7 9 17 20 20 11 3 20
11 20 17 0 7 5 6 14 -1 9 -8 16 -9 21 -2 3 6 -7 13 -22 17 -15 3 -33 7 -40 9
-7 2 -15 0 -18 -5z"/>
<path d="M4520 794 c0 -26 16 -48 28 -40 5 3 15 -1 21 -8 10 -11 8 -17 -6 -25
-12 -7 -13 -10 -4 -11 7 0 11 -6 7 -15 -3 -8 -2 -15 3 -15 14 0 22 74 9 79 -6
2 -22 15 -35 29 -20 22 -23 23 -23 6z"/>
<path d="M4664 784 c5 -16 0 -26 -21 -39 -26 -17 -26 -19 -8 -26 17 -7 18 -8
3 -8 -22 -1 -24 -21 -3 -21 14 0 19 11 16 37 -1 7 4 10 12 7 10 -4 13 3 12 26
-1 16 -5 33 -10 38 -4 4 -5 -3 -1 -14z"/>
<path d="M2280 750 c0 -5 21 -21 48 -35 26 -14 63 -34 82 -45 54 -29 146 -70
158 -70 6 0 12 -3 14 -8 3 -8 243 -122 257 -122 5 0 11 -4 13 -8 2 -5 64 -43
138 -84 129 -72 174 -96 445 -238 66 -35 153 -80 193 -101 46 -25 85 -39 109
-39 l38 0 -35 18 c-19 11 -109 57 -200 104 -91 47 -223 116 -295 153 -71 38
-151 79 -177 91 -26 13 -79 44 -118 69 -39 25 -73 45 -76 45 -5 0 -229 108
-468 226 -113 56 -126 61 -126 44z"/>
<path d="M4820 745 c11 -13 10 -18 -6 -30 -10 -8 -14 -15 -7 -15 17 0 5 -28
-15 -34 -10 -2 -6 -4 8 -3 26 2 27 -3 14 -38 -8 -19 -7 -19 11 -2 14 15 20 16
26 5 14 -21 10 -31 -8 -24 -10 4 -14 4 -10 0 4 -4 -1 -17 -10 -28 -18 -21 -18
-21 3 -3 22 18 49 23 39 7 -3 -5 -1 -10 5 -10 6 0 8 -4 5 -10 -4 -6 6 -10 22
-10 20 0 24 3 14 9 -7 5 -11 13 -7 19 3 6 -6 20 -21 31 -24 17 -26 22 -13 31
13 9 13 10 0 10 -13 0 -13 2 -1 9 10 6 19 3 31 -11 13 -17 20 -19 36 -10 16
10 17 11 2 12 -9 0 -20 5 -24 12 -5 7 -2 9 7 6 22 -9 18 33 -5 56 -26 26 -42
28 -58 8 -8 -9 -8 -13 -2 -9 7 4 14 0 18 -8 3 -8 12 -15 21 -15 8 0 15 -4 15
-10 0 -15 -11 -12 -33 8 -19 16 -19 16 -13 -4 4 -15 2 -24 -8 -27 -18 -7 -31
9 -16 18 6 4 7 12 3 18 -4 7 -8 17 -9 22 0 6 -2 16 -2 23 -1 6 -7 12 -13 12
-8 0 -7 -5 1 -15z"/>
<path d="M2243 704 c4 -6 0 -20 -8 -30 -20 -26 -18 -33 5 -27 26 7 26 -5 1
-15 -15 -5 5 -19 92 -64 62 -32 141 -69 177 -84 36 -15 72 -33 80 -39 8 -6 49
-26 90 -45 41 -18 77 -37 80 -41 6 -8 348 -204 387 -221 15 -7 30 -15 33 -18
3 -4 58 -32 122 -64 l117 -57 101 3 101 3 -88 46 c-178 92 -349 182 -398 209
-27 15 -88 48 -135 73 -47 24 -106 58 -132 76 -26 18 -82 48 -125 67 -130 60
-304 142 -385 184 -42 22 -79 40 -82 40 -3 0 -7 -10 -7 -22 -1 -21 -2 -21 -6
-3 -3 11 -10 25 -15 30 -8 7 -9 6 -5 -1z"/>
<path d="M4615 667 c16 -28 16 -28 -4 -17 -12 6 -21 7 -21 2 0 -4 16 -15 34
-23 31 -14 36 -14 41 -1 4 10 0 12 -11 8 -12 -4 -15 -2 -10 9 3 8 0 15 -6 15
-6 0 -17 8 -25 18 -10 10 -9 6 2 -11z"/>
<path d="M4554 649 c-3 -6 -16 -8 -28 -5 -19 5 -19 4 -4 -8 10 -7 14 -16 10
-20 -4 -5 1 -6 10 -4 9 1 23 -5 30 -14 10 -13 17 -15 28 -7 13 9 12 10 -3 5
-15 -5 -17 -2 -12 15 5 15 4 19 -4 15 -6 -4 -16 -4 -23 0 -7 5 -5 11 7 21 11
7 14 13 8 13 -7 0 -15 -5 -19 -11z"/>
<path d="M4736 614 c-4 -10 3 -25 18 -39 23 -21 26 -22 38 -7 7 9 8 13 3 10
-6 -4 -19 0 -29 8 -16 11 -17 16 -6 29 10 12 10 15 -3 15 -8 0 -18 -7 -21 -16z"/>
<path d="M2180 588 c0 -14 50 -40 345 -184 99 -49 198 -100 220 -115 22 -15
72 -43 110 -63 39 -20 75 -40 81 -45 23 -18 242 -140 291 -161 28 -12 62 -20
75 -18 17 2 -10 20 -107 71 -151 78 -366 198 -445 248 -30 19 -109 61 -175 93
-66 31 -180 86 -253 122 -73 35 -135 64 -137 64 -3 0 -5 -6 -5 -12z"/>
<path d="M4440 564 c0 -12 7 -27 15 -34 8 -7 12 -17 8 -23 -4 -6 -1 -7 6 -3 9
6 8 13 -5 27 -16 18 -16 19 7 21 13 0 32 0 42 0 10 -1 15 3 12 9 -4 6 -19 7
-37 4 -21 -5 -33 -3 -39 6 -6 10 -9 8 -9 -7z"/>
<path d="M4844 563 c9 -17 -9 -50 -18 -34 -4 6 -12 11 -17 11 -6 0 -8 -4 -5
-8 3 -5 -1 -9 -9 -9 -8 0 -12 4 -9 9 3 4 2 8 -3 8 -7 0 -22 -25 -39 -66 -3 -6
1 -14 10 -17 8 -3 17 1 20 10 4 10 2 14 -8 10 -10 -4 -13 -1 -10 8 5 11 10 12
25 2 11 -7 15 -13 9 -15 -6 -2 -8 -8 -5 -12 3 -5 12 -7 19 -4 8 3 17 0 21 -6
5 -8 -1 -11 -16 -10 -45 4 -59 0 -59 -16 0 -12 4 -14 13 -7 6 6 20 9 30 7 22
-3 36 -14 19 -14 -7 0 -12 -10 -13 -22 0 -13 -3 -17 -6 -10 -2 6 -18 12 -35
12 -30 0 -31 0 -13 -20 15 -17 16 -20 2 -25 -13 -6 -20 -55 -7 -53 3 1 13 -2
23 -7 10 -4 23 -2 31 4 7 6 15 8 19 5 3 -3 14 -1 25 5 20 10 42 -2 42 -24 0
-5 -7 -2 -14 8 -9 12 -16 14 -21 8 -3 -6 -1 -11 5 -11 6 0 8 -5 4 -12 -4 -6
-3 -8 4 -4 6 3 13 2 17 -3 3 -6 13 -7 22 -4 13 5 12 1 -4 -17 -27 -28 -19 -49
8 -24 11 10 19 12 19 6 0 -7 -4 -12 -10 -12 -5 0 -7 -6 -4 -14 4 -11 0 -13
-18 -9 -13 4 -26 11 -31 17 -4 6 -5 0 -4 -14 3 -17 -4 -30 -20 -43 -28 -22
-29 -33 -5 -42 13 -5 14 -3 5 6 -16 16 10 41 39 37 27 -4 32 -34 6 -32 -10 1
-15 -2 -12 -7 3 -5 -2 -12 -10 -15 -19 -7 -21 -24 -3 -24 13 0 67 -43 67 -54
0 -3 -12 -6 -28 -6 -27 0 -66 32 -55 44 4 3 1 6 -5 6 -7 0 -12 -6 -12 -14 0
-8 -3 -21 -6 -29 -4 -11 7 -15 54 -16 46 -1 61 3 66 14 3 9 -1 18 -11 22 -14
5 -13 8 5 14 13 5 22 17 22 29 0 12 -5 18 -10 15 -6 -4 -17 10 -25 29 -9 21
-22 36 -32 36 -24 0 -10 10 23 16 28 5 44 19 44 38 0 6 -7 1 -15 -10 -14 -18
-14 -18 -8 3 3 13 10 23 17 23 6 0 4 4 -4 10 -12 8 -12 10 4 16 14 5 15 9 4
15 -10 7 -10 9 0 9 8 0 12 16 12 45 0 25 -4 45 -10 45 -5 0 -9 -6 -7 -12 1 -7
-5 -13 -13 -13 -8 0 -18 -4 -22 -10 -5 -6 -8 -3 -8 7 0 9 6 19 13 21 7 3 6 6
-5 6 -22 1 -32 -17 -19 -33 7 -8 10 -19 9 -26 -2 -7 3 -15 11 -18 10 -3 13 1
8 17 -3 14 -1 21 10 21 8 0 11 -4 8 -10 -3 -5 -1 -10 5 -10 7 0 8 -6 1 -19 -6
-10 -7 -22 -3 -27 4 -5 -1 -2 -10 5 -9 7 -23 9 -30 5 -7 -4 -10 -3 -5 1 4 5 0
16 -9 26 -36 39 -16 82 39 83 18 1 32 7 34 16 4 13 3 13 -6 0 -7 -9 -11 -10
-11 -3 0 6 5 15 11 18 7 5 4 14 -8 28 -14 16 -15 19 -3 15 11 -4 16 1 18 19 1
18 -2 24 -13 19 -8 -3 -20 3 -28 14 -9 13 -17 16 -27 9 -13 -7 -12 -9 2 -9 9
0 20 -5 24 -11 4 -7 0 -9 -14 -5 -11 4 -23 2 -27 -5 -6 -8 -9 -8 -15 1 -6 9
-12 10 -26 1 -17 -9 -17 -10 -1 -11 9 0 17 -4 17 -10 0 -5 7 -10 16 -10 8 0
13 -4 9 -9 -3 -5 -1 -12 5 -16 5 -3 10 -2 10 3 0 6 9 8 20 5 24 -6 26 -28 4
-37 -14 -5 -15 -4 -4 9 18 22 -3 19 -33 -5 -19 -15 -24 -28 -22 -55 1 -19 -2
-35 -7 -35 -4 0 -8 5 -8 10 0 6 -4 10 -10 10 -5 0 -10 -7 -10 -15 0 -8 -7 -15
-15 -15 -18 0 -20 16 -2 23 10 4 10 6 0 6 -7 1 -13 6 -13 12 0 6 9 8 23 4 17
-5 19 -4 7 4 -14 10 -7 16 14 12 5 -1 3 6 -5 15 -12 16 -12 17 3 12 11 -5 18
0 21 13 3 10 1 19 -4 19 -5 0 -9 9 -9 20 0 11 -6 20 -13 20 -8 0 -22 10 -33
22 l-19 21 31 -6 c27 -5 33 -2 43 20 9 20 9 29 0 37 -9 8 -10 8 -5 -1z"/>
<path d="M75 549 c-4 -6 -4 -14 1 -18 17 -12 14 -30 -6 -36 -11 -4 -18 -10
-15 -15 3 -5 -7 -16 -22 -24 l-28 -15 28 -1 c16 0 26 4 22 10 -3 6 1 13 9 16
9 3 13 10 10 15 -3 5 1 9 9 9 14 0 42 49 32 58 -3 3 -5 -1 -5 -9 -1 -10 -4 -9
-14 4 -10 13 -16 15 -21 6z"/>
<path d="M4554 553 c3 -6 0 -13 -6 -15 -18 -6 30 -30 67 -34 21 -3 26 -1 15 5
-8 6 -18 7 -22 5 -4 -3 -20 7 -34 23 -14 15 -23 23 -20 16z"/>
<path d="M568 514 l24 -21 -26 2 c-14 2 -24 0 -21 -5 4 -6 26 -7 57 -1 4 0 5
9 1 19 -5 14 -3 15 8 5 7 -7 18 -13 23 -13 6 0 1 7 -11 15 -12 8 -29 12 -37 9
-9 -3 -22 -2 -29 2 -7 5 -2 -1 11 -12z"/>
<path d="M4435 481 c-3 -5 -1 -12 5 -16 6 -4 8 -10 6 -14 -3 -4 6 -8 20 -9 13
-1 24 3 24 9 0 8 5 7 15 -1 13 -11 13 -14 -2 -25 -10 -7 -22 -11 -27 -8 -5 4
-6 1 -2 -5 5 -9 13 -9 26 -2 13 7 20 6 23 -3 2 -6 4 3 5 21 0 17 -4 32 -9 32
-5 0 -8 5 -6 11 1 6 -4 13 -11 15 -7 1 -8 0 -2 -3 7 -3 3 -11 -10 -20 -17 -12
-24 -12 -36 -2 -12 10 -12 14 -2 20 9 6 9 9 1 9 -6 0 -14 -4 -18 -9z"/>
<path d="M4536 463 c3 -15 6 -28 7 -28 1 0 22 -10 47 -23 55 -27 66 -28 80 -2
7 14 7 20 0 20 -5 0 -10 -6 -10 -14 0 -8 -6 -13 -12 -12 -31 5 -58 18 -58 27
0 5 -11 14 -25 19 -16 6 -23 14 -19 25 3 8 1 15 -4 15 -6 0 -9 -12 -6 -27z"/>
<path d="M4573 475 c9 -7 17 -17 17 -23 0 -16 40 -26 53 -13 17 17 55 13 66
-6 10 -17 10 -17 11 0 0 12 -10 19 -30 23 -16 4 -27 10 -25 14 3 5 -4 6 -15 3
-11 -3 -20 -12 -20 -19 0 -17 -20 -19 -21 -1 -1 6 -1 15 -1 18 1 4 -11 9 -26
12 -23 4 -25 4 -9 -8z"/>
<path d="M4230 385 c0 -4 8 -14 18 -21 16 -13 16 -14 -3 -7 -18 6 -18 5 -7
-10 8 -9 11 -21 7 -26 -3 -7 0 -8 9 -5 9 3 16 1 16 -5 0 -6 -4 -11 -10 -11 -5
0 -10 -5 -10 -11 0 -8 4 -8 15 1 8 6 19 9 25 5 5 -3 10 -1 10 4 0 6 -4 11 -10
11 -5 0 -10 5 -10 11 0 5 4 8 8 5 5 -3 9 2 9 10 0 10 -4 11 -11 4 -14 -14 -26
-13 -20 3 2 7 -4 22 -16 32 -11 10 -20 15 -20 10z"/>
<path d="M4520 364 c0 -8 4 -13 9 -9 5 3 12 1 15 -4 3 -5 -1 -12 -9 -15 -9 -3
-18 1 -21 9 -4 8 -10 15 -16 15 -5 0 -7 -4 -3 -9 3 -5 -2 -17 -11 -25 -18 -18
-49 -22 -38 -5 4 7 1 10 -7 7 -8 -3 -13 -10 -12 -16 3 -14 -48 4 -58 19 -4 7
-9 4 -12 -5 -4 -9 -2 -16 3 -16 6 0 10 -8 10 -17 0 -10 4 -14 8 -8 10 14 96
19 87 5 -3 -6 -11 -7 -17 -4 -7 5 -8 2 -3 -6 6 -9 4 -12 -7 -8 -8 4 -15 0 -15
-8 0 -7 4 -11 9 -8 4 3 14 2 20 -2 9 -6 5 -10 -12 -15 l-25 -7 26 -1 c30 -1
50 28 21 30 -9 1 -3 4 13 8 37 9 42 6 24 -16 -9 -11 -10 -14 -1 -9 7 4 12 2
12 -5 0 -7 3 -9 6 -6 4 3 15 2 25 -3 11 -6 19 -6 21 0 2 5 15 11 31 12 16 1
26 7 23 14 -9 23 7 23 24 1 24 -29 16 -39 -25 -31 -18 3 -35 2 -39 -4 -3 -5 5
-7 19 -4 20 3 24 1 19 -11 -3 -10 2 -18 16 -22 16 -5 19 -10 11 -18 -8 -8 -14
-8 -22 0 -6 6 -18 9 -26 6 -11 -4 -10 -8 4 -19 11 -8 13 -13 6 -14 -7 0 -13
-4 -13 -10 0 -14 24 -8 30 7 4 8 12 6 30 -8 l25 -19 -25 3 c-14 1 -25 -3 -26
-10 -1 -7 -2 -18 -3 -24 0 -5 -5 -7 -11 -4 -5 3 -10 1 -10 -4 0 -14 6 -14 31
0 16 8 18 13 8 25 -8 9 -8 14 -1 14 13 0 52 -40 52 -52 0 -4 9 -8 21 -8 11 0
17 -5 14 -10 -4 -7 -12 -7 -25 0 -13 7 -21 5 -31 -6 -7 -8 -8 -14 -3 -13 5 1
16 1 24 0 13 -1 13 -3 1 -10 -9 -6 0 -8 27 -7 23 1 45 6 49 11 5 4 -2 5 -14 2
-23 -5 -32 7 -13 18 16 10 12 21 -12 33 -15 7 -18 11 -8 12 11 1 9 4 -5 11
-16 7 -14 8 9 4 24 -5 28 -3 22 12 -6 14 -5 15 5 6 10 -10 9 -16 -2 -29 -12
-15 -12 -16 9 -10 15 5 22 3 22 -5 0 -7 3 -9 6 -6 4 4 1 13 -6 21 -6 9 -12 32
-13 53 0 21 -5 44 -11 52 -9 12 -8 13 3 6 10 -5 12 -4 7 3 -4 7 -14 12 -22 12
-8 0 -12 -5 -9 -11 4 -6 -2 -13 -14 -16 -11 -3 -18 -9 -15 -14 7 -11 -41 7
-67 25 -20 13 -20 14 0 19 10 2 33 3 50 1 17 -2 31 0 31 5 0 14 -26 31 -36 23
-4 -4 -2 1 5 11 7 9 10 17 6 17 -4 0 -2 6 4 14 8 10 9 16 1 21 -16 10 -12 25
7 18 11 -4 14 -3 9 6 -5 7 -14 10 -22 7 -8 -3 -14 0 -14 6 0 7 -4 7 -13 0 -7
-6 -31 -10 -53 -8 -31 3 -41 0 -52 -18 -13 -21 -13 -21 -7 0 3 12 3 28 -1 37
-8 22 -34 30 -34 11z m39 -77 c13 -18 21 -24 18 -14 -4 11 -1 17 8 17 36 0 23
-36 -15 -41 -19 -3 -25 0 -24 14 2 15 -1 16 -14 5 -12 -10 -14 -10 -8 0 4 6 3
12 -3 12 -6 0 -8 6 -5 13 3 8 -2 14 -10 14 -8 0 -12 -6 -9 -14 3 -7 0 -13 -6
-13 -14 0 -14 15 1 39 14 23 32 14 67 -32z m69 31 c8 -8 15 -8 27 2 8 7 18 10
22 6 3 -3 2 -6 -4 -6 -6 0 -14 -7 -17 -16 -5 -14 -4 -15 8 -5 16 14 40 6 30
-10 -3 -5 -9 -7 -14 -4 -5 3 -11 1 -15 -5 -3 -5 -1 -10 6 -10 11 0 11 -2 0
-12 -10 -11 -14 -9 -22 5 -6 10 -22 22 -35 27 -13 5 -24 16 -24 25 0 18 21 20
38 3z"/>
<path d="M2026 355 c-4 -10 15 -26 67 -54 40 -22 77 -43 82 -48 6 -4 27 -17
48 -28 20 -11 85 -48 144 -81 59 -34 137 -74 173 -89 36 -15 68 -32 71 -37 4
-6 31 -13 60 -15 53 -4 52 -3 -131 90 -102 51 -212 109 -245 129 -171 100
-256 148 -259 148 -2 0 -6 -7 -10 -15z"/>
<path d="M1986 287 c-48 -65 -47 -60 -7 -79 20 -10 68 -38 106 -63 39 -25 109
-68 157 -95 l88 -50 117 0 118 1 -115 57 c-63 32 -160 85 -215 118 -55 33
-130 77 -166 97 l-67 37 -16 -23z"/>
<path d="M4282 271 c-11 -7 -10 -10 3 -15 23 -8 27 -8 20 4 -3 6 -1 10 6 10 7
0 9 -9 5 -22 -3 -13 -6 -27 -6 -31 0 -5 -5 -5 -12 -1 -7 4 -8 3 -4 -4 4 -6 13
-9 21 -6 8 4 12 10 9 15 -3 5 3 9 13 10 10 0 13 3 6 6 -7 2 -13 9 -13 14 0 14
30 11 46 -6 18 -18 34 -19 34 -3 0 6 -3 8 -6 5 -4 -3 -18 3 -32 13 -26 21 -67
26 -90 11z"/>
<path d="M4800 271 c0 -5 -15 -7 -32 -4 -32 4 -32 4 -13 -11 11 -9 16 -16 10
-15 -22 3 -35 -2 -35 -12 0 -6 9 -8 20 -4 12 4 28 1 37 -7 14 -11 16 -11 10 4
-4 12 -2 15 8 12 8 -3 13 -11 12 -16 -1 -6 3 -12 9 -15 7 -2 10 6 6 23 -4 21
-2 25 9 19 8 -5 5 1 -5 13 -20 23 -36 29 -36 13z"/>
<path d="M4516 188 c4 -6 -1 -17 -11 -25 -17 -12 -16 -13 13 -13 29 0 60 -28
46 -42 -2 -3 2 -11 10 -17 11 -9 16 -9 22 0 4 8 3 9 -4 5 -8 -5 -12 0 -12 12
0 11 -7 25 -15 32 -19 16 -19 25 1 44 13 14 13 16 0 16 -8 0 -17 -8 -19 -17
-4 -17 -5 -17 -6 0 0 9 -8 17 -17 17 -9 0 -12 -5 -8 -12z"/>
<path d="M1915 179 c-9 -13 -12 -10 65 -55 36 -21 71 -44 78 -51 7 -7 17 -13
22 -13 5 0 15 -6 22 -12 21 -21 87 -48 115 -48 l26 0 -24 18 c-13 10 -66 43
-117 73 -51 30 -109 64 -130 76 -42 26 -48 27 -57 12z"/>
<path d="M4431 152 c-6 -12 -4 -23 9 -39 15 -20 20 -21 30 -8 7 8 17 12 22 9
6 -4 5 3 -1 15 -12 22 -31 29 -31 11 0 -5 5 -10 12 -10 9 0 9 -3 1 -11 -9 -9
-16 -8 -28 5 -9 9 -11 16 -5 16 6 0 9 4 6 9 -4 5 0 12 6 14 10 4 10 6 1 6 -7
1 -17 -7 -22 -17z"/>
</g>
</svg>
