<?xml version="1.0" standalone="no"?>
<!DOCTYPE svg PUBLIC "-//W3C//DTD SVG 20010904//EN"
 "http://www.w3.org/TR/2001/REC-SVG-20010904/DTD/svg10.dtd">
<svg version="1.0" xmlns="http://www.w3.org/2000/svg"
 width="1000.000000pt" height="1776.000000pt" viewBox="0 0 1000.000000 1776.000000"
 preserveAspectRatio="xMidYMid meet">
<metadata>
Created by potrace 1.16, written by Peter Selinger 2001-2019
</metadata>
<g transform="translate(0.000000,1776.000000) scale(0.100000,-0.100000)"
fill="#000000" stroke="none">
<path d="M7282 17695 c-1 -36 -4 -71 -8 -76 -4 -6 -10 -52 -14 -103 -10 -112
-45 -423 -65 -571 -16 -118 -31 -251 -40 -355 -13 -149 -27 -266 -65 -550 -10
-80 -22 -176 -26 -215 -3 -38 -8 -83 -10 -100 -2 -16 -6 -55 -9 -85 -3 -30
-10 -75 -15 -100 -11 -49 -24 -229 -22 -297 1 -24 -3 -43 -8 -43 -6 0 -10 -5
-10 -11 0 -5 5 -7 11 -4 7 5 8 -4 5 -27 -3 -18 -8 -71 -11 -118 -3 -47 -8
-106 -11 -131 -4 -29 -2 -49 4 -53 7 -4 8 -15 2 -30 -5 -13 -6 -27 -3 -30 3
-3 1 -12 -5 -19 -8 -9 -11 -45 -9 -95 2 -45 0 -82 -3 -82 -4 0 -10 -30 -13
-66 -2 -36 -9 -70 -13 -74 -5 -5 -25 -11 -44 -13 -19 -3 -37 -6 -40 -6 -3 -1
6 -7 19 -14 14 -6 28 -25 33 -42 8 -33 -16 -302 -32 -349 -6 -16 -10 -42 -10
-58 0 -16 -4 -38 -10 -48 -5 -10 -10 -44 -12 -76 -1 -33 -5 -67 -10 -77 -5 -9
-9 -51 -9 -92 l0 -75 -142 0 c-78 0 -189 4 -247 9 -58 6 -181 15 -275 21 -93
7 -246 18 -340 27 -93 8 -198 17 -231 20 -94 8 -123 -19 -139 -127 -4 -25 -10
-65 -15 -90 -5 -25 -13 -72 -19 -105 -11 -65 -27 -153 -42 -225 -5 -25 -14
-70 -19 -100 -14 -70 -27 -142 -40 -205 -5 -27 -14 -75 -20 -105 -6 -30 -14
-75 -19 -100 -5 -25 -14 -72 -21 -105 -6 -33 -15 -82 -20 -110 -6 -27 -15 -77
-21 -110 -6 -33 -15 -80 -19 -105 -32 -167 -49 -274 -44 -281 3 -5 15 -9 27
-9 12 0 28 -4 36 -9 12 -8 12 -12 2 -25 -7 -9 -17 -13 -22 -10 -5 3 -9 1 -9
-4 0 -14 37 -22 107 -22 34 0 63 -3 65 -7 2 -5 34 -6 72 -5 78 4 73 22 -7 22
l-48 0 3 38 c2 30 7 37 23 36 27 -2 178 -24 181 -27 1 -1 -1 -17 -3 -34 -5
-28 -9 -33 -34 -33 -53 0 -38 -17 21 -24 33 -4 60 -11 60 -16 0 -6 30 -10 66
-10 37 0 63 -4 59 -9 -14 -24 112 -24 140 -1 6 5 39 4 75 -1 36 -4 107 -14
158 -21 50 -6 92 -16 92 -21 0 -4 -10 -5 -22 -2 -23 7 -23 7 -3 -9 11 -8 31
-15 45 -16 20 0 22 2 10 10 -18 12 -11 13 65 10 65 -2 77 -6 55 -20 -24 -15
-5 -22 62 -25 35 -2 80 -6 100 -10 20 -4 50 -4 67 0 28 6 31 10 31 46 l0 39
41 0 c38 0 154 -16 188 -26 11 -4 12 -7 3 -16 -7 -7 -12 -20 -12 -30 0 -10 -7
-21 -16 -25 -24 -9 3 -23 45 -23 40 0 111 -20 111 -31 0 -4 -10 -11 -21 -14
-15 -5 -25 -2 -31 9 -7 12 -24 16 -67 16 -32 0 -60 3 -64 6 -3 4 -23 8 -44 10
-81 8 -109 12 -126 19 -10 4 -24 2 -32 -5 -11 -9 -33 -11 -73 -6 -102 13 -196
25 -267 36 -38 6 -99 14 -135 17 -36 2 -69 8 -75 12 -5 4 -39 8 -75 10 -36 1
-69 7 -74 12 -6 5 -40 9 -76 9 -36 0 -70 4 -76 9 -5 5 -38 12 -74 14 -36 3
-81 8 -100 11 -19 2 -53 6 -75 7 -22 1 -44 4 -50 8 -5 3 -17 6 -25 7 -8 1 -51
7 -95 13 -209 26 -240 29 -243 20 -2 -5 -17 -9 -34 -9 -25 0 -28 -3 -23 -20 6
-18 4 -19 -20 -10 -36 14 -45 13 -45 -5 0 -10 -10 -15 -27 -15 -16 0 -41 -7
-57 -15 -15 -8 -41 -15 -57 -15 -16 0 -29 -4 -29 -8 0 -4 -20 -14 -45 -21 -52
-15 -51 -26 2 -35 77 -12 170 -26 243 -36 41 -5 107 -15 145 -20 39 -6 102
-15 140 -20 39 -5 99 -14 135 -19 36 -6 97 -16 135 -21 39 -6 97 -14 130 -20
33 -6 92 -15 130 -20 39 -6 97 -15 130 -20 33 -5 94 -13 135 -19 41 -6 91 -15
110 -21 36 -12 125 -26 237 -38 34 -4 65 -11 70 -16 13 -14 -146 2 -342 33
-281 46 -355 54 -429 47 -38 -4 -74 -10 -80 -15 -30 -24 -296 -39 -361 -21
-23 6 -94 12 -158 13 -109 2 -147 10 -94 20 19 4 18 4 -5 6 -16 0 -28 6 -28
12 0 7 -8 18 -17 26 -10 8 -13 12 -6 9 6 -4 15 -1 20 7 4 7 21 18 36 25 37 16
28 28 -30 36 -27 4 -70 11 -98 16 -69 12 -181 29 -237 36 -38 5 -48 11 -48 25
0 20 -15 25 -25 9 -3 -5 -16 -10 -29 -10 -12 0 -26 -4 -32 -8 -5 -5 -29 -14
-54 -21 -25 -7 -54 -17 -65 -21 -11 -4 -54 -18 -95 -31 -41 -13 -81 -30 -88
-39 -18 -21 -9 -130 12 -142 8 -5 13 -14 10 -21 -6 -16 39 -34 106 -42 30 -3
91 -12 135 -20 91 -16 256 -44 330 -56 28 -4 118 -19 200 -33 83 -14 224 -36
315 -50 91 -14 190 -30 220 -36 30 -5 105 -17 165 -26 61 -9 189 -29 287 -45
249 -41 291 -39 399 20 9 5 75 39 147 75 72 37 134 71 137 76 3 6 14 10 24 10
10 0 49 15 87 34 38 18 105 50 149 70 52 24 95 53 124 83 33 34 48 43 65 39
11 -4 41 -9 66 -12 52 -6 86 -20 117 -47 11 -10 29 -17 40 -14 16 4 15 6 -4
12 -13 4 -23 12 -23 18 0 10 69 6 210 -12 41 -6 113 -15 160 -22 47 -6 103
-13 125 -15 22 -2 51 -6 65 -9 13 -4 58 -11 100 -16 112 -15 217 -29 290 -41
36 -5 94 -11 130 -12 36 -2 74 -7 85 -13 11 -6 25 -12 30 -12 10 -1 13 -76 5
-121 -4 -21 -1 -24 15 -22 40 7 54 33 56 107 l3 70 -45 7 c-64 11 -217 30
-264 33 -22 1 -64 8 -94 14 -29 6 -57 8 -62 5 -5 -2 -28 0 -51 7 -55 14 -187
31 -260 32 -31 0 -55 4 -52 9 3 4 -10 9 -28 10 -18 1 -44 3 -58 3 -14 1 -35 5
-47 9 -26 8 -207 33 -403 55 -65 7 -103 17 -121 30 -25 19 -26 19 -75 -7 -27
-15 -50 -30 -52 -34 -2 -5 -14 -8 -27 -8 -30 0 -78 -18 -87 -33 -4 -6 -23 -10
-42 -9 -20 2 -36 -2 -36 -8 0 -5 -9 -10 -19 -10 -11 0 -23 -4 -26 -10 -3 -5
-15 -10 -26 -10 -10 0 -19 -4 -19 -10 0 -5 -9 -10 -20 -10 -11 0 -20 -4 -20
-10 0 -5 -6 -10 -13 -10 -8 0 -24 -11 -36 -24 -13 -13 -34 -27 -47 -30 -14 -4
-59 -22 -100 -42 -102 -48 -122 -55 -129 -45 -3 5 30 26 72 46 43 21 105 51
138 68 82 42 77 39 196 96 59 28 110 51 115 51 4 0 54 23 111 50 56 28 107 50
113 50 21 0 9 22 -20 34 -34 14 -30 26 10 26 32 0 42 20 60 120 6 36 15 81 20
100 5 19 12 51 15 70 3 19 10 56 15 83 6 26 14 68 20 95 9 46 20 96 41 190 6
26 13 65 16 87 3 22 9 44 14 50 5 5 9 25 9 45 0 20 4 40 9 45 5 6 11 28 14 50
4 22 11 65 17 95 6 30 13 73 17 95 3 22 9 44 14 50 5 5 9 28 9 51 0 24 5 46
10 49 6 3 10 25 10 49 0 23 4 46 9 51 5 6 11 28 14 50 4 22 11 65 17 95 6 30
15 78 20 105 5 28 14 73 20 100 6 28 14 67 17 88 3 20 10 37 15 37 6 0 8 -16
5 -37 -8 -50 -37 -203 -56 -293 -27 -129 -33 -158 -38 -195 -3 -22 -9 -44 -14
-50 -5 -5 -9 -27 -9 -50 0 -23 -4 -45 -9 -50 -5 -6 -11 -28 -15 -50 -13 -98
-18 -121 -26 -140 -5 -11 -11 -36 -14 -55 -6 -39 -19 -109 -36 -185 -6 -27
-15 -70 -20 -95 -15 -76 -27 -133 -40 -190 -7 -30 -16 -75 -21 -100 -4 -25
-13 -67 -19 -95 -23 -104 -23 -113 -1 -150 12 -20 21 -45 21 -57 0 -17 4 -19
25 -14 14 4 34 2 44 -4 13 -7 36 -6 73 1 29 6 73 15 98 20 25 4 57 11 72 14
14 4 34 2 45 -4 16 -9 15 -10 -9 -11 -15 0 -30 -4 -33 -10 -4 -6 11 -10 37
-10 31 0 39 -3 28 -10 -8 -5 -25 -10 -38 -10 -19 0 -21 -3 -13 -19 10 -19 14
-19 221 -41 149 -16 215 -25 228 -33 12 -8 93 29 100 46 2 4 10 7 17 7 7 0 39
14 71 31 33 18 69 37 81 43 13 6 23 14 23 19 0 4 9 7 20 7 11 0 20 5 20 10 0
6 9 10 20 10 11 0 20 5 20 10 0 6 10 10 21 10 18 0 19 3 9 15 -19 23 -67 44
-130 57 -55 11 -60 10 -126 -21 -38 -17 -78 -37 -89 -43 -82 -47 -131 -68
-157 -68 -25 0 -28 3 -23 20 7 22 -5 26 -33 11 -9 -5 -37 -14 -62 -21 -25 -6
-59 -16 -76 -21 -40 -12 -84 -12 -84 1 0 6 20 10 44 10 25 0 48 5 51 10 3 6
22 10 41 10 19 0 34 5 34 10 0 6 10 10 23 10 38 0 76 23 86 53 6 17 17 27 30
27 11 0 23 5 26 10 3 6 13 10 20 10 19 0 128 50 122 56 -2 3 -22 7 -43 9 -22
2 -40 4 -42 4 -10 2 29 31 42 31 8 0 18 5 21 10 3 6 13 10 21 10 15 0 128 48
184 79 42 22 61 31 69 31 5 0 38 17 72 38 35 21 78 44 94 52 17 8 32 17 35 21
3 3 22 13 43 23 38 17 42 31 9 31 -9 0 -16 6 -14 14 2 9 -3 11 -13 7 -9 -3
-21 -6 -26 -6 -5 0 -9 -4 -9 -10 0 -5 7 -10 15 -10 8 0 15 -4 15 -10 0 -5 -6
-10 -14 -10 -8 0 -20 -2 -28 -3 -7 -2 -10 -2 -5 0 9 6 9 23 -1 23 -4 0 -19
-11 -33 -24 -19 -17 -30 -21 -42 -15 -9 5 -14 16 -11 24 8 20 -52 20 -72 0
-15 -14 -44 -10 -44 6 0 5 8 12 18 16 9 3 37 15 61 25 24 11 57 18 72 16 23
-4 29 -1 29 14 0 21 18 23 73 7 46 -13 64 -4 42 21 -14 16 -14 19 -2 27 8 4
17 24 20 43 4 19 11 60 17 90 5 30 14 84 20 120 5 36 14 90 20 120 5 30 14 80
19 110 22 124 33 170 42 164 5 -3 9 14 9 38 0 24 5 49 11 55 10 10 16 39 39
183 22 139 23 151 10 175 -8 14 -10 36 -6 57 4 18 11 62 16 98 10 77 26 173
35 216 8 36 -3 48 -26 30 -10 -7 -21 -39 -28 -81 -7 -39 -21 -126 -32 -195
-12 -69 -25 -147 -29 -175 -5 -27 -16 -99 -25 -160 -9 -60 -23 -148 -31 -195
-50 -284 -71 -408 -104 -619 -6 -36 -11 -65 -13 -65 -1 -1 -12 -7 -24 -13 -13
-7 -32 -13 -42 -13 -11 0 -22 -4 -25 -8 -3 -4 -28 -14 -56 -22 -28 -8 -53 -18
-56 -22 -3 -4 -16 -8 -29 -8 -13 0 -27 -4 -30 -10 -3 -5 -15 -10 -26 -10 -10
0 -27 -4 -37 -9 -31 -16 -66 -29 -107 -42 -22 -6 -48 -15 -57 -20 -10 -5 -25
-9 -33 -9 -8 0 -24 -4 -35 -10 -11 -5 -29 -14 -40 -20 -11 -5 -27 -10 -35 -10
-8 0 -24 -4 -35 -10 -11 -5 -29 -14 -40 -20 -11 -6 -29 -10 -40 -10 -11 0 -20
-4 -20 -10 0 -5 11 -10 25 -10 14 0 25 5 25 10 0 6 11 10 25 10 14 0 25 -4 25
-10 0 -5 -9 -10 -20 -10 -11 0 -29 -5 -40 -12 -15 -9 -24 -9 -44 1 -13 8 -33
10 -43 7 -16 -7 -16 -9 7 -21 22 -12 23 -14 7 -21 -12 -4 -22 0 -31 11 -14 19
-47 17 -54 -2 -2 -9 6 -13 24 -13 22 0 25 -3 16 -12 -9 -9 -17 -8 -37 2 -19
10 -31 11 -47 3 -13 -6 -39 -17 -58 -24 -51 -18 -55 -25 -21 -40 17 -8 31 -17
31 -21 0 -5 11 -8 25 -8 14 0 25 -6 25 -13 0 -24 36 -47 72 -47 42 0 157 28
175 42 8 6 18 6 30 -1 17 -10 16 -11 -4 -17 -13 -3 -23 -9 -23 -13 0 -4 -21
-12 -47 -19 -27 -7 -64 -17 -83 -23 -19 -5 -89 -18 -155 -29 -138 -22 -195
-37 -195 -50 0 -6 -5 -10 -11 -10 -12 0 -10 28 11 165 5 39 15 106 21 150 6
44 15 105 19 135 5 30 13 89 19 130 6 41 16 95 22 120 6 25 15 106 20 180 7
131 16 211 39 355 33 211 87 643 99 793 8 98 14 111 52 116 75 9 119 19 119
26 0 12 -154 -1 -162 -14 -5 -8 -13 -8 -27 1 -21 13 -64 9 -113 -9 -31 -11
-118 -103 -136 -142 -7 -15 -12 -35 -12 -45 0 -10 -9 -29 -19 -43 -11 -13 -21
-40 -23 -59 l-3 -34 -65 1 c-106 2 -380 23 -421 33 -9 2 3 124 14 146 6 11 14
49 18 85 5 36 13 94 19 130 6 36 14 93 18 128 4 34 12 61 17 60 6 -2 13 24 16
57 4 33 9 71 12 85 9 47 29 205 38 305 12 144 27 305 39 420 6 55 14 152 20
215 5 63 14 157 20 208 5 50 15 134 20 185 6 50 15 142 20 202 13 154 29 316
40 410 5 44 14 132 19 195 17 194 28 277 65 455 17 86 30 151 47 243 5 31 14
71 20 88 5 17 9 47 9 67 0 20 4 38 8 41 5 3 14 38 21 78 7 40 17 84 21 98 4
14 13 52 19 85 7 33 16 79 21 103 6 23 10 47 10 52 0 6 -30 10 -69 10 l-68 0
-1 -65z"/>
<path d="M8240 17757 c0 -16 -42 -326 -50 -367 -11 -59 -26 -168 -40 -290 -9
-83 -21 -167 -45 -310 -9 -52 -20 -131 -26 -175 -25 -203 -30 -245 -39 -320
-5 -44 -14 -114 -19 -155 -6 -41 -15 -111 -21 -155 -10 -82 -23 -156 -41 -235
-6 -25 -14 -67 -19 -95 -5 -27 -14 -72 -20 -100 -15 -74 -52 -354 -80 -610
-24 -217 -31 -282 -39 -367 -14 -140 -29 -265 -42 -343 -6 -38 -15 -99 -20
-135 -4 -36 -11 -85 -15 -108 -6 -39 -4 -44 12 -40 23 4 31 38 33 133 1 47 4
65 11 55 6 -10 9 -3 9 25 0 65 22 218 36 252 7 17 11 42 8 54 -4 14 -2 20 5
16 7 -5 9 4 5 25 -3 18 -6 35 -8 37 -2 2 2 10 10 17 7 8 16 40 20 71 3 32 10
81 16 108 11 64 27 206 34 314 3 45 8 88 12 95 4 6 11 70 15 141 4 72 9 146
11 165 2 19 5 59 6 88 0 28 5 52 11 52 5 0 8 -26 5 -62 -13 -191 -28 -385 -36
-478 -17 -198 -22 -333 -10 -326 6 4 11 29 11 55 0 27 6 86 14 132 8 46 22
138 31 204 30 227 27 213 36 185 5 -15 7 13 4 70 -3 55 -1 101 5 110 7 11 10
-3 11 -50 1 -52 2 -59 9 -35 17 63 19 115 4 115 -10 0 -14 14 -14 50 0 28 5
50 10 50 6 0 10 -18 10 -40 0 -23 5 -40 11 -40 6 0 9 6 6 13 -5 14 3 62 32
192 11 50 21 108 21 131 0 22 4 44 9 50 5 5 12 32 15 59 16 148 51 357 97 578
6 28 13 77 16 107 3 30 9 59 14 65 5 5 9 35 9 66 0 32 5 61 11 65 6 3 9 17 6
31 -2 14 1 43 8 66 7 23 10 47 8 54 -2 6 1 14 6 18 6 3 11 25 11 48 0 66 11
119 24 114 7 -3 12 3 13 12 0 9 1 61 3 116 1 55 6 105 10 110 7 10 16 61 27
165 3 30 9 57 13 60 4 3 9 26 12 53 l6 47 -104 0 c-57 0 -104 -1 -104 -3z"/>
<path d="M9235 16298 c-7 -23 -16 -91 -22 -158 -2 -36 -9 -69 -14 -74 -5 -6
-9 -42 -9 -81 0 -39 -4 -75 -9 -81 -5 -5 -12 -40 -15 -79 -5 -75 -20 -209 -32
-287 -7 -51 -24 -66 -24 -22 0 46 -17 16 -24 -43 -26 -209 -32 -290 -25 -303
6 -11 8 -8 9 12 0 15 5 30 11 34 9 5 10 -9 5 -52 -4 -32 -9 -85 -13 -117 -3
-31 -9 -60 -14 -63 -5 -3 -9 -34 -9 -70 0 -74 -19 -89 -21 -16 -2 45 -2 45 -8
12 -4 -19 -3 -51 1 -70 11 -50 10 -160 -1 -160 -6 0 -11 15 -13 33 -2 17 -3
-26 -1 -98 2 -104 5 -131 17 -133 10 -2 13 3 10 15 -4 14 6 26 32 43 65 43 88
111 69 201 -5 22 -3 29 9 29 17 0 21 24 18 110 -2 30 1 40 7 31 6 -9 11 2 16
37 4 28 4 55 1 60 -3 5 4 51 14 103 11 52 20 122 20 156 0 34 4 63 10 65 5 2
14 39 19 83 30 247 49 383 82 600 5 33 12 81 15 108 4 26 12 48 18 48 6 1 23
2 38 3 28 2 51 15 30 17 -21 3 -27 4 -40 13 -7 4 -11 14 -8 21 3 9 -2 11 -16
7 -13 -3 -24 1 -30 12 -5 9 -17 16 -27 16 -11 0 -22 7 -25 16 -3 8 -10 12 -16
9 -5 -3 -10 1 -10 9 0 19 -19 21 -25 4z"/>
<path d="M2984 11047 c6 -26 19 -236 36 -572 5 -99 12 -210 16 -246 l7 -67 61
-12 c84 -16 86 -17 87 -37 0 -10 2 -34 4 -53 1 -19 6 -154 10 -300 6 -253 11
-335 35 -585 6 -60 8 -121 4 -135 -4 -14 -6 -29 -5 -35 6 -23 10 -301 5 -317
-3 -10 -10 -16 -15 -13 -5 4 -9 1 -9 -4 0 -6 5 -11 11 -11 6 0 7 -5 2 -12 -12
-20 -3 -242 10 -250 16 -10 11 -178 -5 -194 -5 -4 -8 -47 -8 -95 0 -65 -4 -92
-15 -103 -8 -8 -15 -17 -15 -20 0 -3 -9 -15 -20 -26 -11 -11 -23 -34 -26 -50
-7 -34 -44 -72 -51 -52 -16 44 -58 -25 -57 -91 1 -21 -1 -35 -4 -32 -6 6 -22
-19 -53 -85 -12 -25 -26 -46 -30 -48 -5 -2 -9 -15 -9 -28 0 -13 -10 -34 -22
-46 -13 -13 -23 -25 -23 -28 0 -3 -12 -21 -28 -41 -15 -20 -27 -48 -27 -63 0
-15 -6 -34 -14 -41 -8 -8 -19 -47 -26 -87 -6 -40 -16 -83 -22 -95 -6 -12 -8
-29 -5 -37 5 -11 0 -16 -13 -16 -20 0 -38 -40 -25 -59 11 -19 -15 -51 -40 -51
-16 0 -25 -6 -25 -15 0 -8 4 -15 8 -15 5 0 17 -7 28 -16 10 -8 14 -13 9 -11
-6 3 -22 -3 -35 -14 -20 -15 -22 -19 -7 -19 10 0 17 -8 17 -20 0 -12 -7 -20
-16 -20 -14 0 -16 -8 -10 -52 3 -29 9 -66 12 -82 5 -21 4 -27 -5 -22 -7 5 -13
-4 -17 -23 -4 -17 -9 -31 -13 -31 -4 0 -5 -32 -4 -71 2 -40 -1 -77 -7 -84 -8
-10 -16 -63 -23 -167 -1 -14 -5 -30 -9 -34 -13 -12 -9 -64 5 -64 6 0 -1 -10
-17 -22 -15 -12 -44 -39 -64 -60 -19 -21 -42 -38 -51 -38 -12 0 -12 3 -3 12 7
7 12 20 12 29 0 32 -22 32 -52 0 -16 -17 -34 -28 -40 -25 -8 5 -9 -19 -5 -84
l7 -90 -68 -59 c-37 -32 -92 -77 -122 -100 -30 -23 -71 -57 -91 -75 -98 -89
-205 -175 -244 -196 -11 -5 -59 -41 -106 -79 -47 -37 -101 -79 -119 -93 -18
-14 -80 -62 -138 -108 -58 -46 -132 -102 -166 -124 -34 -23 -110 -80 -171
-128 -60 -47 -122 -95 -136 -105 -15 -11 -108 -84 -207 -162 -99 -78 -198
-153 -219 -166 -21 -14 -73 -56 -116 -93 -71 -62 -169 -141 -343 -274 -33 -25
-64 -49 -70 -55 -6 -5 -27 -21 -47 -35 l-37 -25 0 -762 c0 -593 3 -763 13
-766 9 -4 9 -6 -1 -6 -10 -1 -12 -45 -12 -201 1 -198 2 -200 23 -200 l22 -1
-20 -17 c-17 -14 -21 -31 -23 -96 -2 -56 1 -82 10 -88 10 -6 10 -10 1 -16 -8
-5 -12 -36 -12 -87 0 -50 5 -83 12 -88 9 -7 9 -10 0 -14 -19 -7 -16 -23 5 -23
9 0 25 -7 35 -15 18 -13 18 -14 -2 -25 -12 -6 -19 -15 -16 -21 11 -17 40 -9
50 14 7 16 18 22 40 22 17 0 33 4 36 9 4 5 27 10 51 12 24 2 55 8 68 13 22 9
23 10 5 12 -59 5 -124 5 -121 0 2 -3 -7 -7 -20 -7 -15 -1 -25 5 -29 17 -9 26
1 38 25 32 38 -10 19 12 -31 36 -57 26 -69 44 -45 70 9 10 16 23 16 29 0 30
40 -8 44 -40 3 -31 23 -65 32 -56 4 4 1 14 -6 23 -7 9 -10 19 -6 22 4 4 11 1
15 -6 7 -10 13 -11 30 -1 27 14 23 32 -8 40 -12 3 -22 8 -22 13 3 27 -1 35
-19 40 -35 9 -24 33 16 34 20 1 40 7 45 14 4 7 11 10 16 6 4 -4 2 -17 -5 -27
-15 -25 -15 -30 2 -30 17 0 28 24 20 45 -4 8 -1 15 5 15 6 0 11 7 11 15 0 9
-9 15 -21 15 -16 0 -20 5 -16 19 3 15 -1 21 -16 23 -27 4 -33 24 -8 31 14 3
18 11 14 26 -5 19 -2 20 26 15 21 -5 31 -3 31 6 0 7 -7 10 -15 6 -8 -3 -14 -1
-12 5 1 9 -19 27 -41 35 -1 1 2 13 7 27 13 33 40 61 77 78 37 18 35 29 -6 57
l-33 22 71 0 c39 0 82 -4 96 -10 14 -5 28 -5 31 0 3 4 0 10 -6 12 -7 2 -2 14
14 30 18 18 33 24 51 21 31 -6 36 16 6 24 -20 5 -28 38 -11 45 5 2 4 11 -4 21
-11 16 -14 16 -28 2 -17 -16 -37 -20 -37 -7 0 5 12 14 27 21 18 8 23 15 16 22
-8 8 -17 8 -31 0 -21 -11 -52 -5 -52 10 0 5 9 9 20 9 10 0 24 9 30 20 6 11 20
20 30 20 18 0 19 -3 8 -21 -10 -17 -10 -23 0 -26 6 -3 12 -11 12 -19 0 -9 10
-14 28 -13 15 0 21 3 15 6 -29 11 -10 21 37 17 27 -2 52 1 55 6 8 12 35 13 35
1 0 -5 -10 -11 -22 -14 -12 -4 -19 -9 -16 -13 10 -9 68 6 68 18 0 16 32 37 58
38 13 0 34 12 47 26 14 15 25 21 25 15 0 -7 5 -9 10 -6 7 4 6 13 -1 26 -10 19
-12 19 -28 5 -23 -21 -45 -21 -37 0 3 9 6 20 6 24 0 5 12 16 28 24 l27 15 -25
9 c-19 7 -29 6 -42 -6 -31 -26 -19 2 12 31 17 16 30 35 30 43 0 8 7 14 15 14
8 0 15 4 15 10 0 5 10 -1 23 -13 19 -18 23 -30 20 -62 -3 -24 1 -47 10 -59 13
-18 15 -17 52 18 20 20 34 40 30 44 -4 4 -10 1 -12 -5 -5 -15 -63 -18 -63 -3
0 5 11 12 25 16 21 5 23 9 14 26 -16 29 2 40 35 23 32 -17 46 -19 46 -6 0 5
-9 11 -20 14 -11 3 -20 12 -20 21 0 9 -9 25 -20 36 -12 12 -18 26 -13 33 4 7
6 19 5 27 -1 9 10 21 25 27 16 7 35 18 44 24 9 7 27 9 42 6 20 -6 24 -12 20
-28 -3 -12 0 -25 7 -29 9 -6 7 -10 -9 -15 -18 -5 -20 -9 -10 -21 10 -12 8 -17
-6 -28 -26 -19 -13 -45 19 -39 14 3 26 9 26 14 0 5 11 14 25 19 14 5 30 21 37
35 14 31 22 32 36 0 14 -29 42 -33 42 -6 0 11 5 21 12 23 7 3 5 11 -7 26 -20
23 -44 22 -94 -4 -18 -10 -28 -10 -38 -2 -11 9 -10 15 8 34 12 13 19 30 16 38
-4 9 2 21 12 28 28 20 34 72 10 94 -18 16 -18 19 -3 35 14 15 30 17 116 14
108 -5 138 -18 138 -59 0 -12 5 -28 10 -36 8 -12 10 -11 10 7 0 26 35 53 70
53 14 0 42 -9 63 -20 24 -13 46 -18 62 -14 29 7 47 34 36 53 -6 9 -10 7 -14
-9 -4 -17 -12 -21 -33 -18 -32 4 -46 28 -16 28 11 0 22 9 25 20 4 16 2 18 -13
10 -27 -14 -57 -12 -63 4 -9 23 -47 8 -44 -18 1 -16 -4 -22 -23 -24 -14 -1
-31 2 -39 7 -11 7 -8 15 19 39 21 20 31 36 27 47 -5 11 1 17 21 21 25 5 27 9
24 40 -4 32 -2 34 26 34 23 0 31 -5 36 -25 4 -15 13 -25 25 -25 15 0 18 7 16
38 -2 20 -6 44 -9 53 -7 16 15 25 74 31 8 1 25 7 39 14 16 9 30 10 42 3 25
-13 61 -11 57 3 -4 11 -8 14 -60 38 -31 15 -60 7 -52 -13 4 -10 -5 -17 -30
-21 -20 -4 -36 -12 -36 -19 0 -8 -3 -9 -8 -1 -13 19 -39 23 -61 8 -12 -9 -19
-19 -16 -24 3 -5 -7 -12 -22 -16 -48 -10 -53 -13 -47 -27 3 -9 -3 -17 -18 -21
-35 -9 -60 -7 -53 4 9 15 -12 12 -51 -6 -36 -17 -47 -40 -14 -30 11 3 29 9 40
12 12 4 20 2 20 -5 0 -6 -5 -11 -11 -11 -5 0 -7 -5 -3 -11 3 -6 15 -9 25 -6
23 6 25 -6 3 -27 -20 -20 -16 -21 -60 9 -20 14 -41 25 -45 25 -17 0 -9 -28 14
-44 19 -14 19 -15 2 -9 -11 4 -23 11 -26 16 -12 18 -29 -4 -23 -29 5 -18 2
-24 -10 -24 -9 0 -16 3 -16 8 0 11 -64 52 -82 52 -9 0 -19 -8 -21 -17 -4 -17
-5 -17 -6 0 -1 10 -9 17 -21 17 -13 0 -18 -5 -14 -15 7 -17 -19 -31 -36 -20
-8 5 -4 12 9 22 31 21 26 36 -8 28 -39 -8 -47 9 -16 33 30 24 32 42 5 42 -11
0 -20 -4 -20 -10 0 -16 -22 -12 -36 8 -18 23 -17 29 6 35 24 6 26 20 5 41 -21
21 -19 31 10 50 20 13 25 14 25 2 0 -7 10 -20 22 -28 19 -13 21 -18 10 -31
-16 -19 -8 -37 16 -37 18 0 45 -47 36 -62 -3 -5 -14 -6 -25 -3 -20 7 -24 -2
-11 -22 5 -8 34 -12 79 -11 l71 0 -3 39 c-3 33 -1 39 15 39 10 0 20 -6 23 -12
2 -7 7 -10 11 -7 4 4 -2 21 -12 38 -17 27 -21 30 -32 16 -14 -16 -40 -20 -40
-6 0 5 7 11 15 15 13 5 13 8 -2 25 -21 25 -35 17 -31 -17 2 -19 -2 -28 -15
-30 -10 -2 -17 3 -17 12 0 9 6 16 13 16 6 0 4 5 -6 11 -14 9 -22 7 -33 -8 -12
-16 -15 -16 -24 -3 -13 19 -13 30 0 31 6 1 15 2 21 3 12 1 39 35 39 48 0 4
-11 8 -25 8 -14 0 -25 -4 -25 -10 0 -5 -9 -10 -20 -10 -11 0 -20 7 -20 15 0 8
7 15 15 15 8 0 15 7 15 15 0 8 5 15 10 15 6 0 10 -7 10 -15 0 -22 17 -18 23 4
3 14 11 18 26 14 23 -6 28 -19 9 -26 -10 -4 -10 -7 0 -18 11 -12 15 -11 23 4
8 14 18 17 40 12 22 -5 29 -3 27 7 -2 8 5 12 17 11 46 -5 90 28 68 51 -5 4 -8
13 -8 19 0 5 -6 12 -12 14 -8 3 -13 -5 -13 -21 0 -14 -5 -26 -11 -26 -5 0 -7
-5 -4 -10 9 -14 -7 -12 -27 4 -22 16 -23 32 -3 40 17 6 20 42 5 51 -6 4 -8 15
-5 26 5 15 1 19 -19 19 -19 0 -26 5 -26 20 0 23 12 25 39 8 15 -9 32 -9 78 2
76 18 93 27 93 51 0 16 -4 19 -21 14 -19 -6 -21 -4 -15 18 5 20 2 27 -14 32
-11 3 -20 10 -20 15 0 5 -3 16 -6 24 -5 14 -2 15 21 6 26 -10 27 -9 23 15 -7
32 19 57 36 34 6 -8 19 -18 29 -22 11 -4 15 -12 11 -18 -4 -7 -3 -9 3 -6 6 4
16 0 23 -8 17 -21 25 -19 55 10 30 31 30 31 4 38 -15 4 -20 12 -17 29 2 13 9
22 16 20 6 -1 12 5 12 13 0 8 -4 15 -10 15 -5 0 -10 6 -10 14 0 14 37 15 91 1
21 -5 29 -1 43 20 20 31 13 48 -9 19 -12 -16 -17 -17 -32 -6 -10 7 -26 15 -35
18 -18 6 -24 25 -12 37 4 4 20 -1 35 -10 28 -17 30 -17 51 5 27 26 20 36 -16
23 -31 -12 -33 -7 -6 21 17 19 23 20 44 9 13 -8 30 -10 37 -6 9 6 11 3 6 -8
-9 -23 18 -29 37 -8 9 10 20 38 24 62 7 37 11 44 31 44 24 0 31 12 34 64 2 26
27 42 27 17 0 -29 23 -66 42 -66 10 0 18 7 18 15 0 8 4 15 10 15 12 0 50 40
50 53 0 5 -18 7 -40 4 -41 -5 -55 7 -20 18 26 8 26 41 0 48 -28 7 -26 37 3 37
13 0 28 -5 34 -11 16 -16 53 11 53 39 0 25 9 30 55 35 53 6 65 16 58 48 l-6
29 36 -15 c30 -12 37 -12 46 -1 7 8 9 25 5 40 -5 22 -3 26 15 26 23 0 24 -2
41 -66 9 -35 15 -42 39 -46 22 -3 31 0 34 14 3 10 1 21 -4 24 -5 3 -9 0 -9 -5
0 -6 -4 -11 -10 -11 -16 0 -23 49 -10 65 10 13 8 19 -16 38 -15 12 -37 24 -48
27 -12 4 -16 9 -10 12 6 4 22 1 35 -6 26 -13 84 -15 96 -3 3 4 1 7 -6 7 -8 0
-11 7 -7 15 6 18 -1 21 -63 28 -37 5 -47 2 -66 -19 -30 -33 -37 -30 -33 14 l3
37 77 3 77 3 -2 39 c-1 22 -5 40 -9 40 -4 0 -8 -4 -8 -10 0 -5 -6 -7 -13 -4
-7 2 -14 21 -15 41 -2 28 0 34 13 30 11 -5 15 1 15 23 0 17 4 30 8 30 5 0 7
-13 4 -29 -6 -42 23 -49 43 -9 8 17 15 39 15 50 0 10 6 18 14 18 8 0 22 7 30
16 9 8 24 14 33 12 22 -4 56 28 59 56 1 12 3 24 3 29 1 4 8 7 16 7 9 0 15 6
14 13 -5 37 2 56 17 50 9 -3 19 -1 23 5 4 6 23 8 48 5 37 -5 41 -8 33 -24 -16
-29 19 -42 67 -25 l38 14 -27 12 c-22 10 -25 16 -18 30 14 25 66 42 79 26 6
-7 8 -16 4 -19 -3 -4 3 -7 15 -7 11 0 24 -5 27 -10 4 -6 11 -7 17 -4 6 4 6 -1
-1 -14 -8 -16 -7 -21 5 -26 27 -10 44 -7 44 9 0 8 9 15 19 15 11 0 26 3 34 6
20 7 32 -27 12 -38 -30 -17 -15 -28 31 -21 36 5 45 3 43 -8 -5 -30 13 -49 46
-49 24 0 34 -5 38 -20 3 -10 0 -21 -7 -24 -6 -2 4 -5 21 -5 28 -1 36 -7 51
-38 9 -21 24 -38 32 -38 22 0 19 -93 -4 -110 -9 -7 -15 -19 -14 -26 5 -23 -65
-19 -77 4 -12 25 -42 44 -51 34 -4 -4 0 -15 10 -25 15 -18 15 -20 -4 -45 -24
-30 -25 -41 -4 -61 13 -14 13 -16 1 -16 -14 0 -27 -20 -27 -41 0 -5 14 -9 30
-9 25 0 30 -4 30 -24 0 -13 6 -29 14 -35 10 -9 17 -6 29 13 14 20 14 26 3 35
-28 23 -30 128 -2 118 7 -3 20 1 31 9 10 8 27 14 37 14 10 0 18 5 18 10 0 11
30 13 54 4 9 -3 16 -10 16 -16 0 -5 -4 -6 -10 -3 -5 3 -10 -4 -10 -16 0 -17 5
-20 25 -17 27 6 65 -23 65 -47 0 -19 -38 -57 -50 -50 -5 3 -12 0 -16 -6 -7
-12 12 -29 32 -29 7 0 14 9 17 20 4 17 10 20 34 14 37 -9 43 -13 43 -28 0 -9
15 -14 48 -14 125 -3 115 1 143 -55 28 -56 59 -75 59 -35 l1 23 19 -23 19 -23
11 21 c6 11 16 18 22 14 7 -4 6 -9 -2 -14 -7 -4 -10 -14 -8 -21 3 -8 -2 -27
-10 -44 l-15 -30 -9 33 c-9 33 -9 33 -34 17 -23 -15 -26 -15 -42 1 -16 16 -17
15 -26 -15 -8 -29 -13 -32 -36 -28 -24 5 -60 -7 -50 -17 10 -9 66 -8 90 1 15
6 37 7 58 1 18 -5 41 -6 51 -3 11 3 25 0 33 -8 14 -14 28 -13 66 6 19 9 25 8
32 -3 7 -12 3 -17 -18 -21 -23 -6 -24 -7 -4 -8 24 -1 31 -31 7 -31 -8 0 -24
-6 -35 -12 -15 -10 -22 -10 -32 0 -9 9 -7 12 10 12 12 0 22 5 22 10 0 22 -30
8 -59 -29 -35 -44 -31 -54 16 -45 29 5 32 4 26 -11 -5 -15 -2 -17 19 -12 16 4
40 -1 66 -13 53 -26 54 -26 75 11 21 38 22 50 2 43 -8 -4 -15 -1 -15 4 0 6 8
12 18 15 14 3 12 6 -10 17 -16 7 -28 18 -28 23 0 16 82 -2 128 -29 24 -14 46
-23 49 -20 4 3 1 6 -5 6 -7 0 -12 9 -12 20 0 17 7 20 39 20 42 0 63 16 40 31
-8 5 -33 9 -56 9 -47 0 -55 7 -46 38 4 16 13 22 33 22 16 0 31 -6 33 -12 4
-10 6 -10 6 -1 2 22 99 -35 103 -60 2 -17 10 -22 31 -22 15 1 27 -3 27 -7 0
-4 7 -8 16 -8 10 0 14 6 10 15 -6 18 -9 18 53 4 45 -9 49 -12 42 -32 -5 -14
-18 -22 -36 -24 -33 -2 -42 -10 -28 -24 12 -12 88 24 97 47 3 8 10 12 16 9 16
-10 12 -43 -7 -54 -17 -10 -16 -11 4 -17 12 -3 24 -13 27 -21 3 -8 10 -11 16
-8 15 9 12 25 -5 25 -22 0 -17 12 16 39 29 22 31 23 44 5 11 -16 16 -17 37 -6
21 12 29 10 66 -14 25 -16 41 -33 38 -41 -3 -7 1 -13 8 -13 7 0 19 -6 25 -14
12 -15 61 -19 61 -5 0 5 7 9 15 9 8 0 15 -4 15 -9 0 -17 -30 -33 -55 -29 -20
4 -25 1 -25 -14 0 -15 -5 -17 -25 -12 -29 7 -36 8 -87 6 -27 -2 -38 -6 -38
-18 0 -9 9 -18 19 -21 11 -3 21 -15 23 -27 2 -17 9 -20 31 -18 18 2 27 -1 27
-11 0 -20 -29 -30 -46 -16 -14 12 -54 3 -54 -12 0 -5 5 -9 10 -9 6 0 10 -6 10
-13 0 -8 -14 -14 -35 -15 -26 -2 -35 1 -35 13 0 10 -10 15 -33 15 -46 0 -51
-9 -22 -36 19 -18 33 -22 55 -17 23 4 30 2 30 -10 0 -8 -7 -18 -16 -21 -18 -7
-10 -46 12 -59 8 -4 14 -12 14 -17 0 -5 11 -25 25 -45 26 -40 23 -69 -14 -110
-19 -21 -24 -55 -9 -55 5 0 18 4 28 10 15 8 19 5 25 -18 9 -36 23 -52 41 -45
21 8 18 -37 -3 -53 -27 -20 -30 -18 -37 26 -5 32 -11 41 -32 46 -26 7 -49 -10
-38 -28 3 -4 -8 -8 -24 -8 -17 0 -32 6 -36 15 -3 8 -17 15 -31 15 -23 0 -30
-10 -26 -34 1 -5 -6 -6 -15 -2 -9 3 -23 1 -31 -5 -7 -7 -16 -9 -19 -6 -8 7
-34 -17 -34 -31 0 -9 -30 -26 -35 -20 -1 2 -11 23 -22 48 -25 53 -11 65 33 31
33 -26 35 -26 70 4 16 14 35 25 42 25 6 0 12 5 12 10 0 6 9 10 21 10 12 0 34
14 49 30 15 17 33 30 39 30 6 0 11 7 11 15 0 17 -16 20 -25 5 -4 -6 -21 -8
-39 -5 -33 7 -42 -2 -60 -58 -9 -28 -31 -15 -34 21 -2 24 1 32 12 32 18 0 20
8 7 29 -15 24 -41 -5 -41 -45 0 -44 -35 -69 -82 -59 -85 17 -118 18 -118 1 0
-9 11 -21 25 -26 30 -11 31 -24 5 -50 -11 -11 -20 -24 -20 -29 0 -5 -9 -11
-20 -14 -25 -6 -26 5 -1 27 22 20 18 64 -4 46 -7 -6 -11 -20 -8 -31 4 -13 1
-19 -8 -17 -11 2 -13 -8 -11 -42 2 -33 0 -41 -7 -30 -9 13 -12 12 -25 -5 -18
-23 -20 -45 -6 -45 6 0 10 5 10 10 0 7 6 7 18 2 19 -10 42 -5 42 9 0 18 41 49
66 49 14 0 23 4 19 10 -3 6 -15 10 -26 10 -10 0 -19 5 -19 10 0 6 11 10 25 10
14 0 25 5 25 10 0 18 20 11 20 -7 1 -25 24 -53 44 -53 9 0 16 -8 16 -18 0 -14
-8 -18 -37 -19 -21 -1 -40 3 -43 8 -9 14 -55 16 -53 2 2 -6 -6 -15 -17 -18
-11 -4 -20 -11 -20 -16 0 -13 37 -11 46 2 4 8 9 7 15 -2 13 -21 11 -27 -11
-34 -34 -11 -13 -23 29 -18 33 5 41 2 51 -17 11 -20 13 -20 29 -6 10 9 21 16
24 16 16 0 46 -41 41 -55 -5 -11 1 -15 20 -15 17 0 26 5 24 13 -4 18 3 20 32
8 25 -10 25 -10 2 -10 -12 -1 -25 -8 -28 -16 -4 -10 -20 -15 -45 -15 -33 0
-40 4 -45 25 -7 27 -32 33 -53 13 -10 -11 -16 -8 -33 14 -23 33 -49 38 -41 8
4 -14 0 -20 -11 -20 -9 0 -16 -4 -16 -10 0 -5 -13 -10 -30 -10 -33 0 -39 14
-12 29 9 5 16 13 15 18 -1 4 7 8 18 7 20 -1 20 0 1 19 -16 15 -24 17 -40 8
-17 -9 -23 -6 -37 15 -9 14 -20 22 -25 18 -11 -13 -30 -74 -22 -73 4 1 17 1
30 0 28 -1 19 -21 -9 -21 -24 0 -24 -9 2 -39 15 -18 23 -21 31 -13 17 17 75
15 81 -3 8 -19 -11 -31 -26 -16 -17 17 -27 13 -27 -9 0 -11 -4 -20 -10 -20 -5
0 -10 5 -10 10 0 6 -7 10 -15 10 -19 0 -19 -14 -1 -29 7 -6 16 -25 20 -41 7
-36 46 -44 46 -9 0 11 -4 18 -9 14 -12 -7 -24 12 -16 25 5 8 11 8 19 1 7 -6
28 -8 47 -5 34 6 69 -13 69 -36 0 -10 -40 -7 -58 4 -18 11 -15 -30 4 -48 21
-21 28 -20 60 9 15 14 28 25 30 25 2 0 15 -10 29 -22 25 -22 24 -48 -1 -27
-24 20 -41 -5 -24 -36 16 -30 30 -32 30 -5 0 18 3 19 21 9 24 -12 56 -1 97 35
20 18 24 18 32 6 5 -8 10 -25 10 -37 0 -13 5 -23 10 -23 6 0 10 14 10 30 0 17
-4 30 -10 30 -34 0 11 113 54 135 26 14 27 13 21 -5 -7 -23 2 -25 28 -6 15 12
15 15 2 26 -19 16 -19 39 0 46 8 4 12 10 9 15 -3 5 -14 4 -26 -2 -17 -9 -24
-8 -33 5 -8 10 -19 14 -30 10 -13 -5 -16 -2 -13 17 3 21 8 24 48 24 25 0 50 4
57 8 6 4 18 1 25 -7 12 -11 17 -11 32 -1 17 13 17 14 -1 24 -17 9 -17 11 2 25
17 13 17 15 4 16 -9 0 -20 -7 -23 -16 -5 -13 -9 -14 -21 -4 -17 14 -9 40 14
40 10 0 21 3 25 7 4 4 15 8 24 8 10 0 19 13 25 37 9 38 30 50 41 23 3 -8 -1
-35 -9 -61 -7 -25 -11 -52 -8 -60 3 -9 -2 -14 -16 -14 -12 0 -21 -4 -21 -10 0
-5 6 -10 14 -10 13 0 30 17 64 66 9 14 14 15 18 7 6 -15 34 -18 34 -4 0 13
-26 32 -33 24 -4 -3 -7 -1 -7 5 0 7 8 12 18 12 9 0 28 3 42 7 22 6 24 5 11
-10 -17 -22 -7 -47 19 -47 15 0 20 7 20 25 0 14 5 25 10 25 17 0 12 -90 -5
-96 -18 -7 -20 -31 -2 -37 9 -3 7 -10 -7 -25 -10 -12 -22 -19 -27 -17 -13 8
-22 -16 -10 -28 7 -7 12 -6 17 6 3 9 12 17 20 17 8 0 14 5 14 10 0 6 8 10 17
10 13 0 14 -3 5 -12 -20 -20 -15 -76 8 -83 17 -5 18 -10 9 -27 -8 -14 -7 -28
1 -49 17 -41 30 -36 30 11 0 41 7 49 27 29 9 -9 9 -1 1 30 -10 40 -21 51 -31
31 -3 -6 -4 -5 -3 2 2 7 -5 31 -15 53 -21 45 -24 75 -9 75 6 0 10 -12 10 -26
0 -23 1 -24 21 -11 11 8 29 13 40 10 27 -8 35 23 15 58 -18 31 -6 40 16 12 7
-10 21 -24 31 -32 16 -13 20 -13 27 -1 7 11 14 12 35 2 14 -7 23 -16 20 -22
-7 -12 12 -50 25 -50 6 0 10 10 10 23 0 12 9 28 21 35 18 11 24 11 40 -4 10
-9 19 -24 19 -32 0 -8 8 -20 17 -27 14 -11 15 -15 4 -29 -8 -9 -10 -26 -6 -46
4 -19 3 -30 -4 -30 -6 0 -11 -5 -11 -11 0 -8 14 -10 40 -6 34 4 40 2 47 -16 4
-12 8 -32 8 -44 0 -37 20 -31 23 7 2 23 -2 38 -13 46 -15 11 -14 13 1 28 13
13 14 20 4 31 -10 12 -9 16 4 21 20 8 21 24 1 24 -8 0 -15 5 -15 11 0 8 15 9
48 4 54 -8 92 -29 92 -50 0 -8 6 -15 14 -15 8 0 16 -5 18 -11 4 -12 38 -1 38
12 0 5 -7 9 -15 9 -33 0 -12 18 27 23 32 4 45 2 51 -9 9 -16 37 -19 37 -4 0 6
-4 10 -10 10 -18 0 -10 22 9 27 12 3 21 15 23 31 4 34 22 38 36 7 9 -20 15
-23 34 -16 13 4 28 18 34 30 17 32 47 51 65 40 25 -16 40 -10 50 21 8 22 15
28 26 22 21 -12 63 -2 63 14 0 8 -10 14 -21 14 -17 0 -19 3 -10 14 7 9 27 12
56 10 50 -3 70 13 61 49 -3 13 -1 36 3 52 10 32 10 32 17 -4 6 -34 14 -39 25
-18 8 14 14 15 30 6 16 -8 25 -7 37 4 25 23 27 23 45 8 15 -11 17 -11 17 1 0
26 20 38 42 25 16 -10 21 -9 29 6 6 9 20 17 32 17 12 0 28 4 34 8 12 8 26 115
37 287 3 39 8 109 12 158 8 98 1 114 -59 137 -98 37 -100 39 -93 79 3 20 11
106 16 191 5 85 13 178 17 205 3 28 7 106 8 175 1 69 9 251 18 405 9 154 18
352 21 440 3 88 8 201 11 250 3 50 7 162 10 250 3 88 10 230 15 315 6 85 15
290 21 455 11 339 24 682 38 1020 6 127 13 311 16 410 3 99 10 244 15 322 6
78 10 186 11 240 0 54 6 150 13 213 13 131 -3 119 131 102 39 -5 72 -7 75 -5
3 3 8 77 12 166 13 318 36 633 48 662 5 11 11 64 13 117 l5 97 -36 6 c-20 3
-59 10 -85 15 -27 6 -64 10 -82 10 -19 0 -36 4 -39 9 -3 5 -29 11 -58 15 -51
5 -112 15 -228 36 -30 5 -84 15 -120 21 -36 6 -87 14 -115 19 -27 5 -72 12
-100 15 -27 4 -59 10 -70 15 -11 5 -40 11 -65 14 -42 5 -77 11 -210 36 -30 5
-82 14 -115 20 -33 5 -80 14 -105 19 -126 26 -169 34 -215 41 -60 10 -152 26
-220 40 -27 6 -75 14 -105 20 -30 5 -80 14 -110 20 -30 5 -80 14 -110 19 -161
27 -197 33 -215 41 -42 17 -104 31 -205 46 -58 9 -130 20 -160 25 -120 18
-274 47 -430 79 -87 18 -183 36 -310 59 -30 5 -80 15 -110 21 -54 12 -100 21
-210 41 -30 5 -84 12 -119 16 l-64 6 7 -26z m381 -228 c4 -6 11 -52 16 -102 9
-87 14 -132 17 -150 4 -18 22 6 23 31 2 24 2 24 6 5 4 -22 33 -33 33 -13 0 6
-4 10 -9 10 -13 0 -23 38 -25 91 -1 32 2 46 12 46 7 0 11 -6 8 -13 -3 -8 -1
-16 4 -19 5 -3 7 -20 3 -37 -5 -28 -4 -30 16 -23 18 5 21 2 21 -19 0 -14 5
-26 11 -26 7 0 9 13 5 38 -12 71 -11 115 1 119 7 3 27 -9 44 -26 17 -17 35
-31 41 -31 6 0 8 -7 4 -15 -8 -21 3 -45 20 -45 8 0 14 4 14 9 0 5 11 11 25 13
21 5 25 1 26 -21 0 -14 4 -35 9 -46 7 -18 9 -16 15 13 14 62 32 37 40 -54 4
-47 9 -84 11 -81 6 5 9 229 3 247 -3 12 6 15 51 13 30 0 78 -6 105 -11 28 -5
91 -17 140 -26 50 -9 122 -24 160 -32 39 -9 86 -18 105 -21 19 -2 44 -8 55
-13 11 -5 36 -11 55 -15 19 -3 55 -10 80 -15 25 -5 83 -16 130 -25 47 -10 94
-21 105 -26 11 -4 38 -10 60 -13 22 -3 63 -9 90 -15 28 -5 77 -14 110 -20 33
-5 87 -15 120 -20 33 -6 63 -11 66 -11 4 0 7 -17 7 -37 0 -57 1 -58 15 -38 19
25 29 4 14 -28 -7 -16 -23 -29 -39 -33 -25 -5 -28 -10 -28 -44 0 -21 -4 -42
-10 -45 -5 -3 -10 2 -10 11 0 16 -2 15 -21 -2 -11 -10 -16 -20 -10 -22 6 -2
11 -12 11 -22 0 -12 -10 -19 -37 -24 -66 -10 -96 -8 -89 9 5 15 -28 45 -52 45
-7 0 -20 -7 -28 -15 -9 -8 -20 -15 -25 -15 -5 0 -9 7 -9 15 0 20 -6 19 -28 -3
-10 -10 -16 -24 -14 -30 2 -7 -6 -12 -17 -12 -12 0 -21 5 -21 12 0 6 -9 3 -21
-8 -11 -10 -16 -20 -10 -22 13 -4 -9 -42 -26 -42 -6 0 -14 -6 -17 -12 -3 -7
-3 -2 0 12 4 22 3 23 -8 9 -7 -9 -26 -23 -43 -32 -30 -16 -30 -16 -5 -17 l25
-1 -27 -17 c-31 -19 -35 -30 -13 -38 8 -4 15 -10 15 -15 0 -14 -28 -11 -34 4
-3 6 -4 3 -1 -8 3 -11 -6 -42 -20 -69 -14 -27 -25 -60 -25 -73 0 -13 -6 -23
-14 -23 -7 0 -25 -11 -40 -25 -23 -21 -26 -31 -21 -55 6 -25 3 -31 -16 -38
-22 -9 -22 -9 7 -17 16 -4 52 -8 79 -10 28 -1 59 -5 71 -8 21 -8 22 -6 27 48
1 14 3 25 5 25 10 0 32 -31 30 -42 -2 -8 13 -17 40 -22 33 -8 42 -14 41 -30
-1 -17 -2 -18 -6 -3 -2 9 -8 17 -13 17 -5 0 -6 -31 -3 -69 5 -66 5 -69 -17
-73 -21 -3 -22 -8 -22 -86 -1 -84 6 -108 22 -83 7 12 11 12 24 -1 14 -15 11
-16 -30 -20 -25 -2 -48 0 -51 5 -10 16 -23 -6 -23 -38 0 -21 -6 -37 -17 -43
-33 -19 17 -31 97 -24 64 6 75 10 78 27 2 11 16 34 32 50 25 27 28 38 32 118
3 65 1 90 -9 98 -7 7 -13 17 -13 23 0 6 -9 18 -20 26 -19 14 -30 67 -11 55 5
-3 13 -1 16 5 4 6 19 10 33 9 90 -7 117 0 157 41 22 21 46 39 53 40 6 0 12 5
12 10 0 6 9 10 19 10 11 0 21 5 23 11 3 8 9 6 20 -4 21 -22 28 -12 28 39 0 24
5 46 12 50 11 7 7 -427 -8 -821 -7 -211 -9 -215 -70 -215 -28 0 -32 16 -5 23
15 4 20 17 24 78 3 41 8 85 11 99 12 50 -44 78 -59 30 -10 -30 -47 -37 -63
-11 -8 11 -23 21 -34 21 -14 0 -18 5 -13 19 4 14 -1 20 -20 25 -14 4 -35 18
-47 31 -24 28 -58 33 -58 10 0 -9 -6 -18 -14 -21 -8 -3 -12 -12 -9 -20 3 -8 1
-14 -5 -14 -17 0 -7 -81 11 -95 21 -15 22 -61 2 -81 -8 -9 -15 -26 -15 -38 0
-18 9 -25 43 -36 23 -7 49 -15 57 -18 8 -2 23 -6 34 -7 10 -1 23 -9 28 -19 5
-9 13 -14 19 -11 5 4 9 -17 9 -48 0 -53 -29 -126 -66 -168 -8 -8 -14 -32 -14
-51 0 -27 6 -40 26 -53 23 -14 26 -22 21 -54 -3 -24 0 -41 10 -50 14 -12 13
-16 -7 -31 -15 -11 -19 -19 -11 -24 7 -5 8 -13 1 -25 -5 -10 -7 -21 -4 -24 6
-6 155 92 166 109 4 6 35 17 69 24 38 8 63 19 67 30 13 30 67 110 75 110 5 0
22 9 38 21 27 19 34 18 30 -4 -1 -5 3 -6 9 -2 6 3 7 11 4 17 -4 6 0 16 8 22
21 16 52 66 40 66 -5 0 -24 -13 -42 -30 -18 -16 -35 -30 -39 -30 -3 0 -20 -14
-38 -30 -18 -17 -40 -30 -49 -30 -15 0 -16 15 -10 173 4 94 11 370 16 612 13
560 27 1005 36 1073 6 52 8 54 33 47 32 -8 113 -22 185 -33 30 -4 61 -13 69
-20 8 -7 22 -10 31 -6 22 9 20 -9 -3 -23 -16 -10 -19 -27 -21 -140 -3 -156 -5
-183 -15 -299 -5 -64 -4 -93 4 -98 6 -4 11 0 12 11 2 30 17 -27 18 -68 1 -29
-3 -38 -19 -42 -19 -5 -20 -12 -18 -97 2 -83 4 -91 21 -86 21 5 57 -26 57 -49
0 -8 4 -23 9 -33 18 -35 31 -69 59 -155 26 -78 28 -90 15 -103 -19 -19 -9 -44
17 -44 11 0 20 -4 20 -10 0 -13 -26 -13 -51 0 -20 11 -27 50 -9 50 6 0 10 5
10 10 0 6 -7 10 -15 10 -8 0 -15 -5 -15 -12 0 -6 -13 1 -30 17 -16 16 -30 34
-30 41 0 6 -13 52 -30 102 -16 50 -30 104 -31 119 0 28 0 28 -11 5 -11 -21 -1
-95 28 -212 4 -20 3 -22 -5 -10 -6 8 -11 23 -11 33 0 10 -4 15 -10 12 -12 -8
-13 -112 -1 -119 5 -3 15 8 23 25 12 24 17 27 27 16 8 -11 8 -27 -1 -66 -12
-54 -25 -66 -30 -28 -5 39 -23 23 -30 -28 -3 -27 -11 -69 -16 -92 -5 -24 -10
-83 -11 -133 -2 -84 -1 -90 18 -90 11 0 25 -9 31 -19 14 -27 13 -28 -18 -23
-26 3 -31 -1 -50 -41 -24 -52 -41 -113 -22 -84 6 9 17 17 25 17 7 0 15 3 17 8
12 28 190 164 243 185 15 6 13 1 -9 -22 -33 -35 -29 -61 9 -61 15 0 35 -5 46
-11 12 -6 43 -12 70 -13 28 -2 56 -9 67 -19 10 -9 27 -17 37 -17 18 0 57 -9
152 -37 51 -14 93 -11 93 8 0 5 7 9 15 9 18 0 20 -16 4 -26 -16 -9 20 -27 99
-49 l62 -18 2 -61 c2 -55 1 -92 -3 -121 -1 -5 2 -18 6 -27 6 -15 2 -18 -19
-18 -14 0 -26 -4 -26 -10 0 -5 4 -10 10 -10 5 0 12 -17 15 -37 4 -21 9 -46 12
-56 4 -15 1 -18 -16 -12 -24 7 -26 2 -9 -28 12 -22 13 -457 2 -504 -6 -24 -54
-53 -88 -53 -25 0 -41 -10 -48 -31 -5 -13 1 -14 41 -8 25 3 54 10 64 14 14 6
17 2 17 -24 0 -20 -5 -31 -14 -31 -8 0 -22 -7 -31 -16 -9 -9 -19 -14 -22 -11
-3 4 -28 -5 -55 -19 -36 -18 -53 -22 -62 -15 -7 6 -15 8 -18 5 -8 -8 -88 17
-88 28 0 4 -22 8 -50 8 -27 0 -50 4 -50 8 0 10 -60 32 -88 32 -11 0 -31 4 -44
9 -13 5 -57 19 -98 31 -41 12 -86 25 -100 30 -14 4 -44 13 -67 19 -92 24 -131
35 -193 54 -36 11 -71 21 -79 23 -8 3 -11 12 -8 25 4 16 -2 24 -28 35 -47 19
-68 18 -85 -6 -17 -24 -30 -26 -30 -4 0 11 -6 13 -19 9 -11 -3 -28 -2 -38 4
-10 5 -38 14 -63 21 -25 7 -55 16 -68 21 -13 5 -32 9 -43 9 -10 0 -27 4 -37 9
-9 5 -37 14 -62 21 -25 7 -55 16 -68 21 -13 5 -36 9 -52 9 -17 0 -30 5 -30 10
0 6 -7 10 -15 10 -29 0 -95 25 -92 35 2 5 14 15 28 22 13 7 28 18 34 25 5 8
26 25 45 38 39 27 60 46 60 54 0 3 -42 -26 -92 -65 -81 -61 -97 -69 -125 -64
-86 13 -104 18 -109 26 -3 5 -18 9 -33 9 -15 0 -31 4 -36 8 -6 5 -43 16 -83
26 l-73 19 -67 -46 c-37 -26 -86 -60 -110 -77 -23 -16 -47 -30 -52 -30 -6 0
-10 -4 -10 -10 0 -5 -6 -10 -14 -10 -8 0 -16 -3 -18 -7 -4 -11 -65 -53 -76
-53 -5 0 -17 -9 -27 -20 -10 -12 -25 -18 -33 -15 -16 6 -49 -10 -80 -41 -13
-12 -37 -29 -55 -38 -18 -9 -59 -37 -92 -62 -33 -25 -73 -53 -89 -62 -16 -9
-42 -28 -58 -41 -20 -17 -32 -21 -40 -13 -5 5 -12 66 -14 134 -2 67 -8 213
-14 323 -5 110 -14 310 -20 445 -6 135 -15 353 -20 485 -6 132 -13 287 -16
345 -3 58 -10 209 -15 335 -19 458 -28 630 -33 655 -3 14 -8 113 -10 220 -3
107 -7 224 -10 259 -6 69 0 81 41 81 12 0 25 -5 28 -11z"/>
<path d="M8330 10322 c-14 -6 -87 -59 -100 -72 -11 -11 -84 -67 -119 -90 -69
-46 -131 -94 -127 -98 3 -2 30 2 62 8 44 9 59 9 62 1 3 -9 7 -9 18 0 12 10 14
1 16 -52 1 -69 1 -66 -8 -152 -6 -48 -12 -61 -33 -75 -14 -9 -43 -33 -64 -54
-21 -21 -47 -38 -58 -38 -11 0 -22 -6 -25 -14 -6 -16 -56 -9 -67 10 -4 8 -14
14 -22 14 -16 0 -55 77 -55 108 0 11 -4 23 -9 26 -21 13 -19 48 4 68 13 11 26
19 30 18 10 -2 25 21 25 37 0 7 -21 -3 -47 -23 -81 -60 -98 -78 -100 -104 -2
-38 -19 -163 -25 -180 -3 -8 -3 -12 -1 -7 6 10 33 9 33 -2 0 -5 14 -11 30 -14
17 -4 30 -10 30 -15 0 -13 -55 -29 -76 -22 -15 6 -19 3 -21 -14 -1 -11 -5 -35
-8 -52 -5 -21 -3 -34 6 -40 7 -4 14 -3 17 4 2 7 11 12 20 12 13 0 11 -5 -8
-19 -13 -11 -27 -19 -30 -18 -3 1 -7 -2 -10 -8 -3 -5 5 -11 18 -13 12 -2 22 1
22 7 0 6 7 11 15 11 8 0 15 5 15 10 0 6 6 10 13 10 6 0 22 11 35 25 13 13 36
30 52 37 17 7 30 16 30 20 0 5 4 8 10 8 12 0 157 110 188 143 15 16 30 23 43
20 19 -5 27 -23 10 -23 -4 0 -12 -36 -15 -80 -12 -138 -3 -123 -194 -302 -28
-27 -53 -48 -56 -48 -7 0 -41 -26 -73 -57 -13 -13 -28 -23 -32 -23 -4 0 -16
-9 -26 -20 -10 -11 -27 -22 -39 -26 -11 -4 -31 -18 -43 -33 -12 -14 -25 -22
-29 -19 -8 9 45 58 62 58 8 0 14 5 14 10 0 6 7 10 15 10 8 0 15 7 15 15 0 8 5
15 10 15 6 0 10 7 10 15 0 8 -7 15 -15 15 -8 0 -15 -7 -15 -15 0 -19 -43 -40
-66 -31 -15 6 -16 16 -9 94 8 87 10 114 19 252 2 41 7 89 9 105 2 17 8 59 12
95 4 36 11 73 16 82 5 9 9 20 9 23 0 6 -60 -33 -70 -45 -3 -4 -12 -9 -20 -12
-8 -3 -55 -35 -103 -72 -48 -36 -90 -66 -92 -66 -3 0 -13 -7 -22 -15 -10 -8
-48 -36 -84 -63 -37 -26 -86 -65 -110 -85 -24 -20 -62 -50 -85 -66 -22 -16
-41 -35 -42 -42 0 -8 -6 -106 -11 -219 -6 -113 -16 -277 -23 -365 -6 -88 -12
-194 -12 -235 -1 -72 0 -75 23 -78 18 -3 22 0 18 12 -3 8 -2 18 4 21 17 11 49
-6 55 -30 6 -25 21 -32 119 -55 28 -6 66 -15 85 -21 177 -47 176 -47 236 -32
48 13 72 13 143 3 97 -13 157 -15 217 -5 l40 7 -3 -39 c-9 -97 -12 -105 -39
-99 -18 5 -36 -2 -67 -23 -23 -16 -59 -38 -80 -50 -20 -11 -54 -31 -74 -42
-48 -27 -143 -124 -143 -147 -1 -36 -38 -65 -100 -76 -28 -5 -41 -16 -64 -52
-16 -25 -35 -52 -43 -60 -25 -24 -5 -29 20 -6 13 12 29 22 35 22 7 0 12 5 12
10 0 6 10 10 23 10 27 0 70 28 62 41 -4 5 -1 9 4 9 6 0 11 -9 11 -20 0 -11 7
-23 15 -27 23 -8 28 2 15 27 -17 31 -4 37 20 10 11 -13 23 -20 27 -16 4 3 1
12 -5 18 -7 7 -12 20 -12 31 0 14 5 17 20 12 23 -7 25 -2 8 25 -7 10 -9 22 -6
26 13 12 38 -5 38 -26 0 -12 9 -30 20 -42 17 -19 20 -19 20 -5 0 9 -4 17 -8
17 -10 0 -36 70 -28 77 7 7 36 -22 36 -36 0 -6 5 -11 10 -11 6 0 10 6 10 14 0
8 -4 18 -10 21 -17 11 -12 38 6 31 10 -4 21 0 28 10 10 13 14 10 31 -22 21
-39 45 -56 45 -32 0 8 -9 24 -21 36 -11 12 -17 27 -14 33 10 15 35 -9 35 -32
0 -11 5 -19 10 -19 6 0 10 -7 10 -15 0 -8 7 -15 15 -15 8 0 15 5 15 10 0 6 -7
13 -15 16 -14 6 -22 54 -9 54 3 0 14 -10 24 -22 10 -13 22 -20 26 -16 4 4 1
14 -5 22 -7 8 -11 23 -8 33 4 16 6 15 12 -4 12 -37 28 -27 22 12 -5 32 -4 34
10 19 10 -10 16 -31 15 -54 -1 -30 -11 -47 -50 -86 -55 -57 -155 -172 -195
-226 -15 -20 -32 -42 -39 -50 -7 -7 -33 -36 -57 -63 -25 -28 -88 -97 -141
-155 -54 -58 -112 -123 -131 -145 -19 -22 -41 -47 -49 -55 -14 -15 -74 -80
-170 -185 -25 -28 -57 -66 -72 -85 -15 -19 -43 -53 -63 -75 -19 -22 -35 -43
-35 -47 0 -27 44 15 124 118 25 33 71 87 103 120 32 34 83 90 113 125 30 35
69 77 85 94 17 17 48 51 69 75 153 175 459 495 488 511 36 20 -5 -55 -72 -131
-12 -14 -28 -38 -36 -55 -7 -16 -19 -38 -26 -47 -10 -14 -10 -22 0 -38 24 -39
13 -63 -75 -165 -24 -27 -43 -57 -43 -67 0 -14 -58 -101 -79 -118 -4 -3 -26
-30 -51 -60 -25 -30 -52 -62 -60 -70 -42 -41 -140 -159 -140 -168 0 -6 -3 -12
-7 -14 -5 -1 -33 -32 -63 -68 -30 -36 -63 -74 -73 -85 -11 -11 -61 -69 -112
-130 -52 -60 -110 -128 -129 -150 -32 -37 -45 -65 -30 -65 4 0 15 10 26 23 11
12 29 33 41 47 28 32 153 177 181 210 11 14 56 64 98 112 42 48 85 100 95 115
10 15 22 33 28 39 12 13 102 115 140 159 14 17 40 48 57 70 40 50 116 118 100
90 -6 -11 -29 -40 -51 -64 -22 -25 -38 -47 -36 -50 3 -2 20 13 37 35 18 21 56
63 84 93 58 62 90 67 50 8 -29 -43 -33 -69 -11 -90 12 -13 11 -20 -14 -58 -15
-24 -46 -65 -67 -91 -21 -26 -54 -76 -72 -110 -18 -35 -45 -77 -60 -93 -15
-17 -40 -47 -55 -68 -16 -20 -38 -47 -50 -60 -13 -12 -30 -32 -38 -45 -9 -12
-32 -39 -50 -60 -19 -20 -41 -46 -49 -58 -8 -12 -34 -43 -56 -70 -45 -53 -158
-190 -177 -214 -25 -32 -102 -125 -107 -130 -15 -15 -80 -99 -80 -104 0 -3 5
-6 10 -6 12 0 42 33 119 130 79 99 111 139 171 210 30 36 61 73 70 84 8 10 20
23 25 30 6 6 39 47 75 91 35 44 67 82 70 85 3 3 35 41 70 85 99 123 133 157
142 142 6 -9 11 -7 20 8 19 32 86 100 92 94 4 -3 -5 -27 -20 -53 -25 -44 -26
-63 -9 -108 3 -8 -34 -67 -88 -138 -63 -82 -93 -129 -89 -142 2 -10 -3 -29
-11 -42 -14 -20 -14 -25 -2 -30 9 -3 12 0 8 10 -6 17 13 19 21 2 3 -7 3 -1 0
15 -6 27 9 38 20 15 4 -7 4 -3 2 10 -3 17 -1 22 9 18 8 -3 31 16 56 45 48 56
83 82 72 52 -7 -21 -61 -102 -80 -121 -16 -16 -16 -18 -2 -44 10 -19 11 -19
25 7 8 15 11 31 8 36 -3 5 2 6 10 3 9 -3 16 -9 16 -13 0 -7 -127 -182 -225
-311 l-70 -92 -5 47 -5 47 -22 -30 c-23 -32 -22 -62 3 -62 21 0 16 -21 -11
-55 l-25 -30 0 49 c0 42 -2 47 -15 36 -18 -15 -20 -61 -4 -77 12 -12 -4 -46
-35 -79 -6 -6 -33 -43 -61 -82 -27 -39 -53 -71 -57 -72 -5 0 -7 18 -6 40 1 22
-1 42 -4 45 -6 6 -117 -129 -125 -154 -4 -9 13 4 36 28 29 29 45 40 50 32 4
-7 15 -9 25 -5 16 6 17 4 8 -12 -6 -10 -19 -28 -29 -39 -11 -11 -36 -44 -56
-74 -50 -72 -133 -178 -175 -223 -22 -23 -39 -56 -48 -89 -8 -29 -12 -54 -10
-56 6 -7 68 63 139 157 40 52 76 100 80 105 4 6 44 61 87 123 44 62 89 122
100 134 11 12 20 25 20 29 0 4 6 14 13 21 7 7 54 67 105 133 51 66 98 127 105
135 7 8 23 31 37 50 13 19 27 37 30 40 3 3 21 25 40 50 56 73 70 84 70 56 0
-10 -202 -284 -325 -440 -48 -61 -91 -119 -145 -195 -93 -131 -256 -345 -309
-406 -39 -44 -51 -66 -50 -89 0 -30 1 -30 15 -10 8 11 28 36 45 55 17 19 45
54 62 79 17 25 33 47 37 50 3 3 17 21 30 40 13 19 27 37 30 40 3 3 23 29 45
58 21 28 43 52 47 52 19 0 5 -32 -35 -82 -23 -29 -82 -105 -129 -168 -48 -63
-96 -122 -107 -130 -12 -8 -21 -23 -21 -33 0 -10 -7 -29 -16 -42 -13 -19 -14
-28 -5 -39 9 -11 8 -22 -5 -50 -22 -46 -10 -59 19 -21 12 16 29 36 37 44 8 9
26 32 40 51 13 19 27 37 30 40 3 3 17 21 30 40 14 19 30 42 37 50 6 8 33 44
60 80 26 36 50 67 53 70 19 16 89 130 92 150 2 15 14 30 31 38 18 9 27 21 27
37 0 14 14 38 34 57 18 18 36 44 39 58 3 14 16 30 29 35 12 6 25 21 28 35 4
14 21 41 39 60 17 19 31 39 31 46 0 6 11 17 25 24 13 7 27 25 30 39 3 15 19
33 35 43 20 12 30 25 30 41 0 14 7 28 16 31 45 17 28 -22 -66 -152 -38 -53
-81 -110 -96 -127 -14 -16 -33 -42 -42 -57 -9 -16 -20 -28 -24 -28 -4 0 -8 -5
-8 -11 0 -14 -66 -111 -162 -237 -43 -56 -78 -107 -78 -112 0 -6 -4 -10 -8
-10 -4 0 -16 -13 -25 -30 -10 -16 -23 -35 -30 -42 -20 -23 -72 -91 -107 -143
-19 -27 -52 -69 -73 -92 -76 -81 -88 -107 -98 -206 -4 -51 -8 -108 -8 -127 l0
-35 22 27 c71 85 123 151 167 213 28 39 57 77 64 86 7 9 33 45 56 80 24 35 46
66 50 69 4 3 26 34 50 69 23 35 49 71 56 80 7 9 34 45 61 81 26 36 56 74 65
84 10 11 18 25 18 32 0 7 3 14 8 16 9 4 112 146 112 155 0 17 150 210 191 246
33 28 49 50 49 66 0 13 29 62 68 115 38 50 71 99 75 109 11 29 36 253 57 507
5 63 14 160 20 215 5 55 15 145 20 200 6 55 15 138 20 185 6 47 15 130 20 185
12 115 24 228 40 370 6 55 15 147 21 205 6 58 14 139 19 180 5 41 13 114 18
162 6 48 13 92 17 98 4 7 11 55 16 108 5 54 13 140 19 192 12 106 23 205 39
360 6 58 18 154 26 213 9 59 15 125 14 145 -2 21 1 44 6 51 4 8 12 59 17 115
17 185 37 353 45 376 3 8 7 47 10 85 2 39 8 82 13 98 5 15 8 27 7 26 -1 0 -9
-3 -17 -7z"/>
<path d="M315 9413 c-11 -2 -29 -8 -40 -13 -11 -5 -56 -21 -100 -36 -44 -14
-93 -32 -110 -39 -16 -7 -38 -15 -47 -19 -17 -5 -18 -135 -18 -2536 0 -1685 3
-2529 10 -2525 6 3 10 11 10 16 0 21 55 58 77 52 15 -3 23 -1 23 7 0 7 6 10
14 7 8 -3 17 1 20 9 7 19 -18 18 -34 -1 -13 -16 -30 -20 -30 -7 0 4 12 15 28
24 15 9 39 27 53 40 78 70 120 105 216 179 57 45 115 91 127 103 54 51 157
116 185 116 6 0 55 28 110 63 103 64 139 87 204 123 37 22 133 91 284 208 42
32 85 64 97 70 98 53 156 93 165 113 17 36 13 91 -8 137 -11 23 -25 67 -32 99
-7 31 -15 57 -19 57 -4 0 -10 21 -13 48 -3 26 -16 76 -28 112 -28 85 -42 145
-89 370 -11 58 -25 125 -31 150 -5 25 -10 59 -10 75 -1 17 -8 71 -16 120 -22
134 -42 268 -58 385 -8 58 -24 161 -35 230 -12 69 -23 145 -26 170 -3 25 -9
54 -14 65 -5 11 -12 43 -15 70 -10 93 -23 190 -38 280 -25 144 -31 189 -29
205 1 8 -5 62 -14 120 -9 58 -18 123 -19 145 -7 83 -24 195 -34 214 -6 11 -8
27 -5 36 4 9 2 26 -4 38 -6 12 -13 49 -16 82 -7 90 -23 197 -34 225 -5 14 -15
58 -22 98 -6 39 -16 72 -22 72 -6 0 -8 6 -5 13 6 16 -12 120 -22 127 -13 10
-31 62 -31 90 0 17 -5 30 -11 30 -17 0 -39 27 -39 50 0 11 -8 23 -17 26 -44
15 -73 29 -73 36 0 5 -6 8 -13 8 -7 0 -31 8 -53 19 -51 24 -294 54 -349 44z"/>
<path d="M9640 8340 c-14 -25 -13 -47 3 -53 14 -5 -24 -47 -43 -47 -8 0 -9
-11 -5 -32 6 -31 5 -32 -9 -14 -15 19 -16 18 -31 -17 -8 -21 -20 -37 -25 -37
-6 0 -10 -4 -10 -9 0 -6 -14 -31 -31 -56 -29 -43 -33 -75 -9 -75 30 0 281
-243 338 -327 21 -32 45 -73 53 -90 8 -18 17 -33 21 -33 5 0 8 -20 8 -44 0
-25 4 -47 9 -50 15 -10 -6 -76 -33 -103 -14 -14 -26 -31 -26 -38 0 -17 -74
-81 -135 -117 -27 -16 -57 -33 -65 -38 -69 -43 -241 -109 -303 -117 -20 -3
-40 -9 -43 -14 -3 -5 -18 -9 -34 -9 -16 0 -32 -4 -35 -10 -3 -5 -21 -10 -39
-10 -18 0 -47 -7 -65 -16 -18 -9 -41 -14 -53 -11 -11 3 -30 2 -42 -3 -12 -4
-67 -11 -121 -14 -105 -5 -138 -19 -161 -64 -6 -12 -18 -30 -27 -40 -10 -10
-17 -23 -17 -29 0 -5 -9 -18 -20 -28 -11 -10 -20 -22 -20 -26 0 -5 -18 -38
-40 -74 -22 -36 -40 -69 -40 -73 0 -4 -14 -25 -30 -46 -17 -22 -30 -46 -30
-53 0 -7 -4 -13 -10 -13 -5 0 -10 -6 -10 -14 0 -17 -42 -100 -52 -104 -5 -2
-8 -8 -8 -14 0 -5 -12 -28 -27 -51 -16 -23 -32 -50 -38 -59 -5 -9 -34 -50 -62
-92 -29 -41 -53 -78 -53 -81 0 -4 -13 -26 -30 -50 -16 -24 -30 -47 -30 -52 -1
-4 -14 -24 -30 -43 -17 -19 -30 -39 -30 -45 0 -7 -11 -22 -25 -35 -14 -13 -25
-28 -25 -33 0 -6 -12 -25 -26 -44 -14 -18 -34 -52 -45 -76 -11 -23 -25 -49
-31 -58 -15 -22 -3 -49 21 -49 11 0 26 -6 33 -13 26 -27 212 -157 223 -157 3
0 13 -6 22 -14 62 -51 133 -105 163 -126 19 -13 67 -50 107 -82 39 -32 76 -58
81 -58 5 0 15 -6 21 -13 6 -8 48 -40 93 -71 46 -31 103 -72 128 -91 25 -18 50
-34 55 -34 6 -1 24 -12 40 -26 44 -36 7 -33 -47 4 -24 16 -46 27 -50 24 -5 -2
-11 3 -14 11 -3 9 -12 16 -19 16 -7 0 -19 7 -26 16 -8 9 -42 34 -76 56 -35 22
-67 46 -71 55 -5 8 -16 15 -25 17 -9 1 -44 25 -77 54 -34 29 -68 52 -76 52 -8
0 -14 3 -14 8 0 12 -63 45 -88 46 -13 1 -28 9 -33 19 -6 9 -16 17 -24 17 -7 0
-15 10 -17 23 -2 14 -11 23 -26 25 -12 2 -20 8 -17 13 10 15 -12 10 -29 -6
-17 -17 -51 -21 -41 -4 10 16 -24 37 -72 44 -28 4 -40 10 -37 19 3 7 -2 19
-11 26 -8 7 -15 19 -15 26 0 8 -4 14 -9 14 -5 0 -12 11 -15 25 -4 16 -11 22
-21 19 -10 -4 -15 0 -15 11 0 9 -5 13 -11 9 -6 -3 -9 -15 -6 -25 4 -16 2 -17
-15 -8 -11 6 -23 7 -27 2 -3 -4 -18 -14 -33 -20 -17 -8 -28 -20 -28 -32 0 -11
-6 -22 -12 -24 -10 -4 -9 -8 2 -17 12 -9 12 -13 2 -17 -7 -3 -17 -16 -22 -29
-6 -15 -15 -22 -24 -18 -21 8 -46 -35 -39 -68 3 -16 9 -28 14 -28 5 0 9 -9 9
-20 0 -23 -15 -27 -24 -5 -8 22 -26 18 -26 -5 0 -11 -4 -20 -9 -20 -16 0 -24
-42 -11 -50 9 -5 9 -9 1 -14 -6 -4 -14 0 -17 8 -3 9 -15 16 -26 16 -17 0 -19
5 -14 25 4 17 2 25 -6 25 -8 1 -5 6 6 15 11 9 16 20 12 31 -8 21 14 51 25 33
5 -8 15 4 29 34 12 25 28 48 36 51 8 3 14 16 14 28 0 13 9 29 21 36 17 11 19
16 7 29 -10 12 -10 17 -1 20 7 2 9 11 6 19 -6 17 18 19 35 2 9 -9 12 -9 12 3
0 8 -4 19 -9 25 -5 5 -5 18 -1 29 8 18 9 18 9 2 1 -28 21 -9 21 20 0 20 4 24
20 20 11 -3 20 0 20 6 0 6 7 19 17 29 14 15 14 22 4 42 -11 19 -10 27 1 45 7
12 21 24 30 27 19 6 25 24 9 24 -5 0 -15 2 -23 5 -8 3 -22 -12 -37 -40 -13
-25 -28 -45 -32 -45 -5 0 -9 -5 -9 -12 0 -16 -43 -78 -54 -78 -9 0 -7 14 23
113 12 42 16 67 9 67 -6 0 -17 8 -24 18 -12 15 -13 12 -14 -24 0 -23 -7 -59
-16 -79 -9 -22 -13 -51 -10 -69 7 -39 -8 -81 -63 -176 -42 -73 -144 -232 -163
-254 -23 -28 -86 -136 -101 -174 -21 -52 -21 -63 -2 -56 8 4 15 12 15 20 0 16
70 15 83 -1 5 -6 12 -4 20 7 10 12 17 14 31 6 13 -7 21 -7 26 2 4 7 12 10 16
7 5 -3 54 -12 109 -22 55 -9 103 -22 107 -28 6 -9 8 -8 8 1 0 10 14 6 46 -12
25 -14 50 -23 55 -21 4 3 35 -4 68 -15 33 -11 72 -20 86 -20 15 0 24 -4 20
-10 -4 -6 10 -10 34 -10 30 0 44 -5 53 -20 9 -14 24 -20 50 -20 20 0 40 -4 43
-10 3 -5 17 -10 30 -10 13 0 27 -4 30 -10 3 -5 17 -10 31 -10 15 0 24 -6 24
-16 0 -11 6 -14 21 -9 12 4 31 3 43 -3 11 -5 53 -19 93 -31 40 -12 75 -26 78
-31 4 -6 17 -10 30 -10 13 0 27 -4 30 -10 3 -6 21 -10 40 -10 19 0 36 -4 39
-9 3 -5 18 -11 33 -14 56 -11 123 -39 116 -50 -4 -6 2 -8 17 -4 13 3 36 -1 51
-9 15 -7 39 -14 53 -14 14 0 28 -4 31 -10 3 -5 17 -10 31 -10 13 0 24 -4 24
-10 0 -5 9 -10 20 -10 11 0 43 -9 72 -20 29 -11 61 -20 71 -20 9 0 17 -4 17
-10 0 -5 15 -10 33 -10 44 -1 123 -23 126 -35 1 -5 11 -9 22 -8 23 3 109 -35
115 -52 3 -6 20 -11 40 -12 19 -1 45 -8 59 -17 13 -8 42 -18 65 -22 22 -4 43
-11 46 -15 3 -5 18 -9 34 -9 16 0 32 -4 35 -10 3 -5 10 -10 16 -10 5 0 9 232
9 600 0 513 -2 600 -14 600 -8 0 -17 8 -19 18 -4 13 -5 11 -6 -5 -1 -25 -21
-32 -21 -9 0 8 -6 17 -12 20 -10 5 -10 7 0 12 14 7 16 34 2 34 -5 0 -10 -4
-10 -9 0 -10 -47 -21 -55 -13 -3 3 2 13 11 23 15 17 14 18 -10 25 -15 3 -32 1
-40 -5 -11 -10 -16 -7 -22 11 -4 13 -8 32 -8 43 -1 11 -5 20 -11 20 -5 0 -9
-3 -7 -7 1 -5 -2 -8 -8 -8 -13 0 -32 38 -27 53 3 7 -7 24 -21 40 -20 21 -22
27 -10 27 9 0 26 -12 37 -26 18 -23 21 -24 20 -8 0 24 -61 74 -67 56 -3 -9 -9
-8 -24 3 -15 9 -27 11 -38 5 -13 -7 -22 -5 -31 6 -8 10 -21 13 -40 9 -15 -3
-30 -1 -34 4 -3 6 1 11 9 11 11 0 16 9 16 30 0 20 -5 30 -15 30 -8 0 -12 6 -9
14 3 8 12 12 20 9 8 -3 14 0 14 6 0 6 -7 11 -15 11 -8 0 -15 4 -15 10 0 13 45
24 70 17 11 -3 20 -1 20 3 0 14 -42 24 -87 21 -36 -2 -43 0 -43 16 0 11 12 23
30 30 34 13 33 45 -1 36 -11 -3 -19 0 -19 7 0 6 9 14 19 17 12 3 17 11 14 20
-3 8 4 23 16 34 24 23 27 39 7 39 -9 0 -12 8 -8 25 3 18 0 25 -12 25 -9 0 -16
5 -16 10 0 6 7 10 15 10 8 0 15 7 15 15 0 13 -4 14 -20 5 -13 -7 -20 -7 -20
-1 0 12 39 24 60 19 8 -2 16 5 18 14 5 23 -54 59 -85 52 -17 -5 -23 -2 -23 10
0 9 -4 16 -10 16 -5 0 -10 -8 -10 -18 0 -18 -39 -58 -52 -54 -5 1 -8 -2 -8 -8
0 -5 -7 -10 -16 -10 -18 0 -66 -35 -58 -42 12 -12 -9 -58 -26 -58 -27 0 -34
-17 -10 -25 11 -3 20 -13 20 -21 0 -18 -15 -18 -32 0 -10 10 -20 11 -31 4 -10
-5 -21 -7 -26 -4 -5 3 -11 -4 -14 -16 -5 -18 -8 -19 -21 -9 -13 11 -18 10 -32
-4 -15 -15 -15 -17 2 -31 18 -15 18 -15 -1 -11 -18 3 -20 0 -16 -36 2 -24 6
-34 11 -27 8 13 30 5 30 -11 0 -5 -18 -8 -40 -7 -22 2 -40 6 -40 11 0 4 3 7 8
7 4 0 7 11 7 25 0 22 -1 23 -12 9 -7 -9 -14 -22 -16 -28 -3 -8 -8 -7 -17 1
-11 10 -10 14 3 19 9 3 17 12 17 19 0 22 31 75 51 85 10 6 19 19 19 30 0 10
17 34 38 53 41 39 129 107 138 107 3 0 32 18 64 40 32 22 61 40 64 40 3 0 28
14 56 30 28 17 56 30 62 30 6 0 57 22 112 49 56 26 137 63 181 80 44 18 87 36
95 40 13 7 15 95 18 681 2 632 1 674 -15 686 -17 13 -17 13 0 14 19 0 24 30 5
30 -10 0 -10 2 -1 8 6 4 11 24 11 45 0 31 -3 36 -14 27 -10 -9 -21 -4 -50 24
-21 20 -34 39 -31 43 4 3 7 2 7 -4 0 -7 14 -7 45 0 25 6 45 16 45 23 0 7 -8
10 -20 7 -13 -4 -26 1 -33 11 -7 10 -19 16 -26 14 -7 -2 -16 3 -19 11 -3 8 0
11 7 7 17 -11 14 29 -4 44 -12 10 -15 10 -15 -3 0 -17 -21 -27 -56 -27 -18 0
-22 4 -17 17 6 14 1 15 -40 10 -33 -5 -48 -3 -54 7 -4 7 -23 16 -40 19 -26 5
-35 2 -43 -13z"/>
<path d="M4600 1511 c0 -23 14 -35 63 -52 20 -7 37 -17 37 -21 0 -4 5 -8 10
-8 6 0 39 -18 74 -40 35 -22 67 -40 72 -40 5 0 20 -9 34 -20 14 -11 33 -20 43
-20 9 0 25 -4 35 -9 58 -31 211 -101 220 -101 5 0 12 -3 14 -7 3 -7 175 -94
288 -145 25 -11 62 -29 83 -39 22 -10 47 -19 58 -19 10 0 19 -4 19 -10 0 -5 6
-10 13 -10 15 0 52 -18 102 -50 17 -11 46 -27 65 -37 32 -16 88 -51 100 -63 7
-7 42 -29 65 -40 11 -5 43 -23 70 -40 47 -28 100 -54 100 -49 0 1 19 -8 43
-20 23 -12 42 -25 42 -29 0 -4 8 -12 19 -17 10 -6 38 -20 62 -33 24 -12 58
-31 74 -42 17 -11 37 -22 45 -26 35 -14 67 -30 100 -50 77 -46 131 -74 145
-74 8 0 15 -4 15 -10 0 -5 9 -10 19 -10 11 0 21 -3 23 -7 2 -5 44 -28 93 -52
50 -23 97 -47 105 -52 8 -4 35 -19 60 -31 25 -13 47 -26 48 -30 2 -5 10 -8 17
-8 16 0 102 -45 126 -66 8 -8 23 -14 32 -14 9 0 19 -5 22 -10 3 -6 15 -10 25
-10 10 0 20 -3 22 -7 2 -5 24 -18 50 -31 26 -13 50 -27 53 -33 4 -5 15 -9 26
-9 10 0 19 -4 19 -10 0 -6 30 -10 70 -10 40 0 70 4 70 10 0 6 -8 10 -18 10
-10 0 -28 9 -40 20 -12 11 -28 20 -36 20 -8 0 -16 4 -18 8 -1 5 -43 28 -93 51
-49 24 -101 49 -115 57 -14 8 -76 40 -137 70 -62 31 -113 60 -113 65 0 5 -6 9
-14 9 -7 0 -40 13 -72 29 -32 16 -90 44 -129 61 -38 18 -72 35 -75 39 -6 7
-55 33 -175 93 -129 64 -138 70 -175 97 -19 14 -53 35 -75 47 -22 11 -49 25
-60 31 -11 6 -51 26 -90 44 -38 17 -96 49 -127 70 -31 22 -60 39 -63 39 -3 0
-32 17 -63 38 -62 43 -281 152 -303 152 -12 0 -150 67 -324 157 -33 18 -109
55 -170 83 -207 97 -240 114 -243 122 -2 4 -10 8 -18 8 -7 0 -28 8 -46 18 -18
10 -49 24 -68 32 -19 7 -46 22 -59 32 -32 24 -71 24 -71 -1z"/>
<path d="M4523 1396 c-1 -22 -10 -45 -27 -63 -28 -30 -21 -52 11 -32 12 7 29
9 39 5 18 -7 18 -8 0 -22 -11 -8 -30 -14 -43 -14 -39 0 -25 -14 50 -49 163
-76 217 -103 223 -112 6 -10 87 -49 102 -49 5 0 15 -7 22 -15 7 -8 16 -12 21
-9 5 3 19 -2 31 -10 12 -9 30 -16 38 -16 9 0 65 -25 125 -56 61 -31 121 -62
135 -69 14 -7 52 -25 85 -40 33 -14 67 -30 75 -34 37 -19 86 -45 100 -52 8 -5
22 -12 30 -16 8 -4 17 -9 20 -12 3 -3 26 -16 52 -29 26 -12 61 -36 78 -52 18
-17 36 -30 41 -30 5 0 18 -8 29 -18 23 -20 101 -63 220 -123 77 -38 136 -74
150 -90 3 -3 26 -16 53 -28 26 -13 47 -27 47 -32 0 -5 9 -9 20 -9 11 0 20 -4
20 -10 0 -5 9 -10 20 -10 11 0 20 -4 20 -10 0 -5 8 -10 19 -10 10 0 24 -7 31
-15 7 -8 20 -15 30 -15 10 0 21 -7 24 -16 3 -8 10 -13 15 -10 5 3 14 -1 21 -9
7 -8 19 -15 26 -15 7 0 29 -9 49 -20 20 -11 40 -20 46 -20 11 0 72 -41 77 -52
2 -5 12 -8 23 -8 10 0 19 -4 19 -10 0 -5 6 -10 13 -10 6 0 48 -18 92 -40 l80
-40 208 0 c114 0 207 3 207 8 0 10 -338 186 -470 245 -14 6 -32 17 -40 23 -8
7 -71 41 -140 77 -69 35 -142 74 -163 86 -21 11 -44 21 -52 21 -8 0 -15 5 -15
10 0 6 -8 10 -18 10 -10 0 -23 5 -29 11 -12 12 -38 28 -93 55 -19 10 -54 30
-77 46 -23 15 -44 28 -48 28 -3 0 -23 11 -45 25 -22 14 -44 25 -49 25 -8 0
-139 75 -187 108 -6 4 -24 16 -40 26 -87 58 -134 86 -143 86 -6 0 -11 4 -11 8
0 4 -17 14 -37 21 -21 8 -67 27 -103 44 -36 16 -74 33 -85 37 -47 18 -293 137
-350 169 -16 9 -66 32 -110 50 -103 44 -216 99 -283 139 -29 18 -57 32 -61 32
-5 0 -14 7 -21 15 -23 28 -43 18 -38 -17 3 -18 3 -39 1 -46 -8 -22 -23 -2 -23
32 0 29 -14 56 -30 56 -3 0 -6 -15 -7 -34z"/>
<path d="M4023 605 c-7 -8 -13 -19 -13 -24 0 -6 -9 -15 -20 -21 -11 -6 -20
-15 -20 -21 0 -5 -11 -27 -25 -49 -30 -48 -30 -50 -6 -50 11 0 23 -4 26 -10 3
-5 15 -10 26 -10 10 0 19 -4 19 -10 0 -5 5 -10 11 -10 6 0 28 -13 49 -30 21
-16 41 -30 45 -30 3 0 26 -13 50 -30 24 -16 46 -30 50 -30 4 0 25 -13 48 -29
23 -16 74 -46 112 -66 39 -21 77 -43 85 -49 8 -7 29 -18 45 -26 17 -8 32 -18
35 -21 3 -3 27 -16 53 -30 26 -13 57 -28 67 -34 11 -5 20 -13 20 -17 0 -5 111
-8 248 -8 l247 1 -85 42 c-47 23 -86 45 -88 49 -2 5 -11 8 -20 8 -9 0 -46 15
-82 34 -148 76 -215 111 -220 116 -11 12 -94 64 -130 82 -14 6 -37 20 -51 30
-15 10 -62 36 -105 59 -44 23 -90 49 -104 59 -14 9 -41 24 -60 34 -19 9 -42
21 -50 26 -18 12 -141 80 -143 80 -1 -1 -8 -7 -14 -15z"/>
</g>
</svg>
