<?xml version="1.0" standalone="no"?>
<!DOCTYPE svg PUBLIC "-//W3C//DTD SVG 20010904//EN"
 "http://www.w3.org/TR/2001/REC-SVG-20010904/DTD/svg10.dtd">
<svg version="1.0" xmlns="http://www.w3.org/2000/svg"
 width="250.000000pt" height="444.000000pt" viewBox="0 0 250.000000 444.000000"
 preserveAspectRatio="xMidYMid meet">
<metadata>
Created by potrace 1.16, written by Peter Selinger 2001-2019
</metadata>
<g transform="translate(0.000000,444.000000) scale(0.100000,-0.100000)"
fill="#000000" stroke="none">
<path d="M1816 4393 c-21 -166 -66 -574 -71 -658 -4 -55 -9 -107 -12 -115 -3
-8 -7 -42 -8 -75 l-3 -60 13 70 c7 39 25 194 40 346 15 155 39 333 54 407 25
120 26 132 10 132 -12 0 -18 -12 -23 -47z"/>
<path d="M2056 4413 c-3 -16 -17 -120 -31 -233 -14 -113 -32 -239 -40 -280 -8
-41 -21 -140 -30 -220 -8 -80 -18 -156 -21 -170 -3 -14 -2 -22 1 -18 13 12 32
125 36 203 1 23 2 25 7 10 3 -13 10 6 17 50 7 39 24 140 39 225 14 85 34 205
45 265 35 205 35 195 7 195 -19 0 -26 -7 -30 -27z m-69 -620 c-3 -10 -5 -4 -5
12 0 17 2 24 5 18 2 -7 2 -21 0 -30z"/>
<path d="M1882 4375 c0 -16 2 -22 5 -12 2 9 2 23 0 30 -3 6 -5 -1 -5 -18z"/>
<path d="M2310 4076 c0 -2 -9 -55 -20 -119 -11 -63 -22 -141 -24 -174 -3 -32
-8 -82 -12 -110 l-7 -53 29 1 c17 1 22 3 11 6 -10 3 -14 9 -10 16 4 7 10 30
13 52 4 34 9 41 37 48 29 9 55 37 33 37 -6 0 -10 -4 -10 -10 0 -5 -12 -10 -26
-10 -24 0 -25 2 -20 38 3 20 10 75 17 122 6 47 14 97 19 111 6 20 4 28 -11 37
-11 7 -19 10 -19 8z"/>
<path d="M2492 3910 c0 -19 2 -27 5 -17 2 9 2 25 0 35 -3 9 -5 1 -5 -18z"/>
<path d="M1812 3875 c0 -16 2 -22 5 -12 2 9 2 23 0 30 -3 6 -5 -1 -5 -18z"/>
<path d="M2488 3761 c-4 -58 -5 -107 -3 -110 13 -12 16 14 13 110 l-3 104 -7
-104z"/>
<path d="M1802 3785 c0 -16 2 -22 5 -12 2 9 2 23 0 30 -3 6 -5 -1 -5 -18z"/>
<path d="M2183 3503 c9 -2 25 -2 35 0 9 3 1 5 -18 5 -19 0 -27 -2 -17 -5z"/>
<path d="M1861 3454 c-11 -14 -23 -34 -26 -44 -6 -20 3 -20 -309 1 -81 5 -150
8 -152 6 -3 -2 -23 -99 -45 -216 -33 -170 -39 -214 -29 -226 14 -17 55 -21 45
-5 -4 6 7 10 25 10 25 0 31 -4 26 -15 -4 -11 2 -15 22 -16 15 0 22 -3 15 -5
-6 -3 -44 -1 -82 5 -60 8 -79 7 -123 -9 -61 -21 -59 -22 115 -46 70 -9 126
-18 125 -19 -2 -1 -25 -5 -53 -9 -31 -4 -45 -3 -36 2 17 12 -48 21 -76 11 -14
-5 -9 -8 17 -12 19 -3 6 -3 -30 -1 -85 5 -90 6 -84 16 3 4 13 4 24 -2 14 -7
20 -6 25 7 3 10 3 15 0 11 -3 -3 -30 1 -60 8 -48 13 -58 12 -94 -2 -47 -18
-55 -48 -18 -64 19 -8 117 -25 410 -71 l77 -12 95 47 c52 26 97 51 100 57 7
10 48 13 57 3 3 -3 38 -7 78 -9 40 -3 71 -3 69 -1 -2 2 -44 9 -94 16 -49 6
-94 15 -98 19 -4 4 -2 20 4 35 11 23 14 25 22 11 7 -13 17 -15 48 -10 25 4 39
3 39 -4 0 -10 23 -15 115 -26 28 -4 64 -8 82 -11 18 -2 35 1 38 6 3 6 -1 10
-9 10 -9 0 -16 5 -16 10 0 6 4 10 10 10 5 0 2 9 -7 20 -20 23 -60 26 -87 5
-11 -8 -26 -15 -33 -15 -22 0 -15 20 12 32 13 6 22 14 20 18 -3 4 23 20 58 35
54 23 59 28 43 37 -17 10 -16 12 11 23 30 13 31 16 56 156 30 169 38 227 29
233 -4 2 -20 -78 -36 -177 -16 -100 -33 -187 -38 -194 -5 -6 -21 -14 -35 -18
-39 -9 -207 -76 -213 -83 -3 -4 -3 -6 -1 -5 2 2 10 -2 18 -8 7 -7 27 -9 45 -5
17 3 29 3 25 0 -8 -8 -127 -33 -127 -26 0 2 6 48 14 101 8 53 22 159 31 236
10 77 21 152 26 168 7 24 5 27 -16 27 -13 0 -32 -11 -44 -26z m199 -418 c0 -9
-9 -12 -27 -9 -24 3 -25 2 -8 -6 11 -5 17 -10 13 -10 -3 -1 -13 -4 -21 -7 -11
-4 -15 0 -13 12 2 10 11 21 22 25 28 11 34 10 34 -5z m-483 -108 c58 -8 78 -8
81 0 5 16 28 15 44 -1 7 -8 20 -16 28 -20 19 -7 -92 3 -200 18 -47 7 -73 13
-58 14 15 0 62 -4 105 -11z m179 -47 c-6 -9 -46 -22 -46 -15 0 3 10 9 23 14
29 11 29 11 23 1z m-223 -18 c-7 -2 -21 -2 -30 0 -10 3 -4 5 12 5 17 0 24 -2
18 -5z m-203 -33 c0 -6 -11 -8 -27 -4 -40 10 -41 14 -5 14 18 0 32 -5 32 -10z
m329 6 c-10 -9 -69 -36 -69 -32 0 7 52 35 64 36 5 0 7 -2 5 -4z"/>
<path d="M1937 3453 c-13 -12 -7 -23 11 -23 10 0 19 7 19 15 0 15 -18 20 -30
8z"/>
<path d="M2177 3116 c-10 -26 -8 -56 4 -56 5 0 7 -6 3 -12 -4 -8 -2 -8 7 1 11
11 11 14 1 18 -8 3 -10 9 -4 16 5 7 6 21 3 31 -7 18 -8 18 -14 2z"/>
<path d="M2170 2896 c0 -14 5 -26 10 -26 6 0 10 9 10 19 0 11 -4 23 -10 26 -6
4 -10 -5 -10 -19z"/>
<path d="M2020 2839 c25 -4 59 -7 75 -7 22 0 18 3 -15 9 -25 4 -58 7 -75 7
-22 0 -18 -3 15 -9z"/>
<path d="M1816 2828 c-12 -37 -15 -67 -9 -71 17 -10 99 -17 110 -9 10 6 10 15
0 43 -6 18 -16 37 -22 41 -17 13 -75 9 -79 -4z"/>
<path d="M2137 2810 c3 -11 7 -20 9 -20 2 0 4 9 4 20 0 11 -4 20 -9 20 -5 0
-7 -9 -4 -20z"/>
<path d="M750 2738 c0 -18 3 -70 6 -115 6 -68 10 -82 25 -86 16 -4 19 -16 20
-84 0 -43 3 -163 5 -266 3 -125 1 -186 -6 -182 -5 3 -10 2 -10 -3 0 -5 -18
-42 -41 -83 -22 -41 -45 -95 -51 -121 -6 -27 -15 -48 -18 -48 -6 0 -14 -46
-26 -159 -2 -19 -10 -41 -18 -49 -13 -13 -16 -12 -22 11 -7 29 -24 37 -24 12
0 -8 4 -15 8 -15 5 0 7 -13 4 -30 -3 -22 -21 -43 -71 -83 -65 -53 -355 -278
-473 -367 l-59 -45 3 -304 c2 -237 6 -305 16 -307 7 -1 8 0 2 3 -5 2 -10 9
-10 14 0 6 4 8 9 4 17 -10 71 -13 77 -3 3 4 2 8 -3 7 -26 -5 -63 2 -58 11 3 6
-1 10 -10 10 -9 0 -14 4 -10 10 3 5 13 7 23 4 14 -5 14 -3 -2 10 -19 16 -19
16 3 16 20 0 21 2 11 15 -10 12 -8 16 11 24 18 7 19 10 7 10 -20 1 -24 16 -8
26 6 4 8 16 5 28 -4 14 -3 17 2 10 9 -13 76 -13 81 0 6 13 -5 32 -14 24 -5 -4
-2 -12 6 -17 9 -6 10 -10 3 -10 -23 0 -24 20 -2 48 20 25 21 26 14 4 -6 -21
-4 -23 15 -17 16 5 20 4 15 -5 -6 -9 -3 -9 14 -1 23 13 29 23 8 15 -10 -3 -14
3 -13 20 2 27 16 49 16 24 0 -9 6 -21 13 -27 11 -8 13 -7 12 7 0 9 -4 22 -7
27 -3 6 3 24 13 40 11 17 19 24 19 18 0 -23 19 -14 26 12 8 34 23 32 21 -3 -2
-20 -8 -28 -25 -30 -22 -3 -30 -26 -12 -37 5 -3 10 1 10 9 0 9 7 16 15 16 18
0 37 34 29 53 -6 16 42 31 52 16 3 -5 11 -9 17 -8 9 0 9 2 0 6 -7 2 -13 14
-13 25 0 14 5 18 15 14 9 -3 15 0 15 8 0 12 -6 12 -29 3 -16 -6 -27 -15 -25
-21 2 -6 -7 -11 -21 -11 -26 0 -33 9 -15 20 6 4 8 10 5 15 -3 5 3 11 12 13 10
3 5 5 -11 4 -16 -1 -31 3 -33 9 -2 7 2 12 9 11 40 -1 68 4 68 14 0 6 -8 8 -18
5 -10 -4 -22 1 -28 12 -10 15 -8 18 10 20 11 0 32 -6 45 -14 13 -9 21 -12 17
-6 -3 5 1 13 10 16 23 9 0 36 -25 29 -21 -5 -37 12 -21 22 5 3 10 2 10 -3 0
-23 35 1 37 25 0 14 7 29 15 34 20 13 28 11 21 -8 -4 -11 -3 -14 5 -9 7 4 12
18 12 31 0 19 4 23 17 18 11 -4 14 -3 9 5 -5 8 -2 10 9 6 12 -5 15 -1 12 17
-2 13 -2 18 0 11 3 -7 9 -10 14 -6 5 3 7 10 4 15 -4 5 1 9 9 9 9 0 16 3 16 8
0 4 9 13 21 20 16 10 19 10 13 1 -5 -9 -2 -10 9 -6 10 4 17 1 17 -5 0 -6 2 -9
5 -7 2 3 1 15 -2 28 -5 19 -11 22 -35 17 -24 -5 -26 -3 -16 8 7 7 19 11 27 8
9 -4 13 0 9 9 -6 19 27 50 41 38 6 -5 9 -6 6 -3 -2 4 0 15 6 25 11 22 0 25
-21 6 -8 -6 -4 0 9 16 28 31 62 37 54 9 -2 -10 3 -24 11 -31 11 -9 16 -10 16
-2 0 6 -4 11 -10 11 -5 0 -7 7 -3 16 3 9 12 13 22 9 9 -4 21 -8 26 -9 21 -4
65 -39 59 -47 -3 -5 1 -9 9 -9 10 0 13 -7 10 -20 -4 -15 -11 -19 -24 -15 -16
5 -19 1 -19 -22 0 -22 -2 -25 -11 -13 -8 12 -10 12 -7 1 2 -8 14 -16 27 -18
16 -2 22 1 18 10 -3 8 3 21 14 31 18 15 20 15 31 -10 7 -15 23 -27 39 -31 15
-3 32 -16 39 -29 7 -12 16 -23 19 -22 3 0 15 0 26 -1 18 -2 17 -4 -5 -13 l-25
-10 23 -9 c27 -10 46 -3 36 13 -4 7 -2 8 5 4 16 -10 53 3 45 16 -5 8 -1 9 10
5 10 -4 20 -7 24 -7 3 0 -3 -7 -14 -15 -18 -14 -17 -14 8 -4 21 9 31 9 42 0 8
-7 24 -10 35 -6 10 3 22 1 26 -5 3 -6 11 -8 16 -5 5 4 9 -1 9 -10 0 -10 5 -13
12 -9 7 5 8 3 4 -5 -9 -14 23 -42 39 -34 5 2 3 -2 -6 -9 -9 -7 -19 -20 -22
-28 -2 -8 -3 -2 -1 13 3 22 0 27 -14 25 -11 -2 -16 3 -14 15 2 9 -3 17 -11 17
-8 0 -18 7 -21 16 -4 9 -9 14 -12 11 -3 -3 -1 -15 6 -26 9 -18 8 -21 -9 -21
-27 0 -35 -17 -15 -28 16 -9 18 -24 13 -100 -2 -21 -5 -28 -11 -20 -5 9 -8 7
-9 -7 -1 -11 -1 -24 0 -28 1 -4 -6 -10 -14 -13 -8 -3 -12 -11 -8 -17 3 -6 1
-7 -6 -3 -6 4 -9 11 -6 16 3 4 -2 11 -10 14 -9 3 -18 -1 -21 -9 -4 -8 -10 -12
-15 -9 -15 9 -10 22 9 27 13 4 11 5 -5 6 -13 0 -23 5 -23 11 0 5 6 7 14 4 8
-3 19 3 25 15 9 15 7 23 -5 35 -8 9 -21 16 -27 15 -8 0 -8 -2 1 -6 6 -2 9 -10
6 -15 -4 -7 -2 -8 4 -4 8 4 10 2 6 -8 -6 -15 -34 -11 -34 5 0 5 -5 9 -12 9 -7
0 -6 -6 3 -17 8 -10 14 -29 14 -43 0 -27 24 -62 37 -54 4 3 8 1 8 -5 0 -5 -6
-11 -12 -14 -7 -2 -10 -8 -6 -12 4 -4 14 -3 22 4 11 9 15 9 19 -1 3 -8 10 -2
18 15 l13 28 13 -23 c7 -13 12 -17 13 -10 0 6 10 13 23 13 18 1 16 3 -8 9 -16
4 -24 8 -17 9 9 1 11 8 7 21 -4 14 -2 20 7 18 7 -2 12 3 10 10 -1 8 2 11 7 8
5 -4 15 2 21 11 11 17 11 17 6 0 -4 -11 -2 -16 5 -12 6 4 17 -1 24 -11 22 -29
18 -36 -14 -20 -26 14 -30 14 -35 -1 -4 -9 -3 -19 2 -22 5 -3 12 -13 15 -21 4
-12 6 -11 6 3 1 12 9 17 29 17 22 0 24 -2 12 -11 -13 -9 -13 -10 0 -6 8 2 14
14 13 26 -3 23 -3 23 45 27 29 2 32 0 31 -24 -1 -17 -3 -21 -6 -10 -4 18 -23
25 -23 10 0 -15 22 -30 36 -25 8 3 14 -1 15 -8 0 -8 4 -5 9 6 5 13 3 26 -8 38
-8 9 -11 17 -5 17 5 0 18 -9 27 -19 17 -19 56 -25 56 -9 0 4 4 8 9 8 5 0 30
12 56 26 35 20 43 29 33 36 -10 7 -10 8 2 6 8 -1 32 1 53 5 34 7 37 11 37 42
0 19 5 37 10 40 14 9 1 57 -21 75 -18 14 -18 25 -10 175 11 173 15 276 31 720
13 367 14 375 44 375 22 0 23 4 29 113 3 62 9 119 12 127 4 12 -54 26 -317 74
-419 76 -628 115 -655 121 -20 5 -23 1 -23 -27z m94 -63 c4 -16 11 -22 20 -19
8 3 12 12 9 20 -3 8 0 14 6 14 6 0 11 -4 11 -10 0 -5 7 -10 15 -10 9 0 20 -10
25 -22 8 -21 9 -20 9 10 1 38 -11 38 146 2 44 -10 110 -24 147 -31 60 -11 67
-15 70 -39 2 -15 -2 -32 -9 -39 -8 -7 -13 -8 -13 -1 0 5 -18 10 -40 10 -29 0
-42 -5 -50 -20 -6 -11 -17 -20 -25 -20 -8 0 -17 -12 -21 -27 -4 -16 -13 -33
-21 -40 -13 -10 -12 -13 5 -22 10 -5 29 -7 42 -4 22 6 23 4 16 -28 -5 -19 -8
-41 -9 -49 0 -19 -26 -39 -49 -40 -10 0 -18 -5 -18 -11 0 -6 7 -8 16 -5 9 3
28 9 42 12 50 12 75 54 49 80 -12 12 -8 24 8 24 9 0 27 7 40 16 14 9 25 12 26
8 0 -5 4 0 9 11 6 14 9 2 9 -40 -1 -125 -19 -166 -60 -129 -24 22 -39 10 -39
-31 0 -27 5 -34 25 -39 27 -7 33 -34 14 -53 -7 -7 -8 -19 -4 -30 4 -10 7 -29
5 -43 -2 -24 -1 -24 17 -7 11 9 23 17 27 17 12 0 76 54 76 64 0 5 -9 1 -20 -9
l-21 -19 7 240 c4 131 8 240 9 242 2 2 19 0 38 -3 l34 -7 -3 -109 c-2 -64 0
-109 6 -109 5 0 14 -17 21 -39 9 -29 9 -43 -1 -57 -11 -19 -11 -19 -6 0 4 10
2 24 -3 30 -5 6 -11 20 -15 31 -3 11 -4 1 -2 -22 2 -24 0 -46 -5 -49 -6 -3 -9
-24 -8 -47 1 -23 -2 -50 -6 -60 -6 -14 0 -12 20 7 20 18 32 23 39 16 5 -5 18
-10 27 -10 9 0 45 -9 80 -20 l64 -19 -3 -111 c-3 -103 -5 -112 -25 -120 -21
-8 -21 -9 -2 -10 20 -1 20 -1 1 -15 -19 -15 -68 -10 -74 7 -2 4 -7 6 -11 4
-10 -7 -141 33 -165 49 -10 8 -24 11 -30 9 -6 -2 -64 11 -129 30 l-118 35
-101 -65 c-55 -36 -102 -63 -104 -61 -2 2 -11 148 -19 323 -8 175 -17 356 -19
402 -5 78 5 110 18 57z m636 -306 c0 -6 -5 -7 -12 -3 -8 5 -9 0 -5 -17 6 -23
5 -23 -8 -5 -17 23 -20 40 -5 31 6 -3 10 -1 10 5 0 6 5 8 10 5 6 -3 10 -11 10
-16z m60 -30 c0 -4 -6 -10 -12 -12 -8 -3 -6 -6 5 -6 9 -1 17 -8 17 -17 0 -11
-6 -14 -22 -8 -20 6 -21 5 -9 -10 12 -14 11 -16 -3 -16 -9 0 -16 8 -16 19 0
28 -20 37 -21 9 0 -13 -3 -17 -6 -10 -3 7 -1 20 3 30 8 19 11 28 13 42 1 11
51 -9 51 -21z m-45 -106 c-5 -10 -7 -21 -7 -25 1 -5 -2 -8 -8 -8 -13 0 -13 17
1 26 6 3 8 15 5 27 -3 14 -2 17 6 9 6 -6 7 -18 3 -29z m-198 -20 c-3 -10 -5
-4 -5 12 0 17 2 24 5 18 2 -7 2 -21 0 -30z m-157 -410 c120 -33 365 -120 423
-149 15 -8 27 -20 27 -27 0 -9 -3 -9 -9 1 -4 7 -118 49 -252 93 -334 110 -390
130 -349 123 19 -3 91 -21 160 -41z m89 -70 c0 -11 -3 -13 -6 -5 -2 6 -9 10
-14 6 -5 -3 -9 0 -9 5 0 6 7 11 15 11 8 0 15 -8 14 -17z m129 -39 c7 -8 20
-14 29 -14 12 0 13 -3 4 -13 -6 -8 -7 -18 -3 -22 4 -5 -1 -5 -11 -2 -10 4 -16
3 -12 -3 3 -5 -3 -14 -14 -19 -29 -16 -38 -13 -15 4 12 9 13 13 4 11 -49 -14
-71 -16 -65 -6 3 5 0 10 -7 10 -7 0 2 10 20 21 17 12 32 22 32 22 0 1 -12 3
-28 3 -15 1 -21 -1 -14 -3 23 -9 1 -23 -35 -23 l-36 0 39 29 c41 32 83 33 112
5z m-51 -735 c-9 -6 -15 -14 -12 -19 3 -5 2 -11 -2 -13 -5 -3 -9 8 -10 25 0
21 2 26 8 17 8 -13 13 -5 9 16 -1 6 5 4 12 -3 11 -11 10 -15 -5 -23z m-962 2
c3 -6 -3 -9 -14 -8 -11 0 -17 5 -15 9 7 11 22 10 29 -1z m59 -9 c2 -4 -7 -8
-22 -9 -24 -2 -24 -1 -7 7 11 5 21 9 22 9 1 1 4 -3 7 -7z m821 -11 c-3 -6 -14
-10 -23 -10 -15 1 -15 2 1 6 9 2 17 9 17 15 0 6 3 9 6 5 3 -3 3 -10 -1 -16z
m188 12 c-7 -2 -13 -11 -13 -18 0 -9 -8 -11 -22 -7 -16 4 -19 2 -13 -9 8 -12
6 -12 -8 0 -9 7 -17 19 -17 25 0 7 3 7 8 -1 6 -9 13 -9 32 1 14 8 30 14 35 14
6 0 4 -2 -2 -5z m-196 -48 c4 -4 2 -5 -4 -1 -7 4 -13 2 -13 -3 0 -6 -4 -11 -8
-11 -5 0 -9 6 -9 14 0 15 21 16 34 1z m-931 -70 c1 -8 -1 -15 -6 -15 -8 0 -20
25 -20 43 0 16 23 -9 26 -28z"/>
<path d="M1028 2443 c-10 -2 -18 -11 -18 -19 0 -21 18 -17 30 6 6 11 9 19 8
19 -2 -1 -11 -3 -20 -6z"/>
<path d="M1020 2311 c0 -34 10 -44 30 -30 12 8 12 12 3 16 -7 2 -13 13 -13 24
0 10 -4 19 -10 19 -5 0 -10 -13 -10 -29z"/>
<path d="M1918 2667 c-3 -19 -2 -25 4 -19 6 6 8 18 6 28 -3 14 -5 12 -10 -9z"/>
<path d="M2177 2654 c-11 -14 -16 -28 -13 -31 3 -4 6 -1 6 5 0 7 7 12 15 12 8
0 15 9 15 20 0 25 -1 25 -23 -6z"/>
<path d="M2210 2661 c0 -21 19 -31 55 -31 l24 0 -25 25 c-30 30 -54 32 -54 6z"/>
<path d="M1832 2615 c0 -16 2 -22 5 -12 2 9 2 23 0 30 -3 6 -5 -1 -5 -18z"/>
<path d="M2489 2613 c-5 -69 -5 -83 3 -83 4 0 8 20 8 45 0 25 -2 45 -5 45 -3
0 -5 -3 -6 -7z"/>
<path d="M2035 2544 c-22 -19 -33 -32 -24 -29 40 15 24 -76 -17 -92 -22 -8
-46 17 -41 44 3 19 2 21 -9 12 -8 -6 -14 -21 -15 -33 0 -17 -2 -18 -7 -5 -6
14 -19 9 -79 -35 -80 -57 -79 -55 -85 -202 l-3 -71 40 -18 c26 -11 68 -18 117
-19 67 -1 78 -3 78 -18 0 -10 -4 -18 -9 -18 -5 0 -18 -3 -28 -7 -16 -6 -16 -5
-4 10 17 21 5 22 -15 2 -12 -12 -12 -15 -2 -15 7 0 2 -9 -12 -19 -13 -11 -28
-17 -31 -15 -4 2 -31 -7 -61 -20 -36 -17 -43 -23 -23 -19 17 3 35 10 42 15 7
5 18 6 24 2 8 -4 9 -3 5 4 -4 7 -2 12 3 12 19 0 12 -22 -8 -27 -11 -3 -22 -11
-25 -19 -4 -11 -1 -12 13 -5 10 6 21 7 25 4 4 -4 9 3 13 15 3 12 10 23 17 24
33 4 66 4 66 0 0 -3 -32 -42 -71 -86 l-71 -81 71 74 c67 71 94 88 52 34 -11
-13 -18 -30 -15 -37 3 -7 -4 -21 -16 -31 -11 -10 -20 -23 -20 -29 0 -6 -23
-36 -51 -66 -48 -52 -50 -53 -45 -25 5 25 4 27 -5 12 -6 -10 -8 -24 -6 -31 7
-18 -52 -88 -66 -79 -7 3 -9 3 -5 -2 4 -4 2 -15 -5 -23 -7 -9 -8 -14 -1 -11 6
2 38 36 71 74 131 153 142 163 140 135 -1 -14 -12 -39 -25 -55 -13 -17 -21
-22 -18 -12 4 11 2 16 -5 12 -5 -4 -7 -15 -4 -24 3 -11 -3 -25 -15 -36 -22
-20 -25 -15 -9 18 10 21 10 21 -5 3 -9 -11 -14 -27 -11 -37 3 -9 -2 -22 -11
-30 -15 -12 -16 -11 -9 11 8 25 8 25 -14 6 -11 -11 -20 -26 -20 -35 1 -13 2
-13 6 2 2 9 9 15 14 11 5 -3 7 -11 3 -17 -3 -7 24 20 61 58 36 39 64 64 60 58
-3 -7 -8 -23 -10 -35 -3 -11 -14 -31 -25 -43 -11 -12 -20 -28 -20 -36 0 -9 8
-5 20 11 l20 25 -4 -29 c-3 -16 -11 -34 -17 -40 -9 -8 -10 -7 -4 4 5 8 4 12 0
7 -5 -4 -10 -17 -12 -29 -3 -17 -1 -19 11 -8 13 10 15 8 11 -10 -6 -29 -25
-51 -37 -44 -5 3 -8 0 -6 -8 4 -19 -41 -80 -54 -71 -7 4 -9 0 -5 -10 6 -17
-15 -41 -27 -29 -5 4 -6 0 -5 -8 5 -19 -38 -81 -53 -77 -6 1 -13 -4 -16 -12
-3 -9 0 -11 8 -6 9 6 10 3 1 -12 -5 -11 -10 -28 -9 -39 0 -10 -3 -35 -7 -54
-10 -45 -9 -44 113 126 56 78 108 147 117 154 8 7 15 17 15 23 0 6 7 18 15 27
16 17 24 70 50 335 27 268 66 617 74 662 5 24 6 43 2 43 -3 -1 -24 -16 -46
-36z m-5 -136 c0 -12 -8 -30 -17 -41 -10 -11 -12 -17 -5 -13 7 4 12 1 12 -7 0
-10 -7 -13 -20 -10 -14 4 -29 -5 -50 -27 -17 -18 -27 -24 -23 -15 4 13 3 16
-5 11 -9 -5 -12 7 -12 41 0 51 12 83 24 64 4 -6 2 -11 -3 -11 -6 0 -11 -9 -11
-20 0 -19 1 -20 25 -4 14 9 22 20 19 25 -3 5 1 6 9 3 8 -3 20 2 27 11 18 21
30 19 30 -7z m-13 -95 c3 -8 -8 -11 -31 -10 -32 2 -34 3 -19 15 20 15 45 12
50 -5z m-167 -863 c-28 -38 -54 -70 -56 -70 -7 0 5 19 56 87 25 34 47 59 49
57 2 -2 -20 -35 -49 -74z m-80 -110 c-12 -16 -24 -30 -26 -30 -3 0 4 14 16 30
12 17 24 30 26 30 3 0 -4 -13 -16 -30z"/>
<path d="M42 2342 l-42 -14 0 -629 0 -630 33 23 c18 13 56 40 83 61 27 20 99
70 159 109 114 75 127 86 119 100 -27 44 -73 291 -134 728 -22 155 -41 220
-67 237 -38 25 -103 31 -151 15z"/>
<path d="M2394 2053 l-29 -48 39 -35 c22 -19 42 -34 46 -33 4 1 7 -3 7 -10 1
-7 7 -27 15 -45 12 -32 12 -35 -18 -62 -39 -34 -121 -66 -198 -75 -65 -8 -46
13 -170 -190 -22 -35 -43 -62 -48 -59 -4 3 -6 -1 -3 -8 3 -7 -5 -24 -16 -38
-18 -23 -19 -23 -9 -2 7 15 7 22 0 22 -5 0 -10 -4 -10 -8 0 -5 -7 -17 -16 -28
-15 -19 -15 -18 -11 4 3 12 1 20 -4 16 -5 -3 -9 -15 -9 -27 0 -12 -12 -42 -25
-66 -14 -24 -24 -46 -21 -48 6 -6 46 48 46 62 0 16 37 49 41 37 2 -5 52 -44
112 -87 59 -42 107 -79 107 -81 0 -3 -33 18 -74 46 -40 27 -76 50 -80 50 -4 0
-20 10 -36 21 -30 23 -60 20 -60 -6 0 -8 -5 -15 -10 -15 -6 0 -10 -8 -8 -17 2
-14 -4 -18 -25 -18 -21 0 -33 -7 -43 -27 -14 -27 -14 -27 8 -19 13 4 28 7 33
6 43 -11 163 -49 350 -111 l220 -74 3 138 c3 142 -2 187 -18 177 -6 -3 -10 -1
-10 4 0 6 -7 11 -15 11 -8 0 -14 3 -14 8 3 19 -2 30 -17 36 -8 3 -12 2 -9 -4
3 -5 0 -7 -8 -4 -19 7 -28 42 -13 48 6 2 3 5 -8 5 -14 1 -16 4 -7 14 6 8 8 17
4 20 -3 4 1 9 9 12 10 4 14 14 11 28 -3 15 -2 18 5 9 7 -10 12 -9 23 4 8 9 27
23 44 31 l30 14 -30 -6 c-16 -4 -32 -11 -33 -16 -2 -5 -8 -7 -13 -3 -5 3 -9 1
-9 -5 0 -5 -12 -8 -26 -6 -19 2 -36 -8 -65 -37 -21 -21 -38 -42 -37 -46 1 -4
-1 -14 -5 -22 -3 -8 -8 -22 -10 -30 -3 -8 -6 3 -6 24 -1 34 5 45 42 81 26 25
72 53 115 71 l72 29 0 181 c0 99 -3 184 -7 188 -8 7 -9 11 -12 37 0 6 -7 9
-15 6 -8 -3 -17 1 -20 9 -9 24 -22 16 -52 -33z"/>
<path d="M1780 1775 c-24 -25 -42 -45 -39 -45 3 0 25 20 49 45 24 25 42 45 39
45 -3 0 -25 -20 -49 -45z"/>
<path d="M1843 1644 c-24 -29 -43 -61 -42 -71 0 -12 4 -9 11 10 5 15 13 27 18
27 5 0 12 9 15 21 4 11 9 18 12 15 4 -3 12 6 20 21 21 41 11 35 -34 -23z"/>
<path d="M1774 1598 c-15 -18 -32 -31 -38 -30 -6 2 -8 0 -4 -4 4 -4 3 -13 -4
-21 -6 -7 -9 -15 -7 -18 3 -2 24 21 47 51 46 59 50 73 6 22z"/>
<path d="M1859 1613 c-1 -5 -1 -12 0 -17 1 -5 -6 -18 -16 -29 -10 -11 -12 -17
-4 -12 9 5 12 3 9 -6 -3 -8 -10 -13 -16 -12 -13 3 -63 -59 -66 -80 -1 -8 -15
-34 -31 -56 -20 -29 -25 -45 -18 -52 8 -8 13 -7 18 2 6 8 4 10 -5 4 -8 -5 -11
-3 -8 6 3 8 10 14 16 14 15 0 27 14 27 33 0 9 7 17 15 17 8 0 15 9 15 20 0 11
7 20 15 20 8 0 14 8 12 17 -1 9 3 20 9 24 8 5 10 3 4 -7 -7 -12 -5 -12 6 -1 8
7 14 20 14 30 0 9 6 18 13 18 6 1 14 2 17 3 3 0 -1 14 -9 30 -9 16 -12 31 -9
35 4 3 3 6 0 6 -4 0 -8 -3 -8 -7z"/>
<path d="M2060 1580 c-13 -8 -13 -10 2 -10 9 0 20 5 23 10 8 13 -5 13 -25 0z"/>
<path d="M1735 1510 c-10 -11 -15 -23 -12 -27 4 -3 7 -1 7 5 0 7 5 11 11 10 6
-2 13 5 14 15 4 22 2 21 -20 -3z"/>
<path d="M1720 1455 c-20 -24 -6 -28 15 -5 10 11 13 20 8 20 -6 0 -16 -7 -23
-15z"/>
<path d="M610 1211 c0 -5 7 -12 16 -15 24 -9 27 -7 10 9 -17 17 -26 19 -26 6z"/>
<path d="M856 1134 c-9 -24 -8 -26 14 -14 11 6 18 15 15 21 -9 14 -22 11 -29
-7z"/>
<path d="M881 1101 c-7 -5 -11 -15 -9 -22 3 -10 8 -7 17 9 13 24 12 26 -8 13z"/>
<path d="M710 1028 c0 -15 -5 -29 -10 -31 -6 -3 -5 -4 2 -3 21 4 34 34 20 48
-9 9 -12 7 -12 -14z"/>
<path d="M960 1034 c0 -8 5 -12 10 -9 6 3 10 10 10 16 0 5 -4 9 -10 9 -5 0
-10 -7 -10 -16z"/>
<path d="M1058 1005 c2 -15 13 -32 23 -38 11 -7 19 -15 19 -20 0 -4 -5 -5 -11
-1 -7 4 -10 1 -7 -7 3 -8 12 -13 22 -11 9 2 16 -2 16 -8 0 -5 -4 -10 -10 -10
-5 0 -7 -7 -4 -15 4 -8 1 -22 -5 -29 -12 -14 -9 -18 19 -28 12 -4 17 2 18 25
2 17 6 34 10 37 12 9 14 43 3 35 -6 -3 -11 -14 -11 -23 0 -9 -9 2 -19 24 -11
23 -25 46 -33 50 -7 5 -13 15 -13 23 0 8 -5 16 -11 18 -7 2 -10 -6 -6 -22z"/>
<path d="M1026 975 c-4 -14 -11 -23 -16 -20 -6 3 -10 -1 -10 -9 0 -9 4 -16 9
-16 13 0 41 59 31 65 -4 3 -11 -7 -14 -20z"/>
<path d="M1116 971 c21 -35 26 -35 16 0 -4 13 -13 25 -20 27 -10 2 -9 -6 4
-27z"/>
<path d="M875 950 c-3 -5 1 -10 9 -10 9 0 16 5 16 10 0 6 -4 10 -9 10 -6 0
-13 -4 -16 -10z"/>
<path d="M933 945 c-13 -6 -20 -15 -16 -19 4 -4 1 -11 -7 -16 -13 -8 -12 -12
4 -27 14 -14 18 -14 14 -3 -3 8 1 21 8 28 11 10 14 10 14 1 0 -7 3 -9 6 -6 4
4 1 13 -6 22 -10 12 -10 15 4 15 9 0 16 -7 16 -16 0 -8 5 -12 10 -9 17 10 11
41 -7 41 -10 1 -28 -4 -40 -11z"/>
<path d="M840 930 c0 -13 18 -22 24 -11 3 5 -1 11 -9 15 -8 3 -15 1 -15 -4z"/>
<path d="M785 920 c-3 -5 -1 -10 6 -10 7 0 9 -9 6 -22 -4 -12 -1 -29 6 -37 11
-14 10 -14 -5 -2 -12 9 -18 10 -18 2 0 -6 5 -11 10 -11 6 0 12 0 15 0 3 0 5 3
6 8 0 4 5 13 11 20 8 9 6 17 -6 30 -9 10 -13 22 -9 25 3 4 1 7 -5 7 -6 0 -14
-4 -17 -10z"/>
<path d="M711 915 c0 -5 3 -16 8 -23 7 -11 9 -10 14 3 4 9 3 14 -2 10 -5 -3
-12 1 -14 7 -3 7 -6 9 -6 3z"/>
<path d="M406 891 c-4 -6 -3 -11 3 -11 5 0 11 -10 13 -22 2 -12 9 -23 16 -24
7 -1 8 0 2 3 -5 2 -10 12 -10 21 0 25 -16 47 -24 33z"/>
<path d="M2470 855 c0 -9 6 -12 15 -9 8 4 12 10 9 15 -8 14 -24 10 -24 -6z"/>
<path d="M928 839 c-10 -10 -14 -19 -10 -19 5 0 17 9 27 20 10 11 14 20 9 19
-5 0 -17 -9 -26 -20z"/>
<path d="M518 843 c6 -2 10 -9 7 -13 -3 -5 -2 -11 3 -14 4 -2 9 4 9 15 1 12
-4 19 -15 18 -11 0 -12 -2 -4 -6z"/>
<path d="M599 837 c6 -8 7 -18 3 -23 -4 -5 -3 -5 2 -1 16 13 15 37 -1 37 -12
0 -13 -3 -4 -13z"/>
<path d="M948 821 c-13 -22 -48 -29 -48 -10 0 5 -5 7 -11 4 -18 -12 -3 -30 24
-30 15 -1 27 2 27 6 0 4 7 15 16 24 9 9 14 18 11 21 -3 3 -12 -3 -19 -15z"/>
<path d="M490 815 c-6 -8 -10 -19 -8 -26 2 -6 9 0 16 15 13 29 10 33 -8 11z"/>
<path d="M1020 817 c0 -10 -8 -21 -17 -25 -10 -4 -19 -18 -20 -32 l-3 -25 14
24 13 24 23 -23 c15 -15 21 -18 17 -7 -3 8 -1 18 6 21 7 2 1 5 -12 5 -18 1
-21 4 -13 14 7 8 7 18 2 27 -8 13 -10 12 -10 -3z"/>
<path d="M1309 823 c-5 -30 -4 -63 3 -63 4 0 8 16 8 35 0 30 -8 49 -11 28z"/>
<path d="M2466 816 c8 -21 34 -21 33 2 0 11 -2 12 -6 4 -4 -10 -8 -10 -19 -1
-12 10 -13 9 -8 -5z"/>
<path d="M2432 787 c-13 -34 -10 -43 21 -57 20 -10 21 -10 4 3 -15 13 -16 15
-2 21 8 3 15 1 15 -5 0 -6 4 -8 9 -4 5 3 12 -3 14 -12 4 -14 5 -12 6 5 0 12
-6 25 -14 28 -8 4 -15 10 -15 16 0 5 -6 15 -13 23 -11 11 -15 8 -25 -18z"/>
<path d="M343 764 c-16 -16 -17 -34 -2 -34 5 0 8 4 4 9 -3 6 2 14 11 19 9 5
13 12 8 15 -5 3 -15 -1 -21 -9z"/>
<path d="M953 766 c3 -8 -1 -17 -10 -20 -14 -6 -14 -8 3 -21 27 -21 36 -18 28
8 -4 12 -7 28 -7 35 0 6 -5 12 -10 12 -5 0 -7 -6 -4 -14z"/>
<path d="M727 746 c-4 -10 -1 -13 9 -9 15 6 19 23 5 23 -5 0 -11 -7 -14 -14z"/>
<path d="M660 730 c0 -12 8 -12 35 0 18 8 17 9 -7 9 -16 1 -28 -3 -28 -9z"/>
<path d="M737 726 c-13 -10 -15 -16 -6 -22 7 -4 18 1 27 12 14 18 14 18 9 -4
-5 -20 -2 -22 16 -16 32 10 34 14 13 30 -24 17 -36 17 -59 0z"/>
<path d="M2429 701 c-1 -3 -1 -10 0 -15 1 -5 -5 -6 -14 -3 -9 4 -15 1 -15 -8
0 -17 12 -19 26 -5 11 11 44 3 44 -10 0 -5 -9 -7 -20 -5 -13 2 -18 0 -14 -7 4
-7 -2 -8 -17 -3 -22 7 -23 6 -6 -7 11 -8 18 -21 16 -29 -7 -41 34 -67 44 -28
3 12 10 18 16 14 7 -4 11 4 11 20 0 18 -4 25 -13 22 -19 -7 -16 36 3 45 11 5
10 7 -5 7 -16 1 -17 3 -5 11 10 6 5 9 -18 8 -18 -1 -33 -4 -33 -7z m28 -82
c-4 -16 -3 -18 9 -8 18 14 18 0 0 -24 -11 -15 -15 -15 -25 -3 -9 10 -9 16 -1
21 6 4 9 13 6 21 -3 8 0 14 5 14 7 0 9 -9 6 -21z"/>
<path d="M460 682 c0 -6 8 -16 18 -21 15 -9 15 -12 2 -21 -12 -8 -10 -10 10
-8 13 2 25 -2 25 -9 0 -16 7 -21 37 -27 37 -6 32 16 -6 30 -17 6 -32 16 -34
24 -3 9 1 11 12 7 11 -4 15 -3 11 4 -4 6 -14 8 -22 4 -9 -3 -24 2 -34 11 -11
10 -19 12 -19 6z"/>
<path d="M782 681 c-11 -7 -10 -9 3 -14 9 -4 14 -3 10 2 -3 5 1 12 7 14 7 3 9
6 3 6 -5 0 -16 -3 -23 -8z"/>
<path d="M2394 558 c-3 -5 -2 -7 3 -6 4 1 24 -6 43 -16 l35 -19 -25 25 c-26
25 -47 31 -56 16z"/>
<path d="M313 542 c1 -14 5 -18 11 -12 7 7 6 14 -1 21 -9 9 -12 7 -10 -9z"/>
<path d="M2036 486 c3 -9 13 -16 22 -16 8 0 13 1 11 3 -2 1 -12 9 -22 16 -15
12 -17 12 -11 -3z"/>
<path d="M2176 445 c-3 -9 0 -15 9 -15 9 0 12 6 9 15 -4 8 -7 15 -9 15 -2 0
-5 -7 -9 -15z"/>
<path d="M240 429 c-12 -9 -12 -10 4 -5 11 4 23 1 27 -6 4 -7 11 -9 16 -5 4 5
1 12 -7 17 -19 12 -22 12 -40 -1z"/>
<path d="M174 409 c-9 -15 -2 -18 20 -9 17 6 18 7 3 13 -9 3 -19 2 -23 -4z"/>
<path d="M2415 411 c-3 -6 -15 -11 -26 -11 -16 0 -18 -2 -7 -14 7 -8 15 -10
16 -5 2 5 9 6 14 3 6 -4 8 -2 4 4 -3 5 0 12 6 15 7 2 10 7 7 11 -4 4 -10 3
-14 -3z"/>
<path d="M2180 389 c0 -16 -3 -19 -13 -11 -8 7 -17 6 -30 -3 -16 -12 -16 -13
3 -18 11 -3 18 -1 15 3 -3 5 4 8 15 7 12 -1 19 -6 16 -14 -3 -7 -1 -13 3 -13
15 0 22 33 9 42 -10 5 -8 8 5 8 10 0 15 5 12 10 -11 18 -35 10 -35 -11z"/>
<path d="M2280 394 c0 -3 7 -12 15 -20 13 -14 15 -13 15 5 0 12 -6 21 -15 21
-8 0 -15 -3 -15 -6z"/>
<path d="M2343 383 c-7 -2 -13 -12 -13 -21 -1 -25 -23 -49 -40 -45 -13 4 -13
3 0 -6 10 -7 18 -7 27 0 7 6 17 8 22 5 5 -4 13 -1 17 5 4 7 3 9 -4 5 -18 -11
-22 9 -7 37 8 15 13 27 12 26 -1 0 -8 -3 -14 -6z"/>
<path d="M2439 383 c-1 -5 -1 -11 0 -15 0 -5 -3 -8 -7 -8 -4 0 -8 -11 -8 -24
0 -16 5 -23 16 -21 8 2 17 4 20 4 2 1 -1 6 -8 13 -7 7 -12 17 -12 22 0 6 7 0
16 -12 18 -26 31 -28 31 -4 0 25 -16 42 -34 35 -11 -4 -14 -2 -9 5 4 7 5 12 2
12 -3 0 -7 -3 -7 -7z"/>
<path d="M1166 366 c11 -8 83 -44 159 -81 76 -36 149 -74 164 -84 50 -35 378
-201 397 -201 18 1 -120 75 -525 281 -178 91 -247 121 -195 85z"/>
<path d="M145 360 c-4 -6 -11 -8 -16 -5 -5 4 -9 -2 -9 -11 0 -16 1 -16 18 -1
10 10 22 14 27 10 4 -5 5 -2 1 5 -9 15 -13 15 -21 2z"/>
<path d="M1125 341 c-4 -13 -5 -24 -3 -26 1 -2 62 -32 133 -67 72 -35 152 -77
180 -93 204 -121 278 -155 337 -155 l53 0 -65 36 c-36 19 -105 56 -155 81 -49
26 -114 62 -143 80 -29 18 -54 33 -56 33 -2 0 -57 26 -122 57 -65 32 -123 58
-129 58 -5 0 -13 4 -16 9 -4 5 -10 -1 -14 -13z"/>
<path d="M133 315 c-10 -10 -10 -15 0 -23 9 -8 12 -4 13 14 1 13 1 24 0 24 0
-1 -6 -7 -13 -15z"/>
<path d="M2390 320 c0 -6 -6 -8 -12 -4 -7 4 -4 -2 6 -14 21 -24 36 -31 17 -8
-9 11 -9 15 1 18 9 3 9 6 0 12 -7 4 -12 2 -12 -4z"/>
<path d="M2243 292 c0 -9 7 -23 15 -32 13 -13 15 -13 10 0 -3 8 2 21 11 28 9
8 10 11 3 7 -7 -4 -19 -2 -26 4 -9 8 -13 6 -13 -7z"/>
<path d="M2441 296 c-9 -10 -8 -16 4 -26 12 -10 17 -8 25 11 10 23 10 23 6 1
-3 -14 0 -20 6 -15 7 3 8 1 4 -6 -4 -6 -11 -9 -16 -6 -7 4 -7 -14 -1 -67 2
-14 31 4 31 19 0 8 -5 11 -12 7 -7 -5 -8 -3 -2 7 5 8 9 31 10 52 1 32 -2 37
-21 37 -13 0 -28 -6 -34 -14z"/>
<path d="M1100 295 c0 -3 66 -39 148 -80 81 -41 161 -83 177 -93 155 -90 217
-122 239 -122 6 0 -27 21 -74 46 -47 25 -121 67 -165 93 -67 40 -308 161 -321
161 -2 0 -4 -2 -4 -5z"/>
<path d="M2325 274 c9 -7 23 -10 31 -7 9 3 14 -2 14 -13 0 -16 2 -17 10 -4 6
10 6 16 0 18 -6 2 -8 8 -4 13 8 13 -10 11 -24 -3 -7 -7 -12 -8 -12 -2 0 6 -7
11 -16 11 -15 0 -15 -2 1 -13z"/>
<path d="M40 266 c0 -11 -4 -14 -12 -10 -8 5 -9 2 -5 -10 5 -14 3 -17 -8 -12
-17 6 -19 -2 -7 -22 6 -9 14 -2 27 22 11 20 16 38 12 42 -4 4 -7 0 -7 -10z"/>
<path d="M2290 270 c0 -5 4 -10 10 -10 5 0 7 -6 4 -14 -3 -8 -13 -12 -23 -9
-9 2 -23 -2 -30 -11 -11 -13 -10 -15 9 -11 15 3 29 -4 41 -18 10 -12 18 -17
19 -10 0 6 -6 14 -12 17 -7 4 -3 4 10 2 12 -2 20 0 16 5 -10 16 9 9 21 -8 10
-14 10 -21 0 -38 -7 -11 -11 -28 -10 -37 6 -32 -12 -19 -19 13 -3 17 -10 28
-15 25 -5 -3 -12 1 -15 10 -3 8 -10 12 -16 9 -6 -4 -8 -10 -5 -15 8 -13 -21
-20 -34 -7 -8 8 -11 8 -11 -1 0 -6 -7 -9 -17 -5 -12 4 -11 0 5 -11 12 -10 22
-22 22 -27 0 -6 -9 -6 -22 1 -21 10 -21 10 -6 -3 10 -8 14 -18 10 -23 -4 -5 3
0 15 10 13 10 20 22 18 27 -3 4 -1 10 5 14 5 3 10 0 10 -8 0 -22 30 -30 37
-10 5 14 7 13 14 -5 10 -26 48 -26 46 0 -1 10 -6 18 -12 18 -13 0 17 20 31 20
6 0 12 -11 12 -25 0 -13 -5 -22 -9 -19 -5 3 -8 0 -7 -7 2 -7 -7 -15 -20 -18
-13 -3 -23 -11 -23 -16 -1 -21 -16 -38 -23 -26 -4 6 0 14 8 17 17 7 12 24 -6
24 -6 0 -8 -3 -5 -7 4 -3 3 -11 -2 -17 -6 -7 -4 -18 4 -29 11 -15 13 -16 19
-2 3 8 11 15 18 15 9 0 9 -3 -2 -10 -13 -9 -12 -12 4 -25 19 -14 46 -20 46
-11 0 3 -7 12 -17 21 -15 16 -15 17 8 13 13 -1 24 -8 24 -15 0 -20 12 -24 25
-8 10 12 10 15 -3 15 -20 0 -29 15 -33 51 -3 20 1 29 11 29 8 0 12 -6 9 -14
-3 -8 -1 -16 4 -20 14 -8 7 30 -9 50 -12 15 -12 17 0 9 11 -6 13 -4 7 10 -5
14 -4 16 7 7 10 -9 17 -8 27 1 10 10 11 9 5 -2 -12 -21 -14 -71 -3 -71 5 0 6
6 3 13 -4 6 0 4 8 -5 17 -22 27 -23 27 -3 0 8 -4 15 -9 15 -6 0 -9 8 -8 18 1
25 -23 82 -35 82 -6 0 -5 -7 2 -15 15 -19 9 -28 -13 -19 -14 5 -15 10 -5 27 7
12 11 28 9 36 -1 8 2 10 11 5 7 -4 4 2 -6 14 -25 28 -28 28 -20 -4 5 -19 4
-25 -5 -20 -6 4 -9 11 -7 15 3 4 0 13 -6 21 -8 12 -9 12 -4 -2 3 -11 0 -18 -7
-18 -8 0 -6 -4 3 -10 13 -9 13 -10 0 -11 -8 -1 -18 -1 -22 0 -4 0 -5 -7 -2
-17 5 -14 3 -14 -10 2 -9 11 -16 24 -16 29 0 5 -6 4 -14 -2 -11 -9 -15 -8 -20
4 -3 9 -2 13 4 10 6 -3 10 -2 10 2 0 5 -9 14 -20 21 -12 7 -20 8 -20 2z m13
-116 c3 -3 3 -13 0 -21 -5 -12 -7 -12 -14 -1 -15 23 -4 40 14 22z m93 -82 c0
-10 -6 -19 -13 -19 -8 0 -9 6 -2 19 5 10 11 18 12 18 2 0 3 -8 3 -18z"/>
<path d="M2165 190 c-4 -6 -10 -8 -15 -5 -4 3 -13 -1 -19 -9 -8 -10 -8 -16 3
-25 12 -10 18 -7 31 18 14 29 14 44 0 21z"/>
<path d="M1020 176 c0 -6 226 -135 274 -156 81 -34 77 -15 -5 23 -42 19 -115
58 -163 86 -77 46 -106 58 -106 47z"/>
<path d="M2486 172 c-2 -4 -1 -14 5 -22 7 -12 9 -10 9 8 0 23 -5 28 -14 14z"/>
<path d="M991 132 c-8 -15 5 -26 87 -75 89 -53 100 -57 156 -56 51 0 57 2 36
10 -13 6 -74 39 -135 74 -62 36 -117 65 -123 65 -6 0 -16 -8 -21 -18z"/>
<path d="M2167 123 c7 -17 20 -17 20 0 0 8 -6 14 -13 14 -7 0 -10 -6 -7 -14z"/>
<path d="M966 93 c-9 -9 125 -92 149 -93 11 0 -13 20 -55 46 -41 25 -78 48
-81 50 -3 2 -9 1 -13 -3z"/>
<path d="M2255 68 l-30 -31 30 19 c16 10 31 18 34 16 3 -1 6 4 7 13 3 22 -8
18 -41 -17z"/>
<path d="M2464 59 c-3 -5 -15 -7 -27 -3 -22 6 -22 6 -2 -10 22 -17 39 -21 30
-7 -3 5 -1 12 5 16 11 7 13 -5 4 -29 -3 -9 -10 -14 -14 -11 -5 3 -11 1 -15 -5
-7 -11 25 -13 40 -2 17 12 17 49 1 55 -9 4 -18 2 -22 -4z"/>
<path d="M2134 13 c10 -11 36 -12 36 -2 0 5 -10 9 -22 9 -12 0 -18 -3 -14 -7z"/>
</g>
</svg>
