<?xml version="1.0" standalone="no"?>
<!DOCTYPE svg PUBLIC "-//W3C//DTD SVG 20010904//EN"
 "http://www.w3.org/TR/2001/REC-SVG-20010904/DTD/svg10.dtd">
<svg version="1.0" xmlns="http://www.w3.org/2000/svg"
 width="360.000000pt" height="480.000000pt" viewBox="0 0 360.000000 480.000000"
 preserveAspectRatio="xMidYMid meet">
<metadata>
Created by potrace 1.16, written by Peter Selinger 2001-2019
</metadata>
<g transform="translate(0.000000,480.000000) scale(0.100000,-0.100000)"
fill="#000000" stroke="none">
<path d="M0 4658 c0 -107 4 -153 15 -174 8 -16 16 -68 18 -116 3 -55 10 -94
20 -108 l15 -21 10 28 c9 25 11 26 11 6 1 -13 6 -23 11 -23 6 0 9 -3 9 -7 -1
-5 -1 -16 0 -27 1 -15 4 -16 15 -7 11 9 20 10 35 1 18 -9 21 -8 21 10 0 17 4
19 28 14 15 -4 34 -10 42 -14 8 -4 38 -11 65 -14 28 -4 82 -13 120 -21 90 -18
111 -22 160 -29 l40 -5 -40 13 c-22 8 -50 15 -62 15 -12 1 -25 6 -28 11 -3 6
-15 10 -26 10 -11 0 -19 7 -19 18 0 12 -3 13 -8 5 -12 -19 -118 -7 -176 20
-28 14 -59 27 -68 30 -17 6 -16 32 4 74 6 12 9 51 6 87 -4 63 -3 66 18 66 13
0 34 -4 48 -10 14 -5 26 -6 26 -1 0 5 -23 14 -51 21 -37 9 -49 16 -47 29 5 25
95 20 114 -7 12 -17 61 -29 149 -37 6 0 15 -4 21 -7 6 -4 38 -7 73 -6 l62 1
-3 41 c-2 28 -7 40 -17 38 -7 -1 -18 1 -25 7 -6 5 -38 15 -71 22 -49 11 -124
39 -105 39 17 0 271 -59 290 -67 24 -11 70 -10 70 2 0 20 36 14 37 -6 1 -10
-2 -19 -8 -19 -5 0 -9 -7 -9 -16 0 -8 4 -12 10 -9 6 4 10 -6 9 -22 0 -25 -1
-26 -9 -8 -7 16 -9 12 -9 -18 -1 -23 3 -36 9 -32 6 3 10 1 10 -4 0 -6 -4 -11
-10 -11 -5 0 -10 -4 -10 -10 0 -5 9 -10 19 -10 15 0 20 9 23 48 3 26 1 54 -3
62 -4 8 -9 34 -12 57 -4 42 -4 43 22 36 14 -3 31 -9 36 -13 11 -7 93 -15 85
-8 -3 3 -77 24 -165 48 -175 46 -403 109 -505 140 -36 10 -116 22 -177 26
l-113 7 0 -145z m784 -44 c21 -8 21 -24 0 -24 -8 0 -13 4 -10 9 4 5 0 12 -6
14 -7 3 -10 6 -6 6 3 1 13 -2 22 -5z"/>
<path d="M2264 4784 c-18 -8 -40 -23 -50 -32 -11 -9 -69 -50 -129 -91 -61 -41
-126 -87 -145 -103 -19 -15 -38 -28 -43 -28 -5 0 -14 -6 -22 -12 -7 -7 -27
-24 -45 -38 -18 -14 -40 -32 -49 -41 -9 -9 -25 -19 -36 -23 -18 -6 -17 -9 13
-28 l32 -20 0 -161 c0 -240 9 -357 29 -365 9 -3 25 -14 35 -24 11 -10 23 -18
28 -18 4 0 8 -10 8 -22 0 -17 -3 -19 -12 -10 -14 14 -74 16 -82 3 -13 -20 7
-40 42 -44 l37 -4 -37 -1 c-37 -2 -55 -21 -20 -23 10 0 12 -3 5 -6 -9 -3 -10
-10 -3 -23 5 -10 7 -26 4 -34 -4 -12 0 -16 15 -16 12 0 21 -4 21 -10 0 -5 -6
-10 -14 -10 -8 0 -18 -9 -21 -20 -3 -11 -11 -20 -16 -20 -5 0 -9 -9 -9 -20 0
-11 5 -20 10 -20 6 0 10 -12 10 -26 0 -14 4 -23 9 -19 5 3 12 -4 16 -15 3 -11
15 -20 26 -20 12 0 19 -7 19 -20 0 -28 -34 -26 -47 3 -8 17 -10 12 -6 -28 6
-57 34 -95 69 -95 22 0 31 -14 40 -63 20 -111 23 -151 18 -209 -4 -44 -3 -68
4 -68 5 0 12 -6 15 -13 3 -9 -5 -14 -27 -14 -69 -3 -151 -16 -158 -27 -4 -6
-5 -18 -3 -26 5 -17 16 -191 19 -317 1 -50 -2 -84 -9 -87 -5 -3 -4 -5 3 -5 6
-1 12 -12 12 -26 0 -14 5 -25 10 -25 6 0 10 -7 10 -16 0 -8 4 -13 8 -10 4 2
14 1 22 -5 12 -7 10 -9 -7 -9 -13 0 -23 -4 -23 -10 0 -9 29 -12 150 -16 25 0
54 -5 64 -9 13 -6 23 -3 32 9 7 10 17 15 23 11 6 -3 11 -1 11 6 0 9 4 8 13 -2
9 -11 27 -14 71 -11 l58 4 -7 366 c-4 202 -10 369 -15 372 -4 3 -4 14 0 25 4
11 4 30 -1 41 -4 12 -8 55 -9 95 -1 41 -2 106 -3 144 -2 64 0 70 19 73 12 2
29 -4 38 -13 14 -15 16 -63 16 -451 0 -274 -4 -434 -10 -434 -5 0 -11 56 -13
133 -1 82 -3 42 -5 -105 l-2 -237 33 -6 c17 -3 57 -6 87 -8 48 -2 55 -5 58
-23 4 -26 4 -26 -433 -49 -154 -8 -356 -19 -450 -25 -93 -5 -291 -13 -440 -16
-148 -3 -272 -7 -275 -9 -9 -5 -41 11 -41 20 0 6 -8 18 -16 28 -15 16 -15 17
3 18 10 1 37 3 59 5 22 2 89 5 149 6 l109 2 -7 135 c-3 74 -11 140 -17 147 -9
11 -56 14 -215 14 -156 0 -204 3 -204 13 -1 6 -5 56 -9 109 -14 153 -31 141
188 134 356 -12 476 -18 481 -26 3 -4 12 -7 20 -7 28 -1 144 -13 190 -19 25
-3 51 -13 58 -22 10 -13 12 -3 12 59 l0 74 -72 -3 c-40 -1 -262 4 -493 11
-296 9 -422 10 -427 3 -5 -6 -6 -56 -3 -111 14 -269 14 -264 -5 -288 -15 -17
-32 -23 -87 -28 l-68 -6 67 -1 c89 -3 122 -17 113 -51 -4 -15 -10 -48 -13 -76
-7 -49 -8 -50 -47 -57 -22 -4 -81 -7 -131 -7 -50 -1 -119 -4 -153 -7 -61 -7
-61 -7 -60 -38 0 -17 -4 -98 -10 -181 -5 -82 -13 -219 -17 -303 -4 -87 -10
-148 -15 -141 -4 8 -5 32 -2 55 6 47 -6 61 -37 44 -15 -8 -20 -21 -20 -54 0
-38 -3 -45 -25 -50 -13 -3 -30 -16 -36 -29 -11 -20 -16 -150 -7 -202 2 -15 -3
-21 -23 -23 l-26 -3 3 79 c1 44 -1 101 -5 128 -6 32 -9 -43 -10 -220 -1 -252
0 -268 16 -261 18 7 51 14 165 34 31 5 86 19 121 30 36 11 94 23 129 27 34 4
67 9 73 12 5 4 34 8 64 9 30 2 61 9 69 15 10 8 15 9 20 1 11 -18 114 6 119 28
3 11 11 15 21 12 10 -4 13 -2 8 5 -5 8 0 12 13 12 11 0 23 5 26 10 4 6 15 8
26 5 14 -5 22 0 28 17 9 21 10 21 11 3 1 -20 1 -20 15 -1 14 19 15 18 21 -12
9 -43 42 -45 50 -2 6 26 12 30 60 40 30 6 58 9 63 6 5 -4 15 -1 23 6 7 7 40
13 73 14 109 2 255 16 250 24 -3 4 5 8 18 8 56 -1 111 12 127 29 13 15 16 34
12 116 -3 72 -7 97 -17 97 -7 0 -15 -4 -17 -10 -1 -5 -122 -27 -268 -50 -146
-22 -279 -43 -296 -45 -38 -7 -40 -1 -39 135 0 91 1 95 23 98 18 3 22 -1 22
-23 0 -27 0 -27 58 -22 31 4 69 6 85 7 17 0 27 5 27 15 0 17 -75 22 -85 5 -3
-5 -22 -10 -41 -10 -26 0 -34 4 -34 18 0 24 19 42 43 42 36 0 162 42 182 60
15 14 43 20 115 25 102 6 225 20 278 31 30 6 260 -5 237 -12 -5 -1 -28 -5 -50
-9 l-40 -7 30 -13 30 -13 -27 -1 c-28 -1 -40 -21 -13 -21 9 0 15 -9 14 -22 -1
-17 -2 -19 -6 -5 -2 9 -8 17 -12 17 -11 0 -24 -269 -16 -303 5 -17 3 -27 -4
-27 -6 0 -11 -9 -11 -20 0 -11 -5 -20 -10 -20 -6 0 -10 8 -8 17 2 13 -5 17
-29 19 -26 1 -33 -2 -33 -16 0 -10 -3 -27 -7 -37 -6 -17 -6 -17 10 -1 9 9 17
21 17 27 0 6 5 11 11 11 6 0 9 -7 5 -15 -4 -11 3 -15 27 -16 52 -2 89 1 137
10 44 9 105 21 213 41 28 5 90 16 137 24 131 23 298 54 375 70 39 8 126 24
195 36 149 26 323 67 365 85 17 7 65 15 107 18 48 2 86 10 102 20 14 10 38 17
53 17 15 0 53 5 85 12 l58 12 0 1498 0 1498 -652 0 c-569 0 -657 -2 -684 -16z
m-145 -1379 c1 -72 -2 -115 -9 -115 -11 0 -15 62 -11 198 1 17 5 32 9 32 5 0
10 -52 11 -115z m4 -262 c7 -143 7 -537 0 -468 -3 22 -9 43 -14 46 -6 4 -11
94 -13 225 -3 226 2 334 14 334 4 0 10 -61 13 -137z m788 -625 c7 -65 16 -118
20 -118 5 0 9 -9 9 -20 0 -11 -7 -20 -15 -20 -8 0 -15 -9 -15 -20 0 -13 7 -20
20 -20 11 0 20 -2 20 -5 0 -12 -24 -55 -32 -55 -4 0 -8 -4 -8 -10 0 -5 7 -10
15 -10 15 0 16 -9 19 -247 0 -27 -3 -94 -8 -150 -7 -91 -10 -103 -27 -103 -18
0 -19 10 -20 153 0 83 1 249 3 367 1 118 2 271 1 340 0 69 1 105 3 80 2 -25 9
-98 15 -162z m16 60 c-2 -13 -4 -3 -4 22 0 25 2 35 4 23 2 -13 2 -33 0 -45z
m-2087 -39 c0 -10 -4 -19 -9 -19 -12 0 -23 29 -15 41 8 14 24 0 24 -22z m44
15 c7 -19 -2 -37 -15 -29 -12 8 -12 45 0 45 5 0 12 -7 15 -16z m46 -9 c0 -14
-4 -25 -9 -25 -12 0 -23 29 -15 41 10 18 24 9 24 -16z m50 0 c0 -26 -14 -33
-25 -15 -9 14 1 40 15 40 5 0 10 -11 10 -25z m50 -6 c0 -10 -4 -19 -9 -19 -12
0 -23 29 -15 41 8 14 24 0 24 -22z m50 0 c0 -10 -4 -19 -9 -19 -12 0 -23 29
-15 41 8 14 24 0 24 -22z m-370 -5 c0 -14 -4 -23 -10 -19 -5 3 -10 15 -10 26
0 10 5 19 10 19 6 0 10 -12 10 -26z m40 0 c0 -14 -4 -23 -10 -19 -5 3 -10 15
-10 26 0 10 5 19 10 19 6 0 10 -12 10 -26z m43 12 c6 -16 -2 -28 -14 -20 -12
7 -11 34 0 34 5 0 11 -6 14 -14z m-37 -103 c-7 -17 -8 -17 -17 0 -12 21 -2 44
13 29 6 -6 8 -19 4 -29z m44 6 c0 -10 -4 -19 -9 -19 -10 0 -21 36 -14 44 10
10 23 -5 23 -25z m40 5 c0 -14 -4 -23 -10 -19 -5 3 -10 15 -10 26 0 10 5 19
10 19 6 0 10 -12 10 -26z m50 7 c0 -26 -16 -35 -24 -15 -10 25 -7 34 9 34 8 0
15 -9 15 -19z m48 -3 c-2 -13 -7 -23 -13 -23 -5 0 -11 10 -13 23 -2 15 2 22
13 22 11 0 15 -7 13 -22z m47 2 c0 -7 -6 -15 -12 -17 -8 -3 -13 4 -13 17 0 13
5 20 13 18 6 -3 12 -11 12 -18z m50 0 c0 -7 -6 -15 -12 -17 -8 -3 -13 4 -13
17 0 13 5 20 13 18 6 -3 12 -11 12 -18z m50 2 c0 -18 -20 -15 -23 4 -3 10 1
15 10 12 7 -3 13 -10 13 -16z m-370 -10 c0 -18 -20 -15 -23 4 -3 10 1 15 10
12 7 -3 13 -10 13 -16z m131 -99 c-12 -12 -29 15 -21 34 7 17 8 16 18 -5 5
-12 7 -25 3 -29z m46 35 c6 -17 -1 -38 -13 -38 -5 0 -9 11 -9 25 0 26 14 34
22 13z m48 -13 c0 -14 -4 -25 -9 -25 -12 0 -23 29 -15 41 10 18 24 9 24 -16z
m48 -4 c3 -16 -1 -22 -10 -19 -7 3 -15 15 -16 27 -3 16 1 22 10 19 7 -3 15
-15 16 -27z m52 10 c0 -26 -16 -35 -24 -15 -10 25 -7 34 9 34 8 0 15 -9 15
-19z m50 -1 c0 -21 -15 -27 -25 -10 -7 12 2 30 16 30 5 0 9 -9 9 -20z m-370
-21 c0 -10 -4 -19 -10 -19 -5 0 -10 12 -10 26 0 14 4 23 10 19 6 -3 10 -15 10
-26z m40 0 c0 -11 -4 -17 -10 -14 -5 3 -10 15 -10 26 0 11 5 17 10 14 6 -3 10
-15 10 -26z m40 11 c0 -11 -4 -20 -10 -20 -5 0 -10 9 -10 20 0 11 5 20 10 20
6 0 10 -9 10 -20z m-170 -90 c-8 -5 -35 -9 -60 -9 l-45 2 35 7 c19 4 46 8 60
9 20 0 22 -1 10 -9z m-167 -52 c2 -7 3 -27 1 -45 -5 -46 11 -81 38 -85 23 -3
23 -4 26 -166 2 -139 0 -165 -14 -179 -11 -11 -14 -26 -9 -50 5 -26 3 -33 -10
-33 -9 0 -15 -9 -15 -22 0 -43 -14 -50 -110 -60 -51 -5 -95 -6 -98 -3 -10 10
-16 78 -15 170 0 50 1 176 2 282 1 220 -11 200 117 202 57 1 83 -3 87 -11z
m1355 -15 c45 -3 82 -10 82 -16 0 -5 8 -16 18 -23 12 -10 13 -13 3 -14 -8 0
-19 7 -25 16 -9 11 -17 13 -36 5 -19 -7 -20 -10 -7 -10 17 -1 17 -2 3 -17 -19
-19 -19 -18 -1 -54 15 -28 11 -60 -6 -60 -5 0 -9 -7 -9 -16 0 -8 -5 -12 -11
-9 -6 4 -16 -1 -23 -11 -15 -19 -22 -21 -115 -31 -55 -5 -66 -4 -77 12 -12 15
-14 16 -14 3 0 -12 -20 -18 -92 -26 -180 -21 -228 -24 -228 -14 0 21 -30 40
-75 46 -56 9 -70 28 -84 115 -6 36 -9 66 -8 67 10 10 200 22 332 21 116 -2
164 1 173 11 15 13 75 15 200 5z m-723 -86 c0 -26 -20 -25 -23 2 -3 16 1 22
10 19 7 -3 13 -12 13 -21z m-205 -14 c0 -20 -3 -24 -11 -16 -7 7 -9 19 -6 27
10 24 17 19 17 -11z m50 7 c0 -11 -4 -20 -10 -20 -5 0 -10 9 -10 20 0 11 5 20
10 20 6 0 10 -9 10 -20z m50 0 c0 -11 -4 -20 -9 -20 -11 0 -22 26 -14 34 12
12 23 5 23 -14z m50 -1 c0 -18 -2 -19 -15 -9 -8 7 -15 16 -15 21 0 5 7 9 15 9
9 0 15 -9 15 -21z m-190 -4 c0 -8 -4 -15 -10 -15 -5 0 -10 7 -10 15 0 8 5 15
10 15 6 0 10 -7 10 -15z m-251 -310 c0 -31 -2 -36 -9 -20 -5 11 -8 49 -8 85 0
64 1 64 9 20 4 -25 8 -63 8 -85z m337 -35 c11 0 14 -25 14 -118 l0 -118 -79
-13 c-44 -7 -84 -10 -90 -6 -16 9 -15 312 1 317 6 2 41 -11 76 -29 36 -18 71
-33 78 -33z m-406 -264 c0 -53 -3 -66 -17 -70 -44 -12 -235 -37 -249 -32 -12
4 -14 20 -12 68 l3 63 95 16 c52 9 114 17 138 18 l42 1 0 -64z m-332 -60 c3
-51 1 -57 -15 -54 -19 3 -25 38 -15 91 8 47 27 24 30 -37z"/>
<path d="M2903 2440 c0 -25 2 -35 4 -22 2 12 2 32 0 45 -2 12 -4 2 -4 -23z"/>
<path d="M426 1690 c-17 -6 -18 -7 -3 -13 9 -3 19 -2 23 4 9 15 2 18 -20 9z"/>
<path d="M1390 4701 c8 -6 67 -27 130 -46 63 -20 130 -42 148 -50 24 -11 32
-12 32 -2 -1 32 -30 46 -160 76 -121 28 -169 35 -150 22z"/>
<path d="M990 4570 c14 -4 36 -8 50 -8 22 0 22 1 -5 8 -16 4 -39 8 -50 8 -16
0 -15 -2 5 -8z"/>
<path d="M843 4563 c9 -2 23 -2 30 0 6 3 -1 5 -18 5 -16 0 -22 -2 -12 -5z"/>
<path d="M850 4490 c0 -5 11 -10 25 -10 14 0 25 5 25 10 0 6 -11 10 -25 10
-14 0 -25 -4 -25 -10z"/>
<path d="M1187 4451 c-9 -46 -9 -51 6 -51 11 0 25 -37 43 -112 3 -16 13 -28
20 -28 8 0 17 -7 20 -15 4 -8 14 -15 24 -15 11 0 21 -4 25 -9 3 -5 19 -12 35
-16 17 -4 30 -11 30 -16 0 -5 9 -9 20 -9 11 0 20 -5 20 -11 0 -6 6 -9 13 -6
16 5 46 -84 47 -138 0 -36 18 -85 21 -60 1 6 4 -3 8 -20 4 -23 14 -32 39 -40
17 -5 32 -16 33 -25 0 -8 5 -4 10 10 12 28 8 404 -3 416 -10 10 -39 -16 -32
-28 9 -14 -39 2 -49 16 -4 6 -5 22 -1 36 3 14 7 40 7 59 2 32 0 34 -43 46
-124 34 -212 49 -219 36 -4 -6 -15 -9 -23 -6 -9 4 -19 1 -24 -6 -5 -9 -9 -8
-14 6 -5 15 -8 12 -13 -14z"/>
<path d="M260 4440 c0 -6 56 -20 140 -35 28 -5 31 -4 17 5 -22 14 -157 40
-157 30z"/>
<path d="M850 4435 c0 -15 18 -40 24 -34 3 3 -1 14 -9 25 -8 10 -14 15 -15 9z"/>
<path d="M1124 4424 c3 -9 6 -18 6 -20 0 -2 9 -4 20 -4 13 0 20 7 20 20 0 15
-7 20 -26 20 -20 0 -25 -4 -20 -16z"/>
<path d="M801 4380 c-16 -9 -6 -30 15 -30 15 0 20 25 6 34 -4 2 -14 1 -21 -4z"/>
<path d="M1192 4303 c5 -25 28 -28 28 -4 0 12 -6 21 -16 21 -9 0 -14 -7 -12
-17z"/>
<path d="M1443 3823 c4 -6 35 -16 69 -23 35 -7 71 -17 81 -22 13 -7 17 -4 17
12 0 11 -3 20 -7 21 -5 0 -26 2 -48 3 -22 1 -58 6 -79 11 -25 5 -37 4 -33 -2z"/>
<path d="M120 3446 c0 -8 6 -18 13 -23 24 -15 37 -11 37 13 0 19 -5 24 -25 24
-15 0 -25 -6 -25 -14z"/>
<path d="M1604 2580 c0 -102 2 -143 3 -92 2 50 2 134 0 185 -1 50 -3 9 -3 -93z"/>
<path d="M3 1680 c0 -25 2 -35 4 -22 2 12 2 32 0 45 -2 12 -4 2 -4 -23z"/>
</g>
</svg>
