<?xml version="1.0" standalone="no"?>
<!DOCTYPE svg PUBLIC "-//W3C//DTD SVG 20010904//EN"
 "http://www.w3.org/TR/2001/REC-SVG-20010904/DTD/svg10.dtd">
<svg version="1.0" xmlns="http://www.w3.org/2000/svg"
 width="1378.000000pt" height="986.000000pt" viewBox="0 0 1378.000000 986.000000"
 preserveAspectRatio="xMidYMid meet">
<metadata>
Created by potrace 1.16, written by Peter Selinger 2001-2019
</metadata>
<g transform="translate(0.000000,986.000000) scale(0.100000,-0.100000)"
fill="#000000" stroke="none">
<path d="M0 9799 l0 -62 76 7 c51 4 81 11 88 21 9 13 55 15 311 16 327 1 697
-10 705 -21 8 -12 321 -20 738 -20 334 -1 398 2 424 15 36 18 58 19 58 4 0
-12 166 -7 310 11 117 14 361 10 382 -7 8 -7 72 -15 158 -19 119 -5 149 -10
165 -25 31 -27 73 -41 95 -29 10 5 35 11 56 13 24 2 38 8 37 15 -2 7 2 12 7
12 6 0 10 5 10 10 0 6 -18 10 -41 10 -40 0 -78 14 -91 33 -9 15 2 37 18 37 8
0 14 4 14 10 0 12 198 11 206 -1 3 -5 18 -9 33 -9 15 0 32 -5 38 -11 12 -12
97 -8 184 9 62 11 123 -12 114 -43 -24 -75 -23 -79 15 -92 42 -15 116 -17 125
-3 3 6 38 10 76 10 38 0 84 6 102 13 24 9 85 11 232 7 180 -4 204 -7 241 -27
35 -18 46 -20 77 -10 21 7 37 15 37 20 0 4 10 12 23 17 12 6 29 14 37 19 40
22 88 42 120 47 19 4 40 10 45 14 46 35 421 33 492 -2 16 -8 39 -8 78 -1 51 9
55 8 55 -9 0 -11 -6 -31 -14 -46 -13 -25 -20 -60 -17 -89 3 -31 47 -38 259
-43 138 -3 212 -2 212 5 0 7 3 7 8 0 21 -29 62 -37 196 -42 142 -5 337 8 359
25 21 15 99 40 174 55 39 8 76 18 82 21 6 4 35 7 63 7 100 0 255 32 275 57 10
13 10 19 -4 34 -9 10 -13 18 -9 18 4 0 -6 11 -21 24 -15 13 -26 27 -23 30 3 3
75 6 160 8 148 3 156 2 187 -20 l33 -23 39 22 c34 19 47 21 102 14 35 -4 98
-7 139 -7 67 1 227 -8 435 -24 39 -3 75 -10 81 -15 6 -5 14 -6 17 -3 3 4 21 1
39 -5 18 -7 78 -16 133 -21 100 -8 125 -16 305 -97 39 -18 91 -53 102 -68 8
-12 381 -24 386 -12 6 11 57 8 69 -4 7 -7 58 -13 125 -16 256 -8 251 -9 263
50 4 18 16 42 27 54 12 12 26 33 32 45 12 24 44 35 112 37 22 0 44 4 47 7 4 4
44 6 91 5 51 -1 87 2 91 8 3 6 19 11 36 11 16 0 29 4 29 8 0 4 15 14 34 20 26
10 69 10 185 2 83 -5 159 -14 168 -19 10 -5 58 -15 107 -21 49 -6 99 -16 110
-23 15 -8 155 -11 487 -12 356 0 469 -3 481 -12 11 -10 90 -12 322 -11 224 1
310 -2 318 -10 7 -7 22 -12 35 -12 12 0 49 -13 80 -29 32 -16 79 -35 106 -41
26 -7 47 -16 47 -20 0 -11 93 -29 123 -23 15 3 27 11 27 18 0 6 11 17 25 23
14 6 25 16 25 22 0 5 8 10 18 10 10 0 22 4 27 9 10 9 257 22 468 25 l117 1 0
88 0 87 -6890 0 -6890 0 0 -61z"/>
<path d="M6277 7990 c-61 -8 -121 -31 -173 -65 -17 -12 -79 -30 -143 -43 -145
-29 -179 -43 -186 -79 -4 -15 -11 -37 -16 -48 -12 -25 -93 -65 -131 -65 -52 0
-83 -54 -58 -101 14 -25 63 -50 92 -46 19 2 23 -3 23 -27 0 -25 -5 -31 -39
-40 -21 -6 -48 -23 -58 -37 -27 -36 -35 -136 -16 -191 34 -95 41 -151 25 -191
-9 -20 -23 -37 -31 -37 -9 0 -16 -5 -16 -12 0 -6 -10 -22 -21 -34 -30 -31 -38
-91 -29 -193 12 -118 12 -118 53 -152 20 -17 37 -36 37 -44 0 -7 7 -18 15 -25
8 -7 15 -23 15 -35 0 -39 31 -67 73 -67 31 0 40 -5 51 -27 27 -52 46 -138 55
-257 5 -67 16 -137 24 -155 8 -19 20 -64 27 -102 8 -42 23 -81 40 -105 21 -29
28 -53 32 -104 3 -37 13 -76 22 -89 9 -13 16 -30 16 -39 0 -8 6 -26 13 -40 8
-14 17 -41 20 -59 5 -22 25 -51 61 -85 29 -28 58 -61 65 -74 7 -12 18 -74 26
-138 8 -63 20 -124 27 -137 14 -24 15 -176 3 -378 -8 -134 -5 -142 79 -248 82
-103 148 -171 171 -177 23 -6 55 -51 55 -79 0 -9 13 -21 30 -27 18 -6 43 -29
61 -54 16 -24 43 -51 58 -59 32 -16 44 -56 32 -101 -6 -25 -14 -30 -52 -36
-24 -3 -64 -7 -88 -7 -26 -1 -58 -10 -78 -22 -24 -15 -43 -19 -67 -15 -49 9
-96 -3 -96 -25 0 -16 -8 -19 -44 -19 -30 0 -46 5 -50 15 -8 21 -56 39 -70 25
-14 -14 -61 -13 -74 3 -18 23 -32 117 -32 220 0 156 -21 390 -36 403 -7 6 -14
37 -16 69 -3 57 -21 84 -31 46 -3 -13 -17 -21 -46 -26 -24 -4 -48 -16 -59 -29
-22 -29 -54 -46 -85 -46 -13 0 -34 -12 -48 -26 -13 -14 -45 -37 -70 -50 -26
-12 -49 -30 -52 -38 -3 -8 -24 -24 -46 -36 -22 -11 -45 -28 -50 -38 -6 -11
-30 -27 -54 -36 -41 -15 -117 -85 -117 -107 0 -13 -65 -38 -99 -37 -39 1 -64
-19 -58 -48 5 -27 -11 -57 -20 -36 -2 6 -9 12 -15 12 -10 0 -77 -47 -93 -65
-5 -7 -26 -20 -45 -30 -19 -10 -49 -29 -66 -41 -17 -13 -37 -24 -45 -24 -30
-1 -135 -69 -157 -101 -14 -21 -36 -37 -55 -42 -43 -12 -54 -23 -62 -58 -4
-17 -15 -35 -26 -42 -13 -8 -17 -18 -13 -34 4 -14 -1 -34 -11 -50 -12 -18 -14
-28 -7 -31 17 -5 15 -32 -3 -53 -14 -14 -14 -26 -4 -81 13 -70 7 -129 -15
-147 -11 -9 -13 -59 -9 -265 l5 -253 -30 -11 c-26 -9 -34 -20 -50 -74 -11 -35
-23 -108 -27 -163 -4 -55 -11 -111 -17 -124 -14 -37 -17 -91 -22 -328 -3 -117
-7 -216 -9 -220 -3 -5 -8 -57 -11 -118 -9 -154 -16 -195 -32 -195 -8 0 -14 10
-14 25 0 44 -18 27 -25 -25 -7 -52 -25 -69 -25 -25 0 14 -4 25 -10 25 -5 0
-10 -11 -10 -25 0 -20 -5 -25 -25 -25 -20 0 -25 -5 -25 -24 0 -14 5 -28 10
-31 14 -8 13 -45 -1 -45 -6 0 -9 9 -6 20 3 11 2 20 -3 20 -10 0 -20 -52 -20
-106 0 -24 -4 -44 -10 -44 -5 0 -12 -11 -16 -25 -5 -22 -12 -25 -50 -25 -33 0
-46 -4 -51 -17 -8 -23 -23 -33 -49 -33 -18 0 -23 -7 -27 -37 -2 -21 -1 -42 3
-48 10 -15 4 -130 -8 -162 -6 -15 -13 -87 -15 -159 -7 -160 -22 -209 -64 -201
-66 12 -149 39 -166 55 -27 24 -53 80 -61 128 -5 27 -20 54 -47 83 -21 24 -39
47 -39 51 0 4 -8 14 -19 24 -13 12 -24 14 -42 8 -31 -12 -67 11 -85 55 -8 18
-18 33 -23 33 -5 0 -17 17 -27 38 -26 52 -26 232 -1 281 9 19 17 45 17 58 0
16 6 23 20 23 14 0 20 7 20 24 0 13 4 26 10 28 15 5 0 78 -16 78 -8 0 -14 11
-14 25 0 16 -6 25 -15 25 -9 0 -15 9 -15 25 0 17 -5 25 -18 25 -10 0 -24 6
-30 12 -10 10 -17 10 -32 0 -32 -20 -70 8 -170 126 -29 35 -66 70 -81 78 -16
8 -29 20 -29 26 0 6 -7 16 -15 22 -9 6 -18 35 -22 66 -3 30 -10 61 -16 68 -5
7 -15 38 -21 70 l-12 57 -56 9 c-48 7 -64 15 -102 52 -26 24 -50 44 -54 44 -4
0 -12 -8 -19 -19 -6 -10 -21 -21 -32 -24 -18 -4 -20 -2 -15 19 4 15 2 24 -5
24 -6 0 -11 9 -11 20 0 11 -4 20 -9 20 -5 0 -12 17 -16 37 -4 20 -14 42 -23
49 -12 9 -16 36 -20 123 l-5 111 -43 0 c-40 0 -44 -2 -44 -25 0 -14 -4 -25
-10 -25 -5 0 -10 11 -10 25 0 21 -5 25 -30 25 -23 0 -33 -6 -42 -25 -11 -26
-13 -26 -110 -24 -54 1 -100 0 -103 -3 -8 -8 23 -62 51 -89 41 -37 51 -71 43
-136 -4 -32 -8 -107 -8 -168 -1 -62 -8 -138 -17 -175 -9 -36 -17 -99 -19 -140
-1 -41 -8 -118 -14 -170 -6 -52 -15 -156 -20 -230 -6 -81 -16 -150 -25 -172
-9 -20 -18 -58 -20 -85 -8 -99 -19 -159 -32 -180 -26 -42 -82 -22 -86 31 -3
36 -33 35 -36 -1 -4 -51 -22 -56 -177 -48 -77 4 -240 8 -361 10 -212 3 -294
13 -294 37 0 4 -7 8 -16 8 -30 0 -7 25 29 31 69 11 79 40 30 86 -22 21 -25 22
-48 7 -13 -8 -26 -25 -28 -37 l-4 -22 -8 22 c-7 21 -8 20 -36 -10 l-29 -32 6
33 c6 27 4 32 -13 32 -24 0 -26 11 -44 218 -9 96 -17 142 -25 142 -12 0 -25
56 -17 77 3 6 12 14 21 16 15 4 15 5 0 6 -21 1 -24 31 -3 31 18 0 26 46 21
125 -1 33 -4 72 -4 88 -2 27 -3 27 -67 27 -61 0 -65 2 -66 23 -1 20 -2 19 -11
-5 -9 -26 -14 -28 -65 -28 -46 0 -54 -3 -51 -17 2 -14 17 -20 58 -24 45 -5 40
-6 -30 -5 -78 1 -86 3 -95 23 -7 16 -18 23 -37 23 -33 0 -33 0 -8 -45 25 -45
25 -55 -1 -55 -16 0 -19 -3 -12 -12 18 -23 22 -59 8 -64 -7 -3 -19 -20 -25
-37 -7 -18 -16 -41 -21 -52 -4 -11 -11 -60 -14 -109 -3 -48 -8 -92 -11 -98
-13 -21 -45 -167 -51 -232 -9 -105 -41 -125 -135 -84 -22 10 -26 17 -21 40 3
17 1 28 -5 28 -6 0 -14 10 -18 22 l-7 22 -18 -23 c-11 -13 -19 -36 -19 -52 0
-23 -5 -29 -22 -30 -41 -2 -53 2 -70 24 -10 12 -22 27 -27 32 -4 6 -12 29 -16
50 -5 22 -9 42 -10 45 0 3 -6 14 -12 26 -7 11 -15 82 -19 157 l-7 137 -33 0
-34 0 0 -770 0 -770 6890 0 6890 0 0 254 0 253 -23 -4 c-14 -3 -31 2 -41 12
-17 17 -38 17 -123 -1 -26 -5 -33 -3 -33 10 0 9 -16 22 -35 30 -30 13 -35 20
-35 48 0 18 4 38 8 45 5 8 55 15 142 20 l135 8 3 46 3 46 -142 6 c-98 5 -145
11 -151 19 -4 7 -8 36 -8 65 0 34 -5 55 -14 60 -9 5 -16 32 -19 78 -2 39 -11
106 -20 150 -9 44 -21 130 -27 190 -21 220 -32 275 -59 296 -17 14 -27 16 -37
9 -8 -8 -14 -8 -19 0 -11 18 -47 11 -52 -10 -7 -27 -29 -25 -36 2 -3 13 -13
47 -21 77 -25 86 -31 213 -12 249 9 17 21 32 27 34 7 2 14 13 17 24 7 32 2 99
-8 102 -6 2 -10 12 -10 23 0 16 -8 19 -42 20 -24 0 -36 3 -28 6 29 11 50 36
50 60 0 33 -34 67 -59 60 -16 -4 -21 0 -21 14 0 14 -7 19 -25 19 l-26 0 21 23
21 22 -20 3 c-15 2 -21 11 -21 28 0 13 -4 24 -10 24 -5 0 -10 -13 -10 -29 0
-17 -4 -32 -9 -36 -5 -3 -13 -19 -16 -36 -6 -27 -10 -30 -34 -24 -67 17 -80
16 -120 -4 -48 -25 -52 -38 -13 -46 15 -4 41 -12 57 -19 17 -7 52 -19 79 -27
l48 -14 -7 -60 c-9 -70 -9 -150 1 -219 4 -34 3 -51 -6 -56 -8 -5 -10 -15 -5
-26 5 -11 8 -22 7 -25 -1 -5 -1 -25 -3 -215 0 -67 5 -121 16 -158 12 -42 14
-60 6 -70 -7 -8 -12 -56 -12 -117 0 -57 -2 -139 -6 -181 l-6 -78 -93 0 c-84 0
-94 -2 -94 -18 0 -25 -19 -42 -47 -42 -18 0 -23 -6 -23 -25 0 -24 -2 -25 -75
-25 -75 0 -78 2 -74 37 2 17 -53 24 -147 17 -97 -6 -101 -6 -107 15 -4 19 -12
21 -67 21 -63 0 -90 13 -90 44 0 9 -4 16 -10 16 -5 0 -10 -9 -10 -20 0 -11 -4
-20 -10 -20 -5 0 -10 9 -10 20 0 13 -7 20 -20 20 -13 0 -24 10 -30 25 -12 32
-40 33 -40 2 0 -31 -18 -47 -53 -47 -49 0 -53 13 -61 190 -8 189 -32 350 -53
350 -16 0 -18 62 -3 91 7 13 7 19 0 19 -5 0 -10 9 -10 19 0 11 -4 23 -10 26
-5 3 -10 34 -10 68 -1 34 -5 91 -10 127 -5 36 -12 85 -15 110 -6 44 -18 80
-36 110 -5 8 -12 23 -15 33 -4 10 -16 17 -32 17 -24 0 -25 1 -7 14 28 21 12
46 -30 46 -24 0 -35 4 -35 15 0 11 -11 15 -36 15 -31 0 -35 -2 -24 -15 11 -13
7 -15 -24 -15 -20 0 -45 6 -57 13 -17 10 -22 9 -31 -7 -6 -11 -12 -35 -14 -54
-2 -19 -10 -42 -19 -52 -8 -9 -15 -21 -15 -26 -1 -21 -71 -83 -107 -94 -21 -7
-51 -21 -68 -30 -16 -10 -46 -21 -66 -25 -47 -9 -55 -26 -73 -149 -14 -102
-20 -112 -68 -122 -15 -4 -35 -15 -44 -25 -9 -11 -23 -19 -30 -19 -7 0 -18 -9
-24 -20 -6 -11 -20 -20 -30 -20 -11 0 -20 -4 -20 -9 0 -16 -57 -40 -68 -29 -6
6 -12 6 -16 -1 -4 -6 -23 -11 -42 -11 l-34 0 0 -50 c0 -35 -4 -50 -13 -50 -9
0 -18 -27 -27 -80 -8 -48 -18 -80 -26 -80 -6 0 -14 -11 -16 -25 -4 -17 1 -29
18 -42 27 -20 31 -33 10 -33 -9 0 -12 -8 -8 -25 3 -18 0 -25 -12 -25 -11 0
-16 -9 -16 -30 0 -27 -3 -30 -30 -30 -27 0 -30 3 -30 30 0 20 -5 30 -15 30
-17 0 -20 11 -6 26 5 5 5 32 -2 66 -9 51 -13 58 -34 58 -23 0 -23 1 -24 113
-1 235 -15 449 -31 461 -8 6 -20 37 -26 69 -6 32 -23 73 -37 91 -14 18 -32 56
-40 83 -8 27 -24 58 -35 68 -12 11 -20 31 -20 51 0 19 -13 62 -30 96 -18 37
-30 78 -30 102 0 23 -9 55 -20 74 -11 18 -20 45 -20 60 0 15 -7 41 -16 57 -8
17 -22 64 -31 105 -11 53 -23 82 -39 97 -13 12 -25 28 -25 35 -1 7 -3 29 -4
49 -1 20 -18 63 -40 100 -21 35 -42 82 -46 104 -13 68 -30 127 -55 190 -13 33
-24 76 -24 95 0 20 -9 53 -20 74 -13 26 -23 77 -30 155 -21 230 -37 337 -53
368 -9 18 -17 49 -17 70 0 21 -9 55 -20 76 -11 20 -20 54 -20 75 0 21 -5 43
-11 49 -6 6 -12 23 -13 37 -2 15 -13 34 -25 42 -14 10 -21 26 -21 47 0 23 -11
44 -40 76 -22 24 -40 51 -40 61 0 50 -216 168 -325 178 -47 4 -67 11 -94 34
-25 22 -39 28 -60 23 -18 -4 -42 2 -73 19 -57 30 -148 50 -196 41 -30 -5 -45
-1 -75 19 -29 20 -51 26 -91 26 -37 0 -67 7 -100 25 -35 18 -62 25 -105 25
-35 0 -65 6 -77 15 -10 8 -36 15 -58 15 -34 0 -74 8 -236 50 -25 6 -70 17
-100 24 -30 8 -64 17 -75 21 -35 13 -149 65 -175 80 -14 8 -41 22 -60 30 -19
9 -51 25 -71 35 -20 11 -45 20 -55 20 -9 0 -26 8 -36 17 -13 12 -21 14 -29 6
-12 -12 -10 -32 10 -208 40 -332 36 -516 -17 -735 -6 -25 -14 -62 -17 -82 -3
-21 -10 -38 -15 -38 -5 0 -22 -20 -39 -46 -25 -36 -31 -55 -31 -100 0 -29 4
-54 9 -54 16 0 42 -31 35 -42 -4 -6 -24 -7 -48 -4 -34 5 -46 2 -68 -18 -14
-13 -33 -37 -42 -54 -8 -16 -27 -32 -41 -36 -14 -4 -25 -13 -25 -21 0 -8 1
-15 3 -15 22 -1 129 -23 149 -31 24 -10 44 -36 35 -46 -3 -2 -47 -8 -98 -14
-71 -8 -108 -8 -152 2 -38 8 -101 10 -180 7 -67 -3 -131 -2 -142 2 -28 11 -8
17 85 25 41 3 85 13 96 20 12 8 46 15 75 17 53 3 54 4 54 33 0 28 -3 30 -41
35 -23 4 -52 13 -66 22 -13 9 -50 19 -82 23 -44 6 -61 13 -73 31 -8 13 -13 30
-10 38 3 8 0 17 -7 19 -18 7 -8 123 14 162 9 16 27 35 39 41 13 7 32 26 42 44
11 18 33 37 49 43 23 9 31 19 36 47 9 51 29 91 63 124 16 16 33 42 36 58 5 19
21 38 47 55 42 28 71 75 83 133 4 19 18 70 31 113 28 92 32 182 8 191 -28 11
-32 7 -39 -35 -4 -22 -13 -43 -21 -46 -8 -3 -14 -11 -14 -19 0 -23 -45 -21
-73 4 -16 14 -19 13 -43 -9 -19 -18 -27 -20 -33 -11 -6 10 -18 10 -52 3 -60
-14 -62 -14 -45 11 10 14 12 26 6 39 -7 12 -6 19 5 23 10 3 15 19 15 44 0 30
-6 44 -25 58 -17 13 -26 32 -31 64 -4 25 -10 50 -14 55 -16 20 -20 72 -11 120
11 57 14 286 5 387 -4 38 -2 80 5 100 6 18 13 56 17 85 8 73 4 75 -256 94 -85
6 -163 15 -173 21 -15 7 -20 5 -24 -10 -5 -19 -49 -36 -65 -25 -12 6 -10 91 2
114 13 24 25 24 50 -1 15 -15 25 -18 44 -11 13 6 57 7 97 4 55 -4 84 -1 112
11 37 16 50 36 23 36 -7 0 -24 8 -37 18 -17 13 -37 17 -69 14 -25 -2 -56 -3
-70 -3 -14 1 -62 1 -108 1 -89 0 -122 10 -122 39 0 27 49 73 71 66 23 -8 55
51 34 62 -22 13 -83 110 -90 145 -4 18 -16 43 -27 55 -12 12 -18 29 -15 37 4
9 -3 25 -16 37 -22 20 -22 21 -3 35 22 16 47 18 62 5 5 -5 27 -14 49 -21 48
-15 85 -46 85 -72 0 -22 35 -94 50 -103 5 -3 10 -13 10 -22 0 -23 29 -53 45
-47 10 4 12 -7 8 -55 -5 -52 -3 -61 11 -61 9 0 25 -6 36 -12 16 -11 22 -9 34
7 18 23 20 51 6 60 -5 3 -10 17 -10 30 0 18 -4 22 -20 18 -11 -3 -20 0 -20 6
0 6 5 11 10 11 6 0 10 9 10 20 0 11 5 20 10 20 6 0 28 18 50 40 28 28 48 40
68 40 36 0 66 31 57 58 -3 11 -8 31 -10 43 -3 12 -10 26 -16 30 -16 10 0 17
58 25 67 8 109 34 116 71 3 15 5 28 4 29 -1 0 -20 13 -41 27 -30 20 -43 24
-53 16 -17 -15 -142 -12 -160 2 -9 8 -47 10 -129 5 -131 -9 -148 -2 -160 61
-4 19 -9 32 -12 29 -3 -3 -12 4 -20 16 -12 16 -12 23 -4 26 7 2 12 24 12 53 0
38 4 51 18 56 19 7 47 34 79 76 l21 29 -24 45 c-13 25 -24 54 -24 63 0 23 -20
30 -82 30 -44 0 -49 2 -38 15 7 8 20 15 30 15 10 0 31 7 46 15 16 8 40 15 55
15 14 0 29 4 35 9 22 20 191 54 200 39 3 -4 20 -8 38 -8 25 0 38 -7 50 -25 9
-14 23 -25 31 -25 8 0 19 -17 25 -40 6 -21 15 -42 21 -46 6 -3 9 -20 8 -38 -3
-33 23 -97 47 -117 8 -6 14 -23 14 -38 0 -49 20 -101 38 -101 26 0 42 -20 42
-53 0 -20 6 -30 19 -34 14 -3 21 -18 26 -51 4 -26 10 -51 13 -57 12 -19 1
-209 -14 -239 -19 -39 -18 -46 9 -46 22 -1 119 -82 115 -97 -4 -17 15 -59 40
-85 19 -21 35 -28 62 -28 35 0 37 2 52 51 17 51 15 79 -4 79 -6 0 -30 12 -54
28 -62 39 -72 82 -19 82 31 0 36 19 29 98 -8 95 9 248 31 272 13 14 16 29 11
62 -3 24 -10 77 -15 118 -6 41 -13 111 -17 155 -4 57 -13 92 -30 121 -20 36
-24 60 -29 164 -5 130 -10 145 -69 199 -15 15 -26 35 -26 51 0 15 -10 36 -24
49 -14 13 -30 36 -36 52 -10 22 -19 29 -41 29 -15 0 -31 5 -34 10 -3 6 -18 10
-33 10 -15 0 -40 9 -57 20 -16 11 -44 20 -61 20 -17 0 -74 20 -126 45 -53 25
-103 45 -112 45 -9 0 -29 8 -43 18 -23 14 -54 17 -198 19 -93 0 -196 -2 -228
-7z m-254 -218 c17 -2 17 -4 -3 -32 -19 -26 -27 -30 -70 -30 -27 0 -61 5 -77
11 l-28 11 45 23 c41 21 60 23 133 17z m347 -662 c0 -21 -5 -30 -16 -30 -9 0
-13 5 -10 13 3 6 9 20 12 30 9 25 14 21 14 -13z m490 -535 c24 -13 24 -14 5
-20 -11 -4 -30 -11 -41 -17 -16 -7 -29 -6 -53 6 -50 26 -38 44 29 45 19 0 46
-6 60 -14z m-1105 -85 c-5 -8 -11 -8 -17 -2 -6 6 -7 16 -3 22 5 8 11 8 17 2 6
-6 7 -16 3 -22z m799 -931 c8 -69 -1 -167 -17 -187 -9 -11 -17 -7 -40 20 -28
31 -29 36 -25 114 3 87 16 114 53 114 20 0 23 -6 29 -61z m-46 -521 c-4 -27
-23 -34 -32 -13 -8 21 1 35 20 35 10 0 14 -8 12 -22z m472 -1 c0 -23 -23 -37
-61 -37 -40 0 -54 11 -45 35 7 20 106 21 106 2z m-49 -138 l-10 -24 0 26 c-1
14 2 29 6 33 12 12 14 -9 4 -35z m-83 -43 c54 1 66 -12 37 -36 -8 -7 -13 -16
-10 -20 2 -4 -7 -18 -20 -30 -29 -27 -26 -48 12 -86 23 -23 24 -30 19 -87 -3
-34 -9 -147 -12 -252 -3 -104 -10 -194 -15 -199 -5 -6 -9 -16 -9 -23 0 -7 -8
-22 -17 -32 -12 -15 -21 -17 -34 -10 -10 5 -24 6 -32 4 -7 -3 -20 1 -27 10 -7
8 -20 15 -29 15 -9 0 -29 14 -44 31 -24 28 -27 39 -29 118 -4 183 -3 253 5
258 4 2 7 30 7 62 0 45 6 66 26 98 25 38 28 40 55 30 21 -8 34 -8 54 3 l26 14
-23 12 c-14 8 -27 9 -34 3 -7 -6 -19 -2 -34 11 -13 11 -31 20 -40 20 -36 0
-78 69 -56 91 3 2 42 2 88 0 46 -3 107 -5 136 -5z m157 -229 c0 -26 -20 -25
-23 2 -3 16 1 22 10 19 7 -3 13 -12 13 -21z m-372 -919 c40 -21 -14 -53 -61
-37 -12 5 -50 5 -83 0 -80 -11 -94 14 -25 45 33 15 135 10 169 -8z m377 -180
c15 -10 27 -10 56 1 46 17 304 6 330 -14 16 -11 16 -13 -7 -26 -46 -27 -516
-19 -526 8 -3 8 -3 16 -1 18 3 4 54 14 121 24 4 0 16 -4 27 -11z m-352 -33 c7
-14 12 -28 12 -30 0 -5 -61 1 -128 11 -66 10 -18 40 69 43 29 1 38 -4 47 -24z
m-248 -25 c12 -8 9 -10 -13 -10 -16 0 -26 4 -22 10 8 12 16 12 35 0z m780
-160 c8 -11 25 -20 39 -20 13 0 22 -3 18 -6 -3 -3 -72 0 -153 7 -115 10 -149
10 -152 1 -2 -7 -14 -12 -28 -12 -37 0 -18 30 20 31 17 1 42 5 56 9 14 4 61 8
105 9 70 1 83 -2 95 -19z m-546 -15 c8 -21 -21 -31 -115 -39 -55 -5 -79 -4
-84 4 -13 21 10 30 83 33 39 2 74 6 78 10 12 12 32 8 38 -8z m281 -201 c51
-21 33 -39 -29 -30 -36 6 -46 11 -46 27 0 24 24 25 75 3z m-265 -25 c0 -17 -8
-19 -82 -19 -82 1 -83 1 -61 19 17 14 33 18 62 14 22 -3 41 -1 45 5 10 17 36
2 36 -19z m-12 -206 c2 -9 -9 -13 -39 -13 -40 0 -42 1 -23 15 22 17 56 16 62
-2z m-4283 -533 c-3 -5 -13 -10 -21 -10 -8 0 -14 5 -14 10 0 6 9 10 21 10 11
0 17 -4 14 -10z m323 -656 c2 -28 19 -54 88 -130 46 -52 82 -99 79 -104 -3 -6
0 -10 8 -10 7 0 24 -11 37 -24 12 -14 35 -28 50 -31 29 -6 50 -40 50 -79 0
-15 7 -26 20 -29 14 -4 20 -14 20 -35 0 -17 6 -32 15 -36 18 -6 11 -28 -22
-72 -13 -17 -23 -36 -23 -42 0 -7 -8 -20 -17 -30 -10 -9 -23 -28 -29 -42 -10
-22 -19 -25 -69 -28 -55 -3 -101 -22 -118 -49 -4 -7 -17 -13 -27 -13 -11 0
-20 -6 -20 -13 0 -7 -10 -17 -22 -22 -13 -6 -23 -15 -23 -22 0 -6 -3 -15 -7
-19 -5 -4 -8 1 -8 12 0 27 -28 64 -48 64 -31 0 -44 57 -57 253 -7 106 -11 203
-9 217 2 14 6 70 10 125 8 139 39 205 91 197 24 -3 28 -9 31 -38z m10575 -111
c3 -5 2 -23 0 -40 -5 -28 -9 -33 -33 -33 -23 0 -28 5 -32 28 -2 16 -2 34 0 40
4 13 58 17 65 5z m-1833 -49 c0 -31 -2 -35 -15 -24 -8 7 -15 23 -15 36 0 15 6
24 15 24 11 0 15 -11 15 -36z m-6000 -50 c0 -11 -5 -14 -16 -10 -9 3 -37 7
-62 8 l-47 1 55 7 c30 4 58 7 63 8 4 1 7 -5 7 -14z m5983 -89 c-3 -8 -1 -15 4
-15 5 0 16 -13 26 -29 13 -22 16 -44 12 -102 -10 -145 -20 -159 -112 -159
l-63 0 0 30 c0 25 -4 30 -24 30 -19 0 -22 4 -18 25 3 20 0 25 -17 25 -24 0
-27 17 -9 55 7 15 17 24 25 21 8 -4 22 8 35 29 16 28 23 33 34 24 11 -9 14 -7
14 8 0 11 9 28 20 38 16 15 22 15 35 5 8 -7 16 -9 17 -4 0 5 2 14 3 19 2 6 3
14 4 18 0 5 5 6 11 2 5 -3 7 -12 3 -20z m-902 -338 c-4 -61 -11 -59 -11 3 0
29 3 50 7 46 4 -4 6 -26 4 -49z m-10048 -151 c20 -15 23 -67 5 -99 -6 -12 -12
-33 -12 -47 -1 -20 -7 -26 -28 -28 -24 -3 -28 0 -28 20 0 15 -14 36 -36 56
-20 18 -34 39 -32 49 3 15 80 62 103 62 6 0 18 -6 28 -13z m597 -57 c0 -5 -4
-9 -10 -9 -5 0 -10 -11 -10 -25 0 -20 -5 -25 -24 -25 -13 0 -31 -3 -40 -6 -13
-5 -16 2 -16 34 0 40 1 41 38 44 43 4 62 0 62 -13z m255 -9 c-19 -8 -19 -9 3
-9 12 -1 23 -8 23 -16 3 -28 4 -33 12 -41 11 -11 9 -44 -3 -44 -5 0 -10 -9
-10 -21 0 -13 -8 -23 -20 -26 -11 -3 -23 -17 -27 -30 -5 -22 -7 -23 -15 -9 -5
9 -20 16 -34 16 -14 0 -31 5 -38 12 -13 13 -10 55 7 76 7 8 5 18 -5 30 -10 11
-13 24 -8 37 4 11 6 23 3 28 -2 4 26 7 64 6 47 0 62 -3 48 -9z m11430 -4 c8
-8 15 -19 15 -25 0 -15 -636 -15 -645 0 -4 6 -5 12 -3 14 2 2 77 4 168 4 292
2 305 2 308 10 1 4 34 8 72 9 51 2 75 -1 85 -12z m-11224 -21 c3 -28 4 -33 11
-40 3 -4 -1 -27 -9 -52 -13 -36 -18 -42 -25 -29 -5 9 -18 16 -28 16 -11 0 -20
5 -20 10 0 6 -9 10 -19 10 -14 0 -20 9 -23 35 -3 24 0 35 9 35 7 0 13 7 13 15
0 11 12 15 45 15 33 0 45 -4 46 -15z m585 -20 c14 -21 14 -31 4 -77 -7 -29
-21 -61 -31 -71 -9 -10 -21 -42 -25 -71 -6 -41 -9 -46 -14 -26 -4 18 -14 26
-33 28 -21 3 -27 9 -27 27 0 12 -7 25 -15 29 -8 3 -15 15 -15 26 0 12 -4 19
-9 16 -4 -3 -6 6 -3 20 3 15 -1 29 -8 34 -9 6 -9 14 3 36 11 21 27 32 59 40
70 19 96 17 114 -11z m-273 -45 c4 -17 0 -20 -33 -20 -33 0 -37 3 -33 20 4 14
14 20 33 20 19 0 29 -6 33 -20z m-17 -315 c14 -13 11 -15 -28 -14 -24 1 -33 4
-20 6 12 2 22 9 22 14 0 13 9 11 26 -6z m-26 -45 c0 -11 -4 -20 -10 -20 -5 0
-10 9 -10 20 0 11 5 20 10 20 6 0 10 -9 10 -20z m40 0 c0 -11 -4 -20 -10 -20
-5 0 -10 9 -10 20 0 11 5 20 10 20 6 0 10 -9 10 -20z"/>
<path d="M2783 1041 c3 -13 -1 -21 -12 -24 -12 -4 -11 -5 5 -6 30 -2 46 18 29
35 -19 20 -28 17 -22 -5z"/>
<path d="M7465 6444 c-31 -34 -31 -36 2 -52 33 -15 44 -5 46 38 2 43 -16 48
-48 14z"/>
<path d="M5639 6055 c-15 -15 62 -199 87 -209 34 -13 -5 126 -46 165 -15 15
-29 32 -31 38 -3 7 -7 10 -10 6z"/>
<path d="M7160 5613 c1 -47 30 -90 30 -45 1 16 2 16 14 -1 18 -23 28 -8 20 32
-6 26 -11 31 -35 31 -21 0 -29 -5 -29 -17z"/>
<path d="M13017 2626 c-3 -8 -3 -17 0 -20 7 -7 33 13 33 25 0 15 -27 10 -33
-5z"/>
<path d="M13053 2583 c-22 -8 -14 -33 10 -33 30 0 40 10 26 27 -12 14 -16 15
-36 6z"/>
<path d="M1460 2521 c0 -16 20 -23 46 -17 36 9 29 26 -11 26 -19 0 -35 -4 -35
-9z"/>
<path d="M13023 2518 c4 -14 36 -12 52 3 5 5 -4 9 -24 9 -22 0 -31 -4 -28 -12z"/>
<path d="M10676 2325 c4 -9 19 -15 35 -15 19 0 29 5 29 15 0 10 -11 15 -35 15
-26 0 -33 -3 -29 -15z"/>
<path d="M11170 2320 c-10 -7 10 -10 65 -9 54 0 73 3 60 9 -27 12 -107 12
-125 0z"/>
<path d="M1680 1050 c0 -17 7 -20 45 -20 38 0 45 3 45 20 0 17 -7 20 -45 20
-38 0 -45 -3 -45 -20z"/>
</g>
</svg>
