<?xml version="1.0" standalone="no"?>
<!DOCTYPE svg PUBLIC "-//W3C//DTD SVG 20010904//EN"
 "http://www.w3.org/TR/2001/REC-SVG-20010904/DTD/svg10.dtd">
<svg version="1.0" xmlns="http://www.w3.org/2000/svg"
 width="1052.000000pt" height="592.000000pt" viewBox="0 0 1052.000000 592.000000"
 preserveAspectRatio="xMidYMid meet">
<metadata>
Created by potrace 1.16, written by Peter Selinger 2001-2019
</metadata>
<g transform="translate(0.000000,592.000000) scale(0.100000,-0.100000)"
fill="#000000" stroke="none">
<path d="M1 3953 c1 -1083 4 -1958 6 -1945 4 22 7 22 146 22 238 0 626 -34
917 -81 171 -27 167 -26 141 -53 -12 -12 -21 -27 -21 -33 0 -21 66 -117 136
-197 54 -62 87 -90 140 -118 38 -20 75 -37 82 -37 15 -1 31 -16 53 -51 l16
-25 -141 0 c-168 -1 -196 -6 -196 -38 0 -29 22 -50 125 -120 44 -30 79 -58 78
-63 -1 -5 -4 -17 -8 -26 -6 -15 1 -16 69 -13 41 2 80 6 85 10 6 3 11 1 11 -4
0 -6 -7 -11 -15 -11 -11 0 -14 -7 -9 -25 7 -29 1 -31 -131 -40 -49 -3 -94 -10
-99 -15 -5 -5 -4 -22 4 -40 8 -20 9 -35 3 -41 -13 -13 -81 18 -123 59 -19 17
-43 35 -53 38 -9 3 -17 9 -17 14 0 5 8 14 17 19 15 9 13 10 -12 11 -16 0 -56
9 -89 20 -64 22 -193 21 -277 -1 -24 -6 -61 -13 -81 -16 -34 -5 -38 -3 -38 18
0 12 9 32 19 43 23 24 85 146 78 152 -3 3 -18 -15 -33 -40 -26 -41 -33 -45
-66 -44 -21 1 -39 7 -42 15 -4 8 -23 13 -59 13 -33 0 -60 6 -73 16 -18 14 -16
15 24 11 23 -3 42 -1 42 4 0 5 8 4 18 -2 14 -9 32 -8 76 5 32 10 56 19 53 22
-7 7 -257 10 -260 3 -1 -4 -107 -10 -236 -13 -128 -3 -237 -8 -241 -11 -5 -3
-11 7 -13 22 -2 16 -5 -107 -6 -272 l-1 -300 117 7 c192 10 348 9 337 -2 -11
-11 -417 -35 -440 -26 -12 5 -14 -58 -14 -384 l0 -390 5260 0 5260 0 0 60 0
60 -3690 0 c-2750 0 -3690 3 -3690 11 0 11 -15 11 -230 -7 -64 -5 -330 9 -330
17 0 5 8 9 17 9 9 0 30 4 47 10 17 5 44 12 61 15 26 6 28 8 12 17 -11 6 -69 8
-139 6 -85 -2 -122 0 -125 8 -5 15 63 25 172 25 83 1 125 13 125 36 0 9 18 13
63 14 63 1 137 16 90 18 -12 1 -24 5 -27 10 -3 5 -14 8 -24 6 -73 -15 -91 -13
-118 10 -16 13 -25 28 -20 32 4 4 47 8 96 8 66 0 86 -3 83 -12 -3 -7 -9 -13
-15 -13 -5 0 -6 -4 -3 -10 3 -5 22 -10 40 -10 26 0 33 -4 29 -14 -4 -11 4 -16
28 -20 62 -10 166 -15 187 -9 27 7 22 27 -8 31 -13 2 -21 9 -18 16 3 7 1 19
-3 26 -7 12 -11 12 -25 0 -12 -10 -13 -15 -3 -21 10 -6 9 -9 -3 -14 -28 -11
-72 -10 -76 1 -2 7 5 10 20 7 14 -3 28 0 31 6 5 7 -5 11 -26 11 -18 0 -57 3
-87 7 -47 5 -52 8 -37 19 14 10 15 16 6 33 -6 12 -20 21 -30 21 -11 0 -20 5
-20 10 0 6 -7 10 -15 10 -8 0 -15 6 -15 13 0 8 -4 7 -10 -3 -5 -8 -10 -10 -10
-4 0 7 -6 14 -13 17 -10 4 -13 -2 -9 -19 3 -18 11 -24 31 -24 25 -1 25 -1 7
-15 -30 -22 -77 -19 -83 5 -3 13 -14 20 -28 20 -39 0 -81 23 -77 42 4 18 12
20 130 21 47 1 48 1 27 50 -18 43 -19 50 -5 42 6 -3 10 -3 10 2 0 4 14 9 32
10 17 1 36 7 42 13 5 5 18 10 28 10 9 0 21 7 26 17 6 9 16 14 25 10 21 -8 88
14 110 36 14 14 26 16 55 11 46 -8 62 -21 42 -34 -12 -7 -12 -12 -2 -22 17
-17 15 -28 -4 -28 -23 0 -11 -25 12 -25 23 -1 97 38 102 54 2 6 -3 11 -12 11
-19 0 -63 43 -68 67 -3 19 -40 24 -70 10 -39 -17 -1323 -6 -1341 12 -6 6 -18
11 -26 12 -9 0 -4 6 11 12 32 15 68 46 68 61 0 6 12 21 27 33 25 22 36 23 187
25 89 1 181 2 206 1 25 -1 203 -3 397 -5 193 -2 355 -6 359 -11 17 -16 19 -2
16 104 -3 105 -2 111 17 116 24 6 22 -17 25 383 1 118 5 234 9 258 6 31 4 48
-5 59 -9 11 -9 17 -2 20 7 2 10 38 8 102 -2 53 4 291 11 527 23 698 27 776 42
804 7 14 13 35 13 48 l0 24 101 -8 101 -7 -4 24 c-3 21 -9 24 -53 27 -73 3
-116 12 -110 22 3 4 0 10 -7 12 -6 2 -8 10 -4 16 5 8 37 12 91 12 100 0 91
-15 100 170 3 69 8 138 12 154 5 24 3 28 -10 23 -12 -5 -19 2 -26 26 -7 26 -9
14 -10 -60 -1 -50 -5 -94 -10 -97 -5 -3 -8 11 -7 32 1 20 -1 48 -4 62 -5 18
-9 5 -14 -47 -7 -67 -9 -72 -27 -62 -13 6 -19 6 -19 -1 0 -5 -4 -10 -10 -10
-5 0 -10 10 -10 23 0 30 -24 64 -34 49 -23 -37 -48 15 -62 128 -10 88 -50 192
-121 313 -6 11 -41 57 -77 103 -101 126 -233 214 -461 305 -56 22 -58 24 -29
27 38 4 167 -44 245 -90 30 -18 68 -40 84 -48 48 -25 230 -211 274 -280 22
-36 41 -58 41 -50 0 25 -75 132 -146 208 -110 119 -269 221 -425 272 -81 26
-99 37 -80 49 28 18 227 -54 305 -112 17 -12 44 -29 60 -37 45 -23 166 -130
235 -209 35 -39 70 -71 76 -71 7 0 16 -15 19 -33 4 -21 15 -39 30 -47 16 -8
32 -34 47 -72 12 -32 26 -61 30 -64 17 -10 9 37 -16 88 -13 28 -27 66 -31 84
-3 18 -12 35 -19 38 -7 2 -28 26 -45 51 -26 38 -30 49 -19 57 10 7 7 7 -9 3
-12 -3 -22 -2 -22 3 0 5 -12 21 -26 35 -15 15 -23 31 -18 38 4 7 3 10 -2 7
-12 -8 -35 17 -26 28 4 4 1 4 -6 0 -8 -5 -32 10 -64 39 -29 26 -66 53 -82 62
-17 9 -33 19 -36 23 -3 4 -15 12 -28 19 -12 7 -20 16 -17 20 3 5 -7 12 -23 16
-15 3 -47 16 -72 28 -25 12 -81 33 -125 48 -74 25 -79 28 -80 55 l0 29 140 -1
c77 0 169 -6 205 -12 36 -7 132 -14 214 -17 98 -3 158 -9 176 -19 21 -10 31
-11 40 -2 9 8 25 -4 66 -49 50 -56 54 -63 54 -112 0 -29 4 -53 9 -53 21 0 41
13 41 26 0 20 39 41 91 48 54 8 169 -8 209 -29 27 -14 27 -15 34 -152 3 -76 9
-259 11 -408 3 -148 8 -285 11 -302 3 -23 1 -33 -8 -33 -9 0 -9 -3 2 -10 12
-7 8 -11 -18 -16 -34 -7 -33 -19 3 -26 18 -3 19 -12 20 -148 l0 -144 93 3 92
3 -5 -234 c-9 -368 -27 -1495 -25 -1578 2 -104 -19 -291 -36 -317 -8 -12 -11
-29 -8 -37 4 -11 0 -16 -15 -16 -12 0 -21 -4 -21 -9 0 -5 9 -7 20 -4 11 3 31
2 45 -1 24 -6 24 -9 27 -114 l3 -107 105 0 c58 0 187 3 288 7 100 3 182 3 182
-1 0 -4 15 -11 32 -16 25 -8 34 -17 39 -40 7 -38 31 -84 64 -123 l26 -31 -33
1 c-70 2 -231 -21 -239 -34 -6 -9 -3 -14 9 -16 9 -2 24 -13 32 -23 16 -20 56
-17 44 2 -3 5 6 9 20 9 14 0 26 -4 26 -9 0 -24 302 -50 515 -45 77 2 217 8
310 13 180 9 1166 6 1323 -4 119 -8 397 20 424 43 23 19 126 25 198 12 128
-22 426 -53 520 -54 111 0 259 7 270 14 17 10 -171 34 -225 27 l-45 -5 32 32
c29 27 33 37 32 78 -1 26 -14 79 -29 118 -29 76 -53 93 -100 72 -25 -12 -35
-5 -50 33 -4 11 -9 15 -12 9 -2 -6 6 -35 17 -64 11 -29 19 -54 17 -57 -3 -2
-12 14 -20 36 -9 21 -26 46 -39 55 -12 9 -17 16 -10 16 8 0 9 7 2 26 -6 14
-10 27 -10 29 0 2 24 1 53 -2 67 -7 148 27 205 86 l40 41 14 -37 c30 -76 40
-134 36 -190 -6 -63 4 -92 53 -154 16 -20 29 -39 29 -42 0 -6 -53 -14 -128
-21 -43 -3 -60 -11 -49 -22 3 -3 49 -7 101 -8 53 0 96 -4 96 -8 0 -5 -4 -8
-10 -8 -5 0 -10 -4 -10 -8 0 -5 62 -12 138 -15 381 -19 536 -28 627 -37 64 -7
183 -8 330 -3 127 5 474 7 772 5 l543 -3 3 -212 c1 -117 3 -52 3 143 0 195 -1
338 -3 318 l-4 -36 -587 -1 -587 0 4 86 c4 110 -19 202 -65 260 -19 23 -34 43
-34 45 0 2 110 2 245 1 236 -3 245 -2 245 16 0 19 -13 20 -307 25 -170 4 -333
7 -363 8 -80 3 -362 -14 -385 -23 -12 -4 32 -8 103 -8 94 -1 123 -4 120 -13
-3 -9 -38 -14 -117 -16 -88 -2 -119 1 -147 14 -34 16 -39 16 -87 -1 -34 -12
-85 -19 -155 -21 -57 -2 -116 -5 -131 -9 -15 -3 -34 0 -45 8 -17 12 -17 15 -2
52 9 21 15 44 12 50 -6 16 -321 29 -347 14 -24 -12 -52 -66 -45 -85 7 -18 -8
-18 -23 0 -13 15 7 59 56 124 l25 33 -11 462 c-7 254 -16 588 -21 742 -5 154
-10 326 -10 381 l0 102 96 31 c80 26 112 31 190 31 102 0 126 13 42 24 -90 10
-143 7 -194 -13 -73 -28 -148 -50 -153 -45 -3 3 0 8 6 12 6 4 12 15 14 26 6
30 225 98 309 95 50 -2 65 1 65 12 0 8 -20 18 -55 26 l-55 12 53 -4 c57 -4 72
10 19 20 -76 15 -189 -1 -287 -38 -97 -37 -144 -47 -123 -26 6 6 9 17 7 24 -3
7 7 17 25 23 30 10 31 14 31 66 0 30 7 83 15 118 8 35 19 104 25 153 18 149
20 156 41 150 25 -8 24 -5 -7 52 -80 145 -205 262 -369 346 -106 54 -145 68
-163 58 -10 -5 -49 -7 -89 -5 -42 3 -74 0 -78 -6 -11 -18 -23 -11 -18 10 4 17
0 20 -25 20 -38 0 -165 -26 -189 -39 -10 -5 -38 -19 -63 -31 -142 -69 -250
-168 -307 -281 -82 -165 -88 -184 -109 -334 -7 -44 -8 -46 -13 -21 -5 26 -7
28 -20 13 -21 -26 -39 -20 -47 16 -4 17 -7 36 -6 40 3 9 -23 37 -33 37 -3 0
-5 -6 -4 -12 1 -7 1 -39 0 -70 -1 -53 -3 -58 -23 -59 l-23 0 23 -9 c17 -7 22
-18 23 -47 1 -21 2 -58 3 -83 l1 -45 56 -3 c57 -3 57 -3 61 -38 4 -33 3 -35
-21 -29 -14 4 -29 11 -32 17 -3 5 -19 8 -35 6 -21 -2 -30 -9 -32 -26 -2 -13 2
-22 10 -23 7 -1 32 -2 56 -4 23 -1 45 -4 47 -7 7 -7 26 -1154 19 -1171 -4 -11
2 -16 17 -19 27 -4 69 -55 183 -222 95 -139 136 -177 197 -181 45 -3 60 -23
33 -46 -18 -15 -18 -35 1 -43 8 -3 15 -14 15 -25 0 -10 -7 -21 -15 -25 -22 -8
-18 -32 8 -51 l22 -16 -24 -20 c-22 -18 -24 -24 -14 -49 12 -33 1 -50 -33 -50
-36 0 -84 -12 -84 -21 0 -5 14 -9 30 -9 30 0 37 -13 21 -39 -7 -11 -25 -12
-85 -6 -53 5 -81 3 -91 -5 -9 -7 -15 -8 -20 0 -3 5 -5 10 -3 11 2 0 11 2 21 4
10 2 30 11 45 21 42 28 5 30 -76 3 -57 -19 -77 -32 -134 -92 -38 -38 -68 -75
-68 -82 0 -7 -6 -18 -14 -24 -8 -7 -17 -25 -21 -39 -11 -53 -47 -84 -106 -95
-75 -12 -439 -21 -439 -10 0 6 -90 8 -215 5 -194 -4 -215 -3 -221 12 -4 9 -4
20 0 23 3 3 95 12 203 20 237 16 434 44 523 73 93 31 176 100 243 202 83 127
116 189 142 274 28 88 31 142 9 199 -8 22 -18 49 -21 60 -11 37 -91 154 -118
171 -69 45 -332 74 -498 55 -79 -9 -98 -16 -180 -62 -50 -29 -86 -54 -80 -56
6 -2 35 10 64 28 52 31 57 31 147 27 61 -4 98 -10 110 -20 9 -8 25 -18 35 -21
10 -4 16 -11 13 -16 -8 -12 44 -21 125 -21 37 0 71 -5 74 -10 4 -6 11 -7 17
-4 7 4 8 2 4 -4 -4 -7 -14 -12 -21 -12 -8 0 -35 -12 -60 -26 -28 -15 -51 -22
-58 -17 -14 10 -38 10 -53 0 -7 -4 -15 0 -18 9 -5 14 -26 11 -26 -4 0 -13 61
-34 86 -29 13 2 24 0 24 -4 0 -5 -7 -9 -15 -9 -8 0 -15 -4 -15 -9 0 -12 -57
-41 -81 -41 -10 0 -21 -12 -28 -30 -10 -30 -34 -40 -46 -20 -7 11 -67 8 -145
-5 -23 -4 -46 -1 -65 9 -36 19 -69 20 -95 4 -16 -10 -24 -10 -40 0 -11 6 -38
12 -60 12 -30 0 -38 3 -34 15 3 8 14 17 25 20 15 5 19 15 17 50 -1 29 -5 42
-12 38 -32 -18 -98 -73 -154 -127 -48 -47 -73 -64 -110 -72 l-47 -12 40 -2 40
-1 -47 -15 c-33 -10 -64 -31 -102 -69 -58 -58 -76 -67 -76 -36 0 42 -71 30
-125 -20 -19 -17 -45 -30 -70 -33 -22 -2 -50 -8 -62 -11 -33 -10 -31 23 2 35
14 5 25 16 25 23 0 27 38 49 89 53 28 2 60 8 72 14 11 7 27 9 35 6 8 -3 30 6
50 19 20 14 43 25 50 25 7 0 15 4 19 10 3 5 -14 7 -45 3 -44 -5 -50 -4 -44 11
3 9 1 16 -5 16 -6 0 -11 4 -11 9 0 5 24 12 53 16 71 10 105 25 181 82 176 131
332 233 436 285 l115 57 -98 -6 c-66 -4 -101 -3 -105 4 -4 6 -6 260 -4 565 l2
554 64 32 c58 29 71 32 160 32 57 0 96 4 96 10 0 6 -6 10 -12 11 -7 0 -53 4
-102 8 l-90 8 -60 -38 c-33 -21 -61 -37 -62 -36 -1 1 0 14 3 29 4 21 21 38 67
65 57 36 67 38 161 43 l100 5 -3 30 c-2 16 -5 31 -6 33 -2 1 -52 5 -113 9
l-110 6 -71 -47 c-39 -25 -75 -46 -79 -46 -4 0 -9 11 -9 25 -1 18 7 30 31 45
l32 20 6 136 c4 76 7 177 7 227 0 73 3 88 14 84 12 -5 12 0 -1 31 -50 120
-114 206 -222 299 -101 87 -136 108 -264 164 -60 26 -111 50 -115 54 -8 9 93
1 123 -9 11 -4 -11 9 -50 28 -38 19 -76 35 -82 35 -7 1 -13 5 -13 10 0 17 112
1 174 -25 33 -14 70 -26 81 -28 33 -5 100 -40 101 -54 3 -25 5 -27 14 -12 8
12 11 12 27 0 28 -23 63 -41 63 -33 -1 31 -189 141 -320 188 -47 17 -85 34
-85 39 0 12 294 20 308 8 7 -5 29 -12 50 -16 23 -4 37 -12 37 -22 0 -11 5 -10
22 6 15 14 34 20 58 18 20 -1 42 2 50 7 16 10 170 13 170 4 0 -4 20 -4 45 -1
40 4 45 2 54 -19 5 -13 19 -33 31 -44 12 -11 29 -33 38 -50 15 -30 15 -30 25
-8 12 28 40 37 67 23 24 -13 57 -5 85 21 27 25 99 30 144 12 31 -13 60 -38 61
-53 0 -3 -62 -6 -137 -5 -148 0 -210 -12 -232 -46 -16 -27 -4 -45 18 -25 32
29 90 46 159 46 102 0 158 -10 183 -33 18 -17 21 -28 17 -74 -3 -30 -1 -56 3
-59 4 -2 20 11 36 31 36 45 53 45 53 1 0 -19 3 -41 6 -50 5 -13 -2 -16 -45
-16 -39 0 -51 -4 -51 -15 0 -12 13 -15 60 -15 33 0 60 -4 60 -10 0 -5 5 -10
12 -10 7 0 6 6 -4 18 -18 20 -33 269 -18 306 8 21 12 22 82 15 81 -9 209 -18
278 -20 63 -2 304 -27 321 -34 10 -4 20 6 31 28 l16 33 -102 12 c-136 15 -283
29 -446 43 -74 6 -143 15 -152 20 -23 13 -188 11 -188 -1 0 -13 -90 -13 -110
0 -13 8 -12 10 3 10 9 0 17 4 17 9 0 5 -46 12 -101 16 l-102 7 -31 -31 c-26
-26 -29 -33 -16 -41 13 -8 12 -11 -4 -23 -16 -12 -22 -12 -33 -1 -21 20 -16
30 39 75 l52 44 90 -3 c50 -2 156 -10 235 -18 150 -16 171 -15 171 11 0 12
-13 15 -62 15 -62 0 -326 24 -402 36 -35 6 -42 3 -80 -34 l-41 -40 -60 8 c-33
5 -92 9 -131 9 -86 1 -107 14 -102 61 3 34 4 35 45 32 33 -2 44 2 52 17 13 24
-2 31 -65 31 l-44 0 0 -55 0 -55 -42 0 c-69 1 -760 58 -958 80 -47 5 -146 14
-220 20 -74 6 -145 13 -157 16 -22 4 -22 5 -19 197 2 105 7 200 11 210 4 9 16
17 27 17 12 0 22 9 25 21 4 16 11 19 27 14 11 -4 41 -9 66 -12 25 -3 47 -9 50
-13 3 -4 82 -10 175 -13 94 -4 171 -7 173 -7 1 0 2 -4 2 -10 0 -5 -11 -10 -25
-10 -22 0 -37 -18 -17 -21 176 -22 362 -31 362 -17 0 13 109 6 240 -15 52 -9
122 -15 155 -15 33 1 71 -4 83 -11 22 -12 47 -56 43 -74 -1 -5 12 -6 27 -2 25
5 33 1 50 -22 16 -22 23 -25 33 -16 8 8 18 9 30 3 10 -6 34 -12 55 -15 21 -2
42 -9 48 -15 5 -5 18 -10 28 -10 10 0 18 -5 18 -11 0 -5 4 -8 9 -5 5 4 12 -8
16 -24 6 -25 9 -29 21 -19 8 6 14 20 14 31 0 39 28 88 50 88 13 0 24 8 27 20
4 15 14 20 39 20 31 0 34 -3 34 -30 0 -16 5 -30 10 -30 6 0 10 13 10 29 0 17
5 33 10 36 6 3 10 20 10 36 0 18 4 28 10 24 6 -3 10 -33 10 -65 0 -32 4 -61 9
-65 8 -4 23 56 26 99 0 5 5 11 12 13 8 3 14 -13 19 -46 5 -42 9 -49 20 -40 8
6 14 24 14 40 0 33 29 41 37 11 3 -14 12 -17 37 -14 30 4 34 1 40 -28 3 -18 6
-48 6 -67 0 -18 6 -49 14 -68 18 -43 11 -48 -58 -40 -56 7 -75 9 -222 21 l-91
7 -52 -39 c-37 -27 -47 -40 -36 -42 9 -2 35 11 57 29 l40 32 82 -11 c44 -6
108 -14 140 -17 33 -3 62 -8 65 -10 13 -14 -18 -17 -104 -8 -53 5 -101 6 -107
2 -23 -14 49 -37 126 -40 75 -3 79 -2 100 24 12 15 29 27 39 27 18 0 23 -20 8
-36 -6 -5 -5 -15 3 -26 9 -13 31 -18 81 -20 48 -2 70 -7 73 -17 4 -12 -9 -13
-72 -7 -65 6 -76 5 -76 -9 0 -12 13 -15 65 -15 40 0 74 -6 88 -14 19 -13 178
-23 237 -16 35 5 167 -12 195 -24 17 -7 64 -16 106 -20 63 -4 79 -3 90 10 25
30 -4 36 -186 39 -56 1 -134 9 -198 22 -17 3 -25 9 -20 14 5 5 48 4 103 -1 96
-11 133 -14 270 -24 41 -3 149 -13 240 -21 91 -8 226 -20 300 -25 74 -6 149
-12 165 -15 47 -6 107 -9 145 -6 60 3 11 20 -76 26 -44 3 -135 10 -204 15
-116 8 -324 27 -550 50 -52 5 -158 15 -234 21 -113 10 -142 16 -155 31 -8 10
-26 18 -38 18 -28 0 -35 25 -31 105 2 35 8 60 16 63 6 2 12 -3 12 -12 0 -20
29 -21 36 -2 6 16 61 32 72 21 4 -4 10 -43 13 -88 l6 -82 1 77 c3 102 3 104
57 100 l45 -4 0 -47 c0 -44 18 -97 21 -61 2 38 7 96 8 108 0 6 7 12 15 12 9 0
15 -21 20 -70 8 -81 26 -85 26 -7 0 57 12 88 25 67 4 -7 8 -41 8 -76 0 -85 21
-79 25 7 3 67 18 100 28 62 6 -21 11 -22 109 -20 57 1 106 -1 109 -4 3 -3 9
-30 14 -60 9 -57 13 -52 27 34 8 50 23 38 31 -26 l7 -52 13 30 c7 17 13 41 14
55 l0 25 19 -24 c18 -23 19 -23 29 -5 9 15 13 17 23 7 7 -7 37 -13 66 -13 52
0 53 -1 53 -29 0 -17 5 -33 10 -36 6 -3 10 3 10 14 0 20 26 41 52 41 17 0 48
-71 48 -112 0 -39 12 -29 15 12 1 16 2 44 3 60 3 39 20 38 34 -1 l11 -32 15
28 c17 33 25 24 37 -39 5 -29 9 -36 16 -25 5 8 9 26 9 41 0 15 4 30 10 33 5 3
10 -1 10 -11 0 -22 29 -43 60 -44 14 0 36 -7 50 -15 14 -8 40 -14 58 -15 33 0
33 0 58 -70 4 -13 6 -13 14 0 6 8 10 26 10 38 0 33 37 83 56 75 19 -7 64 16
64 33 0 6 9 14 20 17 14 4 20 0 20 -13 0 -10 6 -23 14 -29 11 -9 17 -4 29 26
l15 37 12 -59 c17 -82 18 -85 19 -43 1 20 6 49 13 65 10 25 12 26 15 8 3 -11
9 -38 15 -60 11 -38 12 -39 19 -15 4 14 8 41 9 60 l2 35 16 -45 c9 -26 18 -38
20 -29 4 22 49 31 56 12 4 -8 6 -34 6 -57 0 -23 7 -52 17 -65 15 -22 15 -25
-2 -37 -16 -12 -17 -14 -2 -20 11 -4 14 -11 9 -20 -4 -7 -6 -34 -4 -59 4 -50
23 -65 82 -65 16 0 31 -3 33 -8 3 -4 56 -4 118 -1 62 4 119 5 126 2 7 -3 13
-20 13 -39 0 -19 5 -34 11 -34 7 0 10 13 7 34 -4 32 -2 35 29 41 21 4 41 1 55
-9 27 -17 146 -31 184 -22 51 13 8 27 -125 40 -121 12 -152 19 -140 31 3 2 67
-3 143 -11 94 -10 142 -12 149 -5 13 13 -12 19 -153 31 -161 14 -190 19 -183
35 3 9 -7 16 -29 20 -32 6 -33 8 -33 50 1 25 4 47 7 51 4 3 4 12 1 20 -3 8 1
14 10 14 9 0 21 2 29 5 9 4 18 -11 29 -47 l15 -53 8 63 c11 88 42 85 72 -8 10
-30 19 -50 20 -45 1 6 5 32 9 59 8 60 23 50 32 -22 5 -48 26 -65 22 -19 0 12
0 25 1 30 1 4 3 12 4 17 0 6 5 11 11 13 5 1 14 -19 18 -45 10 -51 22 -61 32
-27 5 14 1 25 -12 34 -17 13 -16 14 10 24 34 13 104 15 111 3 3 -5 18 -7 35
-4 46 6 65 -10 67 -58 4 -83 44 -76 44 8 0 26 4 41 10 37 6 -3 10 -25 10 -49
0 -49 7 -61 27 -45 9 9 17 8 28 -1 19 -16 35 -4 36 28 0 15 3 21 6 14 4 -9 8
-10 18 -2 8 6 33 10 57 8 37 -3 43 -6 44 -26 2 -36 14 -39 14 -4 0 34 10 41
30 18 6 -8 18 -12 26 -9 10 3 12 0 8 -10 -6 -17 12 -57 26 -57 5 0 12 9 15 20
7 23 25 27 25 5 0 -18 27 -20 32 -3 3 9 10 8 23 -5 9 -10 24 -16 33 -12 8 3
23 -3 34 -15 16 -16 31 -20 91 -20 40 0 78 -5 84 -11 17 -17 30 -4 37 36 11
56 39 75 100 68 38 -4 56 -11 72 -30 19 -22 24 -23 44 -13 18 10 24 9 34 -5
10 -14 14 -14 23 -3 6 7 13 22 16 33 2 11 5 -9 6 -44 l1 -64 -78 7 c-69 5 -85
3 -142 -19 -70 -28 -166 -33 -273 -15 -32 5 -109 12 -170 15 -62 3 -146 10
-187 15 -99 12 -324 21 -316 12 4 -3 33 -9 64 -13 31 -4 67 -9 80 -12 13 -3
82 -9 155 -12 72 -3 152 -10 176 -16 25 -5 113 -12 196 -14 82 -2 165 -7 183
-11 25 -5 49 0 98 21 60 26 70 27 127 18 l62 -10 -67 -2 c-44 -1 -91 -10 -140
-28 -84 -30 -99 -40 -79 -52 17 -11 52 -1 115 33 55 29 97 33 116 11 7 -8 27
-17 46 -21 31 -6 34 -9 34 -41 0 -28 -3 -33 -17 -29 -10 3 -49 6 -88 8 -62 2
-79 -2 -150 -35 -47 -22 -82 -32 -86 -26 -6 10 -108 20 -409 39 -91 6 -182 13
-204 17 l-39 6 5 -37 c3 -28 1 -36 -12 -36 -9 0 -22 -6 -28 -12 -10 -10 -15
-10 -23 2 -8 11 -12 12 -16 3 -6 -15 -53 -18 -53 -3 0 21 -37 9 -63 -21 -30
-35 -36 -31 -10 7 14 22 14 27 2 35 -22 14 -31 11 -24 -10 7 -23 -12 -38 -51
-39 -79 -2 -278 -86 -334 -142 -3 -3 -38 -34 -77 -69 -40 -34 -73 -69 -73 -77
0 -8 -11 -32 -24 -53 -30 -47 -58 -112 -51 -119 2 -3 12 10 22 28 10 19 33 50
51 69 36 39 36 39 16 -39 -7 -24 -7 -24 13 -7 30 27 33 21 11 -25 -64 -132
-85 -194 -102 -305 -8 -48 -14 -73 -15 -55 -1 42 -12 40 -34 -7 -18 -40 -21
-106 -11 -234 l7 -76 31 -3 31 -3 11 -235 c7 -129 17 -354 24 -500 17 -387 29
-612 33 -616 2 -3 29 7 59 21 42 19 207 59 214 51 1 0 5 -11 8 -23 7 -21 4
-23 -26 -24 -53 -1 -73 -13 -74 -45 -2 -38 -8 -62 -18 -71 -13 -13 -87 -32
-102 -26 -17 6 -54 -24 -54 -43 0 -7 -10 -15 -22 -17 -13 -3 69 -4 182 -4
l205 2 67 32 c37 17 131 72 210 121 79 49 168 102 198 117 l55 28 -35 10 c-36
9 -430 3 -485 -7 -26 -5 -24 -4 7 8 64 25 226 47 418 56 102 5 200 12 218 15
33 8 41 -2 19 -24 -10 -12 -9 -13 7 -7 10 3 59 9 108 13 72 5 91 10 99 25 12
22 87 25 120 6 17 -10 23 -10 26 0 7 17 43 15 65 -5 17 -15 19 -15 32 2 12 16
23 17 121 11 59 -4 112 -9 116 -12 5 -3 8 872 7 1948 -2 1074 -4 1867 -5 1763
l-3 -191 -96 9 -96 8 -72 -37 c-39 -20 -81 -42 -93 -48 -13 -6 -23 -17 -23
-24 0 -21 30 -80 44 -85 6 -3 38 11 70 30 l59 34 103 -7 104 -7 0 -52 0 -51
-52 7 c-106 15 -141 11 -223 -27 l-77 -36 -147 12 c-80 6 -162 18 -181 25 -19
7 -82 18 -140 24 -58 6 -171 18 -252 26 -82 8 -214 22 -295 31 -82 9 -193 16
-248 16 -92 -1 -199 9 -251 24 -16 4 -23 0 -26 -14 -5 -18 -12 -20 -64 -15
-33 3 -70 0 -84 -5 -28 -11 -26 -12 53 -31 73 -17 95 -15 99 12 2 16 11 23 32
25 19 2 26 0 21 -8 -5 -8 11 -9 57 -4 74 7 146 -9 166 -38 10 -13 21 -18 36
-14 11 3 82 -1 156 -9 74 -8 248 -26 385 -40 138 -15 260 -29 272 -31 12 -3
23 -15 25 -26 3 -23 58 -36 58 -15 0 22 39 46 77 48 48 2 178 -18 203 -31 24
-13 67 -13 75 0 3 6 -2 10 -11 10 -28 0 -7 15 71 53 66 32 73 33 130 25 33 -5
77 -10 98 -11 l37 -2 0 -77 c0 -77 0 -78 -26 -78 -17 0 -23 4 -18 13 5 8 4 9
-4 2 -7 -7 -41 -8 -89 -4 -77 6 -80 6 -157 -33 l-79 -40 -86 16 c-47 8 -122
18 -166 21 -44 3 -107 8 -140 10 -73 5 -356 32 -480 45 -49 6 -146 15 -215 21
-69 6 -126 13 -128 14 -7 6 23 43 47 58 l26 15 -25 6 c-14 3 -119 15 -235 26
-314 30 -414 41 -478 49 -56 8 -60 7 -113 -30 l-55 -39 -97 10 c-53 6 -133 14
-177 19 -44 5 -116 12 -160 16 -81 6 -314 29 -640 65 -99 11 -213 22 -252 26
-40 4 -73 9 -73 12 0 3 14 20 31 38 l30 31 -48 6 c-26 3 -100 13 -163 21 -63
8 -167 20 -230 26 -191 19 -383 40 -417 46 -27 5 -33 2 -46 -23 -35 -66 -33
-66 -238 -44 -101 11 -292 30 -425 41 -133 11 -304 29 -380 40 -159 22 -533
60 -591 60 -22 0 -42 3 -46 6 -3 4 0 22 8 41 8 20 15 39 15 43 0 4 -33 10 -72
13 -189 17 -410 38 -476 47 -73 10 -429 50 -442 50 -4 0 -13 -21 -19 -46 -11
-43 -14 -46 -39 -41 -16 3 -152 17 -303 31 -655 61 -866 84 -894 96 -12 5 394
9 958 9 l977 1 0 -55 0 -55 133 0 c118 1 130 2 113 15 -11 8 -28 15 -38 15
-10 0 -18 5 -18 10 0 6 45 11 113 11 61 1 99 4 82 6 -16 2 -84 11 -150 19 -66
8 -124 19 -129 24 -7 7 350 10 984 10 546 0 991 -3 987 -6 -3 -4 2 -23 13 -44
11 -21 16 -40 13 -44 -4 -3 -1 -6 5 -6 22 0 23 22 3 60 l-21 40 50 0 c28 0 50
-4 50 -10 0 -5 -5 -10 -12 -10 -6 0 -9 -2 -6 -5 5 -5 226 -35 259 -35 9 0 22
14 29 30 l12 30 288 0 c162 0 290 -4 292 -9 2 -5 38 -12 81 -16 67 -6 77 -5
77 9 0 13 11 16 55 16 51 0 55 -2 55 -24 0 -20 6 -24 46 -30 26 -3 62 -6 80
-6 31 0 33 2 30 30 -2 20 1 30 10 30 9 0 14 -11 14 -29 0 -17 3 -32 8 -35 4
-2 40 -8 80 -11 l72 -8 0 42 0 41 675 0 675 0 2 -87 c2 -156 4 -163 40 -163
20 0 21 3 14 125 l-8 125 128 0 c100 0 129 -3 138 -15 7 -9 38 -17 79 -21 64
-6 67 -6 67 15 0 12 6 21 15 21 9 0 15 -9 15 -25 0 -18 5 -25 19 -25 10 0 39
-3 65 -6 l46 -7 0 32 0 31 505 0 505 0 0 60 0 60 -5260 0 -5260 0 1 -1967z
m2749 1587 c12 -8 12 -10 -5 -9 -11 0 -29 4 -40 9 -18 8 -18 9 5 9 14 0 32 -4
40 -9z m229 -16 c2 -2 -28 -4 -67 -4 -39 0 -73 4 -77 9 -5 9 134 4 144 -5z
m2941 -202 c0 -13 -58 -77 -64 -71 -7 7 42 79 54 79 6 0 10 -4 10 -8z m510
-53 c23 -5 7 -6 -45 -2 -44 3 -87 9 -95 14 -17 9 88 1 140 -12z m-4641 -123
c-9 -8 -10 2 -5 44 3 30 7 64 8 75 1 11 3 -9 5 -44 3 -41 0 -68 -8 -75z m161
10 c-7 -7 -10 14 -9 60 l1 69 9 -60 c6 -38 5 -63 -1 -69z m606 -23 c3 -46 9
-83 13 -83 5 0 11 36 15 80 7 83 13 110 26 110 9 0 20 -61 20 -113 0 -26 4
-36 11 -31 7 4 9 22 6 48 -8 59 1 86 27 86 12 0 27 -5 34 -12 9 -9 16 -7 32
10 12 12 23 22 25 22 3 0 5 -54 5 -120 l0 -120 -49 0 c-28 0 -53 5 -56 10 -3
6 -36 10 -73 11 -37 0 -87 4 -111 7 l-45 7 3 70 c1 39 4 78 7 88 9 30 34 0 35
-42 1 -20 5 -47 9 -61 7 -21 8 -18 9 18 1 52 20 132 35 151 9 11 12 7 13 -20
2 -19 6 -71 9 -116z m-516 78 c0 -46 -15 -109 -24 -100 -8 8 7 149 15 149 5 0
9 -22 9 -49z m76 24 c3 -14 4 -35 1 -47 -7 -32 6 -101 20 -105 8 -3 14 21 18
75 l7 80 35 -2 c19 -1 37 3 41 8 3 5 9 1 13 -10 7 -18 8 -18 15 4 6 21 34 32
34 13 0 -14 37 -20 49 -8 8 8 11 6 11 -6 0 -9 5 -17 11 -17 5 0 8 -4 4 -9 -3
-6 3 -14 13 -20 15 -8 19 -23 21 -77 l2 -67 -113 7 c-121 7 -333 32 -308 36 8
1 29 3 45 4 50 3 55 11 55 92 0 73 13 99 26 49z m800 -71 c7 -47 14 -52 18
-12 6 47 18 88 26 88 9 0 18 -53 23 -130 l2 -45 14 60 c20 90 20 90 34 76 6
-6 13 -43 15 -82 3 -45 8 -66 13 -58 5 8 9 24 9 36 0 31 21 73 36 73 9 0 13
-26 16 -90 l3 -91 -160 6 c-88 4 -165 8 -170 10 -7 2 -8 32 -4 86 4 46 8 98 8
116 1 29 4 32 39 35 47 4 69 -17 78 -78z m-1099 19 c-3 -10 -5 -4 -5 12 0 17
2 24 5 18 2 -7 2 -21 0 -30z m1700 20 c4 -9 1 -19 -5 -21 -7 -2 -12 -12 -12
-23 0 -14 7 -19 30 -19 17 0 30 3 31 8 0 4 2 17 3 30 3 28 25 54 27 32 1 -8 2
-19 4 -25 1 -5 3 -18 3 -27 1 -10 7 -18 12 -18 6 0 13 8 16 18 3 9 10 28 16
42 11 25 11 25 23 -14 15 -51 27 -55 44 -14 11 30 13 31 21 13 5 -11 9 -47 9
-79 1 -53 12 -73 16 -28 7 73 17 100 40 104 36 7 45 -9 45 -84 0 -50 4 -70 14
-74 8 -3 12 -12 9 -21 -5 -12 -14 -14 -42 -8 -20 4 -65 9 -101 11 -36 3 -95 9
-132 14 -37 6 -90 10 -119 10 l-52 0 5 50 c3 28 12 58 22 68 9 10 16 31 16 45
0 22 5 27 25 27 15 0 28 -7 32 -17z m3483 -58 c30 -2 102 -6 160 -8 119 -6
177 -13 235 -30 22 -6 69 -12 105 -13 103 -3 214 -15 225 -25 5 -5 40 -9 77
-9 38 0 101 -6 141 -14 40 -8 83 -17 97 -19 118 -20 -398 20 -555 43 -38 5
-128 15 -200 20 -71 6 -164 15 -205 20 -41 5 -131 14 -200 21 -69 6 -129 16
-135 21 -9 10 20 9 255 -7z m-6979 -43 c-4 -54 -11 -53 -11 3 0 27 3 45 7 41
4 -4 6 -24 4 -44z m7714 28 c18 -8 18 -9 -5 -8 -14 0 -36 4 -50 8 -24 8 -24 8
5 8 17 0 39 -3 50 -8z m-2845 -10 c0 -5 -7 -10 -15 -10 -8 0 -15 5 -15 10 0 6
7 10 15 10 8 0 15 -4 15 -10z m-3052 -27 c-10 -2 -26 -2 -35 0 -10 3 -2 5 17
5 19 0 27 -2 18 -5z m1374 -2 c13 -5 37 -21 53 -35 19 -16 42 -26 63 -26 30 0
35 -6 31 -36 0 -3 8 -12 18 -20 16 -13 7 -14 -72 -10 -49 3 -99 5 -110 5 -31
1 -56 50 -48 94 6 39 20 45 65 28z m5013 -10 c-8 -14 -85 -54 -91 -48 -3 3 16
19 42 36 46 30 63 34 49 12z m-6475 -32 c0 -5 -13 -9 -30 -9 -35 0 -41 17 -7
22 26 5 37 1 37 -13z m110 -4 c11 -13 6 -15 -33 -15 -44 0 -64 10 -50 24 12
12 71 6 83 -9z m500 -34 c25 -3 43 -11 40 -16 -6 -12 -77 -12 -175 -1 -63 7
-68 9 -50 22 19 14 52 13 185 -5z m-610 -18 c0 -10 -3 -35 -7 -56 -5 -34 -9
-38 -32 -35 -15 2 -25 8 -23 16 1 8 -7 16 -18 19 -11 3 -20 12 -20 19 0 8 -4
14 -8 14 -4 0 -8 9 -8 20 0 18 7 20 58 20 49 0 58 -3 58 -17z m152 -12 c25
-15 55 -20 125 -22 50 -2 90 -6 87 -11 -3 -4 -1 -8 4 -8 6 0 13 7 16 16 5 14
21 15 129 9 72 -4 132 -13 147 -21 31 -17 220 -35 237 -22 6 5 35 8 65 6 l53
-3 4 -55 5 -55 5 55 6 54 48 -3 c27 -1 65 -9 85 -18 28 -12 84 -16 244 -17
181 -2 211 -5 225 -19 16 -16 16 -17 -8 -17 -21 0 -27 -6 -35 -37 l-9 -38 -85
3 c-47 2 -128 7 -180 12 -52 5 -138 12 -190 15 -179 9 -350 26 -523 52 -20 3
-45 2 -54 -1 -15 -6 -15 -8 -2 -22 12 -12 21 -13 44 -4 29 11 50 3 37 -15 -4
-6 -43 -8 -97 -5 -80 4 -87 6 -67 18 32 19 27 32 -13 32 -37 0 -43 -8 -23 -28
9 -9 9 -12 -3 -12 -7 0 -20 4 -28 9 -12 8 -12 12 -2 25 12 14 7 16 -45 16 -33
0 -97 4 -144 10 -47 5 -109 10 -137 12 l-53 3 0 53 0 52 49 0 c31 0 62 -7 83
-19z m1643 4 l60 -13 -82 -1 c-68 -1 -83 2 -83 14 0 18 25 18 105 0z m-726
-10 c75 -4 111 -18 77 -31 -20 -8 -222 9 -232 19 -16 15 10 28 45 22 20 -4 69
-9 110 -10z m931 -10 c0 -6 -7 -10 -15 -9 -8 0 -40 1 -70 2 -30 1 -55 6 -55
11 0 5 32 8 70 7 39 -1 70 -6 70 -11z m95 -5 c3 -5 3 -15 -1 -22 -4 -6 -6 -36
-5 -65 1 -29 0 -56 -3 -61 -4 -6 -95 0 -306 20 -14 1 -31 8 -38 15 -7 7 -22
13 -33 13 -17 0 -20 6 -17 43 3 39 5 42 36 45 21 2 41 -4 58 -17 23 -18 41
-21 120 -21 109 0 124 4 124 36 0 20 5 24 29 24 17 0 33 -4 36 -10z m-471 -26
c9 -3 16 -13 16 -21 0 -13 -14 -14 -92 -10 -105 6 -128 13 -128 34 0 12 15 14
94 9 52 -3 102 -9 110 -12z m6221 -54 c5 -8 -18 -9 -72 -4 -43 4 -80 8 -82 10
-2 2 30 4 72 4 42 0 79 -5 82 -10z m-2911 -26 c3 -9 6 -42 6 -75 0 -46 -3 -59
-15 -59 -12 0 -15 15 -15 75 0 70 10 95 24 59z m-5224 -40 c36 -3 76 -10 90
-15 24 -10 100 -117 100 -142 0 -7 -25 -24 -55 -37 -31 -14 -65 -35 -77 -47
-12 -13 -27 -23 -35 -23 -7 0 -18 -9 -25 -20 -7 -11 -19 -20 -26 -20 -7 0 -29
-16 -49 -35 -20 -19 -40 -35 -45 -35 -5 0 -28 14 -52 32 l-42 32 2 96 c3 102
13 210 22 224 2 5 32 6 66 2 33 -4 90 -9 126 -12z m2625 -8 c8 -7 25 -11 39
-9 18 4 27 -1 36 -17 15 -28 -2 -43 -42 -36 -49 9 -30 -11 20 -22 l47 -10 -51
-1 c-74 -2 -174 10 -174 21 0 5 4 7 8 4 4 -2 14 -1 22 5 12 7 10 9 -8 9 -18 0
-22 4 -17 19 4 15 0 20 -17 23 -13 2 -24 11 -26 22 -4 18 1 19 73 13 43 -4 82
-13 90 -21z m-2382 -18 c14 -8 71 -13 150 -14 204 -2 189 0 185 -31 -3 -25 -7
-28 -38 -27 -19 1 -57 5 -83 9 -48 8 -83 -2 -115 -32 -7 -7 -27 -13 -43 -13
-17 0 -39 -4 -49 -10 -29 -16 -45 -3 -71 58 -13 31 -25 60 -27 64 -6 13 67 9
91 -4z m2020 -18 c87 -5 166 -14 175 -20 14 -7 10 -9 -18 -10 -65 0 -462 38
-468 45 -4 4 29 5 73 1 44 -3 151 -11 238 -16z m2894 -27 c-3 -10 -5 -4 -5 12
0 17 2 24 5 18 2 -7 2 -21 0 -30z m-5400 -106 c-2 -23 -3 -1 -3 48 0 50 1 68
3 42 2 -26 2 -67 0 -90z m5343 116 c0 -13 -8 -18 -29 -18 -16 0 -33 3 -37 8
-8 7 8 11 39 8 9 -1 17 3 17 8 0 6 2 11 5 11 3 0 5 -8 5 -17z m-2885 -23 c14
-6 4 -9 -38 -9 -36 -1 -56 3 -52 9 7 12 62 12 90 0z m-2817 -66 c30 -20 18
-37 -20 -29 -54 12 -62 13 -102 14 -48 1 -38 18 14 24 70 8 86 7 108 -9z
m2827 -30 c8 -3 17 -14 20 -25 4 -10 13 -19 20 -19 8 0 17 -4 20 -10 5 -9 -51
-7 -182 6 -58 6 -62 22 -14 49 25 15 97 14 136 -1z m-1615 -7 c0 -9 -28 -17
-84 -25 -47 -7 -114 -24 -151 -37 -77 -29 -98 -31 -93 -9 8 44 328 113 328 71z
m1885 -147 l0 -155 -25 3 c-52 6 -71 13 -64 24 4 6 7 23 6 39 0 15 5 33 12 39
10 7 12 30 9 81 -6 85 9 132 41 127 20 -3 21 -8 21 -158z m1038 148 l48 1 -3
-42 -3 -42 -45 0 c-25 0 -56 -4 -69 -9 -20 -7 -28 -4 -43 14 -18 22 -19 22
-32 5 -13 -18 -14 -18 -31 -2 -13 13 -15 27 -11 51 l6 34 68 -5 c37 -3 89 -5
115 -5z m3894 -40 c-2 -13 -4 -5 -4 17 -1 22 1 32 4 23 2 -10 2 -28 0 -40z
m-4677 12 c30 -12 59 -26 65 -31 13 -13 25 -11 23 4 -2 8 7 11 27 9 17 -1 80
-4 140 -6 113 -4 146 -8 212 -25 21 -5 55 -10 76 -9 21 0 41 -2 44 -5 14 -14
-13 -25 -79 -31 -148 -13 -383 -100 -458 -170 -41 -39 -114 -81 -107 -62 11
27 -27 19 -58 -14 -15 -16 -32 -27 -37 -24 -4 3 -11 -3 -15 -13 -3 -10 -20
-34 -38 -53 -17 -20 -55 -84 -85 -143 -36 -72 -59 -107 -71 -107 -31 0 -39 23
-34 106 3 43 7 116 9 162 4 93 12 106 80 117 30 6 44 3 67 -14 36 -27 49 -27
21 -1 -21 20 -22 29 -22 174 0 84 3 156 8 160 14 15 175 -2 232 -24z m-3372 5
c12 -12 8 -137 -5 -142 -22 -9 -36 -71 -23 -103 6 -15 11 -43 10 -62 -3 -56
-1 -66 18 -71 9 -3 -14 -4 -53 -4 -52 2 -69 5 -67 15 1 7 -5 34 -13 59 -19 56
-11 104 21 132 41 36 67 125 46 157 -4 7 -27 17 -52 23 -41 10 -38 10 34 6 44
-3 82 -7 84 -10z m1237 -34 c-6 -4 -53 -16 -105 -26 -52 -9 -110 -24 -129 -31
-36 -15 -81 -19 -66 -6 10 8 75 30 155 52 25 7 50 14 55 15 24 8 98 4 90 -4z
m-357 -44 c2 -11 -3 -17 -15 -17 -11 0 -23 -4 -28 -9 -6 -5 -32 -20 -58 -35
-26 -14 -53 -31 -60 -36 -108 -89 -127 -101 -127 -78 0 25 130 128 235 186 27
15 49 11 53 -11z m-1254 -2 c8 -8 26 -15 41 -15 l26 0 -2 -172 c-1 -95 -3
-176 -6 -181 -8 -13 -43 13 -43 32 0 25 -91 202 -123 241 -36 42 -34 55 10 85
43 28 75 32 97 10z m759 -37 c33 -17 94 -78 79 -78 -7 0 -11 -4 -7 -9 3 -6 -3
-15 -14 -20 -11 -6 -23 -21 -27 -33 -4 -13 -10 -25 -14 -28 -14 -9 -100 -123
-100 -132 0 -5 -12 -25 -27 -44 l-27 -36 -12 25 c-20 38 -2 291 23 320 10 12
23 27 28 34 13 16 70 17 98 1z m487 -15 c0 -16 -16 -30 -60 -52 -25 -13 -56
-33 -70 -45 -53 -48 -100 -78 -100 -65 1 8 19 28 41 44 22 17 54 41 71 55 34
27 99 68 111 69 4 1 7 -2 7 -6z m358 -32 c17 -10 -24 -27 -86 -35 -24 -4 -75
-17 -113 -31 -53 -18 -69 -21 -69 -10 0 32 14 44 58 51 26 3 52 10 57 14 22
17 131 25 153 11z m2780 -21 c17 -30 45 -37 122 -32 14 1 35 -3 47 -10 20 -10
21 -13 7 -23 -20 -14 -190 -10 -209 5 -28 23 -237 -23 -354 -78 -64 -30 -91
-48 -176 -113 -53 -41 -145 -138 -145 -153 0 -3 -11 -22 -25 -42 -47 -69 -97
-188 -116 -279 -18 -79 -39 -133 -39 -97 0 18 -21 15 -36 -5 -18 -25 -36 -5
-36 40 0 47 -12 65 -30 46 -8 -8 -18 -21 -21 -29 -8 -19 1 44 19 133 7 38 20
82 29 99 8 17 15 39 15 48 0 14 99 189 121 214 4 4 12 5 18 2 10 -7 -21 -65
-60 -111 -18 -22 -32 -69 -23 -78 9 -9 34 4 34 18 0 14 74 117 129 180 63 72
248 205 285 205 7 0 16 6 19 14 5 13 64 37 152 60 28 8 96 14 153 15 l103 1
17 -30z m1592 -62 c0 -81 0 -81 -20 -63 -16 15 -20 29 -17 69 1 28 6 57 10 64
19 29 27 7 27 -70z m-4650 -8 c0 -4 -21 -18 -46 -30 -25 -13 -82 -49 -125 -81
-53 -39 -79 -54 -79 -43 0 17 66 81 93 90 9 3 17 9 17 14 0 4 19 19 43 33 59
34 97 41 97 17z m-377 -41 c-6 -6 -17 -8 -24 -3 -9 5 -8 9 7 14 23 9 31 3 17
-11z m-30 -15 c3 -4 -5 -21 -18 -39 -14 -17 -25 -36 -25 -42 0 -5 -8 -17 -18
-26 -9 -9 -31 -43 -47 -76 -23 -46 -35 -60 -52 -61 -31 0 -29 20 7 65 17 21
30 46 30 57 0 22 87 128 105 128 7 0 14 -3 18 -6z m51 -52 c-22 -20 -49 -52
-59 -69 -11 -18 -22 -33 -26 -33 -3 0 -14 -18 -24 -40 -10 -22 -22 -40 -26
-40 -5 0 -4 10 1 23 6 12 13 30 16 40 4 9 10 17 15 17 5 0 9 7 9 15 0 8 7 15
15 15 8 0 15 8 15 18 0 23 65 92 87 92 13 0 7 -10 -23 -38z m9076 -33 c0 -11
-57 -12 -126 -2 -28 3 -41 9 -32 12 25 9 158 1 158 -10z m-238 -31 c-28 -12
-42 -24 -38 -33 3 -8 -4 -15 -17 -19 -12 -3 -23 -1 -25 4 -2 6 -10 10 -18 10
-35 0 -9 21 49 39 79 25 105 25 49 -1z m-9442 2 c12 -8 9 -10 -12 -10 -15 0
-30 5 -33 10 -8 13 25 13 45 0z m9050 -25 c69 -3 140 -10 158 -15 19 -5 40 -6
48 -3 8 3 24 -4 35 -16 11 -11 23 -21 27 -21 4 0 20 -20 35 -45 16 -25 32 -45
36 -45 4 0 13 11 19 25 14 31 53 41 93 25 36 -15 122 -7 155 15 23 15 24 14
24 -8 0 -23 -4 -24 -92 -30 -116 -8 -202 -35 -206 -65 -4 -26 5 -28 28 -7 26
23 123 45 200 45 l70 0 0 -1045 0 -1045 -28 0 c-53 0 -182 13 -178 18 3 2 -6
19 -19 37 -14 17 -25 36 -25 40 0 11 -31 45 -41 45 -4 0 -9 -17 -11 -37 -2
-21 -7 -36 -13 -33 -5 3 -9 20 -7 38 l3 33 -83 -7 c-46 -3 -88 -7 -95 -9 -7
-2 -17 -21 -24 -43 -6 -21 -19 -44 -29 -50 -10 -6 -67 -14 -127 -18 l-108 -7
23 26 c15 16 20 27 13 32 -33 20 21 55 87 55 17 0 33 3 35 8 2 4 1 68 -4 142
-42 717 -42 720 -27 724 93 29 219 50 311 52 152 4 158 16 18 32 -66 8 -86 6
-176 -18 -56 -15 -120 -31 -144 -35 -43 -7 -43 -7 -31 16 7 13 14 25 14 26 1
2 54 15 117 31 90 23 134 29 211 27 85 -1 97 1 101 17 9 32 -4 57 -32 62 -72
15 -169 8 -256 -17 -122 -34 -199 -51 -216 -45 -8 3 13 14 46 26 54 20 47 22
-25 7 -24 -5 -24 -4 2 7 22 9 28 20 33 62 8 58 48 188 71 229 8 15 13 31 10
36 -3 5 1 22 9 37 8 16 15 35 15 42 0 15 37 16 42 1 2 -6 14 -9 26 -7 22 3 21
5 -25 97 -77 152 -214 284 -383 371 -61 31 -71 33 -167 33 -75 0 -103 3 -103
12 0 25 -136 -1 -244 -47 -62 -25 -93 -47 -176 -122 -57 -51 -65 -56 -68 -37
-2 12 -10 21 -18 21 -32 0 -8 39 60 99 40 36 84 69 97 75 13 6 26 13 29 17 20
25 127 60 208 69 44 4 77 12 82 20 7 11 13 9 29 -11 11 -13 20 -29 21 -36 0
-7 27 -14 68 -18 37 -4 78 -13 92 -20 14 -7 42 -15 63 -19 21 -4 46 -10 55
-13 9 -3 -6 9 -35 26 -69 41 -78 56 -26 48 47 -8 199 -78 229 -105 11 -11 30
-23 42 -26 12 -4 30 -18 41 -32 10 -13 23 -24 28 -24 6 0 22 -11 38 -26 15
-14 30 -22 34 -19 3 4 -34 45 -84 91 -78 73 -108 93 -224 150 -78 38 -130 69
-124 75 14 14 115 25 168 17 28 -4 106 -10 175 -13z m-9150 -50 c0 -14 -4 -25
-10 -25 -5 0 -10 11 -10 25 0 14 5 25 10 25 6 0 10 -11 10 -25z m-36 -286 c-5
-8 6 -10 33 -8 27 3 40 0 40 -8 0 -9 -18 -13 -56 -12 -41 0 -50 3 -36 9 11 5
16 9 12 9 -9 1 0 21 9 21 3 0 2 -5 -2 -11z m170 -37 c2 -4 -13 -6 -35 -4 -21
2 -39 6 -39 8 0 7 69 4 74 -4z m-74 -42 c0 -5 -7 -10 -15 -10 -8 0 -15 -4 -15
-10 0 -5 -9 -10 -20 -10 -18 0 -19 3 -10 20 11 20 60 29 60 10z m2458 -227
c-16 -2 -40 -2 -55 0 -16 2 -3 4 27 4 30 0 43 -2 28 -4z m792 -43 c0 -11 -70
-11 -115 0 -23 6 -12 8 43 9 42 1 72 -3 72 -9z m-115 -101 c5 -5 19 -9 32 -9
13 0 23 -6 23 -14 0 -21 -140 -10 -157 12 -10 13 -10 18 0 24 14 10 88 1 102
-13z m2650 -21 c-2 -25 -3 -25 -122 -19 -46 2 -53 5 -33 11 14 4 48 9 75 10
38 1 45 4 30 10 -16 7 -13 9 16 9 31 1 35 -2 34 -21z m-632 -25 c-7 -2 -21 -2
-30 0 -10 3 -4 5 12 5 17 0 24 -2 18 -5z m2837 -79 c0 -2 -14 -4 -31 -4 -16 0
-28 4 -25 9 5 8 56 3 56 -5z m-2 -26 c-3 -7 -10 -13 -16 -12 -7 1 -21 2 -32 3
-35 2 -21 21 16 21 24 0 34 -4 32 -12z m-7690 -76 c2 -7 -3 -12 -12 -12 -9 0
-16 7 -16 16 0 17 22 14 28 -4z m-340 -109 c2 -9 -7 -13 -27 -13 -23 0 -29 4
-24 16 6 17 44 15 51 -3z m-43 -73 c3 -5 12 -7 20 -3 9 3 15 -1 15 -11 0 -10
8 -16 22 -16 12 0 19 -3 15 -6 -3 -3 -47 -3 -97 1 l-92 7 28 19 c31 20 79 25
89 9z m108 -77 c11 -6 9 -33 -3 -33 -7 0 -7 -6 0 -19 5 -11 10 -29 10 -41 0
-20 -4 -21 -75 -15 -44 3 -75 2 -75 -4 0 -11 48 -25 79 -22 21 3 23 0 17 -37
-3 -27 -1 -42 7 -45 14 -4 17 -117 2 -117 -5 0 -4 -4 4 -9 11 -7 11 -10 0 -16
-9 -6 -8 -10 7 -16 24 -10 -148 -9 -202 1 -21 4 -30 8 -19 9 16 1 17 3 5 11
-12 8 -12 10 2 15 13 5 15 12 8 31 -8 19 -6 28 8 42 10 10 16 24 14 31 -4 12
34 51 50 51 4 0 8 11 8 25 0 16 -6 25 -15 25 -8 0 -15 4 -15 9 0 5 -9 13 -20
16 -27 8 -25 23 3 27 12 2 22 8 22 13 0 6 -10 11 -22 13 -23 3 -33 32 -12 32
5 0 7 5 4 10 -16 26 9 32 104 25 53 -4 99 -9 104 -12z m312 -63 c-3 -6 4 -10
16 -10 21 0 21 -2 17 -111 -4 -89 -8 -114 -21 -124 -21 -15 -21 -24 -2 -45 10
-11 13 -27 9 -49 l-7 -32 -66 3 -66 3 -3 51 c-2 37 2 56 13 68 13 12 14 20 5
37 -14 26 -3 135 16 163 9 13 10 25 3 38 -9 16 -5 18 41 18 32 0 49 -4 45 -10z
m-312 -355 c20 -8 20 -5 3 -46 -7 -19 -11 -40 -8 -48 5 -16 -17 -122 -30 -136
-11 -13 -10 -55 2 -55 6 0 10 -8 10 -19 0 -10 7 -35 15 -55 l15 -36 -107 1
c-107 1 -302 14 -253 17 l25 2 1 138 c1 77 4 143 7 149 4 6 20 13 37 17 33 6
57 45 36 59 -8 5 -7 10 4 17 16 11 212 6 243 -5z m317 -45 c13 -8 12 -10 -4
-10 -15 0 -16 -3 -6 -15 9 -11 11 -56 5 -185 l-7 -170 -84 0 c-90 0 -109 9
-63 29 17 8 29 20 29 32 0 10 5 19 11 19 6 0 -1 16 -16 35 -26 35 -26 38 -23
155 l3 120 70 0 c39 0 77 -5 85 -10z m-370 -380 c44 -6 29 -7 -70 -7 -69 -1
-138 3 -155 7 -40 10 151 11 225 0z m260 -30 c0 -5 -18 -10 -41 -10 -24 0 -38
4 -34 10 3 6 22 10 41 10 19 0 34 -4 34 -10z m9068 -12 c-6 -18 -28 -21 -28
-4 0 9 7 16 16 16 9 0 14 -5 12 -12z m192 -54 c0 -11 -5 -14 -16 -10 -9 3 -24
6 -35 6 -10 0 -19 5 -19 10 0 6 16 10 35 10 25 0 35 -4 35 -16z m-3825 -130
c14 -15 25 -30 25 -34 0 -4 3 -22 6 -39 7 -32 6 -32 -27 -29 -30 3 -34 7 -41
42 -5 22 -15 47 -23 56 -21 23 -19 30 10 30 15 0 36 -11 50 -26z m863 -173 c2
-1 -3 -8 -12 -16 -17 -17 -42 -20 -51 -6 -7 13 -108 1 -118 -13 -5 -7 -11 -6
-17 6 -7 11 -23 16 -55 16 -45 -1 -46 -2 -40 -30 4 -17 2 -28 -4 -28 -6 0 -11
13 -11 29 0 28 -24 49 -35 31 -3 -5 -12 -7 -20 -4 -43 17 14 23 178 19 100 -2
183 -4 185 -4z m-2142 -16 c-11 -8 -34 -15 -50 -14 -30 1 -30 1 9 14 53 17 64
17 41 0z m2502 6 c10 -6 10 -10 -3 -21 -12 -10 -21 -10 -41 -1 -14 6 -35 11
-47 11 -18 0 -19 2 -7 10 18 12 80 13 98 1z m-533 -50 c3 -5 1 -12 -4 -15 -5
-3 -11 1 -15 9 -6 16 9 21 19 6z m-2121 -38 c4 -9 3 -20 -1 -24 -12 -11 -133
-22 -133 -12 1 41 120 74 134 36z m846 -2 c0 -14 -39 -19 -180 -27 -92 -5
-122 -3 -114 5 6 6 64 14 135 17 68 3 126 8 128 10 8 8 31 4 31 -5z m1145 -1
c-3 -5 -12 -7 -20 -3 -21 7 -19 13 6 13 11 0 18 -4 14 -10z m-2137 -17 c-2
-10 -14 -20 -28 -22 -25 -3 -25 -3 -6 18 23 26 39 27 34 4z m552 1 c0 -1 -7
-10 -16 -18 -21 -21 -51 -20 -56 2 -4 14 2 18 34 18 21 1 38 0 38 -2z m65 -8
c18 -13 18 -14 -4 -21 -25 -8 -47 7 -37 24 9 14 18 14 41 -3z m-4065 -117 c17
-5 2 -8 -47 -8 -66 -1 -101 10 -71 22 14 6 79 -2 118 -14z m380 -35 c0 -8 -7
-14 -15 -14 -15 0 -21 21 -9 33 10 9 24 -2 24 -19z m3570 -74 c13 -9 13 -11 0
-20 -8 -5 -20 -10 -27 -10 -19 0 -27 21 -12 31 18 11 21 11 39 -1z m-221 -6
c38 -8 39 -15 4 -31 -22 -11 -31 -10 -51 3 -19 12 -40 15 -84 11 -54 -5 -80 6
-40 16 27 7 136 8 171 1z m-369 -55 c0 -6 -6 -9 -12 -6 -7 2 -19 -10 -26 -26
-12 -29 -13 -29 -26 -11 -13 16 -12 21 1 37 18 19 63 23 63 6z m450 1 c27 -17
-2 -33 -34 -18 -25 11 -26 13 -9 19 24 10 26 10 43 -1z m-210 -20 c-20 -13
-43 -13 -35 0 3 6 16 10 28 10 18 0 19 -2 7 -10z m2718 -37 c-21 -2 -57 -2
-80 0 -24 2 -7 4 37 4 44 0 63 -2 43 -4z m-608 -30 c0 -5 -14 -23 -31 -41 -35
-39 -89 -60 -89 -36 0 10 6 13 18 10 18 -6 44 13 72 53 14 21 30 28 30 14z
m-175 -21 c8 -22 -1 -26 -24 -10 -22 16 -21 25 4 25 8 0 17 -7 20 -15z m831
-21 c-10 -11 -14 -25 -10 -36 5 -13 3 -16 -7 -13 -32 11 -22 68 12 68 21 0 21
-1 5 -19z m440 -16 c3 -8 -1 -21 -9 -30 -8 -8 -17 -20 -19 -27 -2 -6 -10 -8
-16 -4 -13 8 -17 58 -5 69 12 12 44 7 49 -8z m-3582 -27 c-4 -18 -7 -39 -7
-45 0 -8 -15 -13 -38 -13 -38 0 -38 0 -33 33 7 37 28 57 62 57 21 0 23 -3 16
-32z m3663 17 c3 -9 3 -19 -1 -22 -7 -7 -36 16 -36 28 0 15 30 10 37 -6z
m-941 -39 c27 -19 66 -44 87 -56 22 -12 37 -23 34 -26 -8 -8 -132 55 -167 85
-50 43 -15 40 46 -3z m-5466 -1 c0 -14 -2 -25 -4 -25 -2 0 -6 11 -8 25 -3 14
-1 25 3 25 5 0 9 -11 9 -25z m5130 -16 c0 -5 -4 -9 -10 -9 -5 0 -10 7 -10 16
0 8 5 12 10 9 6 -3 10 -10 10 -16z m-5997 4 c-13 -2 -35 -2 -50 0 -16 2 -5 4
22 4 28 0 40 -2 28 -4z m4122 -18 c76 -39 100 -81 100 -180 0 -74 -2 -83 -27
-110 -16 -16 -28 -33 -28 -37 0 -20 -82 -48 -143 -48 -78 0 -116 22 -165 95
-31 46 -33 53 -27 105 4 30 7 61 7 68 2 24 83 104 118 117 57 21 110 17 165
-10z m-4037 -16 c24 -17 41 -33 39 -35 -7 -8 -62 13 -62 24 0 6 -9 18 -20 26
-11 9 -15 16 -9 16 5 0 29 -14 52 -31z m5716 3 c75 -44 120 -154 97 -240 -25
-93 -139 -152 -232 -122 -40 13 -90 64 -118 118 -32 61 -7 176 47 225 51 47
143 55 206 19z m1604 10 c18 -2 32 -10 32 -18 0 -19 -31 -33 -61 -27 -20 4
-25 9 -22 24 3 10 0 19 -6 19 -6 0 -11 5 -11 11 0 7 7 8 18 4 9 -5 32 -10 50
-13z m690 -15 c48 -34 81 -91 88 -154 9 -69 -29 -153 -80 -177 -58 -27 -126
-32 -168 -10 -51 26 -95 86 -107 145 -15 70 -14 78 14 136 20 39 36 57 68 73
57 29 131 24 185 -13z m-8220 -36 c15 -28 18 -40 9 -34 -23 13 -67 70 -60 77
12 12 27 0 51 -43z m6451 -16 c-6 -6 -18 0 -34 17 -34 37 -31 41 9 15 21 -14
31 -26 25 -32z m-6493 -6 c14 -22 23 -43 20 -46 -3 -3 -24 9 -47 28 -38 30
-40 33 -23 46 10 7 19 13 21 13 1 0 14 -18 29 -41z m7674 -20 c0 -17 -30 -22
-46 -8 -14 12 -14 14 3 20 21 7 43 1 43 -12z m-7565 -19 c18 -8 17 -9 -7 -9
-16 -1 -28 4 -28 9 0 12 8 12 35 0z m41 -75 c19 -14 19 -14 -1 -15 -11 0 -38
3 -60 7 -36 6 -38 7 -15 14 40 11 55 10 76 -6z m156 -15 c38 0 57 -15 40 -32
-10 -10 -116 16 -139 34 -25 20 -13 26 25 12 20 -7 54 -13 74 -14z m5933 -6
c55 -39 89 -56 150 -75 44 -13 85 -37 85 -49 0 -11 -364 -7 -371 4 -4 5 -1 24
7 42 8 18 14 46 14 61 0 19 7 32 23 39 34 18 39 16 92 -22z m-6307 -19 c23 4
44 11 48 16 10 16 42 10 49 -10 3 -11 13 -25 21 -32 13 -11 19 -9 33 10 l18
23 29 -29 c27 -27 29 -34 26 -96 -2 -43 1 -67 8 -67 15 0 90 38 115 59 11 8 7
1 -10 -18 -16 -18 -47 -42 -68 -53 -89 -45 -231 -21 -283 48 -34 44 -24 54 18
19 33 -28 109 -65 133 -65 20 0 8 110 -15 133 -16 18 -19 18 -78 -7 -34 -14
-68 -26 -77 -26 -21 0 -19 29 3 36 51 17 122 50 122 58 0 4 -8 5 -17 1 -45
-19 -132 -42 -137 -37 -3 3 -6 19 -6 36 0 27 1 28 13 12 11 -15 21 -17 55 -11z
m6960 -25 c11 -44 7 -48 -18 -25 -11 10 -15 25 -12 40 7 36 18 31 30 -15z
m-2982 15 c20 -15 13 -18 -23 -9 -13 4 -23 10 -23 15 0 14 24 11 46 -6z m2913
-1 c11 -10 -8 -9 -44 3 l-40 13 40 -6 c22 -3 42 -8 44 -10z m-6506 -17 c17 -1
24 -32 9 -41 -5 -3 -40 5 -78 17 -81 25 -77 23 -70 35 3 5 29 5 63 0 32 -6 66
-10 76 -11z m4192 14 c3 -6 45 -10 93 -10 48 -1 146 -5 217 -11 72 -5 198 -10
280 -10 l150 -1 21 -27 22 -28 -430 1 c-424 0 -429 0 -423 20 4 11 9 32 12 48
4 20 11 27 29 27 12 0 25 -4 29 -9z m4569 -43 c1 -1 8 -11 15 -20 13 -17 -5
-18 -338 -18 -300 0 -351 2 -351 15 0 33 30 36 353 31 175 -2 319 -6 321 -8z
m556 -18 c0 -19 -7 -20 -106 -20 -67 0 -103 4 -99 10 3 6 16 10 28 10 12 0 29
5 37 10 8 5 43 10 78 10 55 0 62 -2 62 -20z m-3035 -20 c-3 -5 -13 -10 -21
-10 -8 0 -14 5 -14 10 0 6 9 10 21 10 11 0 17 -4 14 -10z m328 -25 c-7 -21
-13 -19 -13 6 0 11 4 18 10 14 5 -3 7 -12 3 -20z m-5053 -90 c0 -18 -26 -20
-36 -3 -5 8 -2 9 9 5 10 -3 17 -2 17 3 0 6 2 10 5 10 3 0 5 -7 5 -15z m-330
-112 c12 -11 7 -13 -23 -13 -38 0 -48 15 -25 38 10 10 15 10 23 0 6 -7 17 -19
25 -25z m195 9 c17 -14 21 -22 13 -35 -5 -9 -18 -17 -28 -17 -16 0 -20 7 -20
35 0 40 3 42 35 17z m-1447 -9 c-10 -2 -26 -2 -35 0 -10 3 -2 5 17 5 19 0 27
-2 18 -5z m692 -33 c0 -5 -9 -10 -21 -10 -11 0 -17 5 -14 10 3 6 13 10 21 10
8 0 14 -4 14 -10z m670 -5 c7 -8 20 -15 29 -16 33 -1 -17 -14 -56 -14 -44 0
-61 30 -21 38 13 2 26 5 29 6 4 0 12 -6 19 -14z m108 -87 c18 -18 15 -30 -5
-24 -10 3 -25 1 -33 -4 -11 -7 -8 -10 15 -10 23 0 27 -3 15 -10 -8 -6 -69 -10
-135 -9 -66 0 -160 -4 -210 -10 -114 -13 -165 -14 -165 -1 0 6 41 10 103 10
62 0 107 4 114 11 6 6 33 13 59 14 26 2 50 8 53 13 6 10 95 29 147 31 16 0 35
-4 42 -11z m-593 -58 c3 -5 -1 -10 -9 -10 -9 0 -16 5 -16 10 0 6 4 10 9 10 6
0 13 -4 16 -10z m345 -65 c-13 -16 -116 -21 -204 -9 -87 12 -46 24 85 24 116
0 130 -2 119 -15z m-630 -15 c20 -6 16 -8 -23 -9 -30 -1 -46 3 -42 9 7 11 29
11 65 0z m129 -11 c-18 -11 -56 -11 -63 0 -8 13 11 18 47 13 21 -3 25 -7 16
-13z m119 14 c-10 -2 -26 -2 -35 0 -10 3 -2 5 17 5 19 0 27 -2 18 -5z m270
-70 c-10 -2 -28 -2 -40 0 -13 2 -5 4 17 4 22 1 32 -1 23 -4z m224 0 c-40 -2
-103 -2 -140 0 -37 2 -4 3 73 3 77 0 107 -2 67 -3z"/>
<path d="M2193 5083 c9 -2 23 -2 30 0 6 3 -1 5 -18 5 -16 0 -22 -2 -12 -5z"/>
<path d="M2910 5091 c0 -6 5 -13 10 -16 6 -3 10 1 10 9 0 9 -4 16 -10 16 -5 0
-10 -4 -10 -9z"/>
<path d="M758 4343 c6 -65 10 -70 11 -15 0 28 -3 52 -7 52 -4 0 -6 -17 -4 -37z"/>
<path d="M434 4395 c21 -16 32 -13 21 4 -3 6 -14 11 -23 11 -15 -1 -15 -2 2
-15z"/>
<path d="M4700 4410 c-19 -6 -12 -8 32 -9 31 -1 60 4 63 9 7 12 -58 12 -95 0z"/>
<path d="M4495 4355 c-108 -42 -267 -144 -296 -190 -7 -12 6 -5 32 16 85 70
191 131 304 178 28 11 43 20 35 20 -8 0 -42 -11 -75 -24z"/>
<path d="M4156 4124 c-9 -24 -7 -27 9 -10 17 17 19 26 6 26 -5 0 -12 -7 -15
-16z"/>
<path d="M3919 3902 c-3 -20 -6 -29 -13 -45 -5 -10 -5 -21 -1 -25 4 -4 10 -1
12 6 3 7 11 19 19 26 8 8 14 19 14 24 0 12 -29 25 -31 14z"/>
<path d="M3873 3770 c-1 -11 2 -20 8 -20 5 0 9 9 9 20 0 11 -4 20 -8 20 -4 0
-8 -9 -9 -20z"/>
<path d="M9160 4047 c-82 -25 -178 -69 -161 -75 6 -2 28 5 48 16 78 40 153 62
212 62 17 0 31 5 31 10 0 16 -49 11 -130 -13z"/>
<path d="M9987 3148 c-48 -17 -86 -32 -84 -35 3 -2 41 5 85 16 55 14 113 21
184 21 121 1 114 15 -12 23 -77 4 -94 2 -173 -25z"/>
<path d="M725 2800 c3 -5 10 -10 16 -10 5 0 9 5 9 10 0 6 -7 10 -16 10 -8 0
-12 -4 -9 -10z"/>
<path d="M5028 1003 c-26 -7 -22 -23 14 -51 13 -11 21 -11 40 -1 65 34 24 73
-54 52z"/>
<path d="M5146 954 c-13 -12 -14 -20 -4 -37 21 -40 50 -55 77 -38 16 10 8 40
-20 69 -24 26 -32 27 -53 6z"/>
<path d="M4935 934 c-27 -29 -34 -84 -11 -84 22 0 66 40 66 60 0 14 5 18 16
13 14 -5 15 -3 5 15 -16 30 -47 28 -76 -4z"/>
<path d="M5150 841 c0 -6 4 -12 10 -16 13 -8 61 5 54 16 -7 12 -64 12 -64 0z"/>
<path d="M4923 818 c-13 -17 -14 -58 -2 -58 5 0 9 -6 9 -13 0 -16 38 -40 50
-32 12 7 13 45 2 60 -4 6 -18 16 -32 22 l-25 11 35 10 35 10 -31 1 c-17 1 -36
-5 -41 -11z"/>
<path d="M5195 801 c-17 -3 -31 -14 -33 -24 -4 -21 11 -22 28 -2 7 8 18 15 26
15 7 0 16 5 19 10 7 11 5 11 -40 1z"/>
<path d="M5100 764 c0 -3 9 -17 20 -31 16 -21 21 -23 26 -9 3 8 -1 22 -9 31
-15 15 -37 20 -37 9z"/>
<path d="M5009 736 c-7 -14 -9 -32 -5 -42 8 -21 14 -15 26 25 11 38 -5 52 -21
17z"/>
<path d="M5045 710 c-4 -7 -3 -16 3 -22 14 -14 57 -6 57 12 0 18 -50 26 -60
10z"/>
<path d="M6770 992 c-20 -7 -39 -33 -40 -53 0 -14 7 -15 40 -9 46 8 45 8 54
36 5 17 2 22 -17 26 -12 2 -29 2 -37 0z"/>
<path d="M6635 928 c-27 -32 -27 -32 -6 -42 17 -7 27 -4 46 14 14 13 25 32 25
42 0 29 -35 21 -65 -14z"/>
<path d="M6868 889 c-19 -11 -25 -58 -8 -60 30 -5 34 -1 36 34 3 39 -1 42 -28
26z"/>
<path d="M6715 860 c-3 -5 1 -10 9 -10 9 0 16 5 16 10 0 6 -4 10 -9 10 -6 0
-13 -4 -16 -10z"/>
<path d="M6625 850 c3 -5 15 -10 26 -10 10 0 19 5 19 10 0 6 -12 10 -26 10
-14 0 -23 -4 -19 -10z"/>
<path d="M6605 831 c-8 -13 3 -72 17 -88 16 -20 24 -16 35 21 9 29 8 37 -6 49
-26 23 -39 28 -46 18z"/>
<path d="M6830 799 c0 -8 32 -29 43 -29 3 0 7 6 10 14 4 10 -4 15 -24 18 -16
3 -29 1 -29 -3z"/>
<path d="M6686 754 c-11 -28 -6 -39 9 -20 8 11 15 23 15 28 0 14 -18 9 -24 -8z"/>
<path d="M6840 752 c0 -14 11 -21 26 -15 21 8 17 23 -6 23 -11 0 -20 -4 -20
-8z"/>
<path d="M6780 725 c0 -8 5 -15 10 -15 6 0 10 7 10 15 0 8 -4 15 -10 15 -5 0
-10 -7 -10 -15z"/>
<path d="M6710 710 c0 -5 4 -10 9 -10 6 0 13 5 16 10 3 6 -1 10 -9 10 -9 0
-16 -4 -16 -10z"/>
<path d="M9026 1002 c-11 -18 13 -64 32 -60 18 3 31 58 13 58 -5 0 -16 3 -24
6 -8 3 -18 1 -21 -4z"/>
<path d="M8929 964 c-16 -20 -1 -48 28 -52 25 -4 37 22 23 49 -13 23 -33 24
-51 3z"/>
<path d="M9121 928 c-6 -16 -5 -27 5 -38 12 -12 16 -12 30 2 13 12 14 20 5 37
-15 27 -29 27 -40 -1z"/>
<path d="M9029 874 c-11 -14 -10 -15 11 -12 13 1 25 9 28 16 5 17 -23 15 -39
-4z"/>
<path d="M8880 850 c0 -25 4 -30 24 -30 13 0 30 7 37 16 11 14 10 18 -6 30
-33 24 -55 18 -55 -16z"/>
<path d="M9163 837 c-27 -12 -29 -29 -7 -48 14 -11 18 -10 30 6 27 37 14 60
-23 42z"/>
<path d="M8915 756 c-20 -15 -20 -15 2 -38 20 -20 25 -21 37 -8 8 8 16 24 18
35 4 25 -29 32 -57 11z"/>
<path d="M9106 742 c-8 -14 5 -52 19 -52 6 0 19 8 28 18 13 14 14 21 5 30 -14
14 -44 16 -52 4z"/>
<path d="M9020 715 c-10 -12 -8 -16 11 -25 l24 -10 -25 3 c-15 1 -25 -3 -25
-10 0 -7 3 -13 8 -13 4 0 16 0 28 0 17 0 20 5 17 32 -3 36 -19 46 -38 23z"/>
<path d="M997 613 c-13 -12 -7 -43 8 -43 8 0 15 6 15 13 0 18 -15 38 -23 30z"/>
<path d="M3365 5780 c28 -12 75 -12 75 0 0 6 -21 10 -47 9 -36 0 -43 -3 -28
-9z"/>
<path d="M4940 5780 c20 -13 113 -13 105 0 -3 6 -32 10 -63 10 -41 0 -53 -3
-42 -10z"/>
<path d="M8966 5672 c4 -64 8 -118 9 -120 2 -2 35 -6 74 -9 l71 -6 0 29 c0 16
-3 66 -7 111 l-6 82 -46 6 c-25 4 -58 10 -74 15 l-27 9 6 -117z"/>
<path d="M5300 5755 c0 -14 5 -25 10 -25 6 0 10 11 10 25 0 14 -4 25 -10 25
-5 0 -10 -11 -10 -25z"/>
<path d="M6784 5767 c-3 -9 -2 -57 3 -109 l8 -93 59 -3 c51 -3 58 -1 52 13 -3
9 -6 54 -6 100 l0 84 -37 6 c-21 4 -46 9 -56 12 -9 2 -20 -2 -23 -10z"/>
<path d="M3502 5751 c-11 -7 -10 -10 3 -15 28 -10 45 -7 45 9 0 16 -27 20 -48
6z"/>
<path d="M6923 5743 c-6 -14 4 -183 11 -190 2 -2 39 -6 82 -10 l79 -6 -3 101
-3 101 -32 5 c-90 14 -129 14 -134 -1z"/>
<path d="M8341 5746 c-22 -12 -21 -13 24 -19 69 -10 85 -9 85 7 0 7 -14 16
-31 20 -42 8 -50 7 -78 -8z"/>
<path d="M4364 5744 c-7 -3 -5 -18 8 -44 19 -38 38 -53 38 -29 0 14 161 5 290
-16 144 -23 340 -43 622 -63 53 -4 101 -11 107 -17 5 -5 14 -26 19 -45 8 -26
10 -29 11 -12 1 12 8 25 16 28 8 4 15 13 15 20 0 8 11 20 25 26 l26 12 -38 16
c-21 10 -76 20 -123 24 -47 3 -119 11 -160 16 -41 5 -183 21 -315 35 -132 13
-298 31 -370 40 -135 16 -153 17 -171 9z"/>
<path d="M9208 5745 c-4 -4 10 -217 15 -221 1 -1 32 -5 70 -9 l67 -7 0 50 c0
27 -3 77 -6 111 -8 67 -4 65 -95 75 -26 3 -48 3 -51 1z"/>
<path d="M7201 5663 c1 -54 3 -62 10 -38 6 23 7 14 6 -35 -2 -63 -1 -65 23
-65 23 0 25 4 28 45 5 75 15 79 26 10 10 -60 13 -65 39 -68 l27 -3 0 99 0 100
-62 7 c-35 3 -71 9 -80 11 -16 5 -18 -2 -17 -63z"/>
<path d="M9380 5697 c0 -17 3 -69 7 -114 l6 -83 66 0 67 0 -4 103 c-2 56 -7
105 -11 108 -3 4 -34 9 -68 13 l-63 6 0 -33z"/>
<path d="M8237 5706 c-10 -8 -14 -17 -9 -20 5 -3 17 3 27 14 21 23 9 26 -18 6z"/>
<path d="M7388 5602 l3 -101 64 -6 c35 -4 69 -5 76 -3 8 3 11 31 10 98 -1 52
-4 96 -5 97 -1 2 -36 6 -77 9 l-74 7 3 -101z"/>
<path d="M6004 5628 c-11 -13 -26 -32 -34 -43 -14 -19 -14 -19 3 -6 18 14 62
71 54 71 -2 0 -12 -10 -23 -22z"/>
<path d="M6130 5638 c14 -5 61 -12 105 -15 44 -4 90 -12 102 -20 14 -10 30
-12 45 -7 13 4 26 7 31 6 4 -1 7 2 7 8 0 5 -15 11 -32 14 -112 18 -183 26
-230 25 -46 0 -50 -2 -28 -11z"/>
<path d="M8230 5616 c-25 -19 -56 -43 -69 -54 l-24 -19 23 -41 c13 -23 31 -42
39 -42 9 0 36 16 61 36 36 29 50 34 75 29 16 -3 62 -8 102 -12 l72 -6 50 54
51 54 -73 12 c-39 6 -115 14 -167 18 l-95 6 -45 -35z m22 -68 c-9 -9 -12 -7
-12 12 0 19 3 21 12 12 9 -9 9 -15 0 -24z"/>
<path d="M5605 5590 c28 -5 66 -8 85 -8 32 0 31 1 -10 9 -25 4 -63 7 -85 7
-39 -1 -39 -1 10 -8z"/>
<path d="M8900 5478 c0 -35 3 -80 6 -100 6 -32 10 -38 32 -38 l25 0 -8 92 c-8
105 -9 108 -36 108 -17 0 -19 -7 -19 -62z"/>
<path d="M10279 5521 c-53 -25 -79 -45 -79 -58 0 -17 3 -17 60 12 38 19 65 25
114 25 36 0 68 5 71 10 4 6 -7 10 -27 10 -18 0 -49 4 -69 9 -27 6 -45 4 -70
-8z"/>
<path d="M8979 5521 c-3 -30 4 -177 9 -182 4 -4 38 -10 76 -14 l69 -7 -6 93
c-4 51 -10 96 -15 100 -9 8 -132 17 -133 10z"/>
<path d="M6425 5511 c-3 -6 4 -12 17 -15 49 -10 220 -26 272 -26 31 0 56 -4
56 -10 0 -5 7 -10 16 -10 10 0 14 -5 10 -16 -3 -8 -2 -13 2 -10 9 5 226 -16
437 -44 173 -23 313 -38 415 -45 38 -3 69 -10 75 -18 12 -17 83 -10 103 9 7 8
34 14 60 15 47 1 47 1 -18 13 -36 6 -74 17 -85 23 -23 12 -111 24 -400 54
-110 11 -263 27 -340 35 -77 9 -201 17 -275 19 -119 2 -168 7 -307 30 -17 3
-34 1 -38 -4z"/>
<path d="M9223 5482 c-3 -7 -2 -51 2 -97 l7 -85 38 0 c20 0 52 -3 69 -6 l32
-7 -3 99 -3 99 -69 5 c-50 4 -70 2 -73 -8z"/>
<path d="M9395 5388 c4 -51 9 -96 12 -100 2 -5 33 -8 69 -8 l65 0 -4 90 c-2
50 -6 92 -8 94 -2 2 -35 7 -73 11 l-68 7 7 -94z"/>
<path d="M6420 5462 c0 -4 15 -8 34 -8 19 0 32 4 30 8 -3 4 -18 8 -35 8 -16 0
-29 -4 -29 -8z"/>
<path d="M6369 5449 c-10 -6 -7 -9 14 -9 29 0 35 5 14 13 -8 3 -20 1 -28 -4z"/>
<path d="M8283 5404 c3 -3 30 -8 59 -11 29 -2 86 -8 126 -13 77 -10 159 -13
151 -5 -5 4 -282 35 -320 35 -12 0 -20 -3 -16 -6z"/>
<path d="M8211 5360 c-24 -17 -48 -30 -53 -30 -5 0 -7 -4 -3 -9 5 -10 88 40
100 60 9 14 4 11 -44 -21z"/>
<path d="M8433 5343 c9 -2 23 -2 30 0 6 3 -1 5 -18 5 -16 0 -22 -2 -12 -5z"/>
<path d="M8525 5330 c17 -4 41 -8 55 -8 23 -1 23 0 5 8 -11 5 -36 8 -55 8
l-35 0 30 -8z"/>
<path d="M8373 5243 c9 -2 23 -2 30 0 6 3 -1 5 -18 5 -16 0 -22 -2 -12 -5z"/>
<path d="M6753 4785 c0 -27 2 -38 4 -22 2 15 2 37 0 50 -2 12 -4 0 -4 -28z"/>
<path d="M5620 4746 c0 -14 17 -16 143 -15 127 2 135 3 72 10 -188 22 -215 22
-215 5z"/>
<path d="M5991 4712 c-51 -34 -53 -36 -32 -46 27 -12 54 2 59 30 2 10 11 25
20 31 8 7 14 15 11 17 -2 2 -28 -12 -58 -32z"/>
<path d="M2620 4652 c0 -8 92 -43 98 -37 5 5 -73 45 -88 45 -5 0 -10 -3 -10
-8z"/>
<path d="M8258 4570 c-41 -26 -59 -30 -120 -31 l-73 -2 70 -7 c72 -7 95 -2
148 34 23 15 37 17 80 11 29 -4 86 -10 127 -14 41 -4 82 -9 90 -12 9 -2 15 2
15 11 0 16 -43 23 -205 34 -82 5 -87 4 -132 -24z"/>
<path d="M2810 4551 c0 -5 10 -13 22 -17 13 -4 28 -14 35 -23 7 -9 12 -11 13
-4 0 12 -47 53 -61 53 -5 0 -9 -4 -9 -9z"/>
<path d="M7380 4557 c0 -28 199 -63 215 -37 4 6 3 15 -1 20 -10 10 -214 25
-214 17z"/>
<path d="M8243 4517 c-65 -31 -79 -47 -42 -47 26 0 61 18 77 42 16 23 98 25
126 3 22 -17 161 -21 185 -6 18 12 -1 23 -48 27 -207 15 -233 14 -298 -19z"/>
<path d="M7800 4521 c-19 -13 -10 -21 37 -32 63 -14 153 -11 153 5 0 8 -3 17
-7 19 -18 10 -169 17 -183 8z"/>
<path d="M8290 4430 c-14 -4 -47 -21 -75 -37 l-50 -29 -135 12 c-74 7 -223 20
-330 29 -107 8 -214 18 -237 22 l-42 5 -3 -43 c-3 -40 -6 -44 -31 -47 -16 -2
-34 1 -41 7 -10 8 -17 7 -26 -4 -16 -19 -40 -19 -40 0 0 24 -29 18 -55 -11
-31 -33 -31 -33 1 -82 25 -38 29 -40 93 -47 36 -4 71 -10 76 -15 6 -4 24 -10
40 -13 17 -3 44 -8 60 -12 28 -5 -8 18 -100 64 -15 8 -5 9 39 5 64 -5 183 -50
236 -89 41 -30 55 -31 57 -5 2 17 -2 20 -19 14 -14 -4 -18 -2 -14 5 4 6 -1 14
-11 18 -10 4 -31 16 -48 28 -16 12 -62 35 -101 51 -98 40 -115 54 -108 82 7
23 8 23 123 18 147 -6 241 -16 241 -24 0 -4 35 -7 78 -7 111 0 214 -9 233 -20
9 -6 35 -36 58 -69 40 -58 41 -58 50 -33 14 35 41 41 90 19 l42 -19 -30 -6
c-47 -10 -121 -48 -121 -63 0 -18 0 -18 56 14 46 25 57 27 164 27 162 0 170
-6 170 -121 0 -72 2 -85 15 -80 8 3 15 2 15 -2 0 -10 41 -34 47 -28 3 3 1 12
-5 19 -7 7 -14 74 -18 151 l-6 137 108 -4 c60 -3 138 -8 174 -11 36 -3 94 -7
129 -10 76 -5 93 -17 58 -41 -14 -9 -32 -18 -39 -19 -7 -1 -22 -8 -33 -15 -19
-12 -19 -12 5 -7 14 4 66 13 115 21 131 22 135 24 135 43 0 9 6 29 14 43 13
26 13 27 -23 33 -20 3 -61 6 -91 6 -30 0 -82 4 -115 10 -33 5 -85 12 -115 14
-30 3 -102 10 -160 16 -225 22 -250 23 -250 11 0 -6 5 -11 12 -11 6 0 9 -3 6
-6 -3 -3 -22 -2 -42 2 -32 6 -35 8 -20 19 14 10 -1 14 -92 21 l-108 10 -54
-29 c-29 -16 -51 -35 -49 -41 3 -7 -1 -20 -9 -31 -14 -18 -14 -18 -14 3 0 15
-4 20 -16 15 -11 -4 -15 -1 -13 11 3 10 37 32 84 53 l80 37 185 -14 c252 -18
255 -18 255 0 0 16 -24 20 -265 40 -74 6 -142 13 -150 14 -8 2 -26 1 -40 -4z
m212 -168 c9 -4 26 -19 37 -34 l21 -26 -95 1 c-52 0 -95 4 -95 9 0 4 5 8 10 8
6 0 10 7 10 15 0 29 67 45 112 27z m-1202 -32 c0 -5 -6 -10 -14 -10 -8 0 -18
5 -21 10 -3 6 3 10 14 10 12 0 21 -4 21 -10z m1319 -55 l1 -30 -13 25 c-7 14
-11 36 -8 50 4 23 5 23 12 5 4 -11 8 -33 8 -50z"/>
<path d="M9475 4380 c-10 -16 47 -37 116 -43 58 -5 69 -3 84 13 16 18 16 19
-6 24 -52 10 -189 15 -194 6z"/>
<path d="M7193 4358 c-5 -7 -13 -21 -16 -31 -4 -10 -11 -16 -16 -13 -11 7
-143 -18 -196 -37 -86 -31 -179 -81 -233 -126 -55 -46 -100 -72 -87 -51 12 19
-26 10 -65 -16 -37 -24 -40 -25 -56 -10 -9 10 -19 14 -22 11 -3 -3 4 -15 15
-27 l21 -21 -30 -33 c-17 -19 -53 -82 -81 -141 -43 -94 -50 -119 -55 -190 -6
-98 10 -113 28 -25 7 31 15 66 20 77 4 11 13 42 19 70 15 61 86 191 112 205
24 14 24 13 -10 -56 -15 -33 -47 -99 -71 -147 -24 -48 -40 -90 -37 -94 12 -11
38 7 36 24 -2 17 9 48 30 83 5 8 19 35 32 60 24 48 28 53 71 103 148 172 356
287 521 287 38 0 59 4 61 13 2 6 9 29 16 50 12 41 10 56 -7 35z"/>
<path d="M9781 4345 c31 -5 62 -15 70 -21 8 -6 51 -14 96 -17 68 -4 83 -2 88
11 12 31 -12 35 -215 37 -94 1 -94 0 -39 -10z"/>
<path d="M5288 4297 c35 -20 70 -41 78 -48 8 -6 17 -9 20 -6 6 5 -106 71 -141
82 -11 4 8 -9 43 -28z"/>
<path d="M7082 4218 c-24 -5 -42 -12 -39 -14 8 -8 137 8 137 17 0 11 -42 10
-98 -3z"/>
<path d="M6970 4185 l-25 -15 30 6 c17 4 37 10 45 15 12 7 11 8 -5 8 -11 0
-31 -6 -45 -14z"/>
<path d="M6870 4140 c-30 -17 -68 -42 -85 -56 l-30 -26 35 21 c19 11 55 31 80
45 59 33 77 46 65 46 -5 0 -35 -14 -65 -30z"/>
<path d="M6700 4015 c-7 -8 -8 -15 -2 -15 5 0 15 7 22 15 7 8 8 15 2 15 -5 0
-15 -7 -22 -15z"/>
<path d="M8744 3941 c-23 -21 -62 -76 -88 -120 -49 -86 -61 -141 -46 -221 l6
-35 6 40 c12 84 70 202 148 305 18 22 25 41 21 53 -6 15 -12 12 -47 -22z"/>
<path d="M6645 3959 c-11 -17 1 -21 15 -4 8 9 8 15 2 15 -6 0 -14 -5 -17 -11z"/>
<path d="M3253 3936 c-19 -22 19 -26 40 -4 16 17 16 18 -5 18 -13 -1 -28 -7
-35 -14z"/>
<path d="M6517 3733 c-2 -5 -7 -21 -11 -36 -5 -21 -3 -28 5 -25 7 2 14 19 16
36 4 30 -1 41 -10 25z"/>
<path d="M8632 3575 c-15 -32 -16 -89 -2 -80 6 3 10 19 10 34 0 15 4 31 10 37
5 5 6 15 1 22 -5 9 -11 5 -19 -13z"/>
<path d="M5952 3450 c0 -19 2 -27 5 -17 2 9 2 25 0 35 -3 9 -5 1 -5 -18z"/>
<path d="M5653 3357 c-40 -28 -70 -53 -68 -56 3 -2 13 3 22 11 10 9 43 29 73
46 54 30 57 31 170 27 116 -4 85 4 -65 18 -59 5 -61 5 -132 -46z"/>
<path d="M7975 3265 l-30 -15 40 6 c22 3 44 10 50 15 14 14 -26 10 -60 -6z"/>
<path d="M3790 3216 l0 -43 -42 8 c-24 4 -57 8 -75 9 -26 0 -30 -3 -26 -20 6
-24 19 -26 27 -5 3 8 12 12 21 9 8 -3 12 -11 9 -16 -4 -6 2 -8 15 -3 49 15 76
-18 51 -65 -6 -11 -10 -63 -11 -117 0 -127 0 -133 14 -133 7 0 -1 -11 -17 -25
-21 -18 -36 -23 -60 -19 -19 3 -11 -3 24 -16 30 -10 55 -20 55 -20 1 0 1 -10
1 -22 0 -13 2 -43 3 -68 l3 -45 10 50 c5 27 14 55 20 62 7 9 7 13 -1 13 -13 0
-15 158 -5 283 l7 77 66 2 66 1 -60 6 c-83 8 -87 12 -83 82 2 32 0 59 -4 59
-4 0 -8 -20 -8 -44z"/>
<path d="M3351 3163 c-7 -16 -8 -30 -3 -35 6 -6 14 2 20 21 13 38 -1 50 -17
14z"/>
<path d="M3140 3058 c0 -118 10 -125 16 -12 2 43 7 86 10 96 3 12 0 18 -10 18
-14 0 -16 -16 -16 -102z"/>
<path d="M6366 2970 c12 -98 23 -126 26 -64 3 84 -8 154 -25 154 -10 0 -10
-19 -1 -90z"/>
<path d="M6376 2807 c-5 -21 -6 -41 -2 -44 12 -12 17 5 14 43 l-4 39 -8 -38z"/>
<path d="M3132 2795 c0 -16 2 -22 5 -12 2 9 2 23 0 30 -3 6 -5 -1 -5 -18z"/>
<path d="M3405 2800 c-27 -7 -27 -8 -5 -8 14 0 36 4 50 8 20 6 21 8 5 8 -11 0
-33 -4 -50 -8z"/>
<path d="M3528 2803 c17 -2 47 -2 65 0 17 2 3 4 -33 4 -36 0 -50 -2 -32 -4z"/>
<path d="M3882 2744 c10 -9 58 -12 58 -3 0 5 -14 9 -32 9 -17 0 -29 -3 -26 -6z"/>
<path d="M6374 2699 c-3 -6 -1 -16 5 -22 8 -8 11 -5 11 11 0 24 -5 28 -16 11z"/>
<path d="M3790 2351 c0 -23 26 -46 35 -31 3 5 3 15 0 20 -4 6 5 10 21 10 36 0
28 6 -18 13 -32 5 -38 3 -38 -12z"/>
<path d="M1 1743 l-1 -242 83 4 c45 3 201 10 347 16 284 11 304 15 338 68 14
21 11 20 -29 -8 -44 -31 -50 -32 -175 -38 -106 -5 -136 -3 -168 11 -30 12 -37
20 -33 36 7 27 -8 36 -88 53 -39 8 -80 19 -90 25 -11 6 -55 16 -97 23 l-78 13
0 64 c0 49 6 76 27 119 l27 55 131 -7 c344 -17 606 -40 638 -57 12 -6 17 -21
17 -51 0 -31 3 -38 10 -27 15 23 12 77 -5 93 -18 19 -41 23 -180 37 -198 18
-398 30 -532 30 -96 0 -133 3 -136 13 -3 6 -6 -97 -6 -230z"/>
<path d="M9915 1794 c-128 -29 -174 -44 -260 -89 -148 -76 -254 -152 -287
-205 -30 -47 7 -90 78 -90 32 0 36 3 31 21 -6 21 14 36 33 24 8 -5 8 -11 -1
-21 -14 -17 -15 -16 31 -32 29 -9 50 -9 105 2 39 8 122 14 185 15 63 0 244 4
403 7 l287 7 0 183 0 182 -292 0 c-161 0 -302 -2 -313 -4z m-149 -90 c15 -4
24 -2 24 5 0 13 39 14 59 2 9 -6 5 -10 -15 -14 -16 -3 -41 -9 -56 -13 -32 -7
-98 3 -98 16 0 10 30 19 48 14 8 -2 25 -7 38 -10z m300 -79 c0 -50 -1 -70 -3
-46 -4 42 -5 43 -35 37 -29 -6 -30 -5 -24 22 13 55 29 83 45 80 13 -3 16 -19
17 -93z m444 50 c0 -19 -4 -35 -9 -35 -11 0 -24 48 -16 60 13 21 25 8 25 -25z
m-600 16 c0 -19 -31 -32 -72 -29 l-43 3 50 17 c60 20 65 21 65 9z m355 -28
c27 -64 29 -115 5 -142 -11 -13 -23 -22 -25 -19 -5 5 -18 73 -29 156 -6 37 -4
42 14 42 13 0 25 -12 35 -37z m-499 -164 c10 -21 12 -35 6 -41 -6 -6 -46 -14
-90 -19 -44 -5 -90 -10 -102 -11 -12 -2 -27 5 -33 14 -10 14 -5 24 23 53 33
34 37 35 107 35 71 0 73 -1 89 -31z"/>
<path d="M825 1735 c-10 -25 -16 -48 -13 -50 3 -3 13 15 23 40 9 26 15 48 12
51 -3 3 -13 -15 -22 -41z"/>
<path d="M3788 1533 c23 -2 61 -2 85 0 23 2 4 4 -43 4 -47 0 -66 -2 -42 -4z"/>
<path d="M8600 1510 c-18 -6 -4 -8 49 -9 41 -1 72 1 70 3 -10 9 -96 13 -119 6z"/>
<path d="M575 1410 c-4 -6 15 -10 50 -10 35 0 54 4 50 10 -3 6 -26 10 -50 10
-24 0 -47 -4 -50 -10z"/>
<path d="M3764 1383 c-3 -21 -12 -43 -20 -49 -10 -8 -7 -14 17 -28 16 -9 29
-21 29 -25 0 -12 -397 -23 -460 -12 -59 10 -64 8 -75 -28 -7 -22 -5 -23 27
-15 46 11 456 6 498 -6 25 -7 36 -6 42 3 11 17 10 -1 -2 -22 -5 -10 -24 -21
-42 -25 -29 -6 -31 -8 -15 -17 10 -6 31 -7 47 -4 26 6 31 3 40 -20 18 -46 31
-18 25 53 -9 104 -12 112 -40 112 -25 0 -29 8 -40 78 -8 52 -22 54 -31 5z"/>
<path d="M8160 1377 c-33 -13 -48 -23 -37 -25 16 -3 107 34 107 44 0 6 -11 3
-70 -19z"/>
<path d="M6672 1364 c-28 -19 -30 -74 -4 -97 54 -49 127 29 81 86 -23 31 -45
34 -77 11z"/>
<path d="M9953 1225 c-40 -28 -31 -117 14 -127 64 -14 98 68 48 117 -28 29
-33 30 -62 10z m55 -40 c15 -32 15 -31 -4 -49 -19 -20 -54 -5 -54 24 0 53 38
69 58 25z"/>
<path d="M10212 1176 c2 -46 7 -71 16 -74 10 -3 12 9 6 59 -9 90 -26 101 -22
15z"/>
<path d="M10301 1214 c-15 -19 -19 -34 -15 -53 12 -48 24 -61 54 -61 39 0 41
27 3 32 -20 2 -29 9 -31 26 -4 27 16 55 34 48 19 -7 29 14 13 25 -23 14 -36
10 -58 -17z"/>
<path d="M10468 1233 c-53 -4 -53 -4 -42 -86 6 -45 7 -45 50 -49 39 -3 44 -1
44 17 0 18 -5 20 -35 17 -21 -3 -35 0 -35 7 0 9 36 16 63 12 4 0 7 7 7 17 0
15 -6 17 -35 14 -28 -3 -35 -1 -35 13 0 14 7 16 35 13 29 -3 35 -1 35 14 0 10
-1 17 -2 16 -2 -1 -24 -3 -50 -5z"/>
<path d="M9769 1226 c-2 -2 -2 -32 -1 -65 3 -44 8 -61 18 -61 8 0 14 7 14 15
0 9 9 15 23 15 13 0 28 5 35 12 19 19 15 66 -7 78 -19 10 -74 14 -82 6z m78
-42 c3 -9 0 -20 -8 -24 -17 -11 -49 6 -49 25 0 21 49 19 57 -1z"/>
<path d="M10092 1168 l3 -63 44 -3 c32 -2 42 0 39 10 -3 7 -18 15 -34 18 -27
5 -29 9 -32 53 -2 26 -8 47 -13 47 -6 0 -9 -26 -7 -62z"/>
<path d="M8350 1191 c0 -6 5 -13 10 -16 6 -3 10 1 10 9 0 9 -4 16 -10 16 -5 0
-10 -4 -10 -9z"/>
<path d="M3220 1161 c0 -17 5 -33 12 -37 8 -5 9 -2 5 10 -4 10 -1 19 8 23 12
4 13 9 4 19 -18 22 -29 16 -29 -15z"/>
<path d="M9438 1073 c-10 -3 -18 -13 -18 -24 0 -18 12 -19 453 -19 248 0 496
-3 550 -7 l97 -6 0 29 0 29 -533 1 c-292 0 -540 -1 -549 -3z"/>
<path d="M10513 885 c0 -22 2 -30 4 -17 2 12 2 30 0 40 -3 9 -5 -1 -4 -23z"/>
<path d="M5953 853 c20 -2 54 -2 75 0 20 2 3 4 -38 4 -41 0 -58 -2 -37 -4z"/>
<path d="M3867 743 c-2 -4 -7 -20 -11 -36 -5 -21 -2 -29 11 -33 10 -3 41 -17
70 -32 28 -15 54 -24 58 -21 11 12 -7 38 -28 41 -18 3 -19 5 -6 18 28 28 30
49 6 54 -62 13 -96 16 -100 9z"/>
<path d="M3756 692 c-2 -4 4 -13 15 -20 11 -7 19 -8 19 -2 0 5 11 10 25 10 14
0 25 5 25 10 0 12 -77 14 -84 2z"/>
<path d="M4050 595 c33 -19 46 -19 30 0 -7 8 -22 15 -34 15 -20 -1 -20 -2 4
-15z"/>
<path d="M3765 570 c-4 -6 12 -10 40 -10 28 0 44 4 40 10 -3 6 -21 10 -40 10
-19 0 -37 -4 -40 -10z"/>
<path d="M3426 555 c-4 -12 -1 -16 11 -13 18 3 21 20 5 26 -5 1 -12 -4 -16
-13z"/>
<path d="M3490 516 c0 -19 17 -29 32 -20 7 4 39 9 72 12 99 6 91 22 -12 22
-73 0 -92 -3 -92 -14z"/>
<path d="M3290 486 c0 -9 5 -16 10 -16 6 0 10 4 10 9 0 6 -4 13 -10 16 -5 3
-10 -1 -10 -9z"/>
<path d="M3350 460 c-13 -8 -13 -10 1 -10 9 0 21 -11 27 -25 6 -14 18 -25 27
-25 21 0 19 17 -5 30 -11 6 -19 16 -17 22 3 15 -15 20 -33 8z"/>
<path d="M3100 454 c0 -3 4 -12 9 -22 5 -9 12 -25 15 -34 6 -22 46 -12 46 12
0 22 19 30 76 30 29 0 43 4 39 10 -6 10 -185 13 -185 4z"/>
<path d="M3760 390 c0 -5 6 -10 14 -10 8 0 18 5 21 10 3 6 -3 10 -14 10 -12 0
-21 -4 -21 -10z"/>
<path d="M3248 362 c-22 -4 -24 -42 -3 -42 16 0 30 23 23 38 -1 4 -11 6 -20 4z"/>
<path d="M4915 350 c-4 -6 24 -10 77 -9 59 1 75 4 53 9 -45 11 -123 11 -130 0z"/>
<path d="M5135 350 c-4 -6 5 -10 19 -10 14 0 26 5 26 10 0 6 -9 10 -19 10 -11
0 -23 -4 -26 -10z"/>
<path d="M2773 333 c9 -2 25 -2 35 0 9 3 1 5 -18 5 -19 0 -27 -2 -17 -5z"/>
<path d="M3253 261 c-12 -19 -11 -20 20 -14 40 7 70 22 47 23 -8 0 -24 3 -35
6 -13 3 -24 -2 -32 -15z"/>
<path d="M2777 213 c-19 -18 -6 -32 25 -26 22 4 29 3 24 -5 -5 -8 0 -12 13
-12 30 0 34 17 9 34 -23 16 -60 21 -71 9z"/>
<path d="M3980 200 c0 -5 7 -10 15 -10 8 0 15 5 15 10 0 6 -7 10 -15 10 -8 0
-15 -4 -15 -10z"/>
<path d="M7155 200 c3 -5 25 -10 48 -10 31 0 38 3 27 10 -20 13 -83 13 -75 0z"/>
<path d="M3305 182 c-27 -2 -54 -7 -59 -12 -6 -6 40 -9 117 -9 70 1 124 5 122
10 -3 4 -30 8 -60 8 -29 -1 -57 1 -62 2 -4 2 -30 3 -58 1z"/>
<path d="M6670 170 c0 -5 6 -10 14 -10 8 0 18 5 21 10 3 6 -3 10 -14 10 -12 0
-21 -4 -21 -10z"/>
<path d="M3588 143 c17 -2 47 -2 65 0 17 2 3 4 -33 4 -36 0 -50 -2 -32 -4z"/>
</g>
</svg>
