<?xml version="1.0" standalone="no"?>
<!DOCTYPE svg PUBLIC "-//W3C//DTD SVG 20010904//EN"
 "http://www.w3.org/TR/2001/REC-SVG-20010904/DTD/svg10.dtd">
<svg version="1.0" xmlns="http://www.w3.org/2000/svg"
 width="1280.000000pt" height="720.000000pt" viewBox="0 0 1280.000000 720.000000"
 preserveAspectRatio="xMidYMid meet">
<metadata>
Created by potrace 1.16, written by Peter Selinger 2001-2019
</metadata>
<g transform="translate(0.000000,720.000000) scale(0.100000,-0.100000)"
fill="#000000" stroke="none">
<path d="M0 3600 l0 -3600 6400 0 6400 0 -2 243 c-1 133 -3 214 -5 180 l-4
-62 -52 5 c-95 10 -111 30 -64 81 10 12 16 26 12 32 -4 7 14 11 54 11 l61 0 0
1171 0 1171 -22 -6 c-13 -3 -30 -6 -39 -6 -9 0 -22 -14 -29 -31 -13 -30 -12
-33 22 -64 26 -25 38 -31 47 -22 8 8 11 -22 11 -118 0 -88 -3 -125 -10 -115
-9 13 -10 13 -10 0 0 -10 -3 -11 -8 -4 -12 19 -73 34 -133 34 -59 0 -85 13
-49 25 24 8 27 25 4 25 -9 0 -22 7 -29 16 -14 20 -77 11 -69 -10 3 -8 -1 -20
-8 -27 -8 -8 -19 -30 -25 -50 -10 -34 -9 -38 14 -48 13 -6 48 -11 78 -11 37 0
55 -4 56 -12 8 -64 4 -66 -123 -67 -94 -1 -98 0 -123 26 -14 16 -39 52 -55 81
-17 28 -34 52 -39 52 -5 0 -12 -18 -16 -39 -4 -22 -14 -46 -22 -53 -15 -12
-16 -8 -10 39 l6 53 -29 0 c-16 0 -32 -4 -35 -10 -3 -5 -17 -10 -30 -10 -27 0
-35 -16 -28 -53 4 -21 1 -27 -11 -27 -13 0 -16 8 -14 38 3 36 2 37 -31 40 -37
4 -46 -4 -61 -58 -13 -49 -52 -70 -128 -70 -84 0 -96 6 -69 33 12 12 28 21 34
19 16 -4 17 30 1 46 -8 8 -5 14 15 21 23 9 27 16 27 49 0 27 7 46 23 63 30 31
181 134 263 179 35 20 76 46 91 58 15 12 35 22 45 22 9 0 19 4 23 9 3 6 40 29
81 52 l76 42 144 -5 c158 -6 163 -7 183 -73 6 -18 9 780 8 2080 -1 1161 -4
1908 -7 1660 -3 -247 -8 -444 -11 -436 -3 8 -10 12 -15 8 -13 -7 -6 -67 8 -67
5 0 6 9 3 20 -4 11 -2 20 4 20 6 0 11 -18 11 -41 l0 -41 -72 6 c-40 4 -100 9
-133 12 -33 3 -84 9 -114 15 -93 16 -119 11 -215 -36 l-92 -46 -94 16 c-52 8
-176 22 -275 30 -99 8 -190 17 -201 20 -12 3 -120 14 -240 25 -121 11 -280 27
-354 35 -74 9 -166 18 -205 21 -38 3 -80 7 -93 10 -21 4 -21 6 -7 28 8 12 26
28 40 34 14 6 25 16 25 21 0 14 -17 17 -570 75 -395 43 -381 42 -415 14 -71
-58 -91 -65 -158 -57 -86 11 -401 46 -582 64 -372 38 -626 65 -695 74 -141 19
-257 31 -299 31 -55 0 -63 21 -22 56 17 14 31 29 31 33 0 12 -289 50 -820 107
l-245 26 -25 -33 c-60 -78 -42 -72 -175 -60 -66 7 -145 16 -175 21 -30 5 -163
19 -295 30 -351 29 -449 39 -555 55 -145 21 -314 43 -430 54 -291 29 -420 44
-420 51 0 4 7 27 15 50 8 23 13 46 10 50 -2 4 -55 10 -117 14 -62 4 -165 13
-228 21 -63 8 -151 16 -195 20 -44 3 -107 10 -140 15 -33 5 -159 21 -280 35
-121 15 -226 27 -234 28 -10 1 -20 -17 -31 -53 -13 -43 -20 -55 -36 -54 -10 1
-82 9 -159 19 -191 23 -179 22 -455 46 -364 31 -453 42 -458 57 -3 9 152 12
755 12 l758 0 10 -22 c6 -13 19 -24 30 -26 12 -2 16 0 9 5 -6 4 -13 16 -17 26
-6 16 8 17 208 17 l214 0 -6 -50 -6 -50 159 0 c158 1 159 1 123 18 -64 30 -38
39 111 36 77 -1 145 -6 151 -10 7 -4 9 -3 5 4 -3 6 -47 14 -97 18 -59 4 -89
10 -86 18 3 8 177 12 622 14 542 2 616 0 605 -13 -13 -16 -5 -19 82 -30 45 -6
47 -5 51 22 4 26 4 26 6 -5 0 -22 5 -32 14 -29 7 2 11 15 9 30 l-3 27 495 0
c434 0 496 -2 496 -15 0 -9 9 -15 23 -16 12 0 65 -6 117 -13 84 -12 96 -12
108 2 6 9 12 22 12 29 0 10 55 13 273 13 l272 0 0 -129 c0 -71 2 -132 5 -135
3 -3 36 -8 73 -12 l68 -7 -3 124 c-3 124 -3 124 -28 127 -47 5 -70 12 -70 22
0 6 57 10 146 10 126 0 145 -2 140 -15 -3 -9 0 -15 9 -15 8 0 15 7 15 15 0 12
15 15 76 15 68 0 75 -2 70 -18 -5 -15 3 -20 52 -31 31 -7 75 -11 97 -9 35 3
40 6 43 31 5 41 32 35 32 -7 0 -33 1 -34 48 -40 26 -3 67 -7 92 -8 l45 -3 1
40 0 40 822 3 822 2 0 -127 c0 -154 4 -173 36 -173 28 0 27 -10 24 163 l-2
137 161 0 c154 0 161 -1 161 -20 0 -16 7 -20 33 -20 17 0 56 -3 85 -6 51 -7
52 -7 52 20 0 34 32 33 35 -1 1 -13 4 -26 7 -29 3 -3 39 -8 80 -11 l74 -6 -4
37 -4 36 701 0 701 0 0 70 0 70 -6400 0 -6400 0 0 -3600z m4738 3443 c-10 -2
-26 -2 -35 0 -10 3 -2 5 17 5 19 0 27 -2 18 -5z m-1595 -260 c-24 -2 -62 -2
-85 0 -24 2 -5 4 42 4 47 0 66 -2 43 -4z m275 -30 c-10 -2 -28 -2 -40 0 -13 2
-5 4 17 4 22 1 32 -1 23 -4z m2190 -215 c45 -5 82 -12 82 -15 0 -6 -144 3
-217 13 -24 4 -43 10 -43 15 0 9 25 7 178 -13z m1882 6 c101 -10 110 -26 10
-19 -47 4 -100 9 -117 11 -18 3 -61 9 -95 14 -55 8 -50 8 37 4 55 -2 129 -7
165 -10z m299 -40 c2 -2 -26 -4 -62 -4 -37 0 -67 4 -67 9 0 8 119 3 129 -5z
m-740 -21 c-25 -34 -73 -83 -81 -83 -26 0 49 99 76 99 16 1 17 -1 5 -16z m241
-8 c164 -15 392 -40 523 -56 72 -8 111 -18 104 -25 -6 -7 -320 24 -532 51 -66
9 -156 20 -199 26 -44 5 -82 12 -85 14 -7 7 8 6 189 -10z m-4987 -81 c-3 -9
-6 -36 -7 -62 0 -26 -5 -48 -11 -50 -17 -5 -18 28 -4 107 11 64 14 71 20 48 4
-16 5 -35 2 -43z m639 5 c4 -30 7 -85 6 -124 -1 -80 14 -106 18 -30 5 87 12
129 29 172 18 45 35 49 35 8 0 -13 3 -32 7 -42 6 -16 8 -15 13 7 6 24 10 25
81 28 l76 3 0 -147 0 -147 -56 6 c-31 4 -85 10 -121 16 -36 5 -105 12 -154 16
l-89 7 7 98 c3 54 9 105 12 114 19 49 47 -23 42 -108 -2 -48 0 -66 10 -66 8 0
12 19 12 59 0 33 4 62 9 65 4 3 11 29 15 58 4 28 10 56 13 60 12 21 29 -3 35
-53z m3473 51 c7 -12 -38 -12 -75 0 -20 7 -16 8 22 9 26 1 50 -3 53 -9z
m-4016 -95 c-1 -52 -4 -95 -8 -95 -4 0 -8 -7 -8 -15 0 -8 6 -15 13 -15 7 0 16
-4 19 -10 7 -11 -173 -2 -215 11 -21 6 -17 8 20 9 25 2 68 2 95 0 l50 -2 3 98
c3 100 6 114 23 114 5 0 9 -40 8 -95z m349 88 c-21 -5 -24 -23 -4 -23 10 0 15
-25 19 -97 3 -54 4 -100 1 -102 -2 -2 -21 -7 -41 -11 -36 -7 -37 -7 -14 -17
43 -17 9 -20 -114 -9 -108 10 -120 13 -117 29 2 12 -4 21 -17 24 -25 6 -28 45
-5 64 9 7 14 22 11 36 -3 15 4 33 20 51 56 65 48 62 167 60 61 0 103 -3 94 -5z
m-715 -105 c5 -35 4 -38 -19 -38 -22 0 -24 4 -24 44 0 24 3 52 7 61 5 15 8 14
18 -6 7 -13 15 -41 18 -61z m162 -11 c-12 -39 -13 -40 -14 -12 0 17 2 48 6 70
6 39 7 39 14 12 4 -17 2 -45 -6 -70z m1176 60 c4 -6 10 -28 14 -51 7 -38 8
-39 15 -16 5 14 11 37 14 53 8 36 24 34 41 -5 20 -49 28 -52 39 -16 6 18 19
34 28 36 13 3 18 -7 23 -45 4 -26 10 -61 14 -78 7 -29 8 -28 25 28 29 98 46
68 46 -80 0 -55 4 -93 10 -93 6 0 10 -5 10 -11 0 -8 -27 -9 -92 -4 -51 4 -147
10 -213 14 l-120 6 2 50 c5 129 16 216 28 229 11 11 24 11 62 3 26 -6 51 -15
54 -20z m728 -9 c12 -20 11 -24 -8 -37 l-22 -14 27 -29 c15 -15 31 -28 35 -28
18 0 39 34 39 63 1 77 33 66 44 -15 9 -62 32 -55 41 13 5 36 11 49 23 49 23 0
46 -16 35 -23 -9 -6 -5 -77 4 -77 14 0 32 38 33 68 0 22 5 32 15 32 18 0 35
-39 35 -81 0 -16 5 -29 11 -29 6 0 9 14 7 33 -3 32 -3 32 42 32 l45 0 8 -84
c4 -51 13 -91 22 -101 8 -9 15 -25 15 -34 0 -15 -6 -17 -42 -13 -99 13 -329
38 -410 44 -47 3 -91 9 -97 12 -7 5 -6 28 3 76 8 39 15 66 15 60 3 -18 31 57
31 81 0 31 30 32 49 2z m4391 -38 c65 -7 64 -7 -31 -8 -73 -2 -100 2 -115 14
-18 14 -15 15 31 8 28 -4 79 -10 115 -14z m-3239 -36 c29 -12 55 -15 99 -10
32 4 96 2 142 -4 46 -6 169 -17 273 -25 214 -17 412 -38 435 -47 8 -4 44 -9
79 -11 35 -3 67 -10 70 -15 3 -5 65 -12 136 -15 149 -7 175 -13 175 -37 0 -26
31 -48 77 -56 27 -4 44 -13 48 -23 4 -13 13 -16 35 -13 18 3 30 0 30 -7 0 -6
8 -11 19 -11 10 0 44 -11 75 -25 31 -14 63 -25 71 -25 24 0 55 -38 55 -66 0
-32 22 -27 31 7 28 101 34 114 56 111 25 -3 53 31 53 65 0 16 5 21 20 18 11
-2 22 0 25 6 12 19 24 8 31 -26 7 -40 27 -42 32 -4 5 42 24 109 32 109 9 0 20
-50 21 -99 0 -20 4 -45 8 -56 l8 -20 6 20 c3 11 9 41 12 67 10 70 32 70 47 -2
11 -57 28 -72 28 -25 0 57 28 73 55 31 10 -15 29 -26 55 -30 l38 -6 6 -67 c4
-38 11 -82 16 -99 6 -17 10 -38 10 -47 0 -21 10 -21 44 -3 31 16 66 10 66 -10
0 -8 4 -14 9 -14 6 0 12 19 14 43 3 36 5 39 12 19 5 -15 10 -20 15 -12 4 6 10
-17 14 -51 3 -36 2 -67 -3 -72 -6 -6 -38 -5 -86 2 -100 15 -95 16 -95 -23 0
-30 4 -34 31 -40 17 -3 53 -6 79 -6 48 0 78 -19 65 -40 -6 -9 -84 -7 -159 4
-5 0 -11 -5 -13 -11 -4 -10 16 -13 77 -13 60 0 88 -4 107 -17 29 -19 55 -22
238 -24 66 0 124 -3 129 -7 5 -3 35 -4 66 -3 41 2 66 -3 91 -17 26 -15 56 -20
131 -21 64 -1 99 2 103 10 4 6 2 15 -5 19 -15 9 -156 23 -260 26 -158 3 -255
23 -232 46 7 7 46 7 124 -1 182 -17 199 -19 283 -25 180 -13 227 -18 380 -36
173 -21 330 -28 341 -17 4 4 -13 7 -38 7 -25 0 -58 4 -74 9 -16 5 -103 14
-194 21 -91 6 -205 16 -255 22 -49 6 -102 12 -117 13 -15 2 -53 6 -85 9 -32 3
-85 8 -118 11 -166 13 -246 27 -256 46 -5 11 -20 19 -32 18 -20 0 -21 -1 -3
-8 12 -5 16 -10 9 -14 -6 -4 -22 -3 -35 2 -12 6 -18 10 -13 10 6 1 9 48 7 127
-2 69 -1 138 3 152 l6 26 16 -33 c17 -35 25 -36 114 -15 27 6 33 -5 53 -101 2
-11 4 -4 5 16 0 20 4 50 7 66 5 27 9 29 52 29 55 -1 60 -8 62 -86 1 -30 6 -66
10 -80 6 -20 8 -16 10 25 5 146 4 140 26 143 23 3 22 4 42 -103 8 -40 8 -39
14 24 12 118 49 97 59 -33 6 -87 9 -85 12 11 2 71 20 100 42 69 12 -16 27 -18
133 -17 138 2 140 1 148 -86 4 -32 7 -59 9 -61 1 -2 6 27 10 64 6 58 21 94 38
94 3 0 8 -21 12 -47 l8 -48 16 37 c9 21 19 38 23 38 3 0 15 -14 26 -31 l19
-31 11 31 c12 35 17 37 38 16 10 -10 35 -15 69 -15 45 0 55 -3 60 -20 7 -22
21 -27 27 -9 2 6 22 12 43 13 37 1 42 -2 58 -36 20 -41 37 -49 37 -19 0 30 11
51 26 51 8 0 14 -6 14 -14 0 -7 6 -19 14 -25 11 -9 15 -8 20 4 3 9 13 15 21
13 9 -2 15 -6 13 -9 -2 -3 3 -13 10 -22 11 -13 17 -14 33 -4 16 10 21 8 34
-11 9 -12 27 -22 39 -22 13 0 64 -18 112 -39 83 -37 90 -42 100 -78 14 -50 27
-48 36 5 10 61 43 104 73 96 28 -7 75 33 75 65 0 26 10 31 38 20 12 -5 22 -17
22 -28 0 -55 29 -63 31 -8 0 18 4 41 8 52 8 19 9 19 19 -5 6 -14 16 -53 23
-87 7 -34 15 -61 17 -59 2 2 6 28 8 57 3 30 7 60 10 67 8 25 21 2 28 -47 11
-84 36 -73 36 15 0 24 5 44 10 44 6 0 10 -18 10 -40 0 -44 13 -50 66 -30 15 6
29 9 31 6 3 -2 7 -30 10 -62 9 -92 24 -119 78 -134 36 -10 45 -17 45 -35 0
-27 -40 -41 -70 -25 -28 15 -33 -1 -25 -85 6 -59 10 -73 24 -73 9 0 77 -5 152
-11 90 -8 155 -9 195 -2 38 6 63 5 71 -1 7 -6 18 -6 28 -1 15 9 15 11 -1 24
-9 7 -30 14 -46 15 -30 2 -45 10 -36 19 3 3 61 -1 129 -10 199 -24 288 -32
300 -24 23 14 -15 22 -145 30 -72 5 -150 14 -172 20 -23 6 -50 8 -61 5 -10 -3
-28 1 -39 9 -10 8 -14 15 -6 15 6 0 12 4 12 9 0 4 -20 11 -45 13 -68 8 -75 18
-75 109 0 83 16 109 23 37 l4 -43 1 47 c2 51 11 60 70 73 30 6 33 4 46 -27
l14 -33 4 30 c3 27 7 30 44 33 35 3 42 0 52 -23 7 -14 12 -40 12 -58 0 -18 5
-39 10 -47 7 -11 10 -7 10 18 0 18 5 54 11 79 l12 45 18 -48 c11 -27 19 -58
20 -69 1 -11 5 0 10 25 18 94 25 92 50 -18 l17 -77 1 65 c2 78 12 101 35 78 8
-9 12 -18 9 -22 -10 -10 14 -7 40 5 18 8 37 8 73 -1 27 -6 64 -14 81 -17 18
-3 30 -9 27 -14 -3 -5 2 -12 10 -15 12 -4 16 -20 16 -55 0 -27 5 -49 10 -49 6
0 10 30 10 69 0 65 10 95 25 72 3 -6 8 -40 12 -76 3 -36 9 -65 13 -65 5 0 11
32 15 72 7 67 8 70 21 47 7 -13 13 -45 14 -71 0 -36 4 -48 15 -48 11 0 15 12
15 48 l0 47 71 0 c57 0 72 -3 80 -18 6 -9 15 -15 20 -12 5 4 7 11 4 16 -4 5
15 9 42 9 35 0 44 -3 33 -10 -13 -8 -13 -10 1 -10 12 0 19 -13 23 -45 10 -61
23 -65 38 -11 13 48 28 52 28 8 0 -15 5 -34 10 -42 9 -13 11 -13 20 0 5 8 10
26 10 40 1 34 15 8 25 -45 l7 -40 19 24 c18 23 24 23 107 19 95 -6 137 -21
155 -58 19 -38 32 -33 45 17 16 57 55 97 82 83 12 -6 29 -6 51 2 31 11 34 9
71 -31 33 -35 42 -40 58 -31 11 6 20 16 20 23 0 6 7 1 16 -11 13 -18 19 -21
30 -11 8 6 14 19 14 28 1 11 7 8 21 -12 15 -19 25 -25 33 -18 14 12 30 3 39
-23 6 -15 14 -17 42 -12 32 6 35 5 35 -17 0 -14 7 -30 15 -37 29 -24 18 -42
-22 -36 -125 18 -339 29 -360 18 -45 -23 -131 -52 -156 -52 -15 0 -27 -4 -27
-10 0 -21 74 -9 132 20 l60 31 145 -16 c79 -9 160 -17 178 -18 19 -2 36 -5 40
-8 3 -3 9 -42 13 -86 l8 -80 -51 4 c-27 2 -102 9 -165 16 -144 15 -151 14
-228 -23 -34 -16 -69 -30 -78 -30 -8 0 -28 -7 -44 -15 -25 -13 -30 -13 -30 -2
0 17 -28 20 -340 42 -124 8 -255 20 -293 25 -37 6 -86 10 -108 10 l-42 0 7
-48 c6 -46 5 -48 -25 -59 -23 -9 -37 -9 -51 -2 -14 8 -23 8 -31 0 -17 -17 -37
-13 -56 10 l-17 21 -37 -36 c-41 -39 -45 -57 -21 -77 9 -7 20 -23 25 -36 6
-17 17 -23 41 -24 109 -4 132 -8 142 -21 13 -18 112 -36 101 -19 -3 6 -19 18
-36 26 -33 18 -39 45 -10 45 62 0 249 -81 354 -152 15 -10 27 -14 27 -9 0 19
-146 115 -249 163 -58 27 -113 53 -121 57 -8 5 -16 20 -18 35 -5 43 29 50 195
37 78 -6 152 -15 165 -20 13 -5 74 -9 137 -10 63 -1 122 -6 132 -12 10 -5 28
-9 41 -9 25 0 70 -42 122 -113 l28 -39 19 31 c22 37 61 49 103 31 49 -21 109
-23 149 -6 20 8 37 20 37 25 0 6 20 11 45 11 34 0 47 -5 55 -20 6 -11 23 -26
38 -34 25 -14 19 -15 -88 -16 -122 -1 -320 -30 -345 -50 -17 -14 -20 -40 -5
-40 6 0 13 6 16 14 10 25 184 59 277 54 135 -7 167 -40 167 -172 0 -37 5 -77
11 -89 7 -11 13 -64 15 -116 2 -53 6 -141 11 -196 l7 -100 12 115 c9 95 11 -2
10 -565 l-1 -680 -84 -12 c-46 -6 -89 -17 -94 -22 -6 -6 -20 -11 -31 -11 -30
-1 -147 -42 -176 -63 -13 -9 -29 -17 -35 -17 -6 0 -47 -18 -91 -40 -43 -22
-85 -40 -92 -40 -7 0 -15 -6 -18 -14 -3 -7 -23 -22 -44 -32 -22 -11 -40 -22
-40 -26 0 -5 -4 -8 -9 -8 -12 0 -107 -62 -146 -95 -16 -14 -33 -25 -38 -25 -5
0 -34 -24 -65 -54 -93 -89 -135 -126 -144 -126 -4 0 -26 -18 -50 -40 -24 -22
-49 -40 -55 -40 -17 0 -16 -5 3 -42 19 -37 12 -44 -60 -54 -57 -7 -82 -19
-109 -52 -11 -13 -36 -31 -56 -40 -22 -10 -42 -30 -51 -49 -8 -18 -20 -33 -27
-33 -6 0 -18 -6 -25 -14 -8 -7 -31 -15 -51 -18 -30 -3 -37 -1 -37 13 0 10 9
21 20 24 11 3 25 15 31 26 6 11 20 24 32 29 35 14 -178 11 -261 -4 -40 -7 -75
-10 -77 -5 -3 4 3 10 12 13 47 14 207 46 283 56 106 14 131 20 125 30 -6 10
68 71 115 95 19 10 58 41 86 69 60 59 168 149 226 189 23 15 37 27 32 27 -5 1
4 8 19 16 l29 16 -6 86 c-6 83 -18 312 -33 613 -4 100 -3 138 6 143 36 22 256
59 376 63 72 3 134 8 138 12 5 5 -38 13 -95 20 -102 11 -104 11 -238 -23 -167
-43 -220 -51 -220 -37 0 6 4 11 9 11 5 0 12 11 15 24 5 21 20 27 138 57 91 22
154 32 198 31 36 0 85 3 109 9 29 6 47 6 56 -1 9 -8 14 -6 19 6 10 27 7 34
-16 34 -34 0 -68 11 -68 21 0 5 19 9 43 10 l42 1 -35 8 c-93 23 -189 14 -369
-34 -199 -53 -216 -55 -208 -26 3 11 0 20 -6 20 -21 0 8 18 43 27 l35 9 3 65
c1 35 6 73 11 84 11 24 84 256 107 340 9 33 20 64 24 68 4 5 20 1 35 -9 l28
-18 -8 24 c-22 71 -104 190 -190 274 -110 108 -129 122 -230 177 -149 80 -147
79 -165 69 -14 -8 -68 -7 -150 2 -8 1 -27 -1 -42 -5 -22 -6 -28 -4 -28 8 0 8
-4 15 -10 15 -5 0 -9 -8 -7 -17 1 -10 -2 -19 -8 -20 -5 -1 -9 6 -7 17 5 29 -9
31 -96 10 -132 -32 -264 -96 -336 -164 -18 -17 -53 -49 -78 -72 -37 -32 -56
-64 -101 -165 -31 -68 -64 -153 -73 -189 -9 -36 -19 -69 -23 -75 -4 -5 -9 -46
-10 -90 -2 -44 -5 -82 -7 -85 -3 -2 -17 -4 -31 -5 -31 0 -41 -26 -37 -95 2
-25 3 -45 4 -45 3 0 11 -85 13 -130 2 -49 3 -50 37 -55 l35 -5 7 -145 c6 -138
18 -421 38 -905 16 -394 21 -479 26 -523 4 -27 2 -48 -6 -57 -19 -22 14 -20
59 5 56 30 149 57 222 65 l66 7 5 -31 c4 -28 2 -31 -21 -31 -36 0 -71 -11 -71
-21 0 -5 19 -12 42 -16 24 -3 37 -8 30 -11 -6 -2 -12 -12 -12 -22 0 -20 23
-43 33 -33 4 3 7 1 7 -6 0 -8 7 -11 15 -7 8 3 15 0 15 -7 0 -13 -59 -57 -77
-57 -6 0 -16 -7 -23 -15 -9 -11 -28 -15 -59 -14 -25 2 -66 -1 -91 -6 -46 -8
-75 -13 -97 -14 -7 -1 -13 -5 -13 -11 0 -6 61 -10 164 -10 90 0 171 -3 179 -6
12 -4 12 -11 -4 -44 -10 -21 -23 -42 -29 -45 -21 -13 -43 -82 -50 -153 -6 -60
-12 -78 -32 -99 -24 -23 -33 -25 -169 -31 l-144 -7 100 -5 c89 -4 100 -7 104
-25 2 -11 -6 -27 -21 -40 -29 -25 -58 -69 -58 -90 0 -8 -4 -15 -9 -15 -14 0
-49 -116 -61 -205 -6 -44 -15 -84 -21 -90 -23 -23 -576 -12 -742 15 -78 12
-367 34 -373 27 -3 -3 -3 -14 0 -25 5 -16 18 -21 64 -25 120 -11 187 -27 202
-48 8 -12 31 -36 50 -55 19 -18 32 -36 29 -39 -3 -3 -66 -10 -140 -16 -74 -6
-136 -12 -138 -15 -15 -15 64 -30 294 -58 190 -23 215 -25 500 -36 295 -11
356 -17 334 -31 -9 -6 -10 -12 -4 -16 6 -5 17 -28 25 -53 7 -25 19 -56 26 -70
8 -14 20 -41 28 -60 18 -40 37 -72 49 -81 5 -3 -3 -19 -17 -34 -24 -26 -30
-27 -111 -26 -69 1 -86 -1 -91 -14 -8 -19 -43 -20 -50 0 -4 10 -20 15 -45 15
-31 0 -39 -4 -39 -18 0 -16 43 -42 80 -49 48 -9 351 -33 409 -33 38 0 71 -5
73 -10 4 -13 375 -33 546 -30 67 1 122 -2 122 -7 0 -5 -7 -19 -16 -31 l-15
-22 -3727 0 c-3469 0 -4041 4 -4114 26 -10 3 -18 12 -18 19 0 11 -6 12 -25 5
-13 -5 -37 -10 -52 -10 -15 -1 -89 -3 -162 -5 -77 -2 -144 -9 -157 -15 -17 -9
-42 -10 -105 -1 -45 6 -99 11 -121 11 -55 0 -47 18 11 26 43 6 51 10 60 35 9
28 8 29 -18 29 -16 0 -34 -7 -42 -16 -9 -11 -22 -14 -47 -9 -20 4 -39 2 -47
-5 -15 -12 -75 -5 -75 9 0 4 -11 13 -25 19 -14 6 -25 15 -25 20 0 5 55 12 123
15 125 6 199 25 194 50 -1 9 19 12 73 12 78 0 120 9 120 26 0 5 -12 10 -27 10
-17 1 -21 3 -10 6 9 2 17 9 17 14 0 6 -9 7 -20 4 -11 -3 -20 -2 -20 3 0 16
-31 23 -46 11 -22 -18 -17 -29 14 -31 15 -1 -7 -4 -48 -7 -41 -4 -78 -3 -81 2
-7 10 -139 -3 -139 -14 0 -5 21 -9 47 -9 36 0 44 -3 35 -12 -7 -7 -61 -13
-149 -15 -76 -1 -132 0 -125 3 6 3 12 12 12 20 0 8 9 14 20 14 11 0 20 5 20
10 0 6 15 10 34 10 19 0 37 4 40 9 3 4 39 11 81 13 47 3 82 11 93 20 17 16
156 24 390 23 50 -1 92 3 92 7 0 4 -3 7 -7 6 -5 0 -16 2 -26 7 -10 4 -45 5
-78 1 -51 -5 -63 -3 -81 14 -12 11 -30 20 -40 20 -11 0 -18 7 -18 19 0 11 -5
21 -10 23 -6 2 -11 20 -12 41 -1 32 -5 37 -25 37 -12 0 -23 5 -23 10 0 6 7 10
15 10 8 0 15 7 15 15 0 8 -9 15 -20 15 -38 0 -20 16 40 33 57 17 80 37 43 37
-15 0 -15 2 1 19 15 17 31 19 113 18 68 -1 98 2 101 11 2 6 12 12 23 12 10 0
19 5 19 11 0 6 18 9 48 6 l47 -4 1 -58 c1 -41 5 -60 15 -63 8 -3 26 -13 41
-23 33 -24 46 -24 44 -2 -1 13 11 20 42 27 31 6 42 14 42 27 0 11 -6 19 -14
19 -17 0 -26 22 -26 61 0 36 -21 47 -61 32 -27 -11 -29 -9 -37 20 -8 32 -9 32
-63 29 -125 -7 -1645 -7 -1661 1 -27 12 -22 24 19 44 20 9 54 35 76 57 34 36
43 40 95 42 59 3 488 13 857 20 116 2 260 5 320 6 61 2 118 -1 127 -5 15 -8
16 -1 15 60 -1 37 0 101 2 141 3 67 5 72 26 72 21 0 23 6 29 82 3 46 6 167 7
270 1 181 2 186 23 193 l21 6 -22 9 c-21 9 -22 12 -18 157 3 81 7 355 10 608
6 510 13 750 26 780 6 15 8 8 9 -25 1 -66 16 -30 25 60 3 41 9 93 12 115 3 22
6 90 6 151 2 112 -7 146 -32 121 -19 -19 -13 60 9 105 11 23 20 48 20 55 0 16
-1 16 133 14 l107 -2 0 26 c0 14 -6 25 -12 26 -10 0 -10 2 0 6 25 10 -1 23
-46 22 -39 -1 -43 -2 -22 -9 15 -6 -13 -7 -70 -3 -91 5 -135 13 -75 13 27 0
27 1 12 18 -34 37 -23 42 103 42 l121 0 -1 38 c-2 45 17 307 26 362 4 27 3 40
-5 40 -6 0 -11 -4 -11 -10 0 -23 -19 -7 -34 28 l-16 37 5 -85 c2 -47 0 -92 -5
-100 -7 -11 -10 -6 -11 20 -1 30 -3 28 -11 -17 -10 -53 -10 -54 -70 -67 -25
-6 -29 -2 -43 31 -15 34 -18 36 -29 21 -7 -10 -26 -18 -41 -18 -28 0 -28 0
-20 48 13 78 11 98 -35 280 -25 100 -143 299 -241 405 -122 133 -242 215 -425
291 -125 52 -154 67 -154 82 0 14 4 13 130 -28 63 -21 179 -78 210 -103 8 -6
42 -27 74 -45 87 -49 301 -266 344 -349 18 -35 36 -53 26 -26 -8 22 -62 106
-109 170 -16 22 -76 81 -133 130 -57 50 -114 99 -126 110 -29 26 -202 109
-324 155 -68 25 -98 42 -100 55 -4 16 1 17 37 12 99 -13 249 -81 423 -190 66
-42 274 -224 293 -258 6 -9 32 -41 58 -69 27 -29 54 -65 60 -79 6 -14 21 -37
33 -51 12 -14 34 -48 49 -77 14 -29 30 -55 35 -58 23 -14 6 34 -50 149 -33 68
-60 128 -60 135 0 6 -11 23 -25 37 -14 14 -24 33 -23 42 2 11 -5 18 -19 20
-22 3 -41 32 -21 32 7 0 7 5 -2 14 -6 8 -17 13 -24 10 -16 -6 -40 22 -33 39 3
9 -10 21 -38 35 -23 11 -58 34 -78 51 -19 17 -39 31 -45 31 -5 0 -16 7 -23 16
-8 9 -31 28 -53 41 -27 18 -35 27 -26 33 13 8 5 30 -11 30 -6 0 -7 -4 -4 -10
8 -12 -28 -13 -41 -1 -38 36 -310 151 -358 151 -9 0 -16 5 -16 10 0 15 40 12
94 -6 26 -9 50 -13 53 -10 4 3 0 6 -8 6 -8 1 -32 9 -54 20 -22 11 -52 19 -67
20 -30 0 -33 6 -19 29 8 12 42 14 193 12 100 -1 190 -7 200 -12 9 -5 41 -9 72
-9 60 0 89 -7 80 -21 -3 -5 2 -9 10 -9 8 0 18 5 22 11 8 14 174 5 204 -11 10
-5 46 -10 80 -10 53 0 63 -3 67 -20 6 -23 23 -27 23 -6 0 22 19 30 35 16 8 -7
15 -10 15 -6 0 3 17 -13 39 -37 52 -57 81 -116 70 -144 -6 -16 -3 -28 11 -45
l19 -23 31 32 c43 44 95 57 207 50 123 -7 189 -36 203 -89 6 -20 12 -130 14
-245 3 -114 8 -238 12 -275 7 -67 7 -67 -17 -61 l-24 6 23 -22 c20 -20 22 -32
24 -149 4 -237 3 -327 -5 -345 -5 -11 -2 -37 8 -67 9 -27 13 -55 9 -62 -5 -7
-10 -29 -11 -50 -4 -41 -4 -41 87 -52 137 -16 140 -17 140 -43 0 -23 -1 -23
-82 -19 -46 3 -98 8 -116 12 -29 6 -33 4 -31 -12 2 -10 0 -24 -4 -30 -15 -25
25 -39 115 -39 50 -1 93 -6 99 -12 8 -8 8 -158 0 -550 -6 -296 -16 -747 -21
-1003 -19 -887 -21 -964 -26 -969 -2 -2 -4 17 -4 42 0 26 -4 47 -9 47 -5 0 -7
-42 -6 -93 2 -64 7 -91 15 -89 6 1 10 -5 8 -15 -2 -10 -16 -21 -33 -24 l-30
-7 30 -1 c55 -2 57 -8 59 -147 l1 -129 120 0 c66 0 251 4 410 8 160 5 373 10
475 12 102 2 208 6 235 9 72 9 212 15 523 22 l274 7 -3 101 c-2 55 1 108 6
116 6 9 10 254 11 635 0 341 1 893 2 1226 l2 605 79 42 78 42 117 0 c71 0 116
4 116 10 0 12 16 10 -125 19 l-120 9 -72 -44 c-71 -43 -111 -58 -85 -32 7 7
12 22 12 35 0 13 9 27 23 34 12 7 45 27 74 46 47 31 63 35 155 44 57 6 113 7
126 4 19 -5 23 -2 20 12 -3 15 -18 19 -82 25 -106 10 -110 20 -6 17 113 -3
119 17 8 25 -46 4 -108 9 -138 12 -53 5 -58 3 -120 -39 -62 -42 -123 -77 -135
-77 -14 0 -2 31 18 45 22 16 22 16 -8 10 l-30 -6 23 20 c13 11 35 29 50 40
l26 19 1 308 2 309 -35 68 c-41 78 -162 212 -268 297 -74 59 -211 134 -347
190 -66 27 -82 31 -103 21 -30 -14 -246 -4 -256 12 -8 14 -115 3 -223 -23
-178 -43 -376 -153 -506 -280 -132 -130 -263 -405 -285 -597 -5 -46 -11 -63
-21 -63 -11 0 -13 7 -9 24 5 19 1 26 -16 32 -14 4 -25 1 -33 -10 -14 -19 -26
-21 -23 -3 2 7 -10 13 -29 15 -18 2 -33 9 -34 15 -1 7 -5 1 -9 -13 -17 -54 -9
87 10 175 19 84 25 108 46 160 4 11 9 25 9 30 7 45 118 239 162 284 40 41 53
34 29 -15 -9 -20 -15 -38 -13 -40 6 -7 47 27 47 39 0 7 14 17 32 22 22 7 35
18 39 35 4 14 7 21 8 15 1 -5 8 1 17 13 8 12 19 22 25 22 5 0 18 8 29 18 43
37 57 48 95 73 97 63 125 79 138 79 8 0 26 9 40 20 14 11 32 20 41 20 8 0 30
8 48 18 41 23 198 52 298 55 l75 2 6 42 c3 24 9 46 13 50 4 5 5 -13 1 -40 -7
-43 -5 -49 18 -67 14 -11 29 -29 32 -39 5 -16 20 -20 93 -26 48 -4 127 -16
176 -26 89 -19 123 -19 72 0 -57 22 -115 51 -121 62 -11 17 4 24 24 12 10 -7
28 -9 38 -7 11 3 44 -2 73 -10 64 -19 63 -19 54 -4 -5 7 -2 9 7 6 170 -68 248
-102 246 -107 -1 -3 2 -7 8 -9 5 -2 11 0 12 5 5 14 -168 105 -282 148 -64 24
-110 46 -110 54 0 10 36 14 160 17 88 3 166 7 172 9 7 2 28 -2 47 -10 20 -8
51 -15 70 -15 19 0 36 -6 39 -12 3 -10 7 -10 18 -1 41 33 309 52 344 23 8 -6
20 -8 27 -4 24 15 49 11 75 -14 18 -17 28 -21 31 -12 7 21 60 76 101 104 l40
28 163 -11 c90 -6 221 -16 291 -22 95 -9 131 -9 139 -1 18 18 4 24 -64 28
-105 6 -326 24 -442 35 l-108 11 -59 -58 c-37 -37 -59 -52 -59 -42 0 17 -25
21 -210 34 -99 7 -131 16 -126 37 1 6 1 9 -1 5 -7 -13 -111 -9 -315 12 -106
10 -337 31 -513 45 -176 14 -327 29 -335 32 -17 6 -137 17 -377 36 -89 7 -166
16 -170 20 -8 9 -5 426 4 511 l6 59 109 -7 c61 -3 126 -13 149 -22z m2979 -9
c80 -8 199 -17 265 -21 66 -3 145 -10 175 -15 71 -13 216 -28 305 -33 89 -4
224 -25 249 -38 11 -6 61 -14 110 -19 169 -14 291 -30 308 -40 31 -16 82 -11
96 11 7 11 19 20 27 20 8 0 15 4 15 10 0 10 52 40 70 40 22 0 8 -26 -25 -47
-19 -13 -37 -23 -41 -23 -3 0 -18 -9 -33 -19 -27 -20 -30 -20 -247 -1 -353 30
-555 50 -779 76 -115 14 -300 34 -410 44 -251 25 -263 27 -275 49 -12 23 -3
32 24 26 12 -3 86 -11 166 -20z m575 6 c17 -10 9 -11 -44 -7 -35 3 -84 6 -107
6 -24 0 -44 4 -44 10 0 14 172 6 195 -9z m493 -37 c29 -3 50 -9 47 -14 -3 -5
1 -11 7 -14 7 -4 -29 -4 -80 -1 -54 3 -105 11 -122 20 -54 28 -46 29 148 9z
m-5497 -54 c34 -33 62 -60 63 -60 1 0 16 4 35 10 19 5 31 7 28 3 -4 -3 1 -12
10 -18 10 -8 18 -28 19 -49 l1 -37 -76 6 c-163 14 -196 19 -196 35 0 8 -7 20
-15 26 -10 8 -13 27 -11 60 3 55 12 71 44 77 12 2 25 5 29 6 4 0 35 -26 69
-59z m-1761 40 c0 -5 12 -11 28 -11 25 -2 25 -2 3 -6 -29 -6 -71 4 -71 17 0 6
9 10 20 10 11 0 20 -4 20 -10z m-90 -60 c0 -21 -16 -26 -39 -11 -18 11 -5 31
20 31 12 0 19 -7 19 -20z m140 -10 c10 -19 8 -20 -50 -20 -53 0 -60 2 -60 20
0 17 7 20 50 20 39 0 52 -4 60 -20z m8220 -24 l75 -13 -65 -1 c-36 -1 -94 5
-130 12 l-65 14 55 0 c30 0 89 -5 130 -12z m-7624 -18 c38 -7 64 -17 64 -24 0
-7 -5 -14 -11 -16 -16 -5 -268 17 -275 25 -28 28 104 37 222 15z m-738 -13 c6
-5 -12 -125 -19 -125 -5 0 -9 7 -9 15 0 8 -12 22 -27 32 -16 9 -41 31 -58 48
l-30 30 50 6 c42 5 83 2 93 -6z m8572 5 c24 -8 24 -8 -5 -8 -16 -1 -48 3 -70
7 l-40 9 45 0 c25 0 56 -4 70 -8z m-8402 -22 c18 -16 130 -37 191 -38 35 0 61
-6 72 -16 16 -14 19 -13 41 11 l24 26 135 -11 c76 -6 158 -19 189 -29 65 -22
275 -37 286 -20 4 7 21 9 43 5 20 -3 83 -8 141 -11 58 -4 119 -12 135 -20 41
-19 272 -40 288 -27 14 12 258 -3 295 -19 23 -9 25 -36 3 -31 -23 5 -49 -18
-56 -49 -4 -17 -14 -33 -23 -37 -15 -5 -112 1 -477 33 -93 8 -176 15 -182 15
-7 0 -14 8 -14 18 -1 16 -2 16 -6 0 -5 -19 6 -19 -285 7 -81 8 -154 17 -162
22 -17 10 -146 4 -146 -6 0 -14 46 -29 61 -20 25 16 61 11 57 -8 -2 -12 -13
-16 -36 -16 -17 1 -63 2 -102 2 -53 1 -70 4 -70 15 0 16 20 26 58 27 55 2
-106 28 -178 29 -41 0 -118 7 -170 16 -52 8 -126 16 -165 17 -69 3 -70 4 -76
33 -4 16 -7 46 -8 67 l-1 39 63 -7 c34 -4 68 -12 75 -17z m1992 2 c19 -6 76
-13 125 -16 147 -8 159 -9 181 -21 14 -8 24 -9 31 -2 6 6 23 9 39 7 l29 -3 -3
-91 -4 -91 32 -7 c59 -11 72 -8 65 15 -6 17 -4 20 12 16 10 -3 56 -9 103 -12
50 -4 92 -13 101 -21 8 -8 29 -14 45 -14 28 0 74 -20 47 -20 -7 0 -13 -11 -13
-24 0 -14 -5 -28 -10 -31 -8 -5 -8 -11 0 -20 19 -23 -36 -26 -155 -9 -60 8
-177 21 -260 29 -82 8 -197 19 -255 24 -58 6 -134 14 -170 17 -103 10 -107 25
-5 20 206 -9 453 -27 500 -37 28 -6 68 -13 90 -16 36 -4 38 -4 21 9 -18 14
-18 15 5 22 23 8 22 8 -11 18 -19 6 -98 14 -175 18 -171 11 -323 33 -365 55
-18 9 -46 15 -64 12 l-33 -4 4 51 c3 28 6 57 9 65 6 18 70 10 126 -17 29 -14
78 -23 151 -29 101 -8 109 -7 119 10 6 11 6 23 1 28 -9 9 -182 30 -288 34
-119 5 -114 3 -108 25 6 23 30 25 83 10z m-910 -27 c8 -13 13 -14 16 -5 7 15
94 16 129 0 14 -6 25 -18 25 -26 0 -12 -12 -13 -67 -8 -38 4 -104 9 -148 12
-44 3 -81 7 -83 8 -1 2 0 11 4 20 9 24 109 23 124 -1z m1510 -13 c18 -6 5 -8
-43 -8 -37 0 -70 5 -73 9 -6 11 82 10 116 -1z m-767 -35 c9 -4 17 -16 17 -26
0 -16 -8 -19 -52 -19 -51 0 -229 20 -237 26 -2 2 2 11 10 20 12 15 29 16 129
11 63 -3 123 -9 133 -12z m7407 -11 c0 -2 -9 -4 -21 -4 -11 0 -18 4 -14 10 5
8 35 3 35 -6z m-6601 -20 c9 -8 -75 -2 -94 6 -12 5 1 6 35 3 30 -3 57 -7 59
-9z m3235 -131 c1 -99 -1 -118 -14 -118 -12 0 -16 19 -18 95 -4 112 4 168 20
152 7 -7 12 -58 12 -129z m2901 121 c30 -14 30 -14 -19 -9 -27 3 -64 5 -82 5
-19 0 -34 5 -34 10 0 15 101 11 135 -6z m245 -21 c8 -3 85 -7 170 -9 180 -4
262 -14 268 -31 5 -16 -112 -17 -198 -2 -30 5 -102 13 -160 18 -147 13 -213
22 -230 32 -16 9 124 1 150 -8z m-3210 -139 c0 -72 -1 -74 -25 -74 -25 0 -25
1 -25 80 0 43 5 91 12 105 l12 26 13 -32 c7 -17 13 -65 13 -105z m4450 110 c0
-9 -28 -28 -74 -50 -81 -37 -89 -39 -84 -23 3 10 133 86 151 88 4 1 7 -6 7
-15z m-9895 -14 c10 -11 16 -23 13 -26 -9 -8 -48 19 -48 33 0 19 14 16 35 -7z
m-895 -30 c142 -14 150 -17 190 -86 20 -32 43 -76 52 -96 l18 -38 -28 -6 c-36
-9 -156 -78 -209 -120 -23 -19 -49 -34 -58 -34 -9 0 -19 -8 -22 -18 -2 -11
-20 -25 -39 -32 -19 -8 -34 -17 -34 -22 0 -19 -31 -5 -74 35 l-46 44 5 144 c5
137 11 208 21 238 3 11 18 12 67 7 34 -4 105 -11 157 -16z m-285 -28 c0 -46
-19 -44 -23 2 -3 28 0 37 10 34 7 -3 13 -19 13 -36z m10549 30 c3 -5 -23 -6
-57 -4 -87 5 -94 10 -15 11 37 1 69 -3 72 -7z m-9964 -31 c31 -6 37 -9 20 -11
-24 -2 -24 -2 5 -12 27 -9 67 -9 310 -5 l80 2 3 -27 c3 -23 -1 -28 -20 -29
-22 0 -22 -1 -3 -9 19 -7 18 -8 -6 -15 -15 -4 -38 -5 -50 -2 l-24 4 23 8 c15
5 19 10 12 15 -15 9 -123 -8 -194 -31 -33 -10 -70 -19 -82 -19 -13 0 -27 -6
-31 -14 -14 -23 -48 -28 -65 -9 -27 31 -65 107 -71 140 -7 35 -7 35 93 14z
m10283 -8 c-7 -2 -21 -2 -30 0 -10 3 -4 5 12 5 17 0 24 -2 18 -5z m-9358 -73
c-5 -8 -11 -8 -17 -2 -6 6 -7 16 -3 22 5 8 11 8 17 2 6 -6 7 -16 3 -22z m1543
-10 c12 -6 -10 -9 -75 -10 -85 0 -119 11 -75 24 25 7 131 -2 150 -14z m-3059
-72 l-1 -73 -9 50 c-8 46 -5 95 6 95 3 0 4 -33 4 -72z m-459 34 c0 -5 12 -15
27 -23 34 -17 67 -49 52 -49 -7 0 -40 5 -74 11 -59 11 -62 13 -61 40 1 25 5
29 29 29 15 0 27 -4 27 -8z m9759 -110 c1 -27 -3 -41 -9 -37 -5 3 -9 36 -9 73
1 52 3 60 9 37 4 -16 8 -49 9 -73z m-6244 31 c6 -9 22 -27 38 -41 37 -35 34
-46 -10 -37 -21 3 -87 8 -148 11 -60 3 -116 7 -124 10 -21 7 45 72 78 77 51 9
156 -4 166 -20z m307 2 c10 -22 12 -23 23 -8 10 14 26 15 109 9 54 -3 114 -13
133 -21 20 -8 44 -15 55 -15 10 0 33 -7 50 -16 29 -15 32 -15 40 1 7 12 17 15
36 10 15 -4 81 -11 147 -16 66 -4 156 -13 200 -18 44 -5 88 -10 99 -10 11 -1
16 -6 13 -15 -6 -16 40 -29 49 -14 6 10 68 6 72 -5 9 -26 0 -37 -31 -37 -87 0
-342 -61 -415 -99 -9 -5 -35 -17 -57 -27 -22 -9 -71 -38 -108 -63 -102 -69
-170 -111 -179 -111 -4 0 -7 5 -6 12 6 25 -34 19 -60 -9 -15 -16 -35 -33 -44
-36 -10 -4 -18 -13 -18 -21 0 -8 -13 -27 -28 -43 -58 -59 -172 -252 -172 -292
0 -10 -7 -22 -16 -25 -24 -9 -64 20 -64 47 0 13 -4 27 -10 33 -5 5 -6 24 0 49
5 22 10 93 11 158 1 65 3 126 6 136 6 23 59 50 108 54 34 2 36 4 15 9 -14 4
-49 10 -78 15 l-54 8 29 40 c33 45 45 80 47 142 1 23 5 45 9 49 4 4 7 21 7 38
0 59 12 105 29 109 33 9 42 6 53 -18z m-2331 -5 c-13 -11 -34 -20 -47 -20 -23
0 -70 -10 -159 -32 -40 -10 -54 -15 -108 -37 -42 -17 -67 -14 -67 7 0 20 22
34 80 51 147 45 171 50 245 50 l80 0 -24 -19z m3539 -7 c19 -4 54 -5 78 -4
l42 3 0 -45 c0 -46 -9 -60 -48 -72 -17 -5 -27 -2 -36 10 -11 16 -14 16 -28 2
-9 -9 -27 -19 -41 -22 -22 -6 -29 -2 -45 24 l-18 30 -22 -21 c-19 -20 -22 -20
-28 -5 -3 9 -12 17 -20 17 -16 0 -18 37 -4 74 9 25 12 26 72 20 35 -3 79 -8
98 -11z m4660 -34 c0 -24 -4 -38 -10 -34 -5 3 -10 24 -10 46 0 24 4 38 10 34
6 -3 10 -24 10 -46z m-9667 25 c23 -4 51 -13 61 -20 18 -12 17 -13 -10 -20
-41 -10 -54 -23 -54 -54 0 -15 -9 -35 -20 -45 -14 -13 -17 -22 -10 -36 10 -18
4 -49 -10 -49 -4 0 -23 -3 -41 -6 l-34 -5 25 15 c24 15 24 15 3 16 -28 0 -34
18 -16 53 8 16 12 35 9 42 -3 8 3 17 15 20 21 7 22 9 13 54 -4 19 -13 31 -23
32 -12 0 -11 2 4 9 11 5 26 7 33 4 8 -2 32 -7 55 -10z m434 -61 c-3 -10 -5 -2
-5 17 0 19 2 27 5 18 2 -10 2 -26 0 -35z m1018 18 c8 -14 -23 -28 -80 -36 -27
-4 -75 -14 -105 -22 -147 -39 -155 -40 -120 -13 14 10 41 22 60 25 19 4 56 13
81 21 25 8 68 19 95 23 27 5 52 9 56 10 4 0 9 -3 13 -8z m-401 -37 c27 -10 18
-30 -21 -47 -37 -15 -113 -57 -123 -67 -3 -3 -17 -11 -32 -19 -16 -8 -28 -18
-28 -23 0 -4 -4 -8 -10 -8 -10 0 -44 -26 -82 -63 -11 -10 -27 -17 -36 -15 -18
4 -30 38 -13 38 11 0 39 20 75 55 11 11 28 25 37 30 56 35 86 55 98 67 16 14
101 58 113 58 3 0 13 -3 22 -6z m-1640 -43 c117 -36 116 -35 130 -15 8 10 18
16 22 12 4 -4 8 -67 9 -140 0 -73 5 -163 10 -200 8 -65 7 -68 -13 -68 -16 0
-20 5 -17 22 3 12 1 25 -4 28 -4 3 -36 61 -69 130 -34 69 -76 141 -95 162 -25
28 -31 41 -25 57 8 24 10 24 52 12z m1046 -28 c39 -25 90 -76 90 -88 0 -6 -18
-29 -40 -50 -22 -21 -40 -43 -40 -47 0 -11 -63 -102 -78 -111 -6 -4 -21 -25
-31 -45 -11 -20 -33 -50 -50 -66 -51 -48 -58 -30 -54 131 6 217 15 252 68 266
17 4 16 5 -5 7 -21 2 -20 4 10 10 61 13 105 11 130 -7z m624 -6 c-4 -12 -38
-33 -149 -91 -21 -12 -63 -43 -93 -71 -64 -60 -82 -71 -82 -52 0 17 70 83 105
99 14 6 25 15 25 19 0 5 19 18 43 30 23 12 44 24 47 28 8 10 84 49 97 50 7 1
10 -5 7 -12z m396 -54 c17 -6 -3 -13 -115 -43 -114 -29 -208 -62 -234 -82 -13
-10 -29 -18 -36 -18 -13 0 -160 -97 -201 -132 -30 -27 -64 -41 -64 -28 0 6 31
39 68 76 63 59 147 114 177 114 7 0 18 7 26 16 7 9 21 13 34 10 17 -4 25 1 33
19 14 30 39 41 152 65 78 16 120 17 160 3z m3519 -26 c6 -8 8 -17 4 -20 -12
-12 -53 -7 -53 6 0 28 30 37 49 14z m-5094 -78 c12 -10 22 -33 23 -51 3 -37
18 -50 47 -44 11 3 27 1 35 -4 13 -8 13 -10 1 -10 -12 0 -12 -3 -3 -12 7 -7
12 -20 12 -30 0 -22 -41 -24 -137 -6 -48 9 -62 15 -58 26 3 7 5 20 5 28 0 8
10 14 25 14 21 0 25 5 25 31 0 26 -3 29 -20 24 -13 -4 -22 -1 -26 9 -16 43 32
59 71 25z m785 -42 c0 -7 -23 -37 -50 -67 -27 -30 -50 -60 -50 -66 0 -6 -7
-17 -15 -24 -9 -7 -23 -29 -32 -49 -9 -20 -26 -46 -37 -59 -12 -13 -20 -25
-18 -28 11 -19 -2 -34 -28 -34 -25 0 -30 4 -30 25 0 14 8 33 18 43 25 27 42
59 42 81 0 11 23 41 51 68 28 26 61 58 72 71 11 12 29 22 39 22 12 0 18 7 18
21 0 11 5 17 10 14 6 -3 10 -12 10 -18z m60 -47 c0 -12 -28 -25 -36 -17 -9 9
6 27 22 27 8 0 14 -5 14 -10z m3254 -75 c-6 -16 -24 -21 -24 -7 0 11 11 22 21
22 5 0 6 -7 3 -15z m-3359 -42 c-14 -33 -38 -68 -56 -83 -4 -3 -16 -25 -29
-49 -15 -31 -24 -40 -30 -31 -10 15 -4 35 22 72 10 14 18 29 18 32 0 15 66 95
78 96 9 0 9 -9 -3 -37z m3314 0 c-7 -10 -15 -20 -16 -22 -2 -2 -3 5 -3 17 0
14 6 22 16 22 14 0 15 -3 3 -17z m7843 5 c103 -8 138 -15 138 -25 0 -9 -15
-13 -50 -13 -35 0 -49 -4 -47 -12 1 -9 -14 -14 -45 -16 -29 -2 -48 1 -48 7 0
6 7 11 15 11 8 0 15 4 15 9 0 10 -63 20 -150 23 -73 3 -217 -47 -199 -69 14
-16 14 -16 -28 -32 -34 -14 -45 -15 -40 -5 1 3 -8 11 -21 18 -37 20 -8 41 108
80 119 39 153 41 352 24z m-11828 -4 c21 -8 20 -22 -4 -72 -17 -34 -26 -42
-48 -42 -45 0 -63 19 -56 61 8 48 58 72 108 53z m836 -31 c-1 -10 -47 -63 -55
-63 -11 0 -4 18 16 44 20 25 39 34 39 19z m11128 -330 c-2 -126 -7 -208 -13
-210 -6 -2 -10 51 -11 145 -1 147 -4 186 -17 198 -19 19 7 74 34 74 6 0 8 -81
7 -207z m-11499 160 c0 -5 -4 -17 -9 -28 -8 -18 -9 -17 -9 8 -1 15 4 27 9 27
6 0 10 -3 9 -7z m-479 -23 c0 -11 -7 -20 -15 -20 -8 0 -15 9 -15 20 0 11 7 20
15 20 8 0 15 -9 15 -20z m50 -57 c0 -21 -6 -55 -14 -76 -11 -32 -15 -36 -25
-23 -10 12 -10 19 3 38 9 12 16 39 16 60 0 21 5 38 10 38 6 0 10 -17 10 -37z
m11897 -190 c-3 -10 -5 -2 -5 17 0 19 2 27 5 18 2 -10 2 -26 0 -35z m-11967
-13 c11 -7 7 -10 -17 -10 -17 0 -35 5 -38 10 -8 13 35 13 55 0z m-50 -50 c0
-5 -7 -10 -15 -10 -8 0 -15 5 -15 10 0 6 7 10 15 10 8 0 15 -4 15 -10z m2930
-198 c0 -28 -3 -33 -10 -22 -13 20 -13 73 0 65 6 -3 10 -23 10 -43z m68 -89
c-10 -2 -28 -2 -40 0 -13 2 -5 4 17 4 22 1 32 -1 23 -4z m1020 -20 c-10 -2
-28 -2 -40 0 -13 2 -5 4 17 4 22 1 32 -1 23 -4z m2 -39 c0 -18 -23 -17 -155 5
-44 7 -38 8 53 10 88 1 102 -1 102 -15z m-131 -40 c8 -7 -63 -2 -94 7 -20 5
-9 6 30 2 33 -3 62 -7 64 -9z m5893 -264 c-4 -27 -8 -30 -42 -30 -21 0 -45 3
-54 6 -14 5 -14 8 1 30 12 19 24 24 57 24 42 0 42 -1 38 -30z m-9355 -87 c5
-13 -33 -37 -46 -28 -5 3 -7 14 -4 26 6 22 43 24 50 2z m2475 -298 l-9 -90 -2
76 c0 42 2 105 7 140 l7 64 3 -50 c1 -27 -2 -90 -6 -140z m-2905 105 c3 -11
11 -20 18 -20 14 0 42 -29 47 -49 2 -12 -16 -14 -115 -12 -65 2 -130 7 -145
11 -18 6 -21 9 -8 9 10 1 25 9 32 19 7 9 26 18 43 18 65 3 71 4 71 18 0 29 50
34 57 6z m48 -120 c18 0 20 -6 17 -69 l-4 -69 -41 -5 c-33 -5 -46 -1 -70 19
-16 13 -33 24 -38 24 -5 0 -9 22 -9 49 l0 50 43 4 c23 2 51 2 62 1 11 -2 29
-4 40 -4z m323 -27 c-10 -2 -26 -2 -35 0 -10 3 -2 5 17 5 19 0 27 -2 18 -5z
m28 -68 c7 -28 6 -27 30 -18 16 6 16 7 -2 14 -14 6 -8 8 20 8 l39 1 -7 -140
c-8 -158 -10 -170 -37 -170 -25 0 -24 -30 1 -37 16 -4 20 -14 20 -44 0 -36 -2
-39 -29 -39 -15 0 -48 -3 -72 -6 -37 -5 -48 -2 -72 19 -23 19 -26 25 -14 30
30 11 45 68 45 172 1 55 4 130 7 168 7 66 8 67 36 67 22 0 30 -6 35 -25z
m-512 -101 c4 -11 1 -14 -11 -12 -9 2 -18 9 -21 16 -6 18 25 15 32 -4z m106
-4 c-8 -15 -6 -29 10 -60 11 -22 25 -40 30 -40 6 0 10 -23 10 -52 0 -28 5 -66
12 -85 6 -18 9 -36 5 -39 -8 -8 -265 10 -274 19 -11 11 20 72 49 95 22 19 28
32 28 63 0 32 3 39 20 39 11 0 20 5 20 10 0 6 7 10 15 10 10 0 15 10 15 30 0
28 3 30 35 30 33 0 35 -2 25 -20z m95 -324 c22 -8 32 -15 23 -15 -22 -1 -27
-31 -10 -59 13 -20 13 -25 -3 -42 -10 -11 -23 -20 -30 -20 -15 0 -38 -75 -30
-100 4 -11 10 -20 14 -20 4 0 8 -30 9 -67 1 -38 5 -88 8 -112 l7 -44 -144 6
c-79 4 -165 9 -190 13 -42 6 -47 9 -44 30 1 14 10 33 19 42 25 28 30 75 12
110 -17 33 -22 138 -7 144 6 2 23 28 38 58 21 39 36 56 52 58 13 2 26 13 29
24 5 20 10 21 106 15 56 -4 120 -13 141 -21z m314 -42 c42 -5 61 -11 61 -21 0
-7 -6 -16 -12 -18 -10 -4 -12 -31 -10 -101 3 -77 -13 -322 -21 -330 -1 -1 -40
0 -86 3 -76 5 -81 7 -60 19 13 7 39 13 57 14 17 0 32 3 33 8 9 83 3 91 -55 85
l-44 -5 -6 48 c-6 53 -9 146 -7 236 1 70 14 76 150 62z m-423 -466 c52 -6 94
-15 94 -20 0 -4 -33 -8 -72 -7 -84 1 -213 21 -202 32 11 10 71 9 180 -5z
m-316 -33 c135 -8 277 -20 315 -25 39 -5 115 -14 170 -20 92 -9 253 -35 385
-61 30 -6 65 -13 78 -15 23 -5 31 -34 10 -34 -7 0 -23 -8 -36 -18 l-23 -18 70
-104 c99 -147 186 -234 275 -275 39 -18 91 -39 116 -48 37 -12 49 -22 67 -58
12 -24 21 -45 20 -46 -1 -1 -38 3 -82 8 -80 10 -258 3 -283 -10 -8 -4 21 -15
65 -24 l78 -16 -95 6 c-52 3 -99 6 -104 7 -18 2 -16 -21 3 -46 11 -14 60 -51
108 -83 155 -103 161 -112 108 -143 -19 -11 -18 -11 8 -12 16 0 26 4 22 9 -13
22 34 31 106 21 39 -6 75 -13 80 -16 5 -3 9 -20 7 -38 -2 -31 -5 -34 -51 -45
-27 -6 -92 -11 -145 -11 -68 -1 -103 -5 -116 -15 -18 -14 -18 -15 2 -53 14
-27 17 -43 10 -55 -14 -27 -62 -21 -95 11 -48 47 -134 112 -150 112 -8 0 -13
7 -11 17 2 13 20 21 68 30 l65 12 -64 -4 c-45 -2 -94 4 -162 21 -54 13 -122
24 -151 24 -58 0 -208 -23 -225 -33 -6 -4 -30 -8 -53 -9 -22 -1 -43 -5 -46
-10 -9 -13 -24 -9 -24 7 0 21 48 95 65 102 8 3 15 14 15 24 0 11 9 37 20 59
11 22 20 45 20 51 0 7 -8 5 -20 -6 -11 -10 -20 -22 -20 -26 0 -14 -44 -56 -66
-63 -15 -4 -24 -2 -27 8 -8 21 -71 46 -114 46 -38 0 -73 15 -73 32 0 8 23 9
74 5 41 -4 87 -3 103 2 15 5 41 12 56 15 62 14 9 23 -137 25 -151 1 -185 -6
-149 -29 16 -10 15 -11 -7 -6 -14 3 -121 6 -237 6 l-213 0 0 94 0 94 83 6 c45
4 197 11 338 16 202 7 264 13 290 25 35 17 79 65 59 65 -5 0 -10 -4 -10 -8 0
-5 -19 -19 -42 -32 -39 -22 -56 -24 -224 -28 l-181 -5 -39 36 c-22 20 -34 37
-27 37 23 0 1 29 -30 39 -25 8 -196 41 -213 41 -2 0 -4 74 -4 165 l0 166 170
-5 c94 -3 179 -10 188 -15 10 -5 45 -7 77 -4 33 2 136 -2 230 -11 199 -18 222
-28 218 -92 -2 -20 -11 -56 -22 -78 -26 -56 -43 -114 -39 -128 3 -7 24 41 48
106 48 128 48 152 0 187 -36 26 -237 46 -752 74 l-118 7 0 39 0 39 73 0 c39 0
182 -7 317 -15z m689 -10 c-11 -11 -27 -13 -67 -8 -67 8 -49 23 28 23 48 0 53
-2 39 -15z m11694 -80 c2 -14 -73 -37 -92 -29 -12 5 -5 11 24 25 42 20 65 21
68 4z m-458 -14 c3 -5 0 -13 -5 -16 -16 -10 -62 4 -55 15 8 13 52 13 60 1z
m-543 -86 c18 -8 26 -14 17 -15 -9 0 -22 -6 -28 -14 -7 -8 -39 -17 -72 -21
-47 -6 -65 -4 -84 9 -29 19 -31 34 -7 53 21 17 124 10 174 -12z m298 21 c0 -2
-9 -6 -20 -9 -11 -3 -20 -1 -20 4 0 5 9 9 20 9 11 0 20 -2 20 -4z m320 -6 c0
-5 -9 -10 -20 -10 -11 0 -20 5 -20 10 0 6 9 10 20 10 11 0 20 -4 20 -10z
m-384 -20 c28 0 31 -15 8 -38 -18 -17 -116 -29 -158 -18 -22 5 -23 8 -13 31
14 28 35 35 96 29 24 -2 54 -4 67 -4z m-1 -120 c12 -20 -107 -32 -148 -15
l-32 13 30 5 c58 8 144 7 150 -3z m-9955 -486 c0 -8 -7 -14 -15 -14 -15 0 -21
21 -9 33 10 9 24 -2 24 -19z m9395 -33 c8 -14 -61 -33 -95 -26 -33 7 -39 21
-12 28 32 9 101 7 107 -2z m-9365 -177 c0 -8 -4 -12 -10 -9 -5 3 -10 10 -10
16 0 5 5 9 10 9 6 0 10 -7 10 -16z m9297 -46 c21 -12 40 -23 42 -25 2 -1 5
-18 7 -38 1 -22 11 -42 24 -53 17 -13 22 -29 22 -65 1 -26 6 -47 12 -47 6 0 3
-8 -7 -17 -16 -16 -18 -16 -32 4 -8 12 -27 24 -43 28 -15 3 -49 26 -77 51 -27
25 -67 52 -87 61 -40 16 -52 48 -23 59 8 4 15 17 15 29 0 28 11 33 67 34 26 1
56 -7 80 -21z m-9207 -148 c0 -16 -4 -32 -10 -35 -6 -4 -10 10 -10 35 0 25 4
39 10 35 6 -3 10 -19 10 -35z m-981 -33 c30 -18 56 -37 57 -42 2 -6 -8 -18
-22 -29 -26 -18 -26 -18 -24 5 4 42 0 51 -17 47 -10 -2 -22 5 -28 17 -8 16
-24 21 -75 26 l-65 6 60 1 c52 2 68 -3 114 -31z m-228 -57 c39 -65 35 -70 -16
-20 -46 45 -58 74 -28 68 9 -2 29 -23 44 -48z m-72 -11 c62 -100 55 -119 -17
-46 -33 33 -39 46 -30 55 18 18 31 15 47 -9z m10104 -56 c-7 -2 -21 -2 -30 0
-10 3 -4 5 12 5 17 0 24 -2 18 -5z m-9942 -13 c11 0 17 -4 14 -10 -10 -16 -41
-12 -56 7 -12 15 -12 16 4 10 10 -4 28 -7 38 -7z m10038 -4 c11 -13 7 -13 -26
-5 -59 16 -61 17 -22 18 21 1 42 -5 48 -13z m-159 -86 c15 -16 32 -30 37 -30
5 0 34 -15 64 -33 30 -18 89 -44 130 -57 99 -31 229 -92 229 -107 0 -8 -10
-11 -27 -8 -16 2 -50 6 -76 9 -27 3 -63 12 -80 20 -33 15 -55 20 -146 37 -98
18 -75 -17 34 -51 22 -7 60 -24 85 -39 44 -26 44 -26 17 -29 -16 -2 -43 6 -63
17 -19 12 -46 21 -59 21 -13 0 -30 7 -39 15 -8 8 -23 15 -34 15 -11 0 -25 7
-32 15 -7 8 -25 15 -40 15 -57 0 -90 12 -90 32 0 11 9 22 20 25 42 11 21 32
-38 39 -51 5 -62 11 -85 39 -15 18 -28 39 -29 46 -4 16 72 37 140 38 48 1 57
-3 82 -29z m-9814 -11 c6 -11 -33 -11 -96 0 -45 8 -41 17 10 23 28 4 77 -9 86
-23z m109 0 c22 -4 57 -8 77 -9 20 0 39 -4 42 -9 8 -13 -4 -41 -17 -41 -19 0
-151 43 -164 53 -19 14 -16 30 5 22 9 -4 35 -11 57 -16z m-821 -9 c-12 -12
-200 -30 -321 -30 -66 0 -83 3 -83 15 0 16 43 20 270 23 100 1 141 -1 134 -8z
m1509 3 c-13 -2 -33 -2 -45 0 -13 2 -3 4 22 4 25 0 35 -2 23 -4z m-1129 -43
c7 0 45 9 82 21 47 14 69 18 72 10 2 -6 7 -9 11 -7 4 3 7 -4 7 -16 -1 -11 7
-25 17 -32 15 -9 21 -7 31 7 18 23 53 22 66 -3 6 -11 16 -20 23 -20 9 0 12
-20 9 -72 -4 -95 4 -106 57 -88 22 7 49 20 58 29 46 41 58 46 33 15 -54 -68
-141 -104 -250 -104 -66 0 -124 25 -172 73 -53 52 -89 135 -54 121 7 -3 20 1
27 9 8 7 23 16 34 20 58 17 100 36 103 46 4 11 -21 6 -43 -9 -5 -3 -30 -12
-55 -19 -25 -7 -55 -17 -67 -22 -26 -10 -38 14 -27 57 7 27 7 27 15 6 5 -12
15 -22 23 -22z m483 -16 c37 -4 62 -9 55 -12 -6 -2 -10 -8 -6 -13 10 -16 -6
-51 -19 -41 -18 14 -107 42 -133 42 -13 0 -26 5 -29 10 -11 19 7 32 36 26 16
-3 59 -9 96 -12z m11503 -61 l-4 -58 -7 55 c-3 30 -6 45 -7 33 -2 -21 -7 -23
-58 -23 -34 0 -53 -4 -49 -10 3 -5 28 -10 56 -10 37 0 49 -4 49 -15 0 -12 -14
-15 -62 -17 l-63 -1 65 -7 c54 -5 39 -7 -82 -11 l-147 -4 -4 30 -3 30 -8 -32
-8 -33 -397 3 c-329 2 -401 5 -425 17 -16 8 -29 20 -30 25 -1 6 79 13 209 17
311 10 396 15 545 29 146 14 276 17 328 6 18 -3 32 -2 32 3 0 6 -12 11 -27 11
-22 2 -19 3 12 9 92 16 91 17 85 -47z m-10920 17 c0 -5 -9 -10 -19 -10 -11 0
-23 5 -26 10 -4 6 5 10 19 10 14 0 26 -4 26 -10z m1302 -77 c17 -30 14 -53 -7
-53 -8 0 -14 16 -17 40 -4 47 2 50 24 13z m-232 -13 c12 -8 11 -10 -7 -10 -13
0 -23 5 -23 10 0 13 11 13 30 0z m7985 -25 c17 -3 40 -8 53 -11 13 -2 20 -9
17 -14 -3 -6 -1 -10 4 -10 6 0 10 -5 9 -12 -2 -8 19 -15 57 -21 119 -16 118
-16 153 -63 19 -26 52 -54 77 -66 50 -24 57 -36 49 -77 -5 -25 -13 -30 -62
-42 -31 -7 -63 -21 -71 -31 -9 -10 -21 -18 -27 -18 -6 0 -17 -7 -24 -15 -9
-11 -35 -15 -107 -15 -83 0 -103 4 -171 32 -75 31 -151 83 -152 103 0 6 -9 16
-20 23 -12 7 -18 17 -15 23 4 5 2 15 -3 22 -16 18 -42 99 -42 128 0 44 23 63
87 70 63 7 140 5 188 -6z m-7727 -67 c22 -22 14 -40 -15 -36 -34 4 -48 48 -16
48 11 0 24 -5 31 -12z m52 -142 c0 -25 41 -53 59 -42 7 4 11 -1 11 -13 0 -19
-6 -21 -76 -21 -60 0 -75 3 -71 13 7 20 -5 36 -31 40 -12 2 -25 6 -28 10 -4 4
-16 7 -26 7 -10 0 -18 5 -18 10 0 6 -8 10 -17 10 -36 1 52 31 99 34 26 1 51 6
55 10 11 11 43 -33 43 -58z m-502 21 c2 -19 -1 -27 -12 -27 -18 0 -35 29 -29
48 9 23 38 8 41 -21z m8990 -1 c15 -8 43 -17 63 -21 41 -6 89 -39 89 -60 0 -8
12 -21 28 -30 15 -8 42 -28 61 -44 32 -28 32 -30 13 -40 -12 -7 -106 -11 -242
-12 -235 -2 -257 2 -232 41 6 11 12 28 12 37 0 10 11 40 24 68 13 27 27 59 30
69 6 17 13 18 67 12 33 -3 73 -12 87 -20z m-8727 -17 c15 -12 19 -23 13 -27
-6 -4 -14 -19 -18 -34 -6 -26 -10 -28 -61 -28 -36 0 -55 4 -55 12 0 9 -3 9
-12 0 -18 -18 -28 -15 -28 9 0 20 4 21 60 14 59 -7 60 -7 60 18 0 23 9 57 15
57 1 0 13 -9 26 -21z m9318 -35 c86 -9 76 -24 -16 -24 -86 0 -126 7 -117 21 6
11 48 11 133 3z m-9669 -14 c13 -9 13 -11 0 -20 -21 -13 -23 -13 -38 10 -10
17 -10 20 5 20 10 0 25 -5 33 -10z m-75 -90 c-3 -5 -18 -10 -33 -9 -24 0 -25
1 -7 9 28 12 47 12 40 0z m186 -60 c5 0 9 -4 9 -9 0 -16 -197 -39 -335 -40
-145 -1 -97 15 72 24 78 4 159 13 180 20 21 8 44 12 51 10 8 -3 18 -5 23 -5z
m-461 -25 c-14 -16 -40 -20 -40 -6 0 10 17 19 39 20 11 1 11 -2 1 -14z m460
-67 c0 -12 -23 -19 -67 -22 -21 -1 -51 -8 -68 -15 -31 -13 -94 -8 -133 12 -18
8 -28 8 -43 -1 -16 -10 -19 -9 -19 7 0 14 8 21 28 23 54 8 302 4 302 -4z
m-470 -28 c0 -6 -26 -10 -57 -10 -41 0 -54 3 -43 10 20 13 100 13 100 0z m85
0 c4 -6 -7 -10 -24 -10 -17 0 -31 5 -31 10 0 6 11 10 24 10 14 0 28 -4 31 -10z
m-432 -17 c-13 -2 -33 -2 -45 0 -13 2 -3 4 22 4 25 0 35 -2 23 -4z m495 -10
c-10 -2 -28 -2 -40 0 -13 2 -5 4 17 4 22 1 32 -1 23 -4z m-138 -53 c0 -11 33
-14 43 -3 10 10 229 3 247 -8 9 -5 -56 -8 -165 -8 -99 1 -172 3 -162 6 9 2 17
9 17 14 0 5 5 9 10 9 6 0 10 -4 10 -10z m9413 -7 c-7 -2 -21 -2 -30 0 -10 3
-4 5 12 5 17 0 24 -2 18 -5z m180 0 c-18 -2 -48 -2 -65 0 -18 2 -4 4 32 4 36
0 50 -2 33 -4z m-90 -20 c-23 -2 -64 -2 -90 0 -26 2 -7 3 42 3 50 0 71 -1 48
-3z m220 0 c-13 -2 -33 -2 -45 0 -13 2 -3 4 22 4 25 0 35 -2 23 -4z"/>
<path d="M3030 6258 c0 -45 3 -59 10 -48 13 20 13 110 0 110 -6 0 -10 -27 -10
-62z"/>
<path d="M2560 6220 c0 -5 10 -10 23 -10 18 0 19 2 7 10 -19 13 -30 13 -30 0z"/>
<path d="M3462 6210 c0 -19 2 -27 5 -17 2 9 2 25 0 35 -3 9 -5 1 -5 -18z"/>
<path d="M5695 6231 c-6 -11 1 -16 40 -25 l30 -8 -27 21 c-29 24 -34 25 -43
12z"/>
<path d="M7149 5820 c-49 -43 -36 -56 14 -14 33 28 43 28 197 9 19 -2 68 -6
108 -9 40 -4 81 -11 92 -18 15 -9 24 -9 43 1 14 7 30 10 36 7 6 -4 17 -4 24 1
13 8 -44 21 -128 29 -27 2 -93 8 -145 14 -210 22 -191 23 -241 -20z"/>
<path d="M6690 5796 c0 -6 11 -13 25 -14 14 -1 25 3 25 8 0 6 -3 10 -7 11 -5
0 -16 2 -25 4 -10 2 -18 -2 -18 -9z"/>
<path d="M6777 5803 c-16 -3 -27 -9 -25 -15 4 -11 22 -13 98 -9 l35 2 -40 14
c-22 8 -40 14 -40 13 0 0 -13 -3 -28 -5z"/>
<path d="M7310 5773 c0 -19 53 -31 148 -36 87 -4 117 3 96 23 -14 13 -244 25
-244 13z"/>
<path d="M7117 5731 c-26 -29 -27 -30 -9 -40 22 -12 44 7 56 47 10 32 -13 28
-47 -7z"/>
<path d="M6682 5728 c3 -20 9 -23 65 -25 48 -2 62 1 67 13 10 27 -3 34 -70 34
-62 0 -65 -1 -62 -22z"/>
<path d="M3050 5679 c27 -19 101 -49 118 -48 20 1 -96 59 -118 59 -13 0 -13
-1 0 -11z"/>
<path d="M9906 5574 c-50 -34 -45 -39 12 -9 47 25 48 25 137 10 50 -8 115 -15
146 -15 30 0 60 -5 66 -11 8 -8 13 -8 17 0 14 22 -5 28 -106 36 -219 17 -232
16 -272 -11z"/>
<path d="M9296 5560 c19 -8 246 -30 297 -30 18 1 19 2 6 10 -18 10 -208 30
-279 29 -35 0 -40 -2 -24 -9z"/>
<path d="M7123 5530 c-38 -34 -39 -38 -16 -55 15 -11 15 -13 -5 -24 -18 -10
-20 -15 -12 -31 8 -16 7 -20 -4 -20 -9 0 -18 11 -22 25 -3 14 -12 25 -20 25
-19 0 -17 -13 6 -38 11 -12 31 -38 45 -58 19 -28 25 -32 25 -17 0 10 5 24 12
31 15 15 62 16 88 2 21 -11 83 6 74 21 -10 17 64 39 130 39 55 0 69 -4 95 -26
17 -14 31 -30 31 -36 0 -5 7 -16 15 -25 24 -24 11 -27 -54 -13 -39 8 -101 11
-178 7 -164 -7 -223 -28 -223 -80 0 -19 1 -19 13 -4 28 37 103 57 210 56 174
-1 227 -19 243 -84 3 -14 11 -28 18 -32 6 -3 8 -3 4 2 -4 4 0 14 8 22 11 11
13 33 11 86 -3 59 -1 74 16 93 25 30 100 37 237 24 58 -6 195 -15 305 -20 123
-6 218 -16 247 -25 26 -8 63 -15 82 -15 28 0 36 -4 36 -17 1 -18 39 53 40 73
0 7 -35 14 -92 18 -202 14 -244 18 -258 23 -8 3 -46 7 -85 9 -90 4 -257 22
-365 39 -135 22 -264 30 -256 16 4 -6 13 -11 20 -11 8 0 19 -6 25 -14 17 -20
-7 -26 -39 -9 -14 7 -52 13 -85 14 -33 1 -73 4 -90 8 l-30 7 34 7 c59 12 22
24 -94 31 l-110 6 -32 -30z"/>
<path d="M8855 5550 c-13 -21 31 -33 123 -34 95 -1 133 12 75 26 -46 10 -193
17 -198 8z"/>
<path d="M9963 5533 c9 -2 23 -2 30 0 6 3 -1 5 -18 5 -16 0 -22 -2 -12 -5z"/>
<path d="M10045 5530 c-13 -21 43 -38 135 -42 79 -2 95 -1 95 12 0 11 -16 17
-55 21 -126 15 -170 17 -175 9z"/>
<path d="M9856 5490 c-45 -22 -55 -31 -43 -36 24 -9 73 13 92 42 8 13 14 24
13 24 -2 0 -30 -13 -62 -30z"/>
<path d="M9330 5503 c0 -17 51 -31 135 -37 82 -5 119 4 99 24 -14 14 -234 26
-234 13z"/>
<path d="M5555 5384 c-59 -13 -59 -13 -11 -9 27 3 68 5 92 5 24 0 44 5 44 10
0 13 -51 11 -125 -6z"/>
<path d="M9895 5379 c-22 -12 -62 -34 -90 -49 -40 -22 -52 -26 -61 -16 -7 8
-41 14 -80 15 -38 1 -216 15 -396 31 -179 17 -343 30 -362 30 -34 0 -36 -2
-36 -34 0 -33 1 -35 33 -30 17 3 84 1 147 -5 519 -44 609 -54 652 -76 25 -12
29 -12 37 4 5 9 49 37 98 61 l88 44 110 -2 c61 -2 137 -7 170 -12 33 -5 108
-12 168 -16 91 -5 107 -4 107 8 0 11 -17 17 -62 21 -82 8 -358 35 -428 42 -44
4 -63 1 -95 -16z"/>
<path d="M11346 5375 c103 -18 304 -29 281 -15 -22 14 -174 30 -277 29 l-75
-1 71 -13z"/>
<path d="M10901 5373 c-9 -4 0 -12 25 -23 48 -21 210 -35 220 -19 11 18 -13
26 -95 33 -42 4 -89 9 -106 11 -16 2 -36 1 -44 -2z"/>
<path d="M11671 5356 c7 -7 285 -46 325 -45 22 0 48 4 59 9 17 6 15 8 -15 13
-78 13 -378 32 -369 23z"/>
<path d="M5338 5332 c-52 -19 -77 -36 -32 -23 46 14 84 30 84 36 0 3 -1 5 -2
4 -2 0 -24 -8 -50 -17z"/>
<path d="M11379 5329 c-5 -3 -2 -13 8 -22 27 -24 196 -29 201 -6 2 13 -14 18
-98 25 -56 5 -106 7 -111 3z"/>
<path d="M8594 5309 c-6 -8 -13 -21 -17 -30 -3 -10 -22 -19 -49 -23 -91 -13
-174 -32 -195 -44 -12 -6 -30 -12 -40 -12 -11 0 -23 -4 -28 -8 -6 -5 -36 -19
-67 -32 -32 -12 -58 -26 -58 -30 0 -4 -14 -13 -32 -21 -17 -7 -26 -15 -20 -17
7 -2 10 -8 7 -12 -3 -5 -12 -7 -20 -4 -9 4 -36 -12 -65 -36 -43 -36 -55 -42
-87 -38 -38 5 -82 -11 -103 -37 -10 -12 -16 -13 -26 -4 -10 8 -14 8 -14 1 0
-6 5 -14 10 -17 16 -10 12 -17 -24 -57 -19 -21 -55 -79 -79 -130 -78 -162 -87
-189 -87 -277 0 -45 4 -81 9 -81 4 0 14 28 21 63 31 154 85 308 122 347 10 11
18 23 18 29 0 5 18 24 40 41 36 28 40 30 40 12 0 -11 6 -22 14 -25 16 -6 36
11 36 30 0 8 9 17 19 21 21 8 95 68 146 118 17 17 49 37 70 44 22 7 47 18 55
25 51 42 227 94 329 97 61 2 61 2 61 32 0 16 7 37 16 47 9 10 14 23 12 30 -3
8 -7 7 -14 -2z"/>
<path d="M8662 5304 c-30 -15 -51 -44 -52 -69 0 -26 55 -61 73 -47 7 5 24 10
40 10 23 0 27 -5 27 -29 0 -16 -5 -29 -11 -29 -5 0 -7 -5 -3 -11 4 -6 20 -8
39 -5 37 7 65 -1 65 -18 0 -6 15 -11 33 -12 17 0 47 -4 66 -9 23 -5 32 -5 28
2 -4 6 -19 14 -34 18 -60 14 -94 55 -58 69 9 3 35 -1 58 -9 23 -7 64 -13 91
-12 l48 2 -53 23 c-100 42 -124 57 -137 85 -13 27 -30 34 -47 18 -6 -5 -38 -6
-73 -3 -47 3 -65 9 -70 21 -6 14 -11 15 -30 5z m178 -134 c8 -5 12 -11 10 -13
-9 -9 -59 -12 -60 -4 -1 23 2 27 18 27 9 0 24 -4 32 -10z"/>
<path d="M9865 5288 c-51 -26 -57 -32 -43 -42 14 -10 15 -16 5 -37 -17 -34
-45 -36 -57 -5 -7 18 -14 24 -26 19 -15 -6 -15 -8 3 -23 11 -9 23 -25 27 -37
4 -11 15 -28 26 -38 19 -18 20 -17 31 13 9 27 16 32 42 32 18 -1 43 -7 57 -15
14 -8 44 -14 67 -15 38 0 42 2 45 28 3 24 8 28 54 36 65 11 141 -14 146 -48 4
-29 31 -32 43 -4 6 12 24 26 40 31 38 11 356 0 391 -14 15 -5 88 -15 161 -21
73 -7 133 -14 133 -18 0 -3 -40 -18 -90 -34 -101 -32 -155 -61 -84 -46 23 5
52 14 66 19 13 5 60 12 103 16 95 9 110 16 118 52 4 15 9 37 13 49 5 20 0 21
-73 29 -148 14 -248 24 -288 28 -22 2 -98 9 -170 16 -71 7 -154 16 -184 21
-30 6 -84 10 -120 10 l-66 -1 30 -16 c37 -20 19 -28 -32 -14 -21 6 -60 11 -88
12 -49 1 -50 1 -17 11 17 6 32 14 32 18 0 8 -126 20 -194 20 -25 -1 -64 -13
-101 -32z"/>
<path d="M12400 5310 c0 -5 -8 -10 -17 -10 -32 0 -143 -45 -143 -57 0 -16 12
-16 64 -1 22 7 47 20 54 29 6 10 26 20 42 24 31 7 42 25 15 25 -8 0 -15 -4
-15 -10z"/>
<path d="M12496 5312 c-13 -21 58 -49 142 -56 68 -5 82 -4 82 8 0 8 6 16 13
19 8 3 9 8 2 15 -14 14 -231 27 -239 14z"/>
<path d="M11800 5292 c0 -25 40 -40 126 -45 75 -6 93 -4 98 8 8 21 -2 24 -106
35 -115 12 -118 12 -118 2z"/>
<path d="M5220 5280 c0 -5 4 -10 9 -10 6 0 13 5 16 10 3 6 -1 10 -9 10 -9 0
-16 -4 -16 -10z"/>
<path d="M8513 5143 c9 -2 25 -2 35 0 9 3 1 5 -18 5 -19 0 -27 -2 -17 -5z"/>
<path d="M9971 5110 c-65 -10 -135 -36 -152 -56 -17 -21 -3 -30 16 -10 50 50
318 71 400 31 37 -18 40 -24 43 -65 5 -77 22 -71 21 8 -1 42 -6 75 -13 81 -17
14 -248 22 -315 11z"/>
<path d="M11156 5095 c-20 -20 -20 -25 -2 -25 8 0 17 7 20 16 9 24 1 28 -18 9z"/>
<path d="M8490 5086 c-134 -29 -238 -73 -342 -142 -133 -88 -202 -161 -258
-269 -96 -188 -131 -305 -139 -465 -1 -17 -4 -21 -10 -12 -4 8 -19 11 -34 8
-15 -3 -27 0 -27 5 0 5 -7 9 -15 9 -8 0 -15 -5 -15 -11 0 -5 -4 -7 -10 -4 -5
3 -10 22 -10 41 0 19 -5 34 -10 34 -7 0 -10 -33 -8 -92 l3 -93 70 -3 c66 -3
82 8 30 21 -11 3 15 5 57 6 l78 1 -3 -32 c-3 -31 -5 -33 -42 -33 -22 1 -75 4
-119 9 -64 6 -77 5 -74 -6 3 -8 26 -15 59 -19 l54 -5 -55 -5 c-47 -3 -55 -7
-55 -24 0 -17 9 -21 52 -26 72 -9 83 -15 83 -42 0 -13 5 -28 12 -35 17 -17 9
-20 -52 -12 -52 7 -53 7 -15 10 36 2 37 3 15 10 -14 4 -41 8 -60 9 -33 1 -36
-1 -35 -26 0 -27 2 -28 65 -33 l65 -5 6 -280 c4 -154 9 -521 13 -815 4 -294 9
-550 12 -567 l5 -33 97 0 c66 0 106 -5 126 -15 15 -8 56 -15 90 -16 33 0 81
-4 106 -8 30 -5 -18 -8 -144 -10 -103 -1 -191 -3 -195 -6 -4 -2 -24 0 -45 5
l-37 8 3 -44 3 -43 315 -5 c173 -3 482 -8 685 -11 482 -7 615 -13 615 -30 0
-9 -11 -10 -42 -4 -70 13 -164 11 -177 -5 -17 -20 -69 -25 -83 -9 -25 31 -47
35 -77 14 -28 -20 -29 -20 -46 -1 -15 16 -28 18 -103 14 -116 -6 -135 -11
-129 -32 2 -9 6 -24 8 -32 6 -22 43 -50 50 -38 9 13 29 1 29 -17 0 -9 -11 -13
-29 -13 -17 1 -40 -6 -53 -14 -13 -8 -42 -15 -65 -17 -40 -2 -43 -1 -43 23 0
16 -6 26 -15 26 -11 0 -12 -5 -5 -24 5 -13 7 -32 6 -42 -3 -17 -18 -20 -162
-27 -87 -5 -186 -6 -219 -2 l-60 6 3 45 c3 27 0 44 -7 44 -6 0 -11 20 -11 48
0 70 -6 74 -101 77 -46 1 -59 0 -27 -2 l56 -4 4 -44 c2 -25 -1 -45 -6 -45 -12
0 -70 -64 -74 -82 -8 -32 -38 -47 -102 -49 -36 -2 -77 1 -92 5 -27 8 -28 7
-28 -25 1 -32 2 -33 15 -15 13 17 19 18 53 8 22 -7 93 -12 158 -13 102 0 242
-15 177 -18 -16 -1 -23 -7 -23 -20 0 -16 9 -21 43 -24 23 -2 -7 -4 -68 -4 -60
0 -137 -6 -170 -13 -33 -6 -80 -13 -105 -13 -41 -2 -46 1 -61 30 l-16 33 -7
-38 c-9 -57 -7 -250 3 -256 5 -3 25 1 45 9 28 12 45 13 78 5 24 -5 87 -10 141
-10 53 0 97 -4 97 -9 0 -6 15 -11 33 -13 17 -2 -51 -7 -153 -11 -171 -8 -229
-17 -184 -30 11 -3 105 -8 209 -12 105 -4 193 -11 196 -17 10 -15 93 -31 97
-19 2 6 30 11 62 11 49 0 61 -3 70 -20 7 -14 7 -20 0 -20 -5 0 -10 -11 -10
-24 l0 -25 -187 -5 c-104 -3 -208 -7 -233 -10 -25 -2 -75 -8 -112 -12 -49 -5
-72 -3 -83 6 -13 11 -15 8 -15 -22 l0 -35 113 -6 c61 -4 228 -7 370 -7 142 0
257 -4 257 -9 0 -9 625 -5 669 5 18 4 22 9 16 27 -3 12 -9 43 -12 70 -5 46 -5
47 22 47 26 0 27 2 20 38 -4 20 -11 39 -16 40 -16 6 -10 31 11 44 11 7 20 20
20 28 0 26 62 140 87 160 l25 19 -6 228 c-4 125 -13 496 -21 823 -8 327 -17
685 -20 795 -2 110 -1 205 3 211 4 6 52 26 107 44 79 26 125 35 220 41 66 4
122 9 125 10 3 1 -42 7 -100 14 -105 11 -105 11 -185 -18 -78 -28 -180 -57
-200 -57 -5 1 -3 6 7 13 9 7 18 24 20 37 3 22 15 29 98 57 182 60 215 68 288
68 49 0 72 4 72 12 0 6 -8 12 -17 11 -52 0 -183 16 -183 23 0 5 42 10 93 10
74 1 84 3 52 9 -22 5 -74 9 -115 10 -67 1 -88 -4 -199 -45 -68 -25 -137 -49
-154 -52 -26 -5 -29 -4 -24 12 4 10 3 23 -3 30 -8 10 -1 16 32 27 l43 15 8 79
c4 43 14 113 22 154 7 41 21 145 31 230 9 85 21 158 27 161 10 7 -12 79 -24
79 -4 0 -11 10 -14 22 -10 29 -157 181 -231 237 -34 26 -115 73 -180 106 -166
82 -161 80 -178 66 -9 -8 -42 -10 -104 -6 -58 4 -93 2 -97 -5 -8 -12 -45 -13
-45 -1 0 5 6 12 13 14 9 4 8 8 -3 16 -18 13 -29 13 -100 -3z m-573 -2913 c-20
-2 -52 -2 -70 0 -17 2 0 4 38 4 39 0 53 -2 32 -4z m993 -53 c-8 -5 -37 -9 -65
-8 l-50 1 50 7 c82 11 82 11 65 0z m430 -245 c0 -17 -11 -20 -25 -6 -6 5 -26
11 -45 14 -27 3 -23 4 18 5 40 2 52 -1 52 -13z m50 5 c-8 -5 -22 -9 -30 -9
-10 0 -8 3 5 9 27 12 43 12 25 0z m-863 -164 c-3 -8 -2 -16 3 -18 17 -6 -5
-26 -30 -29 -14 -1 -60 -1 -102 -1 l-78 2 0 30 0 30 106 0 c88 0 105 -2 101
-14z m-67 -316 c0 -10 -59 -24 -86 -18 -9 1 -19 9 -22 16 -3 9 12 12 52 12 31
0 56 -4 56 -10z"/>
<path d="M8207 5053 c-16 -8 -26 -17 -24 -20 6 -5 67 24 67 32 0 8 -13 4 -43
-12z"/>
<path d="M3740 5055 c0 -3 5 -11 10 -18 6 -7 17 -21 25 -32 13 -18 13 -16 1
15 -12 30 -36 53 -36 35z"/>
<path d="M11090 5053 c-79 -9 -164 -35 -242 -73 -110 -54 -158 -85 -227 -149
-16 -14 -35 -31 -42 -37 -8 -6 -21 -21 -30 -32 -10 -11 -24 -24 -32 -28 -9 -5
-17 -22 -19 -39 -2 -25 1 -31 20 -33 12 -2 22 0 21 5 -5 31 3 73 14 73 17 0
59 44 50 53 -3 4 2 7 13 7 11 0 25 9 31 19 19 30 100 82 117 75 9 -3 16 -2 16
4 0 12 58 40 146 71 39 13 85 21 127 21 55 0 68 3 77 19 12 23 13 52 3 49 -5
0 -24 -3 -43 -5z"/>
<path d="M7590 5040 c0 -5 25 -10 55 -10 30 0 55 5 55 10 0 6 -25 10 -55 10
-30 0 -55 -4 -55 -10z"/>
<path d="M4720 4979 c-8 -12 -21 -27 -27 -35 -7 -7 -13 -16 -13 -20 0 -4 -7
-15 -16 -25 -15 -16 -14 -17 5 -12 12 3 21 10 21 17 0 6 12 24 26 39 14 15 24
34 22 43 -2 12 -6 10 -18 -7z"/>
<path d="M11035 4940 c-15 -6 -6 -9 33 -9 28 -1 52 4 52 9 0 12 -57 12 -85 0z"/>
<path d="M3796 4814 c-5 -13 -1 -14 27 -9 48 10 57 25 15 25 -23 0 -38 -5 -42
-16z"/>
<path d="M10471 4795 c-17 -19 -35 -35 -40 -35 -5 0 -12 -12 -16 -27 -3 -15
-19 -43 -34 -62 -67 -89 -83 -132 -74 -212 l6 -60 19 53 c11 29 26 71 33 93
13 42 109 192 151 236 19 19 21 28 12 37 -18 18 -23 15 -57 -23z"/>
<path d="M4608 4754 c13 -9 26 -13 30 -9 8 8 -17 25 -38 25 -9 0 -6 -6 8 -16z"/>
<path d="M3870 4721 c0 -11 5 -23 10 -26 6 -3 10 3 10 14 0 11 -4 23 -10 26
-5 3 -10 -3 -10 -14z"/>
<path d="M10538 4623 c-18 -36 -15 -42 8 -18 9 8 14 23 12 33 -3 13 -8 9 -20
-15z"/>
<path d="M4400 4386 c28 -17 50 -21 35 -7 -6 5 -21 12 -35 15 l-25 7 25 -15z"/>
<path d="M6783 4145 c-10 -7 -15 -17 -10 -21 4 -4 13 -2 19 4 7 7 44 12 92 12
43 0 77 2 75 4 -2 2 -39 6 -81 9 -55 4 -81 2 -95 -8z"/>
<path d="M9560 3985 c-32 -18 -25 -18 25 0 22 8 31 14 20 14 -11 0 -31 -6 -45
-14z"/>
<path d="M3962 3903 c-45 -6 -67 -40 -50 -79 l12 -29 4 31 c7 64 24 69 221 68
146 -1 185 -4 231 -20 l55 -19 3 -167 c1 -101 6 -168 12 -168 6 0 10 52 10
129 0 71 3 136 6 145 5 12 22 16 73 18 l66 2 -70 5 c-59 5 -70 9 -70 24 0 26
-25 37 -123 53 -79 13 -299 17 -380 7z"/>
<path d="M12085 3851 c-4 -8 21 -11 81 -11 48 0 85 2 83 4 -11 10 -157 17
-164 7z"/>
<path d="M7575 3720 c3 -5 10 -10 16 -10 5 0 9 5 9 10 0 6 -7 10 -16 10 -8 0
-12 -4 -9 -10z"/>
<path d="M7590 3645 c0 -56 14 -91 23 -59 8 28 2 83 -12 97 -8 8 -11 -1 -11
-38z"/>
<path d="M7668 3663 c12 -2 30 -2 40 0 9 3 -1 5 -23 4 -22 0 -30 -2 -17 -4z"/>
<path d="M3970 3431 c-36 -3 -60 -9 -55 -12 6 -3 64 0 130 6 86 9 102 12 55
12 -36 0 -94 -3 -130 -6z"/>
<path d="M4375 3410 c17 -4 38 -11 48 -15 12 -5 17 -2 17 9 0 13 -10 16 -47
15 -43 -1 -45 -2 -18 -9z"/>
<path d="M3708 3393 c12 -2 30 -2 40 0 9 3 -1 5 -23 4 -22 0 -30 -2 -17 -4z"/>
<path d="M4588 3353 c12 -2 30 -2 40 0 9 3 -1 5 -23 4 -22 0 -30 -2 -17 -4z"/>
<path d="M3638 3180 c-4 -14 -8 -43 -8 -65 1 -32 3 -37 11 -22 5 9 9 39 7 65
-2 38 -4 42 -10 22z"/>
<path d="M3713 1893 c37 -2 96 -2 130 0 34 2 4 3 -68 3 -71 0 -99 -1 -62 -3z"/>
<path d="M4448 1883 c23 -2 59 -2 80 0 20 2 1 4 -43 4 -44 0 -61 -2 -37 -4z"/>
<path d="M10280 1840 c0 -8 129 -3 139 6 2 2 -28 4 -67 4 -40 0 -72 -4 -72
-10z"/>
<path d="M4417 1706 c-4 -10 -7 -31 -7 -47 0 -16 -5 -29 -12 -29 -7 0 2 -13
21 -29 19 -15 30 -31 24 -34 -15 -9 -554 -13 -600 -4 -36 7 -43 6 -43 -7 0 -8
-9 -21 -21 -29 -11 -8 -17 -17 -12 -20 15 -9 193 5 187 15 -4 6 24 7 72 4 44
-3 156 -10 249 -15 94 -4 179 -12 189 -16 16 -7 18 -5 13 10 -6 15 -5 16 8 5
17 -14 21 -35 5 -25 -5 3 -10 0 -10 -8 0 -17 -41 -37 -78 -38 -15 -1 3 -7 41
-13 37 -7 68 -15 70 -17 2 -2 8 -15 14 -29 l11 -25 7 29 c4 15 3 43 -3 62 -7
24 -7 46 0 71 13 47 -3 85 -35 83 -41 -4 -45 0 -51 44 -4 24 -13 51 -20 61
-12 17 -13 17 -19 1z"/>
<path d="M9728 1673 c-10 -2 -18 -9 -18 -14 0 -13 13 -11 36 6 19 14 14 17
-18 8z"/>
<path d="M7080 1519 c0 -21 3 -21 68 -15 37 4 83 10 102 13 l35 7 -40 7 c-22
4 -68 8 -102 8 -58 1 -63 -1 -63 -20z"/>
<path d="M9423 1534 c-29 -13 -9 -24 41 -24 58 0 75 -10 51 -30 -19 -16 -19
-49 -1 -56 20 -8 56 14 56 33 0 13 -3 14 -12 5 -32 -32 -39 3 -7 37 20 21 25
22 147 15 86 -4 124 -3 117 4 -11 11 -371 25 -392 16z"/>
<path d="M7468 1513 c12 -2 30 -2 40 0 9 3 -1 5 -23 4 -22 0 -30 -2 -17 -4z"/>
<path d="M3745 1460 c-4 -6 -4 -22 -1 -36 6 -22 8 -23 22 -9 8 8 30 15 47 16
l32 1 -32 8 c-18 4 -39 13 -47 19 -10 9 -16 9 -21 1z"/>
<path d="M9435 1455 c21 -17 45 -17 48 0 1 6 -14 11 -33 13 -33 2 -34 2 -15
-13z"/>
<path d="M9600 1450 c0 -13 130 -13 150 0 10 7 -11 10 -67 10 -49 0 -83 -4
-83 -10z"/>
<path d="M7040 1424 c0 -13 6 -15 31 -10 17 3 47 6 67 6 52 0 36 6 -35 14 -55
6 -63 5 -63 -10z"/>
<path d="M7040 1396 c0 -9 30 -14 35 -6 4 6 -3 10 -14 10 -12 0 -21 -2 -21 -4z"/>
<path d="M7810 1371 c0 -6 5 -13 10 -16 6 -3 10 1 10 9 0 9 -4 16 -10 16 -5 0
-10 -4 -10 -9z"/>
<path d="M10409 1350 c-41 -24 -409 -41 -409 -19 0 19 -218 6 -263 -16 -35
-16 -56 -49 -42 -63 4 -4 163 -7 354 -7 328 0 348 1 366 19 57 56 52 120 -6
86z"/>
<path d="M3730 1340 c20 -13 53 -13 45 0 -3 6 -18 10 -33 10 -21 0 -24 -2 -12
-10z"/>
<path d="M8155 1320 c-11 -5 -14 -9 -7 -9 6 -1 12 -8 12 -16 0 -21 17 -19 29
4 16 29 3 37 -34 21z"/>
<path d="M9280 1239 c0 -20 33 -74 58 -94 38 -29 128 -44 278 -44 137 -1 183
9 215 46 21 24 30 51 20 58 -10 6 -321 32 -468 39 -66 3 -103 2 -103 -5z"/>
<path d="M4531 903 c3 -32 -1 -41 -18 -46 -16 -3 -16 -5 2 -12 52 -20 124 -56
129 -64 3 -5 21 -12 41 -15 19 -4 54 -18 77 -31 24 -14 52 -25 63 -25 11 1 -4
12 -35 27 -30 14 -66 35 -79 45 -13 10 -31 18 -40 18 -9 0 -29 11 -46 25 l-30
24 41 1 c32 0 45 5 56 22 14 22 14 23 -21 35 -20 7 -60 13 -89 13 -45 0 -53
-3 -51 -17z"/>
<path d="M4899 888 c22 -6 47 -6 70 0 33 9 29 10 -34 10 -62 0 -66 -1 -36 -10z"/>
<path d="M5048 893 c12 -2 30 -2 40 0 9 3 -1 5 -23 4 -22 0 -30 -2 -17 -4z"/>
<path d="M4270 859 c-48 -5 -27 -6 77 -5 79 0 143 4 143 9 0 8 -127 7 -220 -4z"/>
<path d="M3555 745 c-16 -13 -43 -24 -59 -25 l-29 0 27 -21 c19 -15 26 -30 26
-55 0 -26 7 -41 28 -59 38 -34 74 -31 40 3 -7 7 -13 25 -14 40 -1 16 -5 38 -8
50 -7 21 -4 22 41 22 44 0 73 12 73 31 0 3 -18 9 -40 13 -22 3 -40 11 -40 16
0 16 -13 12 -45 -15z"/>
<path d="M4420 710 c0 -5 23 -10 50 -10 28 0 50 5 50 10 0 6 -22 10 -50 10
-27 0 -50 -4 -50 -10z"/>
<path d="M4080 651 c0 -5 7 -14 16 -22 13 -11 21 -10 47 4 18 9 48 18 67 20
19 2 -2 5 -47 5 -46 1 -83 -2 -83 -7z"/>
<path d="M3840 604 c0 -5 9 -20 19 -33 16 -20 24 -23 56 -18 21 4 41 11 45 17
3 6 33 14 66 19 l59 9 -61 1 c-34 0 -89 4 -123 7 -34 4 -61 3 -61 -2z"/>
<path d="M3632 564 c-9 -10 -12 -27 -8 -48 6 -29 10 -33 31 -28 16 3 25 11 25
23 0 16 8 19 44 19 25 0 48 5 51 10 3 6 15 10 27 10 17 0 18 2 8 15 -18 21
-159 21 -178 -1z"/>
<path d="M3930 542 c0 -20 27 -43 43 -37 13 6 14 11 6 26 -9 18 -49 27 -49 11z"/>
<path d="M4416 501 c-18 -7 -18 -8 5 -14 35 -10 117 -8 123 2 12 19 -88 28
-128 12z"/>
<path d="M3807 490 c-21 -4 -45 -13 -52 -21 -12 -12 -11 -17 4 -37 16 -21 25
-24 91 -23 40 0 78 5 84 11 7 7 -6 10 -41 10 -28 0 -58 3 -67 6 -17 7 -10 33
13 51 9 7 14 12 11 12 -3 -1 -22 -5 -43 -9z"/>
<path d="M3615 440 c-4 -6 6 -10 22 -10 22 0 25 2 13 10 -19 12 -27 12 -35 0z"/>
<path d="M4405 440 c-8 -13 45 -13 65 0 11 7 6 10 -22 10 -20 0 -40 -4 -43
-10z"/>
<path d="M4583 443 c9 -2 25 -2 35 0 9 3 1 5 -18 5 -19 0 -27 -2 -17 -5z"/>
<path d="M5835 440 c-4 -6 27 -10 87 -9 64 1 84 4 63 9 -45 11 -143 11 -150 0z"/>
<path d="M6113 443 c9 -2 25 -2 35 0 9 3 1 5 -18 5 -19 0 -27 -2 -17 -5z"/>
<path d="M3320 436 c0 -3 14 -12 32 -20 51 -26 132 -16 114 13 -7 10 -146 17
-146 7z"/>
<path d="M3480 413 c0 -7 9 -13 20 -13 11 0 20 6 20 14 0 9 -9 14 -20 13 -11
-1 -20 -7 -20 -14z"/>
<path d="M3570 410 c-12 -8 -12 -10 -1 -10 34 0 -5 -15 -52 -20 -90 -9 -53
-25 64 -28 102 -2 110 -1 107 15 -2 13 -14 19 -46 21 -28 2 -42 8 -42 18 0 16
-9 18 -30 4z"/>
<path d="M3780 360 l-45 -6 40 -11 c68 -20 109 -20 103 -1 -6 17 -46 24 -98
18z"/>
<path d="M3179 254 c-6 -12 -9 -30 -6 -40 4 -16 5 -15 6 4 1 22 5 23 53 20 42
-2 53 0 56 13 2 14 -7 18 -47 20 -43 3 -52 1 -62 -17z"/>
<path d="M3682 273 c-6 -2 -10 -9 -6 -14 8 -14 50 -11 64 6 11 13 8 15 -16 14
-16 0 -35 -3 -42 -6z"/>
<path d="M8555 260 c3 -5 17 -10 31 -10 13 0 24 5 24 10 0 6 -14 10 -31 10
-17 0 -28 -4 -24 -10z"/>
<path d="M4463 254 c7 -7 169 -5 176 2 2 2 -38 4 -89 4 -51 0 -90 -3 -87 -6z"/>
<path d="M3841 231 c-38 -4 -66 -11 -69 -18 -4 -15 40 -17 127 -6 48 5 52 8
36 20 -11 7 -21 12 -24 11 -3 -1 -35 -4 -70 -7z"/>
<path d="M4262 224 c-10 -11 -10 -14 0 -14 9 0 9 -3 -2 -11 -12 -8 -9 -9 10
-4 14 3 56 9 93 12 37 3 66 8 63 10 -2 2 -35 7 -72 9 -38 3 -71 7 -74 9 -3 1
-11 -3 -18 -11z"/>
<path d="M4000 221 l-35 -7 57 -13 c57 -12 98 -8 98 10 0 5 -10 9 -22 9 -13 0
-32 2 -43 4 -11 2 -36 1 -55 -3z"/>
<path d="M4680 5800 c0 -5 9 -10 20 -10 11 0 20 5 20 10 0 6 -9 10 -20 10 -11
0 -20 -4 -20 -10z"/>
<path d="M4659 5320 c-6 -45 -4 -58 7 -48 3 3 4 26 2 49 l-3 44 -6 -45z"/>
<path d="M337 5404 c-8 -8 1 -24 14 -24 5 0 9 7 9 15 0 15 -12 20 -23 9z"/>
<path d="M232 2310 c-73 -11 -77 -20 -10 -20 40 0 57 4 62 15 3 8 4 14 3 14
-1 -1 -26 -5 -55 -9z"/>
<path d="M564 1735 c-17 -13 -13 -14 49 -15 37 0 67 4 67 9 0 24 -86 29 -116
6z"/>
<path d="M1568 1433 c12 -2 30 -2 40 0 9 3 -1 5 -23 4 -22 0 -30 -2 -17 -4z"/>
<path d="M878 872 c-38 -15 -68 -30 -68 -35 0 -24 135 -106 205 -123 28 -7 29
-7 12 10 -13 13 -17 34 -17 86 0 58 -3 71 -19 80 -26 14 -35 12 -113 -18z"/>
<path d="M1068 746 c-6 -30 5 -42 21 -23 8 10 7 19 -3 32 -12 17 -13 16 -18
-9z"/>
<path d="M10768 726 c-10 -7 -19 -24 -21 -37 -3 -19 -11 -25 -36 -27 -28 -3
-32 -6 -27 -25 3 -12 6 -25 6 -29 0 -17 30 -7 30 10 0 13 8 17 33 17 28 0 32
4 35 28 2 15 9 27 18 27 28 0 94 25 99 37 6 18 -114 17 -137 -1z"/>
<path d="M11051 661 c-15 -10 -7 -31 13 -31 7 0 33 -17 57 -38 119 -104 144
-97 41 12 -54 57 -86 73 -111 57z"/>
<path d="M10922 608 c-12 -15 -5 -63 12 -77 16 -12 80 -23 158 -25 37 -2 75
-9 85 -16 10 -7 0 5 -22 28 -22 22 -46 41 -53 42 -6 0 -35 11 -62 24 -68 33
-104 40 -118 24z"/>
<path d="M3340 7020 c0 -18 4 -29 10 -25 6 3 10 15 10 25 0 10 -4 22 -10 25
-6 4 -10 -7 -10 -25z"/>
<path d="M7114 7024 c3 -9 6 -18 6 -20 0 -2 4 -4 9 -4 5 0 7 9 4 20 -3 11 -10
20 -15 20 -6 0 -7 -7 -4 -16z"/>
<path d="M10748 7016 c-2 -11 -1 -75 2 -141 l5 -120 89 -3 89 -3 -6 68 c-4 37
-7 96 -7 130 l0 62 -47 6 c-27 3 -65 10 -85 14 -33 8 -37 6 -40 -13z"/>
<path d="M5155 7010 c-7 -12 32 -90 45 -90 6 0 10 5 10 10 0 12 187 14 194 2
3 -5 54 -12 113 -15 59 -3 133 -13 163 -20 30 -8 112 -17 182 -21 70 -3 135
-10 145 -15 10 -5 88 -15 173 -21 309 -23 280 -18 292 -51 8 -24 13 -27 28
-19 10 6 20 20 22 32 2 12 13 28 26 34 23 11 23 11 -10 27 -19 8 -119 24 -238
36 -113 12 -241 26 -285 31 -44 6 -145 17 -225 25 -136 14 -287 32 -458 55
-93 13 -169 13 -177 0z m1193 -157 c-10 -2 -26 -2 -35 0 -10 3 -2 5 17 5 19 0
27 -2 18 -5z"/>
<path d="M8270 6942 c0 -44 3 -99 6 -124 l6 -45 96 -11 c53 -6 97 -10 98 -9 1
1 -1 56 -5 122 l-6 120 -40 6 c-22 4 -66 10 -97 14 l-58 6 0 -79z"/>
<path d="M10009 6989 c-9 -6 4 -9 40 -9 30 0 52 2 50 4 -11 9 -77 13 -90 5z"/>
<path d="M11045 6863 c4 -71 10 -131 14 -135 3 -3 41 -9 84 -13 l77 -7 0 78
c0 44 -3 102 -6 131 l-7 51 -62 11 c-34 6 -72 11 -84 11 l-23 0 7 -127z"/>
<path d="M8605 6971 c-9 -8 -5 -106 5 -121 7 -11 10 -1 10 35 0 28 5 57 10 65
12 18 12 -33 1 -133 -8 -76 -2 -88 42 -80 26 5 27 7 28 77 1 81 13 68 24 -27
8 -62 7 -61 48 -71 l27 -6 0 120 c0 87 -3 122 -12 125 -20 8 -178 22 -183 16z"/>
<path d="M11255 6834 c4 -71 9 -131 10 -132 7 -8 155 -7 155 0 0 5 -3 8 -7 8
-5 0 -7 50 -5 111 2 65 -1 116 -7 122 -5 5 -42 12 -82 15 l-72 5 8 -129z"/>
<path d="M8835 6834 c4 -66 9 -121 11 -123 3 -3 174 -18 177 -15 1 1 1 54 -1
117 l-3 115 -42 6 c-23 3 -66 9 -96 12 l-53 7 7 -119z"/>
<path d="M7343 6881 c15 -5 63 -12 105 -15 42 -3 93 -8 112 -12 33 -7 34 -8
10 -15 -23 -6 -23 -7 -3 -8 12 -1 34 4 50 11 27 11 25 12 -42 24 -89 16 -272
28 -232 15z"/>
<path d="M9895 6861 c-16 -10 -40 -30 -52 -45 -13 -14 -29 -26 -35 -26 -7 -1
-23 -9 -36 -20 l-23 -19 20 -39 c34 -68 44 -70 103 -25 29 22 58 42 65 46 6 4
66 0 133 -10 l120 -17 60 64 c33 35 58 65 56 68 -8 7 -293 42 -346 42 -19 0
-48 -8 -65 -19z m4 -68 c11 -23 10 -29 -5 -40 -10 -7 -28 -13 -42 -13 -13 0
-20 -4 -17 -10 3 -5 -2 -10 -11 -10 -14 0 -15 3 -6 12 7 7 12 18 12 25 0 20
30 63 45 63 6 0 17 -12 24 -27z"/>
<path d="M10671 6653 c2 -122 8 -148 38 -148 23 0 24 0 22 109 -1 61 -4 113
-7 118 -3 4 -16 8 -30 8 -24 0 -24 -1 -23 -87z"/>
<path d="M7680 6720 c-21 -7 -22 -8 -5 -10 49 -5 76 -8 165 -20 52 -6 111 -10
130 -8 23 2 8 6 -45 11 -68 6 -133 16 -205 32 -8 1 -26 -1 -40 -5z"/>
<path d="M10760 6628 c0 -68 4 -110 13 -121 8 -12 35 -18 91 -22 l79 -7 -6 63
c-4 34 -7 85 -7 114 l0 52 -69 7 c-38 3 -76 9 -85 12 -14 5 -16 -7 -16 -98z"/>
<path d="M12338 6703 c-10 -2 -18 -11 -18 -18 0 -11 6 -12 26 -5 14 6 60 11
102 11 l77 2 -55 7 c-62 9 -107 10 -132 3z"/>
<path d="M8082 6681 c-10 -6 -10 -10 2 -20 9 -7 21 -11 28 -8 7 2 20 -1 28 -8
23 -18 131 -45 183 -45 26 0 93 -7 150 -16 56 -8 138 -20 182 -24 44 -5 116
-14 160 -20 44 -5 132 -14 195 -20 170 -15 239 -29 251 -51 9 -18 10 -18 28 0
24 24 32 69 16 85 -8 7 -80 20 -176 30 -90 10 -220 24 -289 32 -69 8 -172 19
-230 24 -58 6 -116 12 -130 15 -36 7 -319 35 -355 35 -16 0 -36 -4 -43 -9z"/>
<path d="M11060 6587 c0 -56 4 -107 8 -113 4 -7 34 -15 67 -19 33 -4 68 -9 78
-11 15 -5 17 5 17 105 0 128 2 125 -102 134 l-68 6 0 -102z"/>
<path d="M7656 6671 c-4 -5 -3 -11 1 -13 14 -7 33 -3 34 7 0 14 -28 19 -35 6z"/>
<path d="M12268 6664 c-25 -13 -38 -34 -23 -34 14 0 65 32 65 40 0 13 -10 12
-42 -6z"/>
<path d="M11266 6554 c4 -60 7 -110 8 -111 1 -1 36 -5 79 -9 l77 -7 -6 109
c-4 60 -7 110 -8 111 -1 1 -36 5 -79 9 l-78 7 7 -109z"/>
<path d="M12374 6589 c-16 -3 -56 -21 -89 -39 -33 -18 -77 -42 -97 -52 -21
-10 -38 -20 -38 -22 0 -9 31 -73 43 -88 17 -22 31 -23 47 -3 7 8 20 15 29 15
10 0 27 9 40 21 30 28 77 33 187 21 l91 -11 67 65 c36 36 66 66 66 68 0 2 -39
6 -87 10 -49 4 -120 10 -159 14 -39 4 -84 5 -100 1z m-96 -96 c0 -10 2 -25 6
-34 6 -13 0 -18 -31 -22 -21 -2 -42 -1 -47 4 -16 14 3 39 34 45 16 4 30 10 30
15 0 5 2 9 4 9 3 0 4 -8 4 -17z"/>
<path d="M9965 6580 c69 -11 126 -10 65 1 -25 4 -61 7 -80 7 -29 -1 -26 -2 15
-8z"/>
<path d="M9360 6510 c0 -11 14 -11 50 0 22 7 21 8 -12 9 -21 1 -38 -3 -38 -9z"/>
<path d="M10360 6423 c19 -3 38 -10 42 -16 5 -8 8 -6 8 6 0 14 -8 17 -42 15
-41 -1 -41 -1 -8 -5z"/>
<path d="M10640 6394 c-23 -8 -28 -13 -15 -13 11 -1 27 -14 37 -31 16 -29 43
-40 50 -21 2 6 31 6 73 1 96 -12 417 -46 545 -59 149 -15 351 -40 371 -46 10
-3 19 -16 21 -28 2 -14 9 -21 20 -19 9 1 19 -2 23 -7 3 -6 11 -8 18 -5 8 3 11
23 9 60 -3 45 -8 57 -25 64 -20 8 -167 25 -567 66 -85 8 -231 24 -325 35 -192
21 -187 21 -235 3z"/>
<path d="M12382 6315 c7 -7 198 -32 298 -39 129 -9 67 9 -95 28 -140 16 -212
20 -203 11z"/>
<path d="M11883 6253 c9 -9 93 -22 182 -30 39 -3 75 -9 80 -14 12 -9 43 6 32
17 -3 4 -64 13 -134 20 -152 15 -168 16 -160 7z"/>
</g>
</svg>
