<?xml version="1.0" standalone="no"?>
<!DOCTYPE svg PUBLIC "-//W3C//DTD SVG 20010904//EN"
 "http://www.w3.org/TR/2001/REC-SVG-20010904/DTD/svg10.dtd">
<svg version="1.0" xmlns="http://www.w3.org/2000/svg"
 width="2477.000000pt" height="1394.000000pt" viewBox="0 0 2477.000000 1394.000000"
 preserveAspectRatio="xMidYMid meet">
<metadata>
Created by potrace 1.16, written by Peter Selinger 2001-2019
</metadata>
<g transform="translate(0.000000,1394.000000) scale(0.100000,-0.100000)"
fill="#000000" stroke="none">
<path d="M0 6970 l0 -6970 12385 0 12385 0 -2 2743 c-1 1508 -5 2641 -9 2517
-4 -124 -8 -670 -9 -1215 -1 -545 -5 -1012 -8 -1040 l-7 -50 -14 48 c-11 39
-16 45 -28 36 -11 -9 -17 -8 -28 7 -8 10 -15 24 -15 30 0 6 -15 17 -32 25 -18
7 -52 30 -75 51 -24 21 -47 38 -52 38 -13 0 -78 117 -86 155 -7 34 -30 120
-51 185 -8 25 -14 62 -14 83 0 20 -5 46 -10 57 -5 11 -15 29 -20 40 -6 11 -10
27 -10 35 0 8 -4 23 -9 33 -15 30 -61 187 -61 210 0 12 -4 30 -9 40 -16 33
-34 87 -38 122 -3 19 -9 40 -13 45 -3 6 -12 37 -19 70 -7 33 -19 78 -26 100
-7 22 -20 67 -29 100 -9 33 -24 80 -32 105 -9 25 -17 59 -18 75 -2 17 -8 39
-14 50 -18 31 -62 169 -62 193 0 12 -11 46 -25 76 -14 30 -25 63 -25 74 0 11
-7 25 -15 32 -8 7 -15 27 -15 45 0 29 -3 32 -21 28 -20 -6 -21 -3 -14 35 7 43
-12 72 -22 33 -3 -12 -10 -21 -15 -21 -6 0 -7 11 -4 27 5 17 3 29 -6 34 -11 7
-11 12 0 29 10 17 10 21 -2 26 -8 3 -12 13 -9 25 4 14 0 19 -16 19 -11 0 -21
6 -21 13 0 6 -14 18 -31 26 -29 12 -30 16 -24 53 8 45 -2 58 -47 58 -18 0 -28
5 -28 15 0 8 -4 15 -10 15 -5 0 -10 9 -10 20 0 11 -13 39 -30 62 -24 33 -30
52 -31 97 -1 31 -3 48 -6 39 -7 -29 -23 -21 -23 11 0 16 -7 36 -15 45 -8 8
-15 20 -15 26 0 7 -10 21 -22 31 l-23 20 23 15 c27 20 28 48 3 76 -17 17 -27
19 -65 14 -30 -5 -46 -4 -46 3 0 6 -9 11 -20 11 -11 0 -20 -4 -20 -10 0 -5 -4
-10 -10 -10 -5 0 -10 7 -10 15 0 8 6 15 13 15 9 0 9 2 1 8 -7 4 -14 18 -15 32
-3 19 -11 26 -31 28 -20 2 -28 9 -28 23 0 12 -7 19 -20 19 -12 0 -20 7 -20 16
0 8 -7 22 -15 30 -20 21 -20 58 0 50 9 -3 15 0 15 10 0 12 -6 15 -21 11 -15
-4 -19 -2 -15 10 3 8 6 19 6 25 0 6 7 8 15 4 12 -4 15 4 15 47 0 34 -3 47 -9
38 -6 -9 -19 -12 -37 -8 -16 4 -23 4 -16 1 17 -8 15 -44 -3 -44 -8 0 -15 8
-15 19 0 10 -7 24 -15 31 -8 7 -15 23 -15 37 0 29 -23 55 -43 47 -11 -4 -14 9
-15 71 0 41 4 75 9 75 5 0 9 -17 9 -37 0 -21 4 -33 8 -27 12 18 52 24 52 8 0
-8 5 -14 10 -14 13 0 13 17 0 25 -5 3 -10 16 -10 29 0 38 -50 65 -64 34 -3 -9
-8 -8 -16 5 -6 9 -17 17 -25 17 -16 0 -42 48 -51 95 -5 27 -12 34 -36 39 -46
9 -58 7 -58 -9 0 -8 5 -15 10 -15 6 0 10 -6 10 -14 0 -9 8 -12 25 -8 15 2 25
0 25 -7 0 -6 -4 -11 -10 -11 -5 0 -10 -7 -10 -15 0 -8 7 -15 15 -15 12 0 14
-9 10 -42 -4 -30 0 -50 15 -75 10 -18 17 -39 14 -47 -3 -7 4 -29 15 -49 20
-36 39 -111 46 -181 2 -21 10 -46 17 -55 19 -23 36 -61 43 -98 3 -17 13 -34
21 -37 8 -3 14 -18 14 -34 0 -16 6 -35 14 -41 9 -8 12 -25 8 -56 -3 -31 -1
-45 7 -45 7 0 11 -10 10 -22 -1 -13 5 -40 14 -62 9 -21 17 -46 17 -56 0 -10 7
-23 15 -30 8 -7 15 -21 15 -31 0 -10 5 -21 10 -24 6 -3 10 -17 10 -29 0 -13
12 -66 26 -117 14 -52 30 -121 36 -154 5 -33 17 -68 26 -78 9 -10 17 -38 17
-65 3 -69 16 -146 27 -153 15 -10 29 -96 22 -138 -3 -25 1 -48 14 -74 14 -26
18 -49 15 -75 -4 -27 -1 -42 11 -51 20 -17 21 -41 1 -41 -8 0 -15 -4 -15 -9 0
-5 -9 -13 -20 -16 -13 -4 -20 -15 -20 -31 0 -22 -2 -23 -14 -12 -8 8 -16 23
-18 34 -2 13 -12 19 -28 19 -20 0 -27 7 -35 33 -5 17 -13 32 -18 32 -4 0 -6 9
-2 19 3 11 -1 25 -10 34 -8 9 -15 25 -15 37 0 11 -8 24 -17 27 -9 4 -27 18
-40 32 -17 21 -21 34 -16 64 3 22 2 37 -5 37 -6 0 -13 18 -17 40 -4 22 -11 40
-16 40 -5 0 -9 10 -9 22 0 16 -3 19 -11 11 -6 -6 -19 -9 -28 -6 -10 3 -12 2
-4 -4 8 -6 8 -13 -2 -27 -13 -17 -15 -17 -29 -3 -9 9 -16 22 -16 30 0 16 -27
30 -41 22 -4 -3 -19 1 -33 10 -19 13 -25 13 -29 3 -3 -7 -6 1 -6 19 -1 35 -19
53 -32 32 -4 -7 -12 -10 -16 -5 -4 4 2 15 15 23 27 19 28 33 2 33 -11 0 -20 5
-20 10 0 6 -11 10 -23 10 -13 0 -32 9 -42 20 -10 11 -24 20 -32 20 -7 0 -13 9
-13 19 0 21 -25 35 -54 32 -24 -3 -36 15 -36 57 0 22 -5 32 -15 32 -9 0 -15 9
-15 25 0 14 -4 25 -10 25 -5 0 -10 16 -10 35 0 28 -4 35 -19 35 -11 0 -24 11
-30 28 -7 15 -25 52 -42 82 -32 59 -66 154 -94 263 -10 37 -26 77 -37 89 -10
11 -18 29 -18 39 0 10 -7 25 -16 33 -14 15 -17 14 -35 -8 -10 -13 -22 -47 -26
-75 l-8 -51 -32 22 c-20 14 -33 32 -33 46 0 12 -5 22 -11 22 -6 0 -10 10 -9
23 3 37 1 47 -13 47 -7 0 -21 14 -31 31 -14 24 -23 29 -41 25 -14 -4 -25 -1
-28 7 -3 9 -9 7 -24 -5 -22 -20 -43 -24 -43 -8 0 6 -13 10 -30 10 -25 0 -30
-4 -30 -25 0 -16 -6 -25 -15 -25 -8 0 -15 -9 -15 -19 0 -17 -18 -31 -40 -31
-5 0 -16 8 -26 17 -13 13 -19 14 -22 5 -2 -6 -11 -12 -19 -12 -9 0 -13 6 -9
15 3 8 1 25 -4 37 -6 16 -9 18 -9 6 -1 -9 -7 -19 -13 -21 -10 -4 -10 -8 1 -15
12 -9 12 -13 2 -26 -7 -9 -18 -13 -24 -9 -6 4 -8 -2 -5 -15 7 -25 -7 -30 -16
-7 -7 20 -33 19 -54 -2 -12 -12 -13 -18 -4 -21 34 -11 -12 -102 -52 -102 -10
0 -16 -9 -16 -25 0 -18 4 -23 15 -19 9 4 15 0 15 -9 0 -9 8 -20 18 -26 16 -9
16 -11 -2 -24 -18 -13 -19 -20 -8 -138 7 -68 19 -146 27 -174 52 -170 83 -422
55 -440 -18 -11 -37 13 -48 58 -6 23 -23 57 -39 75 -22 28 -27 44 -29 96 -2
48 -8 73 -31 109 -15 26 -38 50 -50 53 -12 3 -27 20 -34 37 -7 17 -15 25 -17
19 -8 -24 -22 -11 -16 13 4 15 1 32 -6 40 -11 13 -16 12 -35 -10 -15 -15 -21
-32 -18 -45 4 -16 2 -19 -11 -14 -9 3 -16 17 -16 30 0 34 -29 59 -65 57 -26
-2 -27 -2 -9 6 17 7 20 16 16 38 -3 15 -10 31 -16 35 -19 13 -87 9 -102 -6
-17 -18 -18 -43 -1 -49 9 -3 9 -11 0 -37 -7 -19 -9 -36 -5 -39 4 -4 8 -22 8
-41 1 -19 5 -116 10 -215 4 -99 8 -197 7 -218 -1 -25 3 -37 13 -37 8 0 14 -9
14 -20 0 -11 -4 -20 -9 -20 -17 0 -21 -32 -6 -46 8 -9 15 -25 15 -37 0 -12 3
-39 7 -60 5 -33 3 -39 -16 -44 -32 -8 -30 -81 4 -113 14 -13 25 -28 25 -33 0
-5 11 -22 24 -37 13 -16 26 -47 30 -71 4 -25 15 -48 26 -56 11 -8 20 -20 20
-26 0 -7 9 -20 20 -30 11 -9 20 -25 20 -35 0 -18 78 -102 95 -102 6 0 16 -9
23 -20 7 -11 21 -20 31 -20 10 0 24 -7 31 -15 7 -8 21 -15 31 -15 24 0 80 -33
159 -93 98 -75 144 -135 180 -230 11 -30 31 -63 45 -75 13 -12 27 -34 30 -49
4 -15 10 -36 16 -45 5 -10 9 -22 9 -28 0 -6 8 -23 18 -38 11 -15 30 -44 43
-64 13 -21 29 -38 35 -38 6 0 34 -25 63 -55 29 -30 57 -55 63 -55 10 0 70 -58
85 -84 5 -6 25 -25 46 -40 20 -16 40 -39 43 -52 3 -12 14 -30 25 -40 10 -9 19
-21 19 -26 0 -5 12 -26 26 -48 21 -31 28 -60 38 -147 13 -110 9 -145 -19 -200
-8 -15 -15 -37 -15 -48 0 -11 -11 -42 -25 -68 -14 -26 -42 -96 -61 -155 -20
-59 -40 -111 -45 -116 -5 -6 -9 -22 -9 -36 0 -14 -4 -30 -10 -36 -16 -16 -43
-146 -41 -199 2 -49 -4 -75 -40 -185 -10 -30 -21 -76 -24 -102 -3 -27 -10 -48
-16 -48 -5 0 -9 -7 -9 -15 0 -22 -38 -79 -83 -127 -17 -18 -21 -18 -40 -5 -16
11 -22 25 -22 53 0 22 -3 44 -7 50 -4 5 -7 75 -6 155 0 79 -2 151 -4 159 -13
48 -21 60 -39 60 -20 0 -125 -55 -135 -71 -3 -5 -17 -9 -31 -9 -13 0 -39 -10
-56 -22 -26 -19 -44 -23 -97 -22 -88 2 -215 47 -238 83 -7 12 -21 21 -32 21
-11 0 -20 4 -20 10 0 5 -9 2 -19 -7 -11 -9 -17 -22 -14 -29 3 -8 -2 -14 -11
-14 -9 0 -16 -4 -16 -9 0 -5 -6 -9 -12 -8 -34 1 -48 -4 -48 -18 0 -8 -7 -15
-15 -15 -8 0 -15 -6 -15 -14 0 -8 -15 -20 -34 -27 -34 -12 -46 -31 -46 -74 0
-25 -39 -53 -50 -36 -4 8 -15 5 -34 -10 -23 -18 -32 -20 -47 -11 -28 18 -36
15 -43 -14 -10 -40 -32 -57 -63 -50 -23 6 -24 5 -10 -9 9 -8 20 -15 26 -15 6
0 11 -4 11 -10 0 -5 -4 -10 -10 -10 -5 0 -10 -7 -10 -15 0 -8 5 -15 10 -15 6
0 10 -4 10 -10 0 -5 -6 -10 -14 -10 -8 0 -23 -13 -33 -30 -9 -16 -21 -30 -25
-30 -4 0 -8 -9 -8 -20 0 -22 0 -22 -44 -24 -16 -1 -31 -7 -34 -14 -2 -7 -22
-12 -48 -12 -42 0 -44 1 -33 21 9 17 7 25 -12 45 -17 18 -21 31 -16 60 4 20
15 43 27 51 11 8 20 19 20 25 0 6 13 23 29 37 15 14 33 36 40 49 6 12 20 22
30 22 10 0 24 7 31 15 7 8 19 15 26 15 26 0 55 39 48 64 -7 28 38 86 66 86 10
0 22 5 25 10 4 6 24 19 46 31 33 16 38 23 29 34 -10 12 -8 22 9 50 12 20 21
46 21 59 0 12 5 27 11 33 15 15 -6 72 -48 138 -18 27 -33 57 -33 67 0 9 -9 20
-20 23 -11 3 -20 12 -21 18 -1 25 -108 100 -209 148 -58 28 -113 55 -122 60
-10 5 -26 9 -37 9 -11 0 -29 12 -40 27 -19 23 -20 34 -14 92 7 72 6 168 -3
246 -8 68 -71 153 -140 188 -17 9 -46 30 -65 48 -45 42 -99 66 -195 84 -117
22 -156 20 -182 -10 -12 -14 -31 -25 -42 -25 -13 0 -20 -7 -20 -19 0 -19 -62
-81 -80 -81 -15 0 -31 -39 -34 -81 -2 -22 -8 -45 -15 -52 -6 -6 -11 -20 -11
-31 -1 -25 -22 -56 -39 -56 -6 0 -11 -9 -11 -20 0 -11 -4 -20 -10 -20 -5 0
-10 -7 -10 -15 0 -9 -9 -15 -25 -15 -14 0 -28 -7 -31 -15 -4 -8 -13 -15 -22
-15 -12 0 -13 3 -4 12 7 7 12 20 12 30 0 10 5 18 10 18 14 0 12 38 -2 42 -8 3
-5 15 11 36 12 18 21 40 20 49 -3 22 10 84 21 98 5 6 8 26 7 45 0 19 7 49 16
65 43 80 42 76 26 89 -9 6 -19 21 -23 34 -9 27 -27 28 -50 3 -30 -33 -125 -47
-168 -25 -32 16 -56 17 -303 12 -119 -3 -203 -9 -225 -17 -30 -11 -41 -11 -73
2 -20 9 -37 21 -37 26 0 6 -9 11 -20 11 -11 0 -20 7 -20 15 0 8 -7 15 -15 15
-19 0 -20 3 12 -200 11 -68 3 -288 -11 -345 -11 -43 -42 -106 -65 -133 -18
-21 -26 -23 -68 -16 -37 5 -57 15 -87 45 -22 22 -44 39 -48 39 -8 0 -126 51
-158 69 -9 5 -22 3 -32 -3 -13 -8 -22 -6 -41 12 -13 12 -32 22 -43 22 -12 0
-24 3 -28 7 -4 5 -27 8 -51 9 -24 0 -50 6 -59 13 -8 7 -20 10 -26 6 -5 -3 -13
2 -17 12 -13 35 -33 43 -130 53 -120 13 -126 14 -138 42 -6 13 -19 24 -30 26
-15 2 -25 19 -40 65 -20 63 -22 69 -24 87 -2 16 -49 12 -63 -6 -36 -45 -147
-154 -157 -154 -6 0 -11 -6 -11 -13 0 -8 -20 -28 -45 -46 -25 -18 -45 -40 -45
-51 0 -10 -9 -20 -23 -24 -12 -3 -44 -26 -70 -51 -40 -37 -51 -43 -67 -35 -24
13 -70 13 -70 0 0 -17 -57 -11 -64 6 -5 14 -15 15 -56 10 -32 -4 -50 -3 -50 4
0 5 -4 10 -10 10 -5 0 -10 -8 -10 -18 0 -10 -5 -23 -12 -30 -17 -17 -48 -15
-48 3 0 11 -7 13 -29 9 -21 -4 -30 -2 -35 11 -3 10 -3 23 1 29 5 6 8 22 8 36
0 22 -5 25 -42 28 -40 3 -43 1 -43 -22 0 -19 -5 -26 -20 -26 -11 0 -20 6 -20
13 0 21 -52 37 -122 37 -76 0 -82 5 -94 81 -4 24 -11 49 -16 55 -5 7 -10 35
-11 63 -1 35 -6 51 -15 51 -8 0 -16 9 -19 20 -3 11 -11 20 -19 20 -20 0 -26
17 -12 40 11 17 10 22 -10 35 -12 9 -22 23 -22 32 0 12 3 13 14 4 11 -9 15 -4
20 32 4 24 4 61 0 83 -5 33 -2 43 21 68 19 21 25 35 20 53 -5 20 -1 26 24 34
20 7 28 16 25 27 -3 9 4 29 13 43 47 69 60 85 80 102 13 10 23 25 23 32 0 7
11 22 25 33 14 11 25 24 25 29 0 6 18 18 39 28 35 15 50 16 123 7 156 -21 262
-47 295 -74 11 -9 122 -40 211 -59 24 -5 55 -15 70 -23 15 -7 54 -21 87 -30
119 -33 170 -51 194 -68 13 -10 37 -18 53 -18 20 0 38 -10 59 -32 25 -28 36
-33 72 -32 23 0 71 12 107 27 77 31 206 51 269 42 25 -4 68 -16 95 -26 50 -20
241 -114 261 -129 6 -4 24 -10 40 -12 17 -3 37 -8 45 -12 10 -4 20 2 29 16 8
13 10 23 4 25 -20 7 7 154 39 216 5 10 7 21 4 25 -7 13 12 182 28 235 8 29 25
88 36 132 12 44 28 98 35 120 28 88 47 196 60 345 3 30 10 59 15 64 6 6 10 17
10 26 0 21 58 90 76 90 8 0 22 13 32 30 42 68 194 130 319 130 35 0 80 7 100
15 19 8 43 15 53 15 9 0 29 9 43 20 14 11 31 20 39 20 8 0 19 5 25 11 16 16
112 48 143 48 14 0 58 -8 97 -19 89 -23 172 -29 182 -11 5 7 16 11 26 9 13 -2
20 6 26 26 9 33 -7 66 -33 66 -11 0 -18 8 -18 20 0 10 -11 36 -25 56 -26 38
-30 57 -25 109 1 17 3 39 4 50 1 24 31 33 124 34 41 1 72 5 72 11 0 5 3 9 8 9
19 -3 32 2 32 14 0 7 9 18 20 25 11 7 20 20 20 30 1 16 1 16 11 0 6 -12 22
-18 44 -18 19 0 35 2 35 5 0 11 -26 50 -38 58 -14 9 -16 37 -3 37 13 0 19 91
8 114 -5 11 -9 42 -8 69 1 48 -21 107 -39 107 -6 0 -10 10 -10 23 -1 25 -28
129 -29 110 -1 -7 -8 -13 -17 -13 -11 0 -13 6 -9 19 8 28 -14 59 -57 82 -21
11 -38 24 -38 29 0 5 -6 7 -13 4 -21 -8 -82 39 -86 66 -1 14 -8 28 -14 32 -12
7 14 38 32 38 6 0 34 -11 63 -25 28 -14 59 -25 68 -25 37 0 116 -34 137 -58
12 -14 33 -30 47 -36 33 -14 116 -122 116 -151 0 -13 7 -25 15 -29 8 -3 14
-15 12 -27 -1 -12 3 -24 9 -26 6 -2 11 9 12 26 0 16 8 42 18 56 15 23 15 28 3
37 -11 7 -11 11 -1 15 17 7 15 23 -5 45 -16 18 -16 21 -1 51 9 18 20 69 23
115 5 60 11 82 21 82 9 0 14 12 14 35 0 36 15 46 37 24 8 -8 17 -7 32 2 16 11
23 11 33 1 6 -6 19 -12 28 -12 17 0 40 -43 40 -76 0 -27 49 -41 66 -18 6 8 19
14 28 14 9 0 16 8 16 20 0 11 7 20 15 20 10 0 15 -10 15 -30 0 -16 5 -30 10
-30 6 0 10 -9 10 -21 0 -12 4 -18 11 -13 7 4 9 24 6 53 -9 75 0 101 34 101 24
0 29 -4 29 -25 0 -14 3 -25 8 -25 15 0 31 16 30 30 -1 8 0 28 0 44 2 27 4 28
42 23 34 -4 37 -3 25 9 -7 8 -18 14 -24 14 -6 0 -11 19 -11 44 0 24 -3 64 -6
90 -6 43 -9 46 -35 46 -22 0 -29 5 -29 20 0 11 5 20 10 20 6 0 10 -4 10 -10 0
-5 5 -10 10 -10 6 0 10 7 10 15 0 8 5 15 10 15 6 0 10 9 10 20 0 16 -7 20 -30
20 -23 0 -30 4 -30 20 0 11 5 20 10 20 6 0 10 -4 10 -10 0 -5 5 -10 10 -10 6
0 10 9 10 20 0 11 5 20 10 20 6 0 10 -13 10 -30 0 -23 4 -30 20 -30 16 0 20 7
20 30 0 23 4 30 20 30 13 0 20 -7 20 -20 0 -22 15 -27 23 -7 4 9 7 9 14 -1 7
-9 15 -6 32 14 12 14 19 29 15 32 -4 4 -9 1 -11 -5 -3 -7 -9 -13 -15 -13 -6 0
-8 6 -5 13 22 54 22 53 4 35 -9 -9 -17 -24 -17 -32 0 -9 -7 -16 -15 -16 -8 0
-15 9 -15 20 0 15 -7 20 -25 20 -14 0 -25 -4 -25 -10 0 -5 -7 -10 -15 -10 -8
0 -15 5 -15 10 0 6 -7 10 -15 10 -8 0 -15 -4 -15 -10 0 -5 -4 -10 -10 -10 -5
0 -10 7 -10 16 0 21 -27 47 -35 34 -11 -17 -43 -11 -60 13 -12 15 -19 18 -22
10 -6 -15 -33 -17 -33 -3 0 6 -8 10 -18 10 -10 0 -24 9 -32 20 -8 11 -22 20
-32 20 -13 0 -18 8 -18 30 0 35 -17 40 -30 8 -9 -23 -9 -23 -11 2 -1 14 -1 30
0 36 1 7 -8 14 -20 17 -11 3 -18 10 -14 16 3 7 0 8 -10 5 -8 -3 -35 3 -60 15
-25 12 -55 21 -68 21 -13 0 -33 9 -45 20 -12 11 -28 20 -37 20 -8 0 -15 9 -15
20 0 22 16 27 23 8 2 -7 8 -10 12 -6 4 4 0 15 -9 24 -16 15 -18 15 -37 -7 -15
-17 -22 -20 -31 -11 -9 9 -8 12 5 12 10 0 17 8 17 20 0 13 7 20 20 20 11 0 20
5 20 11 0 8 -14 10 -40 6 -27 -3 -43 -1 -51 9 -16 19 -29 18 -27 -3 1 -10 0
-40 0 -66 -2 -44 -4 -48 -22 -42 -12 4 -27 1 -35 -5 -10 -8 -19 -8 -34 0 -15
7 -27 8 -40 0 -11 -5 -42 -10 -70 -10 -51 0 -71 15 -71 54 0 9 -13 37 -29 63
-16 27 -39 91 -51 143 -13 52 -31 104 -42 116 -10 11 -18 26 -18 33 0 14 -62
94 -115 147 -60 62 -101 110 -125 144 -13 19 -43 56 -67 82 -24 26 -43 54 -43
62 0 8 -17 28 -39 45 -21 17 -44 45 -52 63 -7 18 -32 50 -56 71 -24 21 -43 45
-43 53 0 8 -20 37 -45 63 -25 26 -45 53 -45 58 0 5 -9 18 -20 28 -11 10 -20
26 -20 35 0 19 -41 84 -74 116 -44 43 -82 91 -123 154 -23 36 -46 70 -52 76
-5 6 -21 34 -34 61 -14 27 -33 55 -41 62 -9 8 -16 20 -16 28 0 8 -11 29 -24
46 -13 18 -27 42 -30 54 -4 11 -13 27 -21 33 -8 7 -15 23 -15 36 0 14 -4 32
-9 42 -6 9 -18 36 -27 60 -10 23 -21 42 -25 42 -4 0 -14 22 -23 50 -9 27 -27
65 -39 83 -13 19 -34 68 -47 108 -12 40 -45 118 -71 173 -27 55 -49 107 -49
116 0 10 -8 28 -18 41 -10 13 -24 40 -32 59 -7 19 -21 46 -30 60 -9 14 -22 40
-30 58 -7 18 -23 41 -36 51 -16 12 -24 29 -24 48 0 20 -11 40 -35 63 -31 30
-35 32 -35 13 0 -26 -66 -83 -96 -83 -13 0 -26 -5 -29 -10 -4 -6 -14 -10 -23
-9 -10 1 -25 -1 -35 -6 -12 -5 -25 -1 -40 13 -22 21 -50 20 -112 -3 -32 -12
-94 -76 -88 -91 3 -8 -1 -14 -10 -14 -9 0 -17 -14 -22 -36 -6 -34 -7 -35 -25
-19 -12 11 -20 13 -25 5 -4 -6 -16 -10 -28 -8 -22 3 -22 1 -24 -177 -2 -99
-10 -233 -19 -299 -9 -65 -17 -152 -18 -192 -1 -41 -8 -80 -14 -86 -23 -23
-14 -101 17 -149 27 -41 68 -165 58 -176 -3 -2 2 -25 9 -50 25 -82 16 -331
-16 -438 -5 -16 -12 -70 -15 -120 -14 -230 -18 -274 -31 -325 -25 -96 -55
-178 -70 -191 -8 -7 -21 -27 -29 -45 -7 -17 -28 -49 -47 -70 -19 -22 -54 -65
-77 -97 -23 -31 -48 -57 -57 -57 -8 0 -28 -10 -44 -21 -36 -27 -94 -38 -139
-26 -19 5 -37 5 -42 0 -8 -8 -25 -72 -36 -141 -3 -18 -9 -35 -14 -38 -5 -3 -9
-19 -9 -36 0 -16 -6 -44 -13 -61 -20 -47 -37 -101 -37 -119 0 -8 -9 -27 -20
-41 -11 -14 -20 -32 -20 -40 0 -18 -60 -113 -91 -145 -18 -18 -23 -36 -26 -95
-2 -39 -6 -81 -9 -92 -10 -34 -24 -127 -30 -195 -3 -36 -9 -74 -14 -85 -10
-23 -16 -54 -34 -185 -8 -52 -19 -122 -24 -155 -12 -72 -71 -222 -105 -268
-14 -17 -39 -59 -56 -92 -41 -76 -68 -121 -106 -169 l-29 -39 -101 5 c-117 7
-171 25 -181 62 -6 24 -11 26 -58 26 -65 0 -122 16 -147 41 -19 19 -19 19 2
58 11 21 29 41 40 44 11 3 24 19 30 35 6 17 16 33 24 36 8 3 16 30 20 73 10
104 14 120 36 126 10 3 26 20 33 39 8 19 30 45 50 59 46 33 92 115 75 136 -21
25 -51 37 -59 23 -10 -17 -87 -30 -132 -23 -23 3 -48 0 -69 -11 -18 -9 -37
-16 -43 -16 -11 0 -106 -100 -106 -112 0 -3 -18 -14 -40 -24 -29 -13 -40 -24
-40 -39 0 -27 -46 -70 -84 -79 -21 -5 -34 -2 -50 12 -20 19 -46 27 -111 37
-16 3 -35 12 -41 20 -6 8 -19 15 -28 15 -9 0 -29 8 -44 17 -38 23 -182 174
-182 190 0 16 -69 87 -101 103 -11 7 -25 25 -31 41 -5 16 -19 34 -29 40 -15 7
-19 21 -19 57 0 45 2 49 33 60 18 7 68 12 110 12 42 0 78 4 81 9 3 4 38 6 78
3 60 -3 76 -1 87 12 7 9 23 16 36 16 22 0 55 28 55 46 0 31 110 100 129 81 7
-7 18 -7 34 2 21 11 29 9 63 -13 21 -14 44 -30 50 -35 6 -5 18 -9 25 -9 39 2
59 -3 59 -17 0 -26 35 -52 69 -51 17 0 31 4 31 7 0 4 10 10 23 13 21 6 21 7 5
20 -27 20 -23 39 7 33 29 -5 46 19 60 81 6 27 3 38 -15 57 -19 20 -21 32 -19
107 2 45 -1 92 -7 103 -6 11 -18 34 -27 50 -9 17 -24 46 -34 65 -9 19 -22 42
-29 50 -22 29 -22 60 1 117 19 47 29 59 49 61 22 3 29 -5 59 -65 51 -100 72
-114 137 -86 44 19 62 48 69 114 9 72 4 109 -15 116 -8 3 -19 24 -25 47 -6 22
-17 55 -24 71 -7 17 -18 45 -25 63 -7 17 -16 32 -21 32 -5 0 -9 7 -9 15 0 8
-16 30 -36 49 -33 32 -35 38 -33 90 1 31 0 59 -4 63 -4 3 -7 16 -7 29 0 12 -7
25 -16 28 -11 4 -14 14 -10 33 4 16 2 51 -4 78 -6 28 -14 62 -17 78 -3 15 -10
27 -15 27 -6 0 -7 7 -4 16 4 9 4 32 0 50 -5 27 -11 34 -30 34 -29 0 -32 26 -4
35 11 3 20 12 20 20 0 8 -9 17 -20 20 -11 3 -20 14 -20 23 1 18 71 72 95 72 7
0 16 4 19 9 3 4 17 6 31 4 17 -4 27 0 31 11 8 21 0 29 -29 31 -20 1 -22 7 -25
68 -2 57 -6 69 -27 86 -31 24 -31 26 4 41 30 12 41 40 41 101 0 17 12 42 30
62 17 19 30 39 30 45 0 14 18 25 44 26 14 1 24 11 32 34 5 17 15 37 22 44 6 6
52 13 104 15 86 4 190 9 213 12 6 1 -6 9 -25 19 -29 14 -34 22 -32 45 2 18 -1
27 -11 27 -32 0 -49 92 -33 178 6 32 12 42 27 42 27 0 85 62 92 99 10 51 -27
192 -58 216 -14 12 -25 28 -25 36 0 22 -94 80 -136 84 -36 4 -67 22 -59 35 2
4 -12 7 -32 8 -20 1 -41 6 -47 12 -5 5 -20 10 -31 10 -12 0 -44 11 -73 25 -28
13 -69 28 -92 31 -22 4 -40 10 -40 15 0 4 -27 9 -60 11 -48 2 -58 6 -51 17 5
8 32 16 61 19 38 3 51 2 46 -7 -5 -7 2 -11 17 -11 18 0 27 7 31 25 4 16 13 25
26 25 11 0 20 6 20 13 0 8 -15 13 -42 14 -47 2 -71 25 -35 34 15 4 22 12 21
29 -1 25 17 50 35 50 6 0 11 5 11 10 0 6 -7 10 -15 10 -8 0 -15 9 -15 20 0 11
-4 20 -10 20 -5 0 -10 9 -10 19 0 10 -7 21 -15 25 -9 3 -15 18 -15 36 0 20 -5
30 -15 30 -8 0 -31 11 -51 25 -41 28 -85 32 -104 10 -19 -23 -108 -46 -150
-39 -39 6 -65 -10 -30 -19 20 -5 28 -27 10 -27 -5 0 -10 -13 -10 -30 0 -23 -4
-30 -20 -30 -14 0 -21 -7 -22 -22 -2 -40 2 -62 15 -71 9 -7 9 -10 0 -14 -7 -2
-13 -11 -13 -19 0 -8 -4 -14 -10 -14 -5 0 -10 7 -10 15 0 8 -4 15 -10 15 -5 0
-10 -7 -10 -15 0 -11 -12 -15 -47 -16 -27 -1 -40 -3 -30 -6 18 -5 24 -23 7
-23 -5 0 -10 -9 -10 -20 0 -14 -7 -20 -22 -20 -18 0 -20 2 -9 9 10 6 1 9 -27
7 -23 -1 -44 -5 -48 -9 -4 -4 -16 -7 -26 -7 -10 0 -18 -7 -18 -15 0 -8 -4 -15
-9 -15 -5 0 -13 -9 -16 -20 -3 -11 -13 -20 -21 -20 -8 0 -14 -7 -14 -15 0 -8
-7 -15 -15 -15 -8 0 -15 9 -15 20 0 11 -7 20 -15 20 -8 0 -15 5 -15 10 0 6
-28 10 -64 10 -82 0 -126 9 -126 26 0 10 -16 14 -60 14 -46 0 -60 -3 -60 -15
0 -12 -16 -14 -96 -11 -52 3 -98 7 -102 11 -3 3 -1 15 6 25 7 11 12 27 12 35
0 8 7 15 15 15 8 0 15 -4 15 -10 0 -22 17 -8 32 26 14 31 15 39 3 50 -7 8 -23
14 -34 14 -16 0 -21 6 -21 28 0 15 -3 37 -6 50 -5 17 -2 22 12 23 11 0 14 3 7
6 -7 2 -13 18 -13 34 0 22 -5 29 -20 29 -11 0 -20 5 -20 10 0 6 10 10 23 10
18 0 19 2 7 10 -10 7 -11 12 -4 18 6 4 13 14 16 23 5 12 15 15 35 12 22 -4 25
-2 13 6 -12 9 -10 11 12 11 14 0 28 -6 30 -12 5 -15 38 13 38 31 0 6 6 11 14
11 20 0 30 19 28 52 -2 23 2 28 20 28 25 1 58 22 58 37 0 6 17 13 38 17 90 15
107 20 119 32 7 7 13 20 13 30 0 13 -6 15 -29 11 -16 -4 -31 -3 -33 2 -4 10
-88 22 -88 13 0 -10 -143 -12 -155 -2 -32 26 -430 1 -505 -33 -20 -8 -76 -20
-125 -25 -50 -6 -131 -24 -181 -41 -51 -17 -99 -31 -107 -31 -8 0 -17 -8 -20
-19 -4 -15 -22 -20 -118 -31 -63 -7 -121 -18 -129 -25 -8 -7 -46 -18 -84 -24
-37 -5 -76 -17 -85 -26 -10 -8 -24 -15 -32 -15 -8 -1 -32 -8 -54 -16 -22 -8
-51 -17 -65 -19 -43 -7 -144 -32 -173 -44 -16 -6 -44 -11 -63 -11 -24 0 -41
-7 -56 -25 -13 -15 -32 -25 -48 -25 -14 0 -44 -9 -65 -20 -22 -12 -58 -22 -80
-23 -22 -2 -46 -6 -53 -11 -18 -11 -29 0 -35 36 -3 18 -8 40 -12 49 -5 13 5
21 39 35 26 11 48 26 51 35 3 9 13 20 23 23 54 19 97 53 106 84 6 21 17 34 32
38 13 4 24 9 24 13 0 17 98 113 108 107 15 -9 62 22 62 40 0 16 31 19 46 4 15
-15 56 31 45 49 -7 11 -15 11 -42 2 -18 -6 -34 -9 -37 -7 -2 3 -11 -1 -19 -9
-16 -17 -39 -19 -47 -6 -4 5 -19 4 -37 -2 -29 -11 -32 -10 -64 26 -18 20 -42
37 -53 37 -11 0 -22 6 -24 12 -6 17 -219 12 -230 -5 -5 -7 -11 -25 -15 -40 -3
-16 -12 -31 -19 -34 -8 -3 -14 -14 -14 -24 0 -11 -7 -22 -16 -26 -12 -4 -14
-14 -10 -34 4 -22 2 -29 -11 -29 -9 0 -22 8 -30 18 -13 15 -14 15 -8 -10 6
-30 -11 -38 -33 -16 -17 17 -49 -15 -57 -60 -8 -46 -23 -64 -45 -57 -12 4 -19
-1 -23 -16 -7 -26 -31 -20 -35 9 -3 22 -22 32 -22 12 0 -5 -7 -10 -15 -10 -8
0 -15 6 -15 14 0 8 -7 17 -16 20 -24 9 -29 7 -16 -6 22 -22 12 -31 -28 -25
-29 4 -40 1 -40 -8 0 -8 -17 -15 -42 -18 -24 -3 -57 -9 -75 -12 -29 -7 -33 -5
-39 21 -12 52 -17 54 -160 54 -74 0 -134 4 -134 8 0 26 -40 52 -79 52 -29 0
-44 5 -48 16 -4 12 -14 14 -34 10 -17 -3 -29 -1 -29 5 0 6 -4 7 -10 4 -5 -3
-12 6 -16 20 -7 28 -15 30 -46 14 -16 -9 -24 -7 -39 10 -18 19 -31 21 -169 21
-142 0 -149 1 -155 21 -7 20 -11 21 -84 14 -42 -4 -80 -9 -85 -12 -5 -3 -38
-8 -75 -10 -36 -3 -70 -9 -75 -14 -6 -5 -23 -9 -38 -9 -16 0 -31 -7 -34 -15
-8 -20 -104 -21 -104 -1 0 19 -28 28 -50 16 -14 -7 -23 -6 -34 6 -9 8 -16 20
-16 25 0 18 -22 9 -27 -12 -5 -17 -11 -20 -32 -14 -14 4 -36 7 -48 7 -13 0
-23 6 -23 14 0 8 -9 14 -20 14 -13 0 -20 7 -20 20 0 11 -4 20 -10 20 -5 0 -10
-4 -10 -10 0 -5 -9 -10 -20 -10 -11 0 -20 5 -20 10 0 6 -25 10 -55 10 -50 0
-73 12 -42 23 25 9 -6 22 -49 20 -32 -1 -44 2 -44 13 0 8 -7 14 -15 14 -9 0
-18 7 -21 15 -4 11 -21 15 -55 15 -27 0 -49 5 -49 10 0 6 -10 10 -23 10 -12 0
-28 9 -35 20 -10 16 -23 20 -70 20 -52 0 -60 3 -69 23 -10 22 -70 45 -125 50
-10 1 -18 5 -18 9 0 4 -14 5 -31 1 -30 -6 -32 -4 -26 18 10 39 -4 49 -86 55
-42 4 -77 10 -77 14 0 4 -37 7 -82 6 -46 -1 -91 2 -100 6 -10 5 -78 5 -152 2
-112 -6 -136 -10 -139 -23 -4 -13 -5 -12 -6 2 -1 23 -25 47 -45 47 -9 0 -16 5
-16 10 0 6 -12 10 -28 10 -16 0 -32 8 -40 20 -7 11 -23 20 -37 20 -14 0 -25 5
-25 11 0 8 -14 10 -40 6 -32 -4 -40 -2 -40 10 0 13 -9 14 -48 9 -40 -5 -49 -3
-60 14 -7 11 -21 20 -32 20 -13 0 -20 7 -20 20 0 11 -4 20 -10 20 -5 0 -10 -4
-10 -10 0 -5 -4 -10 -10 -10 -5 0 -10 9 -10 19 0 10 -7 22 -15 25 -12 4 -14
10 -5 25 14 28 13 32 -12 28 -13 -2 -17 -2 -10 0 9 3 9 9 -3 26 -8 12 -15 33
-15 48 0 20 -6 28 -25 33 -16 4 -25 13 -25 25 0 11 -5 21 -11 23 -9 3 -9 10 0
27 14 25 5 44 -9 22 -7 -12 -11 -12 -24 2 -19 19 -21 64 -4 69 17 6 -14 38
-36 38 -11 0 -16 9 -16 28 0 18 -12 41 -35 65 -19 20 -35 42 -35 47 0 6 -13
13 -29 16 -17 4 -32 12 -35 20 -3 8 -15 14 -26 14 -23 0 -53 24 -43 34 4 3 -7
6 -23 6 -34 1 -58 17 -62 45 -2 11 -8 22 -12 25 -4 3 -8 28 -8 55 0 87 -2 96
-17 101 -8 4 -15 16 -16 28 -1 19 -2 19 -9 -4 l-8 -25 -1 26 c-1 15 8 55 19
89 11 34 20 78 20 96 0 24 5 34 15 34 9 0 15 9 15 25 0 18 -5 25 -20 25 -17 0
-20 7 -20 48 0 26 -5 53 -11 59 -15 15 10 42 37 40 15 -2 19 4 17 28 -1 16 4
50 11 76 8 25 11 58 9 73 -4 17 -1 31 7 36 10 6 8 16 -10 44 -21 35 -22 66 0
66 5 0 10 -10 11 -22 1 -22 1 -22 8 2 8 27 -6 60 -26 60 -7 0 -13 9 -13 20 0
24 15 26 24 3 5 -12 10 -13 18 -5 15 15 38 81 38 111 0 17 4 22 16 17 15 -6
15 -4 0 18 -19 29 -20 36 -6 36 6 0 10 -7 10 -15 0 -8 5 -15 10 -15 6 0 10 14
10 30 0 17 -4 30 -10 30 -12 0 -13 37 -2 42 13 4 22 62 13 76 -4 7 -21 15 -37
18 -53 9 -63 15 -78 44 -12 25 -12 31 0 41 8 6 14 17 14 24 0 6 11 25 25 41
14 16 35 45 47 64 32 52 59 80 80 80 10 0 23 9 30 20 7 11 19 20 26 20 7 0 15
6 18 13 3 8 20 20 39 27 29 12 35 19 35 44 0 36 -21 33 240 44 102 5 179 9
173 10 -7 1 -13 7 -13 12 0 7 97 9 286 8 l287 -3 2 -32 c2 -18 -1 -30 -5 -28
-5 3 -12 1 -15 -5 -9 -15 14 -40 36 -40 11 0 19 -4 19 -9 0 -5 13 -12 29 -16
16 -3 36 -13 43 -22 7 -9 27 -22 43 -29 35 -14 151 -21 162 -10 16 15 72 34
90 30 10 -2 44 4 75 14 l58 18 -45 22 c-25 12 -45 28 -45 37 0 8 -12 18 -26
21 -16 4 -23 12 -20 20 3 8 -1 14 -9 14 -8 0 -15 4 -15 9 0 13 2660 23 5525
19 l2580 -3 27 -28 c39 -39 57 -78 74 -160 9 -40 22 -80 31 -89 46 -51 138
-83 458 -159 50 -12 135 -37 190 -55 86 -28 311 -93 575 -166 41 -11 118 -33
170 -48 118 -36 245 -72 330 -95 36 -9 85 -24 110 -31 25 -8 122 -37 215 -65
94 -27 222 -67 285 -88 63 -22 156 -49 205 -61 121 -30 256 -79 279 -101 12
-11 20 -33 21 -61 1 -24 2 -49 3 -56 2 -12 49 -36 119 -62 17 -7 43 -29 58
-50 31 -45 92 -90 122 -90 23 0 126 97 225 212 50 58 180 158 205 158 4 0 37
25 71 55 35 30 72 55 83 55 24 0 35 -25 19 -44 -9 -12 -8 -20 6 -41 14 -21 22
-25 45 -20 23 5 29 3 29 -10 0 -9 -9 -19 -20 -22 -11 -3 -20 -9 -20 -14 0 -5
11 -3 25 3 14 6 25 16 25 22 0 17 83 13 97 -4 11 -13 12 -13 13 1 0 8 -5 20
-12 27 -17 17 -2 27 17 12 13 -10 19 -10 33 4 10 9 24 16 31 16 7 0 9 5 5 11
-3 6 -17 9 -30 6 -13 -2 -24 -2 -24 0 0 11 25 49 37 58 11 8 12 19 6 45 -9 34
-11 35 -59 35 -37 0 -49 4 -49 15 0 11 13 15 50 16 28 0 63 6 80 13 20 9 36 9
51 2 18 -8 25 -6 36 9 11 17 30 21 136 26 105 6 125 5 140 -9 13 -12 44 -18
118 -21 98 -4 133 -12 186 -38 26 -12 28 -18 28 -71 0 -37 7 -73 20 -99 11
-23 20 -50 20 -60 0 -10 10 -38 22 -61 16 -30 23 -61 24 -112 1 -38 5 -116 9
-173 8 -100 7 -103 -13 -109 -22 -5 -47 -66 -36 -85 3 -5 1 -15 -5 -22 -16
-19 5 -83 30 -91 17 -6 19 -13 15 -58 l-5 -52 87 -56 c144 -94 158 -100 234
-110 48 -6 79 -15 92 -28 23 -22 78 -38 173 -51 35 -5 72 -14 84 -20 12 -7 37
-9 60 -5 30 5 39 11 39 26 0 15 6 19 25 16 13 -1 27 -6 31 -10 30 -30 64 36
64 123 0 34 -5 71 -11 82 -6 11 -15 81 -20 156 -9 134 -9 137 14 159 20 20 26
21 65 11 28 -7 59 -26 86 -52 23 -23 65 -61 92 -85 27 -24 54 -57 61 -73 13
-29 8 -58 -9 -58 -5 0 -7 -8 -3 -18 3 -11 -3 -30 -16 -46 -28 -36 -30 -132 -3
-155 11 -9 27 -28 37 -43 9 -16 24 -28 33 -28 8 0 22 -6 30 -14 7 -8 33 -17
56 -21 24 -4 47 -13 51 -19 6 -8 10 -8 14 2 2 6 16 12 29 12 16 0 24 6 25 18
0 13 2 14 6 2 3 -8 11 -18 17 -22 8 -5 7 -8 -1 -8 -7 0 -13 -9 -13 -20 0 -18
-7 -20 -54 -20 -30 0 -57 -4 -61 -9 -3 -5 -20 -7 -38 -5 -24 4 -35 1 -44 -13
-50 -73 -61 -93 -70 -130 -17 -67 9 -164 52 -195 15 -11 74 -9 97 3 35 19 115
13 149 -11 16 -12 52 -30 79 -40 100 -37 151 -100 148 -185 0 -16 12 -55 28
-85 l29 -55 2 -1908 c1 -1050 4 -1911 7 -1914 3 -4 6 1583 6 3525 l0 3532
-12385 0 -12385 0 0 -6970z m23516 6663 c12 -16 24 -40 28 -56 5 -21 19 -33
61 -52 30 -14 80 -36 110 -50 31 -14 60 -25 66 -25 6 0 20 -5 32 -12 12 -6 31
-12 43 -13 11 0 33 -9 48 -19 27 -17 27 -18 10 -37 -10 -11 -24 -17 -31 -15
-7 3 -15 1 -18 -4 -7 -12 70 -67 124 -87 51 -19 211 -100 226 -114 6 -6 3 -20
-8 -39 -16 -27 -17 -32 -2 -60 19 -37 30 -38 64 -1 22 23 32 27 61 23 57 -8
92 -34 107 -77 7 -22 23 -47 34 -56 12 -8 19 -24 18 -35 -5 -26 38 -114 55
-114 8 0 18 -9 21 -20 3 -11 13 -20 21 -20 8 0 14 -4 14 -9 0 -5 29 -15 65
-22 63 -12 65 -14 65 -43 0 -52 -11 -75 -41 -88 -31 -14 -34 -19 -44 -80 -6
-32 -3 -41 19 -61 14 -13 26 -29 26 -34 0 -6 9 -20 19 -32 13 -14 22 -45 26
-84 9 -85 3 -213 -10 -207 -5 3 -10 16 -11 30 -3 86 -5 101 -14 95 -5 -3 -10
-15 -10 -26 0 -30 -15 -22 -29 16 -7 19 -29 48 -49 63 -19 15 -61 50 -91 79
-42 38 -69 55 -106 63 -28 7 -65 21 -83 31 -18 11 -40 19 -47 19 -23 0 -104
83 -116 119 -19 53 -87 81 -199 81 -136 0 -225 34 -201 77 5 10 12 26 15 37 5
13 12 17 29 12 30 -7 87 27 87 53 0 27 -25 45 -47 33 -25 -13 -320 -14 -328
-1 -4 5 -19 7 -34 4 -18 -4 -53 4 -102 23 -41 16 -87 33 -104 38 -36 11 -45
39 -15 47 12 3 20 13 20 25 0 22 53 72 76 72 31 0 101 45 161 103 69 66 78 94
46 147 -15 26 -20 28 -68 24 l-53 -4 -7 55 c-7 59 -29 85 -72 85 -12 0 -25 5
-28 10 -3 6 -18 10 -33 10 -15 0 -39 6 -54 14 -19 10 -29 11 -37 3 -8 -8 -11
-5 -11 12 0 18 -4 21 -21 16 -12 -4 -32 -1 -46 6 -20 11 -28 10 -52 -4 -16 -9
-34 -17 -41 -17 -23 0 -157 -70 -180 -95 -15 -16 -57 -36 -117 -55 -107 -34
-111 -35 -147 -16 -25 13 -25 14 -6 19 17 4 20 13 20 54 0 46 -2 49 -38 65
-20 9 -63 22 -95 29 -32 7 -60 16 -63 21 -3 4 -15 8 -26 8 -12 0 -29 6 -37 14
-17 15 -71 11 -71 -5 0 -5 -10 -9 -22 -10 -22 -1 -22 -1 2 -8 34 -9 36 -34 5
-51 -23 -12 -27 -11 -50 10 -27 26 -32 46 -12 53 6 3 -11 6 -39 6 -37 1 -53
-3 -58 -14 -8 -21 -36 -19 -36 3 0 13 -2 14 -9 4 -6 -11 -13 -11 -27 -3 -30
18 -199 54 -312 67 -40 4 -59 10 -50 15 7 5 418 9 914 9 l900 0 20 -27z
m-1448 -870 c-4 -22 -22 -20 -26 1 -2 10 3 16 13 16 10 0 15 -7 13 -17z m-59
-49 c-13 -16 -59 -19 -59 -5 0 11 18 18 48 18 18 0 20 -2 11 -13z m-13799
-725 c0 -5 -4 -9 -10 -9 -5 0 -10 7 -10 16 0 8 5 12 10 9 6 -3 10 -10 10 -16z
m16304 -515 c9 -3 16 -13 16 -21 0 -21 -44 -12 -48 10 -4 18 6 21 32 11z
m-14867 -996 c15 6 53 9 83 7 30 -3 122 -7 205 -10 82 -3 154 -10 159 -15 6
-6 24 -10 41 -10 17 0 57 -9 89 -21 32 -11 66 -17 75 -14 9 3 55 -8 103 -26
64 -24 88 -38 88 -50 0 -21 19 -35 42 -31 21 4 30 -39 20 -88 -6 -26 -14 -36
-30 -38 -16 -3 -21 -9 -18 -20 3 -9 -1 -26 -9 -36 -14 -18 -15 -18 -41 -1 -20
13 -32 15 -48 7 -24 -11 -76 -5 -76 8 0 5 -62 9 -137 9 -77 1 -163 8 -193 15
-30 8 -49 14 -42 15 6 1 12 5 12 9 0 4 -30 9 -67 10 -37 2 -70 7 -73 11 -3 5
-26 11 -51 15 -29 4 -54 16 -69 31 -12 13 -28 21 -35 19 -7 -3 -16 -1 -20 5
-3 6 1 14 9 17 14 5 14 8 0 29 -8 13 -24 25 -36 28 -14 4 -19 11 -14 22 4 12
1 15 -12 11 -14 -5 -21 2 -31 29 -7 19 -10 44 -6 55 5 16 10 17 30 8 17 -8 32
-8 52 0z m-178 -10 c20 -2 38 -11 45 -21 9 -15 6 -23 -18 -43 -17 -15 -37 -24
-47 -21 -13 4 -23 -3 -32 -23 -14 -28 -12 -86 4 -96 12 -7 11 -44 -1 -44 -5 0
-10 -6 -10 -13 0 -16 -38 -53 -46 -45 -3 3 -7 34 -9 68 -4 63 -21 102 -36 79
-4 -7 -14 -9 -25 -4 -53 22 -227 23 -262 1 -7 -4 -27 -9 -44 -11 -17 -3 -38
-11 -48 -20 -9 -8 -25 -15 -36 -15 -11 0 -26 -6 -33 -12 -11 -11 -13 -9 -8 10
5 22 -7 30 -18 12 -3 -5 -14 -10 -24 -10 -13 0 -18 9 -19 36 -1 31 2 37 28 46
30 10 39 31 19 43 -18 12 -4 28 27 32 16 2 61 5 101 7 40 1 75 5 79 9 11 11
44 8 44 -4 0 -6 7 -3 16 5 11 12 28 14 72 10 46 -4 63 -2 87 15 30 20 42 21
194 9z m1601 -8 c0 -5 -4 -10 -10 -10 -5 0 -10 -7 -10 -15 0 -9 -9 -15 -24
-15 -13 0 -31 -3 -40 -6 -19 -7 -22 22 -3 29 9 4 8 8 -3 16 -11 8 -2 11 38 11
28 0 52 -4 52 -10z m-10867 -44 c9 -7 17 -23 17 -35 0 -17 -6 -21 -35 -21 -69
0 -136 46 -92 63 25 11 92 6 110 -7z m391 -108 c7 -18 6 -35 -2 -53 -9 -20
-19 -25 -50 -25 -45 0 -62 14 -62 52 0 23 7 32 33 43 45 20 70 15 81 -17z
m8101 -8 c-17 -19 -45 -27 -45 -14 0 11 34 33 49 34 11 0 10 -5 -4 -20z m55
-31 c0 -5 -7 -9 -15 -9 -15 0 -20 12 -9 23 8 8 24 -1 24 -14z m9580 -184 c0
-8 -4 -15 -10 -15 -5 0 -10 7 -10 15 0 8 5 15 10 15 6 0 10 -7 10 -15z m45 5
c-3 -5 -10 -10 -16 -10 -5 0 -9 5 -9 10 0 6 7 10 16 10 8 0 12 -4 9 -10z
m-3440 -40 c-3 -5 -14 -10 -23 -10 -15 0 -15 2 -2 10 20 13 33 13 25 0z
m-4304 -100 c10 -6 19 -16 19 -23 0 -20 -63 -84 -90 -91 -14 -4 -52 -20 -85
-36 -134 -64 -468 -143 -630 -149 -38 -1 -110 -6 -160 -10 -139 -13 -457 -3
-630 18 -38 5 -81 9 -95 9 -70 0 -275 48 -330 76 -25 13 -60 27 -78 31 -18 4
-45 13 -60 21 -15 8 -39 14 -53 14 -18 0 -35 11 -53 34 -14 19 -26 39 -26 45
0 15 39 14 107 -4 31 -8 75 -15 98 -15 24 0 57 -10 83 -25 39 -22 53 -24 156
-23 62 1 118 -2 126 -7 7 -4 49 -9 94 -11 45 -1 124 -5 176 -8 246 -15 297
-18 320 -18 37 0 193 13 207 17 6 2 26 0 44 -5 20 -6 48 -6 75 0 24 6 106 14
184 20 95 7 157 16 192 30 29 11 68 20 86 20 20 0 35 6 38 15 4 8 13 15 22 15
17 0 73 17 112 33 30 13 100 34 118 36 7 0 22 -4 33 -9z m4309 -15 c0 -8 -6
-15 -14 -15 -8 0 -21 -3 -30 -6 -25 -9 -19 12 7 24 31 15 37 14 37 -3z m-2055
-27 c26 -11 33 -32 15 -43 -5 -3 -10 -15 -10 -26 0 -35 -39 -98 -60 -99 -3 0
-11 14 -18 30 -12 27 -11 34 12 76 14 26 26 53 26 60 0 17 2 17 35 2z m2945
-8 c0 -5 -9 -10 -20 -10 -11 0 -20 5 -20 10 0 6 9 10 20 10 11 0 20 -4 20 -10z
m-160 -20 c0 -5 -7 -10 -15 -10 -8 0 -15 5 -15 10 0 6 7 10 15 10 8 0 15 -4
15 -10z m-750 -55 c0 -17 16 -21 22 -5 4 12 43 15 146 12 56 -2 72 -5 72 -17
0 -8 -7 -15 -15 -15 -8 0 -15 -4 -15 -10 0 -5 -9 -10 -20 -10 -11 0 -20 -4
-20 -10 0 -5 -11 -10 -24 -10 -13 0 -27 -6 -30 -12 -5 -10 -7 -10 -12 0 -3 6
-22 12 -41 12 -27 0 -42 7 -64 33 -32 36 -36 47 -14 47 8 0 15 -7 15 -15z
m-2215 -225 c3 -5 27 -10 53 -10 43 0 78 -7 140 -25 16 -6 22 -3 22 9 0 9 5
16 10 16 6 0 10 -6 10 -14 0 -8 9 -17 19 -21 11 -3 22 -14 26 -24 3 -9 26 -32
51 -49 34 -25 45 -38 42 -55 -2 -16 -11 -23 -33 -24 -16 -2 -284 -5 -595 -8
-311 -3 -587 -6 -615 -6 -99 -2 -227 9 -237 19 -13 13 -2 46 12 37 6 -4 18 -1
27 6 37 31 135 50 148 29 3 -5 26 6 51 25 45 35 86 43 174 37 38 -3 35 -3 210
7 128 7 177 14 220 31 43 16 67 20 112 15 35 -4 59 -2 63 5 8 13 82 13 90 0z
m-12602 -209 c31 -32 57 -62 57 -65 0 -4 23 -29 50 -57 30 -30 50 -59 50 -72
0 -24 -55 -127 -68 -127 -4 0 -41 -40 -82 -90 -63 -76 -77 -87 -86 -74 -9 11
-11 87 -7 267 2 139 6 258 8 265 7 21 18 14 78 -47z m11427 34 c0 -15 -26 -20
-54 -9 -28 11 -17 24 19 24 24 0 35 -5 35 -15z m-2832 -61 c2 -15 1 -37 -2
-49 -5 -21 -12 -23 -98 -26 -140 -5 -174 -3 -282 11 -106 13 -126 23 -126 64
l0 25 128 3 c70 2 183 2 252 0 l125 -2 3 -26z m-998 16 c0 -5 -9 -10 -20 -10
-11 0 -20 5 -20 10 0 6 9 10 20 10 11 0 20 -4 20 -10z m1447 -11 c7 -6 29 -8
51 -4 29 5 42 2 52 -9 11 -14 8 -17 -19 -22 -17 -4 -31 -10 -31 -15 0 -5 -15
-9 -34 -9 -19 0 -36 -5 -38 -12 -7 -19 -38 -1 -38 22 0 11 -4 20 -10 20 -5 0
-10 -5 -10 -11 0 -17 -27 -39 -49 -39 -12 0 -21 5 -21 10 0 6 -11 10 -24 10
-14 0 -28 5 -31 10 -4 6 7 10 24 10 17 0 31 5 31 10 0 6 -4 10 -10 10 -5 0
-10 4 -10 9 0 17 148 25 167 10z m-1531 -17 c11 -15 38 -17 216 -20 153 -2
211 -7 236 -18 17 -8 32 -18 32 -22 0 -4 -37 -8 -82 -10 -89 -3 -104 -8 -89
-25 7 -9 -16 -12 -92 -12 -56 0 -140 -6 -187 -14 -57 -9 -205 -15 -450 -17
-201 -2 -381 -8 -400 -14 -32 -8 -308 -21 -455 -21 -33 0 -95 0 -137 0 -87 0
-90 4 -55 56 17 25 26 31 39 24 10 -6 29 -4 52 6 28 12 60 14 143 10 175 -10
256 -8 483 10 156 13 217 22 223 31 6 10 31 14 87 14 48 0 80 4 82 11 2 6 38
12 82 15 43 2 81 5 83 8 2 2 43 4 90 5 71 0 89 -3 99 -17z m1787 -29 c-18 -2
-48 -2 -65 0 -18 2 -4 4 32 4 36 0 50 -2 33 -4z m6058 -79 c30 -15 30 -17 28
-85 -1 -38 1 -72 4 -76 4 -3 7 -18 7 -31 0 -15 14 -38 35 -59 19 -19 35 -41
35 -49 0 -8 11 -20 25 -26 14 -6 25 -17 25 -24 0 -11 64 -60 132 -100 11 -6
28 -21 39 -33 11 -11 25 -21 30 -21 19 0 104 -94 101 -113 -2 -9 4 -20 12 -23
9 -3 16 -13 16 -22 0 -8 14 -27 32 -42 26 -22 30 -31 24 -53 -4 -17 -15 -29
-31 -33 -33 -8 -33 -28 0 -22 28 6 27 6 19 -16 -3 -9 -15 -16 -25 -16 -10 0
-19 -4 -19 -9 0 -17 -32 -21 -53 -6 -12 8 -36 15 -54 15 -63 0 -83 -82 -32
-136 24 -25 40 -78 45 -149 4 -38 0 -56 -15 -74 l-19 -25 -52 27 c-54 28 -85
34 -95 18 -7 -12 -64 -9 -83 3 -9 5 -20 3 -30 -7 -14 -15 -21 -11 -74 34 -38
34 -58 59 -58 73 0 13 -9 31 -21 42 -12 10 -30 36 -41 57 -18 37 -18 41 -3 73
9 19 21 34 26 34 13 0 6 192 -11 275 -21 111 -24 178 -7 190 26 19 18 226 -11
287 -12 26 -22 56 -22 68 0 25 22 50 44 50 8 0 18 5 21 10 9 14 21 13 56 -6z
m1085 -134 c1 -21 -3 -26 -26 -28 -30 -2 -66 30 -55 48 4 7 18 10 31 7 16 -3
24 0 24 10 0 26 25 -9 26 -37z m93 -16 c8 -7 -29 -34 -48 -34 -17 0 -21 6 -21
35 l0 36 33 -17 c17 -9 34 -18 36 -20z m-3829 -34 c0 -5 -7 -10 -15 -10 -8 0
-15 5 -15 10 0 6 7 10 15 10 8 0 15 -4 15 -10z m-50 -9 c0 -10 -30 -24 -37
-17 -3 3 -2 9 2 15 8 13 35 15 35 2z m-3 -187 c6 -16 -41 -127 -64 -150 -7 -7
-36 -50 -65 -96 -29 -47 -75 -117 -103 -158 -27 -40 -56 -85 -64 -99 -7 -14
-28 -42 -46 -61 -19 -19 -56 -64 -83 -99 l-50 -64 -68 -4 c-75 -3 -162 -20
-180 -35 -12 -8 -155 -5 -306 8 -76 6 -77 6 -105 -23 -17 -18 -54 -39 -93 -52
-59 -20 -90 -23 -325 -26 -143 -3 -296 -7 -340 -10 -44 -2 -192 -7 -330 -10
-137 -3 -378 -11 -535 -18 -157 -6 -377 -12 -490 -12 -113 -1 -315 -7 -450
-14 -277 -15 -319 -12 -362 24 -16 14 -33 25 -38 25 -4 0 -17 15 -28 34 -16
26 -28 34 -57 38 -20 2 -38 1 -41 -4 -3 -4 -18 -5 -33 -2 -17 4 -38 0 -52 -9
-13 -8 -38 -17 -56 -20 -18 -4 -51 -20 -74 -37 -43 -31 -104 -41 -125 -20 -6
6 -32 12 -58 14 -44 2 -52 7 -104 64 -65 71 -85 78 -80 30 2 -28 -1 -34 -19
-36 -13 -2 -35 -21 -50 -42 -16 -21 -37 -44 -48 -51 -29 -18 -93 -12 -122 11
-15 11 -34 18 -43 15 -9 -3 -38 11 -70 35 -64 47 -76 51 -150 47 -30 -2 -61 0
-67 6 -9 6 -17 6 -26 -1 -7 -6 -37 -13 -67 -15 -48 -4 -55 -7 -55 -26 -1 -22
-5 -24 -29 -15 -8 3 -24 0 -35 -6 -12 -6 -25 -9 -30 -6 -4 3 -18 -9 -31 -26
-21 -28 -26 -30 -72 -26 -64 7 -108 54 -108 118 0 16 -5 30 -11 30 -6 0 -8 8
-5 18 4 11 -2 28 -14 42 -16 19 -19 30 -13 50 4 14 8 79 8 145 0 71 5 128 11
139 12 20 7 56 -7 56 -14 0 1 53 22 76 11 11 19 32 19 47 0 39 28 42 219 28
92 -7 193 -11 226 -10 89 3 195 -7 208 -20 6 -6 27 -11 47 -11 24 0 41 -7 53
-21 13 -14 25 -19 41 -15 16 4 29 -1 44 -19 21 -23 38 -25 67 -5 6 4 50 13 99
20 85 13 89 13 105 -7 15 -19 30 -21 211 -27 107 -4 223 -11 258 -15 43 -5 74
-3 100 6 20 7 46 13 57 13 11 0 30 7 43 15 23 17 72 20 222 14 56 -2 93 2 109
10 35 19 208 26 294 11 60 -10 79 -10 98 1 17 9 88 13 254 14 127 1 273 4 325
8 52 3 228 10 390 16 268 9 403 19 484 37 16 3 120 8 230 10 286 6 553 21 681
38 124 16 241 41 267 56 10 5 50 14 90 20 40 6 82 15 93 20 43 18 98 20 110 3
17 -23 128 -25 253 -3 57 10 106 21 109 24 11 11 23 6 30 -10z m-6407 -61 c19
-9 41 -17 48 -19 47 -9 55 -49 24 -115 -20 -43 -25 -71 -26 -141 -1 -47 -4
-90 -8 -93 -4 -4 -4 -13 -1 -21 3 -8 1 -20 -5 -27 -9 -11 -23 -109 -27 -187
-1 -19 -2 -49 -3 -66 -1 -21 -9 -35 -27 -44 -22 -12 -24 -18 -19 -46 4 -24 1
-38 -10 -49 -9 -9 -16 -25 -16 -35 0 -19 -60 -70 -83 -70 -15 0 -67 -61 -67
-79 0 -6 -16 -17 -35 -25 -19 -8 -38 -22 -41 -30 -8 -20 -54 -34 -142 -42 -59
-5 -76 -11 -91 -30 -15 -19 -21 -21 -34 -11 -21 15 -90 150 -112 219 -10 29
-39 96 -65 148 -26 52 -51 110 -55 127 -3 18 -10 35 -15 38 -4 3 -27 42 -50
88 -24 45 -47 87 -52 94 -11 14 -50 83 -73 131 -9 19 -38 69 -66 113 -27 43
-49 87 -49 98 0 42 -13 40 560 57 191 5 218 8 245 25 27 18 41 19 145 14 69
-4 129 -13 150 -22z m363 -355 c89 4 95 3 100 -17 3 -12 1 -24 -5 -27 -5 -3
-7 -13 -4 -21 7 -17 -40 -67 -54 -58 -5 3 -11 1 -15 -5 -3 -5 -22 -10 -41 -10
-24 0 -34 -5 -34 -15 0 -10 11 -15 35 -15 34 0 35 -1 35 -40 l0 -40 -75 0
c-43 0 -75 4 -75 10 0 6 -7 10 -15 10 -10 0 -15 10 -15 29 0 17 -5 33 -10 36
-8 5 -8 11 0 20 8 10 8 15 0 20 -18 11 -1 65 31 96 16 16 29 34 29 41 0 9 3 8
10 -2 7 -12 28 -14 103 -12z m102 -629 c5 -5 20 -9 34 -9 13 0 43 -11 65 -24
64 -36 102 -40 140 -13 29 21 40 22 204 21 115 0 180 -5 195 -13 30 -16 258
-9 347 11 41 9 111 13 190 12 288 -5 410 -33 469 -110 19 -25 34 -58 36 -78 2
-19 9 -44 15 -56 11 -21 16 -22 131 -16 83 4 127 10 142 21 14 10 45 15 92 15
39 0 96 4 126 10 56 10 223 18 514 25 94 2 292 8 440 14 523 21 853 25 879 11
19 -10 61 -10 207 -1 340 21 433 14 524 -37 24 -13 66 -18 202 -22 211 -6 213
-7 188 -96 -29 -99 -129 -326 -162 -364 -53 -63 -86 -89 -102 -81 -32 17 -135
24 -516 35 -564 17 -2138 8 -2205 -14 -45 -14 -156 -21 -410 -26 -220 -4 -242
-5 -455 -28 -165 -18 -411 -26 -442 -15 -31 11 -77 1 -103 -23 -21 -19 -22
-19 -35 -2 -13 18 -15 18 -31 2 -17 -17 -13 -54 5 -43 5 3 12 -3 16 -14 3 -11
12 -22 20 -25 18 -7 20 -46 3 -47 -7 0 -25 -2 -40 -3 -26 -2 -28 1 -28 36 0
21 -4 38 -10 38 -5 0 -10 6 -10 14 0 15 -21 26 -47 26 -9 0 -21 7 -27 16 -13
17 -46 10 -46 -11 0 -7 15 -26 34 -42 27 -23 33 -34 29 -55 -3 -17 -10 -25
-19 -21 -7 3 -21 -2 -29 -11 -9 -9 -23 -16 -30 -16 -9 0 -12 -6 -9 -15 4 -8
14 -15 24 -15 12 0 20 -10 24 -31 8 -40 -16 -65 -72 -74 -27 -4 -46 -14 -53
-27 -9 -16 -13 -18 -19 -7 -8 12 -58 42 -92 55 -21 7 -23 25 -6 42 9 9 9 12
-3 12 -8 0 -20 -5 -26 -11 -16 -16 -45 -3 -41 18 2 10 -9 28 -25 42 l-28 23
33 18 c36 19 68 16 68 -7 0 -9 5 -11 12 -7 7 5 25 7 40 6 14 -1 29 2 33 8 3 5
28 10 56 10 27 0 49 5 49 10 0 6 7 10 16 10 31 0 10 35 -24 38 -23 2 -32 8
-32 21 0 17 -14 18 -210 16 -127 -1 -213 2 -217 7 -3 6 -34 7 -77 4 -39 -4
-102 -9 -141 -11 -38 -3 -81 -7 -95 -9 -14 -3 -72 -8 -130 -11 -58 -3 -150
-11 -205 -17 -55 -6 -129 -12 -164 -12 -62 -1 -66 0 -82 29 -10 17 -20 57 -23
90 -5 59 -17 149 -36 275 -13 84 -13 192 0 225 9 23 14 26 40 20 20 -4 44 0
72 13 119 55 212 69 273 42 17 -8 38 -14 47 -15 10 -1 30 -15 45 -30 16 -15
38 -35 51 -43 19 -13 23 -21 18 -47 -5 -27 -3 -33 19 -43 23 -11 25 -10 25 12
0 12 3 26 7 30 4 4 6 27 4 51 -1 28 3 53 13 67 9 12 16 38 16 57 0 23 14 57
45 106 40 64 49 74 87 84 76 20 171 20 193 0z m8938 -36 c4 -2 7 -12 7 -22 0
-9 5 -22 12 -29 9 -9 8 -16 -5 -30 -23 -25 -14 -45 29 -64 35 -16 64 -15 64 3
0 5 5 9 10 9 6 0 10 -9 10 -19 0 -27 15 -34 34 -16 14 14 20 14 58 1 29 -9 45
-11 49 -4 4 7 23 8 50 4 44 -7 101 -55 114 -96 3 -11 10 -20 15 -20 11 0 50
-82 50 -106 0 -10 -10 -24 -22 -30 -20 -8 -28 -5 -53 21 -78 78 -127 113 -172
125 -52 14 -51 14 -73 5 -9 -3 -25 3 -35 13 -14 13 -27 16 -45 11 -93 -26
-179 6 -180 67 0 12 -11 37 -24 57 -14 20 -28 52 -32 72 -5 30 -3 35 12 35 11
0 28 7 39 16 18 13 62 12 88 -3z m2713 -391 c13 -23 24 -48 24 -55 0 -7 9 -32
20 -55 11 -22 20 -48 20 -57 0 -15 4 -26 29 -73 27 -53 62 -171 68 -232 3 -36
12 -72 20 -81 8 -10 18 -43 24 -75 5 -33 16 -90 25 -129 8 -38 18 -83 21 -100
3 -16 10 -36 16 -43 15 -19 18 -237 4 -287 -14 -52 -16 -67 -18 -145 -1 -36
-6 -71 -12 -77 -13 -18 -37 -16 -37 2 0 8 5 15 10 15 6 0 10 5 10 11 0 6 -7 9
-15 6 -21 -9 -28 9 -13 33 11 18 10 24 -8 38 -18 16 -20 26 -17 105 2 72 0 89
-12 94 -11 4 -16 19 -15 52 1 92 -1 104 -20 144 -11 22 -20 54 -20 69 0 16 -6
31 -14 34 -10 4 -12 18 -8 49 2 25 0 50 -5 57 -6 7 -11 38 -12 68 -1 30 -9 68
-17 84 -8 16 -14 41 -14 56 0 33 -24 68 -34 51 -13 -20 -26 -1 -26 40 0 21 -4
39 -10 39 -5 0 -10 11 -10 24 0 14 -4 28 -10 31 -5 3 -10 22 -10 41 0 19 5 34
10 34 12 0 13 37 1 44 -5 3 -9 33 -9 67 0 57 -10 88 -19 62 -8 -22 -23 -14
-23 11 0 31 10 56 21 56 5 0 9 -7 9 -16 0 -8 5 -12 10 -9 8 5 7 11 -1 21 -16
20 -3 46 22 42 13 -2 31 -20 45 -46z m-76 -124 c0 -5 -4 -8 -10 -8 -5 0 -10
10 -10 23 0 18 2 19 10 7 5 -8 10 -18 10 -22z m1210 -22 c-14 -14 -22 -2 -14
18 5 14 9 15 15 4 4 -7 4 -17 -1 -22z m600 -171 c23 -109 25 -139 17 -215 -16
-150 -22 -183 -33 -187 -19 -6 -41 23 -49 64 -3 21 -13 52 -20 68 -21 47 -36
196 -24 241 14 49 37 84 63 94 28 10 31 6 46 -65z m-4278 -30 c36 -6 148 -56
148 -67 0 -5 13 -13 28 -19 15 -5 36 -25 46 -44 11 -19 23 -35 27 -35 16 0 -6
-44 -39 -76 -33 -32 -39 -34 -103 -34 -37 0 -71 5 -74 10 -3 6 -15 10 -26 10
-29 0 -119 31 -119 41 0 12 -42 50 -67 60 -13 5 -23 14 -23 21 0 16 -60 58
-84 58 -9 0 -28 11 -42 25 -14 14 -30 25 -36 25 -18 0 0 14 35 27 30 11 254 9
329 -2z m3735 -75 c4 -14 14 -20 34 -20 22 0 29 -5 29 -20 0 -11 5 -20 10 -20
6 0 10 -7 10 -16 0 -8 7 -22 15 -31 9 -8 18 -28 22 -43 4 -21 12 -29 35 -34
28 -5 30 -9 25 -36 -4 -17 -2 -30 3 -30 6 0 10 -9 10 -19 0 -11 6 -22 13 -25
10 -5 10 -7 0 -12 -14 -6 -18 -34 -5 -34 15 0 52 -37 52 -51 0 -8 9 -21 20
-29 11 -8 20 -23 20 -33 0 -10 5 -15 10 -12 6 3 10 -2 10 -12 0 -10 9 -24 20
-31 11 -7 20 -17 20 -22 0 -12 -33 -13 -44 -2 -4 4 -24 7 -43 7 l-35 0 6 -41
c8 -62 23 -93 50 -104 13 -5 27 -17 30 -27 4 -10 38 -52 76 -93 38 -41 75 -87
81 -102 6 -16 18 -28 25 -28 8 0 14 -9 14 -20 0 -11 9 -28 20 -37 23 -20 26
-51 7 -78 -17 -23 -76 -14 -102 15 -10 11 -24 20 -31 20 -7 0 -29 20 -49 44
-20 25 -42 43 -48 40 -7 -2 -23 16 -36 41 -13 25 -36 51 -50 58 -14 6 -34 27
-43 46 -9 19 -22 38 -29 42 -7 4 -17 23 -24 43 -15 42 -54 90 -110 132 -22 16
-41 40 -43 52 -2 15 -10 22 -26 22 -28 0 -46 18 -46 47 0 13 -9 32 -19 42 -15
15 -18 28 -14 64 3 27 1 47 -6 51 -6 4 -11 25 -11 47 0 21 -4 39 -10 39 -5 0
-10 5 -10 10 0 6 10 8 23 5 12 -3 36 1 52 10 29 15 29 15 8 21 -29 8 -30 31
-2 30 12 -1 24 5 26 12 3 6 -2 12 -11 12 -9 0 -16 5 -16 11 0 7 11 8 30 4 18
-4 30 -3 30 4 0 6 10 19 22 30 l21 20 -27 11 c-15 5 -36 10 -47 10 -24 0 -25
27 -1 33 37 10 54 6 59 -13z m-12467 -65 c0 -16 -12 -18 -47 -9 -31 8 -19 24
18 24 19 0 29 -5 29 -15z m1138 -117 c13 -17 18 -60 9 -75 -10 -15 -117 -18
-117 -3 0 5 -7 7 -15 4 -26 -10 -31 27 -7 47 12 9 22 22 22 28 0 15 95 14 108
-1z m-1398 -163 c10 -13 9 -15 -9 -15 -18 0 -20 -4 -15 -25 5 -19 2 -25 -10
-25 -10 0 -16 9 -16 24 0 53 24 72 50 41z m15 -104 c3 -15 19 -41 34 -57 64
-66 100 -225 66 -290 -17 -34 -19 -54 -5 -54 7 0 7 -6 2 -17 -5 -10 -8 -22 -7
-28 2 -5 6 -22 9 -37 4 -19 11 -26 21 -22 11 5 17 -3 21 -25 7 -32 19 -40 27
-18 3 6 6 -7 6 -31 1 -26 5 -41 11 -37 17 10 11 -12 -10 -36 -16 -20 -21 -22
-29 -10 -8 12 -14 13 -36 3 -14 -7 -34 -12 -43 -12 -16 0 -42 -41 -42 -66 0
-7 -13 -21 -30 -31 -30 -17 -39 -33 -20 -33 6 0 10 -7 10 -15 0 -18 -27 -20
-33 -2 -2 6 -4 -10 -4 -36 -1 -26 -9 -64 -18 -84 -10 -21 -15 -47 -11 -64 4
-22 0 -35 -15 -50 -15 -15 -18 -27 -13 -53 l6 -34 -47 -4 c-26 -2 -49 0 -52 5
-3 5 -6 84 -8 176 -1 93 -5 173 -8 178 -7 11 73 154 105 189 21 24 32 134 33
340 0 74 4 126 11 135 27 34 45 82 40 106 -4 13 -4 28 -1 33 11 18 23 10 30
-19z m-1038 -121 c25 -47 52 -96 59 -110 8 -14 14 -35 14 -47 0 -12 6 -28 13
-35 29 -29 78 -154 117 -303 29 -105 73 -242 136 -420 31 -88 64 -187 75 -220
32 -104 80 -247 105 -315 25 -69 30 -100 15 -100 -14 0 -28 23 -36 60 -4 19
-12 41 -16 50 -5 8 -54 148 -108 310 -55 162 -119 351 -144 420 -88 243 -107
295 -116 315 -44 97 -107 249 -140 338 -65 170 -51 200 26 57z m2473 -375 c0
-7 16 -22 35 -34 26 -15 35 -27 35 -46 0 -15 17 -49 40 -79 22 -29 40 -60 40
-68 0 -8 13 -35 30 -60 32 -49 32 -56 -12 -154 -20 -44 -23 -80 -9 -116 5 -13
4 -52 -1 -93 -6 -47 -6 -121 2 -225 13 -178 12 -154 12 -250 1 -251 -1 -263
-33 -292 -23 -22 -39 -28 -75 -28 -39 0 -51 5 -75 31 -16 17 -29 37 -29 45 0
8 -8 22 -17 32 -24 23 -44 69 -37 85 8 21 -13 65 -51 110 -26 30 -33 46 -29
63 7 26 -1 30 -91 57 -92 28 -169 39 -217 34 -42 -5 -55 -2 -98 25 -28 17 -50
35 -50 40 0 6 -9 17 -21 26 -36 30 -36 101 0 162 45 77 80 199 81 279 1 56 23
124 51 162 41 52 110 121 149 149 19 13 40 29 45 35 29 31 97 73 160 97 75 29
165 36 165 13z m11820 -160 c0 -10 10 -15 29 -15 29 0 49 -14 34 -23 -44 -24
-111 0 -97 36 8 21 34 23 34 2z m266 -92 c-11 -11 -19 6 -11 24 8 17 8 17 12
0 3 -10 2 -21 -1 -24z m-1729 -44 c54 -106 113 -255 113 -285 0 -24 -35 -16
-57 14 -11 15 -31 50 -43 78 -12 27 -32 69 -44 94 -23 46 -40 122 -30 133 11
11 49 -10 61 -34z m1683 -34 c0 -8 -4 -15 -10 -15 -5 0 -10 7 -10 15 0 8 5 15
10 15 6 0 10 -7 10 -15z m-390 -10 c0 -8 9 -15 20 -15 16 0 20 -7 20 -30 0
-29 -15 -41 -22 -18 -3 8 -15 6 -39 -8 -19 -10 -35 -22 -37 -26 -2 -5 -12 -8
-23 -8 -12 0 -19 7 -19 20 0 11 -4 20 -10 20 -5 0 -10 8 -10 18 0 18 37 42 65
42 8 0 15 5 15 10 0 6 9 10 20 10 11 0 20 -7 20 -15z m-7553 -37 c9 -7 8 -20
-4 -52 -17 -44 -12 -83 8 -70 13 8 2 -55 -12 -70 -5 -5 -32 -10 -61 -10 -29
-1 -59 -5 -66 -9 -25 -17 -39 1 -45 59 -6 56 -5 58 34 103 29 33 47 45 63 43
13 -2 28 4 35 12 13 15 22 14 48 -6z m5802 -16 c66 -33 66 -65 1 -109 -29 -20
-44 -22 -146 -22 l-114 1 0 26 c0 15 9 42 21 61 18 29 24 32 52 27 23 -4 41 0
62 14 37 25 79 25 124 2z m1627 -49 c-10 -10 -19 5 -10 18 6 11 8 11 12 0 2
-7 1 -15 -2 -18z m2549 -303 c18 -17 38 -48 45 -69 8 -24 28 -50 56 -72 32
-25 47 -46 57 -81 8 -25 35 -73 61 -105 25 -33 46 -66 46 -75 0 -8 9 -27 20
-41 11 -14 20 -30 20 -35 0 -18 45 -107 83 -164 20 -31 37 -64 37 -73 0 -9 9
-25 20 -37 11 -12 20 -28 20 -36 0 -8 9 -25 20 -39 11 -14 20 -33 20 -42 0
-10 7 -26 15 -37 8 -10 15 -28 15 -40 0 -11 7 -29 15 -40 8 -10 15 -28 15 -39
0 -11 14 -49 30 -83 17 -35 30 -72 30 -82 0 -9 11 -34 25 -54 14 -20 25 -50
25 -66 0 -17 4 -30 9 -30 8 0 18 -47 25 -113 2 -15 8 -33 14 -39 17 -17 15
-68 -3 -75 -21 -7 -45 -55 -45 -88 0 -15 -6 -25 -14 -25 -16 0 -26 21 -26 56
0 13 -4 24 -10 24 -5 0 -10 -4 -10 -10 0 -15 -29 -12 -46 5 -9 9 -13 23 -9 35
5 17 2 20 -20 20 -21 0 -26 4 -23 23 2 16 -2 22 -17 22 -14 0 -21 8 -23 26 -2
19 -12 29 -38 39 -25 10 -34 20 -33 35 3 35 -13 85 -27 85 -8 0 -14 9 -14 19
0 11 -4 22 -10 26 -5 3 -7 12 -4 20 8 19 -25 65 -53 76 -13 5 -23 17 -23 27 0
10 -9 27 -19 36 -15 13 -18 29 -17 69 3 60 -11 104 -35 110 -10 3 -24 26 -34
58 -25 78 -55 140 -72 146 -12 5 -12 7 -1 14 10 6 10 11 0 21 -6 6 -12 22 -12
35 0 12 -9 27 -20 33 -20 11 -60 82 -60 107 0 7 -11 18 -24 24 -16 8 -23 20
-24 41 0 16 -8 38 -16 47 -9 10 -16 23 -16 30 0 6 -11 17 -25 23 -16 7 -25 19
-25 33 0 13 -7 28 -15 35 -11 9 -12 16 -5 25 13 15 3 25 -26 25 -29 0 -47 32
-39 68 4 20 0 34 -15 49 -11 12 -20 31 -20 42 0 11 -6 21 -12 23 -20 7 7 58
31 58 11 0 23 5 27 11 3 6 16 8 28 5 11 -2 32 2 46 10 36 21 88 10 125 -26z
m405 -40 c0 -5 -7 -10 -16 -10 -8 0 -12 5 -9 10 3 6 10 10 16 10 5 0 9 -4 9
-10z m250 -219 c0 -17 -40 -13 -47 5 -8 22 17 36 34 19 7 -8 13 -18 13 -24z
m-993 -131 c-5 -22 -3 -30 8 -30 23 0 33 -30 30 -92 -1 -32 2 -58 6 -58 5 0 9
-10 9 -21 0 -12 7 -27 17 -34 10 -8 16 -28 17 -58 1 -28 6 -47 13 -47 6 0 14
-25 18 -60 4 -33 11 -60 16 -60 5 0 9 -12 9 -26 0 -21 -4 -24 -20 -19 -31 10
-37 -21 -10 -50 22 -23 22 -25 6 -50 -14 -21 -15 -29 -5 -41 14 -17 5 -28 -27
-38 -16 -5 -23 1 -37 32 -20 45 -22 73 -5 90 8 8 8 15 1 24 -6 7 -13 38 -15
68 -2 30 -12 71 -21 91 -10 20 -18 64 -19 103 -1 37 -6 70 -10 72 -9 6 -11
158 -2 203 4 17 11 31 17 31 5 0 7 -13 4 -30z m-3717 -60 c0 -6 11 -8 25 -4
16 4 35 0 51 -11 14 -9 42 -19 62 -21 20 -3 41 -9 46 -14 6 -6 19 -10 30 -10
23 0 56 -27 56 -46 0 -7 12 -22 26 -33 25 -20 26 -21 5 -21 -24 0 -28 -15 -6
-24 8 -3 15 -12 15 -20 0 -8 9 -18 20 -21 11 -3 20 -11 20 -16 0 -15 -33 -24
-38 -11 -6 19 -30 14 -37 -7 -15 -48 -93 -38 -144 18 -36 40 -39 41 -100 41
-78 0 -101 11 -101 50 0 17 -3 29 -7 28 -5 -1 -18 1 -30 6 -20 6 -23 14 -23
57 l0 49 43 0 c23 0 49 5 57 10 19 13 30 13 30 0z m-9362 -89 c5 -67 -13 -121
-39 -121 -10 0 -20 11 -24 27 -3 15 -10 30 -14 33 -5 3 -6 30 -4 61 5 49 8 57
32 66 36 13 44 3 49 -66z m6859 -402 c19 -16 16 -42 -7 -72 -11 -14 -20 -30
-20 -37 0 -6 -7 -25 -16 -42 -11 -21 -19 -27 -26 -20 -10 10 -19 170 -10 186
6 10 60 0 79 -15z m7693 -303 c0 -25 -12 -46 -26 -46 -17 0 -18 14 -2 40 15
23 28 26 28 6z m-14805 -417 c4 -6 12 -8 19 -6 7 3 33 0 59 -7 38 -10 51 -19
66 -47 16 -29 23 -34 49 -31 40 4 72 -13 72 -38 0 -11 -4 -20 -9 -20 -19 0
-71 -52 -71 -71 0 -22 -22 -25 -39 -5 -7 8 -35 14 -74 15 -34 1 -80 6 -102 12
-22 6 -51 13 -65 16 -41 9 -90 70 -90 112 0 16 11 24 52 36 28 8 57 15 64 15
6 0 17 7 24 15 15 18 36 20 45 4z m7745 -40 c0 -11 -4 -17 -10 -14 -5 3 -10
13 -10 21 0 8 5 14 10 14 6 0 10 -9 10 -21z m-8708 -6 c6 -7 20 -13 29 -13 43
0 69 -108 32 -129 -58 -30 -174 -20 -214 20 -28 28 -26 85 4 100 12 7 25 17
29 24 10 16 103 14 120 -2z m-498 -69 c20 -8 21 -34 1 -34 -9 0 -15 -9 -15
-25 0 -25 -14 -33 -25 -15 -3 6 -15 10 -26 10 -14 0 -19 5 -17 18 3 12 12 16
31 15 21 -1 27 3 27 18 0 21 1 22 24 13z m16114 -162 c4 -23 -12 -28 -37 -13
-12 8 -12 11 0 25 18 20 33 15 37 -12z m-6868 4 c0 -16 -14 -36 -26 -36 -16 0
-16 2 -8 24 5 14 34 24 34 12z m-7915 -178 c6 0 66 1 134 2 94 1 126 -1 132
-12 17 -26 8 -79 -21 -132 -38 -66 -31 -65 -295 -71 -110 -3 -211 -8 -225 -10
-40 -8 -313 -15 -737 -19 -366 -3 -393 -2 -420 15 -36 24 -41 40 -42 120 -1
104 -17 99 289 105 145 3 267 7 270 10 3 4 765 -2 915 -8z m8295 -113 c0 -8
-4 -15 -10 -15 -5 0 -10 7 -10 15 0 8 5 15 10 15 6 0 10 -7 10 -15z m-50 -45
c-19 -13 -30 -13 -30 0 0 6 10 10 23 10 18 0 19 -2 7 -10z m-6994 -116 c13
-11 15 -17 7 -20 -7 -3 -13 -14 -13 -25 0 -10 -7 -19 -15 -19 -9 0 -15 9 -15
25 0 14 -4 25 -10 25 -5 0 -10 7 -10 15 0 20 31 19 56 -1z m-14 -131 c-3 -29
-12 -55 -24 -64 -10 -9 -18 -26 -18 -38 0 -11 -5 -21 -11 -21 -5 0 -16 -16
-24 -34 -8 -19 -21 -39 -28 -43 -8 -4 -17 -15 -20 -23 -3 -9 -6 -3 -6 13 -1
24 -3 26 -21 15 -10 -7 -20 -21 -22 -31 -2 -11 -20 -29 -42 -41 -25 -14 -48
-39 -69 -76 -16 -30 -34 -58 -39 -61 -5 -3 -8 -12 -6 -20 2 -9 -9 -15 -32 -19
-29 -4 -36 -9 -38 -33 -4 -30 -13 -31 -68 -10 -13 5 -16 3 -11 -10 3 -8 9 -32
13 -51 5 -29 3 -36 -10 -36 -9 0 -16 -4 -16 -10 0 -5 -5 -10 -10 -10 -6 0 -29
-16 -50 -37 -40 -36 -40 -36 -41 -117 -2 -120 -8 -138 -51 -159 -21 -10 -38
-25 -38 -33 0 -8 -6 -15 -12 -15 -7 -1 -20 -2 -28 -3 -11 -1 -14 -10 -12 -33
4 -35 -13 -44 -36 -21 -9 9 -12 8 -12 -6 0 -14 -3 -16 -14 -7 -7 6 -27 8 -45
5 -25 -5 -31 -3 -31 10 0 9 -7 19 -15 22 -17 7 -21 34 -5 34 6 0 10 11 10 24
0 27 26 59 41 51 5 -4 9 3 9 13 0 11 7 25 15 32 21 18 65 112 65 139 0 12 11
42 25 65 15 26 23 50 19 60 -4 11 2 27 18 44 13 15 33 47 43 71 14 32 29 48
53 58 21 9 38 26 47 46 7 18 22 40 33 50 12 11 18 26 15 38 -4 15 0 19 21 19
26 0 66 31 66 51 0 6 11 20 25 31 14 11 25 30 25 43 0 18 4 23 15 19 10 -4 15
0 15 15 0 23 16 29 22 9 6 -17 38 14 38 36 0 8 15 27 34 41 25 19 41 24 60 19
16 -4 26 -2 26 5 0 6 -6 11 -12 12 -7 0 -4 4 7 9 11 5 52 9 91 9 l72 1 -6 -47z
m14443 27 c3 -5 17 -10 29 -10 13 0 29 -7 36 -15 7 -8 17 -15 23 -15 12 0 67
-59 67 -72 0 -5 5 -6 10 -3 6 3 26 1 45 -6 28 -10 35 -18 35 -39 0 -23 4 -26
35 -26 22 0 43 -8 59 -23 24 -22 24 -22 35 -3 6 11 8 41 5 68 -3 29 0 67 9 94
14 43 14 40 16 -110 1 -85 2 -171 3 -190 4 -70 -2 -1593 -6 -1589 -2 2 -7 274
-11 604 -4 330 -8 602 -11 604 -2 2 -11 -13 -21 -35 -15 -35 -17 -37 -21 -15
-2 13 -13 26 -24 29 -18 4 -20 11 -16 78 3 66 1 74 -14 74 -14 0 -18 9 -18 43
0 42 -1 43 -35 44 -26 1 -43 9 -65 33 -26 28 -30 40 -30 87 0 59 -14 83 -49
83 -17 0 -20 4 -14 30 5 26 3 30 -16 30 -14 0 -21 6 -21 20 0 15 -12 23 -47
33 l-48 14 -3 82 c-2 67 0 81 13 81 8 0 15 7 15 15 0 17 25 20 35 5z m-8640
-695 c28 -3 82 -10 120 -16 39 -5 102 -14 140 -19 136 -17 349 -61 485 -101
19 -6 64 -16 100 -24 63 -13 136 -37 172 -56 39 -20 108 -41 200 -59 53 -10
123 -31 155 -45 32 -15 73 -33 90 -41 18 -8 72 -24 120 -36 49 -11 95 -26 103
-33 44 -35 206 -106 253 -110 11 -1 22 -6 25 -12 4 -5 36 -22 72 -37 89 -38
150 -69 150 -77 0 -4 20 -15 44 -24 25 -10 47 -23 50 -31 3 -7 23 -18 46 -25
22 -7 45 -18 51 -26 6 -7 17 -13 24 -13 7 0 37 -16 66 -36 30 -20 73 -45 96
-56 23 -10 45 -23 48 -28 3 -6 14 -10 24 -10 10 0 24 -6 30 -13 6 -8 30 -20
53 -27 24 -7 58 -24 76 -37 l32 -24 9 23 c12 33 2 136 -16 164 -15 24 -14 26
51 89 62 61 70 65 112 65 78 0 196 -81 210 -144 3 -17 11 -34 17 -37 15 -11 0
-40 -18 -33 -9 4 -31 -10 -60 -40 -38 -39 -50 -46 -83 -46 -67 0 -98 -16 -112
-59 -11 -33 -10 -42 5 -65 10 -14 21 -26 25 -26 5 0 12 -10 15 -21 7 -22 92
-109 106 -109 5 0 12 -6 16 -13 4 -8 28 -29 53 -48 59 -45 109 -89 129 -114
42 -51 103 -109 143 -134 25 -16 55 -46 68 -67 13 -22 30 -43 37 -47 7 -4 13
-14 13 -21 0 -9 9 -12 25 -9 21 5 27 -1 47 -41 12 -25 26 -46 31 -46 4 0 5 -4
2 -10 -8 -14 -8504 -14 -8525 0 -13 8 -12 10 4 10 10 0 26 8 35 18 9 10 40 35
68 56 29 20 62 52 74 69 32 46 81 97 94 97 6 0 22 11 35 25 13 14 31 25 41 25
9 0 24 11 32 24 9 13 38 35 64 48 41 20 48 28 48 53 1 24 8 33 40 50 24 12 41
28 43 41 2 13 16 26 37 34 19 8 35 20 35 27 0 12 13 17 33 14 4 0 7 4 7 9 0 6
12 10 26 10 17 0 28 6 31 19 7 26 84 88 131 104 22 8 58 27 79 44 21 16 58 36
83 44 26 8 73 38 110 70 36 31 76 60 90 64 13 4 41 25 64 46 22 22 48 39 58
39 9 0 25 8 35 19 10 10 36 28 58 39 22 11 58 37 79 58 22 21 51 39 65 40 35
3 101 32 101 44 0 6 9 10 21 10 11 0 18 4 15 8 -2 4 10 13 27 20 42 17 81 34
137 60 25 12 59 24 75 28 17 4 62 24 100 45 39 20 89 40 112 42 23 3 57 13 75
22 18 9 61 23 95 30 35 8 77 21 95 29 18 8 44 18 58 21 14 4 31 13 39 19 11 9
183 49 256 60 11 1 27 5 35 8 8 3 60 15 115 26 97 19 229 55 270 73 27 12 109
23 170 23 28 0 53 5 57 11 11 16 241 25 741 29 253 3 462 8 465 11 6 6 70 3
217 -10z m6441 -672 c31 -38 68 -86 82 -108 14 -22 34 -46 44 -53 30 -22 94
-114 108 -157 7 -22 23 -56 36 -75 12 -19 26 -53 29 -75 4 -22 18 -68 31 -103
13 -34 24 -69 24 -78 0 -8 13 -42 30 -75 16 -33 29 -72 28 -87 0 -15 5 -54 11
-87 22 -111 40 -240 34 -245 -10 -10 -374 -3 -385 8 -7 7 -3 17 14 34 50 47
69 198 43 353 -3 17 -8 55 -11 85 -3 30 -10 62 -15 71 -5 10 -9 35 -9 56 0 26
-8 51 -25 73 -14 19 -25 41 -25 50 0 17 -18 36 -57 58 -21 11 -23 10 -23 -12
0 -14 -4 -28 -10 -31 -5 -3 -10 -18 -10 -33 -1 -30 -60 -96 -67 -74 -3 6 -15
12 -28 12 -55 0 -73 18 -80 81 -7 56 -24 91 -26 52 0 -14 -2 -14 -6 -3 -2 8
-8 24 -13 35 -18 44 -29 101 -24 121 4 15 -1 26 -16 37 -18 12 -20 21 -14 52
5 29 10 35 23 29 9 -4 35 -9 58 -12 34 -3 43 0 53 18 6 11 9 33 5 49 -4 21 1
35 26 64 26 31 38 37 70 37 35 0 43 -6 95 -67z m-421 46 c10 -15 -1 -23 -20
-15 -9 3 -13 10 -10 16 8 13 22 13 30 -1z m78 -79 c25 -29 21 -41 -13 -38 -23
2 -30 7 -30 23 0 39 17 45 43 15z m1937 -695 c0 -8 -7 -15 -15 -15 -8 0 -15 7
-15 15 0 8 7 15 15 15 8 0 15 -7 15 -15z m-14080 -4 c0 -6 -4 -13 -10 -16 -5
-3 -10 1 -10 9 0 9 5 16 10 16 6 0 10 -4 10 -9z m70 -51 c0 -11 7 -20 15 -20
8 0 15 -4 15 -10 0 -5 11 -12 25 -16 14 -3 25 -10 25 -15 0 -5 9 -9 21 -9 19
0 89 -63 89 -81 0 -5 7 -9 15 -9 9 0 21 -11 27 -25 6 -14 26 -34 45 -45 18
-10 33 -24 33 -30 0 -5 9 -10 20 -10 14 0 20 -7 20 -24 0 -20 -6 -25 -42 -30
-86 -13 -732 -5 -746 9 -3 3 0 11 6 17 7 7 12 21 12 33 0 29 23 76 35 72 5 -2
17 3 25 11 13 14 15 14 18 -1 2 -9 9 -17 15 -17 7 0 22 -3 35 -6 13 -4 22 -2
22 5 0 6 -7 11 -15 11 -8 0 -15 4 -15 8 0 9 107 42 139 42 19 0 21 3 11 15 -9
11 -7 19 14 40 14 14 34 25 45 25 11 0 22 9 26 20 3 11 13 20 21 20 8 0 14 9
14 20 0 11 7 20 15 20 8 0 15 -9 15 -20z m-160 -70 c0 -5 -7 -10 -15 -10 -8 0
-15 5 -15 10 0 6 7 10 15 10 8 0 15 -4 15 -10z m13767 -51 c29 -34 63 -97 63
-116 0 -7 -8 -13 -19 -13 -10 0 -32 -3 -49 -6 -27 -5 -32 -2 -46 24 -9 17 -16
46 -16 65 0 18 -5 38 -11 44 -16 16 -2 33 27 33 16 0 35 -11 51 -31z m673
-169 c0 -13 -28 -25 -38 -16 -3 4 0 11 8 16 20 13 30 12 30 0z m63 -57 c-29
-2 -77 -2 -105 0 -29 2 -6 3 52 3 58 0 81 -1 53 -3z"/>
<path d="M23180 13626 c0 -9 5 -16 10 -16 6 0 10 4 10 9 0 6 -4 13 -10 16 -5
3 -10 -1 -10 -9z"/>
<path d="M8535 8446 c-18 -13 -18 -14 3 -20 12 -4 26 -5 31 -1 5 3 12 1 16 -5
11 -18 25 -10 25 15 0 26 -24 35 -33 13 -4 -10 -7 -10 -14 -1 -7 10 -13 10
-28 -1z"/>
<path d="M8534 8359 c-2 -4 -11 -6 -19 -2 -9 3 -15 -1 -15 -9 0 -24 23 -45 57
-51 33 -7 44 7 35 45 -4 17 -49 31 -58 17z"/>
<path d="M22000 1295 c-11 -13 -8 -15 14 -15 16 0 26 5 26 15 0 8 -6 15 -14
15 -7 0 -19 -7 -26 -15z"/>
<path d="M10041 13195 c-37 -24 -40 -52 -6 -65 14 -5 31 -25 39 -45 8 -19 22
-35 30 -35 9 0 16 -7 16 -15 0 -8 5 -15 11 -15 14 0 79 65 79 79 0 14 16 14
40 -1 27 -17 38 -1 12 18 -12 8 -22 21 -22 27 0 7 -13 24 -28 39 -37 36 -125
43 -171 13z"/>
<path d="M22503 11982 c-21 -2 -33 -9 -33 -18 0 -8 5 -14 10 -14 6 0 21 -12
34 -27 22 -25 24 -26 30 -7 3 10 2 30 -2 44 -6 21 -12 25 -39 22z"/>
<path d="M17353 10213 c-14 -5 -17 -50 -7 -77 4 -11 10 -13 18 -8 16 13 66 24
66 14 0 -4 -5 -13 -12 -20 -9 -9 0 -12 40 -12 47 0 52 2 49 21 -1 12 5 24 13
29 46 22 54 27 58 38 2 7 -7 12 -22 12 -14 0 -26 -4 -26 -10 0 -11 -90 -2
-104 11 -11 10 -53 11 -73 2z"/>
<path d="M17660 10170 c0 -5 14 -10 30 -10 17 0 30 5 30 10 0 6 -13 10 -30 10
-16 0 -30 -4 -30 -10z"/>
<path d="M17720 10139 c0 -16 21 -19 45 -6 l26 13 -36 0 c-19 0 -35 -3 -35 -7z"/>
<path d="M17620 10097 c0 -4 10 -21 22 -37 16 -23 25 -27 35 -19 22 19 44 3
37 -27 l-7 -27 58 6 c64 6 74 12 57 29 -9 9 -12 9 -12 0 0 -7 -4 -12 -10 -12
-5 0 -10 9 -10 21 0 13 5 19 13 17 6 -3 19 3 28 12 15 16 12 18 -50 30 -79 14
-161 18 -161 7z"/>
<path d="M15665 9970 c-28 -7 -28 -8 -5 -9 14 0 32 4 40 9 17 11 8 11 -35 0z"/>
<path d="M19380 9671 c0 -12 5 -21 10 -21 6 0 10 6 10 14 0 8 -4 18 -10 21 -5
3 -10 -3 -10 -14z"/>
<path d="M19415 9526 c-14 -69 -12 -101 5 -121 10 -11 18 -33 19 -50 0 -16 4
-52 9 -80 6 -38 12 -49 24 -47 17 3 58 -42 58 -64 0 -30 37 -92 82 -136 33
-32 48 -55 48 -72 0 -14 4 -26 8 -26 5 0 13 -17 18 -37 8 -35 10 -36 26 -20 9
9 24 17 32 17 10 0 16 9 16 25 0 14 5 25 10 25 6 0 10 9 10 20 0 11 7 20 15
20 8 0 15 5 15 10 0 6 -11 10 -25 10 -27 0 -32 9 -14 27 9 9 9 20 -1 42 -10
25 -19 31 -41 31 -34 0 -40 20 -6 21 20 0 19 2 -6 11 -27 10 -28 12 -22 58 5
38 3 48 -10 54 -12 4 -14 14 -10 39 5 24 0 45 -16 78 -27 52 -35 59 -71 59
-21 0 -28 5 -28 19 0 11 -5 21 -11 23 -5 2 -13 23 -16 46 -7 50 -20 63 -29 27
-6 -25 -34 -36 -34 -12 0 6 -11 17 -24 23 -22 10 -25 9 -31 -20z"/>
<path d="M20810 9110 c0 -5 14 -10 30 -10 17 0 30 5 30 10 0 6 -13 10 -30 10
-16 0 -30 -4 -30 -10z"/>
<path d="M20840 9070 c0 -5 11 -10 25 -10 18 0 25 -5 25 -20 0 -15 7 -20 25
-20 16 0 25 6 25 15 0 8 -9 15 -20 15 -11 0 -23 7 -26 15 -7 17 -54 21 -54 5z"/>
<path d="M20860 8979 c0 -13 25 -39 39 -39 6 0 7 8 4 18 -10 27 -43 44 -43 21z"/>
<path d="M17683 8915 c-34 -24 -28 -47 24 -80 75 -48 108 -126 127 -303 5 -44
12 -49 28 -20 9 16 13 61 12 148 -1 112 -3 131 -26 180 -32 68 -43 78 -99 86
-32 4 -50 1 -66 -11z"/>
<path d="M20880 8871 c0 -12 6 -21 15 -21 8 0 15 4 15 9 0 5 -7 14 -15 21 -13
10 -15 9 -15 -9z"/>
<path d="M20920 8870 c0 -13 7 -20 20 -20 22 0 27 -16 8 -23 -7 -2 -10 -8 -6
-12 8 -9 38 18 38 35 0 17 -26 40 -44 40 -9 0 -16 -8 -16 -20z"/>
<path d="M19817 8737 c-3 -9 -13 -17 -22 -17 -18 0 -19 -9 -5 -46 10 -26 11
-26 25 -8 13 19 14 19 20 -1 13 -42 31 -70 45 -70 22 0 13 66 -11 83 -11 7
-25 28 -32 45 -11 25 -14 28 -20 14z"/>
<path d="M20972 8713 c2 -10 13 -19 26 -21 25 -4 28 3 8 24 -20 19 -38 18 -34
-3z"/>
<path d="M21050 8680 c0 -5 7 -10 16 -10 8 0 12 5 9 10 -3 6 -10 10 -16 10 -5
0 -9 -4 -9 -10z"/>
<path d="M17548 8623 c-6 -16 -13 -64 -15 -108 -2 -44 -9 -114 -17 -155 -8
-41 -16 -114 -19 -162 -3 -60 -12 -101 -26 -131 -38 -79 -21 -137 25 -86 10
12 38 30 62 40 26 11 41 23 36 30 -3 6 12 30 34 52 29 30 42 53 46 82 3 22 10
74 17 115 14 95 14 110 -5 190 -12 50 -22 71 -49 95 -19 16 -37 38 -41 48 -8
26 -35 20 -48 -10z"/>
<path d="M20148 7958 c-19 -30 -12 -91 13 -114 10 -9 19 -23 19 -31 0 -7 4
-13 8 -13 5 0 16 -17 26 -37 27 -61 46 -93 57 -93 5 0 9 -7 9 -16 0 -8 7 -22
15 -30 8 -9 15 -24 15 -34 0 -11 8 -24 19 -29 10 -6 24 -24 31 -41 15 -37 27
-38 40 -4 12 32 12 34 -1 34 -6 0 -18 7 -26 16 -14 13 -14 21 -5 48 21 56 15
85 -18 104 -18 10 -28 23 -25 31 3 7 0 20 -7 28 -7 8 -13 32 -14 53 -2 41 -30
89 -52 90 -9 0 -11 7 -7 20 5 15 2 20 -14 20 -11 0 -23 5 -26 10 -11 18 -42
11 -57 -12z"/>
<path d="M21893 7029 c-6 -6 -23 -11 -37 -11 -15 0 -29 -4 -32 -9 -3 -5 2 -9
10 -9 9 0 16 -4 16 -10 0 -13 -32 -45 -53 -53 -9 -3 -17 -16 -17 -27 0 -15 7
-20 25 -20 22 0 25 -4 25 -35 0 -34 -1 -35 -40 -35 -28 0 -40 -4 -40 -14 0
-10 -10 -14 -35 -13 -30 2 -33 5 -28 25 3 13 1 22 -6 22 -7 0 -11 20 -11 50
l0 51 -77 -3 -78 -3 -3 -42 -3 -43 -59 0 c-38 0 -60 4 -63 13 -8 22 -20 -2
-13 -28 6 -24 9 -25 89 -26 45 -1 105 -1 132 0 63 2 85 -10 62 -34 -10 -9 -17
-21 -17 -26 0 -5 -9 -9 -20 -9 -11 0 -20 -4 -20 -10 0 -5 -9 -10 -20 -10 -11
0 -20 -4 -20 -10 0 -6 -37 -10 -90 -10 l-90 0 1 -62 c2 -100 9 -121 47 -134
18 -5 39 -20 48 -32 22 -32 34 -27 30 13 -2 28 1 35 16 35 11 0 18 7 18 20 0
11 -4 20 -10 20 -5 0 -10 5 -10 10 0 6 25 10 55 10 49 0 55 -2 55 -21 0 -11 4
-17 10 -14 5 3 7 25 4 48 -7 48 9 119 31 141 8 8 15 20 15 26 0 8 19 10 65 5
l65 -7 0 26 c0 26 1 26 74 26 80 0 98 10 71 40 -9 10 -19 38 -22 62 -3 24 -10
48 -15 55 -6 7 -5 19 2 33 18 33 -10 56 -37 29z"/>
<path d="M21390 6960 c0 -6 28 -10 65 -10 37 0 65 4 65 10 0 6 -28 10 -65 10
-37 0 -65 -4 -65 -10z"/>
<path d="M21407 6934 c-4 -4 -7 -16 -7 -26 0 -15 8 -18 46 -18 41 0 45 2 42
23 -2 17 -10 23 -38 25 -20 2 -39 0 -43 -4z"/>
<path d="M21736 6874 c-9 -23 -8 -24 14 -24 13 0 20 7 20 20 0 24 -25 27 -34
4z"/>
<path d="M21227 6773 c-12 -11 -8 -23 8 -23 8 0 15 7 15 15 0 16 -12 20 -23 8z"/>
<path d="M21330 6690 c0 -20 5 -30 15 -30 10 0 15 10 15 30 0 20 -5 30 -15 30
-10 0 -15 -10 -15 -30z"/>
<path d="M21700 6710 c0 -5 7 -10 15 -10 8 0 15 5 15 10 0 6 -7 10 -15 10 -8
0 -15 -4 -15 -10z"/>
<path d="M21695 6630 c-3 -5 1 -10 9 -10 9 0 16 5 16 10 0 6 -4 10 -9 10 -6 0
-13 -4 -16 -10z"/>
<path d="M21580 6545 c0 -8 5 -15 10 -15 6 0 10 7 10 15 0 8 -4 15 -10 15 -5
0 -10 -7 -10 -15z"/>
<path d="M23110 6485 c0 -8 2 -15 4 -15 2 0 12 -3 21 -6 15 -6 15 -4 4 15 -16
25 -29 27 -29 6z"/>
<path d="M20976 6355 c-9 -24 21 -85 39 -79 8 4 15 12 15 19 0 7 3 27 6 44 6
29 5 31 -24 31 -17 0 -32 -6 -36 -15z"/>
<path d="M21541 6313 c-1 -17 4 -35 9 -38 12 -7 12 22 0 50 -7 17 -9 15 -9
-12z"/>
<path d="M21890 6165 c0 -9 9 -15 25 -15 16 0 25 6 25 15 0 9 -9 15 -25 15
-16 0 -25 -6 -25 -15z"/>
<path d="M21723 6125 c-18 -20 -16 -25 7 -25 13 0 20 7 20 20 0 23 -10 25 -27
5z"/>
<path d="M21900 6130 c0 -5 7 -10 15 -10 8 0 15 5 15 10 0 6 -7 10 -15 10 -8
0 -15 -4 -15 -10z"/>
<path d="M21620 6015 c0 -8 5 -15 10 -15 6 0 10 7 10 15 0 8 -4 15 -10 15 -5
0 -10 -7 -10 -15z"/>
<path d="M20480 5560 c0 -5 7 -10 15 -10 8 0 15 5 15 10 0 6 -7 10 -15 10 -8
0 -15 -4 -15 -10z"/>
<path d="M21300 2091 c0 -12 6 -21 16 -21 9 0 14 7 12 17 -5 25 -28 28 -28 4z"/>
</g>
</svg>
