<?xml version="1.0" standalone="no"?>
<!DOCTYPE svg PUBLIC "-//W3C//DTD SVG 20010904//EN"
 "http://www.w3.org/TR/2001/REC-SVG-20010904/DTD/svg10.dtd">
<svg version="1.0" xmlns="http://www.w3.org/2000/svg"
 width="2194.000000pt" height="1234.000000pt" viewBox="0 0 2194.000000 1234.000000"
 preserveAspectRatio="xMidYMid meet">
<metadata>
Created by potrace 1.16, written by Peter Selinger 2001-2019
</metadata>
<g transform="translate(0.000000,1234.000000) scale(0.100000,-0.100000)"
fill="#000000" stroke="none">
<path d="M0 6170 l0 -6170 10970 0 10970 0 0 2392 c0 1315 -3 2389 -6 2386 -3
-3 -7 -466 -10 -1029 -3 -562 -8 -1027 -11 -1032 -3 -5 -10 -2 -15 7 -5 10
-21 21 -34 26 -16 7 -24 17 -24 34 0 24 -25 54 -37 43 -11 -11 -33 14 -33 38
0 23 -17 35 -50 35 -10 0 -20 9 -23 21 -3 11 -15 23 -26 26 -21 5 -33 31 -61
133 -9 36 -27 99 -39 140 -13 41 -34 116 -48 165 -14 50 -32 99 -40 110 -7 11
-13 39 -13 63 0 29 -5 44 -15 48 -9 4 -15 19 -15 40 0 19 -4 42 -9 52 -6 9
-12 29 -15 44 -4 15 -13 34 -22 43 -13 12 -14 19 -5 28 14 14 15 94 1 102 -5
3 -10 17 -10 30 0 13 -11 36 -25 51 -17 18 -25 39 -25 63 -1 20 -5 56 -11 81
-6 25 -13 58 -16 75 -3 16 -23 46 -44 66 -22 21 -39 43 -39 49 0 7 -8 25 -17
41 -15 26 -16 31 -3 39 8 5 17 7 21 4 20 -12 18 22 -5 72 -14 31 -26 67 -26
80 0 13 -9 28 -20 34 -11 6 -20 20 -20 30 0 11 -7 20 -15 20 -19 0 -35 32 -41
83 -3 23 -9 46 -15 51 -5 6 -9 18 -9 28 0 10 -4 18 -10 18 -5 0 -10 9 -10 20
0 11 5 20 10 20 6 0 10 7 10 15 0 8 -4 15 -9 15 -5 0 -12 11 -15 25 -5 19 -13
25 -32 25 -17 0 -28 7 -31 20 -3 11 -9 20 -14 20 -4 0 -9 24 -11 53 -3 47 -6
53 -33 65 -27 12 -30 19 -30 55 0 23 -6 42 -13 45 -6 2 -12 10 -12 18 0 8 -4
14 -10 14 -5 0 -10 -18 -10 -39 0 -24 -7 -46 -17 -56 -13 -13 -14 -18 -3 -25
12 -8 10 -93 -3 -106 -3 -3 -17 2 -31 13 -18 13 -23 24 -19 41 4 17 1 22 -16
22 -12 0 -21 6 -21 15 0 8 4 15 10 15 5 0 7 13 4 30 -5 23 -2 31 12 37 41 15
57 49 29 59 -21 8 -19 31 5 51 24 21 25 25 3 49 -14 15 -27 18 -58 14 -35 -4
-41 -9 -45 -34 -5 -28 -30 -50 -30 -27 0 6 -5 11 -11 11 -18 0 -46 33 -31 38
14 4 16 32 2 32 -5 0 -10 9 -10 19 0 11 -5 21 -11 23 -5 2 -14 28 -18 58 -4
30 -12 64 -19 75 -16 28 -42 112 -42 135 0 11 -5 20 -11 20 -20 0 -86 74 -93
104 -7 28 -33 59 -59 70 -12 4 4 21 28 29 6 2 5 9 -2 19 -10 11 -9 19 2 35 17
24 11 33 -21 33 -15 0 -27 9 -36 30 -7 17 -19 30 -27 30 -17 0 -10 -63 16
-157 14 -50 23 -65 44 -73 24 -10 26 -17 27 -64 0 -50 17 -129 32 -151 4 -5
10 -22 13 -36 4 -14 18 -38 32 -53 19 -21 25 -38 25 -74 0 -67 17 -165 35
-198 8 -16 15 -37 15 -47 0 -10 6 -20 14 -23 8 -3 17 -24 20 -47 4 -23 18 -69
31 -102 14 -33 25 -80 25 -105 0 -25 6 -54 14 -65 7 -11 16 -40 20 -65 4 -24
12 -48 19 -52 9 -6 9 -10 -2 -17 -12 -8 -12 -14 2 -43 42 -90 57 -133 57 -171
0 -22 7 -48 15 -57 9 -10 20 -44 25 -77 6 -34 17 -80 25 -104 9 -24 19 -71 22
-104 3 -33 9 -62 14 -65 4 -3 9 -68 11 -146 l3 -141 -35 -34 c-19 -19 -49 -39
-67 -45 -32 -12 -32 -12 -38 27 -5 27 -11 36 -21 32 -8 -3 -14 -1 -14 5 0 6 4
12 9 14 5 2 13 15 16 31 6 23 4 26 -9 21 -17 -7 -17 3 1 68 3 13 -1 18 -15 18
-12 0 -22 9 -25 21 -4 13 -10 18 -17 14 -20 -12 -30 16 -30 82 0 61 -5 74 -47
118 -17 18 -16 72 1 78 8 3 12 19 11 44 -3 49 -5 54 -14 23 -5 -18 -13 -24
-27 -22 -10 2 -20 7 -22 12 -2 4 -19 25 -40 46 -22 23 -32 39 -24 42 15 5 16
22 1 22 -16 0 -38 31 -39 53 0 9 -4 17 -10 17 -5 0 -10 11 -10 24 0 16 -7 27
-20 31 -15 5 -19 12 -15 26 4 11 2 19 -4 19 -6 0 -11 6 -11 13 0 26 -40 57
-73 57 -26 0 -37 6 -50 29 -25 43 -100 121 -116 121 -11 0 -11 3 0 16 11 13 8
19 -14 38 -15 13 -27 30 -27 39 0 9 -11 24 -25 35 -14 11 -25 27 -25 35 0 9
-4 18 -9 21 -5 3 -21 36 -36 73 -15 38 -33 82 -40 98 -7 17 -19 59 -27 95 -8
41 -28 89 -55 133 -24 38 -43 75 -43 82 0 8 -4 16 -9 19 -4 3 -11 -16 -15 -42
-6 -49 -35 -122 -49 -122 -4 0 -10 8 -13 18 -15 45 -58 122 -69 122 -13 0 -35
106 -39 188 -3 54 -30 101 -58 102 -12 0 -18 8 -18 25 0 22 -4 25 -35 25 -24
0 -35 5 -35 15 0 9 9 15 25 15 14 0 25 5 25 10 0 6 -7 10 -15 10 -8 0 -15 4
-15 9 0 5 -9 13 -21 16 -14 5 -19 14 -18 33 4 59 -1 82 -18 83 -11 0 -13 3 -5
6 36 14 0 23 -97 23 l-109 0 -11 -31 c-6 -18 -11 -40 -11 -50 0 -11 -4 -19
-10 -19 -5 0 -10 -9 -10 -20 0 -11 5 -20 10 -20 14 0 12 -27 -2 -34 -10 -5
-10 -7 0 -12 6 -3 12 -20 12 -38 0 -18 6 -38 13 -45 10 -11 10 -14 0 -18 -8
-3 -13 -23 -13 -53 0 -27 -5 -61 -10 -76 -7 -17 -7 -30 -1 -33 5 -3 3 -12 -5
-19 -12 -11 -14 -9 -14 13 0 20 -5 25 -24 25 -37 0 -52 -25 -38 -64 7 -18 12
-40 12 -49 0 -10 5 -26 10 -37 6 -11 15 -29 20 -40 6 -11 10 -46 10 -78 0 -46
4 -63 20 -77 11 -10 20 -27 20 -37 0 -12 5 -18 13 -15 6 2 11 15 9 27 -1 13 3
28 10 33 10 7 10 10 1 14 -15 6 -17 33 -3 33 6 0 10 10 10 23 0 15 3 18 8 9 7
-10 15 -10 36 -2 32 12 46 6 46 -18 0 -12 3 -13 12 -4 15 15 55 15 96 1 32
-11 48 -34 32 -44 -16 -10 -12 -82 5 -89 8 -3 15 -15 15 -26 0 -11 5 -20 10
-20 6 0 10 -7 10 -15 0 -8 -9 -15 -20 -15 -11 0 -20 -4 -20 -10 0 -5 9 -10 20
-10 11 0 20 -4 20 -10 0 -5 -9 -10 -20 -10 -11 0 -20 -4 -20 -10 0 -5 -18 -10
-40 -10 -25 0 -40 5 -40 13 0 9 -2 9 -8 0 -4 -6 -20 -15 -35 -18 -26 -7 -38
-25 -17 -25 6 0 10 -9 10 -20 0 -11 -4 -20 -10 -20 -5 0 -10 8 -10 18 0 9 -4
24 -10 32 -8 12 -11 12 -28 -3 -14 -13 -21 -14 -30 -5 -9 9 -12 5 -12 -19 0
-17 7 -38 15 -47 8 -8 15 -20 15 -26 0 -7 7 -9 16 -6 9 3 18 6 20 6 2 0 5 10
5 23 1 16 2 18 6 5 2 -10 9 -18 14 -18 5 0 9 -7 9 -15 0 -8 -5 -15 -11 -15 -8
0 -10 -17 -6 -52 3 -29 3 -43 -1 -31 -10 33 -28 15 -37 -34 -5 -32 -3 -44 7
-48 9 -4 14 -27 15 -73 1 -37 9 -89 18 -117 8 -27 15 -67 15 -87 0 -46 18
-171 32 -219 6 -20 12 -60 14 -90 11 -199 34 -351 57 -394 6 -11 14 -44 18
-74 4 -30 12 -57 17 -60 5 -3 7 -33 5 -66 -6 -85 -5 -84 -3 -145 1 -30 7 -71
13 -90 6 -19 11 -64 13 -100 1 -36 6 -121 11 -189 12 -156 8 -181 -22 -181
-15 0 -26 8 -30 20 -3 11 -11 20 -16 20 -14 0 -11 46 5 59 11 9 12 20 5 44 -5
18 -9 59 -9 92 0 33 -9 92 -19 130 -11 39 -23 113 -26 165 -4 52 -13 104 -19
115 -11 20 -21 88 -51 354 -9 80 -21 154 -27 164 -5 10 -11 55 -13 99 -3 50
-10 89 -20 104 -8 13 -15 30 -15 38 0 7 -7 27 -15 42 -8 16 -15 45 -15 64 0
19 -9 52 -20 73 -11 20 -20 45 -20 56 0 10 -7 24 -15 31 -10 9 -15 9 -15 1 0
-19 -18 -12 -25 9 -4 14 -12 19 -24 15 -12 -4 -22 4 -34 30 -9 19 -21 35 -27
35 -5 0 -10 6 -10 14 0 8 -6 16 -14 19 -8 3 -13 21 -13 45 0 47 -23 104 -39
98 -14 -6 -26 47 -13 55 6 3 3 18 -7 35 -17 29 -18 30 -66 20 -40 -8 -48 -14
-48 -32 0 -12 7 -24 15 -28 10 -3 15 -19 15 -46 0 -22 5 -40 10 -40 6 0 10
-16 10 -35 0 -19 -4 -35 -10 -35 -16 0 -12 -40 5 -46 8 -3 17 -14 20 -25 7
-22 50 -26 58 -6 3 6 6 -5 6 -25 1 -20 -4 -48 -10 -62 -9 -20 -9 -29 1 -42 11
-12 13 -51 11 -162 -3 -191 -4 -195 -47 -188 -25 5 -33 3 -36 -10 -2 -12 -12
-7 -42 22 -48 46 -110 57 -172 28 -81 -37 -144 -79 -144 -96 0 -10 5 -18 10
-18 6 0 10 -9 10 -21 0 -18 4 -20 29 -14 17 4 32 2 36 -5 4 -6 15 -8 24 -5 12
3 28 -5 47 -24 20 -20 43 -31 77 -35 27 -4 51 -14 54 -22 3 -8 16 -14 29 -14
21 0 24 -5 26 -37 0 -21 0 -49 -1 -62 -1 -13 5 -32 15 -42 21 -23 28 -80 12
-91 -10 -6 -10 -8 0 -8 6 0 12 -7 12 -15 0 -8 -9 -15 -20 -15 -11 0 -20 -4
-20 -10 0 -5 -6 -10 -14 -10 -8 0 -16 -4 -18 -10 -1 -5 -22 -12 -45 -16 -36
-5 -43 -4 -43 10 0 19 -26 22 -34 4 -5 -10 -7 -10 -12 0 -3 6 -12 12 -19 12
-7 0 -15 6 -18 13 -6 18 -18 3 -27 -35 -3 -18 -12 -32 -17 -31 -6 1 -17 -4
-23 -12 -14 -17 -50 -20 -50 -5 0 6 -26 8 -70 4 -47 -4 -70 -2 -70 5 0 6 -9
11 -20 11 -12 0 -20 7 -20 16 0 12 -6 15 -26 10 -29 -8 -54 -29 -54 -45 0 -6
5 -11 10 -11 6 0 10 -7 10 -15 0 -8 -8 -15 -19 -15 -15 0 -19 -10 -24 -66 -5
-67 -13 -87 -25 -67 -6 9 -28 2 -80 -23 -51 -25 -76 -33 -85 -26 -16 14 -67 3
-67 -14 0 -8 4 -22 9 -32 5 -9 15 -30 22 -47 8 -16 24 -40 36 -52 13 -12 23
-33 23 -47 0 -14 4 -35 9 -48 11 -29 65 -88 80 -88 6 0 37 -13 68 -30 31 -16
63 -30 71 -30 17 0 122 -106 122 -124 0 -17 34 -56 49 -56 6 0 11 11 11 24 0
21 6 24 53 30 82 9 89 8 83 -12 -4 -13 0 -18 14 -19 17 -2 20 2 14 19 -5 17
-3 20 10 15 30 -12 42 2 40 43 -2 43 9 50 35 23 19 -21 49 -41 74 -49 21 -8
22 -24 1 -24 -9 0 -14 -3 -12 -7 3 -5 11 -23 18 -40 8 -18 18 -33 22 -33 4 0
12 -9 18 -21 9 -16 8 -26 -4 -44 -18 -27 -21 -90 -6 -100 6 -4 8 -10 5 -15 -3
-5 1 -20 10 -34 9 -13 18 -41 19 -63 2 -21 4 -42 5 -47 1 -4 8 -6 16 -2 11 4
15 -2 15 -24 0 -17 -4 -30 -10 -30 -5 0 -10 -9 -10 -20 0 -14 -9 -21 -35 -26
-26 -5 -35 -12 -37 -28 -3 -53 5 -80 35 -107 26 -24 32 -38 38 -93 6 -48 14
-71 31 -88 13 -13 26 -22 30 -21 4 2 10 -9 13 -25 3 -15 12 -48 20 -73 8 -26
15 -54 15 -63 0 -9 5 -16 10 -16 6 0 10 -8 10 -19 0 -10 9 -21 20 -24 14 -4
19 -13 18 -30 -1 -13 6 -43 16 -66 21 -46 22 -46 -17 -55 -24 -6 -30 -3 -34
14 -3 11 -8 20 -12 20 -4 0 -23 14 -41 30 -18 17 -39 30 -47 30 -7 0 -20 12
-30 28 -10 15 -23 33 -30 40 -7 7 -13 17 -13 22 0 13 -53 90 -62 90 -4 0 -8 6
-8 13 0 7 -13 28 -30 47 -16 19 -29 41 -30 47 0 23 -86 104 -102 98 -10 -4
-23 4 -37 24 -12 16 -46 55 -76 86 -30 30 -64 77 -75 103 -33 75 -47 96 -69
107 -12 5 -21 15 -21 22 0 7 -13 27 -30 45 -16 17 -30 35 -30 39 0 5 -17 13
-37 19 -30 8 -45 22 -73 67 -19 31 -47 70 -61 87 -14 17 -26 41 -26 52 -1 12
-19 50 -40 84 -37 61 -42 65 -104 85 -35 11 -75 28 -89 38 -13 9 -35 17 -48
17 -32 0 -62 17 -62 36 0 8 -5 12 -10 9 -6 -4 -23 6 -38 22 -15 15 -58 56 -95
91 -37 35 -67 67 -67 72 0 4 -17 30 -38 57 -51 64 -102 142 -102 154 0 5 -3 9
-8 9 -4 0 -25 16 -47 35 -22 19 -44 35 -48 35 -5 0 -39 18 -75 39 -37 22 -80
43 -95 47 -16 3 -59 36 -95 71 -37 36 -83 76 -102 88 -19 12 -46 35 -60 49
-14 15 -47 33 -80 43 -64 18 -80 29 -80 54 0 26 -20 35 -27 11 -5 -20 -5 -20
-24 -1 -10 10 -19 25 -19 33 0 25 -24 33 -89 30 -56 -2 -68 -6 -91 -31 -15
-16 -30 -42 -34 -58 -4 -16 -11 -32 -14 -35 -19 -14 -52 -72 -63 -111 -7 -24
-19 -53 -26 -64 -7 -11 -13 -37 -13 -59 0 -54 -32 -151 -55 -168 -5 -4 -27 -8
-47 -8 -31 0 -38 4 -38 19 0 38 -77 62 -205 65 -55 2 -75 10 -75 31 0 7 -10
22 -22 32 -46 37 -88 166 -67 205 6 11 9 40 6 64 -3 30 0 47 9 55 8 6 14 23
14 37 0 39 39 152 52 152 5 0 8 14 8 30 0 17 -4 30 -10 30 -5 0 -10 7 -10 15
0 8 -4 15 -10 15 -5 0 -10 6 -10 14 0 17 -51 56 -74 56 -25 0 -95 53 -96 72 0
22 -37 33 -57 17 -10 -9 -37 -12 -78 -11 -49 3 -64 0 -68 -12 -7 -17 -37 -22
-37 -6 0 6 -7 10 -15 10 -8 0 -15 -4 -15 -9 0 -5 -15 -14 -32 -22 -18 -7 -35
-16 -38 -19 -3 -4 -21 -1 -40 6 l-35 12 31 1 c31 1 44 15 44 47 0 8 -6 14 -14
14 -8 0 -16 6 -19 13 -3 9 -11 9 -37 0 -30 -11 -36 -11 -53 8 -25 27 -53 20
-104 -28 -37 -35 -82 -124 -75 -147 2 -6 -2 -20 -9 -33 -9 -16 -18 -21 -34
-17 -15 4 -24 0 -28 -10 -5 -13 -26 -16 -125 -15 -70 1 -134 -3 -156 -11 -20
-6 -48 -9 -61 -6 -24 6 -52 -4 -87 -33 -12 -9 -15 -22 -12 -41 5 -21 1 -31
-16 -43 -12 -8 -19 -20 -15 -26 10 -17 -14 -121 -28 -121 -23 0 -38 17 -31 33
5 13 1 17 -16 17 -16 0 -20 4 -16 16 3 9 -1 25 -9 37 -15 21 -15 21 -16 -8 -2
-44 -17 47 -18 107 -1 26 -5 50 -11 53 -5 3 -10 15 -10 26 0 11 -6 30 -14 42
-8 12 -17 62 -21 110 -7 80 -10 90 -31 99 -13 6 -24 17 -24 24 0 21 -52 13
-58 -8 -2 -10 -7 -18 -11 -19 -14 -2 -183 -18 -295 -29 -89 -8 -126 -16 -147
-31 -15 -10 -37 -19 -49 -19 -12 0 -30 -4 -40 -10 -10 -5 -43 -12 -73 -16
l-54 -6 -32 45 c-17 25 -31 53 -31 61 0 8 -13 25 -29 37 -22 16 -33 35 -40 70
-6 26 -19 63 -30 83 -11 19 -22 59 -25 89 -2 31 -9 63 -14 74 -5 10 -12 59
-16 108 -4 50 -13 99 -20 110 -20 30 -36 118 -36 193 0 55 4 74 25 104 14 20
25 46 25 57 0 11 10 26 22 32 l22 12 -22 8 c-29 11 -28 27 3 41 14 6 25 19 25
28 0 53 124 192 187 210 21 6 47 17 57 25 11 8 26 15 35 15 8 0 22 6 30 13 9
7 45 19 81 26 81 16 112 32 141 73 29 40 79 88 92 88 6 0 24 11 41 23 31 23
73 39 110 41 23 1 35 26 12 26 -8 0 -19 6 -23 13 -13 22 -79 57 -106 57 -13 0
-49 16 -78 36 -65 42 -217 200 -226 232 -3 14 -11 21 -19 18 -7 -3 -18 2 -24
10 -7 8 -19 14 -27 14 -8 0 -29 16 -47 36 -37 40 -60 115 -54 174 l3 35 146 0
c158 0 146 -4 219 62 25 22 25 25 19 110 -6 72 -11 90 -28 104 -12 10 -21 21
-21 26 -1 18 -67 81 -113 108 -64 37 -60 57 13 69 54 8 76 5 220 -30 30 -8 73
-14 95 -14 27 0 61 -10 96 -29 152 -83 155 -83 166 -18 4 26 -1 49 -17 81 -23
49 -21 90 6 133 23 36 17 69 -17 97 -17 14 -34 26 -39 26 -4 0 -31 23 -58 51
-51 52 -51 52 -104 46 -52 -5 -116 16 -133 43 -3 5 -15 10 -26 10 -10 0 -19 5
-19 11 0 6 -7 8 -16 5 -9 -3 -29 3 -46 15 -23 17 -28 26 -23 46 4 17 -1 33
-20 54 -40 49 -31 64 44 71 47 5 57 2 71 -15 14 -17 19 -18 38 -6 18 11 26 11
42 1 12 -7 20 -8 20 -2 0 6 10 8 22 5 13 -3 35 -7 50 -8 20 -1 48 -24 103 -82
41 -44 75 -85 75 -91 0 -5 11 -25 25 -44 14 -19 43 -73 65 -120 91 -191 82
-178 116 -176 70 4 82 60 31 147 -15 25 -27 57 -27 72 0 14 -5 29 -11 33 -6 4
-8 20 -5 40 5 26 2 38 -14 54 -21 21 -110 212 -110 236 0 8 -4 14 -10 14 -5 0
-10 6 -10 14 0 8 -11 27 -24 43 -13 15 -27 47 -31 71 -4 23 -10 42 -15 42 -4
0 -10 13 -13 29 -4 17 -14 30 -26 34 -12 3 -21 13 -21 23 0 9 -7 26 -17 36
-15 17 -15 18 0 18 21 0 22 15 2 32 -9 7 -24 21 -35 32 -13 13 -27 17 -43 12
-19 -4 -33 1 -57 24 -18 17 -43 30 -55 30 -13 0 -27 5 -30 10 -9 14 -35 12
-35 -2 1 -7 10 -29 20 -48 55 -100 61 -119 54 -168 -10 -74 -19 -77 -70 -22
-46 49 -53 52 -159 62 -11 1 -23 6 -27 12 -4 6 -12 5 -23 -4 -14 -11 -18 -10
-31 9 -9 12 -19 19 -24 16 -4 -2 -19 4 -33 15 -14 11 -28 20 -31 20 -3 0 -30
12 -59 26 -59 30 -152 55 -173 47 -8 -3 -14 0 -14 6 0 6 -7 11 -15 11 -9 0
-15 9 -15 24 0 13 -5 26 -12 28 -9 3 -10 16 -1 54 7 30 8 53 2 58 -12 13 -12
176 1 176 6 0 10 -4 10 -10 0 -5 5 -10 10 -10 6 0 10 7 10 15 0 8 5 24 12 35
18 28 1 37 -21 12 -21 -25 -41 -29 -41 -7 0 8 5 15 10 15 6 0 10 15 10 34 0
19 7 41 15 50 8 8 15 30 15 48 0 66 22 94 68 89 6 -1 12 7 12 19 0 13 7 20 20
20 19 0 20 7 20 89 l0 89 -34 -10 c-48 -15 -106 -3 -106 22 0 11 5 20 10 20
16 0 11 17 -7 24 -11 4 -22 1 -29 -8 -12 -17 -74 -22 -74 -6 0 6 -4 10 -10 10
-5 0 -10 -11 -10 -24 0 -13 -7 -26 -15 -30 -10 -4 -15 1 -15 14 0 11 -4 20
-10 20 -5 0 -10 7 -10 15 0 9 -10 15 -26 15 -14 0 -32 7 -40 15 -9 8 -29 15
-45 15 -16 0 -29 5 -29 10 0 6 11 10 25 10 14 0 25 5 25 10 0 6 -5 10 -11 10
-7 0 -19 9 -29 20 -9 11 -34 23 -55 28 -36 7 -40 11 -51 56 -7 27 -17 52 -22
55 -4 3 -11 14 -15 24 -3 9 -11 17 -16 17 -6 0 -8 -6 -5 -13 4 -11 -35 -14
-207 -13 -188 0 -212 -2 -221 -17 -13 -24 -126 -25 -135 -1 -5 12 -15 15 -48
10 -43 -7 -75 0 -75 15 0 5 7 9 15 9 8 0 16 6 17 13 2 13 4 40 7 70 0 9 8 17
17 17 10 0 14 6 10 15 -3 8 -1 15 4 15 5 0 12 9 15 20 3 11 11 20 16 20 16 0
58 53 59 73 0 24 36 57 70 64 17 3 30 10 30 15 0 6 14 8 35 4 22 -4 35 -3 35
4 0 5 7 10 15 10 8 0 15 4 15 9 0 5 45 12 100 16 55 3 100 10 100 15 0 5 16
25 35 46 38 40 43 54 20 54 -8 0 -15 5 -15 10 0 6 -6 10 -14 10 -7 0 -25 11
-40 25 -23 21 -37 25 -87 25 -46 0 -59 3 -59 15 0 12 -13 15 -55 15 -42 0 -55
-3 -55 -15 0 -8 -7 -15 -15 -15 -11 0 -15 -12 -15 -49 0 -41 -4 -51 -20 -56
-11 -3 -24 -4 -29 -1 -5 4 -11 0 -13 -6 -3 -9 -34 -13 -109 -13 -98 0 -169
-16 -169 -37 0 -5 -9 -8 -19 -8 -11 0 -22 -6 -25 -12 -5 -10 -7 -10 -12 0 -4
8 -30 12 -79 12 -61 0 -76 -3 -84 -18 -7 -12 -24 -18 -68 -20 -32 -2 -59 -8
-61 -13 -7 -19 -23 -8 -17 11 4 14 2 20 -8 20 -8 0 -17 9 -20 21 -4 14 -10 18
-19 13 -15 -9 -26 -11 -128 -15 -41 -2 -81 -9 -87 -15 -17 -16 -17 -49 0 -66
8 -9 11 -39 9 -96 l-4 -84 -43 -26 c-48 -29 -54 -45 -28 -81 15 -22 15 -35 4
-125 -22 -190 -11 -287 38 -327 21 -17 30 -69 11 -69 -5 0 -10 -11 -10 -24 0
-14 -5 -28 -10 -31 -16 -10 -25 25 -12 46 9 15 7 27 -12 61 -50 89 -63 125
-69 197 -4 40 -14 83 -22 94 -8 12 -15 31 -15 43 0 20 -7 23 -76 29 -41 4
-111 4 -155 1 -48 -5 -79 -4 -79 2 0 5 -15 13 -33 16 -25 5 -37 15 -50 41 -16
34 -19 35 -73 35 -46 0 -55 3 -52 17 2 11 16 17 48 20 25 3 46 6 48 8 2 2 6
53 8 114 4 107 4 111 -19 126 -15 10 -60 18 -121 22 -66 4 -96 10 -96 18 0 7
-17 20 -37 28 -46 18 -207 17 -240 -1 -12 -7 -43 -12 -68 -12 -25 0 -54 -4
-64 -10 -10 -5 -38 -11 -62 -13 -41 -4 -107 -17 -272 -53 -45 -10 -73 -12 -80
-5 -14 11 -107 2 -107 -10 0 -5 -16 -9 -35 -9 l-35 0 0 -95 c0 -95 0 -95 -25
-95 -14 0 -25 -5 -25 -11 0 -6 -7 -8 -16 -5 -11 4 -14 1 -10 -12 3 -11 -4 -24
-19 -35 -22 -15 -25 -16 -25 -2 0 9 -9 15 -25 15 -14 0 -25 5 -25 10 0 13
-177 13 -185 0 -3 -5 -12 -7 -19 -4 -22 8 -30 -16 -10 -30 10 -8 42 -21 71
-30 29 -9 55 -21 58 -25 3 -5 -3 -40 -13 -77 -14 -55 -22 -69 -42 -77 -14 -5
-32 -24 -40 -41 -19 -40 -61 -56 -85 -33 -11 12 -33 17 -69 17 -28 0 -57 5
-64 12 -8 8 -15 8 -27 -2 -12 -10 -21 -10 -41 -1 -14 6 -77 11 -149 11 -85 0
-128 4 -137 13 -18 16 -49 36 -68 43 -8 3 -25 11 -37 16 -12 6 -29 8 -38 4
-10 -3 -27 2 -42 14 -14 11 -35 20 -47 20 -31 0 -57 36 -61 82 -1 21 -5 41 -8
44 -12 12 -28 -41 -31 -102 -3 -68 -18 -90 -71 -104 -14 -4 -21 -16 -23 -39
-4 -39 -21 -37 -41 5 -8 16 -19 32 -25 36 -6 4 -7 10 -3 14 3 4 -10 16 -31 27
-20 11 -40 24 -44 30 -4 6 -35 8 -83 4 -61 -4 -82 -10 -101 -28 -14 -13 -31
-20 -44 -16 -11 3 -23 1 -26 -4 -3 -5 -16 -9 -30 -9 -17 0 -24 -6 -24 -19 0
-17 -18 -31 -41 -31 -5 0 -9 7 -9 15 0 8 5 15 10 15 21 0 9 17 -22 32 -22 10
-41 12 -55 7 -19 -7 -23 -5 -23 11 0 10 -7 25 -15 34 -8 8 -15 19 -15 25 0 6
-4 11 -9 11 -5 0 -12 9 -16 19 -3 11 -15 23 -26 26 -10 4 -19 15 -19 25 0 23
16 35 23 18 4 -10 8 -9 16 2 7 10 11 11 11 3 0 -19 18 -15 24 5 9 27 56 50
117 58 29 3 68 12 84 19 45 20 97 35 120 34 52 0 257 37 287 52 10 5 43 9 73
9 30 0 55 5 55 10 0 6 7 10 15 10 8 0 15 -4 15 -10 0 -6 53 -10 140 -10 l140
0 0 45 c0 35 -4 45 -16 45 -9 0 -24 8 -33 18 -23 26 -89 38 -97 17 -5 -11 -21
-15 -64 -15 -58 0 -85 14 -59 31 10 6 8 9 -8 9 -21 0 -23 5 -23 55 0 30 5 55
10 55 6 0 10 19 10 41 0 41 0 41 31 35 26 -5 36 -1 57 21 16 18 27 23 30 15 6
-19 40 -14 47 7 3 11 15 23 26 26 14 5 19 15 19 41 0 24 5 34 15 34 8 0 15 9
15 20 0 30 38 26 46 -5 6 -24 10 -25 75 -25 57 0 69 3 69 16 0 20 28 43 53 44
10 0 17 8 17 20 0 11 5 20 11 20 6 0 9 6 6 14 -7 17 16 28 38 20 10 -4 15 0
15 14 0 10 11 28 25 38 14 10 25 24 25 31 0 27 36 68 60 70 14 1 38 6 54 12
25 10 28 15 22 41 -4 21 -2 30 8 30 8 0 15 18 19 52 4 28 12 55 18 59 19 11
25 110 8 123 -13 9 -69 117 -69 131 0 13 -37 45 -52 45 -10 0 -27 9 -38 20
-11 11 -25 20 -30 20 -6 0 -21 11 -34 25 -13 14 -31 25 -40 25 -9 0 -16 4 -16
8 0 5 -24 34 -53 64 -67 71 -87 106 -67 118 8 6 31 10 50 10 32 1 33 2 11 11
-18 7 -22 14 -17 32 6 26 -17 52 -47 52 -10 0 -26 14 -35 30 -9 17 -18 32 -20
35 -2 2 -7 -2 -12 -10 -7 -11 -10 -8 -10 13 0 15 5 27 11 27 14 0 38 30 39 47
0 6 -16 17 -35 23 -41 14 -42 15 -60 84 -21 79 -68 165 -102 186 -26 16 -87
116 -88 146 0 6 -8 19 -19 29 -16 16 -18 29 -13 83 6 59 4 67 -18 94 -14 16
-25 39 -25 51 0 12 -3 32 -6 44 -5 18 4 28 52 58 l58 37 -23 18 c-22 16 -6 17
380 23 222 4 1746 7 3386 7 l2982 1 11 -21 c6 -11 19 -20 30 -20 10 0 29 -13
42 -28 13 -15 37 -34 53 -41 17 -7 37 -17 45 -22 8 -5 22 -12 30 -15 8 -3 22
-10 30 -15 8 -5 33 -18 55 -29 22 -12 49 -26 60 -33 81 -50 147 -87 155 -87 4
0 31 -16 60 -35 29 -19 58 -35 64 -35 32 0 75 -76 97 -170 14 -59 72 -135 97
-125 7 2 20 1 30 -4 38 -19 69 -31 112 -41 25 -6 64 -18 87 -27 23 -8 47 -12
53 -8 6 4 23 3 38 -3 15 -5 45 -14 67 -20 116 -31 246 -66 290 -79 55 -17 52
-16 145 -33 36 -6 76 -16 90 -22 40 -16 190 -59 255 -73 33 -7 150 -36 260
-65 110 -28 216 -56 235 -60 66 -15 185 -51 245 -74 33 -13 87 -31 120 -41 33
-10 71 -22 85 -26 14 -5 43 -11 64 -15 21 -4 62 -16 90 -26 28 -11 61 -22 74
-25 29 -7 34 -16 37 -70 2 -25 11 -53 20 -63 15 -17 78 -44 133 -57 24 -6 64
22 60 42 -2 6 22 42 52 80 30 39 88 113 129 165 73 93 181 210 195 210 4 0 26
20 49 44 32 34 49 44 69 43 23 -2 28 -7 28 -27 -1 -28 -17 -54 -40 -62 -12 -5
-11 -7 5 -13 65 -23 85 -38 85 -67 0 -13 -8 -18 -25 -18 -14 0 -25 5 -25 11 0
14 -25 39 -39 39 -6 0 -11 -5 -11 -11 0 -5 -5 -7 -11 -4 -6 4 -13 -2 -16 -14
-3 -12 -12 -21 -20 -21 -10 0 -12 -6 -8 -19 5 -16 0 -20 -27 -23 -21 -2 -34
-9 -36 -20 -4 -21 65 -98 88 -98 23 0 33 -26 16 -43 -10 -10 -12 -26 -5 -68 5
-29 13 -55 19 -57 5 -2 10 -10 10 -18 0 -8 5 -14 10 -14 6 0 10 7 10 15 0 9 9
15 25 15 30 0 31 7 7 29 -12 10 -21 37 -25 73 l-7 57 63 31 c35 17 68 30 73
29 5 -1 21 -1 37 0 22 1 29 7 33 31 4 17 13 30 21 30 7 0 16 7 19 15 8 19 24
19 24 0 0 -8 -4 -15 -10 -15 -5 0 -10 -4 -10 -8 0 -4 20 -9 44 -10 37 -1 45 2
50 20 6 25 -5 36 -46 44 -22 5 -27 13 -33 51 -5 32 -3 48 6 53 8 6 5 11 -10
19 -12 7 -26 9 -31 6 -6 -3 -10 6 -10 20 0 15 -7 33 -15 41 -8 9 -15 30 -15
47 0 24 3 28 12 19 17 -17 48 -15 48 2 0 22 19 29 36 15 12 -10 19 -9 35 7 12
13 17 27 13 37 -7 19 -39 23 -49 7 -10 -15 -25 -12 -25 6 0 24 -43 13 -55 -13
-12 -29 -31 -29 -38 -2 -4 16 5 32 39 65 42 42 76 55 89 34 10 -16 26 -11 23
7 -2 11 5 19 17 21 11 2 29 7 40 12 31 15 253 50 317 50 31 0 121 -13 199 -30
136 -28 145 -32 184 -69 47 -47 101 -58 182 -38 53 12 79 32 217 160 35 31 67
57 73 57 6 0 16 7 23 15 17 20 49 19 104 -5 37 -15 48 -26 52 -49 6 -27 11
-30 73 -41 68 -13 163 -17 193 -9 9 3 27 17 38 32 25 31 55 35 69 10 8 -16 11
-15 20 10 10 27 11 27 36 11 23 -15 24 -18 9 -29 -14 -10 -10 -15 32 -40 27
-16 59 -39 71 -52 12 -12 33 -23 47 -23 15 0 30 -8 36 -20 7 -13 21 -20 40
-20 33 0 80 -38 80 -65 0 -10 -7 -23 -16 -30 -15 -10 -13 -14 17 -32 29 -17
104 -48 162 -67 15 -5 17 -22 16 -183 -1 -98 -4 -191 -8 -208 -7 -29 -7 -29
-15 -7 -5 16 -13 21 -26 17 -13 -4 -20 1 -25 17 -12 37 -26 50 -41 37 -14 -12
-58 11 -68 37 -7 20 -55 18 -79 -3 -15 -14 -39 -18 -116 -19 -106 -1 -117 1
-125 22 -4 9 3 18 20 24 22 9 23 13 14 31 -7 12 -10 29 -7 39 3 11 -2 21 -10
24 -26 10 -33 7 -33 -16 0 -20 -1 -20 -18 -5 -10 10 -22 17 -26 17 -13 0 -45
44 -46 61 0 19 -24 42 -46 45 -8 1 -41 -1 -73 -6 -59 -8 -77 -19 -147 -87 -31
-31 -38 -33 -104 -33 -68 0 -70 1 -70 25 0 14 7 37 16 50 14 22 24 25 74 25
68 0 91 15 152 97 22 31 49 58 60 61 11 2 24 15 28 28 5 13 33 37 62 54 90 51
99 61 92 98 -6 29 -10 32 -45 32 -40 0 -89 -17 -89 -32 0 -4 -7 -8 -15 -8 -8
0 -15 -7 -15 -15 0 -9 -12 -20 -26 -25 -14 -6 -33 -19 -43 -29 -15 -18 -241
-81 -290 -81 -11 0 -23 -4 -26 -10 -3 -5 3 -10 15 -10 19 0 21 -5 18 -42 l-3
-43 -60 -3 c-33 -2 -76 1 -95 7 -19 5 -61 17 -93 26 -32 10 -68 15 -80 12 -80
-20 -100 -28 -143 -61 -40 -31 -50 -44 -55 -77 -3 -21 -1 -43 4 -48 11 -11 12
-82 2 -138 -9 -51 -29 -73 -89 -103 -25 -12 -46 -26 -46 -31 0 -5 -6 -9 -14
-9 -8 0 -17 -7 -20 -16 -4 -9 -13 -14 -21 -10 -9 3 -15 0 -15 -9 0 -16 -43
-31 -59 -20 -6 3 -11 13 -11 21 0 17 -16 19 -23 2 -3 -7 -6 -1 -6 13 -1 15 -8
32 -16 39 -8 7 -15 22 -15 34 0 27 -49 86 -56 69 -3 -7 -14 -13 -25 -13 -14 0
-19 7 -19 25 0 16 -6 25 -15 25 -10 0 -15 -10 -15 -30 0 -16 5 -30 10 -30 6 0
10 -4 10 -10 0 -5 -9 -10 -20 -10 -11 0 -20 -7 -20 -15 0 -8 4 -15 9 -15 5 0
8 -18 7 -40 0 -22 -4 -40 -8 -40 -5 0 -8 -7 -8 -15 0 -8 -7 -15 -15 -15 -8 0
-15 -4 -15 -9 0 -5 -9 -12 -19 -16 -10 -3 -21 -16 -23 -29 -7 -33 2 -87 13
-80 5 3 9 -13 9 -36 0 -25 -4 -39 -10 -35 -6 4 -26 1 -46 -5 -29 -10 -39 -9
-61 5 -15 10 -28 13 -32 7 -3 -5 -20 -8 -38 -7 -18 1 -34 -3 -37 -10 -5 -14
31 -38 44 -30 6 4 10 1 10 -4 0 -6 16 -11 35 -11 19 0 35 -4 35 -10 0 -5 -16
-10 -35 -10 -19 0 -35 5 -35 10 0 19 -32 10 -37 -10 -6 -23 -33 -27 -33 -5 0
19 -7 19 -26 1 -18 -19 -18 -30 1 -22 8 3 15 1 15 -4 0 -6 -13 -10 -30 -10
-23 0 -30 -4 -30 -20 0 -11 8 -24 18 -28 9 -4 17 -16 17 -27 0 -13 6 -20 18
-19 10 1 17 -5 17 -17 0 -23 26 -25 34 -2 5 12 9 14 18 5 7 -7 41 -12 79 -12
37 0 71 -4 74 -10 3 -5 22 -10 42 -10 32 0 34 2 22 17 -9 10 -9 14 -2 10 25
-15 118 -16 141 -1 19 13 22 13 22 -1 0 -8 7 -15 16 -15 14 0 14 -2 -1 -16
-16 -16 -13 -46 7 -71 13 -16 58 -17 58 -2 0 5 10 9 22 7 16 -2 23 4 30 27 6
17 16 44 24 62 8 17 14 36 14 42 0 20 70 25 108 7 39 -19 51 -11 52 34 1 22 2
23 11 7 7 -12 17 -15 35 -11 19 5 24 2 24 -12 1 -21 53 -84 70 -84 5 0 10 -5
10 -10 0 -6 13 -24 30 -40 27 -26 28 -30 12 -39 -16 -10 -16 -10 2 -11 14 0
17 -5 12 -23 -6 -27 24 -67 52 -67 9 0 49 -15 87 -34 104 -50 170 -68 243 -66
30 1 42 -3 42 -13 0 -9 22 -19 63 -27 37 -8 67 -21 75 -32 7 -10 22 -18 34
-18 11 0 22 -8 25 -20 3 -12 14 -20 26 -20 11 0 17 3 14 7 -4 3 -2 12 5 20 8
10 8 17 0 25 -18 18 -14 36 8 43 16 5 20 15 20 46 0 22 -4 47 -9 57 -5 9 -12
25 -15 34 -11 36 -144 76 -169 52 -4 -4 -30 -15 -59 -25 -55 -18 -78 -17 -138
6 -19 7 -47 16 -61 19 -17 4 -32 19 -45 43 -10 21 -22 40 -26 41 -5 2 -8 10
-8 17 0 7 -6 15 -12 18 -8 3 -6 8 7 13 11 4 34 18 51 31 46 34 87 30 131 -12
l36 -35 96 0 c120 0 131 3 160 48 19 31 23 49 22 107 0 39 -4 87 -7 108 -5 27
0 52 16 89 19 44 22 65 18 132 -4 72 -7 81 -32 101 -23 18 -29 32 -33 84 -6
65 4 79 27 36 8 -16 19 -24 28 -20 9 3 32 -12 56 -37 49 -50 83 -140 70 -186
-20 -71 3 -165 50 -209 20 -18 26 -37 32 -94 4 -39 12 -72 18 -75 28 -10 482
-31 491 -23 21 20 25 4 25 -93 0 -101 -11 -153 -23 -109 -3 12 -13 21 -22 21
-9 0 -30 9 -45 20 -20 14 -37 18 -59 14 -17 -4 -31 -10 -31 -15 0 -5 -18 -9
-41 -9 -32 0 -42 4 -46 20 -6 24 -11 25 -32 6 -19 -17 -56 -22 -92 -12 -30 8
-129 -28 -130 -48 0 -6 -2 -27 -4 -46 -5 -34 31 -124 63 -158 6 -7 12 -19 12
-25 0 -7 14 -23 30 -37 28 -23 30 -30 30 -90 0 -61 2 -68 33 -97 17 -17 45
-33 62 -35 20 -2 36 -13 52 -37 12 -18 42 -46 67 -61 40 -26 46 -34 57 -87 8
-32 13 -64 12 -72 -1 -7 18 -32 41 -55 64 -63 68 -80 76 -286 4 -102 7 619 8
1603 l2 1787 -10970 0 -10970 0 0 -6170z m19910 5907 c-49 -12 -551 -16 -635
-6 -27 4 -81 2 -120 -2 -38 -5 -82 -10 -97 -11 -16 -1 -28 -6 -28 -10 0 -4
-16 -8 -35 -8 -19 0 -35 5 -35 10 0 6 11 8 25 4 15 -4 25 -2 25 5 0 13 -3 13
-141 11 -67 -1 -109 3 -114 9 -4 8 169 11 597 10 450 -1 592 -4 558 -12z
m1052 -32 c-4 -48 -5 -48 -40 -39 -18 5 -20 9 -11 21 9 11 7 19 -11 38 l-23
25 44 0 44 0 -3 -45z m-14155 -98 c39 -7 83 -35 83 -52 0 -25 -85 -47 -152
-40 -35 4 -85 8 -113 10 -96 6 -126 15 -123 38 6 38 51 52 167 51 58 -1 120
-4 138 -7z m13387 4 c3 -4 33 -14 66 -21 47 -10 60 -17 60 -31 0 -20 -15 -25
-25 -9 -4 6 -12 5 -21 -4 -7 -8 -37 -22 -66 -31 -29 -9 -62 -21 -72 -27 -16
-8 -23 -6 -37 13 -29 38 -24 63 15 77 19 7 40 19 46 27 14 17 26 19 34 6z
m865 -70 c9 -6 10 -10 2 -16 -16 -9 -44 2 -36 15 8 12 16 12 34 1z m-1684
-610 c-3 -6 3 -15 12 -21 15 -9 15 -11 2 -6 -9 2 -26 -4 -37 -15 -21 -18 -42
-25 -42 -13 0 9 53 61 63 63 5 0 6 -3 2 -8z m-11151 -121 c15 -5 26 -17 26
-28 0 -22 21 -39 93 -76 56 -28 79 -59 62 -85 -3 -6 3 -23 14 -38 10 -16 22
-45 26 -65 3 -21 10 -38 15 -38 6 0 10 -13 10 -30 0 -19 -5 -30 -14 -30 -9 0
-12 -7 -9 -20 3 -11 10 -20 16 -20 15 0 36 -32 37 -57 0 -13 5 -23 10 -23 6 0
10 -16 10 -35 0 -29 -4 -36 -25 -41 -16 -4 -25 -13 -25 -25 0 -10 -7 -19 -15
-19 -8 0 -15 5 -15 10 0 6 -13 10 -30 10 -16 0 -30 -4 -30 -8 0 -4 -17 -8 -37
-9 -136 -2 -165 -13 -175 -65 -4 -24 -1 -28 26 -34 l30 -7 -26 -21 c-21 -18
-27 -34 -35 -101 -6 -44 -8 -94 -6 -112 4 -25 1 -32 -15 -37 -11 -4 -23 -18
-26 -32 -7 -26 3 -99 11 -90 8 8 33 -21 33 -38 0 -9 -11 -18 -25 -22 -14 -3
-25 -9 -25 -13 0 -4 -12 -8 -26 -9 -15 -1 -32 -6 -38 -11 -6 -5 -35 -11 -65
-13 -29 -3 -56 -10 -60 -16 -4 -6 -21 -12 -39 -14 -18 -1 -32 -6 -32 -10 0 -4
-11 -8 -24 -8 -14 0 -33 -11 -45 -26 -11 -14 -22 -25 -25 -25 -27 3 -38 -3
-51 -29 -12 -23 -24 -31 -55 -36 -24 -4 -40 -12 -40 -20 0 -19 -16 -18 -24 2
-4 11 -13 14 -29 10 -12 -3 -29 -1 -37 4 -13 8 -12 10 3 10 9 0 17 7 17 15 0
8 -9 15 -20 15 -11 0 -20 -6 -20 -12 0 -9 -2 -10 -8 -2 -4 7 -16 14 -27 17
-19 5 -19 5 3 12 12 4 22 15 22 26 0 11 5 19 10 19 18 0 11 18 -10 25 -18 6
-20 15 -20 78 0 61 3 74 20 85 11 7 20 16 20 21 0 5 -9 13 -20 16 -25 8 -25
16 -1 42 18 19 26 66 30 166 1 10 9 17 21 17 11 0 20 5 20 11 0 5 5 7 10 4 6
-3 10 3 10 13 0 11 7 22 15 26 17 6 36 46 28 59 -3 5 -6 68 -8 140 -3 163 -19
337 -36 397 -17 59 -18 140 -2 140 7 0 10 6 7 14 -4 9 6 20 25 30 40 21 46 20
88 -11 29 -22 49 -28 104 -31 38 -3 69 0 69 5 0 5 23 17 50 27 28 10 50 22 50
27 0 12 222 12 254 -1z m11212 -171 c8 -14 -14 -29 -43 -29 -24 0 -32 25 -10
33 22 9 46 7 53 -4z m-11156 -573 c0 -2 -3 -12 -6 -20 -5 -13 -9 -14 -20 -5
-16 13 -9 29 12 29 8 0 14 -2 14 -4z m260 -596 c0 -5 -9 -10 -20 -10 -11 0
-20 5 -20 10 0 6 9 10 20 10 11 0 20 -4 20 -10z m-8392 -521 l27 -22 -40 6
c-22 3 -53 10 -70 17 -24 9 -26 13 -15 21 21 13 67 3 98 -22z m12062 -10 c0
-5 -7 -9 -15 -9 -15 0 -20 12 -9 23 8 8 24 -1 24 -14z m-11717 -63 c3 -8 0
-22 -7 -31 -16 -23 -79 -17 -84 8 -6 30 80 52 91 23z m12847 -252 c0 -9 -7
-14 -17 -12 -25 5 -28 28 -4 28 12 0 21 -6 21 -16z m-3870 -19 c0 -30 -20 -86
-38 -107 -8 -10 -30 -20 -49 -24 -20 -4 -41 -17 -53 -33 -15 -22 -37 -32 -102
-49 -46 -12 -108 -29 -138 -38 -77 -22 -141 -32 -240 -38 -47 -2 -130 -11
-185 -20 -174 -27 -590 -10 -715 28 -30 9 -66 20 -80 24 -16 5 -24 14 -22 25
2 9 -2 17 -8 17 -5 0 -10 6 -10 13 0 16 98 15 155 -1 55 -16 768 -20 787 -5
16 13 124 31 203 33 33 0 64 5 70 9 5 5 28 14 50 21 22 6 54 18 72 26 17 8 42
14 56 14 13 0 30 6 36 13 6 8 29 19 51 26 27 8 40 18 40 29 0 21 57 56 94 58
21 2 26 -3 26 -21z m-1814 -170 c42 -42 25 -47 -43 -14 -51 25 -54 33 -12 36
21 2 38 -5 55 -22z m3857 -277 c26 -10 57 -52 57 -78 0 -14 -155 -12 -417 3
-166 10 -183 12 -183 29 0 16 10 18 98 18 54 0 128 7 167 16 133 31 217 35
278 12z m-11422 -106 c26 -26 53 -62 62 -79 9 -17 30 -43 48 -57 39 -33 35
-54 -23 -117 -24 -25 -65 -74 -91 -108 -26 -34 -53 -61 -60 -58 -9 3 -13 59
-15 203 -3 210 1 264 21 264 7 0 33 -22 58 -48z m5698 -138 c8 -8 -5 -13 -54
-19 -28 -3 -68 -10 -90 -15 -22 -5 -64 -10 -92 -10 -46 0 -53 3 -53 19 0 16 9
21 48 26 26 3 54 8 62 10 18 4 173 -5 179 -11z m187 -2 c-7 -12 -85 -14 -121
-3 -24 8 -15 9 48 10 43 1 76 -3 73 -7z m5439 -122 c4 -6 -5 -10 -21 -10 -33
0 -94 -21 -94 -32 0 -4 -7 -8 -16 -8 -31 0 6 29 55 44 57 18 68 19 76 6z
m-255 -100 c0 -5 -7 -10 -16 -10 -8 0 -12 5 -9 10 3 6 10 10 16 10 5 0 9 -4 9
-10z m-5822 -195 c46 -28 42 -55 -13 -82 -25 -13 -60 -23 -79 -23 -19 0 -36
-6 -39 -12 -2 -7 -35 -28 -72 -46 -37 -19 -76 -43 -88 -55 -12 -12 -31 -27
-42 -32 -11 -6 -21 -21 -23 -33 -2 -15 -10 -22 -26 -22 -13 0 -30 -9 -37 -19
-8 -11 -30 -23 -50 -26 -35 -7 -37 -5 -70 47 -18 29 -39 64 -47 78 -7 14 -20
32 -28 41 -8 8 -14 22 -14 30 -1 8 -14 32 -30 54 -41 55 -53 86 -40 99 12 12
208 21 470 21 176 0 198 -2 228 -20z m413 9 c29 -9 64 -27 76 -40 17 -19 32
-24 65 -23 24 1 35 3 26 6 -42 11 -12 23 60 25 104 2 110 3 118 11 19 18 215
-16 274 -48 27 -15 58 -19 140 -21 141 -2 308 -21 345 -39 17 -8 55 -16 85
-19 30 -2 82 -9 115 -15 62 -11 207 -8 490 10 88 6 212 12 275 15 63 2 124 8
135 13 11 5 182 12 380 16 893 15 1490 38 1530 56 32 15 539 17 557 2 10 -9
55 -12 146 -11 80 1 136 -3 144 -10 9 -7 38 -8 90 -2 67 8 82 6 118 -11 34
-16 58 -20 129 -17 63 2 93 -1 105 -11 20 -17 20 -35 1 -51 -8 -7 -15 -23 -15
-35 0 -12 -8 -33 -19 -46 -10 -13 -28 -44 -40 -69 -42 -88 -206 -300 -231
-300 -10 0 -21 -7 -24 -15 -4 -12 -14 -14 -43 -9 -21 4 -41 12 -45 17 -3 6
-76 14 -165 18 -87 5 -196 13 -243 18 -142 16 -1366 25 -1700 12 -498 -19
-552 -22 -635 -32 -44 -5 -149 -9 -235 -9 -96 0 -174 -5 -205 -13 -34 -9 -61
-11 -84 -5 -22 6 -37 6 -44 -1 -6 -6 -28 -11 -48 -11 -21 0 -41 -4 -44 -10 -3
-5 -16 -10 -28 -11 -21 -1 -21 -1 2 -8 30 -8 37 -51 9 -59 -10 -2 -18 -11 -18
-18 0 -8 -7 -14 -15 -14 -9 0 -15 -9 -15 -21 0 -19 4 -20 34 -15 28 5 34 3 39
-14 5 -19 47 -30 47 -12 0 4 24 13 54 20 65 15 166 6 166 -14 0 -8 11 -14 25
-14 14 0 25 4 25 9 0 18 69 33 125 26 53 -7 55 -8 61 -42 9 -47 -4 -54 -101
-48 -44 2 -92 4 -107 4 -18 1 -28 6 -28 16 0 8 -4 15 -10 15 -5 0 -10 -4 -10
-10 0 -5 -25 -10 -55 -10 -31 0 -69 -7 -86 -16 -26 -13 -29 -19 -24 -43 4 -21
2 -30 -9 -34 -9 -4 -16 -15 -16 -25 0 -10 -9 -27 -20 -37 -11 -10 -17 -21 -15
-25 3 -5 2 -16 -2 -26 -5 -14 -8 -15 -17 -2 -12 15 -56 20 -56 6 0 -15 -51
-29 -64 -19 -15 12 -56 3 -57 -13 -2 -24 -18 48 -24 109 -4 36 -11 65 -16 65
-5 0 -9 -4 -9 -10 0 -16 -32 -12 -53 8 -15 12 -21 14 -24 5 -3 -8 -21 -13 -43
-13 -40 0 -70 -20 -70 -46 0 -8 -8 -18 -17 -21 -28 -11 -37 -24 -58 -87 -11
-32 -27 -62 -35 -66 -8 -4 -25 -12 -37 -18 -19 -10 -31 -8 -73 15 -30 17 -50
35 -50 46 0 10 -8 17 -19 17 -12 0 -18 7 -17 18 0 10 -6 16 -16 16 -10 -1 -18
2 -18 7 0 5 -17 8 -37 5 -21 -3 -41 -5 -45 -5 -5 -1 -8 -9 -8 -18 0 -19 -18
-79 -32 -106 -13 -27 8 -94 33 -102 15 -5 19 -13 15 -28 -3 -12 -6 -71 -6
-131 0 -60 -3 -106 -7 -103 -9 9 -43 -22 -43 -40 0 -7 -4 -13 -9 -13 -11 0
-23 -36 -26 -83 -2 -21 -9 -44 -15 -52 -6 -8 -9 -23 -5 -34 6 -19 -27 -61 -47
-61 -24 0 -89 -100 -112 -172 -3 -11 -15 -18 -30 -18 -14 0 -30 -8 -35 -17 -6
-10 -11 -12 -11 -5 0 6 -8 13 -17 13 -17 1 -17 2 0 6 40 11 -2 83 -49 83 -36
0 -41 48 -28 233 4 70 3 101 -6 112 -6 8 -9 23 -5 35 5 16 2 20 -17 20 -13 0
-28 4 -34 10 -16 16 -151 25 -168 11 -8 -7 -19 -10 -24 -7 -14 8 -112 -44
-112 -60 0 -8 -3 -13 -7 -12 -12 4 -91 -30 -98 -42 -3 -5 -22 -10 -41 -10 -19
0 -45 -7 -59 -16 -23 -15 -25 -14 -74 35 -28 28 -51 59 -51 69 0 10 -5 23 -11
29 -8 8 -4 21 16 47 15 20 30 36 34 36 4 0 13 16 20 35 7 19 17 35 22 35 5 0
9 9 9 19 0 10 7 21 15 25 9 3 15 18 15 36 0 20 5 30 15 30 8 0 15 9 15 20 0
11 11 27 24 36 14 8 22 22 20 29 -4 8 7 20 25 30 17 8 38 27 47 40 10 15 26
25 40 25 14 0 24 6 24 14 0 8 18 29 40 46 26 21 40 40 40 55 0 13 5 27 10 30
6 3 10 19 10 36 0 16 5 29 11 29 7 0 9 10 5 26 -5 17 -3 23 4 19 5 -3 10 1 10
10 0 9 12 18 30 22 17 3 30 9 30 14 0 5 10 9 23 9 12 0 29 5 37 10 10 6 -19 8
-85 5 -55 -2 -112 -4 -127 -4 -20 -1 -29 -7 -34 -25 -4 -17 -12 -23 -30 -22
-13 0 -24 7 -24 14 0 6 -6 13 -12 13 -41 4 -428 -3 -507 -9 l-94 -8 -35 38
c-20 21 -41 53 -48 71 -6 18 -22 59 -34 92 -12 33 -26 65 -30 70 -5 6 -10 33
-12 60 l-3 50 36 -3 c34 -3 36 -2 32 22 -6 29 -2 31 28 14 17 -11 23 -10 37 8
10 11 29 24 43 27 15 4 31 20 42 42 13 28 23 35 44 35 18 0 47 15 78 40 28 22
65 47 83 55 46 22 72 46 72 70 0 22 22 91 33 101 3 4 30 12 59 20 76 18 214
17 279 -2z m8304 -665 c42 -37 47 -69 10 -69 -15 0 -31 10 -42 26 -9 15 -32
33 -50 41 -41 16 -34 33 12 33 24 0 45 -9 70 -31z m-3255 -19 c0 -9 -32 -30
-46 -30 -4 0 1 9 11 20 19 21 35 26 35 10z m-97 -42 c50 -29 40 -57 -13 -34
-32 13 -35 12 -52 -9 -24 -31 -68 -39 -68 -13 0 51 80 85 133 56z m3007 -78
c6 -11 7 -20 2 -20 -6 0 -12 9 -15 20 -3 11 -3 20 -1 20 2 0 8 -9 14 -20z
m-5697 -57 c-7 -2 -21 -2 -30 0 -10 3 -4 5 12 5 17 0 24 -2 18 -5z m-90 -30
c-7 -2 -21 -2 -30 0 -10 3 -4 5 12 5 17 0 24 -2 18 -5z m88 -13 c18 0 28 -4
24 -10 -10 -16 -55 -12 -73 7 -16 16 -16 16 1 10 10 -4 32 -7 48 -7z m-391
-467 c38 -44 41 -50 36 -93 -4 -36 0 -56 19 -94 34 -67 41 -123 20 -172 -14
-33 -17 -88 -20 -364 -3 -277 -6 -330 -20 -357 -33 -65 -85 -51 -109 29 -11
37 -24 58 -43 70 -15 10 -35 22 -43 27 -26 16 -140 41 -260 57 -111 14 -116
16 -147 50 -52 57 -51 103 3 174 7 8 17 65 24 125 19 182 59 315 95 315 13 0
28 29 34 68 0 5 42 35 91 67 50 32 90 62 90 66 0 4 11 10 25 13 14 4 35 16 46
27 24 24 55 38 91 38 19 1 37 -11 68 -46z m-2416 -665 c3 -13 6 -36 6 -53 l-1
-30 -19 24 c-23 27 -27 81 -6 81 7 0 16 -10 20 -22z m47 -118 c45 -89 81 -179
84 -210 2 -22 10 -54 19 -72 8 -18 26 -64 41 -103 14 -38 37 -98 50 -133 14
-34 25 -72 25 -84 0 -44 -16 -8 -94 207 -18 50 -37 99 -43 110 -7 12 -30 70
-53 130 -23 59 -48 118 -56 129 -8 11 -14 27 -14 34 0 17 31 11 41 -8z m14259
-185 c0 -8 -7 -15 -15 -15 -8 0 -15 7 -15 15 0 8 7 15 15 15 8 0 15 -7 15 -15z
m-11367 -124 c-15 -14 -23 -17 -32 -8 -18 18 -13 35 12 39 34 6 44 -9 20 -31z
m2916 -285 c9 -11 9 -20 2 -35 -17 -30 -13 -61 8 -69 18 -7 18 -9 2 -42 -11
-24 -25 -36 -46 -40 -16 -4 -40 -13 -52 -21 -33 -20 -50 2 -57 76 -6 50 -3 65
13 93 14 21 29 32 43 32 13 0 30 5 38 10 21 14 36 12 49 -4z m8241 -78 c0 -27
-16 -55 -25 -46 -9 9 5 68 16 68 5 0 9 -10 9 -22z m554 -172 c33 -14 40 -25
73 -106 6 -14 34 -54 62 -89 28 -35 51 -71 51 -81 0 -9 9 -28 19 -42 34 -43
111 -160 111 -169 0 -18 36 -86 62 -117 16 -18 28 -45 28 -60 0 -16 12 -44 26
-63 14 -19 34 -54 45 -79 11 -25 24 -53 29 -62 6 -10 10 -24 10 -32 0 -8 26
-65 58 -128 32 -62 67 -141 77 -175 11 -35 23 -63 27 -63 5 0 8 -13 8 -29 0
-17 4 -32 9 -35 5 -3 12 -26 15 -51 4 -25 18 -76 31 -114 13 -38 21 -71 19
-74 -3 -2 -6 -20 -9 -38 -11 -95 -18 -129 -26 -129 -5 0 -9 12 -9 28 l0 27
-20 -25 c-20 -27 -24 -26 -39 10 l-10 25 0 -27 c-1 -30 -15 -37 -25 -13 -3 9
-14 15 -23 13 -22 -4 -29 27 -8 35 8 4 15 2 15 -3 0 -6 5 -10 10 -10 16 0 12
18 -9 37 -10 10 -24 28 -30 40 -6 13 -15 22 -19 21 -23 -6 -50 19 -75 72 -35
74 -47 82 -48 33 0 -33 -2 -35 -9 -16 -5 13 -8 45 -6 73 2 28 0 50 -6 50 -12
0 -88 74 -88 86 0 5 -11 30 -25 56 -13 25 -27 66 -31 90 -3 23 -12 48 -20 54
-7 6 -17 30 -23 53 -5 24 -19 49 -31 58 -14 10 -19 21 -15 33 4 12 -2 27 -14
39 -12 12 -21 30 -21 40 0 11 -12 29 -26 40 -22 17 -25 26 -20 51 5 26 2 32
-19 42 -17 8 -26 22 -30 50 -8 46 -19 69 -57 119 -16 20 -28 43 -28 52 0 10
-4 17 -10 17 -5 0 -10 8 -10 18 -1 37 -45 149 -57 145 -18 -6 -58 24 -58 44 0
10 -12 24 -27 31 -17 8 -28 21 -28 33 0 11 -7 27 -15 36 -11 11 -14 25 -9 50
5 25 3 38 -7 44 -11 7 -11 9 2 9 9 0 22 6 28 14 6 8 31 17 55 20 32 5 49 14
60 31 19 29 58 33 110 11z m-14284 -22 c0 -8 -4 -12 -10 -9 -5 3 -10 10 -10
16 0 5 5 9 10 9 6 0 10 -7 10 -16z m60 -176 c0 -13 9 -52 20 -87 11 -36 17
-67 15 -70 -7 -7 -10 -1 -32 69 -36 111 -36 110 -19 110 10 0 16 -9 16 -22z
m13946 -123 c16 -15 28 -38 30 -57 6 -58 14 -79 39 -106 23 -25 30 -51 27 -94
-1 -10 3 -18 9 -18 6 0 9 -6 6 -12 -2 -7 2 -25 9 -40 8 -15 11 -33 8 -41 -3
-8 -1 -18 5 -21 5 -4 15 -32 22 -63 6 -32 18 -62 26 -68 8 -6 16 -35 19 -70 3
-33 14 -78 25 -100 18 -37 19 -59 17 -284 -3 -264 1 -242 -55 -269 -10 -5 -22
-18 -28 -30 -14 -31 -22 -27 -30 15 -4 21 -13 50 -21 65 -8 15 -14 46 -14 70
0 24 -5 59 -11 78 -25 83 -45 261 -55 480 -3 63 -10 120 -16 127 -6 7 -14 41
-19 76 -5 34 -16 100 -24 147 -28 150 -34 204 -24 222 13 24 23 23 55 -7z
m-4026 -235 c0 -5 -9 -10 -20 -10 -11 0 -20 5 -20 10 0 6 9 10 20 10 11 0 20
-4 20 -10z m-7493 -55 c21 -19 32 -35 26 -35 -7 0 -13 -8 -13 -19 0 -10 -10
-25 -23 -33 -27 -19 -61 -8 -78 24 -7 13 -20 29 -31 36 -18 13 -24 43 -11 55
3 4 26 7 49 7 35 0 50 -6 81 -35z m7253 -97 c0 -4 -4 -8 -10 -8 -5 0 -10 -16
-10 -35 0 -31 3 -35 25 -35 14 0 25 -4 25 -10 0 -5 17 -10 38 -10 114 0 282
-17 298 -30 10 -8 23 -18 29 -22 52 -37 66 -58 67 -100 1 -23 7 -47 12 -51 8
-6 7 -10 -1 -14 -7 -2 -13 -11 -13 -19 0 -8 -6 -14 -12 -13 -27 3 -58 -14 -58
-32 0 -11 -6 -19 -14 -19 -8 0 -16 -6 -18 -12 -3 -9 -12 -8 -31 5 -32 21 -37
21 -37 2 0 -12 -13 -15 -55 -15 -50 0 -55 2 -55 23 0 12 -4 27 -8 34 -10 15
-63 11 -85 -7 -10 -8 -21 -16 -25 -16 -38 -7 -52 -18 -47 -35 4 -11 2 -19 -3
-19 -14 0 -8 -143 6 -148 17 -5 15 -41 -4 -60 -20 -19 -83 -20 -95 0 -12 18
-11 55 1 63 6 4 8 51 4 128 -7 145 -7 131 -4 239 1 55 7 94 16 105 16 21 18
69 4 78 -16 10 -11 33 8 38 26 6 52 4 52 -5z m-1912 -42 c40 -8 81 -21 91 -30
10 -9 24 -16 32 -16 8 -1 26 -16 40 -35 43 -56 98 -115 109 -115 6 0 14 -8 17
-17 4 -10 28 -40 54 -66 39 -39 50 -59 59 -103 6 -30 15 -54 20 -54 14 0 28
-64 23 -96 -3 -16 -16 -41 -29 -55 -14 -14 -22 -27 -20 -30 3 -3 -3 -5 -12 -6
-9 -1 -35 -5 -57 -8 -22 -3 -89 -6 -148 -7 -60 -1 -110 -5 -113 -10 -3 -4 -15
-8 -28 -8 -13 0 -31 -10 -42 -21 -17 -19 -26 -21 -79 -15 -158 17 -281 25
-399 25 l-129 1 -53 40 c-29 22 -57 40 -61 40 -20 0 -32 45 -39 137 -6 84 -4
100 10 112 9 7 16 27 16 42 0 22 6 32 24 39 14 5 29 17 35 27 10 19 61 70 127
127 29 25 57 39 94 46 28 5 56 13 62 16 6 4 27 11 47 16 157 42 230 47 349 24z
m-5450 -195 c9 -4 109 -4 222 0 201 8 205 8 223 -12 28 -35 21 -69 -24 -116
-22 -24 -49 -43 -59 -43 -10 0 -32 -13 -49 -29 -29 -27 -31 -33 -31 -104 0
-75 -6 -98 -56 -204 -13 -28 -24 -59 -24 -68 0 -9 -11 -26 -23 -38 -13 -12
-27 -38 -30 -57 -7 -32 -17 -60 -53 -133 -8 -16 -14 -39 -14 -51 0 -12 -4 -26
-9 -31 -5 -6 -23 -55 -41 -110 -17 -55 -40 -116 -50 -135 -22 -40 -45 -48
-160 -51 -56 -1 -80 -6 -95 -19 -30 -27 -205 -33 -353 -14 -64 8 -120 18 -126
21 -23 15 -54 11 -59 -7 -7 -27 -60 -32 -412 -37 -318 -4 -320 -4 -337 18 -10
12 -18 33 -18 48 0 15 -11 61 -25 101 -19 55 -25 94 -25 157 0 54 -5 92 -14
106 -7 12 -17 53 -20 91 -4 38 -20 103 -36 145 -15 42 -31 95 -35 119 -4 24
-13 56 -21 70 -8 15 -14 33 -14 40 0 7 -4 20 -9 30 -36 73 -63 241 -43 270 15
22 221 34 557 32 257 -1 1035 10 1208 18 21 1 46 -2 55 -7z m12992 -410 c0
-14 -18 -23 -30 -16 -6 4 -8 11 -5 16 8 12 35 12 35 0z m-166 -416 c22 -20 27
-32 24 -63 -2 -30 -7 -38 -26 -40 -32 -5 -52 15 -52 49 0 21 5 29 18 30 10 0
12 3 5 6 -14 5 -18 43 -4 43 4 0 20 -11 35 -25z m96 -100 c0 -15 -6 -25 -14
-25 -8 0 -18 -9 -21 -20 -6 -18 -45 -30 -45 -12 1 15 39 52 54 52 9 0 16 7 16
15 0 8 2 15 5 15 3 0 5 -11 5 -25z m-6311 -119 c10 -12 99 -23 234 -28 20 -1
37 -6 37 -11 0 -6 17 -7 40 -3 34 5 45 3 68 -19 23 -22 25 -28 14 -45 -16 -26
-15 -40 3 -40 8 0 15 5 15 10 0 17 17 11 47 -15 21 -18 24 -24 12 -25 -9 0
-19 7 -23 15 -3 8 -10 15 -16 15 -18 0 -11 -32 12 -51 24 -22 23 -26 -14 -33
-36 -6 -68 3 -68 20 0 8 -9 14 -20 14 -14 0 -20 -7 -20 -21 0 -17 -5 -20 -25
-17 -14 3 -25 1 -25 -4 0 -5 -9 -6 -20 -3 -15 5 -20 2 -20 -10 0 -12 -5 -15
-17 -10 -10 4 -33 11 -50 17 -30 8 -47 38 -23 38 15 0 12 30 -5 47 -11 10 -26
13 -45 9 -27 -5 -30 -3 -30 19 0 22 -5 25 -33 25 -41 0 -87 20 -87 38 0 8 -9
21 -21 30 -31 26 -16 52 31 52 21 0 43 -6 49 -14z m4708 -72 c-9 -9 -28 6 -21
18 4 6 10 6 17 -1 6 -6 8 -13 4 -17z m2287 -173 c3 -5 22 -12 41 -15 21 -4 35
-13 35 -21 0 -8 5 -15 10 -15 6 0 10 -9 10 -20 0 -11 7 -23 15 -27 9 -3 22
-18 31 -34 8 -17 23 -29 34 -29 11 0 20 -7 20 -15 0 -8 5 -15 10 -15 6 0 10 5
10 10 0 6 7 10 15 10 8 0 15 -9 15 -19 0 -19 25 -35 41 -26 4 3 14 -3 21 -14
12 -19 14 -16 25 32 7 28 13 70 14 92 1 22 6 -23 10 -100 4 -77 5 -403 1 -725
l-7 -585 -5 394 c-4 303 -8 395 -17 399 -7 2 -13 10 -13 18 0 8 -5 14 -11 14
-6 0 -10 12 -8 28 3 36 -8 59 -48 101 -18 19 -33 41 -33 48 0 7 -4 13 -10 13
-5 0 -10 5 -10 11 0 6 -7 26 -16 45 -13 27 -21 33 -36 28 -23 -7 -48 12 -48
38 0 10 -4 17 -10 13 -5 -3 -7 -12 -3 -20 3 -9 -1 -15 -8 -15 -24 1 -49 26
-49 49 0 12 -6 21 -12 20 -27 -3 -48 1 -48 11 0 6 9 10 20 10 15 0 20 7 20 25
0 19 -4 23 -17 18 -13 -5 -15 -2 -10 16 5 20 2 22 -16 17 -12 -2 -31 2 -42 11
-19 15 -19 15 8 9 20 -5 27 -3 27 9 0 8 -4 15 -10 15 -5 0 -10 7 -10 15 0 8
-7 15 -15 15 -8 0 -15 7 -15 15 0 8 -4 15 -10 15 -5 0 -10 6 -10 14 0 16 -43
30 -48 16 -5 -13 -32 -13 -32 0 0 5 -11 12 -25 16 -37 9 -33 41 8 50 17 4 35
7 40 6 4 -1 7 3 7 8 0 6 5 10 10 10 6 0 10 -11 10 -25 0 -21 5 -25 29 -25 41
0 61 9 54 26 -3 9 2 14 16 14 12 0 21 6 21 15 0 16 16 20 24 6z m-159 -151 c8
-13 -25 -13 -45 0 -12 8 -9 10 12 10 15 0 30 -4 33 -10z m-12971 -197 c-14
-57 -29 -82 -43 -73 -9 5 -21 1 -35 -14 -12 -11 -33 -29 -46 -38 -21 -14 -23
-19 -10 -27 8 -5 11 -14 6 -18 -5 -4 -11 -2 -13 5 -8 21 -23 13 -23 -12 0 -14
-7 -31 -15 -40 -21 -20 -21 -136 -1 -136 16 0 14 -46 -4 -102 -7 -22 -6 -28 6
-28 19 0 20 -115 0 -135 -14 -15 -11 -112 5 -129 13 -14 11 -114 -2 -122 -22
-13 -30 22 -25 109 4 54 2 87 -4 87 -6 0 -10 -48 -10 -120 0 -108 -8 -143 -24
-107 -5 10 -7 10 -12 0 -3 -7 -12 -13 -20 -13 -8 0 -14 -7 -14 -15 0 -8 -7
-15 -15 -15 -8 0 -15 -4 -15 -10 0 -15 40 -12 56 5 19 18 55 20 49 3 -3 -7
-25 -21 -50 -31 -41 -17 -60 -37 -35 -37 6 0 10 -7 10 -15 0 -8 -4 -15 -10
-15 -5 0 -10 -6 -10 -13 0 -9 -11 -12 -35 -9 -33 4 -65 -14 -65 -36 0 -6 -4
-12 -9 -14 -5 -1 -13 -15 -16 -31 -6 -22 -4 -26 9 -21 12 4 16 0 16 -15 0 -12
5 -21 10 -21 6 0 10 -7 10 -15 0 -8 -4 -15 -9 -15 -5 0 -11 -10 -13 -22 -2
-18 -11 -24 -35 -26 -34 -3 -43 -16 -20 -26 10 -5 10 -7 0 -12 -7 -3 -13 -12
-13 -20 0 -8 -4 -14 -10 -14 -5 0 -10 5 -10 10 0 6 -7 10 -15 10 -23 0 -20 -8
25 -57 30 -33 6 -139 -26 -112 -11 9 -14 8 -14 -5 0 -9 -4 -16 -9 -16 -5 0
-13 -9 -16 -21 -4 -13 -12 -18 -22 -15 -10 4 -13 1 -8 -13 4 -15 -2 -21 -26
-30 -18 -6 -46 -11 -64 -11 -30 0 -33 -3 -39 -39 -9 -60 -56 -86 -93 -51 -25
23 -43 112 -24 118 14 5 15 109 1 114 -5 2 -14 49 -20 105 -11 117 -2 160 36
169 13 3 21 10 18 15 -3 5 2 12 12 16 14 5 15 16 10 74 -8 74 4 112 29 103 8
-4 15 -1 15 6 0 6 9 23 20 37 11 14 20 36 20 48 0 22 50 75 71 75 5 0 9 6 9
14 0 7 6 19 14 25 8 7 18 26 21 42 7 32 69 155 90 179 7 8 16 31 20 50 10 47
16 55 27 39 7 -10 8 -9 4 5 -4 12 3 31 19 52 14 18 25 37 25 43 0 6 4 11 9 11
5 0 12 9 16 20 9 28 57 80 75 80 22 1 50 25 50 44 0 21 33 96 42 96 5 0 8 9 8
21 0 13 10 23 29 30 20 7 28 15 24 25 -3 9 2 14 15 14 12 0 27 9 35 20 13 19
49 38 75 39 9 1 10 -7 6 -26z m10940 -43 c14 -5 31 -21 38 -35 6 -13 19 -27
29 -30 19 -6 56 -61 76 -115 20 -53 20 -55 -8 -58 -18 -2 -29 4 -38 21 -7 14
-25 31 -40 38 -36 18 -76 49 -76 58 0 5 -15 21 -33 36 -30 25 -33 32 -28 71 6
61 15 72 37 46 9 -12 29 -26 43 -32z m-2320 34 c9 -3 16 -12 16 -19 0 -7 4
-15 9 -17 19 -6 -25 -44 -72 -62 -76 -29 -128 -5 -119 54 3 20 12 35 26 40 25
10 117 13 140 4z m331 -84 c3 -5 21 -10 39 -10 19 0 39 -6 45 -14 7 -8 23 -17
36 -20 39 -10 33 -49 -11 -75 -53 -31 -83 -26 -126 23 -45 51 -58 92 -31 99
31 8 42 7 48 -3z m-3416 -240 c39 1 56 -3 66 -16 9 -13 31 -18 91 -21 158 -7
226 -17 317 -48 27 -9 58 -17 70 -18 12 0 33 -9 46 -19 13 -10 33 -18 43 -18
91 0 348 -59 348 -80 0 -4 22 -10 48 -14 26 -3 57 -12 67 -20 11 -7 51 -19 90
-27 38 -7 77 -21 85 -29 9 -9 49 -27 89 -40 39 -12 90 -36 111 -51 22 -16 44
-29 49 -29 9 0 77 -29 189 -81 35 -16 67 -29 72 -29 15 0 93 -42 123 -67 16
-13 37 -23 47 -23 10 0 20 -4 22 -8 5 -14 146 -84 156 -78 5 3 22 -8 37 -24
16 -17 37 -30 47 -30 10 0 18 -4 18 -8 0 -4 26 -23 58 -42 31 -19 80 -51 108
-72 28 -21 55 -38 60 -38 5 0 17 -8 25 -17 20 -22 112 -101 139 -120 11 -8 20
-21 20 -30 0 -19 28 -53 44 -53 15 0 96 -79 96 -93 0 -7 14 -25 30 -41 17 -16
30 -35 30 -42 0 -6 15 -21 33 -32 26 -15 33 -25 33 -48 -1 -20 5 -32 20 -38
12 -5 26 -23 32 -40 7 -17 26 -40 43 -51 17 -11 37 -32 45 -47 8 -15 28 -35
44 -43 17 -9 30 -19 30 -24 0 -4 10 -13 23 -19 28 -14 -129 -14 -2593 -13
-1070 1 -2798 1 -3840 1 -1235 0 -1890 4 -1880 10 9 6 157 8 398 5 276 -4 382
-3 377 5 -4 7 -19 9 -36 5 -36 -8 -69 2 -69 21 0 8 5 14 10 14 6 0 10 7 10 15
0 11 11 15 41 15 32 0 46 6 61 25 11 14 28 25 39 25 10 0 19 7 19 14 0 17 42
66 57 66 5 0 20 12 34 26 13 14 34 30 45 34 12 5 24 21 28 35 9 36 46 85 64
85 8 0 41 18 73 40 32 22 65 40 73 40 20 0 75 72 87 112 5 18 9 50 9 71 0 52
16 82 36 66 20 -16 29 -4 26 34 -4 38 20 65 58 66 14 0 58 3 98 7 66 6 72 5
72 -12 1 -13 6 -8 15 13 13 32 14 32 44 17 34 -17 75 -10 94 16 6 9 23 23 37
30 14 7 33 21 43 31 9 10 23 16 30 13 8 -3 20 2 27 11 7 8 17 15 23 15 5 0 29
16 53 35 23 19 49 35 56 35 8 0 32 15 53 34 23 21 54 37 77 41 21 4 38 10 38
14 0 4 17 13 38 20 44 15 100 38 125 51 47 27 64 36 86 53 13 9 32 17 41 17
10 0 37 11 61 24 24 14 67 30 94 37 28 6 54 16 59 20 6 5 26 9 46 9 20 0 41 5
48 12 6 6 18 13 26 14 50 7 163 37 173 46 7 6 20 7 29 4 9 -3 29 3 46 15 19
14 61 26 122 35 52 8 113 21 137 30 65 24 104 33 204 50 143 24 177 31 230 47
28 8 97 18 155 22 108 6 196 22 218 38 7 6 97 7 225 3 116 -3 248 -2 292 3 44
5 166 7 270 5 105 -3 214 -4 244 -4z m5643 -72 c23 -21 42 -52 52 -83 9 -27
23 -63 31 -80 73 -152 86 -236 68 -466 -8 -111 -17 -133 -58 -143 -27 -7 -31
-18 -39 -116 -4 -39 -12 -67 -20 -72 -7 -4 -19 -21 -26 -38 -7 -16 -18 -30
-24 -30 -7 0 -28 -12 -47 -26 -19 -14 -49 -32 -67 -41 -33 -16 -34 -16 -58 13
-42 52 -40 80 8 96 5 2 10 19 11 38 1 19 8 41 15 48 9 10 11 47 7 145 -7 159
1 251 21 243 28 -11 42 57 23 117 -10 29 -10 40 -1 49 7 7 12 20 12 29 0 10 9
34 21 54 14 23 19 44 15 60 -4 15 0 34 9 48 14 21 13 29 -11 90 -14 37 -23 74
-20 82 9 24 40 17 78 -17z m-3297 -117 c7 -12 -12 -24 -25 -16 -11 7 -4 25 10
25 5 0 11 -4 15 -9z m1600 -111 c11 0 15 -12 15 -50 0 -57 1 -56 -82 -63 -56
-5 -57 -5 -63 23 -10 48 4 100 31 110 17 7 24 17 24 36 0 26 1 25 30 -14 17
-23 37 -42 45 -42z m-1492 57 c17 -44 -38 -107 -75 -86 -16 9 -17 37 -3 84 4
15 72 17 78 2z m-8133 -127 c0 -27 -4 -50 -8 -50 -5 0 -8 22 -8 50 1 27 4 50
9 50 4 0 7 -22 7 -50z m10836 0 c20 0 74 -60 74 -81 0 -10 -6 -19 -12 -21 -9
-3 -8 -10 5 -23 22 -22 19 -69 -5 -73 -15 -3 -18 4 -18 36 0 28 -7 45 -25 62
-13 12 -22 27 -19 31 3 5 -9 17 -26 27 -27 17 -29 21 -15 32 8 7 16 20 16 29
1 13 2 13 6 -1 2 -10 11 -18 19 -18z m-2916 -167 c0 -6 -4 -15 -10 -18 -5 -3
-14 -20 -19 -38 -9 -31 -9 -31 -10 -5 -1 15 -5 30 -11 33 -11 7 -14 58 -4 68
9 8 53 -25 54 -40z m1606 -98 c3 -19 12 -36 20 -39 9 -3 14 -20 14 -44 0 -21
5 -43 12 -50 9 -9 4 -12 -26 -12 -48 0 -69 12 -95 54 -27 43 -27 45 9 94 35
48 56 47 66 -3z m-11816 -12 c0 -87 -14 -233 -22 -233 -4 0 -8 61 -8 135 0
113 2 135 15 135 11 0 15 -11 15 -37z m30 -98 c0 -83 -4 -135 -10 -135 -6 0
-10 52 -10 135 0 83 4 135 10 135 6 0 10 -52 10 -135z m-140 -60 c0 -43 -4
-75 -10 -75 -6 0 -10 32 -10 75 0 43 4 75 10 75 6 0 10 -32 10 -75z m260 65
c0 -5 -9 -10 -20 -10 -11 0 -20 5 -20 10 0 6 9 10 20 10 11 0 20 -4 20 -10z
m30 -15 c0 -8 -7 -15 -15 -15 -16 0 -20 12 -8 23 11 12 23 8 23 -8z m190 -6
c0 -5 -4 -9 -10 -9 -5 0 -10 7 -10 16 0 8 5 12 10 9 6 -3 10 -10 10 -16z
m-180 -104 c0 -17 -4 -18 -37 -9 -33 9 -28 24 7 24 20 0 30 -5 30 -15z m15110
-736 c0 -24 -23 -21 -28 4 -2 10 3 17 12 17 10 0 16 -9 16 -21z m2 -51 c-8 -8
-17 -8 -34 0 -22 10 -21 11 12 11 26 1 31 -2 22 -11z m26 -25 c-15 -2 -42 -2
-60 0 -18 2 -6 4 27 4 33 0 48 -2 33 -4z"/>
<path d="M8480 10595 c0 -8 5 -15 10 -15 6 0 10 7 10 15 0 8 -4 15 -10 15 -5
0 -10 -7 -10 -15z"/>
<path d="M7215 7180 c-4 -6 7 -10 24 -10 17 0 31 5 31 10 0 6 -11 10 -24 10
-14 0 -28 -4 -31 -10z"/>
<path d="M7230 7120 c0 -5 -7 -10 -15 -10 -8 0 -15 -7 -15 -15 0 -8 -4 -15
-10 -15 -5 0 -10 5 -10 10 0 6 -5 10 -11 10 -8 0 -9 -11 -5 -32 8 -39 5 -37
49 -42 35 -5 37 -4 37 24 0 17 5 30 10 30 6 0 10 11 10 25 0 18 -5 25 -20 25
-11 0 -20 -4 -20 -10z"/>
<path d="M5899 7033 c-8 -11 -21 -22 -29 -26 -10 -4 -9 -6 6 -6 24 -1 48 22
42 41 -3 7 -9 5 -19 -9z"/>
<path d="M5840 6950 c0 -5 14 -10 30 -10 17 0 30 5 30 10 0 6 -13 10 -30 10
-16 0 -30 -4 -30 -10z"/>
<path d="M6083 6613 c-4 -10 -11 -21 -17 -25 -6 -4 -11 -13 -12 -20 0 -7 -2
-21 -2 -30 -1 -10 -9 -18 -17 -18 -28 0 -17 -44 16 -62 38 -22 49 -23 49 -3 0
8 7 15 15 15 16 0 55 77 55 108 0 21 -39 52 -65 52 -9 0 -19 -8 -22 -17z"/>
<path d="M19710 10624 c0 -3 7 -12 15 -20 13 -14 15 -13 15 5 0 12 -6 21 -15
21 -8 0 -15 -3 -15 -6z"/>
<path d="M19602 10495 c0 -16 2 -22 5 -12 2 9 2 23 0 30 -3 6 -5 -1 -5 -18z"/>
<path d="M20440 10092 c0 -14 39 -46 47 -39 3 4 -2 16 -12 27 -19 21 -35 26
-35 12z"/>
<path d="M9300 9851 c0 -9 -3 -40 -6 -68 -6 -42 -4 -53 8 -53 8 0 20 -17 27
-37 7 -21 24 -55 37 -75 13 -21 24 -42 24 -47 0 -5 9 -13 20 -16 11 -3 20 -11
20 -16 0 -5 7 -9 15 -9 8 0 15 4 15 9 0 5 16 12 35 15 19 4 35 11 35 15 0 5
12 12 27 16 19 4 31 2 39 -9 13 -18 34 -21 34 -6 0 6 10 10 23 10 l22 1 -23
18 c-13 12 -20 25 -16 35 4 11 1 16 -10 16 -10 0 -19 11 -22 30 -4 17 -10 30
-15 30 -5 0 -9 7 -9 15 0 8 -6 15 -14 15 -9 0 -12 8 -8 25 2 15 0 25 -7 25 -6
0 -11 -5 -11 -11 0 -6 -7 -3 -16 5 -8 9 -20 16 -25 16 -6 0 -8 8 -5 18 11 37
-14 49 -107 49 -74 1 -87 -2 -87 -16z"/>
<path d="M8828 9463 c-42 -11 -13 -22 52 -21 67 1 87 9 54 22 -17 7 -79 6
-106 -1z"/>
<path d="M8987 9416 c-5 -12 -13 -15 -28 -11 -21 7 -21 7 -3 -19 23 -30 41
-32 72 -7 28 24 28 31 -2 31 -13 0 -26 5 -28 12 -3 7 -7 5 -11 -6z"/>
<path d="M10967 9354 c-8 -8 1 -24 14 -24 5 0 9 7 9 15 0 15 -12 20 -23 9z"/>
<path d="M16136 8835 c-3 -8 -12 -15 -20 -15 -8 0 -33 -16 -56 -35 -23 -19
-47 -35 -53 -35 -6 0 -21 -12 -33 -27 -17 -21 -25 -25 -35 -16 -15 12 -106 0
-122 -16 -5 -5 -15 -7 -21 -5 -7 3 -24 -21 -40 -55 -26 -53 -28 -65 -22 -123
7 -60 5 -68 -19 -104 -23 -34 -26 -45 -20 -84 9 -56 9 -116 0 -156 -5 -24 -1
-39 19 -68 28 -42 49 -106 71 -222 19 -100 19 -200 0 -289 -8 -39 -15 -103
-15 -144 0 -41 -5 -104 -10 -140 -29 -188 -34 -207 -55 -231 -13 -14 -34 -48
-48 -75 -34 -68 -130 -166 -195 -198 -56 -28 -96 -34 -107 -17 -3 6 -17 10
-31 10 -19 0 -28 -8 -40 -35 -7 -19 -14 -45 -14 -58 0 -13 -5 -28 -11 -34 -6
-6 -12 -39 -14 -74 -7 -126 -22 -187 -57 -232 -18 -23 -38 -46 -45 -50 -26
-16 -45 -80 -40 -135 7 -64 36 -131 57 -129 8 1 44 -2 79 -6 64 -8 110 -26
143 -54 9 -8 43 -27 75 -43 32 -15 80 -48 107 -74 36 -34 52 -43 65 -37 9 5
61 12 116 16 55 4 105 11 110 15 21 18 146 -18 203 -58 15 -11 45 -23 67 -27
24 -4 67 -26 105 -55 36 -26 76 -51 89 -55 12 -4 45 -29 71 -56 l48 -49 77 0
c67 0 88 -5 157 -36 44 -20 86 -33 94 -30 8 3 14 1 14 -4 0 -10 36 -30 136
-80 32 -15 53 -37 87 -93 62 -100 70 -116 78 -162 4 -22 17 -71 29 -110 12
-38 27 -91 34 -116 22 -78 38 -102 74 -111 28 -8 32 -11 22 -23 -7 -8 -8 -15
-3 -15 6 0 14 -15 20 -32 7 -25 14 -32 30 -30 17 2 22 -4 27 -33 5 -25 14 -39
30 -45 27 -10 37 -30 29 -58 -2 -11 2 -33 11 -48 l15 -29 2 30 c5 75 4 85 -8
85 -7 0 -13 5 -13 10 0 6 7 10 15 10 9 0 18 8 22 18 7 21 52 62 67 62 6 -1 28
-7 50 -15 21 -7 45 -11 52 -8 8 3 14 1 14 -5 0 -6 -6 -13 -12 -15 -7 -3 29 -6
80 -6 l92 -1 0 29 c0 25 4 30 27 33 26 3 29 8 40 68 6 36 9 68 6 73 -8 13 8
46 26 52 9 3 25 23 35 45 9 21 27 42 39 46 11 4 27 13 35 21 8 7 22 11 31 8 9
-3 26 2 37 10 10 8 29 15 41 15 12 0 29 10 37 21 10 14 21 19 32 15 10 -4 23
1 35 15 10 11 23 18 28 14 6 -3 11 1 11 9 0 10 -9 16 -25 16 -14 0 -25 -4 -25
-10 0 -5 -9 -10 -20 -10 -20 0 -28 15 -11 22 5 2 12 38 15 81 5 66 3 84 -14
117 -11 22 -20 48 -20 59 0 11 -4 23 -10 26 -5 3 -14 23 -20 44 -14 52 -123
156 -174 165 -44 8 -46 27 -7 44 26 11 38 11 83 -4 88 -29 160 -67 171 -91 6
-13 14 -23 18 -23 16 0 59 -55 65 -85 4 -16 18 -55 32 -86 l26 -56 24 29 c14
16 30 27 37 24 29 -11 38 14 44 117 1 9 8 17 16 17 8 0 15 7 15 15 0 8 7 15
15 15 8 0 15 -5 15 -12 0 -17 91 -98 111 -98 21 0 64 -48 76 -85 8 -25 15 -29
37 -27 20 2 26 -2 26 -18 0 -11 5 -20 11 -20 8 0 8 -4 0 -14 -13 -16 2 -32 19
-21 11 7 40 -18 40 -34 0 -6 7 -11 15 -11 9 0 15 9 15 24 0 13 6 27 13 29 9 4
9 8 -2 15 -11 8 -11 10 0 14 10 4 7 10 -10 25 -23 19 -23 20 -7 45 14 21 15
34 8 62 -6 19 -7 37 -4 40 3 3 1 6 -4 6 -12 0 -36 -78 -29 -90 8 -12 -12 -50
-26 -50 -6 0 -17 7 -25 15 -14 13 -14 15 0 15 12 0 16 10 16 34 0 19 5 36 12
38 7 3 9 12 5 22 -5 12 -13 15 -28 11 -18 -6 -20 -4 -14 14 4 15 2 21 -8 21
-9 0 -17 -6 -19 -12 -3 -9 -10 -8 -23 5 -15 16 -16 19 -2 30 19 16 30 74 14
80 -14 4 14 37 32 37 17 0 13 -66 -4 -84 -20 -20 -19 -26 4 -26 27 0 33 24 36
154 3 117 8 139 38 171 17 18 20 18 30 4 12 -15 21 -14 57 9 2 2 -2 7 -9 11
-17 11 -5 51 16 51 11 0 14 6 9 23 -3 12 -6 45 -6 74 l0 51 -45 -1 c-30 -1
-45 -6 -45 -15 0 -10 -9 -12 -32 -7 -33 8 -48 20 -48 42 0 6 -15 13 -32 15
-30 3 -33 6 -36 41 -2 20 -8 37 -14 37 -7 0 -8 -16 -4 -45 5 -29 4 -45 -3 -45
-6 0 -14 18 -17 39 -4 28 -10 38 -20 34 -8 -3 -14 0 -14 6 0 6 5 11 11 11 6 0
4 7 -5 15 -8 8 -21 15 -28 15 -8 0 -20 16 -28 35 -12 30 -17 34 -39 28 -21 -5
-24 -3 -13 8 23 24 13 47 -28 66 -22 10 -40 23 -40 30 0 6 -21 19 -47 29 -27
9 -53 23 -59 31 -6 7 -21 13 -33 13 -18 0 -20 5 -16 35 2 19 0 35 -4 35 -12 0
-21 -27 -15 -44 4 -10 -7 -16 -43 -20 -115 -14 -169 -17 -214 -11 -44 6 -48 9
-54 38 -4 18 -22 71 -41 119 -19 49 -34 103 -34 121 0 43 -34 93 -149 226 -50
57 -91 107 -91 111 0 3 -11 13 -25 20 -13 7 -27 25 -30 41 -8 34 -91 147 -157
212 -27 27 -62 76 -79 110 -17 34 -44 76 -59 92 -27 29 -43 55 -75 123 -8 18
-42 59 -74 91 -32 32 -69 78 -82 102 -13 24 -37 50 -52 57 -15 7 -27 21 -27
30 0 9 -6 28 -13 42 -8 14 -17 41 -21 60 -3 19 -18 52 -31 72 -14 21 -25 41
-25 46 0 5 -17 22 -38 39 -20 17 -48 51 -61 76 -13 25 -32 48 -42 50 -11 3
-24 19 -30 36 -7 19 -17 30 -26 29 -17 -3 -47 67 -37 84 7 12 -25 88 -38 88
-4 0 -8 6 -8 13 0 6 -11 32 -24 57 -14 25 -32 61 -41 80 -9 19 -21 42 -26 50
-5 8 -12 22 -15 30 -4 13 -27 14 -141 12 -88 -2 -139 0 -146 7 -16 16 -44 13
-51 -4z m274 -2343 c0 -10 7 -27 15 -39 8 -11 16 -40 18 -64 1 -24 6 -50 10
-56 5 -7 5 -18 2 -24 -4 -5 1 -19 11 -30 9 -10 18 -34 18 -52 1 -17 4 -36 8
-42 3 -5 9 -30 13 -55 4 -24 18 -61 31 -82 14 -22 26 -60 29 -90 7 -73 15
-117 28 -155 13 -39 -8 -143 -30 -143 -7 0 -13 7 -13 15 0 9 -9 15 -23 15 -20
0 -24 5 -25 29 0 17 -5 38 -11 49 -5 10 -9 54 -9 98 1 43 -2 89 -6 101 -4 12
-2 24 4 28 15 9 12 35 -5 35 -16 0 -20 30 -6 46 4 5 11 23 15 39 5 25 4 27 -5
12 -10 -18 -12 -18 -32 4 -16 18 -21 37 -23 93 -2 39 -3 74 -3 77 -1 4 -10 9
-21 12 -17 4 -19 9 -10 32 11 29 5 65 -11 65 -10 0 -12 43 -3 78 7 26 34 30
34 4z m1475 -102 c8 -16 15 -40 15 -54 0 -14 5 -28 10 -31 12 -8 13 -118 1
-130 -5 -6 -11 -50 -14 -100 -6 -105 -5 -95 -14 -95 -9 0 -33 48 -33 66 0 7
-11 26 -26 43 -40 48 -49 176 -18 262 16 43 31 60 61 68 1 1 9 -12 18 -29z
m-355 -583 c52 -47 88 -69 95 -57 4 6 11 7 17 4 6 -4 5 -9 -3 -15 -11 -6 -11
-11 -1 -21 6 -6 12 -20 12 -30 0 -10 25 -43 55 -75 30 -32 55 -61 55 -65 0 -4
20 -26 45 -49 25 -23 45 -48 45 -54 0 -7 9 -20 19 -29 28 -25 44 -71 37 -102
-6 -22 -11 -25 -33 -19 -44 11 -156 103 -179 147 -8 15 -21 28 -28 28 -8 0
-17 6 -20 13 -3 6 -14 24 -24 38 -16 25 -24 37 -79 120 -13 19 -36 49 -52 65
-30 31 -41 95 -20 121 16 18 19 17 59 -20z"/>
<path d="M13993 8803 c-3 -9 -17 -13 -35 -11 -27 3 -32 -2 -46 -37 -9 -22 -19
-41 -24 -43 -4 -2 -8 -13 -8 -23 0 -11 -7 -33 -16 -50 -9 -18 -12 -39 -8 -52
10 -33 66 -81 112 -96 36 -12 43 -19 48 -49 4 -22 14 -36 25 -39 19 -5 23 -14
20 -45 -1 -10 2 -18 8 -18 5 0 13 -9 16 -20 4 -12 15 -20 29 -20 15 0 27 -9
34 -25 6 -14 19 -25 27 -25 12 0 15 -6 10 -20 -5 -16 -2 -20 19 -20 14 0 26 5
26 10 0 6 7 10 15 10 8 0 15 7 15 15 0 8 9 15 19 15 10 0 21 7 25 15 3 8 13
15 21 15 20 0 38 17 59 57 19 37 62 73 87 73 11 0 19 6 19 14 0 16 34 31 49
22 5 -3 20 3 34 14 19 15 40 20 90 20 l66 0 -14 27 c-19 36 -32 43 -93 43 -44
0 -57 4 -77 25 -18 20 -29 24 -50 19 -30 -7 -51 12 -34 32 6 7 -3 22 -29 45
-20 19 -41 34 -45 34 -4 0 -12 7 -17 15 -7 10 -10 11 -10 3 0 -20 -24 -15 -40
7 -8 11 -24 20 -37 20 -12 0 -24 4 -27 9 -3 4 -25 11 -48 15 -23 4 -45 11 -48
16 -9 14 -65 17 -62 3 1 -7 -7 -13 -18 -13 -11 0 -20 4 -20 9 0 15 -61 19 -67
4z"/>
<path d="M21934 8395 c0 -148 2 -211 3 -138 2 72 2 194 0 270 -1 76 -3 17 -3
-132z"/>
<path d="M13374 8314 c3 -9 6 -18 6 -21 0 -3 7 0 15 7 21 18 19 30 -6 30 -15
0 -19 -4 -15 -16z"/>
<path d="M15542 8008 c-19 -19 -14 -31 33 -78 25 -24 45 -49 45 -55 0 -6 13
-37 29 -70 16 -33 34 -90 41 -127 20 -109 34 -74 27 66 -7 132 -32 227 -69
259 -23 20 -88 23 -106 5z"/>
<path d="M17443 7973 c-16 -6 -17 -40 -3 -45 6 -2 12 -21 14 -43 2 -22 13 -62
24 -90 53 -130 75 -180 93 -209 10 -17 19 -40 19 -51 0 -20 44 -96 91 -157 14
-18 38 -62 54 -98 15 -36 45 -85 65 -110 20 -25 40 -58 44 -74 4 -16 20 -48
36 -70 15 -23 31 -56 35 -74 4 -18 13 -36 21 -39 8 -3 14 -11 14 -19 0 -10 7
-13 24 -8 19 4 26 1 31 -15 8 -27 36 -27 55 -1 17 23 55 26 76 6 16 -17 19
-56 4 -56 -5 0 -10 -18 -10 -40 0 -33 4 -40 20 -41 11 -1 26 -2 33 -3 9 -1 12
25 13 94 2 93 1 96 -27 123 -16 15 -43 30 -59 34 -34 6 -41 23 -10 23 11 0 20
5 20 10 0 6 -9 10 -20 10 -11 0 -20 5 -20 11 0 7 11 9 30 6 25 -6 30 -3 30 13
0 11 -4 20 -10 20 -5 0 -10 10 -10 21 0 12 -10 30 -22 41 -20 17 -23 31 -26
109 -4 80 -6 89 -23 89 -14 0 -19 7 -19 25 0 14 -5 25 -10 25 -6 0 -20 9 -32
19 -17 17 -20 28 -16 75 3 39 1 56 -7 56 -7 0 -20 16 -31 35 -10 19 -22 35
-25 35 -4 0 -16 16 -28 35 -11 20 -28 35 -39 35 -10 0 -32 17 -48 37 -34 43
-86 93 -96 93 -5 0 -8 6 -8 14 0 9 -7 12 -18 9 -20 -5 -67 37 -77 68 -4 10
-15 19 -26 19 -11 0 -17 5 -14 10 3 6 0 16 -7 23 -14 15 -85 28 -105 20z"/>
<path d="M18490 7935 c0 -8 9 -15 20 -15 11 0 20 7 20 15 0 8 -9 15 -20 15
-11 0 -20 -7 -20 -15z"/>
<path d="M18571 7804 c-12 -14 -12 -17 0 -25 10 -6 10 -9 2 -9 -7 0 -13 -6
-13 -14 0 -9 8 -12 24 -9 22 5 35 27 36 61 0 17 -32 14 -49 -4z"/>
<path d="M15446 7778 c-18 -57 -28 -127 -33 -227 -3 -64 -10 -125 -16 -135
-28 -55 -47 -199 -27 -211 6 -3 22 7 38 23 15 16 42 37 59 46 41 21 61 51 78
118 24 96 28 191 10 252 -9 31 -21 58 -26 62 -5 3 -21 23 -35 45 -25 40 -42
49 -48 27z"/>
<path d="M18648 7669 c-3 -8 -4 -30 -3 -49 0 -19 2 -68 3 -107 2 -57 5 -73 17
-73 15 0 20 -20 16 -77 -2 -18 2 -33 8 -33 6 0 11 -9 11 -19 0 -11 5 -23 11
-27 6 -3 8 -15 5 -26 -6 -25 25 -86 42 -80 7 2 12 -6 12 -22 0 -14 5 -26 11
-26 7 0 9 -10 5 -25 -6 -23 -4 -25 29 -25 l35 0 0 -70 0 -69 58 -4 57 -3 -57
-2 c-51 -2 -58 -4 -58 -22 0 -15 9 -22 30 -27 17 -3 33 -10 36 -14 3 -5 20 -9
39 -9 19 0 37 -4 40 -10 3 -5 17 -10 31 -10 13 0 24 5 24 10 0 6 29 10 68 10
l69 0 13 40 c10 31 11 46 2 65 -7 14 -12 55 -12 90 0 58 -2 64 -20 62 -11 -1
-20 -5 -20 -9 0 -4 -4 -8 -8 -8 -4 0 -8 17 -8 37 0 20 -5 38 -12 41 -7 2 -12
11 -12 21 0 15 -32 51 -45 51 -3 0 -5 -11 -5 -25 0 -25 -1 -25 -85 -25 -62 0
-85 3 -85 13 0 7 -9 19 -20 27 -16 12 -20 26 -20 77 0 61 -1 63 -25 63 -14 0
-25 5 -25 10 0 6 25 10 55 10 l55 0 0 70 c0 63 -2 70 -20 70 -11 0 -20 4 -20
8 0 4 9 14 20 22 20 15 28 60 10 60 -5 0 -10 -4 -10 -10 0 -5 -7 -10 -15 -10
-8 0 -15 -7 -15 -15 0 -8 -4 -15 -10 -15 -5 0 -10 16 -10 36 0 29 -3 35 -16
30 -10 -4 -21 0 -28 10 -17 22 -141 33 -148 13z"/>
<path d="M18927 7473 c-11 -10 -8 -73 3 -73 6 0 10 18 10 40 0 41 -2 45 -13
33z"/>
<path d="M19042 7352 c-20 -3 -23 -8 -20 -45 2 -29 8 -43 19 -45 13 -2 18 8
22 45 3 26 4 48 4 48 -1 1 -12 -1 -25 -3z"/>
<path d="M21934 6805 c0 -126 2 -177 3 -112 2 65 2 168 0 230 -1 62 -3 9 -3
-118z"/>
<path d="M19239 6713 c-3 -22 4 -79 12 -100 6 -16 16 -23 36 -23 21 0 24 3 15
12 -7 7 -12 33 -12 59 0 33 -5 49 -16 53 -21 8 -34 8 -35 -1z"/>
<path d="M19365 6350 c-3 -5 -3 -21 1 -35 4 -15 2 -25 -5 -25 -6 0 -11 -16
-11 -35 0 -32 -3 -35 -29 -35 -26 0 -41 -14 -41 -41 0 -5 31 -9 69 -9 l68 0 6
43 c2 23 8 50 12 60 5 13 2 17 -13 17 -15 0 -21 9 -26 35 -7 34 -19 44 -31 25z"/>
<path d="M14390 6090 c-28 -26 -50 -38 -61 -35 -10 3 -20 1 -24 -5 -4 -7 -13
-7 -27 1 -17 9 -24 8 -33 -5 -7 -9 -17 -16 -23 -16 -10 0 -32 -30 -32 -44 0
-3 37 -5 83 -4 51 0 98 -6 125 -15 23 -9 74 -17 112 -19 67 -2 71 -1 104 31
25 25 34 42 34 66 0 29 -4 35 -29 40 -16 4 -29 10 -29 14 0 9 -91 31 -129 31
-17 0 -42 -14 -71 -40z"/>
<path d="M18993 5973 c-70 -4 -91 -14 -57 -27 15 -6 235 3 243 9 1 2 0 8 -4
14 -6 11 -26 11 -182 4z"/>
<path d="M19130 5870 c0 -33 3 -40 20 -40 17 0 20 7 20 40 0 33 -3 40 -20 40
-17 0 -20 -7 -20 -40z"/>
<path d="M18942 5863 c4 -23 34 -28 53 -9 22 22 19 26 -21 26 -28 0 -35 -3
-32 -17z"/>
<path d="M19180 5781 c0 -12 5 -21 10 -21 6 0 10 6 10 14 0 8 -4 18 -10 21 -5
3 -10 -3 -10 -14z"/>
<path d="M18850 5320 c0 -5 7 -10 16 -10 8 0 12 5 9 10 -3 6 -10 10 -16 10 -5
0 -9 -4 -9 -10z"/>
<path d="M18865 5283 c5 -18 3 -22 -9 -17 -11 4 -16 0 -16 -11 0 -23 34 -15
38 9 2 10 -2 23 -8 30 -9 8 -11 6 -5 -11z"/>
<path d="M18293 5215 c-1 -39 2 -55 12 -55 18 0 27 55 13 85 -17 38 -24 30
-25 -30z"/>
<path d="M18763 5203 c-13 -2 -23 -11 -23 -19 0 -8 5 -12 10 -9 6 3 10 1 10
-4 0 -6 9 -11 20 -11 11 0 20 -7 20 -15 0 -8 9 -15 20 -15 17 0 20 7 20 40 0
37 -2 40 -27 39 -16 -1 -38 -4 -50 -6z"/>
<path d="M19280 5186 c0 -9 5 -16 10 -16 6 0 10 4 10 9 0 6 -4 13 -10 16 -5 3
-10 -1 -10 -9z"/>
<path d="M18870 5175 c0 -8 5 -15 10 -15 6 0 10 7 10 15 0 8 -4 15 -10 15 -5
0 -10 -7 -10 -15z"/>
<path d="M19230 5108 c0 -7 5 -20 10 -28 8 -12 10 -9 10 13 0 15 -4 27 -10 27
-5 0 -10 -6 -10 -12z"/>
<path d="M14678 4621 c-9 -10 -35 -22 -59 -26 -24 -4 -49 -14 -57 -21 -7 -8
-20 -14 -28 -14 -17 0 -19 -36 -1 -43 9 -4 8 -8 -3 -16 -10 -7 -11 -11 -2 -11
6 0 12 -11 12 -23 0 -30 31 -67 57 -67 11 0 28 -9 38 -20 9 -10 20 -19 24 -18
28 3 62 -5 75 -17 22 -22 28 -19 61 30 17 25 43 49 59 55 19 7 26 14 22 25 -3
9 1 18 9 21 21 9 19 63 -4 83 -10 9 -20 25 -23 36 -3 17 -11 20 -46 17 -28 -2
-48 3 -58 13 -21 21 -56 19 -76 -4z"/>
<path d="M17581 4478 c1 -75 11 -102 37 -106 12 -2 22 2 22 8 0 6 5 8 10 5 6
-4 10 22 10 69 l0 76 -40 0 -40 0 1 -52z"/>
<path d="M20666 4253 c10 -44 26 -54 22 -14 -2 19 -9 36 -16 39 -9 3 -11 -4
-6 -25z"/>
<path d="M16683 4180 c-41 -25 -42 -45 -3 -65 17 -9 30 -22 30 -30 0 -8 15
-17 38 -21 45 -8 175 -68 192 -90 7 -8 20 -14 29 -13 9 1 25 -1 36 -5 11 -5
32 -12 46 -18 20 -7 34 -5 59 9 44 25 48 40 13 55 -32 14 -63 45 -63 64 0 6
-13 17 -30 23 -16 5 -30 15 -30 20 0 6 -12 14 -27 17 -16 4 -39 15 -53 24 -22
14 -159 50 -193 50 -7 0 -27 -9 -44 -20z"/>
<path d="M17494 4158 c3 -13 6 -29 6 -36 0 -7 5 -10 10 -7 17 11 12 65 -6 65
-12 0 -15 -6 -10 -22z"/>
<path d="M18700 3930 c0 -11 5 -20 10 -20 6 0 10 9 10 20 0 11 -4 20 -10 20
-5 0 -10 -9 -10 -20z"/>
<path d="M17444 3815 c-10 -39 14 -85 47 -92 16 -3 29 -9 29 -14 0 -5 6 -9 14
-9 8 0 21 -9 30 -21 17 -24 49 -22 54 4 3 15 -31 119 -44 136 -2 2 -11 -2 -19
-9 -13 -11 -18 -10 -31 8 -22 32 -72 30 -80 -3z"/>
</g>
</svg>
