<?xml version="1.0" standalone="no"?>
<!DOCTYPE svg PUBLIC "-//W3C//DTD SVG 20010904//EN"
 "http://www.w3.org/TR/2001/REC-SVG-20010904/DTD/svg10.dtd">
<svg version="1.0" xmlns="http://www.w3.org/2000/svg"
 width="1280.000000pt" height="720.000000pt" viewBox="0 0 1280.000000 720.000000"
 preserveAspectRatio="xMidYMid meet">
<metadata>
Created by potrace 1.16, written by Peter Selinger 2001-2019
</metadata>
<g transform="translate(0.000000,720.000000) scale(0.100000,-0.100000)"
fill="#000000" stroke="none">
<path d="M0 4045 c0 -1735 4 -3154 8 -3152 5 1 24 -14 44 -33 19 -19 46 -42
59 -52 17 -11 21 -19 13 -27 -15 -16 -100 42 -113 77 -6 19 -10 -112 -10 -415
l-1 -443 6400 0 6400 0 -2 343 -2 342 -6 -270 c-3 -148 -7 -271 -8 -272 -1 -2
-95 -3 -209 -3 -204 1 -208 1 -186 19 30 25 14 31 -80 30 -70 -1 -71 -1 -32
-11 22 -6 49 -17 60 -24 16 -12 -199 -14 -1340 -13 -1152 0 -1357 2 -1342 13
17 13 15 15 -22 21 -42 7 -85 -1 -76 -14 2 -5 -12 -11 -33 -15 -66 -11 -4222
-7 -4222 4 0 6 7 10 15 10 20 0 19 16 -1 24 -9 4 -53 9 -98 12 -44 3 -92 8
-106 11 -47 12 -90 9 -90 -6 0 -7 -8 -20 -17 -27 -17 -12 -17 -13 -1 -14 9 0
20 -5 24 -11 9 -16 -1473 -8 -1495 8 -9 6 -13 14 -9 18 11 11 282 15 318 5 18
-5 37 -7 43 -3 5 3 28 7 51 9 23 2 73 6 113 9 63 5 73 3 85 -13 11 -16 29 -20
105 -24 51 -3 98 -1 105 4 9 6 8 8 -6 6 -21 -3 -34 17 -14 21 7 1 83 5 168 7
148 6 169 8 159 19 -11 11 -268 10 -321 -1 -32 -6 -60 -9 -62 -6 -3 2 -13 1
-23 -3 -36 -16 -73 -17 -73 -2 0 16 -51 28 -72 16 -21 -10 -481 -20 -497 -10
-8 5 -10 14 -5 22 6 12 5 12 -9 0 -14 -11 -17 -11 -17 0 0 8 -11 15 -24 15
-14 1 -39 9 -57 18 -18 9 -38 16 -46 16 -8 0 -11 5 -8 10 4 6 1 17 -5 25 -11
13 -4 15 44 15 32 0 55 -4 52 -8 -2 -4 41 -2 97 5 56 7 131 12 167 12 36 -1
117 4 180 10 63 6 277 13 475 16 491 8 619 11 842 20 175 7 192 9 196 26 4 13
14 19 34 19 15 0 23 4 17 8 -6 4 -15 21 -21 37 l-10 31 44 0 c25 1 48 6 52 11
9 15 70 33 109 33 29 0 33 2 22 15 -14 17 -70 21 -70 5 0 -6 -28 -10 -65 -10
-62 0 -65 1 -65 24 0 16 -7 26 -22 30 -39 10 -107 7 -129 -6 -17 -11 -23 -10
-26 0 -3 6 -10 9 -16 5 -7 -3 -9 -2 -4 2 4 5 1 18 -7 30 -14 21 -12 23 19 38
24 12 52 14 106 11 67 -5 113 5 98 20 -5 6 -115 18 -152 17 -10 0 -27 9 -38
20 -22 22 -74 25 -114 7 -30 -13 -34 -39 -5 -31 11 3 20 1 20 -5 0 -6 11 -12
25 -14 l25 -3 -25 -27 c-17 -19 -36 -28 -57 -28 -17 0 -49 -5 -71 -12 -35 -11
-41 -10 -56 8 -22 26 -121 34 -121 9 0 -9 -6 -15 -12 -12 -13 4 -14 23 -2 119
7 65 15 74 70 86 47 10 68 41 52 81 -6 14 -16 67 -23 116 -8 50 -19 108 -25
130 -20 70 -24 99 -11 91 6 -4 11 -19 11 -34 1 -15 9 -36 18 -48 16 -19 31
-21 222 -27 113 -4 277 -10 365 -13 88 -3 170 -10 182 -16 28 -14 36 -8 26 20
-5 11 -6 71 -3 134 5 107 6 113 26 110 20 -3 20 0 17 180 -3 162 -5 523 -3
523 1 0 2 415 4 922 2 823 4 924 18 945 9 14 18 38 20 54 l3 29 114 2 c117 1
145 10 121 38 -8 9 -29 15 -59 15 -25 0 -75 3 -111 6 -66 6 -66 7 -65 38 l0
31 115 5 115 5 2 55 c0 30 2 57 3 60 1 3 3 63 6 134 3 120 2 132 -19 165 l-22
36 -3 -35 c-2 -19 -10 -39 -19 -43 -11 -7 -13 -20 -8 -57 6 -42 -3 -86 -16
-80 -2 1 -16 -4 -31 -10 -36 -17 -54 -8 -61 30 -4 19 -12 30 -19 27 -7 -2 -12
-12 -10 -22 2 -11 -1 -16 -10 -13 -21 9 -38 -14 -38 -52 0 -11 -4 -20 -9 -20
-14 0 -19 122 -5 150 9 20 7 43 -9 115 -10 50 -26 104 -33 122 -8 17 -14 39
-14 49 0 53 -124 253 -218 349 -73 76 -153 145 -168 145 -6 0 -19 9 -28 19
-24 26 -188 105 -284 136 -128 41 -143 82 -19 51 149 -37 369 -162 494 -280
39 -36 74 -66 78 -66 14 0 -83 100 -146 149 -35 27 -81 64 -103 80 -21 17 -43
31 -48 31 -6 0 -48 18 -94 40 -46 22 -124 52 -174 67 -69 20 -90 31 -90 44 0
10 3 20 8 22 4 3 50 -6 102 -19 87 -22 229 -83 290 -125 14 -9 57 -37 95 -62
39 -26 99 -74 135 -107 35 -33 70 -60 77 -60 7 0 13 -5 13 -11 0 -6 17 -28 38
-49 61 -62 102 -108 102 -115 0 -10 51 -58 56 -52 2 2 -2 10 -11 17 -8 7 -15
21 -15 31 0 10 -4 21 -10 24 -5 3 -10 15 -10 26 0 11 -7 22 -15 25 -8 4 -15
13 -15 21 0 39 -256 292 -297 293 -6 0 -13 4 -15 8 -1 4 -20 21 -40 36 -21 16
-38 34 -38 42 0 7 -6 11 -14 8 -8 -3 -52 12 -98 34 -46 22 -130 54 -188 72
-58 17 -112 34 -120 37 -11 3 -9 8 9 17 l24 13 -32 5 c-21 3 -31 0 -31 -9 0
-7 -7 -13 -15 -13 -8 0 -15 5 -15 10 0 6 5 10 10 10 6 0 5 8 -2 20 -7 10 -9
22 -5 26 9 9 343 5 497 -5 64 -5 130 -6 148 -3 47 6 295 -18 310 -31 11 -8 16
-7 24 6 11 21 39 9 78 -32 54 -58 83 -110 77 -138 -10 -53 30 -86 53 -43 16
31 84 60 153 67 112 10 262 -25 255 -60 -1 -7 3 -28 9 -47 7 -19 12 -46 12
-60 -1 -171 17 -447 28 -436 8 8 17 117 18 208 0 43 3 78 6 78 4 0 6 8 5 18
-1 13 12 19 64 28 59 11 61 12 25 14 -22 1 -44 3 -50 5 -5 1 -20 3 -32 3 -18
2 -23 8 -23 28 0 33 17 64 35 64 9 0 15 10 15 25 0 14 4 25 9 25 17 0 21 34
12 84 -5 26 -5 62 0 79 4 18 11 44 14 60 4 22 11 27 34 27 16 0 34 -7 41 -15
10 -12 16 -13 27 -4 20 17 208 3 301 -22 52 -14 78 -17 87 -9 11 10 218 7 350
-4 28 -3 70 -6 95 -8 25 -2 50 -8 56 -14 7 -6 33 -8 68 -4 44 5 56 3 56 -8 0
-7 4 -10 10 -7 15 10 12 35 -5 35 -16 0 -20 36 -9 76 5 18 13 20 87 21 45 0
90 -4 100 -9 12 -6 29 -6 48 1 47 16 60 5 57 -48 -3 -39 -7 -48 -32 -60 -21
-10 -34 -11 -46 -3 -9 5 -23 6 -31 2 -8 -4 -28 -11 -46 -15 -29 -6 -33 -3 -48
26 l-17 32 -14 -24 c-24 -42 -44 -88 -44 -101 0 -8 12 -25 27 -40 16 -14 34
-33 41 -42 16 -20 36 -21 29 -1 -10 23 31 41 45 20 4 -6 -2 -13 -15 -16 -21
-6 -20 -7 8 -18 21 -9 40 -10 61 -3 22 6 40 6 60 -3 16 -6 61 -14 99 -18 l70
-6 -50 23 c-27 12 -62 26 -77 29 -16 4 -28 14 -28 21 0 15 8 15 135 -1 33 -4
70 -6 81 -5 21 2 151 -39 187 -59 16 -9 38 -5 26 4 -16 13 -180 87 -204 93
-63 14 -131 37 -145 50 -26 25 1 36 66 25 35 -5 66 -5 76 0 38 20 283 12 353
-12 12 -4 48 7 95 29 38 17 278 33 287 19 3 -5 17 -5 33 -2 35 8 80 -3 80 -20
0 -7 33 20 73 61 88 87 60 83 441 71 226 -7 261 -6 275 7 8 9 13 18 10 20 -3
3 -97 6 -209 6 -113 1 -259 6 -325 11 l-120 10 -62 -67 c-46 -49 -63 -61 -63
-47 0 18 -9 19 -156 21 -86 2 -164 7 -173 11 -9 5 -80 12 -156 15 -156 7 -344
15 -450 21 -38 2 -182 6 -320 10 -137 4 -279 11 -315 16 -36 5 -164 12 -285
15 -121 4 -223 9 -228 13 -6 6 -10 414 -5 533 1 25 5 27 55 34 31 4 80 1 116
-6 40 -8 184 -13 402 -15 202 -1 365 -7 401 -14 34 -6 99 -11 145 -10 81 2
188 -7 219 -18 17 -5 72 -10 235 -18 60 -3 114 -10 119 -15 6 -6 7 -10 3 -10
-4 0 -3 -9 3 -19 6 -13 25 -22 53 -26 30 -5 46 -13 52 -28 6 -11 19 -22 30
-23 26 -3 75 -13 100 -21 11 -3 29 -7 40 -9 11 -1 44 -9 74 -17 48 -12 56 -18
66 -48 14 -42 27 -41 38 3 20 79 39 119 56 117 33 -3 42 2 51 27 8 21 15 25
33 20 12 -3 29 -6 38 -6 9 0 19 -10 23 -22 l6 -23 14 26 c7 14 16 43 20 64 l8
39 18 -53 c24 -73 36 -81 44 -30 8 49 24 82 36 74 4 -3 11 -28 15 -55 4 -27
10 -52 15 -55 4 -2 13 23 20 58 l12 62 30 -38 c30 -37 62 -48 72 -24 10 25 34
-25 41 -86 4 -34 13 -75 20 -92 30 -72 36 -88 33 -90 -2 -2 -30 1 -63 5 -33 5
-146 11 -251 14 l-190 5 -47 -44 c-25 -25 -51 -45 -57 -45 -5 0 -10 -4 -10
-10 0 -5 2 -10 5 -10 12 0 61 35 82 58 25 28 34 28 243 18 80 -4 155 -12 168
-19 18 -8 28 -8 43 2 12 7 33 10 49 6 28 -6 28 -7 10 -25 -11 -11 -16 -27 -13
-39 5 -22 8 -22 113 -26 75 -3 80 -4 80 -20 0 -16 -22 -18 -127 -15 -47 1 -53
-1 -53 -18 0 -18 6 -20 63 -16 34 2 68 6 76 9 7 3 28 -4 47 -15 30 -19 46 -21
161 -17 70 2 139 6 153 10 13 4 41 2 62 -4 21 -5 44 -7 50 -3 22 14 119 6 138
-11 14 -13 41 -16 133 -17 64 0 121 3 126 7 6 3 11 15 11 26 0 17 -8 19 -102
21 -57 1 -123 2 -148 1 -121 -4 -144 -2 -157 8 -10 9 -17 9 -25 1 -10 -10 -90
7 -106 23 -9 8 450 -2 703 -16 187 -10 419 -17 810 -24 110 -2 238 -5 285 -7
50 -2 87 1 90 7 6 12 -199 25 -465 29 -104 2 -256 6 -336 11 -80 4 -231 9
-335 11 -165 4 -311 10 -640 27 -45 2 -90 9 -100 15 -17 10 -16 11 9 12 32 0
37 18 5 18 -13 0 -43 2 -68 4 l-45 4 -1 75 c-1 47 3 84 12 99 12 22 20 15 15
-13 -1 -5 9 -7 21 -5 15 2 24 11 26 26 2 12 9 22 15 22 7 0 25 7 41 15 16 9
30 14 30 13 10 -19 26 -79 26 -96 0 -12 5 -22 10 -22 6 0 10 21 10 48 0 66 8
74 68 70 46 -3 52 -6 52 -25 0 -12 5 -45 11 -74 14 -67 28 -47 30 41 0 36 4
73 8 83 6 16 9 14 25 -16 14 -25 17 -46 13 -77 -5 -41 8 -90 25 -90 4 0 9 12
9 28 2 26 2 41 7 127 2 36 4 38 16 22 7 -9 16 -43 20 -74 4 -31 9 -68 13 -82
11 -43 31 1 25 57 -3 32 1 59 10 77 l15 28 12 -34 c8 -24 14 -30 20 -21 8 13
50 19 189 26 71 3 72 3 78 -23 3 -14 10 -39 15 -55 5 -16 9 -40 9 -52 0 -13 4
-24 9 -24 9 0 21 58 21 108 0 17 4 32 10 32 9 0 40 -90 40 -116 0 -7 4 -15 9
-19 5 -3 15 20 21 50 10 50 13 54 31 45 10 -6 19 -19 19 -30 0 -32 17 -32 24
0 5 28 9 30 50 30 25 0 47 4 50 9 6 10 57 8 74 -3 7 -4 12 -18 12 -30 0 -13 6
-29 14 -35 11 -9 16 -6 24 19 12 32 21 36 50 21 9 -5 24 -12 33 -15 10 -2 24
-29 34 -61 21 -65 34 -61 36 12 3 74 26 103 33 41 7 -55 19 -88 32 -88 15 0
16 1 20 48 1 19 5 37 9 40 10 10 25 -20 25 -49 0 -15 7 -32 15 -39 15 -12 16
-11 31 38 6 20 34 14 34 -9 0 -11 7 -27 15 -35 13 -13 16 -12 26 5 10 15 15
17 25 6 9 -8 45 -13 106 -14 91 -1 94 -2 120 -32 l26 -31 13 58 c16 71 51 116
83 108 13 -3 40 2 61 10 35 15 40 15 57 -1 10 -9 22 -30 26 -47 4 -16 13 -31
19 -33 10 -4 34 37 45 77 3 8 13 -7 23 -33 10 -26 23 -46 28 -44 6 2 18 18 28
37 l18 33 12 -27 c13 -27 37 -34 56 -15 16 16 29 4 38 -33 6 -29 8 -30 15 -13
6 16 9 12 18 -25 7 -33 10 57 11 351 l1 396 -187 6 c-104 4 -229 7 -279 7
l-91 0 -67 -51 -66 -51 -221 6 c-121 3 -237 8 -257 11 -20 2 -150 7 -289 10
-293 6 -687 21 -892 35 -78 5 -146 9 -150 8 -27 -3 -61 4 -61 14 0 6 17 26 38
45 20 18 35 33 32 34 -45 6 -99 10 -327 23 -147 8 -351 18 -453 21 -102 3
-223 8 -270 11 l-85 6 -39 -56 c-45 -65 -13 -60 -299 -46 -104 5 -315 12 -470
15 -250 5 -460 16 -582 31 -67 8 -451 23 -592 24 -73 0 -133 2 -133 5 0 2 9
28 20 56 12 28 19 53 18 54 -2 1 -127 6 -278 9 -151 4 -300 9 -330 11 -30 3
-131 9 -225 15 -93 6 -213 13 -267 16 -107 7 -99 11 -113 -68 l-6 -38 -62 0
c-34 0 -111 4 -172 9 -60 6 -202 11 -315 12 -180 2 -616 17 -960 34 -63 3
-173 8 -245 10 -267 9 -305 18 -305 70 0 13 -3 30 -6 39 -6 15 125 16 1452 14
l1459 -3 -3 -41 c-3 -33 0 -42 15 -46 23 -6 254 10 262 18 10 9 -33 35 -50 31
-9 -3 -23 -1 -30 4 -9 6 2 9 31 9 28 0 40 3 32 9 -10 6 -4 10 18 15 45 9 310
8 308 -1 -4 -14 26 -83 35 -83 6 0 15 7 21 15 9 12 35 13 176 5 91 -5 253 -14
360 -19 107 -6 242 -12 300 -15 58 -3 174 -9 259 -12 145 -6 156 -8 178 -30
19 -19 28 -22 44 -14 10 6 19 21 19 33 0 13 5 28 11 34 19 19 1 31 -54 37 -28
3 -180 11 -337 16 -157 6 -292 14 -300 17 -27 11 -40 11 -40 2 0 -6 -4 -7 -10
-4 -5 3 -10 10 -10 16 0 15 1747 12 1752 -3 6 -16 131 -15 136 1 3 8 82 11
254 11 202 0 253 -3 262 -14 6 -8 39 -17 74 -20 59 -7 64 -6 69 13 7 27 29 27
36 1 5 -21 1 -20 185 -24 21 -1 28 4 30 22 3 21 8 22 83 22 78 0 79 0 79 -25
0 -22 4 -25 36 -25 19 0 44 4 54 10 13 7 21 6 30 -5 7 -8 25 -15 41 -15 26 0
29 4 29 30 0 23 5 30 19 30 14 0 21 -8 23 -27 4 -33 30 -41 130 -39 l73 2 3
32 3 32 417 0 417 0 19 -25 c24 -32 39 -32 64 0 l20 25 251 0 251 0 0 70 0 70
-6400 0 -6400 0 0 -3155z m2575 2984 c4 -17 5 -33 2 -35 -2 -3 -56 0 -118 6
-116 10 -152 13 -409 24 -187 9 -238 15 -219 27 8 5 177 9 376 9 l361 0 7 -31z
m229 -117 c3 -5 -8 -6 -25 -4 -16 2 -29 6 -29 8 0 8 49 4 54 -4z m2835 -218
c68 -5 90 -9 78 -16 -15 -8 -153 -4 -469 13 -7 0 -4 4 7 9 19 8 192 5 384 -6z
m3603 -61 c-26 -37 -82 -89 -82 -77 1 28 61 103 83 104 17 0 17 -2 -1 -27z
m131 10 c-7 -2 -21 -2 -30 0 -10 3 -4 5 12 5 17 0 24 -2 18 -5z m672 -22 c89
-15 -228 -11 -370 4 l-130 14 225 -5 c124 -3 248 -9 275 -13z m-2330 -11 c64
-1 75 -3 55 -11 -31 -13 -193 -2 -184 13 3 5 16 7 28 4 11 -3 57 -6 101 -6z
m4585 -78 c0 -7 -125 -92 -136 -92 -10 0 68 75 91 88 23 13 45 15 45 4z
m-1225 -41 c17 -5 142 -12 279 -16 138 -3 252 -8 255 -10 9 -5 348 -19 403
-16 27 1 50 -3 54 -10 5 -9 -68 -10 -302 -5 -170 4 -331 9 -359 11 -64 5 -283
14 -550 21 -115 3 -273 9 -350 14 -77 6 -155 10 -172 10 -18 0 -33 4 -33 9 0
13 734 4 775 -8z m-7772 -31 c-3 -11 -9 -20 -14 -20 -5 0 -9 9 -9 20 0 11 6
20 14 20 9 0 12 -7 9 -20z m-97 -90 c-6 -55 -4 -50 -16 -50 -11 0 -14 123 -3
134 13 12 24 -37 19 -84z m-86 20 c0 -11 -4 -20 -10 -20 -5 0 -10 9 -10 20 0
11 5 20 10 20 6 0 10 -9 10 -20z m3401 -40 c6 0 8 4 4 9 -9 15 15 24 30 11 8
-6 27 -10 42 -9 15 2 34 0 41 -4 6 -5 17 -5 22 -2 13 8 15 0 30 -105 14 -93
43 -148 67 -129 17 15 18 -12 1 -29 -9 -9 -14 -8 -22 3 -9 12 -59 17 -241 25
-126 5 -250 10 -274 10 l-44 0 7 63 c4 34 16 77 27 95 10 18 19 46 19 63 0 24
4 29 24 29 45 0 56 -10 56 -50 0 -46 24 -73 34 -38 3 13 6 33 6 46 0 27 28 41
41 21 5 -8 9 -24 9 -36 0 -13 5 -23 10 -23 6 0 10 12 10 26 0 14 10 38 23 54
l22 28 23 -29 c13 -16 28 -29 33 -29z m-1941 24 c6 -14 10 -55 11 -92 1 -37 5
-78 9 -92 9 -28 10 -24 15 35 13 150 17 165 41 165 9 0 14 -10 14 -27 0 -35
10 -73 19 -73 4 0 11 19 17 43 l9 42 85 7 c86 6 168 1 189 -11 9 -6 16 -35 20
-83 1 -5 5 -8 10 -8 5 0 12 22 16 50 4 27 11 52 15 55 13 8 43 -42 34 -56 -4
-7 -2 -10 7 -7 8 3 13 11 11 18 -3 14 26 50 40 50 4 0 17 -9 29 -21 l21 -21
14 21 c16 22 54 29 54 10 0 -6 28 -9 79 -6 l79 4 8 -106 c8 -113 21 -105 23
16 1 84 6 94 39 82 15 -6 41 -11 59 -13 38 -3 44 -7 46 -35 2 -29 9 -26 27 12
19 41 32 41 46 -1 l10 -32 24 25 c31 33 47 32 63 -7 13 -31 14 -32 21 -10 18
54 54 -2 54 -83 0 -16 1 -46 2 -65 3 -29 4 -26 10 20 7 45 14 83 19 97 2 4 55
-22 79 -37 12 -8 22 -20 22 -26 0 -21 40 -47 74 -48 18 -1 41 -7 49 -15 9 -7
21 -10 26 -7 14 9 20 -6 27 -59 l5 -47 -131 4 c-93 2 -133 7 -139 16 -6 10
-14 10 -35 3 -15 -7 -69 -9 -129 -5 -136 7 -346 13 -662 19 -143 3 -280 7
-305 10 -25 3 -101 8 -170 11 -69 2 -136 7 -149 10 l-24 5 22 23 c17 18 21 36
22 87 1 35 4 89 8 119 7 51 8 53 18 30 23 -54 34 -124 23 -156 -6 -16 -8 -41
-6 -54 2 -14 5 -27 5 -29 1 -3 5 -1 11 5 5 5 12 43 15 84 3 41 9 92 14 112 5
20 6 39 4 42 -7 7 6 26 18 26 5 0 14 -12 19 -26z m-244 -19 c20 -20 26 -22 30
-10 15 39 55 -5 56 -60 0 -17 -5 -49 -11 -71 -6 -23 -8 -49 -5 -58 3 -9 1 -16
-5 -16 -6 0 -8 -7 -5 -15 8 -21 -30 -27 -132 -21 -49 3 -93 6 -99 6 -5 1 4 8
20 15 27 12 28 14 10 21 -11 4 -23 12 -27 18 -12 18 -9 56 5 56 6 0 4 5 -5 11
-18 10 -26 69 -10 69 5 0 23 14 41 32 41 40 50 29 53 -67 2 -97 0 -117 -12
-125 -8 -5 -6 -9 5 -14 32 -12 35 -6 31 62 -5 71 12 192 26 192 5 0 20 -11 34
-25z m-2070 -19 c8 -8 14 -18 14 -23 0 -5 12 -9 28 -8 24 0 27 -3 27 -35 0
-34 -1 -35 -46 -40 -26 -3 -51 -4 -56 -3 -9 3 5 123 14 123 2 0 11 -6 19 -14z
m1802 -56 c3 -37 -9 -53 -22 -31 -7 11 4 71 13 71 4 0 8 -18 9 -40z m-1928 20
c0 -5 -7 -10 -16 -10 -10 0 -14 -6 -11 -14 3 -8 0 -17 -8 -20 -18 -7 -8 24 13
42 19 15 22 15 22 2z m1174 -50 c8 -8 -19 -9 -104 -4 -154 9 -169 20 -23 17
69 -1 120 -6 127 -13z m3559 -144 c3 -7 26 -17 51 -20 25 -4 48 -12 52 -17 6
-10 -190 -12 -208 -2 -13 7 4 34 26 43 33 13 73 11 79 -4z m-4095 -3 c-10 -2
-26 -2 -35 0 -10 3 -2 5 17 5 19 0 27 -2 18 -5z m3697 -18 c61 -2 117 -6 126
-10 10 -3 20 -2 24 4 9 15 48 14 70 -2 12 -10 15 -18 9 -28 -12 -19 -5 -131 9
-146 9 -9 21 -8 52 7 33 15 55 17 130 13 50 -3 99 -12 110 -19 11 -8 34 -14
52 -14 29 0 33 -3 33 -27 0 -14 -7 -35 -17 -45 -15 -17 -15 -18 3 -19 17 0 17
-1 -2 -9 -11 -4 -52 -7 -90 -5 -327 17 -523 26 -662 32 -235 9 -226 28 13 25
175 -2 432 -15 452 -23 18 -6 23 -4 29 13 12 39 -18 48 -160 49 -120 0 -262 9
-393 25 l-51 6 3 42 c2 22 4 51 4 64 1 19 6 22 39 22 22 0 52 -6 68 -14 16 -9
77 -18 139 -21 90 -6 114 -4 130 8 13 11 17 19 10 26 -14 14 -276 31 -298 20
-9 -6 -33 -7 -52 -3 -26 5 -35 11 -35 26 0 19 4 20 73 14 39 -4 122 -9 182
-11z m3760 -47 c2 -51 -4 -78 -16 -78 -5 0 -9 32 -9 72 0 56 3 69 12 60 7 -7
12 -31 13 -54z m-6450 38 c12 -12 8 -15 -32 -18 -66 -5 -161 6 -175 20 -9 9
10 12 91 12 74 0 106 -4 116 -14z m6365 -17 c-13 -46 -20 -48 -20 -6 0 25 4
37 14 37 12 0 13 -7 6 -31z m-7796 -5 c33 -16 266 -20 294 -5 10 5 61 4 127
-3 101 -12 119 -20 55 -28 -23 -3 -25 -7 -25 -48 0 -44 -1 -45 -30 -44 -16 1
-127 5 -245 8 -310 10 -320 10 -320 19 0 4 6 7 13 7 6 0 4 5 -5 11 -13 7 -18
22 -18 50 0 28 -4 39 -12 37 -7 -3 -13 -9 -13 -14 -1 -22 -19 -34 -51 -34 -19
0 -34 -4 -34 -10 0 -5 -5 -10 -11 -10 -5 0 -8 4 -4 9 3 5 1 13 -5 16 -20 12
-6 50 20 55 45 10 234 -1 264 -16z m886 16 c0 -5 -5 -10 -11 -10 -5 0 -7 -4
-4 -10 4 -6 -13 -10 -44 -10 -28 0 -51 5 -51 10 0 6 9 10 20 10 11 0 20 5 20
10 0 6 16 10 35 10 19 0 35 -4 35 -10z m1150 -11 c26 -16 -18 -41 -60 -34 -19
3 -70 7 -113 9 -81 4 -93 8 -83 25 8 13 237 13 256 0z m588 -15 c26 -7 29 -29
6 -38 -16 -6 -247 2 -271 9 -7 3 -10 11 -7 20 5 12 27 15 128 15 66 0 131 -3
144 -6z m502 -14 c30 0 73 -5 94 -13 l40 -14 -32 -11 c-29 -10 -243 -8 -279 3
-6 2 -9 13 -6 24 5 18 11 20 67 15 33 -2 86 -4 116 -4z m1398 -7 c-16 -2 -40
-2 -55 0 -16 2 -3 4 27 4 30 0 43 -2 28 -4z m-3071 -14 c26 -10 262 -17 348
-11 105 8 232 1 251 -13 23 -18 279 -22 289 -5 10 16 281 2 326 -16 27 -12 60
-14 150 -10 311 16 364 16 404 2 49 -17 279 -28 293 -14 6 6 65 8 145 6 111
-2 139 -6 153 -20 16 -16 15 -17 -16 -25 -28 -7 -35 -16 -45 -48 l-11 -40
-104 -1 c-58 -1 -197 2 -310 7 -113 4 -308 10 -435 14 -126 4 -237 11 -245 14
-24 12 -122 1 -117 -12 4 -13 38 -13 75 -2 21 7 23 5 20 -16 -3 -23 -6 -24
-98 -27 -126 -4 -172 6 -180 38 -6 25 -7 25 -125 27 -66 1 -162 5 -212 9 l-93
6 0 50 c0 30 -4 47 -10 43 -5 -3 -10 -21 -10 -39 0 -19 -6 -38 -12 -44 -13
-10 -501 1 -595 13 -47 7 -71 34 -80 91 l-6 34 111 0 c61 0 123 -5 139 -11z
m2323 2 c40 -11 31 -35 -15 -41 -67 -9 -238 3 -243 18 -2 6 7 16 20 21 27 11
201 12 238 2z m3927 -31 c-4 -27 -13 -34 -34 -26 -15 6 -15 8 -3 16 12 8 11
10 -5 10 -25 0 -4 15 24 17 15 1 20 -4 18 -17z m-3132 0 c24 -6 18 -8 -30 -9
-42 0 -56 2 -45 9 17 11 32 11 75 0z m-4592 -214 c-1 -29 -10 -48 -32 -70
l-30 -30 -54 17 c-30 9 -62 26 -72 37 -10 11 -26 20 -35 20 -10 0 -22 6 -28
13 -18 21 2 38 44 36 79 -3 154 3 154 13 0 5 12 8 28 6 25 -3 27 -6 25 -42z
m310 28 c87 -8 124 -29 132 -73 3 -20 0 -58 -6 -86 -6 -27 -11 -89 -10 -136 2
-54 -2 -89 -8 -94 -26 -15 -5 -20 78 -17 73 3 89 1 94 -12 7 -18 -10 -443 -18
-457 -12 -18 -36 -8 -47 19 -23 57 -35 88 -48 122 -15 37 -77 143 -112 191
-12 15 -21 42 -20 58 1 26 -4 32 -31 39 -22 6 -33 15 -35 30 -2 12 -7 22 -12
22 -5 0 -28 19 -52 43 -45 44 -90 82 -128 107 -63 42 -110 82 -110 95 0 7 14
26 30 42 17 15 30 33 30 38 0 6 11 27 25 47 l25 37 83 -4 c45 -3 108 -8 140
-11z m3877 -9 c32 -12 33 -14 10 -15 -23 -2 -95 -2 -144 -1 -12 1 -16 4 -10
10 23 22 94 25 144 6z m-2585 -11 c79 -5 105 -11 121 -26 21 -19 21 -19 27 3
5 20 10 21 64 15 32 -3 145 -8 252 -10 106 -3 196 -7 198 -10 3 -3 2 -21 -1
-40 -6 -33 -10 -35 -64 -46 -110 -23 -207 -51 -257 -76 -59 -28 -62 -29 -81
-9 -20 19 -34 19 -34 0 0 -9 -10 -20 -22 -25 -49 -19 -138 -87 -170 -130 -20
-27 -47 -49 -66 -56 -18 -6 -44 -22 -58 -37 -14 -15 -35 -27 -48 -27 -18 0
-23 -4 -19 -18 3 -12 -8 -31 -31 -53 -19 -19 -45 -54 -58 -79 -13 -25 -38 -65
-56 -89 -18 -24 -37 -62 -44 -83 -6 -21 -15 -38 -20 -38 -4 0 -7 -6 -5 -12 4
-21 -38 -20 -64 1 l-25 19 -2 199 c-1 114 2 204 8 213 7 12 31 15 110 15 81
-1 99 2 95 13 -3 7 -5 43 -5 78 0 44 -4 63 -11 59 -6 -4 -9 -31 -7 -64 l3 -56
-76 -1 c-100 -2 -112 5 -69 45 19 17 31 33 27 37 -3 3 0 12 7 20 23 23 47 116
49 194 l2 75 30 0 c21 0 33 -7 41 -23 l12 -23 6 25 c7 30 25 36 91 30 28 -2
95 -7 150 -10z m-717 -30 c43 -12 21 -24 -43 -24 -53 0 -63 3 -59 15 6 16 59
20 102 9z m1452 -54 c0 -5 -9 -10 -20 -10 -11 0 -20 5 -20 10 0 6 9 10 20 10
11 0 20 -4 20 -10z m1872 -28 c20 -10 46 -30 58 -45 l21 -27 -163 7 c-90 3
-165 7 -167 9 -5 4 41 50 64 62 32 18 145 14 187 -6z m-5303 -6 c-11 -9 -69
-14 -69 -6 0 5 15 10 33 12 32 3 44 1 36 -6z m671 -1 c70 -11 173 -65 125 -65
-10 0 -31 6 -48 14 -18 8 -57 22 -87 31 -52 17 -100 44 -55 32 11 -3 40 -9 65
-12z m1398 -27 c32 -8 42 -15 37 -26 -3 -8 0 -21 6 -28 9 -11 9 -14 0 -14 -6
0 -2 -13 10 -30 13 -16 21 -32 18 -34 -2 -2 -30 0 -61 4 -32 5 -111 11 -176
15 l-119 7 9 46 c4 26 13 51 18 56 25 25 165 27 258 4z m-470 0 c7 -7 8 -17 1
-30 -15 -27 -29 -22 -29 12 0 32 9 37 28 18z m1846 -41 c17 -12 17 -14 2 -20
-28 -11 -57 8 -39 26 9 10 17 9 37 -6z m-54 -6 c0 -21 -22 -29 -195 -72 -27
-7 -78 -25 -112 -41 -35 -16 -67 -27 -72 -24 -5 3 -11 0 -14 -8 -6 -14 -92
-76 -106 -76 -10 0 -67 -44 -146 -114 l-66 -59 -21 20 -20 21 23 31 c12 17 28
31 33 31 6 1 35 23 65 50 29 27 62 52 72 55 11 4 19 10 19 15 0 15 108 59 129
53 15 -4 21 -1 21 10 0 22 25 34 160 78 111 37 230 52 230 30z m114 -33 c-3
-5 -9 -8 -13 -8 -10 0 -21 37 -13 44 7 8 31 -27 26 -36z m286 22 c0 -5 -4 -10
-9 -10 -6 0 -13 5 -16 10 -3 6 1 10 9 10 9 0 16 -4 16 -10z m-2850 -20 c14
-10 22 -22 18 -26 -9 -8 -68 15 -68 27 0 4 -10 10 -22 12 -15 3 -11 5 12 5 21
1 45 -6 60 -18z m682 -30 c5 -14 12 -27 16 -30 4 -3 15 -17 25 -32 l17 -27
-34 -6 c-63 -12 -80 -4 -84 39 -2 21 -1 48 2 61 8 30 46 26 58 -5z m-601 -17
c8 -10 26 -26 39 -35 24 -16 24 -17 4 -17 -12 -1 -28 6 -35 15 -7 9 -24 20
-37 25 -13 5 -20 13 -17 19 9 15 29 12 46 -7z m2367 5 c-3 -7 -33 -20 -69 -30
-101 -29 -181 -55 -220 -71 -44 -19 -76 -6 -45 18 11 8 27 15 36 15 9 0 20 4
26 9 13 12 136 51 192 61 70 12 84 11 80 -2z m62 2 c0 -5 -9 -10 -19 -10 -11
0 -23 5 -26 10 -4 6 5 10 19 10 14 0 26 -4 26 -10z m-1430 -29 c31 -5 71 -15
89 -23 31 -12 32 -15 19 -29 -15 -15 -16 -68 -2 -90 3 -5 7 -82 9 -169 l4
-160 -27 -2 c-33 -2 -22 -2 -194 7 -79 4 -147 9 -151 12 -12 7 -5 251 8 276
11 22 13 31 16 82 1 13 5 22 10 19 14 -9 10 21 -6 42 -8 10 -15 22 -15 26 0
17 154 23 240 9z m-1050 -51 c0 -5 -4 -10 -9 -10 -6 0 -13 5 -16 10 -3 6 1 10
9 10 9 0 16 -4 16 -10z m166 -38 c-4 -3 -14 2 -24 12 -16 18 -16 18 6 6 13 -6
21 -14 18 -18z m1884 -5 c0 -8 -42 -41 -92 -75 -79 -52 -133 -99 -254 -226
-29 -30 -96 -142 -135 -224 -18 -37 -24 -43 -42 -37 -12 4 -33 9 -47 12 -40 9
-80 42 -80 67 0 13 11 28 28 38 18 11 33 32 41 57 7 26 22 46 40 57 18 10 31
29 35 46 3 15 9 27 14 26 11 -4 71 59 64 67 -3 3 8 5 25 5 17 0 36 -7 43 -15
11 -13 9 -21 -9 -45 -12 -17 -18 -30 -14 -30 5 0 14 9 21 21 9 14 19 18 32 14
16 -5 20 -2 20 18 0 35 130 149 245 213 47 26 65 29 65 11z m378 -39 c2 -13
-8 -20 -40 -28 -229 -60 -394 -145 -511 -264 -18 -18 -42 -38 -54 -45 -13 -6
-23 -18 -23 -26 0 -8 -6 -18 -13 -22 -7 -4 -33 -34 -57 -65 -48 -62 -60 -67
-39 -16 14 34 23 46 75 101 17 18 35 44 39 57 10 35 184 199 212 200 4 0 19 9
32 19 14 10 33 16 44 13 12 -3 18 -1 14 5 -11 17 17 33 110 64 103 34 205 37
211 7z m-2124 -63 c18 -14 16 -45 -3 -45 -11 0 -31 32 -31 49 0 15 11 13 34
-4z m67 -87 c13 -18 28 -36 34 -40 6 -5 6 -8 -2 -8 -7 0 -13 -8 -13 -17 0 -10
-4 -14 -8 -8 -4 6 -14 10 -22 10 -14 0 -27 32 -29 73 -1 31 14 27 40 -10z m63
-114 c9 -3 13 -10 10 -15 -3 -5 2 -9 10 -9 9 0 16 -4 16 -10 0 -17 -36 -11
-53 8 -22 24 -13 37 17 26z m40 -67 c10 -7 19 -25 19 -40 1 -15 8 -27 16 -27
7 0 11 -6 8 -15 -4 -8 -2 -17 4 -20 14 -9 -19 -38 -36 -31 -8 3 -12 12 -9 21
3 8 1 15 -5 15 -6 0 -11 9 -11 19 0 11 -5 23 -10 26 -11 7 -10 65 0 65 3 0 14
-6 24 -13z m588 -36 c55 -12 84 -31 60 -39 -16 -5 -15 -28 2 -55 20 -30 26
-110 14 -180 -7 -37 -7 -62 0 -70 5 -6 8 -31 6 -54 -2 -23 1 -54 6 -69 l11
-27 -48 7 c-27 3 -109 9 -183 12 -164 6 -180 9 -180 33 0 22 33 54 45 44 4 -5
4 1 0 12 -5 11 -10 54 -12 95 -4 99 -4 98 -20 104 -19 8 -18 105 2 112 8 3 17
15 21 27 9 29 29 48 61 56 37 10 148 6 215 -8z m401 -155 c26 -20 20 -76 -9
-76 -10 0 -14 -11 -13 -37 1 -24 3 -30 6 -15 2 12 8 20 13 17 5 -3 -10 -47
-33 -98 -23 -50 -42 -93 -42 -94 0 0 -9 -3 -20 -5 -18 -3 -20 3 -21 47 -1 28
-2 55 -4 60 -8 27 -4 95 6 99 6 2 11 23 11 45 0 23 3 44 6 47 5 5 54 19 77 23
3 0 13 -6 23 -13z m-903 -121 c0 -28 -12 -32 -30 -10 -14 16 -6 35 16 35 8 0
14 -10 14 -25z m3359 -188 c0 -21 -1 -21 -9 -2 -12 28 -12 37 0 30 6 -3 10
-16 9 -28z m-2884 -42 c55 -8 103 -15 106 -15 13 0 16 -76 3 -95 -7 -11 -14
-36 -15 -55 -2 -19 -9 -44 -16 -55 -7 -11 -13 -27 -13 -36 0 -10 -5 -19 -11
-21 -5 -2 -13 -24 -16 -48 -3 -25 -12 -53 -20 -62 -13 -15 -13 -18 5 -29 11
-7 18 -19 15 -26 -4 -9 3 -16 16 -20 11 -3 21 -10 21 -16 0 -7 -33 -8 -97 -4
-54 4 -140 7 -192 7 -82 0 -92 2 -81 15 7 8 19 15 26 15 8 0 14 5 14 10 0 6 6
10 13 9 23 -3 57 13 57 27 0 8 7 14 15 14 8 0 15 -7 15 -16 0 -9 5 -14 11 -12
6 2 10 7 9 12 -1 5 4 13 12 17 10 7 10 9 0 9 -7 0 -10 5 -7 10 3 6 0 10 -9 10
-8 0 -17 6 -19 13 -4 7 -6 6 -6 -5 -1 -9 5 -19 12 -21 7 -4 6 -6 -5 -6 -26 -1
-48 10 -48 25 0 8 -5 14 -11 14 -5 0 -7 5 -4 10 4 6 -5 10 -19 10 -19 0 -26 5
-26 20 0 11 -3 20 -7 20 -5 0 -7 26 -5 59 2 34 -3 77 -11 102 -13 38 -13 48
-1 71 19 36 30 42 94 49 86 10 89 9 195 -6z m334 -266 l35 -18 -30 1 c-16 0
-50 -3 -75 -7 -43 -7 -47 -6 -54 15 -5 14 -2 25 6 30 17 11 77 0 118 -21z
m-269 -58 c0 -6 -4 -13 -10 -16 -5 -3 -10 1 -10 9 0 9 5 16 10 16 6 0 10 -4
10 -9z m258 -57 c14 -4 21 -12 18 -20 -3 -8 1 -14 8 -14 8 0 17 -11 20 -25 4
-14 12 -25 19 -25 6 0 13 -11 13 -25 1 -14 -1 -23 -5 -20 -4 2 -8 -3 -8 -11 0
-8 6 -13 14 -10 7 3 13 1 13 -3 0 -15 -25 -19 -124 -20 l-97 -1 5 73 c2 39 5
80 5 90 1 14 10 17 49 17 26 0 57 -3 70 -6z m102 -26 c0 -7 -4 -19 -9 -26 -7
-11 -10 -10 -15 3 -3 9 -4 21 0 26 8 13 24 11 24 -3z m-838 -58 c12 0 19 -3
15 -6 -3 -3 -2 -16 3 -29 7 -20 5 -25 -20 -35 -36 -15 -75 2 -65 28 4 9 10 25
12 35 4 11 11 16 20 13 8 -3 24 -6 35 -6z m390 -50 c48 -5 95 -14 105 -20 15
-9 12 -10 -18 -8 -38 2 -69 -15 -69 -38 0 -18 18 -27 51 -26 16 0 29 -4 29
-10 0 -5 -6 -8 -14 -5 -8 3 -16 -2 -19 -14 -3 -10 -2 -19 1 -19 4 0 7 -13 7
-30 0 -16 -3 -30 -6 -30 -11 0 8 -72 21 -80 6 -4 12 -18 14 -31 9 -74 19 -120
27 -125 5 -3 9 -10 9 -16 0 -7 -38 -8 -127 -3 -71 4 -159 7 -198 6 -38 0 -88
3 -110 7 -34 7 -37 9 -18 15 24 9 33 26 40 82 2 22 9 43 15 46 7 4 6 9 -1 14
-9 5 -9 10 0 21 9 11 8 18 -1 30 -11 13 -10 16 8 21 12 3 22 13 22 22 0 12 10
16 42 16 36 0 43 3 43 20 0 17 -7 20 -45 21 -72 2 -72 2 -62 22 4 9 8 31 8 49
-1 17 1 31 4 31 22 -2 40 4 40 12 0 6 -15 10 -32 11 -31 1 -32 1 -8 9 35 11
139 11 242 0z m390 -96 c42 8 58 -33 45 -112 -8 -52 -12 -58 -34 -60 -40 -3
-45 -11 -37 -51 13 -61 11 -115 -4 -133 -13 -16 -12 -17 8 -13 21 4 49 -17 50
-37 0 -9 -155 -10 -188 -2 -16 5 -21 11 -16 23 3 9 6 23 5 31 -1 8 -1 40 0 70
0 30 0 66 -1 80 -5 87 -6 168 0 195 5 25 12 31 40 35 24 4 46 -1 69 -13 22
-12 45 -17 63 -13z m-772 16 c0 -5 -4 -10 -10 -10 -5 0 -7 -6 -4 -14 8 -22
-14 -56 -36 -56 -12 0 -17 5 -14 14 3 7 -2 16 -10 19 -20 8 -21 27 -1 27 9 0
12 6 9 15 -5 12 2 15 30 15 20 0 36 -4 36 -10z m-10 -315 c0 -1 -7 -8 -15 -15
-13 -10 -15 -9 -15 8 0 15 5 20 15 16 8 -4 15 -7 15 -9z m-24 -75 c9 0 12 -4
9 -10 -8 -13 -52 -13 -60 -1 -3 6 3 14 12 20 11 6 19 6 21 0 2 -5 10 -9 18 -9z
m410 -1 c142 -15 139 -13 141 -95 1 -38 -3 -75 -9 -81 -6 -7 -7 -13 -2 -13 5
0 9 -58 9 -128 0 -155 -3 -162 -84 -163 l-56 -1 62 -12 c78 -16 93 -28 86 -70
-4 -25 -1 -35 12 -40 23 -8 31 -1 38 33 8 36 36 44 146 39 78 -3 80 -4 98 -63
10 -34 -28 -28 358 -55 93 -7 179 -16 192 -21 12 -4 34 -25 47 -46 48 -72 161
-240 191 -284 17 -24 38 -53 48 -63 9 -11 17 -25 17 -31 0 -7 9 -20 20 -30 11
-10 20 -22 20 -27 0 -19 116 -130 150 -145 19 -8 60 -19 90 -24 66 -12 130
-38 130 -53 0 -6 -15 -18 -33 -26 -55 -26 -40 -72 31 -94 19 -6 22 -4 24 21 2
49 0 78 -6 94 -9 21 19 29 104 29 88 0 110 -7 107 -34 -1 -16 4 -21 23 -22 14
-1 30 -2 35 -4 6 -1 13 -2 18 -1 4 0 7 -15 7 -34 0 -31 -3 -35 -25 -35 -22 0
-25 -4 -25 -39 0 -31 -4 -41 -20 -46 -11 -3 -24 -3 -30 0 -5 3 -10 2 -10 -4 0
-5 -11 -8 -24 -7 -18 2 -22 -1 -19 -15 9 -34 -80 -38 -113 -4 -17 17 -18 29
-1 19 6 -4 4 2 -6 14 -16 18 -23 19 -45 9 -42 -17 -52 -28 -52 -52 0 -26 11
-36 58 -55 29 -11 35 -11 43 1 7 11 12 12 28 2 11 -7 27 -10 36 -7 9 4 15 0
15 -10 0 -8 6 -13 13 -10 7 2 23 -4 35 -15 17 -14 19 -20 8 -24 -7 -3 -18 -1
-24 5 -16 16 -50 0 -69 -33 -28 -48 -38 -35 -33 44 2 30 -19 37 -40 12 -9 -10
-9 -15 -1 -15 6 0 11 -5 11 -10 0 -6 -10 -8 -24 -4 -68 17 -90 -52 -32 -98 19
-16 41 -28 48 -28 9 0 8 -4 -2 -14 -10 -9 -47 -16 -105 -20 -126 -7 -353 -42
-450 -69 -191 -54 -328 -162 -424 -334 -21 -37 -47 -85 -59 -105 -11 -20 -24
-52 -27 -71 -4 -20 -17 -45 -29 -56 -24 -23 23 -19 -601 -55 -362 -22 -565
-35 -600 -41 -16 -2 -148 -9 -293 -16 -269 -11 -292 -9 -292 26 0 15 93 31
260 45 350 30 793 95 1030 151 289 69 437 198 665 584 54 91 155 299 155 318
0 7 4 17 9 23 11 12 41 147 41 185 0 68 -43 209 -100 325 -93 191 -141 221
-405 250 -297 32 -679 18 -844 -32 -154 -46 -454 -220 -726 -421 -44 -33 -85
-58 -91 -56 -6 2 -15 -5 -20 -16 -5 -11 -28 -35 -50 -53 -23 -18 -72 -60 -109
-93 -65 -58 -69 -60 -139 -67 -39 -4 -100 -7 -136 -7 -53 0 -61 2 -45 11 11 6
37 25 57 42 61 52 91 72 136 95 23 12 42 26 42 31 0 6 5 10 10 10 6 0 34 17
63 38 29 20 61 43 72 50 11 7 40 25 63 40 24 15 92 59 151 97 112 73 138 89
307 190 101 60 212 118 292 151 29 12 39 20 30 25 -13 8 -18 8 -67 -6 -16 -5
-21 -4 -17 4 4 6 0 11 -8 11 -9 0 -16 -8 -16 -19 0 -14 -6 -19 -21 -18 -20 1
-21 5 -15 67 3 36 6 77 6 93 l0 27 90 0 c94 0 97 -1 91 -47 -1 -6 3 -14 8 -18
9 -5 31 53 31 81 0 16 43 23 194 31 120 7 126 8 71 14 -33 4 -106 8 -162 9
-99 2 -103 3 -98 24 11 57 13 117 6 171 -6 44 -9 50 -10 24 0 -20 -4 -39 -8
-43 -13 -13 -31 -76 -23 -81 21 -13 20 -63 -1 -99 l-21 -37 -82 3 -81 3 1 70
c1 39 2 137 3 219 l1 148 37 -7 c37 -8 57 -10 116 -13 19 -2 27 -7 27 -20 0
-19 18 -42 32 -42 4 0 8 18 8 39 0 57 31 90 95 100 73 12 153 12 261 0z m434
-283 c0 -224 0 -224 -22 -230 -34 -9 -181 -7 -196 3 -13 8 -17 99 -8 186 1 17
4 83 4 148 l2 117 110 0 110 0 0 -224z m-334 -457 c3 -5 -15 -9 -40 -9 -48 0
-57 -11 -33 -43 14 -19 113 -37 211 -37 38 0 107 -5 155 -11 73 -10 91 -9 123
4 39 16 55 9 44 -18 -4 -12 -35 -15 -171 -15 l-165 0 0 -29 c0 -34 -8 -41 -53
-48 -18 -3 -34 -7 -37 -9 -11 -12 29 -24 70 -22 39 3 45 6 42 24 -2 18 2 20
28 16 16 -2 28 -8 25 -12 -3 -4 5 -10 18 -14 36 -9 117 -7 117 4 0 6 24 10 54
10 l53 0 6 -57 c4 -32 1 -101 -6 -153 l-12 -95 -46 -3 c-29 -2 -69 5 -105 18
-81 29 -214 39 -233 16 -7 -9 -19 -16 -26 -16 -7 0 -45 -13 -83 -30 -74 -31
-139 -38 -186 -20 -34 12 -33 -3 1 -25 24 -16 24 -18 9 -27 -14 -8 -23 -3 -45
22 -26 31 -30 33 -81 28 -35 -4 -58 -11 -66 -23 -11 -15 -12 -13 -7 18 5 31 1
39 -23 61 -24 21 -39 25 -91 26 -59 0 -63 -2 -78 -30 -8 -16 -15 -35 -15 -43
0 -8 -14 -33 -31 -57 l-31 -42 -59 6 c-46 6 -64 3 -84 -10 -20 -13 -29 -14
-38 -5 -6 6 -18 11 -26 12 -9 0 -29 19 -46 41 -36 49 -51 56 -60 29 -8 -26
-41 -27 -54 -3 -14 26 -10 80 6 86 7 3 19 3 27 0 14 -6 20 18 29 113 1 19 12
39 27 51 89 70 444 261 530 285 122 35 441 60 456 36z m1392 -83 c3 -12 -1
-17 -10 -14 -7 3 -15 13 -16 22 -3 12 1 17 10 14 7 -3 15 -13 16 -22z m-2617
-226 c-13 -11 -29 -20 -37 -20 -8 0 -14 -4 -14 -10 0 -19 -59 -39 -190 -66
-74 -15 -166 -38 -204 -51 -39 -13 -97 -33 -129 -43 -85 -29 -396 -166 -490
-217 -105 -56 -157 -106 -157 -148 0 -58 34 -73 173 -74 69 -1 78 -3 75 -18
-2 -10 -13 -22 -26 -28 -12 -5 -22 -14 -22 -20 0 -5 -17 -29 -38 -53 l-37 -43
-200 -10 c-110 -6 -247 -17 -305 -25 -78 -10 -319 -20 -369 -14 -2 0 2 7 9 15
16 19 5 63 -21 86 -24 21 -16 27 49 39 149 26 225 42 287 60 39 12 88 26 110
32 62 17 63 27 1 27 -30 0 -60 2 -66 6 -17 11 -1 25 29 25 16 0 42 7 57 15 16
8 41 15 56 15 15 0 30 5 33 10 3 6 13 10 21 10 17 0 55 17 304 138 91 44 215
101 275 126 61 26 119 51 130 56 123 56 379 141 475 159 239 45 252 46 221 21z
m1894 -15 c122 -7 142 -12 148 -35 6 -25 1 -30 -83 -80 -41 -24 -86 -56 -100
-71 -21 -24 -34 -28 -85 -30 -58 -2 -60 -2 -57 22 1 13 4 58 6 99 4 96 10 110
44 105 15 -2 72 -7 127 -10z m823 -54 c-15 -5 -21 7 -13 26 7 17 8 17 15 -2 4
-11 3 -22 -2 -24z m-57 -16 c11 4 19 2 19 -4 0 -6 -4 -11 -10 -11 -5 0 -10
-11 -10 -25 0 -27 -1 -28 -24 -19 -17 6 -21 40 -9 71 7 17 8 17 11 0 3 -12 9
-16 23 -12z m-2751 -284 c0 -12 -26 -21 -61 -21 -29 0 -39 14 -16 23 21 9 77
7 77 -2z m198 -47 c11 -12 11 -14 -2 -14 -9 0 -16 -4 -16 -10 0 -10 21 -15 50
-12 8 1 31 -1 50 -5 l35 -6 -30 -7 c-16 -3 -35 -3 -42 2 -6 5 -13 5 -15 0 -1
-6 -38 -11 -80 -14 l-78 -3 0 42 c0 38 2 42 28 45 41 5 85 -3 100 -18z m322
13 c-14 -6 -27 -14 -30 -17 -12 -13 -52 -30 -80 -35 -29 -5 -30 -4 -24 22 10
38 19 43 94 42 57 0 62 -2 40 -12z m-490 -17 c0 -5 -4 -10 -9 -10 -4 0 -6 -11
-4 -24 5 -26 -1 -30 -72 -42 -22 -3 -66 -15 -99 -26 -62 -20 -78 -18 -53 6 8
9 17 21 19 27 2 6 30 13 63 15 32 2 61 6 63 9 6 5 -46 8 -90 5 -40 -2 -34 15
10 28 63 20 172 27 172 12z m-772 -70 c4 -23 -15 -43 -30 -34 -10 6 -11 48 -1
58 12 12 28 0 31 -24z m-87 -151 c-12 -12 -25 -18 -28 -15 -3 3 5 14 18 25 31
25 39 17 10 -10z m9 -58 c0 -14 -41 -41 -62 -41 -22 0 -23 8 -1 32 17 19 63
25 63 9z m745 -150 c0 -18 -56 -34 -70 -20 -7 7 -4 15 10 25 24 18 60 15 60
-5z m-311 -39 c46 -20 23 -25 -51 -13 -37 7 -88 14 -112 16 -24 2 -46 7 -50
10 -11 12 183 -1 213 -13z m3228 -9 c9 -10 24 -24 32 -31 9 -7 16 -24 16 -38
0 -13 7 -27 15 -30 8 -4 15 -15 15 -25 0 -10 5 -19 10 -19 6 0 10 -7 10 -15 0
-11 -5 -12 -23 -6 -13 5 -34 7 -48 4 -27 -5 -64 21 -54 37 3 5 1 20 -5 34 -8
21 -14 25 -37 20 -38 -7 -73 17 -54 39 7 9 22 14 34 11 30 -5 57 5 57 22 0 19
12 18 32 -3z m-197 -29 c0 -29 -22 -38 -60 -24 -25 10 -26 12 -12 28 9 9 28
18 44 19 24 2 28 -2 28 -23z m-3232 -51 c-13 -2 -33 -2 -45 0 -13 2 -3 4 22 4
25 0 35 -2 23 -4z m3347 -43 c12 -8 12 -10 -5 -10 -11 0 -27 5 -35 10 -12 8
-12 10 5 10 11 0 27 -5 35 -10z m292 -27 c18 -10 35 -21 36 -25 2 -5 13 -8 25
-8 32 0 43 -12 43 -42 0 -22 -6 -29 -28 -33 -59 -13 -108 13 -87 46 5 8 9 21
9 29 0 13 -1 13 -10 0 -8 -13 -10 -13 -10 1 0 9 -7 19 -15 23 -16 6 -21 26 -6
26 5 0 24 -8 43 -17z m-3227 -13 c4 -6 -1 -22 -10 -37 -22 -34 -44 -16 -27 22
12 26 26 32 37 15z m3465 -44 c0 -9 -8 -12 -27 -8 -25 5 -25 6 -8 13 29 11 35
10 35 -5z m64 -2 c9 -24 0 -29 -19 -11 -19 19 -19 27 -1 27 8 0 17 -7 20 -16z
m-677 -197 c65 -39 126 -110 149 -175 7 -21 13 -74 14 -119 0 -133 -50 -224
-165 -297 -95 -61 -184 -71 -298 -34 -55 18 -76 31 -120 77 -60 64 -72 85 -91
158 -31 117 9 251 104 343 73 71 131 91 250 87 89 -3 99 -6 157 -40z m-3137
-28 c16 -6 30 -15 30 -19 0 -5 -17 -2 -37 7 -47 20 -154 21 -208 3 -22 -8 -43
-13 -47 -12 -3 1 -12 -5 -18 -13 -7 -8 -18 -15 -24 -15 -18 0 -108 -79 -130
-113 -37 -61 -56 -98 -56 -107 0 -6 25 -10 56 -10 43 0 68 7 105 27 42 24 48
32 51 63 l3 35 15 -33 c15 -33 24 -35 74 -16 25 10 19 -14 -11 -42 l-27 -25
-8 22 c-9 23 -9 23 -28 -8 -25 -42 -29 -43 -131 -53 -50 -5 -93 -11 -95 -13
-18 -17 -14 -81 7 -136 27 -68 45 -81 34 -24 l-7 38 40 -45 c34 -38 43 -43 59
-34 21 12 66 92 58 104 -2 4 14 10 37 14 23 4 46 14 52 22 9 12 18 13 37 6 38
-15 88 19 89 61 0 10 8 17 21 17 15 0 19 5 14 19 -4 13 0 20 16 24 12 3 18 10
14 17 -5 8 -13 6 -26 -6 -19 -17 -21 -17 -39 2 -20 20 -20 20 7 22 35 3 59 25
95 90 42 74 48 57 7 -22 l-33 -64 24 -22 c51 -44 132 -65 143 -37 4 9 8 9 15
-2 21 -29 30 -1 17 49 -18 68 -49 115 -107 161 -27 21 -47 39 -43 39 32 0 121
-86 151 -146 15 -31 19 -60 19 -139 0 -125 -21 -171 -113 -256 -75 -68 -127
-96 -211 -111 -97 -18 -232 15 -287 72 -10 11 -31 32 -46 47 -65 66 -88 227
-46 326 12 29 25 54 28 57 3 3 16 21 28 41 34 55 145 125 232 146 58 13 149 9
200 -8z m33 -66 c-17 -6 -55 -43 -87 -85 -19 -25 -39 -40 -61 -44 -36 -6 -75
9 -75 30 0 8 -7 16 -15 20 -8 3 -15 11 -15 18 0 7 -12 26 -26 43 -17 20 -21
31 -13 34 7 2 20 -6 28 -19 64 -92 115 -94 209 -8 34 31 46 37 55 28 9 -10 9
-14 0 -17z m-1128 -53 c25 -7 45 -19 45 -26 0 -8 -5 -14 -10 -14 -22 0 -130
68 -130 82 0 5 11 1 25 -10 13 -10 45 -25 70 -32z m814 -10 c0 -9 -4 -8 -9 5
-5 11 -9 27 -9 35 0 9 4 8 9 -5 5 -11 9 -27 9 -35z m176 -139 c-6 -5 -23 -13
-40 -17 -27 -7 -29 -6 -16 9 7 10 25 17 39 17 16 0 22 -4 17 -9z m-125 -63 c0
-20 -58 -48 -98 -48 -54 1 -122 16 -135 30 -9 9 -6 10 13 6 82 -18 190 -10
190 14 0 6 7 10 15 10 8 0 15 -6 15 -12z m-1030 -8 c-20 -13 -50 -13 -50 0 0
6 15 10 33 10 24 0 28 -3 17 -10z m5109 -346 c2 -2 -14 -4 -37 -4 -23 0 -42 4
-42 9 0 9 69 4 79 -5z m-2221 -201 c-21 -2 -57 -2 -80 0 -24 2 -7 4 37 4 44 0
63 -2 43 -4z m-431 -37 c-7 -7 -43 -13 -82 -14 -75 -3 -83 14 -10 20 88 8 105
7 92 -6z m51 -13 c-10 -2 -26 -2 -35 0 -10 3 -2 5 17 5 19 0 27 -2 18 -5z
m6830 -20 c-10 -2 -26 -2 -35 0 -10 3 -2 5 17 5 19 0 27 -2 18 -5z"/>
<path d="M4682 6225 c0 -16 2 -22 5 -12 2 9 2 23 0 30 -3 6 -5 -1 -5 -18z"/>
<path d="M6982 5835 c0 -16 2 -22 5 -12 2 9 2 23 0 30 -3 6 -5 -1 -5 -18z"/>
<path d="M4736 5846 c8 -21 52 -32 67 -17 14 14 9 18 -36 26 -32 6 -36 5 -31
-9z"/>
<path d="M4370 5650 c0 -5 6 -10 14 -10 8 0 18 5 21 10 3 6 -3 10 -14 10 -12
0 -21 -4 -21 -10z"/>
<path d="M4358 1827 c-14 -12 -31 -32 -37 -44 -15 -29 -13 -94 2 -113 79 -101
239 -31 212 92 -17 77 -118 115 -177 65z"/>
<path d="M3181 2351 c-18 -12 -5 -17 57 -26 59 -8 65 -2 22 20 -33 17 -58 19
-79 6z"/>
<path d="M3849 2261 c9 -15 19 -19 53 -16 23 2 44 9 46 15 3 8 0 10 -7 6 -6
-4 -11 -3 -11 2 0 4 -21 9 -46 11 -42 2 -45 1 -35 -18z"/>
<path d="M2140 2000 c-8 -5 -11 -12 -8 -16 10 -9 38 3 38 16 0 12 -10 13 -30
0z"/>
<path d="M1953 2003 c11 -3 16 -11 13 -19 -3 -8 1 -14 8 -14 15 0 28 24 19 34
-4 3 -18 5 -32 5 -18 -1 -21 -3 -8 -6z"/>
<path d="M4476 1151 c-12 -19 4 -69 31 -101 34 -41 74 -40 141 4 48 31 51 34
34 48 -37 33 -194 69 -206 49z"/>
<path d="M4360 1120 c-38 -19 -140 -123 -140 -142 0 -6 8 -4 19 6 18 16 18 16
14 -9 -3 -14 -1 -25 3 -26 5 0 20 -2 32 -5 30 -5 89 22 103 47 5 11 9 48 7 83
l-3 64 -35 -18z"/>
<path d="M4424 1107 c-6 -17 2 -95 13 -123 7 -19 20 -17 32 4 7 13 6 34 -5 68
-17 57 -31 74 -40 51z"/>
<path d="M4685 1041 c-23 -10 -105 -89 -105 -102 0 -21 34 -6 76 33 67 62 78
89 29 69z"/>
<path d="M4711 996 c-19 -19 -34 -47 -38 -69 -5 -32 -1 -41 30 -72 19 -19 42
-35 50 -35 18 0 31 32 24 58 -3 9 -8 31 -11 47 -10 49 14 1 30 -59 l13 -51 -4
63 c-4 57 -32 133 -53 146 -5 3 -23 -10 -41 -28z"/>
<path d="M4482 935 c-22 -25 -31 -48 -11 -28 8 8 19 8 40 0 35 -14 54 0 44 32
-9 29 -46 27 -73 -4z"/>
<path d="M4230 908 c0 -19 43 -39 97 -45 89 -9 44 38 -50 52 -38 6 -47 4 -47
-7z"/>
<path d="M4188 851 c-2 -28 0 -37 8 -30 7 6 16 -9 27 -49 9 -31 22 -66 30 -77
13 -17 17 -17 32 -5 27 22 46 69 43 103 -3 28 -11 36 -67 64 -36 18 -66 33
-67 33 -1 0 -4 -18 -6 -39z"/>
<path d="M4479 852 c-22 -2 -25 -7 -21 -28 3 -19 11 -24 33 -24 36 0 59 35 32
47 -10 5 -30 7 -44 5z"/>
<path d="M4384 825 c-8 -20 4 -35 27 -35 14 0 19 7 19 25 0 18 -5 25 -20 25
-11 0 -23 -7 -26 -15z"/>
<path d="M4622 809 c10 -33 148 -70 148 -39 0 15 -55 40 -106 47 -38 5 -46 3
-42 -8z"/>
<path d="M4554 786 c-7 -19 3 -36 22 -36 10 0 14 8 12 22 -4 26 -26 36 -34 14z"/>
<path d="M4337 703 c-51 -51 -55 -58 -31 -67 16 -6 114 83 114 104 0 24 -40 7
-83 -37z"/>
<path d="M4616 697 c-18 -47 -21 -93 -7 -102 15 -8 82 41 108 80 25 37 50 48
39 18 -7 -17 -6 -17 10 -1 32 32 11 48 -64 48 l-69 0 -17 -43z"/>
<path d="M4525 709 c-9 -13 3 -97 17 -122 7 -15 12 -16 24 -6 18 15 18 57 -1
103 -15 37 -28 45 -40 25z"/>
<path d="M4383 650 c-27 -15 -55 -36 -63 -45 -14 -16 -13 -17 7 -11 13 4 34 1
53 -9 17 -9 53 -19 81 -22 48 -6 49 -5 49 21 0 24 -16 45 -63 83 -11 9 -25 5
-64 -17z"/>
<path d="M1522 787 c-2 -30 14 -37 91 -37 114 0 144 34 39 45 -136 14 -128 14
-130 -8z"/>
<path d="M1460 755 c-16 -19 -3 -55 20 -55 22 0 42 31 32 46 -12 19 -40 23
-52 9z"/>
<path d="M1699 745 c-3 -2 -23 -5 -44 -6 -61 -3 -123 -20 -129 -35 -3 -7 0
-27 6 -44 15 -44 4 -47 -32 -11 -17 17 -35 31 -40 31 -15 0 -28 -32 -22 -54 4
-17 2 -19 -9 -8 -20 19 -53 14 -93 -13 -37 -25 -47 -23 -21 5 21 24 24 63 3
68 -16 3 -78 -49 -78 -67 0 -5 -7 -16 -15 -24 -7 -8 -17 -26 -20 -40 -6 -22
-4 -24 20 -19 l27 5 -17 -27 c-14 -21 -15 -26 -3 -26 8 0 20 6 26 12 13 13
184 14 225 2 11 -4 17 0 17 10 0 8 10 21 22 27 24 13 28 16 81 60 33 28 42 29
38 7 -2 -15 16 -8 34 12 21 23 65 109 65 127 0 12 -31 19 -41 8z m-19 -85 c0
-11 -7 -20 -15 -20 -13 0 -13 3 -3 20 7 11 14 20 15 20 2 0 3 -9 3 -20z"/>
<path d="M5535 7039 c-10 -15 15 -20 35 -6 20 14 20 15 -5 15 -14 0 -28 -4
-30 -9z"/>
<path d="M12790 6993 l0 -38 -197 8 c-188 8 -243 4 -243 -20 0 -5 98 -8 218
-8 l217 0 6 -40 c4 -28 6 -14 7 48 1 48 0 87 -3 87 -3 0 -5 -17 -5 -37z"/>
<path d="M6280 6990 c0 -5 9 -10 21 -10 11 0 17 5 14 10 -3 6 -13 10 -21 10
-8 0 -14 -4 -14 -10z"/>
<path d="M8858 6963 c18 -2 45 -2 60 0 15 2 0 4 -33 4 -33 0 -45 -2 -27 -4z"/>
<path d="M9880 6926 c0 -9 1 -16 3 -17 12 -5 421 -9 416 -5 -3 4 -63 11 -133
16 -70 5 -163 13 -207 16 -69 6 -79 5 -79 -10z"/>
<path d="M10338 6924 c-10 -3 -18 -9 -18 -14 0 -16 30 -31 50 -25 14 4 20 2
20 -9 0 -20 28 -24 220 -31 91 -3 273 -12 405 -20 132 -8 317 -17 410 -21 153
-5 172 -8 192 -26 18 -17 25 -19 37 -9 8 7 24 10 35 6 15 -4 28 2 47 22 l26
28 220 -3 221 -3 68 53 c38 28 69 53 69 55 0 8 -41 -16 -83 -49 l-49 -38 -126
0 c-204 1 -383 15 -393 31 -6 10 -57 15 -216 21 -114 4 -329 12 -478 17 -381
15 -637 21 -657 15z"/>
<path d="M12435 6900 c-2 -4 37 -10 88 -14 50 -4 129 -9 175 -13 55 -4 82 -2
82 5 0 6 -24 13 -52 16 -101 10 -288 14 -293 6z"/>
<path d="M9880 6876 c0 -12 10 -16 47 -16 54 0 48 15 -9 25 -31 6 -38 4 -38
-9z"/>
<path d="M12790 6817 c0 -30 -10 -40 -25 -27 -15 12 -153 -16 -174 -35 -11
-11 -1 -14 55 -19 38 -4 88 -9 112 -12 l42 -5 0 60 c0 34 -2 61 -5 61 -3 0 -5
-10 -5 -23z"/>
<path d="M12417 6764 c-14 -15 7 -24 53 -24 55 0 83 8 74 21 -6 10 -117 12
-127 3z"/>
<path d="M8912 5932 c-13 -2 -21 -9 -19 -15 4 -14 123 -18 147 -6 13 7 13 8 0
13 -21 7 -100 12 -128 8z"/>
<path d="M9539 5920 c19 -17 38 -20 111 -20 48 0 102 -3 119 -6 28 -6 31 -4
31 18 l0 24 -142 2 -143 2 24 -20z"/>
<path d="M10486 5922 c-3 -6 -1 -14 5 -17 15 -10 25 3 12 16 -7 7 -13 7 -17 1z"/>
<path d="M9344 5883 c-24 -26 -27 -44 -8 -50 17 -6 43 21 50 50 8 35 -9 35
-42 0z"/>
<path d="M12374 5885 c-43 -22 -91 -62 -83 -69 2 -2 24 7 49 20 25 12 55 28
68 33 15 7 82 8 198 3 235 -10 228 -27 -12 -27 -119 0 -186 -4 -195 -11 -8 -6
-24 -15 -36 -18 -33 -10 -123 -73 -116 -80 20 -20 95 10 128 51 29 34 135 45
166 17 18 -16 38 -19 128 -20 59 0 113 -4 119 -8 9 -5 12 11 12 61 l0 68 -193
1 c-177 0 -195 -2 -233 -21z"/>
<path d="M8890 5851 c0 -28 8 -30 70 -23 41 5 56 11 58 25 3 15 -5 17 -62 17
-59 0 -66 -2 -66 -19z"/>
<path d="M11192 5793 c-29 -6 -20 -19 26 -39 53 -23 212 -21 230 3 10 14 10
18 0 24 -16 8 -225 18 -256 12z"/>
<path d="M11723 5773 c-37 -14 10 -38 97 -49 95 -12 141 -8 163 15 l21 20 -28
11 c-27 10 -230 13 -253 3z"/>
<path d="M12790 5726 c0 -24 -5 -36 -16 -38 -10 -2 -94 0 -188 4 -190 7 -190
7 -306 -67 -44 -28 -62 -34 -90 -31 -19 3 -147 8 -285 11 -390 8 -639 16 -655
20 -28 8 -39 -10 -37 -55 2 -42 0 -45 -25 -48 -16 -2 -28 -8 -28 -13 0 -14
-17 -11 -35 7 -15 15 -17 15 -34 0 -18 -16 -61 -22 -61 -8 0 4 -5 14 -10 22
-7 12 -16 8 -45 -24 -41 -45 -44 -74 -12 -107 13 -13 26 -32 30 -41 3 -10 16
-18 27 -18 23 0 27 18 5 26 -25 10 -8 21 25 16 32 -5 42 -22 13 -22 -15 0 -14
-3 4 -15 13 -9 39 -14 64 -13 31 2 44 -1 53 -15 9 -15 7 -21 -9 -33 -16 -12
-39 -14 -116 -10 -87 6 -97 4 -114 -14 -20 -22 -43 -16 -24 7 33 39 -63 38
-177 -2 -36 -12 -68 -25 -71 -29 -4 -3 -14 -6 -24 -6 -57 0 -300 -165 -391
-265 -28 -31 -138 -238 -138 -260 0 -2 -11 -28 -24 -57 -13 -29 -29 -84 -36
-123 -17 -96 -32 -152 -37 -140 -2 6 -19 9 -38 7 -25 -3 -35 -10 -38 -26 -3
-19 -5 -18 -16 9 -7 17 -14 42 -15 57 0 16 -6 28 -12 28 -7 0 -10 -41 -10
-117 l1 -118 80 -2 c69 -3 78 -1 63 11 -25 19 -17 21 50 18 56 -3 60 -6 58
-26 -5 -44 -13 -48 -95 -41 -42 3 -93 8 -113 11 -30 5 -39 2 -44 -11 -4 -10
-1 -21 7 -26 10 -6 10 -9 2 -9 -14 0 -18 -36 -5 -44 5 -3 41 -7 80 -8 l70 -3
4 -42 c3 -41 2 -43 -24 -43 -31 0 -46 17 -21 23 10 2 8 3 -5 2 -13 -1 -39 1
-58 5 -37 9 -49 -1 -49 -39 0 -24 3 -25 72 -25 39 -1 74 -4 77 -7 3 -3 8 -73
11 -155 3 -82 7 -198 10 -259 2 -60 9 -229 15 -375 5 -146 15 -362 20 -480 6
-118 12 -266 14 -328 2 -69 8 -118 16 -127 9 -11 35 -15 109 -15 68 0 103 -4
116 -14 18 -13 17 -15 -22 -25 -22 -6 -77 -9 -122 -7 l-81 4 0 -43 c0 -35 4
-44 21 -48 12 -3 18 -10 15 -16 -4 -5 -2 -12 4 -16 6 -4 5 -11 -3 -19 -6 -8
-15 -12 -20 -9 -9 5 -9 -306 0 -459 5 -93 8 -108 24 -113 10 -4 24 -3 31 1 18
11 78 8 90 -4 7 -7 -1 -12 -28 -17 -75 -12 -84 -15 -84 -32 0 -30 32 -42 117
-43 79 0 81 -1 75 -22 -3 -13 -16 -33 -29 -45 -12 -12 -23 -27 -23 -33 0 -13
-37 -13 -45 0 -3 6 -1 10 5 10 6 0 8 5 5 10 -10 17 -25 11 -25 -10 0 -29 -17
-25 -28 8 -9 23 -11 18 -11 -35 -1 -35 2 -63 7 -64 4 -1 33 -2 66 -4 33 -2 62
-8 66 -15 4 -7 13 -9 19 -6 6 4 11 1 11 -7 0 -31 178 -32 225 -1 18 12 51 14
149 13 79 -1 123 -5 119 -12 -4 -6 87 -7 263 -3 411 10 629 17 633 22 2 2 -1
22 -8 44 -7 23 -14 54 -16 70 -3 28 -1 30 31 30 40 0 42 8 13 67 l-21 44 26
24 c14 13 26 33 26 44 0 27 40 99 74 134 l29 29 -16 356 c-10 197 -26 506 -36
687 -10 182 -22 386 -25 455 -22 471 -28 672 -20 679 10 9 203 76 244 85 14 3
73 6 131 7 111 1 161 13 98 23 -19 3 -76 7 -127 10 -92 5 -94 4 -224 -45 -130
-49 -193 -63 -155 -35 9 7 17 22 17 32 0 11 9 25 20 32 38 23 225 84 258 83
18 0 52 6 75 14 49 16 127 22 146 11 9 -6 12 -2 9 15 -2 19 -11 25 -43 30
l-40 6 43 8 c79 14 28 27 -115 29 l-138 1 -130 -56 c-71 -31 -143 -59 -159
-63 -25 -6 -28 -5 -23 13 3 12 1 24 -4 27 -18 11 -8 20 40 38 l49 17 0 67 c0
37 11 137 25 222 15 85 28 175 31 200 8 84 19 141 27 146 29 17 -17 98 -110
198 -68 72 -235 194 -321 233 -41 19 -102 47 -135 63 -33 16 -72 32 -87 36
-43 10 -21 26 26 19 22 -4 49 -9 60 -12 39 -11 3 18 -52 44 -54 24 -56 26 -34
36 16 7 39 7 80 -1 90 -19 151 -37 164 -50 7 -7 21 -12 33 -12 11 0 38 -14 59
-30 46 -35 66 -38 66 -10 0 15 -9 22 -30 27 -17 3 -33 10 -36 14 -3 5 -16 9
-29 9 -14 0 -26 7 -30 19 -7 23 -64 51 -165 81 -76 22 -106 40 -108 63 0 6 -4
22 -7 35 -7 21 -4 22 41 23 27 0 78 2 114 5 36 2 112 -3 170 -10 57 -7 182
-14 277 -15 95 -1 183 -4 195 -7 13 -3 39 -6 58 -8 46 -3 108 -43 145 -95 17
-22 35 -41 40 -41 6 0 18 14 27 30 19 33 45 38 94 20 65 -25 174 -6 174 30 0
21 19 30 63 30 45 0 77 -10 77 -24 0 -6 9 -17 20 -24 11 -7 20 -16 20 -20 0
-4 -54 -8 -120 -9 -188 -4 -360 -54 -360 -105 0 -26 18 -31 30 -8 26 49 173
84 330 78 118 -4 140 -13 140 -59 0 -16 4 -29 10 -29 7 0 11 -412 13 -1202 l2
-1203 3 1363 c1 749 -1 1362 -5 1363 -5 0 -42 2 -83 4 -41 2 -132 6 -201 10
-101 5 -127 4 -131 -7 -3 -7 -31 -26 -61 -42 -44 -22 -56 -34 -54 -50 2 -18
-2 -21 -33 -18 -19 2 -37 6 -39 8 -11 10 33 41 124 86 l100 50 193 -6 192 -7
0 66 c0 36 -2 65 -5 65 -3 0 -5 -15 -5 -34z m-50 -146 c0 -5 -16 -10 -36 -10
-21 0 -33 4 -29 10 3 6 19 10 36 10 16 0 29 -4 29 -10z m-2538 -3820 c-5 -38
-22 -40 -18 -2 4 33 4 32 14 32 5 0 7 -13 4 -30z"/>
<path d="M9350 5665 c-36 -37 -38 -41 -22 -52 16 -12 16 -13 -1 -23 -12 -8
-16 -18 -12 -31 8 -25 -3 -24 -26 3 -11 11 -22 18 -26 15 -3 -4 3 -15 13 -24
11 -10 30 -33 43 -51 l23 -33 12 23 c14 27 55 35 97 18 23 -10 35 -10 59 0 16
7 28 17 27 23 -3 15 81 46 129 46 54 1 95 -17 128 -55 14 -18 26 -34 26 -37 0
-3 -51 -3 -112 0 -165 8 -348 -28 -364 -72 -10 -26 -1 -25 53 1 83 41 197 51
358 31 42 -6 75 -35 75 -68 0 -30 19 -32 45 -3 26 28 32 44 16 44 -17 0 -20
60 -5 110 14 47 18 52 40 47 13 -2 27 0 30 4 5 9 292 11 307 2 4 -2 110 -6
237 -8 126 -2 234 -6 240 -10 5 -3 32 -6 60 -7 27 0 50 -4 50 -9 0 -5 4 -9 8
-9 8 0 55 90 50 95 -2 2 -88 7 -193 10 -104 4 -193 9 -197 11 -3 2 -91 6 -195
9 -103 3 -226 10 -273 16 -47 6 -132 9 -190 7 -99 -3 -103 -4 -72 -17 40 -16
44 -36 5 -25 -16 4 -71 10 -123 14 -92 6 -94 6 -65 20 l30 14 -40 3 c-22 1
-77 4 -123 5 l-83 3 -39 -40z"/>
<path d="M7755 5563 c-65 -11 -96 -20 -247 -72 -92 -32 -208 -97 -295 -167
-88 -70 -133 -93 -133 -69 0 24 -28 17 -62 -15 -17 -16 -34 -30 -39 -30 -4 0
-10 -8 -13 -17 -3 -10 -20 -34 -36 -53 -17 -19 -38 -51 -47 -70 -9 -19 -23
-42 -30 -51 -22 -26 -83 -159 -83 -180 0 -27 -28 -35 -59 -18 -18 10 -25 23
-26 44 0 24 -5 31 -25 34 -24 3 -24 2 -8 -16 12 -13 16 -32 13 -66 -1 -26 -5
-51 -9 -54 -3 -3 0 -13 6 -21 8 -9 13 -78 16 -215 2 -153 6 -207 17 -224 11
-16 12 -23 2 -31 -7 -6 -12 -27 -12 -48 0 -43 1 -43 148 -59 66 -6 67 -7 67
-36 0 -31 -8 -36 -29 -16 -11 10 -12 9 -6 -2 6 -11 2 -12 -21 -7 -15 4 -54 9
-85 12 -62 4 -76 -4 -75 -45 1 -24 3 -24 104 -27 57 -1 106 -4 108 -6 2 -3 6
-598 9 -1324 5 -1130 8 -1321 21 -1330 11 -9 14 -39 14 -132 0 -112 2 -122 21
-132 19 -11 168 -8 404 6 44 3 157 7 250 9 323 7 589 16 595 20 8 5 296 14
505 16 94 0 191 3 217 6 41 5 47 9 50 32 4 30 -16 123 -23 103 -8 -25 -38 -2
-34 26 2 15 4 33 4 40 1 21 23 13 29 -10 6 -23 6 -23 12 2 3 14 12 25 20 25
15 0 16 73 5 230 -2 33 -7 116 -10 185 -7 127 -15 175 -15 82 0 -49 -1 -52
-25 -52 -29 0 -77 47 -70 68 2 6 0 12 -5 12 -6 0 -10 5 -10 10 0 6 7 10 15 10
8 0 15 4 15 10 0 5 18 14 40 20 41 11 44 16 40 60 -3 34 -28 51 -70 47 -29 -3
-36 0 -37 15 -2 16 6 18 59 18 l61 0 -6 398 c-4 218 -12 618 -17 887 l-10 490
27 23 c16 12 57 37 92 53 61 30 69 31 178 30 88 -2 114 1 111 10 -3 9 -42 14
-132 16 l-127 4 -80 -51 c-44 -29 -83 -49 -87 -46 -3 4 0 12 6 18 7 7 12 22
12 34 0 17 19 35 76 73 42 28 84 51 94 51 10 0 21 4 24 9 3 4 51 9 108 10 56
1 104 4 107 6 14 15 -26 25 -119 31 -153 10 -163 26 -13 21 109 -5 150 1 126
16 -5 3 -71 7 -148 9 l-140 3 -91 -63 c-50 -34 -96 -62 -102 -62 -20 0 -14 18
16 46 24 23 24 25 4 14 -46 -23 -46 -2 1 30 26 19 47 36 47 39 5 49 1 412 -5
519 l-7 143 -39 57 c-129 191 -358 352 -637 447 -68 24 -87 27 -103 17 -11 -7
-60 -12 -127 -12 -73 0 -112 -4 -121 -12 -11 -11 -13 -10 -8 5 6 15 0 17 -45
17 -56 0 -164 -23 -215 -46 -17 -8 -36 -14 -42 -14 -22 0 -146 -63 -210 -107
-194 -133 -296 -251 -384 -448 -44 -98 -62 -152 -77 -230 -31 -163 -32 -168
-41 -154 -5 8 -9 24 -9 37 0 27 -4 28 -31 1 l-21 -21 -22 21 c-12 12 -28 21
-34 21 -7 0 -12 4 -12 10 0 5 -7 7 -16 3 -14 -5 -15 0 -10 33 3 21 8 62 11 89
13 101 70 286 115 367 6 10 10 25 10 33 0 8 4 15 10 15 5 0 18 17 29 38 10 20
34 51 51 67 l33 30 -5 -25 c-3 -14 -9 -33 -13 -42 -12 -29 20 -21 34 8 6 14
17 24 24 21 12 -4 56 36 58 54 1 5 2 14 3 19 0 6 15 18 33 28 17 9 58 37 90
62 201 155 392 235 583 242 41 2 78 8 82 13 4 6 8 22 8 37 0 31 -5 31 -125 11z
m-695 -363 c-6 -11 -18 -20 -28 -20 -14 1 -13 4 7 20 29 25 34 25 21 0z m-46
-45 c-4 -8 -10 -15 -15 -15 -5 0 -9 7 -9 15 0 8 7 15 15 15 9 0 12 -6 9 -15z
m-36 -842 c-10 -2 -28 -2 -40 0 -13 2 -5 4 17 4 22 1 32 -1 23 -4z m7 -33 c0
-16 -12 -17 -150 -3 l-80 8 100 6 c127 7 130 7 130 -11z m1639 -1996 c9 -23 8
-24 -19 -24 -27 0 -32 9 -13 28 16 16 25 15 32 -4z m-1352 -31 c25 -28 35 -55
42 -106 l6 -48 -63 6 c-34 4 -64 8 -66 11 -2 2 -8 30 -12 62 -8 51 -6 59 12
75 12 9 31 17 44 17 12 0 29 -8 37 -17z m38 -208 c0 -9 -6 -12 -15 -9 -8 4
-15 10 -15 15 0 5 7 9 15 9 8 0 15 -7 15 -15z m-94 -74 c5 -5 26 -14 46 -20
26 -9 35 -16 31 -27 -3 -9 0 -27 8 -41 12 -22 11 -27 -4 -38 -25 -18 -21 -34
23 -86 22 -26 40 -55 40 -64 0 -9 5 -26 12 -38 6 -12 11 -49 9 -82 -2 -60 14
-177 29 -205 4 -9 2 -23 -5 -33 -11 -15 -13 -14 -19 14 -3 17 -6 40 -6 51 0
10 -7 30 -16 44 -22 33 -27 90 -9 108 15 15 10 46 -7 46 -5 0 -15 15 -23 34
-8 19 -20 38 -27 42 -14 9 -67 6 -83 -4 -13 -8 -69 -2 -75 8 -3 4 -14 9 -25
11 -19 4 -19 5 3 27 21 21 23 32 21 100 -1 79 6 127 24 150 11 14 39 16 53 3z
m1387 -13 c-5 -7 -10 -23 -11 -35 -1 -21 3 -23 59 -23 32 0 59 -4 59 -9 0 -5
9 -7 19 -4 21 5 67 -15 57 -25 -9 -9 -324 -9 -338 -1 -9 6 -9 18 -2 46 8 32
13 38 34 35 13 -1 28 -8 32 -15 6 -9 8 -9 8 1 0 22 20 12 20 -10 1 -19 2 -20
10 -8 5 9 10 22 12 30 3 14 39 40 47 34 2 -2 0 -9 -6 -16z m-262 -81 c-8 -8
-11 -5 -11 9 0 27 14 41 18 19 2 -9 -1 -22 -7 -28z m629 -99 c0 -25 -3 -29
-10 -18 -13 20 -13 50 0 50 6 0 10 -15 10 -32z"/>
<path d="M10910 5505 c0 -8 4 -15 9 -15 5 0 11 7 15 15 3 9 0 15 -9 15 -8 0
-15 -7 -15 -15z"/>
<path d="M10855 5460 c-22 -4 -65 -13 -95 -18 -31 -6 -82 -20 -115 -32 -33
-12 -69 -24 -80 -27 -11 -4 -32 -14 -47 -25 -14 -10 -31 -18 -36 -18 -14 0
-130 -78 -174 -116 -55 -49 -94 -67 -116 -53 -13 8 -26 7 -55 -4 -20 -9 -37
-21 -37 -26 0 -6 -17 -11 -37 -11 -31 -1 -35 -3 -20 -11 24 -14 21 -46 -8 -75
-24 -24 -95 -148 -95 -166 0 -5 -15 -41 -33 -81 -29 -62 -33 -85 -36 -163 -4
-126 27 -140 43 -19 3 27 10 63 15 80 5 16 14 51 20 77 6 26 31 90 56 141 52
106 82 132 116 101 18 -16 20 -16 39 1 11 10 20 23 20 29 0 6 15 22 32 36 18
14 39 32 48 40 61 58 143 122 185 144 125 64 203 98 235 103 19 3 40 9 45 14
6 4 45 10 88 13 43 3 82 8 88 11 11 7 12 66 2 64 -5 -1 -26 -5 -48 -9z"/>
<path d="M7770 5450 c-20 -6 -14 -8 25 -8 28 0 59 3 70 8 27 11 -59 11 -95 0z"/>
<path d="M8613 5390 c6 -11 18 -20 25 -20 20 0 9 22 -16 31 -20 7 -21 6 -9
-11z"/>
<path d="M7525 5375 c-16 -8 -23 -14 -15 -14 8 0 26 6 40 14 32 18 15 18 -25
0z"/>
<path d="M10777 5336 c-49 -13 -81 -33 -37 -23 14 3 55 11 93 17 37 7 67 14
67 16 0 8 -77 2 -123 -10z"/>
<path d="M7399 5313 c-13 -15 -12 -15 9 -4 23 12 28 21 13 21 -5 0 -15 -7 -22
-17z"/>
<path d="M10660 5303 c-8 -3 -26 -10 -39 -15 -13 -5 -22 -11 -19 -13 2 -3 26
4 54 15 27 10 42 19 34 19 -8 0 -22 -3 -30 -6z"/>
<path d="M10490 5220 c-14 -11 -20 -20 -15 -20 6 0 21 9 35 20 14 11 21 20 15
20 -5 0 -21 -9 -35 -20z"/>
<path d="M9939 5209 c-8 -5 -22 -6 -32 -3 -25 8 -72 -5 -61 -16 11 -10 121
-16 130 -7 12 11 -22 36 -37 26z"/>
<path d="M5720 5121 c0 -6 9 -15 20 -21 13 -7 20 -7 20 -1 0 6 -9 15 -20 21
-13 7 -20 7 -20 1z"/>
<path d="M6930 5011 c-5 -11 -7 -22 -2 -25 4 -2 12 7 19 20 13 28 -2 33 -17 5z"/>
<path d="M10110 4985 c0 -8 5 -15 10 -15 6 0 10 7 10 15 0 8 -4 15 -10 15 -5
0 -10 -7 -10 -15z"/>
<path d="M5987 4913 c9 -25 33 -59 33 -47 0 16 -24 64 -32 64 -4 0 -5 -8 -1
-17z"/>
<path d="M6015 4800 c-3 -5 3 -10 14 -10 11 0 23 5 26 10 3 6 -3 10 -14 10
-11 0 -23 -4 -26 -10z"/>
<path d="M9007 4225 c-34 -30 -26 -33 12 -6 19 14 49 21 92 24 l64 3 -70 2
c-61 1 -73 -2 -98 -23z"/>
<path d="M12010 4178 c-30 -11 -59 -23 -64 -28 -9 -9 57 4 98 20 15 5 50 10
78 10 63 0 60 5 -7 13 -36 4 -65 0 -105 -15z"/>
<path d="M6520 3912 c0 -4 17 -8 38 -9 20 0 60 -3 87 -7 l50 -6 -40 14 c-44
16 -135 21 -135 8z"/>
<path d="M6165 3890 c-3 -5 1 -10 9 -10 9 0 16 5 16 10 0 6 -4 10 -9 10 -6 0
-13 -4 -16 -10z"/>
<path d="M5918 3874 c-8 -14 7 -61 15 -47 4 6 3 21 -1 34 -5 12 -11 18 -14 13z"/>
<path d="M6696 3852 c-3 -6 -1 -14 5 -17 15 -10 25 3 12 16 -7 7 -13 7 -17 1z"/>
<path d="M6783 3843 c9 -2 25 -2 35 0 9 3 1 5 -18 5 -19 0 -27 -2 -17 -5z"/>
<path d="M5920 3693 c0 -66 -3 -149 -6 -184 -5 -49 -4 -61 5 -53 13 12 19 339
7 351 -3 3 -6 -48 -6 -114z"/>
<path d="M9880 3751 c0 -44 13 -59 36 -40 13 10 13 14 -1 29 -9 9 -13 25 -9
34 4 11 1 16 -10 16 -12 0 -16 -10 -16 -39z"/>
<path d="M6205 3440 c-28 -7 -28 -8 -5 -9 14 0 32 4 40 9 17 11 8 11 -35 0z"/>
<path d="M6613 3443 c9 -14 66 -22 73 -11 3 4 -6 8 -20 8 -13 0 -32 3 -42 7
-11 4 -15 3 -11 -4z"/>
<path d="M6778 1923 c18 -2 45 -2 60 0 15 2 0 4 -33 4 -33 0 -45 -2 -27 -4z"/>
<path d="M12285 1741 c-22 -11 -33 -20 -24 -20 9 -1 36 8 60 19 27 12 36 20
24 20 -11 -1 -38 -9 -60 -19z"/>
<path d="M6701 1694 c-6 -15 -10 -28 -9 -29 14 -11 49 -25 44 -17 -3 6 -2 13
2 16 13 8 2 56 -13 56 -6 0 -17 -12 -24 -26z"/>
<path d="M6780 1625 c0 -8 -4 -15 -10 -15 -5 0 -10 5 -10 12 0 6 -8 4 -19 -6
-18 -16 -45 -17 -308 -14 -158 2 -296 8 -305 12 -15 7 -18 3 -18 -16 0 -13 -5
-29 -12 -36 -9 -9 2 -11 52 -7 36 4 82 11 102 17 28 8 61 8 129 -2 50 -6 111
-9 136 -5 24 3 94 1 154 -6 102 -12 109 -14 109 -35 0 -18 -7 -23 -47 -29 -58
-8 -40 -25 29 -25 38 0 50 -4 59 -21 7 -15 14 -18 21 -11 8 8 6 26 -5 59 -9
27 -14 65 -12 86 2 27 -1 37 -11 37 -8 0 -14 5 -14 10 0 6 -4 10 -10 10 -5 0
-10 -7 -10 -15z"/>
<path d="M9400 1575 c0 -8 -4 -15 -10 -15 -5 0 -10 -4 -10 -8 0 -7 112 1 199
14 63 10 12 24 -86 24 -76 0 -93 -3 -93 -15z"/>
<path d="M11920 1574 c0 -14 8 -16 53 -11 66 7 90 -4 65 -30 -13 -12 -31 -16
-65 -14 -39 2 -46 0 -35 -10 6 -7 28 -13 47 -13 19 0 37 -6 39 -13 3 -7 14
-13 23 -13 22 0 63 27 63 41 0 14 -28 11 -33 -3 -3 -7 -6 -1 -6 13 -2 48 16
52 174 46 80 -2 147 -2 150 3 7 12 -107 20 -296 20 -159 0 -179 -2 -179 -16z"/>
<path d="M12792 1545 c0 -16 2 -22 5 -12 2 9 2 23 0 30 -3 6 -5 -1 -5 -18z"/>
<path d="M12135 1500 c8 -13 155 -13 175 0 10 7 -16 10 -83 10 -63 0 -96 -4
-92 -10z"/>
<path d="M6060 1485 c0 -11 7 -15 23 -13 12 2 22 8 22 13 0 6 -10 11 -22 13
-16 2 -23 -2 -23 -13z"/>
<path d="M9354 1489 c-13 -21 12 -29 71 -21 l60 9 -40 7 c-22 4 -50 9 -62 12
-12 2 -25 -1 -29 -7z"/>
<path d="M6043 1393 c9 -2 23 -2 30 0 6 3 -1 5 -18 5 -16 0 -22 -2 -12 -5z"/>
<path d="M12780 1380 c0 -18 -7 -20 -73 -20 -40 0 -78 5 -84 11 -7 7 -61 10
-160 7 -146 -3 -150 -4 -186 -31 -37 -28 -48 -54 -24 -62 6 -2 132 -6 280 -9
l267 -5 0 65 c0 36 -4 64 -10 64 -5 0 -10 -9 -10 -20z"/>
<path d="M11780 1286 c0 -18 59 -102 82 -116 70 -42 404 -61 488 -27 42 17 90
58 90 76 0 5 -6 13 -12 18 -23 17 -648 65 -648 49z"/>
<path d="M12793 1180 c0 -36 2 -50 4 -32 2 17 2 47 0 65 -2 17 -4 3 -4 -33z"/>
<path d="M11873 1054 c-12 -32 6 -42 94 -54 175 -24 177 -24 243 -90 33 -33
60 -61 60 -64 0 -2 -71 -7 -158 -11 -148 -6 -209 -17 -172 -29 36 -11 111 -25
190 -35 47 -6 137 -18 200 -26 63 -8 184 -20 267 -25 84 -5 164 -12 178 -16
l25 -6 0 158 c0 92 -4 153 -9 146 -13 -20 -156 -12 -696 43 -82 8 -165 17
-183 19 -23 4 -35 0 -39 -10z"/>
<path d="M6839 950 c-1 -16 -2 -35 -3 -41 -1 -7 16 -18 36 -25 35 -12 38 -11
53 12 8 13 22 24 30 24 8 0 15 5 15 10 0 6 12 10 28 11 15 0 23 2 17 4 -46 13
-97 25 -132 30 -42 5 -43 5 -44 -25z"/>
<path d="M5990 963 c-56 -6 -64 -11 -50 -28 8 -10 31 -15 67 -15 51 0 54 2 51
22 -3 24 -13 27 -68 21z"/>
<path d="M10245 950 c-4 -6 6 -10 24 -10 16 0 33 5 36 10 4 6 -6 10 -24 10
-16 0 -33 -4 -36 -10z"/>
<path d="M5113 943 c-7 -3 -13 -12 -13 -20 0 -10 4 -13 13 -7 14 11 34 10 61
-1 10 -5 26 -4 35 2 9 6 57 9 106 8 50 -1 101 1 115 5 24 6 23 7 -10 13 -38 7
-287 7 -307 0z"/>
<path d="M5504 943 c11 -3 26 -11 34 -19 12 -12 108 -22 137 -14 6 2 42 4 80
5 83 2 153 13 161 26 3 5 -84 9 -213 8 -120 -1 -209 -4 -199 -6z"/>
<path d="M6956 841 c5 -5 23 -13 39 -17 27 -7 29 -6 16 9 -7 10 -25 17 -39 17
-16 0 -22 -4 -16 -9z"/>
<path d="M5033 773 c-21 -8 -15 -22 17 -38 40 -21 50 -19 50 9 0 27 -15 42
-25 26 -4 -7 -11 -7 -18 -2 -7 5 -18 7 -24 5z"/>
<path d="M5033 706 c-10 -11 -9 -15 2 -20 10 -4 15 1 15 14 0 23 -1 24 -17 6z"/>
<path d="M6765 550 c-18 -8 -17 -9 8 -9 15 -1 27 4 27 9 0 12 -8 12 -35 0z"/>
<path d="M5710 509 c0 -14 43 -29 54 -18 13 11 6 17 -27 23 -15 2 -27 0 -27
-5z"/>
<path d="M8177 493 c-16 -15 -5 -23 31 -23 48 0 83 10 76 21 -6 10 -97 12
-107 2z"/>
<path d="M8424 480 c16 -5 45 -5 65 -1 32 8 29 9 -29 9 -52 0 -59 -1 -36 -8z"/>
<path d="M10718 338 c-3 -8 -21 -12 -46 -11 -23 1 -44 -2 -47 -8 -4 -5 6 -9
22 -8 39 2 132 -9 168 -20 17 -5 55 -13 85 -16 30 -4 77 -13 104 -21 64 -18
102 -18 110 1 8 21 -15 26 -174 41 -71 6 -110 14 -110 23 0 24 -105 42 -112
19z"/>
<path d="M4915 290 c28 -12 85 -12 85 0 0 6 -24 10 -52 9 -39 0 -48 -3 -33 -9z"/>
<path d="M4152 283 c-34 -3 -42 -8 -38 -19 3 -9 6 -18 6 -20 0 -3 3 -3 8 -1 4
3 48 8 97 12 50 4 92 9 94 11 17 16 -78 26 -167 17z"/>
<path d="M4465 271 c-77 -9 -41 -17 63 -13 53 2 90 7 87 13 -7 10 -68 10 -150
0z"/>
<path d="M10263 264 c5 -5 23 -7 105 -13 9 -1 11 -8 7 -23 -6 -17 -4 -20 10
-15 9 4 32 7 51 7 51 0 33 23 -29 38 -54 12 -155 17 -144 6z"/>
<path d="M12693 248 c5 -32 27 -35 27 -4 0 16 -6 26 -15 26 -10 0 -14 -8 -12
-22z"/>
<path d="M12523 253 c-24 -2 -54 -10 -68 -17 -24 -12 -20 -14 47 -14 40 -1 89
-4 109 -7 21 -4 40 -2 43 4 8 12 -46 42 -71 39 -10 -1 -37 -3 -60 -5z"/>
<path d="M9070 240 c0 -5 9 -10 21 -10 11 0 17 5 14 10 -3 6 -13 10 -21 10 -8
0 -14 -4 -14 -10z"/>
<path d="M11170 242 c0 -17 14 -22 87 -26 72 -5 115 6 71 18 -48 13 -158 19
-158 8z"/>
<path d="M10580 230 c-19 -4 -32 -9 -27 -10 15 -6 113 -8 142 -3 27 5 28 7 10
14 -24 9 -78 9 -125 -1z"/>
<path d="M12245 229 c4 -5 24 -9 46 -9 22 0 38 4 35 9 -3 5 -24 9 -46 9 -23 1
-38 -3 -35 -9z"/>
<path d="M9783 163 c15 -2 37 -2 50 0 12 2 0 4 -28 4 -27 0 -38 -2 -22 -4z"/>
</g>
</svg>
