<?xml version="1.0" standalone="no"?>
<!DOCTYPE svg PUBLIC "-//W3C//DTD SVG 20010904//EN"
 "http://www.w3.org/TR/2001/REC-SVG-20010904/DTD/svg10.dtd">
<svg version="1.0" xmlns="http://www.w3.org/2000/svg"
 width="1280.000000pt" height="720.000000pt" viewBox="0 0 1280.000000 720.000000"
 preserveAspectRatio="xMidYMid meet">
<metadata>
Created by potrace 1.16, written by Peter Selinger 2001-2019
</metadata>
<g transform="translate(0.000000,720.000000) scale(0.100000,-0.100000)"
fill="#000000" stroke="none">
<path d="M0 4787 l0 -2413 34 4 c38 4 61 -16 27 -25 -15 -4 -21 -13 -21 -34 0
-38 -18 -82 -30 -74 -7 4 -10 -370 -10 -1119 l0 -1126 6400 0 6400 0 -2 343
-3 342 -2 -272 -3 -272 -4253 -1 c-2338 0 -4296 3 -4350 6 -53 4 -95 10 -92
13 6 5 -107 32 -130 31 -5 0 -88 -3 -183 -5 -95 -3 -196 -8 -225 -13 -29 -4
-65 -5 -82 -1 -16 4 -58 7 -92 8 -88 1 -85 18 5 36 22 5 32 12 32 25 0 21 -49
35 -56 15 -3 -7 -33 -15 -69 -19 -59 -6 -68 -4 -105 20 -22 15 -40 30 -40 34
0 4 46 10 103 14 186 12 227 21 227 51 0 15 18 18 96 15 41 -1 65 12 44 25 -5
3 -66 7 -135 8 -93 1 -125 -1 -125 -10 0 -7 6 -10 14 -7 8 3 17 1 20 -4 13
-22 -212 -44 -299 -29 -16 3 -46 2 -65 -3 -44 -12 -314 -22 -337 -13 -35 14
22 22 158 22 101 1 144 5 165 16 16 8 48 15 70 15 52 0 105 10 100 19 -3 4 3
7 12 7 61 3 218 31 241 43 9 5 45 9 81 10 111 3 175 14 175 31 0 20 -36 26
-49 8 -8 -11 -30 -13 -88 -10 -65 4 -78 7 -83 23 -4 10 -13 19 -21 19 -8 0
-23 5 -33 11 -29 19 -70 3 -77 -29 -10 -38 -19 -42 -99 -42 -76 0 -95 9 -95
47 0 23 3 23 65 21 46 -2 64 -7 61 -15 -3 -7 1 -10 10 -6 8 3 18 18 21 34 4
24 11 29 34 29 15 0 32 7 36 15 11 20 158 36 179 20 9 -6 19 -26 23 -45 8 -41
31 -53 31 -15 0 17 -4 24 -11 19 -8 -5 -10 1 -7 20 4 20 -1 35 -19 54 -22 23
-31 27 -74 24 l-48 -4 11 34 c6 18 13 48 15 66 3 20 11 32 20 32 12 0 13 -7 8
-27 -3 -15 -12 -31 -18 -35 -8 -5 -6 -8 5 -8 9 0 24 -10 33 -22 l16 -23 -6 26
c-7 27 15 55 23 31 2 -7 9 -9 15 -5 12 7 17 9 50 11 10 1 17 10 17 21 0 16 11
22 55 31 40 8 60 9 69 1 19 -16 115 4 138 29 33 35 136 13 121 -26 -3 -8 0
-14 6 -14 6 0 10 -3 9 -7 -3 -16 23 -67 44 -85 26 -22 32 -23 24 -3 -4 10 3
17 22 21 15 3 38 10 51 15 22 9 23 11 6 23 -10 7 -20 30 -24 51 -5 31 -11 40
-34 46 -15 4 -27 3 -27 -2 0 -23 -20 -5 -30 27 l-12 36 -47 -7 c-62 -9 -363
-16 -661 -15 -135 1 -411 2 -615 3 -203 1 -376 6 -382 10 -21 13 -15 24 18 36
16 6 54 35 83 65 l54 54 203 3 c112 1 220 2 239 1 153 -5 584 0 708 9 115 9
156 9 165 0 6 -6 17 -11 24 -11 10 0 13 31 13 135 0 133 0 136 23 144 23 9 24
15 30 147 4 75 7 195 7 266 0 115 2 128 18 128 16 1 16 2 0 13 -13 11 -17 33
-17 123 -3 290 -1 541 9 884 16 556 19 627 30 652 6 15 8 -20 5 -107 -3 -112
-3 -120 5 -60 10 72 17 195 22 370 3 90 1 100 -14 99 -25 -2 -23 34 4 114 l21
64 108 -3 c119 -4 136 2 125 45 -5 21 -13 26 -36 26 -16 0 -31 -4 -34 -8 -3
-5 -35 -5 -73 -1 -37 5 -77 9 -88 9 -11 1 -15 4 -8 6 8 4 10 16 6 35 l-6 30
119 -3 119 -3 7 75 c4 41 10 113 13 160 6 104 11 147 20 183 5 17 3 27 -4 27
-6 0 -11 -7 -11 -15 0 -21 -30 -19 -30 3 -1 9 -7 31 -14 47 -13 27 -14 19 -11
-80 2 -60 1 -96 -2 -80 -2 17 -9 34 -14 39 -8 9 -11 -4 -13 -74 -1 -17 -8 -26
-26 -31 -48 -13 -70 -10 -70 10 0 10 -7 24 -15 31 -13 11 -18 10 -28 -3 -7 -9
-23 -18 -37 -19 -21 -3 -26 2 -28 25 -2 17 3 34 11 40 12 9 14 22 7 57 -20
111 -32 166 -41 182 -5 10 -9 24 -9 32 0 19 -58 153 -80 185 -9 14 -33 51 -53
81 -55 86 -162 198 -261 274 -94 71 -149 101 -320 171 -108 43 -140 72 -67 60
80 -13 195 -62 316 -133 151 -88 376 -305 414 -399 12 -29 31 -45 31 -26 0 11
-82 136 -109 166 -59 66 -142 145 -201 192 -34 28 -71 57 -80 67 -31 28 -233
120 -335 152 -55 17 -70 26 -70 41 0 17 6 20 35 17 19 -1 44 -7 55 -12 11 -5
45 -16 75 -26 62 -19 207 -89 230 -111 8 -8 39 -29 68 -48 60 -37 282 -233
282 -248 0 -11 90 -101 90 -90 1 14 29 -41 30 -57 0 -8 12 -26 25 -39 14 -13
25 -34 25 -47 0 -15 6 -24 15 -24 8 0 15 -6 15 -14 0 -8 9 -24 20 -37 18 -23
19 -23 19 -4 0 11 -14 47 -32 80 -18 33 -40 74 -49 90 -9 17 -26 52 -39 80
-13 27 -39 65 -56 85 -18 19 -33 39 -33 43 0 4 -16 22 -36 39 -19 17 -33 37
-30 44 3 8 -8 20 -27 30 -37 19 -91 58 -127 92 -14 13 -43 35 -64 49 -29 19
-36 27 -25 34 12 7 12 10 0 21 -11 10 -14 10 -18 1 -6 -16 -39 -17 -48 -2 -16
24 -253 123 -348 143 -41 10 -22 29 22 22 l36 -5 -30 13 c-16 8 -35 12 -42 9
-15 -6 -18 28 -3 43 6 6 50 7 117 2 60 -4 175 -10 256 -14 100 -4 152 -10 160
-19 8 -9 19 -10 36 -4 14 6 61 5 120 -1 53 -6 124 -14 159 -17 55 -5 63 -8 68
-30 l6 -24 12 22 c17 35 32 33 80 -11 62 -58 100 -123 86 -150 -8 -15 -7 -26
6 -45 9 -14 19 -25 22 -25 3 0 18 14 33 32 39 42 113 58 229 47 47 -5 94 -13
105 -19 11 -5 32 -14 46 -19 22 -8 28 -18 33 -56 4 -25 5 -59 1 -75 -3 -15 -2
-31 4 -34 7 -5 8 -66 4 -181 -3 -105 -2 -180 4 -187 5 -7 10 -26 11 -42 2 -31
8 -43 17 -34 3 3 8 74 11 158 5 153 12 190 39 190 8 0 15 5 15 10 0 6 15 10
33 11 27 1 24 3 -26 17 -57 17 -57 17 -41 40 9 13 13 29 10 37 -3 9 0 15 8 15
21 0 40 73 32 129 -4 28 -2 52 3 55 5 4 15 31 22 61 11 51 14 55 40 55 15 0
32 -7 37 -16 8 -14 12 -14 30 -3 17 11 38 11 114 1 112 -16 218 -40 236 -55
10 -8 16 -7 21 2 6 9 42 11 152 6 79 -4 151 -9 159 -12 8 -3 53 -9 98 -13 46
-4 87 -12 91 -18 8 -13 27 -16 90 -14 41 2 43 3 37 27 -4 14 0 41 9 61 13 31
18 35 37 29 13 -5 46 -7 73 -6 28 0 62 -4 77 -10 17 -7 32 -8 44 -1 9 5 25 7
35 5 15 -4 19 -15 19 -53 0 -44 -3 -50 -32 -64 -29 -15 -33 -15 -49 0 -16 15
-20 15 -41 0 -33 -24 -63 -20 -76 9 -10 22 -14 24 -32 13 -38 -24 -52 -99 -23
-130 9 -10 21 -28 27 -41 16 -31 40 -28 44 6 3 27 16 33 46 21 20 -8 21 -34 1
-34 -8 0 -15 -4 -15 -9 0 -15 36 -23 75 -15 19 3 41 2 48 -4 6 -5 39 -12 72
-15 33 -3 71 -8 85 -12 14 -4 5 3 -20 15 -87 42 -108 55 -107 65 2 11 93 7
117 -5 8 -4 29 -10 45 -14 22 -5 26 -4 15 4 -35 23 23 9 83 -21 34 -17 62 -29
62 -28 0 9 103 -46 116 -63 14 -17 17 -18 22 -5 4 11 -7 23 -38 41 -24 14 -46
26 -50 26 -3 0 -21 10 -38 23 -33 24 -51 31 -178 77 -146 52 -136 61 71 67
161 5 288 -7 317 -30 7 -5 21 -6 30 -2 10 5 29 10 42 12 13 2 40 11 59 19 40
16 242 20 242 4 0 -5 7 -10 15 -10 8 0 15 4 15 9 0 13 70 -13 81 -30 6 -10 17
-4 44 29 20 23 56 56 81 72 l43 31 163 -11 c90 -5 192 -14 228 -20 98 -15 200
-13 200 3 0 11 -51 18 -217 31 -120 9 -251 21 -291 27 -40 5 -81 9 -92 9 -18
0 -120 -96 -120 -112 0 -5 -4 -8 -10 -8 -5 0 -10 8 -10 18 0 17 -16 19 -159
28 -88 6 -165 15 -173 21 -7 6 -60 14 -118 17 -58 4 -231 18 -385 31 -154 14
-338 30 -410 35 -222 16 -236 18 -385 34 -80 9 -167 16 -195 16 -27 -1 -84 4
-125 9 -41 6 -81 10 -89 11 -12 0 -13 39 -7 253 5 138 9 264 10 280 1 27 2 27
71 27 39 0 97 -5 130 -11 33 -6 116 -13 185 -15 69 -2 157 -6 195 -9 39 -2
102 -7 140 -10 178 -12 230 -17 238 -22 5 -3 59 -9 120 -13 127 -9 255 -27
277 -39 8 -4 42 -8 75 -9 33 -1 89 -5 125 -9 36 -4 72 -7 80 -7 8 -1 21 -16
29 -33 8 -18 21 -34 28 -34 7 -1 18 -3 23 -4 6 -1 23 -3 39 -4 21 -1 30 -7 35
-25 5 -19 11 -22 31 -18 15 2 25 0 25 -7 0 -7 4 -10 8 -7 4 3 39 -7 78 -20 38
-14 84 -30 102 -35 34 -10 36 -13 46 -61 9 -39 24 -35 31 10 4 20 13 55 22 78
12 35 18 40 38 36 20 -3 27 2 39 29 8 19 18 48 22 64 3 17 9 24 11 18 3 -7 11
-13 19 -13 8 0 14 -6 14 -14 0 -8 7 -16 15 -20 8 -3 15 -9 14 -13 -1 -4 -1
-15 0 -23 3 -26 31 21 31 51 0 15 5 40 11 56 10 26 12 26 19 8 4 -11 11 -44
15 -72 4 -29 10 -53 15 -53 4 0 12 26 16 58 12 75 32 76 51 3 7 -30 15 -57 17
-59 2 -2 7 20 11 47 4 28 10 51 15 51 4 0 22 -14 40 -30 22 -21 39 -29 55 -26
30 6 45 -33 45 -114 0 -39 5 -62 15 -70 8 -7 15 -23 15 -36 0 -26 15 -32 23
-10 9 22 44 25 65 5 23 -21 32 -16 32 18 0 28 5 29 28 6 12 -12 19 -38 21 -77
l3 -59 -68 8 c-121 14 -118 15 -118 -25 l-1 -35 82 -5 c86 -6 117 -20 95 -42
-7 -7 -12 -15 -12 -20 0 -17 59 -36 120 -36 35 -1 81 -4 103 -7 22 -4 50 -2
68 5 22 10 40 10 72 2 25 -7 58 -8 82 -3 39 7 39 8 -30 15 -105 11 -125 16
-125 33 0 13 16 14 112 8 62 -4 115 -8 118 -10 3 -2 61 -6 130 -9 69 -4 186
-13 260 -21 229 -24 241 -25 390 -29 107 -3 125 -2 70 3 -41 5 -82 11 -90 14
-8 3 -98 11 -200 17 -102 6 -225 17 -275 25 -49 8 -139 16 -200 20 -172 9
-259 18 -306 31 -9 3 -19 14 -22 24 -3 11 -13 20 -22 20 -14 0 -15 -3 -5 -15
11 -13 8 -15 -15 -15 -19 0 -26 4 -22 14 3 8 3 17 0 20 -7 7 -7 255 0 262 3 3
13 -6 22 -20 15 -23 21 -25 68 -20 29 3 56 7 61 7 4 1 14 -14 21 -33 l13 -35
7 43 c8 42 19 50 65 43 8 -1 22 -2 31 -2 18 0 29 -54 29 -140 0 -27 5 -49 10
-49 6 0 10 36 10 88 0 48 4 93 9 101 17 26 39 4 46 -46 10 -77 19 -83 23 -15
2 45 7 62 17 62 22 0 35 -33 44 -112 l8 -73 2 67 c0 36 4 73 7 82 8 20 33 21
40 1 5 -12 30 -15 135 -15 95 0 131 -3 134 -12 2 -7 7 -35 11 -63 6 -43 8 -46
15 -25 4 14 7 42 8 63 1 24 7 40 16 44 21 7 24 3 34 -48 5 -24 9 -36 10 -26 1
9 6 17 11 17 6 0 10 9 10 20 0 27 8 25 36 -7 l23 -27 6 27 c8 31 13 32 51 12
16 -8 48 -15 72 -15 29 0 45 -5 48 -15 7 -16 30 -20 36 -6 3 10 28 14 65 12
16 -1 28 -13 42 -43 14 -31 20 -37 20 -22 1 12 9 32 20 45 l18 23 13 -25 c18
-34 19 -35 35 -13 14 18 15 18 38 -10 l24 -29 16 24 c9 13 17 19 17 13 0 -24
42 -52 109 -73 40 -13 84 -29 99 -37 15 -8 33 -14 39 -14 7 0 15 -12 19 -27
15 -69 29 -72 38 -9 8 53 47 101 76 93 29 -8 70 29 70 62 0 15 3 30 6 34 13
12 52 -25 58 -54 6 -33 29 -35 34 -3 1 10 5 30 8 44 5 24 6 24 20 6 8 -11 14
-34 15 -50 0 -17 6 -47 13 -66 l13 -35 6 68 c3 37 9 73 13 78 10 17 24 -11 24
-49 0 -18 5 -43 12 -55 11 -21 11 -21 19 -2 4 11 8 37 8 58 1 44 21 51 21 7 0
-39 24 -49 63 -26 16 9 31 15 33 14 1 -2 6 -30 9 -63 7 -67 32 -145 48 -145 5
0 2 -11 -7 -25 -13 -20 -16 -42 -12 -103 l5 -77 93 -12 c115 -14 204 -17 284
-7 43 4 63 3 69 -5 13 -22 36 8 24 31 -6 11 -8 22 -5 25 3 3 54 1 113 -5 193
-20 241 -23 247 -13 9 15 -19 20 -149 26 -66 3 -141 11 -166 16 -26 6 -53 10
-60 9 -37 -6 -50 0 -44 19 5 15 -1 20 -31 25 -64 12 -81 25 -88 65 -9 55 -7
101 4 101 6 0 10 -4 10 -10 0 -20 29 -9 32 12 2 15 13 24 37 31 44 11 61 3 61
-27 0 -14 5 -28 10 -31 6 -4 10 6 10 22 0 46 14 59 45 45 15 -7 30 -10 34 -7
13 7 31 -43 31 -85 0 -22 5 -40 10 -40 6 0 10 18 10 39 0 22 5 52 11 68 l11
28 14 -30 c7 -16 13 -45 14 -64 0 -45 10 -33 21 26 14 71 26 73 39 7 17 -83
29 -100 30 -42 0 62 8 82 26 67 8 -7 28 -9 48 -5 23 4 54 0 93 -13 32 -11 70
-17 84 -14 24 4 28 1 35 -29 4 -18 9 -36 10 -40 1 -5 2 -15 3 -23 0 -8 6 -15
11 -15 6 0 10 24 11 53 1 111 28 112 37 1 2 -35 8 -64 12 -64 4 0 11 32 14 71
9 85 23 81 32 -9 4 -38 12 -62 19 -62 6 0 12 6 13 13 0 6 2 27 3 45 3 40 13
48 40 28 20 -13 24 -13 50 6 26 19 30 20 46 6 12 -10 37 -14 75 -13 l58 1 6
-35 c3 -20 6 -42 7 -50 5 -34 27 -20 38 23 14 56 29 60 29 9 0 -21 7 -46 15
-56 13 -18 14 -18 24 2 6 11 12 30 12 43 1 13 6 -1 11 -29 10 -55 17 -63 38
-38 22 26 71 33 150 20 95 -16 107 -21 114 -51 10 -40 31 -27 50 31 20 64 39
78 114 80 l53 1 -3 -80 -3 -80 -80 -33 c-44 -18 -95 -33 -115 -34 l-35 -1 34
-11 c29 -9 44 -7 95 12 86 33 106 36 106 19 0 -9 -31 -25 -86 -44 -79 -27
-106 -45 -90 -61 9 -9 86 18 125 44 19 12 38 20 43 17 12 -8 10 -114 -3 -114
-5 0 -29 -9 -52 -19 -146 -67 -153 -69 -163 -54 -9 15 -102 23 -454 43 -96 5
-211 14 -254 20 -98 12 -106 6 -79 -66 2 -7 -12 -22 -32 -34 -32 -20 -38 -21
-58 -7 -20 13 -26 13 -42 1 -16 -12 -21 -12 -39 5 -24 21 -42 18 -73 -16 -28
-30 -29 -47 -3 -80 11 -14 20 -32 20 -40 0 -9 11 -13 33 -13 60 1 142 -12 152
-25 13 -16 107 -27 102 -11 -2 6 -14 16 -26 22 -79 40 -23 53 86 20 87 -26
104 -34 159 -71 47 -32 124 -68 130 -62 13 12 -214 151 -301 184 -87 33 -105
49 -98 86 l5 27 92 0 c50 0 118 -5 151 -11 33 -5 139 -16 235 -24 96 -8 187
-15 201 -17 31 -4 84 -49 123 -106 l28 -42 29 31 c25 27 34 30 71 27 24 -3 51
-8 61 -12 15 -7 17 0 17 83 0 66 -3 91 -12 91 -11 0 -136 -48 -147 -57 -3 -2
0 -8 7 -15 8 -8 2 -16 -23 -30 -44 -23 -45 -23 -45 3 0 16 -4 19 -20 14 -18
-6 -19 -4 -10 17 9 18 34 30 113 56 56 17 110 32 120 32 16 0 17 37 15 658 -1
361 -4 584 -5 495 l-3 -163 -36 0 c-22 0 -73 -18 -131 -46 -103 -49 -92 -48
-248 -24 -33 5 -123 14 -200 20 -453 34 -1137 100 -1148 110 -10 9 14 35 53
61 14 9 22 20 19 23 -6 7 -115 19 -364 41 -93 8 -186 17 -205 19 -19 3 -116
12 -216 22 l-180 17 -68 -47 c-48 -33 -75 -46 -90 -42 -12 3 -50 8 -86 11 -36
3 -135 12 -220 20 -85 8 -209 19 -275 25 -123 11 -148 14 -295 30 -47 5 -137
14 -200 20 -63 6 -153 15 -200 21 -80 9 -386 39 -402 39 -17 0 -6 21 27 51 19
18 33 34 31 36 -9 10 -392 56 -601 73 -133 11 -380 37 -437 46 -35 6 -37 5
-74 -50 -30 -45 -42 -56 -58 -52 -12 2 -64 8 -116 11 -52 4 -120 11 -150 15
-30 5 -152 16 -270 24 -339 25 -453 35 -635 61 -200 28 -416 50 -712 71 -55 4
-93 11 -93 18 0 6 7 30 16 53 9 24 15 45 13 47 -2 3 -69 10 -149 16 -161 12
-450 41 -665 66 -272 31 -390 42 -394 39 -2 -2 -7 -25 -12 -51 -5 -26 -11 -49
-14 -52 -2 -2 -73 3 -157 12 -168 19 -255 27 -553 51 -110 8 -231 19 -270 24
-38 5 -136 15 -218 22 -94 8 -146 17 -144 23 3 8 277 12 889 14 l885 2 -5 -30
c-3 -22 0 -30 11 -30 8 0 15 6 14 13 -2 49 -12 47 209 47 l207 0 -6 -45 c-4
-29 -2 -47 5 -51 13 -8 268 -14 281 -6 12 6 -23 42 -42 43 -9 1 2 5 24 10 37
8 179 4 235 -7 19 -4 22 -2 10 6 -8 5 -30 10 -49 10 -53 0 -161 21 -161 31 0
5 273 9 650 9 480 0 649 -3 647 -11 -2 -13 26 -23 96 -32 45 -6 47 -6 47 18
l0 25 560 0 c491 0 560 -2 560 -15 0 -12 13 -15 60 -15 45 0 62 4 66 15 5 13
46 15 280 15 l274 0 0 -119 c0 -66 3 -122 8 -124 4 -3 35 -8 70 -12 l62 -7 0
131 c0 72 4 131 9 131 5 0 12 -58 16 -130 l7 -129 31 -5 c18 -3 63 -8 100 -11
l68 -6 -3 123 -3 123 -34 5 c-19 3 -36 11 -39 18 -3 9 30 12 141 12 107 0 147
-3 150 -12 4 -10 8 -10 15 0 7 11 10 11 15 -2 9 -22 77 -22 77 -1 0 22 37 19
42 -3 5 -19 64 -32 151 -32 33 0 37 3 37 25 l0 25 829 0 828 0 7 -112 c5 -88
11 -116 24 -126 32 -24 37 -8 34 117 -2 98 0 121 12 121 10 0 15 -28 21 -124
l7 -125 51 -6 c29 -4 68 -5 87 -3 l35 3 -4 128 -3 127 60 0 60 0 7 -117 c3
-65 7 -127 8 -138 2 -21 34 -30 126 -36 l43 -3 -1 124 c-1 69 -5 135 -8 148
l-5 22 626 0 626 0 0 70 0 70 -6400 0 -6400 0 0 -2413z m5038 2256 c-10 -2
-26 -2 -35 0 -10 3 -2 5 17 5 19 0 27 -2 18 -5z m-1473 -287 c61 -8 90 -14 65
-14 -25 0 -92 6 -150 13 -58 7 -87 13 -65 13 22 0 90 -5 150 -12z m4120 -186
c7 -12 -78 -12 -115 0 -18 6 -7 8 42 9 37 1 70 -3 73 -9z m-1767 -32 c35 -6
61 -12 59 -15 -7 -7 -218 15 -252 27 -37 12 97 4 193 -12z m1942 12 c20 -7 17
-8 -20 -8 -25 0 -56 4 -70 8 -20 7 -17 8 20 8 25 0 56 -4 70 -8z m145 -21 c5
-7 -5 -8 -32 -3 -51 9 -54 14 -10 14 20 0 39 -5 42 -11z m-645 -15 c0 -12 -71
-94 -81 -94 -17 0 -9 22 22 61 27 34 59 52 59 33z m156 -14 c43 -5 151 -14
239 -20 156 -10 354 -34 425 -50 31 -7 27 -8 -28 -9 -61 -1 -163 8 -342 30
-47 5 -154 18 -238 29 -85 10 -156 21 -160 24 -8 8 12 8 104 -4z m-796 -40 c0
-13 -30 -13 -50 0 -11 7 -7 10 18 10 17 0 32 -4 32 -10z m-4096 -137 c-6 -100
-6 -103 15 -104 11 -1 26 -2 33 -3 8 -1 13 32 16 104 3 93 12 133 26 119 3 -2
6 -55 7 -116 3 -90 6 -114 19 -118 13 -6 13 -7 0 -15 -9 -5 -63 -2 -125 6 -61
7 -114 13 -119 14 -6 0 -5 5 2 12 8 8 12 45 12 101 0 61 3 86 11 81 7 -4 10
-35 8 -83 -4 -85 1 -101 37 -101 21 0 24 5 25 38 1 43 6 89 15 151 4 32 8 41
15 30 6 -8 7 -57 3 -116z m403 108 l51 -1 1 -67 c0 -38 3 -92 7 -120 l6 -53
-58 -1 c-33 -1 -50 -3 -39 -6 11 -2 31 -6 44 -9 90 -20 -123 -19 -239 1 -36 6
-39 8 -24 20 16 11 16 13 -5 25 -19 9 -22 17 -17 41 3 16 9 44 12 62 4 17 23
51 42 75 l35 42 66 -4 c36 -2 89 -5 118 -5z m120 -22 c-3 -10 1 -23 9 -30 9
-7 14 -31 14 -61 0 -67 14 -53 30 31 23 123 41 122 63 -4 l14 -80 8 50 c9 57
31 115 44 115 4 0 13 -10 19 -22 6 -13 11 -17 11 -10 1 8 24 12 80 12 l78 0 1
-145 c1 -91 -3 -147 -10 -151 -5 -4 -60 1 -122 10 -61 9 -149 19 -196 23 l-84
8 2 55 c4 97 24 230 34 224 5 -4 8 -15 5 -25z m-783 -107 c9 -16 8 -17 -21
-26 -22 -7 -23 -5 -23 53 0 88 12 109 25 41 5 -30 14 -61 19 -68z m1258 92
c62 -6 68 -9 69 -37 0 -12 4 -31 8 -42 7 -16 10 -12 17 24 12 56 29 62 48 17
8 -20 17 -36 20 -36 3 0 13 16 22 35 9 19 23 35 30 35 8 0 14 -1 14 -2 1 -2 3
-21 6 -43 12 -98 27 -114 39 -39 7 48 25 55 36 13 4 -13 7 -65 8 -114 1 -58 6
-96 14 -104 10 -11 -12 -12 -128 -6 -77 4 -162 7 -189 6 -26 -1 -62 1 -78 5
l-31 6 7 77 c3 42 9 108 13 148 3 40 10 70 15 67 5 -3 32 -8 60 -10z m1001
-73 c1 -22 5 -41 9 -41 6 0 21 54 23 82 1 16 16 20 30 8 8 -7 15 -28 15 -46 0
-19 4 -34 10 -34 5 0 9 10 7 23 -2 19 3 22 36 25 21 2 44 -2 51 -8 8 -6 15
-42 18 -90 3 -55 10 -85 21 -98 43 -47 21 -50 -208 -26 -82 8 -192 18 -244 21
l-93 6 7 66 c3 36 12 71 20 76 7 6 19 32 27 57 l13 46 34 -14 c24 -10 31 -18
27 -30 -3 -9 -6 -20 -6 -25 0 -6 -4 -7 -10 -4 -20 12 -10 -12 14 -34 l24 -23
16 30 c9 17 16 45 16 62 0 60 38 26 42 -38 2 -23 6 -42 11 -42 10 0 27 46 27
76 0 72 60 48 63 -25z m4192 39 c23 -8 11 -9 -50 -5 -45 2 -92 9 -105 15 -32
14 110 4 155 -10z m-270 -42 c88 -5 230 -15 315 -24 85 -8 229 -21 320 -29 91
-8 208 -19 260 -23 52 -5 106 -15 120 -22 14 -8 55 -15 91 -16 36 -1 75 -4 85
-7 10 -3 53 -9 94 -12 96 -8 141 -17 140 -30 -1 -12 -27 -11 -385 19 -93 8
-208 17 -255 21 -47 3 -143 13 -215 21 -149 17 -379 40 -540 55 -206 18 -220
21 -223 48 -3 20 -1 22 15 16 10 -4 90 -12 178 -17z m537 11 c17 -11 -34 -11
-87 1 -39 8 -38 8 17 7 31 0 63 -4 70 -8z m358 -29 c0 -5 -7 -10 -15 -10 -8 0
-15 5 -15 10 0 6 7 10 15 10 8 0 15 -4 15 -10z m226 -9 c-4 -5 0 -12 6 -14 7
-3 -21 -6 -63 -6 -52 -1 -81 4 -95 14 -17 13 -11 14 69 15 51 0 86 -4 83 -9z
m-5590 -66 c14 -19 33 -35 40 -35 8 0 23 -9 35 -21 11 -11 27 -18 36 -15 27
11 63 -5 68 -30 3 -13 7 -35 10 -49 5 -23 3 -25 -35 -25 -23 0 -84 5 -137 12
-70 8 -97 16 -101 27 -3 9 -11 21 -17 26 -8 7 -9 34 -6 80 5 59 9 70 24 67 9
-2 17 2 17 8 0 18 37 -7 66 -45z m6093 -7 c-8 -7 -27 -20 -44 -28 -16 -8 -42
-22 -57 -32 -29 -20 -78 -24 -78 -7 0 7 9 9 22 6 14 -4 29 1 44 16 33 32 52
47 82 63 30 16 53 3 31 -18z m-7783 7 c14 -13 11 -15 -20 -15 -25 0 -36 4 -36
15 0 9 9 15 21 15 11 0 27 -7 35 -15z m8221 -29 c10 -10 -80 -6 -102 5 -14 6
-3 8 38 5 32 -2 61 -7 64 -10z m-8327 -30 c0 -22 -13 -26 -46 -16 -16 4 -23 9
-16 9 7 1 10 6 7 11 -4 6 7 10 24 10 20 0 31 -5 31 -14z m131 -2 c5 -3 9 -12
9 -20 0 -12 -11 -14 -52 -12 -47 3 -53 6 -56 27 -4 23 -2 24 43 18 26 -4 51
-9 56 -13z m-604 -28 c3 -3 -5 -6 -20 -6 -14 0 -28 4 -31 9 -7 10 41 8 51 -3z
m1198 -19 c60 -12 81 -30 46 -40 -23 -6 -270 19 -280 28 -3 4 2 12 12 20 20
14 128 11 222 -8z m-729 -29 c-3 -13 -6 -42 -6 -65 0 -32 -4 -43 -15 -43 -8 0
-15 5 -15 10 0 15 -35 47 -59 55 -12 3 -21 11 -21 16 0 5 -9 9 -20 9 -11 0
-20 5 -20 10 0 6 7 10 15 10 8 0 15 5 15 10 0 6 29 10 66 10 64 0 66 -1 60
-22z m2198 4 c9 -6 127 -14 206 -14 14 0 30 -4 37 -10 8 -6 24 -5 48 3 31 11
37 11 52 -3 11 -12 13 -21 7 -30 -5 -7 -8 -45 -6 -85 3 -64 6 -72 25 -76 12
-2 -14 -5 -57 -6 -109 -1 -302 18 -351 36 -22 8 -56 15 -75 16 l-35 2 4 45 c1
25 7 53 12 62 13 24 69 23 100 0 17 -13 55 -22 129 -29 142 -15 155 -14 155
16 0 19 -6 24 -30 26 -16 2 -82 8 -145 14 -63 6 -124 10 -135 9 -61 -5 -85 2
-85 23 0 21 3 21 67 15 36 -4 71 -10 77 -14z m496 -13 c0 -4 -7 -14 -15 -23
-12 -12 -22 -13 -45 -4 -31 10 -38 26 -19 45 12 12 79 -4 79 -18z m-2535 5
c17 -9 80 -22 140 -29 61 -8 120 -17 133 -21 18 -5 27 -1 39 16 14 19 22 21
67 16 28 -3 89 -8 136 -12 47 -3 103 -12 125 -19 22 -8 93 -19 158 -25 97 -8
122 -8 138 3 13 10 33 12 66 7 27 -5 51 -6 56 -3 4 2 11 1 17 -2 5 -3 43 -7
82 -9 45 -2 85 -9 103 -20 17 -9 48 -16 70 -16 22 0 75 -3 118 -6 52 -4 82 -2
91 5 20 17 272 -7 306 -28 l24 -16 -39 -5 c-37 -5 -41 -8 -54 -49 l-14 -44
-136 6 c-75 4 -206 13 -291 22 -85 8 -220 19 -300 24 -211 14 -373 31 -390 40
-8 4 -45 6 -83 3 -58 -4 -66 -6 -55 -19 9 -11 24 -13 61 -8 44 6 49 5 45 -11
-3 -17 -13 -19 -103 -16 -55 2 -102 6 -105 9 -3 2 5 13 18 23 27 22 22 26 -42
35 l-50 8 32 -31 c17 -16 28 -33 25 -36 -10 -10 -60 23 -66 44 -4 17 -13 20
-64 20 -32 0 -107 7 -168 15 -60 8 -134 15 -162 15 -58 0 -53 -8 -58 88 l-2
42 51 0 c28 0 65 -7 81 -16z m1081 -20 c10 -13 12 -12 18 2 5 13 15 15 59 9
28 -4 63 -13 76 -20 23 -12 24 -13 5 -22 -13 -7 -59 -6 -139 2 -66 7 -122 11
-125 10 -14 -8 -30 13 -24 29 6 15 15 17 63 11 31 -3 61 -13 67 -21z m1584
-23 c0 -10 -11 -12 -47 -6 -69 10 -74 23 -9 21 40 -1 56 -5 56 -15z m6125 -2
c12 -5 -1 -6 -35 -4 -30 2 -68 5 -85 5 -26 1 -27 3 -10 10 21 9 96 3 130 -11z
m-6977 -20 c34 -14 22 -33 -24 -37 -47 -5 -243 18 -249 28 -6 10 15 27 40 32
31 5 207 -11 233 -23z m7274 -7 c4 -4 -33 -4 -83 -1 -49 4 -93 10 -97 14 -9 9
170 -4 180 -13z m-3227 -76 c4 -28 5 -76 3 -106 -3 -48 -6 -55 -25 -58 -22 -3
-23 0 -23 55 0 32 3 89 7 127 5 59 8 66 19 51 7 -9 16 -40 19 -69z m3503 65
c60 -5 108 -13 115 -21 10 -10 -10 -11 -103 -6 -63 4 -149 13 -190 20 -74 13
-74 13 -30 17 25 3 59 3 75 1 17 -1 76 -6 133 -11z m-6815 2 c-13 -2 -33 -2
-45 0 -13 2 -3 4 22 4 25 0 35 -2 23 -4z m7757 -3 c0 -9 -68 -45 -136 -70 -47
-18 -8 18 55 50 60 31 81 36 81 20z m-4526 -41 c3 -17 6 -65 6 -105 0 -66 -2
-74 -19 -74 -11 0 -23 9 -26 21 -7 20 1 137 11 172 8 27 21 20 28 -14z m-3175
-5 c10 -9 -35 -3 -49 6 -11 8 -7 9 15 4 17 -4 32 -8 34 -10z m83 -75 c15 -10
43 -19 62 -19 34 0 35 0 25 -32 -6 -18 -11 -40 -12 -48 -1 -8 -7 -18 -13 -22
-16 -11 -214 3 -227 16 -7 6 -50 13 -97 14 -47 2 -179 12 -294 23 -115 10
-229 19 -252 19 -24 0 -46 5 -50 11 -12 19 534 -9 620 -32 25 -7 42 -7 48 -1
15 15 5 46 -17 50 -11 2 -24 8 -30 14 -39 37 185 45 237 7z m-3493 7 c9 -11
10 -51 5 -148 -4 -73 -6 -148 -5 -167 1 -19 -3 -37 -9 -41 -14 -9 -61 0 -55
10 2 4 16 5 29 3 l25 -5 -4 106 c-2 58 0 106 4 106 5 0 9 11 9 25 0 14 -5 25
-10 25 -5 0 -8 17 -7 38 2 21 -1 43 -5 50 -10 17 9 15 23 -2z m137 5 c5 -5 54
-12 109 -15 152 -8 183 -15 205 -45 10 -15 35 -58 54 -96 l35 -68 -80 -39
c-43 -21 -79 -43 -79 -48 0 -6 -6 -10 -13 -10 -7 0 -30 -16 -51 -35 -22 -20
-49 -38 -62 -41 -13 -4 -24 -10 -24 -14 0 -16 -81 -61 -100 -55 -10 3 -34 21
-54 40 l-37 34 1 148 c1 152 12 232 33 245 17 11 51 10 63 -1z m444 -41 c22
-1 23 -2 5 -9 -16 -6 -13 -9 15 -13 19 -3 57 -5 83 -4 31 2 43 -1 35 -7 -8 -5
-4 -6 12 -2 29 9 259 9 268 1 3 -3 -5 -15 -18 -26 -21 -18 -21 -20 -5 -20 34
0 1 -18 -45 -25 -33 -4 -41 -3 -30 4 12 9 10 11 -10 12 -51 2 -87 -4 -160 -27
-41 -13 -83 -24 -92 -24 -10 0 -18 -4 -18 -9 0 -13 -41 -21 -57 -12 -23 12
-64 91 -77 144 -7 28 -6 29 31 23 21 -3 49 -6 63 -6z m920 -70 c0 -11 -4 -20
-9 -20 -11 0 -22 26 -14 34 12 12 23 5 23 -14z m1474 10 c12 0 31 -7 42 -15
17 -13 11 -14 -64 -13 -46 1 -85 5 -88 10 -6 9 56 28 74 22 8 -2 24 -4 36 -4z
m-3431 -66 c-1 -7 10 -17 25 -23 15 -6 33 -20 40 -31 11 -19 9 -20 -26 -20
-80 0 -131 40 -100 77 13 16 64 13 61 -3z m9755 -82 c-6 -49 -23 -24 -25 38
l-2 65 15 -40 c8 -22 13 -50 12 -63z m-75 -4 c2 -27 1 -48 -4 -48 -5 0 -9 26
-8 58 1 64 5 60 12 -10z m-6178 -5 c25 -20 45 -41 45 -47 0 -5 -26 -6 -62 -2
-35 3 -107 9 -160 13 l-97 6 26 31 c35 43 48 47 131 41 66 -4 77 -8 117 -42z
m-2007 2 c-1 -2 -43 -11 -93 -20 -49 -9 -132 -30 -182 -46 -109 -34 -123 -35
-123 -10 0 36 162 87 315 99 62 6 81 4 83 -6 2 -8 2 -15 0 -17z m57 15 c3 -5
-1 -10 -9 -10 -9 0 -16 5 -16 10 0 6 4 10 9 10 6 0 13 -4 16 -10z m65 -21 c0
-5 -4 -9 -10 -9 -5 0 -10 7 -10 16 0 8 5 12 10 9 6 -3 10 -10 10 -16z m-1582
-18 c46 -13 52 -24 22 -43 -11 -7 -20 -18 -20 -25 0 -7 -4 -13 -9 -13 -5 0 -8
-11 -7 -25 2 -13 -4 -32 -13 -42 -16 -16 -16 -18 1 -35 16 -16 17 -20 4 -33
-8 -8 -22 -15 -30 -15 -9 0 -16 -4 -16 -10 0 -5 -6 -10 -14 -10 -7 0 -19 -7
-26 -15 -18 -21 5 -65 34 -65 17 0 18 -2 6 -10 -12 -8 -12 -12 -2 -18 7 -5 12
-15 10 -23 -2 -8 7 -15 20 -17 15 -2 22 2 22 13 0 14 3 14 27 1 22 -11 28 -21
28 -50 0 -35 -1 -36 -40 -37 -22 -1 -42 -1 -45 -1 -3 0 -37 3 -74 7 -38 3 -72
8 -77 11 -14 8 25 72 41 67 8 -2 5 3 -7 13 -18 13 -23 26 -23 61 0 39 2 44 15
33 8 -7 15 -11 16 -9 6 31 6 39 -1 39 -22 0 -16 33 12 62 17 17 32 43 33 57 1
14 7 35 13 47 9 17 7 27 -11 52 -12 17 -28 32 -35 32 -7 0 -11 4 -7 10 7 12
97 7 153 -9z m9570 -10 c-2 -11 -16 -17 -41 -19 -35 -3 -37 -2 -26 16 15 24
71 27 67 3z m-8128 -20 c0 -12 -25 -21 -100 -36 -90 -18 -192 -44 -212 -56
-24 -12 -28 -12 -28 6 0 9 25 21 73 35 39 11 83 26 97 32 46 20 170 34 170 19z
m-400 -55 c0 -7 -19 -22 -42 -34 -84 -43 -144 -82 -204 -131 -89 -74 -92 -75
-109 -61 -16 14 -20 30 -7 30 8 0 59 42 125 103 17 15 36 27 43 27 8 0 22 8
32 18 10 9 34 26 55 37 20 11 37 23 37 27 0 11 44 15 58 5 6 -5 12 -15 12 -21z
m-1562 -11 c3 -11 0 -15 -8 -10 -7 4 -16 2 -20 -5 -5 -7 -15 -10 -25 -6 -15 5
-14 8 6 26 28 22 43 21 47 -5z m106 -73 c-1 -26 -3 -69 -4 -97 -1 -27 1 -101
5 -162 4 -62 5 -113 2 -113 -18 0 -37 15 -37 29 0 9 -13 43 -30 74 -16 32 -30
63 -30 69 0 6 -15 34 -33 62 -19 28 -42 67 -53 86 -10 19 -28 42 -38 51 -12
10 -17 22 -13 33 6 15 16 17 69 11 35 -3 76 -2 93 3 56 16 70 6 69 -46z m856
27 c47 -28 90 -70 90 -86 0 -14 -108 -158 -154 -204 -14 -15 -32 -42 -40 -60
-8 -19 -27 -46 -43 -62 -28 -26 -30 -26 -45 -10 -13 15 -14 42 -7 188 4 94 11
187 15 207 6 36 7 37 58 41 28 2 60 4 71 5 11 1 36 -8 55 -19z m618 -1 c-2 -7
-18 -20 -35 -29 -32 -16 -135 -80 -143 -89 -16 -17 -129 -110 -134 -110 -19 0
0 33 37 64 46 39 153 118 177 130 8 4 31 16 50 26 42 23 53 24 48 8z m8865
-19 c-8 -8 -16 -8 -30 0 -16 9 -14 10 12 11 21 0 26 -3 18 -11z m-8479 -32
c16 -12 10 -15 -55 -31 -41 -9 -114 -31 -163 -47 -49 -16 -91 -27 -95 -24 -3
4 1 18 10 33 29 52 256 104 303 69z m-330 -119 c-3 -5 -23 -16 -45 -25 -21 -8
-39 -19 -39 -24 0 -5 -5 -9 -11 -9 -15 0 -97 -57 -146 -102 -24 -21 -47 -38
-53 -38 -20 0 -9 26 25 60 20 19 52 52 73 73 41 44 62 57 99 63 15 3 38 14 52
25 24 19 26 19 38 3 7 -9 10 -21 7 -26z m-455 -62 c-29 -25 -135 -178 -169
-244 -26 -50 -34 -56 -65 -48 -18 5 -22 11 -18 28 3 13 14 32 23 43 23 27 40
60 40 79 0 9 41 57 91 107 85 86 92 91 107 75 16 -16 15 -19 -9 -40z m-665 29
c3 -9 0 -15 -8 -15 -8 0 -16 7 -20 15 -3 9 0 15 8 15 8 0 16 -7 20 -15z m736
-44 c0 -5 -16 -18 -35 -30 -39 -23 -42 -21 -19 14 16 24 54 35 54 16z m-100
-113 c-7 -18 -25 -49 -39 -68 -15 -19 -39 -54 -55 -77 -16 -24 -33 -43 -38
-43 -12 0 -1 37 21 70 9 14 21 37 28 52 6 15 18 35 25 44 57 71 80 79 58 22z
m-661 -14 c3 -4 1 -9 -6 -11 -7 -2 -10 -10 -7 -18 3 -7 0 -16 -5 -20 -6 -3 -9
-11 -6 -16 4 -5 1 -9 -5 -9 -7 0 -10 -6 -7 -13 10 -26 -7 -36 -46 -28 -24 6
-37 5 -37 -1 0 -6 -7 -5 -16 3 -11 9 -13 20 -8 38 4 14 6 34 6 44 0 9 4 17 10
17 6 0 5 7 -3 17 -13 15 -9 16 55 10 38 -4 72 -9 75 -13z m797 -54 c-14 -17
-26 -25 -26 -18 0 17 40 62 47 54 3 -3 -6 -19 -21 -36z m-761 -130 c3 -5 -1
-10 -9 -10 -9 0 -16 5 -16 10 0 6 4 10 9 10 6 0 13 -4 16 -10z m419 2 c7 -12
-10 -35 -28 -38 -19 -3 -20 0 -4 26 14 21 24 25 32 12z m-424 -132 c-5 -10
-10 -28 -10 -39 0 -12 -4 -21 -10 -21 -5 0 -10 9 -10 20 0 24 -48 40 -60 20
-11 -18 -51 5 -43 26 5 13 15 15 47 11 23 -3 50 -2 61 3 27 10 37 3 25 -20z
m376 -15 c-1 -29 -16 -35 -16 -7 0 16 8 32 16 32 1 0 1 -11 0 -25z m-467 -88
c12 -21 19 -42 16 -48 -4 -5 -27 -9 -53 -9 -45 0 -48 2 -49 28 0 15 1 19 4 10
6 -24 23 -23 23 2 0 11 4 20 9 20 5 0 13 9 16 21 8 24 7 25 34 -24z m-16 -107
c24 0 28 -3 19 -12 -10 -10 -92 -22 -92 -13 0 18 15 35 27 31 8 -3 29 -6 46
-6z m2892 -157 c-2 -10 -4 -25 -5 -33 0 -12 -2 -12 -10 2 -10 17 -4 48 10 48
5 0 7 -8 5 -17z m-2505 -568 c0 -8 7 -15 15 -15 23 0 18 -17 -7 -24 -34 -9
-38 -8 -38 9 0 8 -5 15 -11 15 -8 0 -8 5 1 15 7 8 19 15 26 15 8 0 14 -7 14
-15z m2477 -132 c-2 -27 -3 -5 -3 47 0 52 1 74 3 48 2 -27 2 -69 0 -95z
m-2884 -91 c13 -11 16 -10 22 7 7 22 7 23 65 -53 15 -20 13 -20 -249 0 -61 4
-97 14 -55 14 10 0 30 12 44 26 22 24 29 26 78 20 50 -6 54 -5 60 16 5 21 6
21 13 2 3 -11 14 -25 22 -32z m77 -97 c5 -3 10 -35 10 -71 l0 -64 -38 0 c-46
0 -56 -7 -36 -27 9 -10 11 -20 5 -30 -11 -20 -2 -52 20 -76 12 -13 19 -41 22
-91 2 -39 8 -82 12 -95 l8 -24 -99 6 c-54 3 -121 9 -147 13 -48 7 -49 7 -43
38 4 17 15 43 26 59 12 15 16 27 9 27 -6 0 -9 5 -7 11 2 6 6 9 8 7 14 -9 35
29 37 66 1 22 2 53 3 69 1 15 6 27 11 27 5 0 9 -8 7 -17 -2 -14 3 -17 24 -15
14 2 29 -2 33 -7 10 -18 25 -12 25 9 0 11 -5 20 -11 20 -6 0 -9 6 -6 14 7 17
-27 51 -42 42 -16 -10 -21 9 -12 41 6 20 4 35 -5 48 -8 10 -14 15 -14 11 0 -4
-6 -4 -12 1 -7 4 -21 6 -30 5 -10 -2 -18 2 -18 9 0 9 30 11 125 6 69 -3 129
-9 135 -12z m406 -78 c9 -5 0 -250 -11 -294 -3 -14 -13 -23 -25 -23 -25 0 -26
-18 -2 -27 25 -10 30 -21 23 -56 -6 -29 -10 -32 -39 -29 -18 2 -39 -2 -47 -8
-13 -11 -44 -9 -97 6 -25 7 -22 35 8 67 31 33 44 94 22 102 -15 6 -14 55 1 55
3 0 6 23 6 50 0 28 -3 50 -7 50 -5 0 -8 13 -8 28 0 31 29 72 51 73 8 0 5 4 -6
9 -14 7 3 9 51 6 39 -2 75 -5 80 -9z m-446 -428 c88 -11 102 -15 84 -27 -19
-12 -22 -36 -8 -53 12 -13 12 -21 1 -48 -8 -18 -18 -33 -23 -34 -18 -3 -44
-32 -44 -49 0 -10 -6 -18 -12 -18 -9 0 -9 -3 -2 -8 18 -12 27 -44 35 -117 4
-38 10 -82 14 -97 l7 -28 -119 0 c-66 0 -154 3 -196 6 -86 8 -92 16 -61 76 12
24 16 58 15 150 -1 92 2 123 14 140 8 13 15 33 15 46 0 13 4 21 9 17 5 -3 12
4 16 15 4 11 11 18 16 15 5 -4 12 1 15 9 7 19 96 21 224 5z m429 -55 c2 -2 0
-11 -4 -21 -4 -10 -8 -74 -10 -143 -3 -69 -6 -136 -8 -150 -2 -14 -5 -53 -5
-87 l-2 -63 -72 0 c-40 0 -83 3 -95 6 -26 7 -31 24 -8 24 8 0 15 5 15 11 0 7
11 8 29 4 32 -7 45 5 47 45 1 23 -2 25 -38 26 -23 0 -43 6 -49 15 -9 14 -13
331 -5 340 6 5 199 -1 205 -7z m-412 -460 c18 -3 35 -9 39 -15 7 -11 -258 -5
-336 8 -43 7 -44 7 -15 14 31 7 254 2 312 -7z m-455 -24 c68 -5 197 -14 288
-20 91 -7 192 -15 225 -20 84 -12 318 -48 390 -60 33 -5 77 -12 98 -15 45 -7
48 -27 7 -52 -34 -19 -33 -38 4 -85 11 -15 34 -48 51 -75 32 -52 187 -218 219
-235 11 -6 56 -23 100 -38 69 -24 83 -33 98 -62 9 -18 22 -39 28 -46 19 -21 5
-24 -40 -11 -32 10 -46 10 -61 1 -12 -7 -19 -8 -19 -2 0 11 -97 13 -177 4 -63
-8 -61 -20 5 -29 88 -12 82 -26 -8 -19 -47 4 -91 8 -99 8 -16 1 -24 -15 -13
-29 11 -16 132 -108 183 -140 24 -16 50 -36 57 -46 13 -19 38 -26 127 -35 71
-7 79 -12 66 -46 -5 -14 -7 -28 -4 -31 10 -11 -73 -25 -182 -32 -110 -7 -131
-15 -118 -45 4 -8 8 -32 9 -53 2 -35 0 -37 -28 -37 -23 0 -45 14 -93 58 -34
32 -76 64 -93 71 -33 14 -41 34 -20 47 14 9 -42 26 -164 51 -83 17 -99 16
-361 -37 -32 -7 -61 -9 -64 -6 -9 8 26 82 48 102 11 10 19 22 19 28 0 6 11 32
25 58 28 53 29 58 15 58 -5 0 -10 -7 -10 -15 0 -9 -19 -34 -42 -55 -42 -39
-68 -50 -68 -30 0 15 -79 50 -111 50 -39 0 -89 20 -89 36 0 10 14 13 58 12 31
-1 62 -5 67 -9 13 -9 137 21 133 33 -4 10 -294 15 -304 5 -4 -4 -2 -13 4 -20
17 -20 3 -29 -19 -13 -15 10 -93 12 -361 10 -189 -2 -367 -6 -395 -9 l-53 -6
0 95 0 96 38 0 c20 0 114 5 207 10 94 5 314 14 490 20 331 12 349 15 389 59
25 27 15 27 -28 -2 -30 -21 -50 -25 -172 -30 -236 -12 -242 -11 -274 23 -17
18 -26 37 -23 49 6 22 -22 34 -134 56 -45 9 -97 24 -115 33 -18 9 -69 19 -113
22 -78 5 -80 6 -77 30 3 34 65 182 87 207 30 35 33 41 28 47 -9 8 215 8 313
-1 59 -5 73 -9 54 -14 -14 -4 27 -5 90 -3 73 4 173 0 274 -10 151 -16 191 -25
209 -50 11 -16 -1 -90 -24 -142 -11 -24 -19 -53 -17 -62 4 -20 68 164 68 195
0 44 -49 69 -161 81 -291 33 -628 52 -936 52 l-173 0 0 40 0 40 274 0 c151 0
330 -4 398 -10z m758 -15 c-14 -17 -105 -21 -115 -6 -5 10 28 16 94 19 29 2
32 0 21 -13z m1809 -229 c-11 -24 -29 -36 -29 -18 0 12 31 54 36 49 3 -2 -1
-16 -7 -31z m-234 -13 c-14 -34 -25 -68 -36 -111 -10 -43 -32 -63 -50 -45 -5
5 -11 35 -13 66 -3 54 -2 56 26 66 15 5 28 17 28 25 0 11 9 16 26 16 21 0 25
-3 19 -17z m569 -178 c-7 -16 -49 -21 -58 -6 -8 13 5 21 35 21 21 0 27 -4 23
-15z m-102 -10 c0 -5 -5 -11 -11 -13 -6 -2 -11 4 -11 13 0 9 5 15 11 13 6 -2
11 -8 11 -13z m-16 -275 c33 -13 20 -32 -21 -32 -32 0 -37 4 -29 26 7 19 13
20 50 6z m-1058 -78 c2 -15 -2 -22 -12 -22 -11 0 -16 9 -16 26 0 31 23 28 28
-4z m-72 -11 c-3 -5 -15 -7 -26 -4 -28 7 -25 13 6 13 14 0 23 -4 20 -9z m-191
-101 c3 -5 -1 -10 -9 -10 -9 0 -16 5 -16 10 0 6 4 10 9 10 6 0 13 -4 16 -10z
m295 -101 c0 -5 -4 -9 -10 -9 -5 0 -10 7 -10 16 0 8 5 12 10 9 6 -3 10 -10 10
-16z m94 -164 c7 -19 -10 -65 -24 -65 -5 0 -10 18 -10 40 0 41 21 57 34 25z
m-1061 -32 c-13 -2 -35 -2 -50 0 -16 2 -5 4 22 4 28 0 40 -2 28 -4z m125 -51
l33 -24 -26 -14 c-35 -18 -35 -18 -35 12 0 18 -4 25 -14 21 -14 -6 -29 26 -19
37 7 6 17 1 61 -32z m-256 -40 c15 -31 20 -48 11 -41 -56 47 -84 79 -78 89 14
23 41 3 67 -48z m-71 -14 c13 -18 26 -35 30 -38 3 -3 10 -16 14 -30 7 -23 7
-24 -11 -10 -10 7 -36 30 -56 49 -29 26 -35 38 -27 48 17 20 25 16 50 -19z
m169 -68 c0 -5 -11 -10 -24 -10 -14 0 -28 5 -31 10 -4 6 7 10 24 10 17 0 31
-4 31 -10z m50 -91 c0 -10 -115 -7 -126 4 -3 3 7 9 22 12 16 4 34 8 39 9 16 4
65 -15 65 -25z m66 11 c5 -5 42 -12 83 -16 49 -5 75 -12 78 -22 10 -25 -16
-30 -80 -15 -72 17 -109 33 -115 51 -4 14 20 16 34 2z m-781 -9 c84 -18 -116
-37 -492 -47 -241 -6 -273 -5 -273 9 0 12 24 16 143 21 78 4 223 10 322 15
224 10 262 10 300 2z m1504 -5 c-2 -2 -20 -6 -39 -10 -25 -4 -31 -3 -20 4 14
9 69 15 59 6z m-1115 -46 c8 0 43 9 78 20 82 26 113 26 99 3 -11 -21 3 -53 23
-53 8 0 19 7 26 15 17 21 43 19 58 -5 7 -11 18 -20 25 -20 11 0 13 -18 9 -80
-4 -63 -2 -81 10 -85 16 -6 102 27 112 44 4 6 12 11 18 11 20 0 -32 -47 -83
-74 -72 -40 -182 -45 -253 -13 -94 44 -143 115 -151 219 -4 47 -3 57 4 41 6
-13 17 -23 25 -23z m490 -24 c42 -12 51 -23 37 -45 -7 -11 -21 -9 -82 9 -41
12 -80 24 -86 26 -7 2 -13 10 -13 19 0 13 9 15 53 9 28 -4 70 -12 91 -18z
m556 -36 c0 -5 -13 -10 -30 -10 -16 0 -30 5 -30 10 0 6 14 10 30 10 17 0 30
-4 30 -10z m1070 -100 c0 -13 -26 -19 -41 -9 -12 8 -12 10 0 18 15 10 41 4 41
-9z m875 -50 c3 -5 -3 -10 -14 -10 -12 0 -21 5 -21 10 0 6 6 10 14 10 8 0 18
-4 21 -10z m-1057 -142 c3 -16 -18 -48 -32 -48 -8 0 -34 59 -28 65 13 12 57 0
60 -17z m172 -52 c-16 -16 -30 4 -17 24 11 18 12 19 18 2 4 -9 3 -21 -1 -26z
m-276 -2 c9 -3 13 -10 10 -15 -3 -5 0 -9 5 -9 6 0 11 -7 11 -16 0 -11 -8 -14
-32 -12 -28 2 -34 8 -36 31 -3 28 9 34 42 21z m-451 -11 c-7 -2 -21 -2 -30 0
-10 3 -4 5 12 5 17 0 24 -2 18 -5z m-95 -10 c-10 -2 -26 -2 -35 0 -10 3 -2 5
17 5 19 0 27 -2 18 -5z m175 -40 c-7 -2 -21 -2 -30 0 -10 3 -4 5 12 5 17 0 24
-2 18 -5z m20 -139 c-3 -8 -12 -13 -20 -10 -8 3 -17 6 -19 6 -3 0 -2 5 1 10
11 17 45 12 38 -6z m-550 -31 c-13 -2 -33 -2 -45 0 -13 2 -3 4 22 4 25 0 35
-2 23 -4z m1007 -32 c0 -23 -66 -46 -90 -31 -9 5 -19 5 -27 -2 -9 -7 -44 -9
-101 -5 -48 4 -97 7 -109 7 -33 0 -29 28 5 33 50 8 322 6 322 -2z m-374 -36
c-10 -8 -29 -10 -49 -6 -18 3 -60 6 -94 6 -104 0 -66 20 42 22 54 1 100 5 104
8 3 4 7 1 10 -6 2 -7 -4 -18 -13 -24z m-326 13 l-25 -11 35 -7 c43 -9 40 -10
-27 -13 -31 -1 -46 1 -38 6 8 4 15 15 15 22 0 10 10 15 33 14 32 0 32 0 7 -11z
m-87 -9 c-16 -16 -103 -25 -103 -11 0 6 21 13 48 15 26 2 51 4 57 5 5 1 4 -3
-2 -9z m161 -15 c23 -9 20 -24 -4 -24 -11 0 -20 7 -20 15 0 17 2 18 24 9z
m299 -11 c-7 -2 -21 -2 -30 0 -10 3 -4 5 12 5 17 0 24 -2 18 -5z m-120 -59
c-3 -8 0 -14 6 -14 7 0 14 7 17 15 8 19 91 21 129 3 17 -7 29 -8 33 -2 8 11
74 10 93 -2 8 -4 32 -11 54 -15 22 -4 -77 -6 -220 -6 -143 0 -244 2 -225 4 19
3 39 10 43 16 6 9 10 9 14 0 7 -19 20 -16 26 7 3 13 11 18 20 14 9 -3 13 -12
10 -20z m652 6 c-3 -5 -15 -10 -26 -10 -10 0 -19 5 -19 10 0 6 12 10 26 10 14
0 23 -4 19 -10z"/>
<path d="M3346 6287 c-5 -9 -5 -29 0 -45 7 -25 8 -26 11 -4 3 12 3 32 0 45 -3
19 -4 20 -11 4z"/>
<path d="M933 1743 c-27 -10 -11 -23 30 -23 53 0 88 10 81 21 -5 9 -90 11
-111 2z"/>
<path d="M1255 954 c-22 -8 -55 -20 -72 -25 -18 -6 -33 -13 -33 -18 0 -18 15
-19 48 0 20 10 41 19 47 19 17 0 65 24 65 33 0 10 -9 8 -55 -9z"/>
<path d="M1250 883 c-36 -14 -67 -28 -70 -30 -10 -10 67 -66 127 -94 85 -39
93 -38 82 9 -5 20 -9 54 -9 74 0 39 -21 69 -48 67 -9 0 -46 -12 -82 -26z"/>
<path d="M1438 755 c-4 -17 -1 -25 8 -25 8 0 14 9 14 19 0 30 -17 34 -22 6z"/>
<path d="M12790 6861 l0 -189 -52 -17 c-29 -10 -90 -38 -136 -63 -92 -51 -95
-57 -49 -128 25 -38 40 -42 59 -16 7 9 33 26 58 37 25 11 47 23 50 26 8 11 64
6 72 -6 4 -5 8 115 8 268 0 152 -2 277 -5 277 -3 0 -5 -85 -5 -189z m-156
-325 c12 4 16 0 16 -15 0 -17 -6 -21 -35 -21 -23 0 -38 6 -42 16 -7 20 17 37
33 23 6 -5 19 -7 28 -3z"/>
<path d="M3654 7018 c3 -13 6 -27 6 -31 0 -5 4 -6 9 -3 11 7 2 56 -11 56 -6 0
-8 -10 -4 -22z"/>
<path d="M10324 7032 c3 -5 26 -9 53 -10 35 -1 43 1 28 8 -25 11 -88 13 -81 2z"/>
<path d="M11600 6902 c0 -92 4 -132 13 -139 6 -6 45 -10 85 -10 60 0 72 2 68
14 -4 8 -6 66 -6 128 0 128 9 117 -102 130 l-58 7 0 -130z"/>
<path d="M5456 7011 c-8 -13 27 -91 42 -91 6 0 12 5 12 10 0 12 164 14 188 1
9 -4 71 -11 137 -15 66 -4 140 -11 165 -17 25 -6 99 -14 166 -18 66 -5 129
-13 140 -19 10 -5 57 -11 104 -11 47 -1 123 -5 170 -10 86 -8 134 -1 70 10
l-35 6 41 2 c29 1 44 -4 48 -14 3 -8 15 -15 27 -15 14 0 24 -10 32 -30 13 -35
27 -34 45 4 8 15 20 30 28 33 42 16 -16 48 -101 56 -33 3 -134 13 -225 21 -91
9 -174 18 -185 20 -11 3 -56 8 -100 11 -44 3 -114 10 -155 15 -41 6 -120 14
-175 20 -55 5 -163 16 -240 24 -164 18 -192 19 -199 7z"/>
<path d="M8910 6947 c0 -36 4 -56 10 -52 6 3 10 27 10 53 0 33 3 43 11 35 8
-8 8 -38 0 -109 -11 -106 -9 -113 37 -106 20 3 28 9 28 25 1 117 11 151 20 70
11 -92 15 -104 40 -113 14 -6 30 -10 35 -10 6 0 9 48 7 122 l-3 122 -30 7
c-16 4 -60 9 -97 11 l-68 4 0 -59z"/>
<path d="M9146 6983 c-10 -11 6 -238 18 -245 6 -4 46 -8 89 -8 l78 0 -3 117
-3 118 -55 7 c-30 4 -69 9 -87 12 -17 2 -34 2 -37 -1z"/>
<path d="M10222 6910 c-18 -11 -35 -27 -39 -35 -3 -9 -22 -24 -42 -35 -69 -35
-76 -69 -27 -127 l24 -28 29 22 c15 12 45 34 66 49 l39 28 126 -18 c95 -13
128 -14 131 -5 2 6 25 34 52 63 26 28 45 54 41 58 -7 6 -181 30 -307 43 -50 5
-66 2 -93 -15z m-2 -71 c15 -27 7 -45 -22 -51 -13 -3 -31 -9 -41 -13 -18 -7
-18 -6 -2 31 23 56 47 68 65 33z"/>
<path d="M7635 6899 c11 -8 61 -14 115 -16 72 -2 98 -7 107 -19 6 -8 14 -11
17 -6 3 5 16 7 30 5 13 -3 26 0 30 5 3 6 -14 13 -41 16 -27 4 -64 9 -83 12
-19 2 -71 7 -115 10 -67 4 -77 3 -60 -7z"/>
<path d="M11012 6673 l3 -118 28 -3 c25 -3 27 -1 27 35 0 21 -3 75 -7 121 -6
78 -7 82 -30 82 l-24 0 3 -117z"/>
<path d="M12730 6783 c-29 -6 -120 -62 -120 -75 0 -14 19 -9 29 10 6 9 11 13
11 8 0 -5 9 -1 20 9 12 10 40 21 63 24 23 3 41 10 40 16 -2 12 -11 13 -43 8z"/>
<path d="M11097 6773 c-6 -10 6 -220 13 -226 9 -8 155 -12 158 -4 1 4 2 54 2
111 l0 103 -69 7 c-38 3 -76 9 -84 12 -8 3 -17 2 -20 -3z"/>
<path d="M7982 6742 c-7 -5 51 -16 135 -25 156 -18 247 -22 163 -6 -25 4 -76
10 -115 14 -38 3 -88 10 -110 15 -49 12 -57 12 -73 2z"/>
<path d="M11404 6634 c4 -60 10 -112 14 -115 4 -4 42 -10 86 -14 l79 -7 -8
114 c-4 62 -9 115 -11 117 -2 3 -41 7 -86 9 l-81 4 7 -108z"/>
<path d="M8401 6709 c-20 -8 -21 -12 -11 -25 7 -8 19 -13 26 -10 6 2 29 -4 50
-14 25 -11 85 -22 164 -30 69 -6 195 -20 280 -31 85 -11 189 -24 230 -29 41
-6 127 -14 190 -20 201 -17 220 -20 239 -41 17 -19 18 -19 40 2 16 15 21 30
19 52 -3 35 -11 37 -143 51 -33 3 -118 12 -190 20 -71 8 -164 17 -205 21 -41
4 -118 11 -170 16 -140 15 -495 49 -495 48 0 0 -11 -5 -24 -10z"/>
<path d="M11615 6613 c4 -60 10 -111 13 -114 4 -4 40 -9 79 -12 l73 -6 -4 72
c-2 40 -4 92 -5 117 l-1 45 -81 3 -81 3 7 -108z"/>
<path d="M7966 6691 c-7 -11 22 -23 35 -15 5 3 7 10 4 15 -8 12 -32 12 -39 0z"/>
<path d="M9680 6545 c0 -9 6 -12 15 -9 8 4 12 10 9 15 -8 14 -24 10 -24 -6z"/>
<path d="M10988 6449 c-16 -9 -16 -12 4 -45 18 -30 24 -34 49 -29 15 4 85 0
156 -9 70 -8 194 -20 275 -26 168 -13 198 -15 361 -35 66 -8 135 -15 155 -15
58 0 82 -10 88 -37 5 -18 11 -22 25 -18 11 4 19 2 19 -4 0 -25 31 -9 37 19 3
17 11 30 17 30 6 0 4 6 -5 13 -9 7 -18 21 -20 31 -5 26 -30 32 -189 45 -199
18 -625 59 -783 76 -160 17 -166 18 -189 4z"/>
<path d="M12215 6312 c6 -6 35 -12 65 -15 30 -3 84 -8 120 -12 36 -3 84 -8
107 -10 28 -3 43 0 46 9 4 10 -6 14 -36 14 -23 1 -60 3 -82 6 -116 13 -229 17
-220 8z"/>
<path d="M7453 5835 c-28 -25 -56 -45 -62 -45 -6 0 -11 -4 -11 -10 0 -16 12
-11 55 20 73 55 93 60 155 44 30 -8 99 -16 153 -18 56 -3 104 -10 112 -16 12
-10 21 -10 44 0 16 6 38 9 49 6 11 -4 23 -2 27 4 4 6 -9 10 -34 10 -22 0 -42
3 -44 8 -3 4 -40 8 -84 10 -43 2 -87 4 -98 6 -11 2 -54 7 -95 10 -41 4 -84 9
-96 11 -13 3 -37 -10 -71 -40z"/>
<path d="M6990 5807 c0 -9 21 -13 79 -12 129 0 109 22 -21 24 -41 0 -58 -3
-58 -12z"/>
<path d="M7612 5783 c22 -21 233 -42 250 -25 7 7 9 14 6 18 -7 6 -172 23 -233
24 -37 0 -38 -1 -23 -17z"/>
<path d="M7425 5750 c-25 -26 -27 -32 -15 -40 8 -5 18 -10 21 -10 11 0 37 35
41 54 5 31 -16 29 -47 -4z"/>
<path d="M6987 5757 c-10 -32 4 -42 64 -44 46 -2 61 1 66 13 9 23 -6 31 -69
37 -39 4 -58 2 -61 -6z"/>
<path d="M7950 5670 c0 -6 28 -10 68 -9 62 1 64 2 27 10 -56 11 -95 11 -95 -1z"/>
<path d="M3360 5666 c0 -2 21 -11 48 -20 l47 -16 -24 20 c-20 17 -71 28 -71
16z"/>
<path d="M8610 5626 c0 -2 19 -13 43 -24 60 -29 237 -41 256 -18 8 9 11 19 8
22 -14 15 -307 33 -307 20z"/>
<path d="M10256 5621 c-4 -6 -15 -11 -25 -11 -10 0 -26 -9 -36 -20 -25 -27
-11 -25 42 6 36 21 54 25 91 21 26 -3 95 -10 155 -16 59 -6 112 -12 118 -14 6
-1 13 3 16 9 5 14 -56 23 -223 31 -94 4 -133 3 -138 -6z"/>
<path d="M9625 5592 c13 -13 277 -34 288 -23 14 14 -18 19 -163 26 -91 5 -132
4 -125 -3z"/>
<path d="M7428 5543 c-34 -35 -36 -39 -20 -50 16 -10 16 -12 -3 -28 -14 -11
-16 -18 -7 -21 15 -7 6 -24 -13 -24 -8 0 -18 12 -21 26 -4 16 -10 22 -16 16
-7 -7 4 -28 30 -61 l40 -50 17 25 c14 22 22 25 48 19 54 -12 99 -9 111 6 27
34 66 49 131 49 56 0 69 -4 95 -27 17 -14 30 -31 30 -36 0 -5 8 -16 17 -23 31
-22 7 -26 -72 -13 -147 23 -343 -4 -374 -53 -18 -29 -3 -40 22 -18 38 36 116
52 229 47 161 -8 177 -13 204 -62 13 -24 22 -32 32 -26 11 6 15 28 14 84 -1
65 2 77 21 95 19 17 58 31 92 33 6 1 60 -4 120 -11 61 -6 160 -14 220 -16 156
-6 352 -23 394 -33 93 -23 98 -23 112 12 7 18 14 35 16 38 2 3 -43 9 -99 13
-57 4 -119 11 -138 16 -19 5 -91 11 -160 15 -163 7 -325 23 -425 40 -96 17
-234 25 -241 14 -3 -5 6 -11 20 -15 30 -7 44 -34 18 -34 -10 0 -23 5 -29 11
-6 6 -53 14 -104 19 -52 5 -96 10 -99 10 -3 1 9 7 25 14 l30 13 -25 6 c-14 3
-65 9 -115 12 l-90 6 -37 -38z"/>
<path d="M9162 5567 c27 -22 189 -42 217 -27 40 21 9 30 -115 36 -104 5 -117
4 -102 -9z"/>
<path d="M5996 5563 c-3 -3 -6 -15 -6 -25 0 -10 -7 -19 -15 -19 -8 -1 -27 -3
-42 -5 -16 -2 -46 -5 -68 -8 -163 -17 -408 -116 -552 -222 -99 -73 -117 -81
-138 -60 -19 19 -48 8 -65 -24 -6 -11 -17 -20 -25 -20 -8 0 -15 -7 -15 -15 0
-8 -15 -32 -33 -52 -44 -49 -95 -131 -136 -218 -47 -101 -47 -100 -72 -97 -29
3 -48 26 -43 50 6 26 -9 42 -33 36 -20 -5 -20 -8 -8 -21 11 -11 15 -43 16
-131 2 -249 10 -435 20 -454 6 -12 7 -24 1 -31 -33 -43 -17 -97 29 -97 17 0
62 -5 101 -12 73 -12 96 -30 65 -53 -22 -16 -21 -22 1 -29 9 -2 -1 -2 -23 1
-22 3 -42 9 -45 13 -3 4 -25 10 -50 14 -25 4 -55 9 -67 13 -20 4 -23 1 -23
-21 0 -14 -5 -26 -12 -26 -6 0 -3 -9 8 -21 12 -14 25 -18 42 -14 13 3 57 3 98
-1 l75 -7 -6 -381 c-3 -210 -10 -703 -15 -1096 -5 -393 -13 -791 -16 -885 -10
-253 -9 -297 10 -307 13 -7 16 -30 16 -133 0 -68 4 -126 8 -129 14 -8 132 -10
237 -3 155 10 456 17 481 11 30 -8 42 -40 35 -98 -4 -35 -12 -52 -26 -60 -11
-6 -22 -12 -24 -13 -2 -1 3 -13 12 -26 9 -14 34 -29 61 -37 42 -11 45 -15 41
-39 -6 -30 13 -119 30 -141 7 -8 18 -31 25 -50 8 -19 23 -47 34 -63 12 -16 16
-30 10 -36 -11 -10 -270 -32 -290 -24 -20 8 -104 -6 -104 -18 0 -5 7 -9 15 -9
9 0 25 -15 36 -34 11 -19 27 -36 37 -38 9 -2 289 -3 622 -2 333 1 781 -2 995
-7 215 -5 510 -9 658 -10 147 -1 284 -5 305 -9 20 -5 113 -11 205 -15 175 -6
197 -10 197 -29 0 -8 63 -12 218 -14 119 -2 337 -5 483 -9 217 -4 283 -2 359
11 51 9 118 16 148 16 52 0 149 21 183 40 9 5 54 14 100 21 46 7 91 18 100 26
9 7 19 10 22 6 4 -3 7 3 7 15 0 17 -8 22 -37 27 -21 3 -49 9 -63 14 -14 4 -35
4 -45 0 -37 -14 -74 -9 -99 13 -13 13 -31 29 -40 36 -20 16 -21 56 -2 71 8 6
16 24 19 39 13 64 20 88 30 99 11 15 77 16 167 3 71 -11 315 -25 595 -35 99
-4 227 -10 285 -15 58 -4 123 -6 145 -3 22 3 403 5 848 5 l807 -2 0 75 0 75
-35 0 c-23 0 -35 5 -35 14 0 8 15 17 35 20 31 6 35 11 35 36 l0 30 -632 0
-633 0 0 127 c0 161 -20 239 -77 298 -21 23 -38 46 -38 53 0 9 72 12 300 12
248 0 300 2 300 14 0 11 -62 15 -352 19 -247 3 -364 9 -390 18 -31 10 -71 9
-235 -7 -197 -18 -198 -19 -123 -26 41 -4 79 -9 85 -11 5 -2 -4 -18 -21 -35
-68 -68 -118 -187 -134 -321 -5 -46 -15 -91 -22 -99 -11 -13 -45 -14 -253 -8
-132 4 -296 11 -365 15 -69 4 -126 4 -128 -1 -2 -4 -23 -8 -47 -8 -42 0 -44 1
-51 35 -9 48 -24 57 -108 63 -62 4 -74 2 -79 -13 -4 -9 -5 -21 -2 -25 3 -5 1
-11 -5 -15 -34 -21 38 -48 105 -38 51 7 68 -16 31 -44 -22 -17 -22 -17 -3 -39
11 -12 26 -20 34 -17 8 3 13 0 11 -7 -2 -7 8 -17 22 -21 17 -6 6 -8 -36 -6
-78 4 -105 24 -80 62 16 25 16 25 -13 25 -45 0 -61 -10 -61 -36 0 -16 8 -28
23 -34 16 -6 9 -8 -29 -6 -103 6 -120 28 -123 156 -1 36 -10 90 -21 120 -11
30 -19 71 -20 91 0 21 -9 47 -20 62 -11 14 -20 29 -20 35 0 5 -13 26 -30 47
-16 21 -30 46 -30 57 0 11 -4 17 -9 14 -9 -6 -21 24 -25 64 -3 27 17 64 28 53
3 -4 5 4 4 17 -2 19 4 25 32 34 l35 11 -49 3 c-27 2 -61 0 -75 -3 -23 -6 -24
-8 -8 -16 21 -12 22 -26 2 -46 -18 -18 -123 -22 -158 -6 -108 51 -114 51 -307
12 -115 -24 -145 -34 -235 -80 -116 -60 -274 -233 -324 -356 -7 -18 -17 -33
-22 -33 -5 0 -9 -11 -9 -24 0 -14 -4 -28 -10 -31 -5 -3 -10 -21 -10 -40 0 -52
-8 -53 -450 -69 -52 -2 -252 -6 -445 -10 -192 -4 -419 -11 -503 -17 -161 -10
-227 -3 -239 27 -11 29 15 36 153 40 235 6 602 46 914 98 93 16 255 66 310 96
19 10 44 23 55 28 11 6 33 22 48 36 15 14 32 26 36 26 14 0 95 93 116 132 11
21 25 38 32 38 7 0 13 3 14 8 3 27 10 45 28 71 38 53 158 296 165 334 4 21 16
59 27 85 18 42 35 91 69 198 17 51 12 189 -8 252 -11 31 -25 77 -32 102 -18
66 -50 143 -67 162 -11 12 -21 14 -43 8 -24 -7 -149 -14 -187 -11 -19 2 -16
15 12 47 18 20 21 30 12 36 -8 5 -7 8 5 8 9 0 23 9 32 21 10 15 21 19 38 15
12 -3 3 4 -22 16 -89 42 -525 46 -775 6 -76 -12 -295 -86 -295 -100 0 -4 -7
-8 -15 -8 -8 0 -15 -4 -15 -9 0 -5 -11 -12 -25 -15 -14 -4 -47 -21 -73 -39
-26 -19 -78 -52 -117 -75 -38 -23 -86 -55 -105 -72 -19 -16 -39 -30 -43 -30
-5 0 -20 -9 -34 -20 -14 -11 -22 -20 -17 -20 5 0 -3 -8 -17 -18 -103 -68 -145
-102 -127 -102 7 -1 -3 -7 -22 -14 -20 -7 -78 -55 -138 -115 l-102 -102 -90
-11 c-50 -6 -93 -8 -97 -5 -3 4 -1 18 5 32 8 17 20 25 37 25 14 0 25 3 25 8 0
4 14 13 30 20 17 8 37 26 45 42 8 15 21 30 30 33 8 4 15 13 15 22 0 8 5 15 11
15 6 0 36 18 68 40 31 22 60 40 64 40 4 0 23 16 41 35 19 19 41 35 50 35 9 0
16 6 16 13 0 6 15 19 33 26 17 8 47 26 64 40 18 14 35 25 38 23 3 -2 20 8 36
22 17 15 35 26 40 26 5 0 9 255 9 640 l0 640 43 27 c95 62 132 72 251 66 77
-4 107 -3 102 5 -3 6 -34 13 -69 16 -199 18 -175 21 -252 -29 -66 -43 -115
-61 -87 -33 7 7 12 22 12 33 0 16 19 34 67 65 62 39 123 66 123 53 0 -3 6 0
14 6 9 8 46 12 100 10 47 -1 86 1 86 5 0 3 0 11 0 16 0 6 -19 11 -42 11 -24 1
-56 5 -73 9 -22 6 -9 8 48 9 42 0 77 5 77 10 0 9 -54 15 -215 25 -61 3 -74 1
-100 -18 -37 -28 -150 -96 -159 -96 -12 0 -6 24 12 43 16 19 16 20 -5 8 -40
-20 -25 6 21 39 l43 31 7 157 c4 86 4 231 1 322 l-6 165 -40 67 c-55 93 -195
237 -293 302 -83 56 -198 115 -321 167 -80 33 -92 35 -115 14 -11 -10 -25 -12
-46 -7 -50 13 -175 7 -185 -9 -6 -10 -9 -7 -9 14 0 33 -15 34 -128 11 -216
-43 -324 -90 -479 -206 -155 -117 -240 -235 -353 -493 -15 -35 -32 -108 -42
-185 -11 -79 -28 -117 -28 -62 0 38 -26 55 -45 29 -15 -21 -31 -22 -39 -2 -3
8 -11 15 -18 15 -26 0 -48 39 -48 84 0 47 46 245 61 260 5 6 9 18 9 27 0 20
83 184 124 246 15 22 38 46 51 53 14 7 25 19 25 26 0 15 19 29 27 20 4 -3 0
-14 -8 -23 -20 -24 -50 -93 -41 -93 13 0 28 15 35 33 3 9 14 17 24 17 25 1 53
24 53 44 0 9 5 16 10 16 6 0 10 7 10 15 0 8 6 15 14 15 8 0 36 17 63 38 73 56
111 82 120 82 5 0 25 11 45 25 20 14 43 25 50 25 7 0 24 9 38 20 14 11 31 20
38 20 8 0 26 8 40 18 36 25 176 52 287 57 l90 3 11 45 c6 24 14 49 18 55 7 12
-8 25 -18 15z m-836 -387 c0 -2 -7 -9 -15 -16 -12 -10 -15 -10 -15 4 0 9 7 16
15 16 8 0 15 -2 15 -4z m-97 -893 c-13 -2 -33 -2 -45 0 -13 2 -3 4 22 4 25 0
35 -2 23 -4z m7 -40 c0 -14 -9 -15 -67 -8 -38 4 -79 9 -93 10 -54 5 -41 9 50
14 106 7 110 6 110 -16z m-142 -40 c-10 -2 -26 -2 -35 0 -10 3 -2 5 17 5 19 0
27 -2 18 -5z m3392 -1424 c0 -5 -28 -9 -62 -8 -45 1 -56 3 -38 8 37 11 100 11
100 0z m-720 -114 c27 -14 65 -25 84 -25 19 0 38 -4 41 -10 3 -5 24 -14 45
-20 43 -12 49 -22 25 -42 -9 -7 -26 -24 -39 -36 -13 -13 -39 -27 -57 -31 -20
-5 -33 -13 -31 -21 9 -42 -95 -113 -164 -112 -31 1 -44 -3 -44 -12 0 -8 -7
-19 -16 -26 -11 -10 -14 -23 -9 -52 5 -30 4 -38 -8 -38 -9 0 -29 -11 -45 -25
-37 -31 -41 -31 -100 0 -42 22 -52 24 -82 13 -53 -17 -92 -35 -124 -57 -17
-11 -33 -18 -38 -15 -4 3 -8 61 -8 129 l0 123 65 51 c36 29 75 55 88 60 12 5
46 25 76 45 29 20 57 36 61 36 4 0 13 7 20 15 7 9 15 13 18 11 3 -3 17 3 31
13 37 26 101 50 134 50 15 1 50 -10 77 -24z m422 -177 c9 -7 21 -30 28 -50 6
-21 16 -38 21 -38 15 0 11 -156 -4 -169 -22 -18 -166 -34 -244 -27 -77 7 -183
47 -183 69 0 7 12 20 28 29 15 9 45 33 66 52 22 20 44 36 50 36 6 0 22 12 35
25 13 14 27 25 32 25 6 0 22 8 36 18 57 37 110 49 135 30z m-1672 -183 c13
-14 32 -25 42 -25 16 0 16 -3 6 -20 -17 -26 -29 -25 -75 6 -48 32 -57 47 -35
56 29 11 38 9 62 -17z m1210 -39 c0 -8 -51 -13 -56 -5 -3 5 9 9 25 9 17 0 31
-2 31 -4z m-650 -65 c46 -46 48 -50 31 -65 -26 -24 -73 -20 -91 7 -46 71 -50
94 -17 100 12 2 23 5 25 6 2 0 25 -21 52 -48z m165 -151 c-3 -5 -19 -10 -35
-10 -16 0 -32 5 -35 10 -4 6 10 10 35 10 25 0 39 -4 35 -10z m-410 -419 c8
-15 -29 -31 -69 -31 -36 0 -51 22 -23 33 22 9 86 7 92 -2z m-170 -104 c32 -16
165 -157 166 -175 3 -43 -4 -78 -17 -92 -13 -13 -16 -13 -25 3 -6 9 -18 17
-29 17 -20 0 -73 57 -65 70 3 5 -5 12 -17 15 -13 4 -33 16 -44 27 -12 11 -45
32 -72 46 -28 15 -51 32 -52 37 -1 6 13 13 30 16 39 8 46 15 32 32 -7 8 -9 17
-5 21 8 8 70 -3 98 -17z m2719 -57 c170 -18 271 -63 312 -142 20 -38 18 -68
-3 -68 -24 0 -82 36 -105 65 -26 33 -128 79 -252 114 -60 16 -111 32 -114 35
-8 9 61 7 162 -4z m2029 -218 c70 -25 131 -89 151 -161 21 -76 20 -118 -4
-169 -11 -22 -20 -45 -20 -50 0 -15 -44 -50 -82 -66 -20 -9 -61 -16 -91 -17
-133 -5 -235 103 -238 250 -1 78 16 123 64 169 62 60 135 74 220 44z m249
-122 c2 -22 1 -40 -3 -40 -8 0 -19 38 -19 68 0 38 18 15 22 -28z m-5118 13
c24 -19 25 -23 10 -23 -11 1 -30 7 -44 15 -40 23 -159 18 -144 -6 3 -5 1 -9
-5 -9 -5 0 -12 6 -14 13 -3 7 -6 5 -6 -5 -1 -13 -9 -18 -30 -18 -56 0 -48 30
14 52 11 4 58 6 105 5 72 -2 90 -6 114 -24z m2732 16 c32 -7 63 -16 69 -20 5
-5 16 -9 25 -9 9 0 31 -13 50 -30 48 -40 30 -53 -51 -37 -10 1 -25 9 -35 17
-11 9 -15 10 -10 3 9 -15 -3 -17 -24 -3 -13 9 -13 10 0 10 13 0 13 1 0 10 -8
5 -10 10 -5 10 6 1 -5 7 -24 16 -34 14 -146 11 -156 -6 -7 -11 58 -77 94 -95
19 -9 50 -18 69 -18 25 -1 36 -7 42 -22 4 -11 14 -26 21 -32 31 -25 106 -61
142 -67 21 -4 54 -16 73 -28 32 -19 34 -22 20 -36 -17 -17 -21 -16 -213 24
-13 2 -23 0 -23 -5 0 -18 123 -48 182 -44 51 3 57 2 51 -14 -4 -10 -8 -12 -11
-5 -2 7 -11 8 -27 2 -12 -5 -25 -6 -28 -4 -3 3 -30 -2 -61 -11 -64 -19 -68
-29 -40 -102 20 -53 57 -68 80 -34 8 11 22 21 30 21 8 0 14 5 14 10 0 6 4 10
9 10 6 0 3 -12 -5 -27 -7 -16 -14 -38 -14 -51 0 -12 -8 -26 -17 -29 -18 -7
-44 -26 -78 -58 -101 -95 -331 -81 -447 26 -53 49 -87 104 -109 174 -17 56
-17 67 -5 126 7 35 20 77 27 94 18 37 53 72 67 67 14 -4 16 -32 3 -32 -15 0
-22 -47 -11 -74 7 -20 17 -26 37 -26 31 1 63 21 63 40 0 6 9 23 20 37 l20 26
-37 32 c-30 26 -40 30 -48 19 -14 -19 -49 -11 -53 12 -3 21 27 58 73 90 49 33
62 37 181 53 6 0 37 -4 70 -10z m-2654 -93 c11 10 69 -17 65 -30 -2 -6 -24
-12 -48 -14 -38 -2 -46 -7 -57 -31 -7 -16 -23 -32 -35 -36 l-22 -8 22 -4 c14
-3 24 -14 28 -33 5 -24 19 -36 83 -67 58 -29 78 -44 80 -61 4 -28 3 -28 -68 8
-67 34 -145 51 -138 30 2 -7 25 -19 51 -26 26 -8 67 -20 91 -27 40 -11 43 -14
31 -31 -13 -17 -16 -17 -82 6 l-69 24 -17 -34 c-22 -43 -21 -59 3 -67 20 -6
59 9 73 29 5 8 10 7 16 -3 5 -7 14 -10 20 -7 6 4 11 1 11 -8 0 -8 2 -20 5 -28
8 -20 -34 -62 -91 -91 -68 -34 -84 -37 -184 -26 -65 6 -98 16 -141 38 -67 37
-80 52 -103 113 -10 26 -26 64 -36 85 -18 38 -18 38 3 44 12 3 39 4 60 1 29
-3 37 -9 37 -24 0 -13 5 -18 13 -15 8 3 14 0 15 -6 1 -7 3 -23 5 -37 2 -14 11
-26 20 -28 27 -5 78 21 75 38 -5 24 -44 24 -61 0 -13 -18 -15 -19 -21 -5 -11
29 -6 51 14 70 11 10 20 21 20 25 0 4 -28 10 -62 14 -77 8 -138 33 -138 58 0
24 35 58 60 58 11 0 17 5 15 13 -4 9 18 12 92 12 l98 0 3 28 c3 21 9 27 28 27
16 0 24 6 25 18 1 15 2 15 6 1 5 -19 44 -29 114 -29 41 0 49 3 55 23 4 12 7
33 6 47 -1 21 0 20 11 -8 7 -18 16 -30 19 -26z m6081 -163 c-203 -3 -245 -9
-213 -28 6 -3 10 -12 10 -18 0 -9 -102 -11 -427 -10 -406 3 -428 4 -431 21 -6
39 20 41 663 39 341 -1 520 -3 398 -4z m-2807 -189 c37 -18 42 -29 18 -38 -38
-14 -80 8 -68 37 8 21 8 21 50 1z m-2753 -9 c4 -17 -60 -17 -90 -1 -28 16 -27
16 30 13 31 -1 58 -6 60 -12z m587 -10 c107 -4 231 -8 275 -10 44 -1 186 -6
315 -9 354 -10 401 -14 428 -39 26 -25 28 -44 5 -51 -15 -5 -407 -2 -1210 8
-139 1 -162 11 -113 46 17 12 29 28 26 35 -5 15 39 35 64 30 8 -2 103 -6 210
-10z"/>
<path d="M7592 2583 c-9 -15 -6 -22 10 -32 15 -9 23 -10 31 -2 6 6 24 11 40
11 26 0 27 1 13 16 -9 8 -31 18 -50 21 -27 4 -36 1 -44 -14z"/>
<path d="M11160 1216 c0 -13 7 -29 15 -36 13 -11 18 -10 30 6 25 33 19 54 -15
54 -25 0 -30 -4 -30 -24z"/>
<path d="M11042 1193 c-13 -24 3 -53 29 -53 24 0 36 27 22 49 -15 23 -40 25
-51 4z"/>
<path d="M11274 1146 c-7 -29 1 -46 21 -46 21 0 35 32 24 53 -14 25 -38 21
-45 -7z"/>
<path d="M11170 1090 c0 -5 9 -10 21 -10 11 0 17 5 14 10 -3 6 -13 10 -21 10
-8 0 -14 -4 -14 -10z"/>
<path d="M10980 1055 c0 -30 3 -35 23 -35 13 0 31 8 41 18 15 18 15 20 -2 35
-10 10 -28 17 -40 17 -18 0 -22 -6 -22 -35z"/>
<path d="M11323 1035 c-19 -13 -21 -19 -11 -40 6 -14 15 -25 19 -25 15 0 41
49 35 65 -7 19 -16 19 -43 0z"/>
<path d="M11037 944 c-26 -14 -27 -17 -14 -37 8 -12 21 -23 30 -25 20 -4 49
40 41 62 -8 20 -21 20 -57 0z"/>
<path d="M11260 901 c0 -37 11 -44 38 -25 26 18 28 39 6 48 -32 12 -44 6 -44
-23z"/>
<path d="M11156 885 c-4 -11 1 -15 19 -15 18 0 23 4 19 15 -4 8 -12 15 -19 15
-7 0 -15 -7 -19 -15z"/>
<path d="M11137 843 c-13 -12 -7 -23 12 -23 28 0 52 11 45 21 -6 10 -48 12
-57 2z"/>
<path d="M9030 907 c0 -15 29 -27 68 -27 17 0 23 5 20 18 -4 23 -88 31 -88 9z"/>
<path d="M9120 843 c0 -14 2 -15 9 -4 5 7 14 10 20 7 6 -4 11 -2 11 3 0 6 -9
11 -20 11 -12 0 -20 -7 -20 -17z"/>
<path d="M8820 807 c-14 -6 -26 -12 -28 -13 -1 -1 -4 -10 -7 -21 -2 -13 8 -34
25 -54 16 -19 29 -39 30 -46 0 -20 30 -43 55 -43 13 0 30 -7 39 -15 19 -19 22
-19 57 6 25 17 27 23 16 40 -15 25 -39 24 -55 -1 -20 -32 -42 -25 -42 13 0 18
-7 43 -16 56 -14 20 -22 22 -55 17 -39 -6 -50 3 -26 21 6 5 25 10 41 11 30 2
56 18 56 33 0 13 -60 10 -90 -4z"/>
<path d="M9063 804 c-8 -21 7 -34 52 -44 63 -14 89 8 35 30 -16 7 -30 16 -30
21 0 16 -50 10 -57 -7z"/>
<path d="M9135 663 c6 -28 80 -111 89 -102 3 2 -4 23 -14 46 -32 71 -90 114
-75 56z"/>
<path d="M9075 626 c-25 -18 -13 -46 22 -47 15 0 24 -2 18 -4 -5 -1 -36 -10
-67 -20 -32 -9 -58 -21 -58 -26 0 -5 50 -9 110 -9 61 0 110 2 110 5 0 3 -111
115 -115 115 -1 0 -10 -6 -20 -14z"/>
<path d="M6240 940 c0 -5 7 -10 15 -10 8 0 15 5 15 10 0 6 -7 10 -15 10 -8 0
-15 -4 -15 -10z"/>
<path d="M6143 913 c9 -2 25 -2 35 0 9 3 1 5 -18 5 -19 0 -27 -2 -17 -5z"/>
<path d="M6002 888 c4 -12 14 -13 61 -10 33 3 7 22 -29 22 -24 0 -34 -4 -32
-12z"/>
<path d="M6163 848 c-37 -18 -27 -23 42 -24 47 0 65 3 65 12 0 8 -6 11 -15 8
-8 -4 -15 -1 -15 5 0 14 -48 13 -77 -1z"/>
<path d="M6273 723 c-16 -6 -17 -45 -2 -60 14 -14 4 -32 -25 -43 -18 -8 -17
-9 12 -9 17 -1 32 3 32 8 0 5 10 11 23 13 14 2 20 9 18 18 -2 8 -6 30 -9 48
-4 31 -17 38 -49 25z"/>
<path d="M6151 685 c-18 -6 -37 -18 -41 -26 -7 -12 5 -15 66 -17 59 -2 74 0
74 12 0 47 -30 56 -99 31z"/>
<path d="M10273 5563 c9 -2 25 -2 35 0 9 3 1 5 -18 5 -19 0 -27 -2 -17 -5z"/>
<path d="M10376 5550 c36 -37 234 -46 234 -11 0 16 -34 22 -145 28 l-110 5 21
-22z"/>
<path d="M9652 5543 c-30 -11 26 -31 121 -43 85 -12 100 -12 108 1 5 8 9 17 9
21 0 11 -214 29 -238 21z"/>
<path d="M10165 5520 c-38 -22 -46 -30 -33 -35 19 -8 99 33 106 53 6 20 -20
14 -73 -18z"/>
<path d="M4962 5470 c0 -19 2 -27 5 -17 2 9 2 25 0 35 -3 9 -5 1 -5 -18z"/>
<path d="M11670 5429 c85 -24 310 -42 326 -26 13 13 -77 25 -216 30 -105 4
-135 3 -110 -4z"/>
<path d="M10153 5380 c-63 -37 -83 -45 -87 -34 -4 9 -21 14 -53 14 -52 0 -477
32 -686 52 -85 8 -131 8 -137 2 -6 -6 -7 -25 -4 -43 4 -19 10 -29 16 -23 10
10 179 5 263 -8 33 -5 145 -15 249 -21 104 -6 200 -15 213 -20 14 -5 38 -9 55
-9 17 0 39 -7 49 -16 16 -14 19 -14 33 9 9 13 56 43 107 67 l92 44 246 -19
c281 -21 289 -21 304 -6 15 15 8 16 -253 40 -320 29 -309 30 -407 -29z"/>
<path d="M11252 5401 c18 -15 53 -23 128 -31 104 -10 138 -4 113 21 -10 10
-157 28 -232 29 l-34 0 25 -19z"/>
<path d="M5892 5395 c-97 -15 -124 -29 -36 -19 96 11 140 19 129 25 -5 3 -47
0 -93 -6z"/>
<path d="M12012 5404 c6 -6 63 -14 239 -35 85 -10 219 -5 206 7 -6 6 -203 23
-339 29 -61 3 -109 3 -106 -1z"/>
<path d="M11710 5373 c0 -20 50 -35 135 -40 67 -4 94 -2 100 6 4 7 3 16 -1 21
-12 10 -234 22 -234 13z"/>
<path d="M4961 5313 c0 -29 3 -53 7 -53 4 0 6 17 4 38 -6 64 -10 69 -11 15z"/>
<path d="M10219 5342 c-13 -10 -39 -24 -56 -31 -34 -14 -44 -31 -19 -31 8 0
17 -4 20 -8 7 -12 -28 -53 -47 -56 -23 -3 -23 -15 0 -48 23 -35 28 -35 43 2
10 24 18 30 44 30 17 -1 42 -7 56 -15 46 -26 110 -17 110 16 0 25 30 39 85 39
51 0 109 -24 102 -43 -4 -13 21 -36 40 -37 6 0 20 13 29 29 10 17 22 28 26 25
5 -3 14 -1 21 4 16 12 527 -25 647 -47 8 -2 -41 -25 -105 -51 -65 -25 -97 -47
-55 -36 14 3 84 18 157 33 72 16 135 32 140 36 10 10 34 90 28 95 -5 6 -138
18 -330 32 -141 10 -201 16 -420 39 -49 5 -110 10 -135 10 l-45 1 25 -21 25
-21 -30 6 c-16 3 -52 9 -80 13 l-50 6 30 13 30 12 -35 6 c-19 3 -78 8 -131 11
-83 5 -98 4 -120 -13z"/>
<path d="M8986 5335 c-3 -8 -12 -15 -19 -15 -15 0 -37 -40 -37 -67 0 -15 36
-53 49 -53 3 0 15 7 25 15 30 23 53 18 58 -10 3 -14 1 -28 -3 -31 -23 -14 -4
-24 41 -24 34 0 52 -5 56 -14 3 -8 15 -14 27 -13 12 0 40 -3 61 -8 29 -6 37
-5 32 4 -4 6 -11 9 -15 7 -4 -3 -26 6 -50 20 -24 13 -58 24 -77 24 -23 0 -34
5 -34 14 0 21 22 25 47 9 17 -11 25 -12 40 -2 15 9 31 8 77 -5 59 -18 88 -15
45 4 -21 9 -20 9 9 4 55 -10 35 12 -24 26 -53 13 -79 33 -110 85 -7 14 -15 16
-30 10 -10 -5 -45 -9 -78 -10 -52 -1 -59 2 -67 22 -10 27 -15 29 -23 8z"/>
<path d="M12157 5344 c-3 -4 4 -14 16 -24 32 -25 198 -37 216 -17 18 22 3 27
-102 38 -112 10 -122 11 -130 3z"/>
<path d="M8907 5334 c-4 -4 -7 -14 -7 -23 0 -11 3 -12 11 -4 6 6 10 16 7 23
-2 6 -7 8 -11 4z"/>
<path d="M5600 5320 c-13 -9 -13 -10 0 -10 8 0 22 5 30 10 13 9 13 10 0 10 -8
0 -22 -5 -30 -10z"/>
<path d="M5514 5275 c-17 -13 -16 -14 14 -4 33 11 41 19 19 19 -7 0 -22 -7
-33 -15z"/>
<path d="M8835 5279 c-154 -18 -365 -96 -396 -148 -20 -33 -35 -42 -25 -15 6
15 3 15 -21 -1 -16 -10 -33 -22 -38 -29 -24 -26 -95 -76 -110 -76 -8 0 -24 5
-34 12 -15 9 -25 7 -52 -13 -45 -31 -60 -46 -57 -56 2 -5 -13 -29 -33 -53 -35
-43 -97 -164 -139 -271 -14 -35 -20 -74 -20 -129 0 -84 15 -116 25 -53 32 203
122 422 191 468 30 19 34 19 34 -4 0 -10 7 -24 15 -31 12 -10 17 -7 27 16 16
36 62 84 80 84 7 0 40 24 73 53 121 106 328 189 478 191 51 0 58 3 63 23 9 35
3 39 -61 32z"/>
<path d="M10067 5253 c-11 -10 -8 -20 8 -27 10 -4 15 1 15 14 0 20 -11 26 -23
13z"/>
<path d="M8820 5169 c-20 -6 -17 -7 18 -8 23 -1 42 1 42 3 0 9 -37 12 -60 5z"/>
<path d="M10273 5140 c-67 -14 -133 -47 -133 -66 0 -16 1 -16 19 0 32 29 110
47 231 53 106 5 119 4 160 -17 59 -30 70 -43 71 -82 1 -21 5 -11 9 27 12 88
10 89 -168 92 -81 1 -166 -2 -189 -7z"/>
<path d="M11500 5135 c-7 -9 -10 -18 -7 -22 8 -7 37 15 37 28 0 14 -16 11 -30
-6z"/>
<path d="M8770 5101 c-86 -23 -189 -60 -220 -79 -85 -52 -162 -105 -187 -128
-15 -14 -38 -30 -50 -35 -13 -5 -23 -15 -23 -23 0 -7 -6 -16 -14 -19 -16 -6
-111 -190 -154 -298 -31 -77 -62 -218 -62 -279 0 -31 -1 -32 -14 -15 -12 16
-16 17 -30 6 -13 -11 -16 -11 -16 1 0 10 -9 15 -27 14 -24 -1 -28 4 -39 49
-11 47 -12 43 -10 -70 l1 -120 45 2 c78 3 77 2 62 12 -20 12 12 18 76 13 45
-3 52 -7 52 -25 0 -42 -11 -46 -85 -37 -108 14 -155 13 -155 -5 0 -11 14 -15
58 -17 l57 -1 -55 -6 c-40 -4 -56 -11 -58 -22 -4 -20 25 -29 91 -29 l47 0 0
-35 c0 -22 6 -38 15 -41 8 -4 13 -10 10 -14 -7 -11 -79 6 -83 19 -2 6 -19 11
-37 11 -25 0 -34 -5 -38 -22 -9 -33 -1 -38 68 -38 48 0 64 -4 69 -16 3 -9 6
-111 6 -228 0 -117 3 -327 7 -467 l6 -254 351 0 c193 -1 368 -4 388 -8 29 -6
41 -15 53 -40 9 -18 27 -45 41 -61 26 -29 28 -30 119 -27 72 2 107 -2 155 -18
35 -12 74 -21 87 -21 15 0 22 -4 18 -11 -4 -6 2 -13 14 -16 25 -6 46 -37 56
-81 3 -18 13 -39 22 -47 8 -8 10 -15 4 -15 -12 0 2 -51 23 -81 13 -19 33 -126
26 -145 -1 -4 4 -11 12 -15 8 -6 9 -9 1 -9 -6 0 -14 -14 -18 -30 -4 -17 -12
-30 -18 -30 -32 1 -106 51 -139 95 -21 27 -45 53 -55 57 -26 10 -73 9 -73 -1
0 -5 20 -31 45 -59 50 -56 128 -98 195 -106 25 -3 64 -8 87 -12 69 -11 76 -3
46 52 -14 25 -26 59 -25 75 0 16 -3 27 -7 24 -5 -2 -8 21 -7 53 0 40 -6 70
-22 102 -14 29 -23 68 -24 108 l-3 62 30 0 c41 -1 115 -35 115 -54 0 -9 29
-38 64 -66 62 -48 76 -70 76 -117 0 -13 5 -23 12 -23 8 0 9 49 5 188 -11 285
-22 781 -22 930 l0 134 75 27 c123 45 140 49 249 57 122 8 114 21 -14 25 -83
2 -98 -1 -185 -34 -107 -41 -160 -54 -160 -39 0 5 7 12 15 16 8 3 15 14 15 24
0 11 6 24 13 29 13 10 188 69 227 77 14 3 41 10 60 16 19 6 62 10 94 9 84 -4
84 16 -1 30 -37 6 -86 12 -108 14 -22 2 -3 4 43 5 45 1 82 6 82 11 0 4 -46 11
-102 13 -91 5 -108 3 -153 -18 -57 -24 -222 -84 -235 -84 -4 0 -10 14 -12 31
-4 26 -1 32 21 40 54 19 56 22 62 115 6 82 47 388 69 512 9 51 8 55 -26 109
-37 57 -169 194 -239 249 -35 27 -77 51 -250 143 -22 11 -47 21 -57 21 -9 0
-20 4 -23 10 -4 6 -16 5 -34 -5 -15 -7 -37 -12 -47 -10 -57 13 -141 11 -166
-3 -31 -18 -52 -7 -25 13 16 11 16 13 1 19 -25 9 -63 6 -134 -13z m885 -2301
c3 -6 -4 -10 -17 -10 -18 0 -20 2 -8 10 19 12 18 12 25 0z m40 -32 c20 -9 25
-18 25 -50 0 -34 -3 -38 -24 -38 -16 0 -27 7 -31 20 -3 11 -11 20 -16 20 -13
0 -11 28 4 45 15 18 11 17 42 3z"/>
<path d="M11425 5093 c-69 -8 -165 -39 -245 -77 -47 -22 -89 -43 -95 -48 -137
-103 -233 -195 -257 -246 -19 -39 -18 -74 1 -43 15 23 46 8 44 -21 -1 -20 2
-25 13 -21 19 7 18 49 -1 57 -30 11 -14 46 49 108 105 105 129 123 154 120 12
-2 22 1 22 7 0 12 60 46 60 34 0 -5 4 -3 8 4 17 27 149 61 245 62 41 1 49 4
57 27 18 46 18 46 -55 37z"/>
<path d="M8523 5074 c-17 -7 -35 -18 -38 -24 -4 -7 11 -2 34 9 23 12 41 24 41
26 0 6 3 7 -37 -11z"/>
<path d="M7892 5059 c2 -6 7 -10 11 -10 4 1 27 1 52 1 25 0 45 5 45 10 0 6
-25 10 -56 10 -35 0 -54 -4 -52 -11z"/>
<path d="M5206 5044 c-9 -24 -7 -28 9 -14 17 14 20 30 6 30 -5 0 -12 -7 -15
-16z"/>
<path d="M5030 4979 c-13 -24 -4 -41 10 -19 10 16 13 40 5 40 -2 0 -9 -9 -15
-21z"/>
<path d="M11390 4980 c-20 -6 -14 -8 28 -9 28 -1 52 3 52 9 0 12 -44 12 -80 0z"/>
<path d="M12790 4952 c0 -4 -36 -15 -81 -25 -48 -11 -82 -24 -86 -33 -9 -24 1
-25 43 -4 21 11 58 22 82 26 l42 7 0 -1277 0 -1277 -57 7 c-77 9 -106 18 -111
32 -6 19 69 15 83 -5 8 -11 14 -13 19 -5 4 7 2 12 -3 12 -6 0 -24 27 -41 60
-32 63 -60 79 -60 34 0 -30 -16 -64 -32 -64 -7 0 -8 16 -4 50 6 45 5 50 -13
50 -27 0 -111 -37 -111 -49 0 -5 5 -13 10 -16 16 -10 11 -23 -12 -31 -12 -3
-28 -13 -36 -21 -8 -8 -17 -11 -21 -8 -3 4 2 12 11 19 10 7 19 28 20 47 3 33
2 34 -32 34 -32 0 -36 -4 -51 -45 -27 -74 -45 -81 -231 -95 -75 -6 -88 -5 -88
9 0 8 5 18 11 22 6 4 8 20 4 40 -5 31 -3 35 22 45 15 6 53 13 83 17 l55 7 3
60 c2 33 -1 121 -7 195 -7 74 -16 216 -21 315 -6 99 -14 248 -19 330 -7 112
-6 153 2 162 7 6 76 25 154 42 110 24 166 31 252 31 61 0 111 4 111 9 0 13
-141 34 -191 28 -45 -5 -270 -58 -323 -76 -36 -13 -52 -4 -33 17 8 10 17 24
20 33 7 22 277 88 367 90 171 3 165 2 168 27 3 18 -1 22 -25 23 l-28 1 29 12
c29 13 29 13 -36 25 -103 18 -160 13 -291 -23 -169 -47 -276 -71 -283 -63 -4
4 -1 13 6 22 10 12 10 15 -4 15 -28 0 -9 18 27 25 48 11 54 20 56 86 1 44 14
101 46 195 25 73 45 143 46 156 0 13 12 48 27 78 23 47 31 55 55 55 27 -1 35
13 18 31 -5 5 -19 27 -31 49 -58 105 -238 291 -328 338 -26 14 -69 38 -97 55
-86 54 -115 64 -149 53 -19 -6 -54 -7 -90 -2 -61 8 -98 7 -115 -4 -6 -3 -11 1
-11 9 0 9 -5 16 -11 16 -5 0 -9 -10 -7 -22 2 -11 -3 -23 -11 -26 -10 -3 -12 2
-7 21 3 14 2 29 -4 32 -10 6 -119 -17 -175 -37 -106 -38 -198 -93 -285 -170
-88 -79 -95 -89 -142 -188 -59 -126 -115 -309 -124 -402 -5 -63 -7 -68 -29
-68 -37 0 -46 -28 -39 -127 4 -48 7 -115 8 -148 l1 -60 32 0 c17 0 35 -4 40
-8 4 -5 13 -126 20 -270 6 -144 16 -345 22 -447 16 -289 30 -621 33 -787 2
-96 7 -153 13 -153 6 0 21 7 33 16 35 25 160 61 234 69 60 6 68 5 77 -14 16
-28 14 -31 -16 -31 -52 0 -73 -11 -73 -36 0 -13 -9 -32 -20 -41 -13 -12 -18
-24 -14 -40 6 -21 0 -26 -45 -45 -28 -12 -51 -27 -51 -33 0 -22 -36 -45 -71
-46 -28 0 -30 -2 -14 -9 11 -5 95 -9 187 -9 246 -1 281 10 547 181 69 45 173
106 230 136 84 44 101 57 85 63 -50 20 -531 7 -649 -17 -21 -4 -27 -3 -20 4
16 17 172 53 290 68 61 7 189 13 285 14 123 0 187 4 215 14 48 17 99 11 90
-12 -4 -12 1 -14 32 -8 21 3 72 9 113 13 58 5 81 11 103 30 34 28 116 33 141
8 17 -17 46 -20 46 -5 0 14 56 12 81 -2 17 -11 22 -10 30 4 12 22 94 26 102 6
3 -7 6 578 6 1300 1 721 -1 1312 -4 1312 -3 0 -5 -3 -5 -8z m-1934 -984 c-2
-31 -4 -33 -40 -32 -47 2 -62 15 -47 43 9 16 21 21 50 21 37 0 39 -1 37 -32z"/>
<path d="M4990 4918 c-30 -46 -31 -48 -17 -43 15 7 52 65 40 65 -5 0 -15 -10
-23 -22z"/>
<path d="M10793 4823 c-37 -46 -64 -87 -125 -191 -23 -39 -28 -59 -28 -119 0
-42 4 -73 10 -73 6 0 10 7 10 15 0 8 4 23 9 33 6 9 22 49 36 89 29 79 82 167
138 227 28 30 34 43 26 53 -19 22 -36 15 -76 -34z"/>
<path d="M4152 4819 c2 -6 8 -10 13 -10 5 0 11 4 13 10 2 6 -4 11 -13 11 -9 0
-15 -5 -13 -11z"/>
<path d="M4110 4811 c0 -5 -8 -12 -17 -14 -10 -3 -3 -5 15 -6 22 -1 32 4 32
14 0 8 -7 15 -15 15 -8 0 -15 -4 -15 -9z"/>
<path d="M4910 4772 c0 -4 9 -13 20 -20 11 -7 20 -9 20 -4 0 4 -9 13 -20 20
-11 7 -20 9 -20 4z"/>
<path d="M7072 4139 c-18 -12 -31 -24 -28 -27 3 -2 18 4 33 14 18 12 54 21 98
25 l70 6 -70 1 c-56 1 -77 -3 -103 -19z"/>
<path d="M4438 3903 c12 -2 32 -2 45 0 12 2 2 4 -23 4 -25 0 -35 -2 -22 -4z"/>
<path d="M4562 3895 c3 -3 39 -9 82 -15 123 -15 116 -4 118 -193 l1 -162 8
135 c3 74 7 138 8 143 0 4 22 8 49 9 l47 1 -50 6 c-40 5 -50 10 -49 24 3 27
-42 44 -135 50 -46 4 -82 4 -79 2z"/>
<path d="M12440 3890 c-15 -10 3 -12 137 -14 67 -2 35 11 -47 18 -45 4 -81 2
-90 -4z"/>
<path d="M4224 3865 c-9 -36 -3 -37 24 -4 23 28 23 29 3 29 -14 0 -23 -9 -27
-25z"/>
<path d="M7900 3652 c0 -53 10 -71 28 -49 8 9 7 23 -2 50 -19 56 -26 56 -26
-1z"/>
<path d="M4230 3420 c-12 -8 -10 -10 10 -9 14 0 43 4 65 8 l40 9 -50 1 c-27 0
-57 -4 -65 -9z"/>
<path d="M4705 3406 c47 -14 66 -13 52 0 -3 4 -28 8 -54 10 l-48 4 50 -14z"/>
<path d="M4903 3353 c9 -2 25 -2 35 0 9 3 1 5 -18 5 -19 0 -27 -2 -17 -5z"/>
<path d="M3963 3130 c0 -25 2 -35 4 -22 2 12 2 32 0 45 -2 12 -4 2 -4 -23z"/>
<path d="M12305 2213 c-11 -2 -67 -13 -125 -24 -58 -12 -121 -29 -140 -38 -19
-10 -74 -36 -122 -60 -160 -78 -317 -195 -342 -255 -24 -59 17 -96 105 -96 40
0 48 7 27 28 -9 9 -7 16 7 32 17 19 19 19 37 3 16 -15 17 -18 3 -33 -22 -25
-20 -28 38 -40 38 -9 64 -9 97 -1 46 12 395 28 695 32 93 1 180 5 192 7 l23 4
0 224 0 224 -237 -1 c-131 -1 -247 -3 -258 -6z m-60 -95 c-11 -36 -22 -41 -17
-8 2 16 9 30 14 30 5 0 6 -10 3 -22z m-100 -5 c17 -10 16 -12 -19 -27 -45 -19
-85 -20 -121 -4 -31 14 -32 28 -2 28 12 0 29 5 37 10 18 12 78 8 105 -7z m303
-130 c2 -93 -1 -143 -8 -143 -6 0 -10 27 -10 64 0 85 -4 93 -40 88 -21 -3 -31
0 -35 12 -17 55 -15 53 -30 33 -7 -10 -15 -14 -16 -9 -3 6 -24 7 -54 2 -48 -8
-130 3 -149 21 -5 4 11 13 35 19 32 9 52 9 79 1 19 -6 59 -13 88 -15 49 -3 53
-2 58 23 11 50 13 52 46 49 l33 -3 3 -142z m244 82 c4 -5 5 -12 2 -16 -2 -4 3
-26 11 -49 23 -65 19 -97 -15 -132 l-30 -29 -9 23 c-22 58 -39 237 -24 251 6
7 48 -24 65 -48z m-842 -131 l0 -47 65 7 c87 9 140 -6 160 -44 8 -16 15 -33
15 -38 0 -16 -50 -30 -145 -42 -49 -6 -100 -14 -112 -16 -16 -4 -26 1 -39 21
-16 25 -16 27 5 46 14 14 21 32 21 58 0 51 10 101 21 101 5 0 9 -21 9 -46z"/>
<path d="M9460 2110 c0 -15 29 -39 48 -40 6 0 12 9 12 20 0 11 -6 20 -14 20
-8 0 -21 3 -30 6 -9 4 -16 1 -16 -6z"/>
<path d="M9610 2096 c0 -12 10 -16 38 -16 38 1 32 10 -15 24 -17 6 -23 3 -23
-8z"/>
<path d="M9740 2069 c0 -8 70 0 80 8 2 2 -15 3 -38 2 -23 -2 -42 -6 -42 -10z"/>
<path d="M9462 1938 c-17 -17 33 -68 68 -68 24 0 27 3 22 28 -2 15 -9 33 -15
40 -12 15 -59 16 -75 0z"/>
<path d="M4125 1900 l-50 -7 62 -1 c34 -1 65 3 68 8 7 11 -2 11 -80 0z"/>
<path d="M9747 1881 c27 -29 98 -62 117 -55 19 7 21 20 3 31 -8 4 -16 16 -20
26 -5 13 -18 17 -62 17 -54 0 -55 0 -38 -19z"/>
<path d="M4793 1883 c15 -2 37 -2 50 0 12 2 0 4 -28 4 -27 0 -38 -2 -22 -4z"/>
<path d="M8920 1873 c-20 -8 -65 -47 -66 -59 -1 -5 -5 -27 -8 -49 -7 -48 13
-77 68 -100 70 -30 126 -16 165 41 33 47 24 97 -24 142 -28 26 -43 32 -77 31
-24 0 -50 -3 -58 -6z"/>
<path d="M10650 1861 c-23 -6 -23 -8 -5 -12 11 -2 43 -1 70 2 28 3 43 7 34 7
-9 1 -29 4 -45 6 -16 3 -40 1 -54 -3z"/>
<path d="M9463 1770 c-30 -12 -29 -24 5 -55 39 -38 72 -49 90 -31 13 12 13 20
2 46 -19 46 -50 59 -97 40z"/>
<path d="M4737 1713 c-4 -3 -7 -21 -7 -39 0 -18 -6 -34 -12 -36 -8 -3 -1 -12
15 -22 15 -10 27 -27 27 -38 0 -19 -7 -19 -297 -15 -164 2 -307 6 -318 8 -13
3 -21 -2 -23 -16 -3 -11 -12 -25 -21 -33 -13 -11 -2 -12 74 -6 50 3 98 11 109
16 10 5 39 7 65 4 25 -3 123 -10 216 -15 94 -5 188 -12 210 -16 27 -4 35 -3
26 3 -15 11 -6 36 10 27 31 -20 -7 -71 -59 -81 -53 -11 -47 -24 10 -24 58 0
71 -6 81 -33 14 -37 27 -4 25 61 -2 37 0 76 5 88 10 29 -37 82 -58 64 -24 -20
-38 -6 -42 41 -6 66 -16 83 -36 62z"/>
<path d="M10070 1680 c-23 -7 -23 -8 -3 -9 12 -1 25 4 28 9 3 6 5 10 3 9 -2
-1 -14 -5 -28 -9z"/>
<path d="M4916 1564 c-3 -9 -2 -23 4 -32 7 -14 9 -10 10 16 0 35 -5 41 -14 16z"/>
<path d="M9920 1530 c0 -6 49 -10 128 -9 79 1 118 4 102 9 -37 12 -230 12
-230 0z"/>
<path d="M12770 1523 c-40 -8 -62 -42 -55 -83 9 -51 31 -80 60 -80 35 0 32 28
-2 32 -21 2 -29 10 -37 35 -11 39 5 63 40 63 17 0 22 5 21 20 -1 11 -1 19 -2
19 0 -1 -11 -4 -25 -6z"/>
<path d="M12098 1513 c-20 -5 -20 -6 -18 -83 2 -67 8 -78 27 -51 8 12 25 21
38 21 46 0 62 77 23 104 -22 16 -37 18 -70 9z m66 -39 c9 -8 16 -19 16 -23 0
-14 -24 -31 -44 -31 -35 0 -49 15 -42 44 7 30 45 36 70 10z"/>
<path d="M12288 1501 c-27 -27 -24 -92 5 -119 43 -40 107 -17 107 39 0 79 -67
126 -112 80z m82 -30 c27 -52 -1 -103 -45 -83 -37 17 -47 46 -31 85 11 24 62
23 76 -2z"/>
<path d="M12474 1459 c3 -34 6 -70 6 -80 0 -16 8 -19 50 -19 40 0 48 3 44 15
-4 9 -19 15 -39 15 -37 0 -45 15 -45 88 0 25 -5 42 -11 42 -8 0 -10 -18 -5
-61z"/>
<path d="M12619 1513 c-3 -27 4 -106 11 -130 6 -21 8 -9 9 49 1 42 -3 80 -9
83 -5 3 -10 3 -11 -2z"/>
<path d="M4070 1446 c0 -14 5 -28 10 -31 6 -3 10 -2 10 3 0 6 12 13 27 17 l26
6 -28 15 c-38 19 -45 18 -45 -10z"/>
<path d="M9940 1460 c0 -6 31 -10 74 -10 41 0 78 5 81 10 4 6 -23 10 -74 10
-47 0 -81 -4 -81 -10z"/>
<path d="M9618 1453 c-10 -2 -18 -8 -18 -12 0 -11 85 -31 131 -31 48 0 50 -21
3 -31 l-29 -7 27 -1 c15 0 38 -5 52 -11 18 -6 26 -6 26 1 0 6 19 9 48 7 44 -3
47 -1 50 23 4 34 -25 46 -134 53 -45 3 -94 8 -110 10 -16 2 -37 2 -46 -1z"/>
<path d="M10735 1349 c-47 -14 -300 -21 -410 -12 -145 13 -228 4 -253 -27 -20
-24 -20 -26 -3 -43 15 -16 45 -17 346 -17 368 0 348 -4 380 73 15 36 15 37 -7
36 -13 0 -36 -5 -53 -10z"/>
<path d="M11655 1316 c-11 -8 -16 -20 -12 -30 6 -15 57 -16 576 -16 446 0 570
-3 574 -12 3 -7 6 4 6 25 1 35 0 37 -31 36 -18 0 -272 2 -564 5 -433 5 -534 3
-549 -8z"/>
<path d="M12794 1150 c0 -52 1 -74 3 -47 2 26 2 68 0 95 -2 26 -3 4 -3 -48z"/>
<path d="M10058 1213 c-21 -5 -36 -45 -19 -51 6 -2 11 -11 11 -20 0 -14 2 -14
9 -3 7 11 10 9 15 -7 6 -17 12 -19 42 -12 42 10 63 26 75 59 7 17 6 27 -3 33
-13 8 -100 9 -130 1z"/>
<path d="M12793 1000 c0 -25 2 -35 4 -22 2 12 2 32 0 45 -2 12 -4 2 -4 -23z"/>
<path d="M4860 905 c0 -14 -7 -28 -15 -31 -22 -9 -10 -21 33 -35 20 -6 48 -20
61 -30 25 -20 99 -44 108 -35 3 3 -21 18 -53 33 -64 31 -81 53 -41 53 25 0 57
23 57 40 0 12 -49 26 -102 29 -45 2 -48 1 -48 -24z"/>
<path d="M4650 870 c-19 -12 53 -12 120 -1 42 8 40 9 -30 10 -41 0 -82 -4 -90
-9z"/>
<path d="M3870 744 c-13 -13 -31 -24 -39 -24 -12 0 -12 -3 -3 -12 7 -7 12 -20
12 -30 0 -10 5 -18 10 -18 6 0 10 9 10 20 0 13 9 21 28 25 15 4 35 10 44 16
10 5 26 9 35 9 17 1 17 1 0 11 -9 6 -25 9 -35 8 -30 -3 -37 1 -22 11 13 9 13
10 0 9 -8 0 -26 -11 -40 -25z"/>
<path d="M5090 746 c0 -9 30 -14 35 -6 4 6 -3 10 -14 10 -12 0 -21 -2 -21 -4z"/>
<path d="M4745 719 c-5 -7 8 -9 39 -7 61 6 71 18 13 18 -25 0 -49 -5 -52 -11z"/>
<path d="M4400 664 c0 -3 7 -12 15 -20 13 -13 17 -13 35 -1 18 13 19 15 5 21
-21 8 -55 8 -55 0z"/>
<path d="M3855 630 c3 -5 13 -10 20 -10 8 0 12 -6 9 -14 -8 -21 36 -63 46 -45
9 14 -5 49 -20 49 -6 0 -10 7 -10 15 0 9 -10 15 -26 15 -14 0 -23 -4 -19 -10z"/>
<path d="M4170 615 c0 -3 7 -17 16 -30 11 -17 25 -25 46 -25 17 0 27 4 23 10
-3 6 1 10 9 10 9 0 16 5 16 10 0 6 11 8 25 4 17 -4 25 -2 25 6 0 9 -12 11 -40
7 -22 -3 -43 -1 -46 4 -5 9 -74 13 -74 4z"/>
<path d="M3959 576 c-5 -5 -8 -46 -4 -62 4 -17 10 -20 30 -16 16 3 25 11 25
23 0 20 10 23 95 35 44 5 47 7 26 15 -17 7 -166 11 -172 5z"/>
<path d="M4270 535 c0 -18 24 -30 39 -21 16 10 1 36 -20 36 -10 0 -19 -7 -19
-15z"/>
<path d="M4740 500 c8 -5 40 -10 70 -10 30 0 62 5 70 10 10 7 -11 10 -70 10
-59 0 -80 -3 -70 -10z"/>
<path d="M3790 490 c-11 -7 -1 -10 35 -9 37 0 45 3 30 9 -27 12 -47 12 -65 0z"/>
<path d="M4093 453 c6 -14 22 -25 41 -28 47 -8 126 -1 122 10 -2 6 -18 9 -37
8 -49 -4 -99 6 -96 19 1 6 -8 11 -19 13 -19 1 -21 -1 -11 -22z"/>
<path d="M3678 444 c-21 -11 -19 -13 26 -19 45 -7 80 5 64 21 -12 11 -67 10
-90 -2z"/>
<path d="M4730 450 c-11 -7 -2 -10 33 -10 30 0 46 4 42 10 -8 13 -55 13 -75 0z"/>
<path d="M3565 430 c-4 -6 3 -10 14 -10 25 0 27 6 6 13 -8 4 -17 2 -20 -3z"/>
<path d="M3808 389 c-23 -14 -3 -18 102 -21 88 -3 105 -1 105 12 0 12 -18 15
-98 16 -53 0 -103 -3 -109 -7z"/>
<path d="M5353 393 c9 -2 23 -2 30 0 6 3 -1 5 -18 5 -16 0 -22 -2 -12 -5z"/>
<path d="M4092 368 c5 -13 98 -32 107 -22 11 10 -17 23 -62 29 -37 4 -48 2
-45 -7z"/>
<path d="M8720 300 c0 -5 16 -10 35 -10 19 0 35 5 35 10 0 6 -16 10 -35 10
-19 0 -35 -4 -35 -10z"/>
<path d="M4023 283 c-7 -2 -13 -9 -13 -15 0 -14 43 -6 48 10 4 12 -12 15 -35
5z"/>
<path d="M5588 283 c12 -2 32 -2 45 0 12 2 2 4 -23 4 -25 0 -35 -2 -22 -4z"/>
<path d="M3517 273 c-15 -14 -5 -18 42 -18 28 0 56 6 62 13 10 10 2 12 -42 12
-31 0 -59 -3 -62 -7z"/>
<path d="M8870 265 c14 -16 85 -21 94 -6 8 13 -19 21 -66 21 -35 0 -39 -2 -28
-15z"/>
<path d="M4181 240 c-50 -3 -76 -9 -79 -19 -3 -10 5 -12 39 -6 45 8 59 8 191
1 43 -3 80 0 83 5 4 5 3 9 -2 10 -4 0 -42 3 -83 7 -41 4 -108 5 -149 2z"/>
<path d="M8294 242 c3 -6 -2 -15 -11 -21 -14 -8 -15 -10 -3 -10 18 0 70 28 53
29 -6 0 -19 3 -29 7 -11 4 -15 3 -10 -5z"/>
<path d="M9049 237 c15 -18 51 -23 51 -7 0 6 -6 10 -14 10 -8 0 -23 3 -33 7
-16 6 -16 5 -4 -10z"/>
<path d="M4600 229 c0 -5 9 -9 20 -9 11 0 20 2 20 4 0 2 -9 6 -20 9 -11 3 -20
1 -20 -4z"/>
<path d="M4655 230 c3 -5 21 -10 38 -9 31 1 31 1 7 9 -36 11 -52 11 -45 0z"/>
<path d="M10060 200 c0 -13 30 -13 50 0 11 7 7 10 -17 10 -18 0 -33 -4 -33
-10z"/>
</g>
</svg>
