<?xml version="1.0" standalone="no"?>
<!DOCTYPE svg PUBLIC "-//W3C//DTD SVG 20010904//EN"
 "http://www.w3.org/TR/2001/REC-SVG-20010904/DTD/svg10.dtd">
<svg version="1.0" xmlns="http://www.w3.org/2000/svg"
 width="1280.000000pt" height="720.000000pt" viewBox="0 0 1280.000000 720.000000"
 preserveAspectRatio="xMidYMid meet">
<metadata>
Created by potrace 1.16, written by Peter Selinger 2001-2019
</metadata>
<g transform="translate(0.000000,720.000000) scale(0.100000,-0.100000)"
fill="#000000" stroke="none">
<path d="M0 3600 l0 -3600 6400 0 6400 0 -2 243 c-1 133 -3 214 -5 180 l-4
-62 -52 5 c-95 10 -111 30 -64 81 10 12 16 26 12 32 -4 7 14 11 54 11 l61 0 0
1171 0 1171 -22 -6 c-13 -3 -30 -6 -39 -6 -9 0 -22 -14 -29 -31 -13 -30 -12
-33 22 -64 26 -25 38 -31 47 -22 8 8 11 -22 11 -118 0 -88 -3 -125 -10 -115
-9 13 -10 13 -10 0 0 -10 -3 -11 -8 -4 -12 19 -73 34 -133 34 -59 0 -85 13
-49 25 24 8 27 25 4 25 -9 0 -22 7 -29 16 -14 20 -77 11 -69 -10 3 -8 -1 -20
-8 -27 -8 -8 -19 -30 -25 -50 -10 -34 -9 -38 14 -48 13 -6 48 -11 78 -11 37 0
55 -4 56 -12 8 -64 4 -66 -123 -67 -94 -1 -98 0 -123 26 -14 16 -39 52 -55 81
-17 28 -34 52 -39 52 -5 0 -12 -18 -16 -39 -4 -22 -14 -46 -22 -53 -15 -12
-16 -8 -10 39 l6 53 -29 0 c-16 0 -32 -4 -35 -10 -3 -5 -17 -10 -30 -10 -27 0
-35 -16 -28 -53 4 -21 1 -27 -11 -27 -13 0 -16 8 -14 38 3 36 2 37 -31 40 -37
4 -46 -4 -61 -58 -13 -49 -52 -70 -128 -70 -84 0 -96 6 -69 33 12 12 28 21 34
19 16 -4 17 30 1 46 -8 8 -5 14 15 21 23 9 27 16 27 49 0 27 7 46 23 63 30 31
181 134 263 179 35 20 76 46 91 58 15 12 35 22 44 22 9 0 22 6 28 13 6 8 43
31 83 52 l72 38 144 -5 c156 -6 161 -7 181 -73 6 -18 9 780 8 2080 -1 1161 -4
1908 -7 1660 -3 -247 -8 -444 -11 -436 -3 8 -10 12 -15 8 -13 -7 -6 -67 8 -67
5 0 6 9 3 20 -4 11 -2 20 4 20 6 0 11 -18 11 -41 l0 -41 -72 6 c-40 4 -100 9
-133 12 -33 3 -84 9 -114 15 -93 16 -119 11 -217 -37 l-93 -46 -95 16 c-52 9
-175 23 -273 31 -98 8 -212 20 -253 25 -41 6 -151 17 -245 26 -93 8 -228 22
-300 30 -71 8 -169 18 -218 23 -48 4 -90 11 -94 14 -9 9 16 36 49 53 58 30 43
35 -172 59 -212 23 -598 63 -678 71 l-72 6 -68 -45 -67 -45 -60 8 c-56 8 -319
37 -550 61 -55 5 -156 16 -225 24 -69 8 -199 22 -290 30 -91 9 -172 18 -180
21 -14 5 -136 18 -298 31 -86 7 -98 21 -53 59 17 14 31 29 31 33 0 12 -262 46
-820 107 l-245 26 -25 -33 c-60 -78 -41 -72 -180 -59 -69 6 -147 15 -175 20
-27 5 -158 18 -290 30 -355 30 -443 39 -630 65 -247 35 -678 80 -732 77 -43
-3 -48 11 -28 64 9 25 14 48 10 52 -4 4 -88 14 -188 24 -370 33 -423 39 -492
48 -38 6 -164 22 -280 35 -115 14 -219 26 -229 28 -16 2 -23 -9 -36 -53 -13
-43 -20 -55 -36 -54 -10 1 -82 9 -159 19 -200 24 -188 23 -440 45 -423 37
-475 43 -475 60 0 6 135 10 370 10 l370 0 0 -36 c0 -23 4 -33 11 -28 6 3 9 19
5 35 l-5 29 383 0 384 0 6 -25 c4 -14 13 -25 21 -25 11 0 12 5 5 25 l-10 25
215 0 214 0 -6 -49 -5 -48 73 -4 c41 -3 112 -2 159 1 l85 5 -38 17 c-20 9 -37
22 -37 29 0 9 35 10 145 5 80 -4 153 -9 163 -12 14 -5 14 -4 2 4 -8 6 -54 14
-103 18 -58 4 -87 10 -84 18 3 8 176 12 616 14 541 2 613 0 607 -13 -6 -16 4
-19 86 -30 45 -6 47 -5 51 22 4 26 4 26 6 -5 0 -22 5 -32 14 -29 7 2 11 15 9
30 l-3 27 496 0 c331 0 494 -3 490 -10 -3 -6 0 -12 7 -15 26 -9 229 -31 237
-25 5 3 11 15 15 28 l7 22 272 0 272 0 0 -129 c0 -71 2 -132 5 -135 3 -3 36
-8 73 -12 l68 -7 -3 124 c-2 101 -6 124 -18 126 -138 18 -107 33 67 33 125 0
144 -2 139 -15 -3 -9 0 -15 9 -15 8 0 15 7 15 15 0 12 14 15 70 15 61 0 70 -2
70 -18 0 -14 14 -21 58 -31 31 -7 75 -11 97 -9 35 3 40 6 43 31 5 41 32 35 32
-7 0 -33 1 -34 48 -40 26 -3 67 -7 92 -8 l45 -3 1 40 0 40 822 3 822 2 0 -127
c0 -154 4 -173 36 -173 28 0 27 -10 24 163 l-2 137 161 0 c154 0 161 -1 161
-20 0 -16 7 -20 33 -20 17 0 56 -3 85 -6 51 -7 52 -7 52 20 0 34 32 33 35 -1
1 -13 4 -26 7 -29 3 -3 39 -8 80 -11 l74 -6 -4 37 -4 36 701 0 701 0 0 70 0
70 -6400 0 -6400 0 0 -3600z m4728 3443 c-10 -2 -26 -2 -35 0 -10 3 -2 5 17 5
19 0 27 -2 18 -5z m-1580 -260 c-21 -2 -57 -2 -80 0 -24 2 -7 4 37 4 44 0 63
-2 43 -4z m270 -30 c-10 -2 -28 -2 -40 0 -13 2 -5 4 17 4 22 1 32 -1 23 -4z
m2190 -215 c45 -5 82 -12 82 -15 0 -6 -135 3 -223 14 -28 3 -43 9 -37 13 13 8
37 6 178 -12z m1796 11 c78 -6 146 -15 151 -21 9 -10 -83 -5 -172 8 -18 3 -61
9 -95 13 -94 12 -42 12 116 0z m371 -44 c6 -2 -18 -4 -52 -4 -35 -1 -63 3 -63
8 0 7 90 4 115 -4z m-725 -16 c0 -5 -21 -31 -46 -57 -38 -39 -44 -43 -38 -22
13 49 84 115 84 79z m340 -24 c151 -13 302 -29 335 -34 33 -6 85 -13 115 -16
30 -3 62 -10 70 -16 16 -11 10 -10 -215 11 -218 20 -626 75 -590 79 6 0 134
-10 285 -24z m-5096 -99 c-4 -57 -11 -93 -16 -90 -10 6 -5 93 8 162 12 60 15
26 8 -72z m648 -27 c4 -67 3 -115 -3 -117 -14 -6 -11 -32 5 -32 9 0 15 23 20
83 6 79 19 130 43 171 10 18 11 17 17 -10 3 -16 4 -56 1 -89 -5 -77 5 -168 16
-140 11 29 11 115 -1 115 -5 0 -10 10 -10 23 0 18 2 19 11 7 9 -13 10 -13 7 0
-1 8 1 27 5 43 7 26 9 27 80 27 l72 0 0 -88 c0 -48 -2 -114 -3 -146 l-2 -59
-52 6 c-29 4 -82 11 -118 16 -36 5 -103 12 -150 16 -47 4 -86 8 -88 10 -4 4
19 269 24 274 2 2 4 -8 4 -23 0 -15 7 -35 16 -44 13 -13 15 -32 12 -98 -3 -62
-1 -81 8 -77 7 2 16 35 20 76 4 40 8 74 9 77 1 3 5 23 10 45 10 49 14 57 28
52 8 -2 14 -46 19 -118z m3473 111 c7 -12 -38 -12 -75 0 -20 7 -16 8 22 9 26
1 50 -3 53 -9z m-4018 -100 c-1 -50 -5 -90 -8 -90 -12 0 -5 -30 8 -30 7 0 13
-4 13 -10 0 -10 -159 -3 -205 11 l-30 8 35 0 c19 -1 40 0 45 1 6 1 33 2 60 1
l50 -2 2 91 c1 97 7 125 23 115 6 -3 9 -44 7 -95z m346 93 c-28 -5 -30 -23 -3
-23 17 0 20 -7 20 -52 0 -29 3 -69 6 -89 7 -44 -14 -69 -59 -70 -30 0 -31 -1
-9 -11 34 -17 26 -25 -20 -22 -142 10 -209 18 -214 25 -3 5 0 9 5 9 21 0 10
20 -14 26 -33 8 -36 59 -4 67 19 5 21 11 15 41 -5 28 -4 36 8 36 9 0 21 10 27
23 23 42 39 46 154 45 61 -1 100 -3 88 -5z m-724 -80 c1 -17 6 -35 11 -38 20
-12 9 -26 -17 -23 -26 3 -28 6 -25 43 1 22 6 54 9 70 l6 30 8 -25 c4 -14 7
-39 8 -57z m172 -45 c-9 -31 -9 -30 -10 24 -1 31 2 65 7 75 11 29 15 -59 3
-99z m1177 65 c6 -6 12 -22 12 -35 0 -13 4 -29 9 -36 10 -16 21 16 21 61 0 44
26 32 46 -23 20 -54 34 -65 34 -24 0 32 17 64 34 64 9 0 16 -20 20 -63 10 -87
21 -102 36 -46 19 76 20 76 36 55 10 -14 14 -49 14 -117 0 -69 4 -99 13 -102
6 -2 9 -8 5 -12 -3 -4 -69 -2 -145 4 -77 6 -169 11 -205 11 -37 0 -69 4 -73
10 -3 5 0 70 6 144 10 109 15 136 28 138 22 5 93 -14 109 -29z m728 0 c18 -24
17 -31 -6 -38 -28 -9 -24 -36 11 -63 26 -21 30 -22 45 -8 8 9 18 33 20 53 9
62 12 67 29 53 10 -8 15 -30 15 -61 0 -27 3 -49 8 -49 19 1 30 19 36 63 6 38
11 47 24 45 11 -2 20 -19 26 -51 4 -26 11 -47 15 -47 12 0 31 48 31 76 0 19 5
25 18 22 13 -2 20 -20 28 -68 9 -54 12 -61 18 -39 4 15 6 35 4 45 -3 16 3 19
42 19 l45 0 7 -82 c3 -44 14 -95 23 -112 14 -28 14 -32 0 -37 -8 -4 -43 -1
-78 5 -60 11 -205 26 -352 37 -118 9 -115 7 -109 62 8 72 14 93 23 88 8 -5 31
59 31 88 0 21 29 21 46 -1z m4384 -43 l65 -7 -91 -1 c-69 -2 -95 2 -110 14
-18 14 -16 15 26 9 25 -4 74 -11 110 -15z m-3232 -36 c32 -11 63 -14 103 -10
31 4 85 2 120 -3 35 -5 154 -15 264 -22 110 -6 205 -15 210 -19 6 -5 60 -11
120 -15 61 -4 115 -11 120 -15 6 -4 41 -10 79 -13 38 -3 71 -9 75 -14 3 -6 65
-13 136 -16 156 -8 173 -12 181 -44 7 -26 55 -53 93 -53 11 0 25 -8 30 -19 7
-13 18 -17 36 -14 15 3 25 1 25 -6 0 -6 8 -11 19 -11 10 0 43 -11 72 -24 30
-13 69 -27 87 -31 34 -7 52 -30 52 -65 0 -29 23 -21 31 11 26 95 35 114 52
111 26 -5 46 15 53 53 5 26 10 33 25 30 10 -2 21 0 24 6 12 19 23 8 30 -31 8
-48 21 -52 30 -7 12 66 28 117 35 117 5 0 11 -35 15 -77 10 -126 21 -135 35
-32 9 60 32 98 38 61 13 -77 24 -123 28 -119 3 3 8 27 10 53 3 27 7 51 9 52
10 10 48 -13 57 -34 6 -13 14 -21 18 -19 5 3 22 2 39 -1 31 -6 31 -7 31 -67 0
-33 8 -84 18 -114 15 -46 20 -53 37 -47 31 10 79 8 83 -5 9 -26 22 -8 22 32 1
39 2 41 13 19 7 -12 16 -19 20 -16 4 4 8 -14 8 -39 1 -26 2 -55 3 -64 1 -20
-40 -23 -131 -9 l-53 8 0 -40 c0 -25 5 -40 13 -39 112 4 193 -18 157 -43 -14
-9 -89 -6 -147 6 -16 3 -23 0 -23 -11 0 -12 15 -15 76 -15 56 0 85 -5 108 -18
30 -18 116 -27 231 -24 114 2 130 1 136 -9 4 -7 12 -8 20 -3 21 13 90 5 129
-15 42 -22 234 -29 245 -10 4 6 2 15 -5 19 -15 9 -156 23 -260 26 -153 3 -249
21 -235 45 7 10 98 13 108 3 3 -3 32 -7 64 -9 32 -2 72 -5 88 -8 17 -3 106
-10 199 -16 93 -7 203 -16 245 -22 115 -15 128 -17 241 -23 58 -4 122 -9 142
-11 20 -3 39 -1 42 4 4 5 -18 11 -46 14 -87 8 -375 36 -493 48 -60 6 -127 12
-148 14 -22 2 -58 6 -80 9 -23 3 -73 8 -112 11 -38 3 -110 10 -159 17 -72 9
-90 15 -94 30 -3 12 -13 18 -31 18 -18 0 -22 -3 -12 -9 19 -12 0 -20 -24 -10
-11 4 -15 8 -10 8 6 1 9 49 7 132 -4 149 1 179 25 135 16 -30 26 -31 114 -10
23 5 27 2 33 -26 3 -18 6 -46 6 -62 0 -18 4 -27 11 -22 6 3 9 15 6 25 -3 10
-1 35 5 56 9 37 10 38 56 38 57 0 60 -5 61 -107 1 -109 20 -97 23 15 3 84 5
92 23 95 18 2 23 -6 33 -56 7 -32 13 -76 13 -98 1 -21 5 1 9 49 4 48 12 93 18
99 17 17 34 -28 42 -111 7 -78 13 -72 10 11 -2 67 29 117 44 71 5 -16 21 -18
132 -18 145 0 139 3 150 -90 l8 -60 9 70 c9 65 29 106 41 87 3 -5 8 -28 12
-52 l7 -43 17 42 c15 39 17 41 32 24 8 -10 20 -27 25 -37 10 -17 11 -16 18 12
8 38 24 51 37 28 7 -12 24 -16 68 -16 46 0 60 -3 60 -14 0 -20 20 -31 29 -17
9 14 63 24 78 14 6 -5 21 -31 32 -58 11 -28 20 -43 21 -35 1 31 21 90 31 90 5
0 16 -14 23 -32 13 -31 14 -31 25 -10 16 30 25 28 49 -9 15 -24 20 -27 25 -15
8 20 27 21 27 1 0 -9 14 -17 38 -21 30 -5 126 -44 202 -83 8 -4 18 -22 22 -39
13 -50 26 -46 38 12 12 59 46 101 74 90 27 -10 66 22 66 56 0 16 5 32 10 35
17 11 60 -23 60 -48 0 -12 4 -29 9 -36 10 -16 13 -8 26 73 5 27 10 35 17 28
13 -13 27 -83 28 -134 0 -59 18 -45 25 20 10 87 10 87 20 85 6 -1 15 -30 20
-65 10 -57 12 -61 23 -41 7 12 12 42 12 67 0 25 5 46 10 46 6 0 10 -19 10 -41
0 -41 0 -42 33 -36 17 3 40 8 50 12 15 6 17 1 17 -41 1 -27 9 -71 18 -98 14
-41 23 -51 47 -58 17 -5 38 -6 48 -4 13 3 17 -2 17 -24 0 -23 -5 -28 -29 -32
-17 -2 -37 -1 -45 4 -23 13 -28 -7 -21 -87 6 -59 10 -73 24 -73 9 0 77 -5 151
-11 79 -6 159 -7 192 -3 31 5 63 5 72 0 8 -4 21 -5 30 -2 24 9 -12 42 -47 42
-28 -1 -45 8 -35 17 3 3 74 -3 159 -14 204 -26 261 -29 266 -14 3 7 -15 13
-49 17 -93 9 -271 27 -317 30 -23 2 -48 9 -54 15 -8 8 -8 11 1 11 7 0 12 4 12
9 0 5 -22 11 -49 13 -70 7 -81 22 -80 110 0 74 17 73 18 -1 1 -55 19 -24 23
39 l3 55 44 14 c50 16 60 8 61 -44 0 -23 3 -27 10 -15 5 8 10 27 10 43 0 25 3
27 44 27 40 0 45 -3 55 -31 6 -18 11 -55 11 -83 1 -88 21 -16 32 112 5 50 38
-48 39 -115 1 -43 2 -45 9 -18 4 17 11 51 15 78 3 26 10 47 16 47 5 0 9 -3 9
-7 0 -31 23 -140 31 -147 7 -8 16 101 10 137 -2 12 16 8 28 -6 6 -8 8 -17 4
-20 -10 -11 27 -8 48 4 15 7 34 7 67 -1 26 -6 65 -15 87 -20 22 -4 36 -8 31
-9 -5 0 -2 -8 5 -17 7 -9 14 -24 14 -33 1 -9 2 -28 3 -43 1 -16 7 -28 12 -28
6 0 10 30 10 69 0 65 10 95 25 72 3 -6 8 -40 12 -76 3 -36 9 -65 13 -65 4 0
11 33 15 72 6 61 8 69 18 53 6 -11 14 -44 17 -74 7 -71 24 -76 28 -9 2 29 4
54 6 56 2 1 15 -3 30 -9 21 -10 31 -10 50 0 24 13 71 6 61 -9 -3 -4 2 -13 10
-20 15 -12 20 -4 16 23 0 4 20 7 46 6 37 -1 42 -3 23 -8 l-25 -7 26 -7 c24 -6
27 -13 34 -64 7 -55 8 -56 20 -33 8 14 17 42 20 64 8 42 24 33 25 -14 0 -14 5
-32 10 -40 9 -13 11 -13 20 0 5 8 10 26 10 40 1 34 15 8 25 -45 l7 -40 18 23
c15 18 28 22 74 22 31 0 84 -8 117 -17 52 -14 62 -21 74 -50 8 -18 16 -33 19
-33 2 0 12 24 21 53 21 62 59 101 85 87 12 -6 29 -6 51 2 31 11 34 9 71 -31
33 -35 42 -40 58 -31 11 6 20 16 20 23 0 6 7 1 16 -11 13 -18 19 -21 30 -11 8
6 14 19 14 28 1 11 7 8 21 -12 15 -19 25 -25 33 -18 14 12 30 3 39 -23 6 -15
14 -17 42 -12 32 6 35 5 35 -17 0 -14 7 -30 15 -37 29 -24 18 -42 -22 -36
-125 18 -339 29 -360 18 -44 -23 -131 -52 -155 -52 -15 0 -30 -5 -34 -11 -13
-22 91 -3 145 25 l52 27 145 -16 c80 -9 161 -17 179 -18 19 -2 36 -5 40 -8 3
-3 9 -42 13 -85 l8 -79 -71 3 c-38 2 -119 10 -179 17 l-109 15 -86 -36 c-47
-19 -101 -42 -118 -50 -27 -11 -33 -11 -33 -1 0 15 -124 30 -405 47 -93 6
-198 15 -231 20 -34 6 -81 10 -104 10 l-43 0 6 -45 c6 -42 5 -46 -24 -61 -31
-15 -65 -12 -54 5 3 5 1 12 -5 16 -5 3 -10 2 -10 -3 0 -5 -11 -15 -25 -22 -23
-12 -27 -12 -41 8 -17 25 -38 20 -71 -17 -28 -32 -29 -53 -3 -76 11 -10 20
-26 20 -37 0 -14 8 -18 38 -19 20 -1 56 -3 79 -3 23 -1 50 -9 60 -18 22 -19
103 -35 103 -20 0 6 -13 16 -30 24 -34 15 -46 36 -26 44 30 12 220 -54 264
-91 15 -12 30 -23 34 -24 20 -4 46 -16 71 -33 15 -11 27 -15 27 -9 0 6 -12 18
-27 28 -16 10 -30 20 -33 23 -18 22 -119 80 -208 121 -114 52 -138 69 -129 93
10 26 57 38 127 32 36 -3 101 -8 145 -12 44 -3 85 -9 90 -13 6 -3 69 -9 140
-12 203 -11 210 -13 287 -117 l40 -54 19 31 c22 37 61 49 103 31 52 -22 111
-24 150 -5 20 10 36 21 36 26 0 16 77 10 91 -8 8 -9 28 -24 44 -35 l30 -18
-115 0 c-122 -1 -320 -29 -345 -50 -17 -14 -20 -40 -5 -40 5 0 13 6 17 14 8
14 45 26 148 48 70 14 205 5 243 -18 38 -22 43 -36 53 -149 15 -152 28 -305
36 -405 l7 -95 12 115 c9 96 11 0 10 -565 l-1 -680 -84 -12 c-46 -6 -89 -17
-94 -22 -6 -6 -20 -11 -31 -11 -30 -1 -147 -42 -176 -63 -13 -9 -29 -17 -35
-17 -6 0 -47 -18 -91 -40 -43 -22 -85 -40 -92 -40 -7 0 -15 -6 -18 -14 -3 -7
-23 -22 -44 -32 -22 -11 -40 -22 -40 -26 0 -5 -4 -8 -9 -8 -12 0 -107 -62
-146 -95 -16 -14 -33 -25 -38 -25 -5 0 -34 -24 -65 -54 -93 -89 -135 -126
-144 -126 -4 0 -26 -18 -50 -40 -24 -22 -49 -40 -55 -40 -17 0 -16 -5 3 -42
19 -37 12 -44 -60 -54 -57 -7 -82 -19 -109 -52 -11 -13 -36 -31 -56 -40 -22
-10 -42 -30 -51 -49 -8 -18 -20 -33 -27 -33 -6 0 -18 -6 -25 -14 -8 -7 -31
-15 -51 -18 -30 -3 -37 -1 -37 13 0 10 9 21 20 24 11 3 25 15 31 26 6 11 20
24 32 29 35 14 -178 11 -261 -4 -40 -7 -75 -10 -77 -5 -3 4 3 10 12 13 47 14
207 46 283 56 106 14 131 20 125 30 -6 10 68 71 115 95 19 10 58 41 86 69 60
59 168 149 226 189 23 15 37 27 32 27 -5 1 4 8 19 16 l29 15 -7 102 c-3 56
-10 163 -15 237 -5 74 -12 217 -16 317 l-7 182 24 10 c73 28 280 61 386 61 62
0 114 4 117 8 9 14 -211 35 -242 24 -30 -12 -215 -57 -274 -68 -25 -4 -38 -2
-38 5 0 6 4 11 9 11 5 0 12 11 15 24 5 21 20 27 138 57 91 22 154 32 198 31
36 0 85 3 109 9 29 6 47 6 56 -1 9 -8 14 -6 19 6 10 27 7 34 -16 34 -34 0 -68
11 -68 21 0 5 19 9 43 10 l42 1 -35 8 c-19 5 -71 10 -115 11 -68 2 -105 -4
-240 -41 -88 -24 -175 -45 -194 -48 -31 -4 -33 -2 -28 17 3 11 1 21 -4 21 -5
0 -9 4 -9 9 0 4 19 12 43 17 l42 9 3 65 c1 36 6 74 11 85 11 24 84 256 107
340 9 33 20 64 24 68 4 5 20 1 35 -9 l28 -18 -8 24 c-12 40 -85 161 -127 211
-42 50 -179 171 -225 199 -28 16 -146 82 -192 106 -16 8 -30 10 -41 4 -9 -5
-43 -7 -76 -4 -88 8 -107 8 -126 0 -13 -6 -18 -4 -18 8 0 9 -5 16 -10 16 -6 0
-10 -6 -9 -12 3 -26 -1 -39 -11 -33 -6 4 -8 15 -5 25 9 29 -6 31 -96 9 -154
-37 -271 -100 -384 -207 -67 -64 -77 -79 -129 -193 -30 -69 -63 -153 -72 -189
-9 -36 -19 -69 -23 -75 -4 -5 -9 -46 -10 -90 -2 -44 -5 -83 -7 -86 -2 -4 -15
-4 -29 -2 -20 4 -27 0 -35 -21 -10 -28 -6 -168 6 -187 4 -7 6 -36 5 -66 l-2
-53 36 0 c20 0 38 -6 40 -12 2 -7 9 -152 15 -323 6 -170 17 -422 25 -560 8
-137 16 -364 17 -502 3 -279 1 -269 67 -233 56 30 149 57 222 65 l66 7 5 -31
c4 -28 2 -31 -21 -31 -36 0 -71 -11 -71 -21 0 -5 19 -12 42 -16 24 -3 37 -8
30 -11 -6 -2 -12 -12 -12 -22 0 -20 23 -43 33 -33 4 3 7 1 7 -6 0 -8 7 -11 15
-7 8 3 15 0 15 -7 0 -13 -59 -57 -77 -57 -6 0 -16 -7 -23 -15 -9 -10 -29 -15
-64 -13 -28 1 -64 -2 -81 -6 -16 -3 -45 -8 -64 -11 -19 -2 -39 -9 -44 -14 -8
-8 39 -11 155 -11 92 0 173 -3 181 -6 12 -4 12 -11 -4 -44 -10 -21 -23 -42
-29 -45 -21 -13 -43 -82 -50 -153 -6 -60 -11 -78 -33 -99 -24 -24 -35 -27
-144 -33 -65 -4 -93 -8 -63 -9 30 -1 65 -4 78 -7 28 -8 29 -38 1 -58 -25 -17
-59 -70 -59 -91 0 -8 -4 -15 -9 -15 -14 0 -49 -116 -61 -205 -6 -44 -15 -84
-21 -90 -25 -25 -527 -13 -784 20 -60 7 -161 17 -222 21 -93 5 -113 4 -113 -7
0 -27 16 -36 70 -42 180 -19 181 -19 198 -45 9 -13 33 -39 52 -58 19 -18 32
-36 28 -39 -3 -4 -65 -10 -138 -14 -72 -5 -136 -13 -142 -19 -14 -14 1 -17
152 -36 69 -9 154 -21 190 -26 72 -11 308 -26 560 -35 194 -7 249 -13 229 -26
-9 -6 -10 -12 -4 -16 6 -5 17 -28 25 -53 7 -25 19 -56 26 -70 8 -14 20 -41 28
-60 18 -40 37 -72 49 -81 5 -3 -3 -19 -17 -34 -24 -26 -30 -27 -111 -26 -69 1
-86 -1 -91 -14 -8 -19 -43 -20 -50 0 -4 10 -20 15 -45 15 -31 0 -39 -4 -39
-18 0 -16 43 -42 80 -49 48 -9 351 -33 409 -33 38 0 71 -5 73 -10 4 -13 375
-33 546 -30 69 1 122 -3 122 -8 0 -5 -8 -19 -19 -30 l-18 -22 -3724 0 c-3467
0 -4038 4 -4111 26 -10 3 -18 12 -18 21 0 11 -5 13 -17 7 -24 -10 -85 -15
-231 -19 -68 -2 -136 -8 -152 -15 -20 -8 -47 -9 -104 -1 -43 6 -95 11 -117 11
-35 0 -56 14 -26 18 78 11 86 14 96 45 6 16 11 31 11 33 0 10 -67 -11 -77 -23
-8 -10 -21 -12 -47 -7 -22 4 -42 2 -50 -5 -14 -12 -66 -5 -66 8 0 4 -11 13
-25 19 -14 6 -25 15 -25 20 0 5 54 12 120 15 134 7 190 21 190 49 0 15 9 18
59 18 33 0 63 -4 66 -10 6 -10 75 18 75 32 0 4 -12 9 -27 9 -17 1 -21 3 -10 6
9 2 17 8 17 11 0 10 -80 33 -91 27 -17 -11 -9 -34 14 -38 12 -3 -5 -5 -39 -4
-33 0 -66 -3 -72 -6 -5 -4 -12 -2 -14 4 -3 8 -24 10 -71 5 -66 -7 -94 -26 -39
-26 51 0 56 -17 6 -24 -54 -7 -245 -7 -226 1 6 2 12 11 12 19 0 8 9 14 20 14
11 0 20 5 20 10 0 6 18 10 39 10 22 0 42 4 45 9 3 4 37 11 76 13 38 3 75 10
82 15 7 6 20 10 28 11 8 0 100 5 204 12 139 9 195 9 213 1 19 -9 29 -8 46 5
21 15 21 15 2 13 -11 -1 -28 1 -38 6 -10 4 -45 5 -78 1 -51 -5 -62 -3 -79 14
-11 11 -29 20 -40 20 -13 0 -20 7 -20 19 0 11 -4 21 -10 23 -5 1 -10 19 -12
38 -1 19 -5 37 -9 40 -4 3 -9 21 -11 40 -3 33 -2 35 40 44 41 9 60 36 25 36
-14 0 -14 2 3 21 16 18 26 20 69 15 59 -8 60 -8 108 0 20 3 37 10 37 15 0 5 9
9 20 9 11 0 20 5 20 10 0 6 9 10 20 10 11 0 20 -4 20 -9 0 -5 9 -7 20 -4 18 5
20 0 20 -42 l0 -48 -37 6 c-21 4 -39 11 -41 17 -6 18 -38 11 -62 -15 -13 -14
-35 -25 -49 -25 l-25 0 22 -20 c14 -14 22 -33 22 -55 0 -38 45 -92 73 -87 20
4 22 13 5 30 -7 7 -13 25 -14 40 -1 16 -5 38 -8 50 -7 21 -4 22 43 22 27 0 52
4 55 9 9 14 59 0 94 -27 17 -13 33 -20 33 -16 1 5 2 16 3 24 0 9 18 18 44 24
31 7 42 14 42 27 0 11 -7 19 -15 19 -14 0 -21 18 -27 70 -2 20 -9 26 -37 28
-19 2 -37 -2 -41 -8 -5 -8 -12 2 -20 25 l-12 38 -62 -9 c-33 -4 -416 -8 -850
-8 -723 -1 -792 0 -810 16 -21 16 -21 16 6 23 16 4 28 10 28 14 0 4 16 15 35
24 20 9 40 28 45 42 5 14 17 26 27 27 10 0 32 2 48 3 17 1 246 5 510 8 264 4
542 12 617 19 105 9 144 9 163 0 41 -19 44 -15 42 51 -1 34 -1 97 1 139 2 71
4 77 25 80 19 3 23 11 30 73 4 39 5 114 2 168 -3 53 -2 142 1 197 6 89 9 100
28 106 20 7 20 7 1 14 -19 7 -20 18 -20 406 0 422 21 1092 35 1134 7 21 9 18
9 -19 1 -24 4 -41 8 -37 12 12 30 198 32 331 1 71 4 131 6 133 2 2 -2 10 -8
17 -8 9 -16 10 -24 3 -21 -17 -16 47 8 113 24 66 6 60 174 63 75 1 80 2 83 24
2 12 -1 22 -7 22 -6 0 -8 7 -5 15 5 12 -4 15 -47 14 -40 0 -49 -3 -34 -9 17
-7 15 -9 -12 -9 -18 -1 -33 3 -33 7 0 5 -26 7 -57 6 -38 -2 -48 -1 -29 4 l28
7 -21 19 c-12 11 -21 23 -21 28 0 5 52 8 115 7 64 -1 118 0 120 2 4 5 14 98
25 244 4 61 11 133 15 160 6 46 5 48 -9 31 -25 -30 -36 -11 -61 108 -5 21 -9
26 -15 17 -4 -8 -2 -28 6 -47 14 -34 22 -199 10 -211 -3 -3 -6 11 -6 33 0 29
-3 35 -10 24 -5 -8 -10 -34 -10 -56 0 -46 -10 -54 -64 -54 -26 0 -34 5 -43 30
-12 31 -33 41 -33 15 0 -10 -10 -15 -29 -15 -34 0 -51 31 -31 55 13 15 10 81
-9 180 -35 192 -234 514 -373 601 -21 14 -56 40 -77 60 -41 36 -141 89 -277
144 -83 33 -133 64 -123 74 6 6 26 1 139 -36 66 -22 151 -64 205 -102 16 -12
46 -29 65 -40 78 -41 253 -202 300 -275 8 -13 23 -34 33 -46 9 -13 17 -27 17
-32 0 -4 10 -19 21 -33 l20 -25 -6 24 c-9 30 -72 128 -122 187 -34 42 -155
153 -247 226 -48 39 -267 142 -368 172 -44 14 -58 22 -58 37 0 28 34 24 142
-15 99 -35 252 -109 262 -125 4 -5 30 -23 59 -40 56 -32 273 -226 291 -260 6
-11 33 -42 59 -70 26 -27 54 -65 62 -84 8 -19 21 -37 28 -40 8 -3 28 -32 43
-64 16 -32 34 -61 39 -65 18 -13 17 10 -3 49 -11 21 -21 41 -21 45 -6 25 -104
218 -117 229 -8 7 -20 22 -26 33 -10 19 -10 20 5 7 24 -19 21 2 -3 24 -15 13
-20 14 -20 5 0 -11 -3 -11 -12 -2 -10 10 -10 15 -1 20 8 5 3 16 -14 37 -23 26
-25 27 -18 6 9 -28 -9 -21 -26 11 -8 15 -8 19 0 14 6 -4 11 -3 11 2 0 6 -17
17 -38 25 -34 14 -62 33 -158 111 -17 14 -42 30 -57 37 -29 13 -34 25 -14 32
9 3 9 8 -2 18 -10 11 -15 11 -18 2 -6 -17 -38 -17 -52 0 -24 30 -247 127 -328
143 -18 4 -33 11 -33 16 0 11 23 8 99 -12 24 -6 45 -9 48 -7 6 6 -112 47 -136
47 -25 0 -28 26 -3 38 25 12 443 -7 520 -24 14 -3 20 -9 16 -16 -5 -8 -2 -9
12 -3 33 15 107 17 169 5 33 -7 91 -15 130 -18 63 -6 70 -9 76 -32 l6 -25 11
28 c11 27 13 27 41 13 16 -9 50 -44 76 -78 40 -53 46 -67 41 -96 -9 -57 31
-96 53 -53 6 10 31 29 57 41 41 20 57 22 148 17 95 -5 156 -20 156 -39 0 -4 9
-8 20 -8 32 0 42 -42 46 -200 5 -185 12 -324 20 -382 l6 -46 -28 6 -29 5 28
-24 27 -24 0 -230 c0 -247 0 -249 2 -373 1 -91 -4 -85 83 -96 146 -18 145 -17
145 -42 0 -24 -1 -24 -77 -20 -43 2 -96 7 -119 11 l-41 7 1 -35 c1 -20 5 -39
9 -44 5 -4 51 -8 103 -9 53 0 100 -6 106 -12 8 -8 7 -151 -1 -509 -7 -274 -16
-734 -22 -1023 -6 -289 -12 -561 -13 -605 -1 -44 -4 -150 -6 -235 -2 -85 -5
-134 -7 -107 -7 85 -21 50 -18 -46 2 -64 7 -91 15 -89 6 1 10 -5 8 -15 -2 -10
-16 -21 -33 -24 l-30 -7 30 -1 c56 -2 58 -8 57 -145 -1 -75 3 -128 9 -132 6
-3 184 -1 397 5 213 7 473 14 577 16 105 2 273 9 375 15 102 7 295 15 430 19
l245 6 1 101 c0 55 5 107 10 115 5 8 9 279 10 634 0 341 1 893 2 1226 l2 605
79 42 78 42 117 0 c71 0 116 4 116 10 0 6 -3 10 -7 11 -5 0 -60 4 -123 8
l-115 9 -72 -44 c-71 -43 -111 -58 -85 -32 7 7 12 22 12 34 0 15 12 30 38 45
20 12 54 33 74 46 31 21 56 26 150 34 82 7 114 6 117 -2 2 -8 6 -7 11 1 16 26
-1 40 -49 41 -25 1 -59 5 -76 9 -22 6 -9 8 47 8 80 -1 105 12 46 23 -18 4 -79
9 -135 12 l-102 6 -63 -43 c-60 -41 -121 -76 -133 -76 -14 0 -2 31 18 45 22
16 22 16 -8 10 l-30 -6 23 20 c13 11 35 29 50 40 l26 19 1 308 2 309 -35 68
c-41 78 -160 211 -265 295 -68 54 -226 140 -357 195 -70 29 -95 33 -105 17 -4
-7 -47 -8 -120 -4 -103 5 -114 4 -124 -13 -9 -15 -10 -13 -5 11 l7 29 -70 -6
c-177 -15 -440 -114 -533 -201 -8 -7 -31 -25 -52 -38 -43 -29 -138 -118 -138
-129 0 -5 -20 -36 -44 -71 -91 -130 -166 -323 -182 -465 -5 -45 -11 -63 -21
-63 -10 0 -13 9 -11 28 2 22 -1 28 -20 30 -13 2 -25 -3 -28 -12 -7 -19 -25
-22 -22 -3 2 7 -10 13 -29 15 -18 2 -33 9 -34 15 -1 7 -5 1 -9 -13 -15 -47
-11 74 5 152 18 88 45 179 58 195 5 7 6 16 3 21 -11 18 112 232 161 281 39 39
55 34 30 -8 -9 -16 -17 -34 -17 -40 0 -17 26 -2 39 23 7 12 27 26 44 32 21 6
34 17 38 34 4 14 7 21 8 15 1 -5 8 1 17 13 8 12 19 22 25 22 5 0 17 7 27 15
64 57 89 75 121 92 20 10 50 28 67 41 17 12 37 22 45 22 8 0 25 9 39 20 14 11
33 20 42 20 10 0 33 9 53 20 48 27 168 48 310 53 l60 2 6 42 c3 24 9 46 13 50
4 5 5 -13 1 -39 -6 -42 -4 -50 14 -65 12 -10 27 -29 34 -41 11 -21 20 -24 92
-28 78 -4 123 -12 233 -38 28 -8 52 -11 52 -9 0 2 -25 15 -55 29 -30 14 -57
29 -60 34 -3 5 -12 7 -19 4 -7 -3 -16 3 -20 12 -9 23 1 31 24 17 10 -7 29 -10
41 -8 12 3 42 -2 66 -10 51 -18 67 -19 58 -5 -9 15 1 12 48 -11 23 -11 77 -34
120 -50 72 -29 84 -39 78 -72 -3 -17 17 3 22 22 4 15 -10 26 -67 56 -121 65
-148 77 -230 106 -44 16 -84 33 -89 38 -17 17 4 32 36 26 18 -3 95 -1 172 3
109 7 146 5 167 -5 15 -7 45 -13 67 -13 21 0 41 -5 43 -12 3 -7 9 -8 19 -3 16
10 21 12 64 21 17 3 40 10 52 16 34 17 215 2 230 -19 11 -14 13 -14 18 -1 6
16 55 20 55 6 0 -5 7 -8 15 -8 7 0 18 -7 23 -16 8 -14 12 -11 32 16 12 17 45
49 73 71 l51 41 120 -7 c67 -3 155 -10 196 -15 41 -5 121 -12 178 -16 89 -6
102 -5 102 9 0 19 -19 25 -80 26 -59 0 -298 19 -429 32 l-103 11 -59 -58 c-37
-37 -59 -52 -59 -42 0 17 -25 21 -210 34 -99 7 -131 16 -126 37 1 6 1 9 -1 5
-7 -12 -114 -9 -268 7 -77 8 -228 22 -335 31 -169 13 -372 32 -675 64 -69 7
-233 22 -383 34 -23 2 -46 6 -49 10 -8 8 -5 441 3 515 l7 54 104 -7 c57 -4
125 -14 151 -22z m2972 -8 c74 -8 191 -18 260 -21 69 -4 150 -11 180 -16 95
-17 233 -31 297 -29 34 1 82 -6 108 -14 25 -9 70 -16 100 -16 29 0 55 -5 57
-11 2 -5 46 -14 98 -19 186 -16 305 -31 322 -40 23 -13 88 -13 88 -1 0 5 22
25 49 45 47 35 81 46 81 27 0 -11 -62 -61 -74 -61 -5 0 -20 -9 -35 -20 -27
-18 -33 -19 -202 -5 -248 20 -569 52 -824 81 -121 14 -321 36 -444 48 -187 19
-226 26 -237 41 -17 23 -9 36 19 30 12 -3 83 -12 157 -19z m575 5 c17 -10 11
-11 -35 -7 -30 3 -76 6 -102 6 -27 0 -48 4 -48 9 0 13 162 6 185 -8z m492 -37
c34 -4 53 -11 57 -21 6 -14 -3 -15 -76 -10 -82 6 -148 24 -148 39 0 8 23 6
167 -8z m-5521 -29 c19 -20 34 -32 34 -29 0 4 14 -7 30 -25 17 -17 31 -31 33
-31 1 0 17 4 36 10 19 5 31 7 28 3 -4 -3 1 -12 10 -18 10 -8 18 -28 19 -49 l1
-37 -61 5 c-218 20 -207 17 -217 42 -4 13 -13 24 -18 24 -12 0 -2 100 11 117
5 6 19 14 31 16 12 2 24 5 25 6 2 0 19 -15 38 -34z m-1731 15 c3 -5 16 -10 28
-11 12 0 16 -3 9 -6 -20 -8 -83 7 -77 18 8 12 32 12 40 -1z m-87 -63 c4 -18
-14 -22 -37 -8 -7 5 -10 14 -6 20 10 17 39 9 43 -12z m140 -9 c3 -15 -5 -18
-52 -18 -50 0 -56 2 -56 21 0 18 5 20 52 17 41 -2 54 -7 56 -20z m8212 -22
l75 -13 -60 -1 c-33 0 -91 5 -130 12 l-70 14 55 0 c30 1 89 -5 130 -12z
m-7618 -18 c51 -11 69 -24 53 -39 -6 -7 -263 16 -271 24 -28 28 110 37 218 15z
m-736 -12 c6 -6 -11 -126 -17 -126 -5 0 -9 7 -9 15 0 8 -12 22 -27 32 -16 9
-41 31 -58 48 l-30 30 50 6 c40 4 85 2 91 -5z m8559 4 c27 -7 28 -8 5 -8 -14
-1 -43 3 -65 7 l-40 9 35 0 c19 0 49 -4 65 -8z m-8385 -25 c17 -15 127 -35
189 -35 23 0 52 -7 65 -16 23 -14 26 -14 49 11 l24 26 149 -13 c85 -8 164 -21
184 -30 40 -18 261 -33 276 -18 5 4 40 6 77 3 l68 -6 -3 -66 -3 -66 -65 3
c-123 6 -359 31 -377 39 -21 10 -143 5 -143 -6 0 -14 46 -29 61 -20 14 9 59
13 59 5 0 -27 -15 -31 -110 -28 -75 3 -100 7 -100 17 0 15 21 25 58 26 55 2
-106 28 -178 29 -41 0 -118 8 -170 16 -52 8 -129 16 -170 18 l-75 2 -3 68 -3
68 63 -7 c35 -4 70 -13 78 -20z m1990 5 c31 -9 108 -17 245 -24 22 -1 49 -7
61 -13 14 -8 24 -9 31 -2 6 6 23 9 39 7 l29 -3 -3 -91 c-4 -101 -2 -104 71
-104 22 0 27 4 23 18 -5 16 1 16 99 7 57 -5 110 -16 117 -22 6 -7 27 -13 44
-13 42 0 45 -6 28 -55 -9 -27 -10 -41 -3 -46 6 -3 -2 -9 -18 -12 -35 -8 -226
14 -234 26 -3 5 -9 8 -13 6 -10 -3 -236 12 -311 21 -38 5 -128 14 -200 21 -71
6 -137 16 -145 20 -16 10 62 8 340 -10 152 -10 209 -17 305 -35 84 -17 105
-18 105 -6 0 8 -9 11 -25 7 -16 -2 -34 2 -47 13 l-21 17 23 -1 c36 -2 34 19
-2 21 -18 1 -96 7 -173 12 -176 12 -324 35 -365 56 -18 9 -46 15 -64 12 l-33
-4 4 51 c3 28 6 57 9 65 6 18 70 10 126 -18 30 -14 77 -23 151 -28 101 -8 109
-7 119 10 14 28 1 35 -72 42 -36 3 -84 8 -108 11 -23 3 -81 7 -128 9 -48 3
-89 7 -92 9 -2 3 -2 12 1 21 7 18 38 19 87 5z m-926 -16 c22 -8 20 -34 -1 -35
-35 -2 -108 3 -115 7 -4 3 -2 11 5 19 12 14 82 20 111 9z m155 -17 c14 -6 27
-18 29 -26 4 -12 -8 -13 -68 -7 -82 7 -91 11 -83 31 7 19 87 20 122 2z m1341
-7 c0 -5 -18 -10 -39 -10 -22 0 -43 5 -46 10 -4 6 12 10 39 10 25 0 46 -4 46
-10z m-739 -40 c27 -15 19 -34 -17 -39 -40 -5 -253 19 -259 30 -3 4 3 13 12
19 22 14 234 6 264 -10z m-566 -25 c28 -17 271 -41 287 -28 15 12 260 -3 296
-18 25 -10 25 -33 1 -35 -8 0 -21 -2 -30 -2 -9 -1 -21 -19 -28 -42 l-12 -40
-57 0 c-31 0 -100 5 -152 10 -88 9 -446 40 -462 40 -9 0 -11 123 -3 131 9 9
140 -4 160 -16z m1338 -2 c-7 -2 -21 -2 -30 0 -10 3 -4 5 12 5 17 0 24 -2 18
-5z m3271 -139 c2 -57 0 -107 -4 -109 -5 -3 -16 -2 -26 2 -15 6 -16 18 -10
121 10 180 33 173 40 -14z m2896 130 l35 -14 -55 5 c-30 3 -67 5 -82 5 -16 0
-28 5 -28 10 0 15 90 11 130 -6z m260 -24 c8 -4 83 -8 165 -8 166 -1 246 -10
253 -30 5 -17 -120 -15 -223 3 -44 8 -107 15 -140 15 -61 1 -212 24 -223 34
-8 8 150 -5 168 -14z m-3221 -111 c2 -63 -10 -99 -30 -99 -17 0 -19 9 -19 90
0 106 17 144 37 82 6 -21 12 -53 12 -73z m4451 86 c0 -15 -148 -91 -158 -80
-9 9 8 21 78 58 76 41 80 42 80 22z m-9895 -15 c10 -11 16 -23 13 -26 -9 -8
-48 19 -48 33 0 19 14 16 35 -7z m-910 -30 c167 -15 175 -19 219 -110 4 -8 17
-35 30 -60 16 -29 20 -46 12 -49 -36 -11 -146 -65 -146 -72 0 -4 -8 -10 -19
-14 -10 -3 -31 -17 -47 -30 -16 -14 -44 -32 -61 -40 -18 -9 -33 -22 -33 -29 0
-7 -16 -18 -35 -26 -19 -8 -35 -17 -35 -22 0 -16 -23 -7 -64 24 -22 18 -44 37
-48 43 -12 16 -10 313 2 320 6 3 10 25 10 47 l0 41 58 -7 c31 -4 102 -11 157
-16z m-265 -37 c0 -13 -4 -22 -9 -19 -5 4 -8 -53 -6 -136 3 -124 2 -132 -5
-58 -4 47 -8 125 -9 174 -1 78 1 87 14 76 8 -7 15 -23 15 -37z m10545 37 c7
-12 -31 -12 -95 -1 -44 8 -44 9 22 10 37 0 70 -3 73 -9z m-9992 -26 c15 -3 25
-9 22 -14 -13 -21 116 -27 331 -14 l82 4 4 -30 c4 -27 2 -30 -21 -31 l-26 -1
25 -7 25 -7 -25 -7 c-37 -10 -70 -8 -70 3 0 6 10 10 23 10 17 1 19 2 7 9 -19
11 -127 -5 -204 -30 -33 -10 -68 -19 -78 -19 -10 0 -27 -9 -38 -20 -23 -23
-29 -24 -50 -7 -22 17 -68 107 -75 144 -6 35 -8 34 68 17z m952 -84 c-5 -8
-11 -8 -17 -2 -6 6 -7 16 -3 22 5 8 11 8 17 2 6 -6 7 -16 3 -22z m1543 -10
c12 -6 -10 -9 -75 -10 -85 0 -119 11 -75 24 25 7 131 -2 150 -14z m-3516 -50
c12 -11 28 -20 35 -20 7 0 17 -10 24 -21 10 -20 9 -21 -12 -16 -13 3 -42 9
-65 13 -37 6 -41 9 -40 35 1 35 26 39 58 9z m9747 -108 c-1 -49 -3 -60 -9 -42
-12 37 -12 122 0 115 6 -3 10 -36 9 -73z m-6276 58 c19 0 31 -7 38 -23 6 -12
23 -32 40 -42 40 -27 36 -39 -8 -30 -21 3 -92 9 -158 13 -72 4 -119 11 -118
17 2 6 14 22 28 37 28 29 60 38 115 32 19 -2 47 -4 63 -4z m343 -15 c7 -29 19
-32 28 -9 6 15 19 16 100 11 52 -4 113 -13 137 -22 24 -8 52 -15 61 -15 32 0
70 -24 85 -54 10 -18 18 -26 21 -18 2 7 -2 19 -8 27 -21 25 -4 48 28 40 15 -4
77 -11 137 -15 161 -12 318 -29 324 -36 3 -3 -1 -9 -8 -13 -9 -6 -3 -10 18
-13 18 -3 34 -1 37 4 6 10 68 5 72 -5 9 -27 0 -37 -35 -37 -101 0 -314 -55
-448 -114 -33 -15 -109 -60 -170 -100 -127 -84 -145 -93 -140 -67 5 28 -40 14
-69 -20 -14 -16 -32 -29 -40 -29 -9 0 -16 -7 -16 -15 0 -9 -17 -34 -38 -58
-21 -23 -44 -54 -51 -69 -8 -15 -22 -36 -30 -45 -23 -24 -91 -164 -86 -173 3
-4 -1 -13 -9 -19 -23 -19 -66 6 -66 39 0 14 -4 30 -9 35 -6 6 -6 29 -1 57 5
26 10 101 11 166 0 66 4 123 8 128 16 23 64 44 103 45 58 1 25 15 -54 24 -32
4 -58 9 -58 12 0 3 13 22 29 42 32 41 43 76 45 139 0 23 4 42 8 42 5 0 8 17 8
38 0 65 12 111 29 115 33 9 41 6 47 -18z m-2326 -5 c-13 -11 -34 -21 -47 -21
-12 -1 -26 -2 -30 -4 -5 -1 -26 -5 -48 -9 -69 -12 -130 -29 -139 -37 -6 -5
-20 -9 -32 -9 -13 0 -26 -4 -29 -10 -3 -5 -17 -10 -31 -10 -31 0 -33 32 -1 48
22 11 33 14 157 51 39 12 96 20 144 20 l79 1 -23 -20z m80 10 c0 -5 -4 -10 -9
-10 -6 0 -13 5 -16 10 -3 6 1 10 9 10 9 0 16 -4 16 -10z m3420 -15 c36 -3 86
-5 113 -5 46 1 47 0 47 -29 0 -48 -16 -78 -46 -85 -20 -5 -30 -3 -36 9 -8 14
-13 14 -44 -6 -40 -24 -59 -20 -76 16 l-11 25 -23 -21 c-21 -20 -24 -20 -30
-5 -3 9 -12 16 -20 16 -17 0 -18 37 -4 75 9 23 15 26 38 21 15 -4 56 -9 92
-11z m4693 -57 l-10 -53 -2 65 c-1 48 2 61 10 53 9 -9 9 -26 2 -65z m-9660 46
c23 -4 50 -13 60 -19 17 -12 16 -14 -14 -20 -41 -9 -59 -27 -59 -58 0 -13 -9
-32 -20 -42 -15 -14 -17 -22 -9 -37 12 -23 8 -40 -12 -44 -7 -2 -25 -6 -39 -9
l-25 -6 25 15 c24 15 24 15 3 16 -28 0 -34 18 -16 53 8 16 12 35 9 42 -3 8 3
17 15 20 21 7 22 9 13 54 -4 19 -13 31 -23 32 -12 0 -11 2 4 9 11 5 26 7 33 4
8 -2 32 -7 55 -10z m1452 -43 c9 -15 -14 -24 -90 -37 -38 -7 -88 -18 -110 -24
-22 -7 -52 -13 -67 -13 -16 -1 -28 -5 -28 -9 0 -4 -10 -8 -22 -8 -22 0 -21 1
6 19 16 11 45 22 65 26 20 4 57 13 82 21 25 8 68 19 95 23 27 5 52 9 56 10 4
0 9 -3 13 -8z m-401 -37 c27 -10 18 -29 -21 -43 -21 -8 -53 -25 -70 -39 -18
-13 -33 -20 -33 -16 0 5 -6 2 -13 -6 -7 -8 -24 -21 -39 -29 -16 -8 -28 -18
-28 -23 0 -4 -6 -8 -14 -8 -8 0 -16 -3 -18 -8 -5 -12 -85 -72 -96 -72 -5 0
-15 7 -22 15 -10 12 -9 16 6 22 21 8 48 29 79 61 12 12 26 22 31 22 5 0 16 9
24 20 8 11 20 20 26 20 7 0 26 11 42 25 27 22 106 64 124 65 3 0 13 -3 22 -6z
m-1645 -49 c16 -8 31 -12 33 -9 3 2 22 -3 44 -12 37 -16 39 -15 52 5 29 43 35
23 27 -93 -4 -68 -3 -121 3 -132 5 -11 13 -52 16 -91 7 -73 7 -73 -17 -73 -20
0 -24 4 -20 20 3 10 -4 32 -16 49 -12 16 -21 35 -21 43 0 7 -7 22 -15 32 -8
11 -15 38 -15 60 0 29 -3 37 -10 26 -11 -17 -19 -11 -25 20 -4 23 -16 40 -68
96 -24 27 -27 35 -18 53 14 25 14 25 50 6z m1054 -27 c47 -32 87 -71 87 -84 0
-6 -18 -25 -40 -43 -22 -17 -40 -38 -40 -44 0 -7 -21 -42 -47 -76 -27 -35 -55
-78 -65 -95 -9 -17 -30 -44 -47 -61 -27 -25 -33 -27 -45 -15 -12 12 -13 47 -7
193 7 160 10 179 28 196 11 11 29 21 39 24 15 4 14 5 -6 7 -21 2 -20 4 10 10
65 14 101 11 133 -12z m603 -13 c-15 -14 -31 -25 -36 -25 -5 0 -34 -16 -64
-35 -30 -19 -57 -35 -60 -35 -3 0 -31 -24 -62 -52 -66 -63 -84 -74 -84 -55 0
15 64 78 99 96 12 7 30 19 39 27 34 30 122 84 136 84 8 0 18 5 21 10 3 6 13
10 22 10 12 0 9 -7 -11 -25z m414 -42 c17 -5 -38 -27 -98 -38 -20 -4 -76 -20
-125 -36 -48 -16 -89 -29 -92 -29 -13 0 -3 39 13 53 17 15 139 51 202 59 27 3
77 -1 100 -9z m3519 -26 c6 -8 8 -17 4 -20 -12 -12 -53 -7 -53 6 0 28 30 37
49 14z m-5102 -80 c10 -9 20 -31 21 -49 3 -35 16 -49 47 -47 36 2 40 -1 42
-36 3 -33 1 -35 -28 -35 -18 0 -61 5 -96 12 -48 9 -62 15 -58 26 3 7 5 20 5
28 0 8 10 14 25 14 21 0 25 5 25 31 0 27 -3 31 -21 26 -12 -3 -22 0 -26 9 -15
39 29 53 64 21z m1242 9 c9 -10 6 -17 -13 -30 -14 -9 -29 -16 -34 -16 -11 0
-162 -101 -198 -132 -30 -27 -64 -41 -64 -28 0 6 31 39 68 76 63 59 147 114
177 114 7 0 18 7 25 15 15 19 24 19 39 1z m-449 -49 c0 -7 -23 -37 -50 -67
-27 -30 -50 -60 -50 -66 0 -6 -9 -19 -20 -29 -11 -10 -20 -22 -20 -27 0 -5
-13 -28 -29 -51 -15 -23 -31 -52 -35 -64 -7 -23 -49 -33 -60 -15 -6 10 21 72
31 72 9 0 28 42 37 81 3 15 27 44 53 65 25 22 56 49 67 62 11 12 28 22 38 22
12 0 18 7 18 21 0 11 5 17 10 14 6 -3 10 -12 10 -18z m60 -46 c0 -5 -7 -12
-16 -15 -22 -9 -24 -8 -24 9 0 8 9 15 20 15 11 0 20 -4 20 -9z m3250 -70 c0
-6 -4 -13 -10 -16 -5 -3 -10 1 -10 9 0 9 5 16 10 16 6 0 10 -4 10 -9z m-3355
-28 c-4 -30 -17 -57 -41 -83 -12 -14 -32 -44 -44 -67 -12 -24 -26 -40 -31 -37
-5 3 -9 0 -9 -7 0 -7 -3 -10 -6 -6 -12 12 107 217 126 217 4 0 6 -8 5 -17z
m3315 -10 c0 -5 -4 -14 -9 -21 -7 -11 -9 -11 -14 1 -3 8 -3 18 0 21 9 8 23 7
23 -1z m7903 -9 c55 -5 77 -11 77 -20 0 -10 -15 -14 -50 -14 -35 0 -49 -4 -47
-12 2 -15 -55 -23 -81 -13 -14 6 -13 9 8 17 25 11 25 11 -10 19 -19 4 -71 9
-115 10 -66 1 -93 -3 -153 -26 -59 -23 -70 -30 -61 -41 14 -17 14 -17 -28 -33
-34 -14 -45 -15 -40 -5 1 3 -8 11 -21 18 -37 20 -8 41 108 80 101 34 109 35
220 31 63 -3 150 -8 193 -11z m-11889 0 c22 -8 20 -37 -4 -59 -11 -10 -20 -26
-20 -37 0 -22 -46 -25 -73 -5 -24 17 -13 81 17 95 24 12 58 15 80 6z m836 -31
c-1 -10 -47 -63 -55 -63 -11 0 -4 18 16 44 20 25 39 34 39 19z m11128 -330
c-2 -126 -7 -208 -13 -210 -6 -2 -10 51 -11 145 -1 147 -4 186 -17 198 -19 19
7 74 34 74 6 0 8 -81 7 -207z m-11499 160 c0 -5 -4 -17 -9 -28 -8 -18 -9 -17
-9 8 -1 15 4 27 9 27 6 0 10 -3 9 -7z m-489 -23 c0 -11 -4 -20 -10 -20 -5 0
-10 9 -10 20 0 11 5 20 10 20 6 0 10 -9 10 -20z m57 -62 c-3 -24 -9 -58 -14
-77 -7 -30 -10 -32 -22 -18 -11 14 -10 20 3 39 9 12 16 39 16 60 0 21 5 38 11
38 7 0 9 -15 6 -42z m11900 -190 c-2 -13 -4 -5 -4 17 -1 22 1 32 4 23 2 -10 2
-28 0 -40z m-11977 -8 c24 -8 24 -8 -5 -9 -16 0 -37 4 -45 9 -12 8 -11 10 5 9
11 -1 31 -5 45 -9z m2890 -248 c0 -28 -3 -33 -10 -22 -13 20 -13 73 0 65 6 -3
10 -23 10 -43z m63 -89 c-7 -2 -21 -2 -30 0 -10 3 -4 5 12 5 17 0 24 -2 18 -5z
m1025 -20 c-10 -2 -28 -2 -40 0 -13 2 -5 4 17 4 22 1 32 -1 23 -4z m2 -39 c0
-18 -23 -17 -155 5 -44 7 -38 8 53 10 88 1 102 -1 102 -15z m-131 -40 c8 -7
-63 -2 -94 7 -20 5 -9 6 30 2 33 -3 62 -7 64 -9z m5888 -264 c0 -28 -3 -30
-38 -30 -20 0 -44 3 -53 6 -14 5 -14 8 1 30 12 18 24 24 52 24 35 0 38 -2 38
-30z m-9361 -82 c8 -12 -24 -40 -37 -33 -4 3 -5 14 -2 25 6 22 28 27 39 8z
m2489 -266 c-4 -68 -9 -121 -12 -118 -3 3 -1 87 3 188 5 108 10 156 12 118 2
-36 1 -120 -3 -188z m-2925 68 c0 -13 7 -20 18 -20 21 0 78 -55 65 -63 -12 -6
-272 8 -280 16 -3 4 0 7 7 7 7 0 22 7 32 17 10 9 31 17 48 18 63 3 70 5 70 19
0 13 13 23 33 25 4 1 7 -8 7 -19z m56 -120 c23 0 24 -3 24 -69 l0 -69 -46 -4
c-34 -2 -49 1 -61 14 -9 10 -24 20 -34 23 -15 5 -19 16 -19 55 l0 49 43 4 c23
2 48 2 55 0 8 -2 25 -3 38 -3z m332 -27 c-10 -2 -26 -2 -35 0 -10 3 -2 5 17 5
19 0 27 -2 18 -5z m8 -68 c6 -26 19 -30 50 -18 16 6 16 7 -2 14 -14 6 -11 8
16 8 l35 1 -6 -152 c-4 -84 -7 -154 -8 -155 0 -2 -12 -3 -25 -3 -31 0 -29 -34
2 -38 18 -3 22 -10 22 -43 l0 -41 -45 3 c-24 2 -47 0 -51 -4 -15 -14 -52 -6
-78 17 -23 19 -25 24 -12 29 27 11 39 58 42 162 1 55 5 133 9 173 6 62 9 72
26 72 12 0 21 -9 25 -25z m-506 -101 c0 -8 -4 -12 -10 -9 -5 3 -10 10 -10 16
0 5 5 9 10 9 6 0 10 -7 10 -16z m110 -23 c0 -27 7 -46 25 -65 20 -21 25 -38
25 -77 0 -28 7 -64 16 -80 8 -17 13 -33 10 -37 -7 -7 -264 13 -273 21 -11 11
20 72 49 95 22 19 28 32 28 63 0 32 3 39 20 39 11 0 20 5 20 10 0 6 7 10 15
10 10 0 15 10 15 30 0 25 4 30 25 30 22 0 25 -4 25 -39z m101 -305 c19 -9 26
-15 17 -16 -10 0 -18 -7 -18 -15 0 -11 -8 -13 -30 -8 -20 4 -30 2 -30 -7 0 -7
7 -10 15 -6 20 7 45 -3 45 -19 0 -7 6 -16 13 -18 8 -4 2 -15 -18 -33 -16 -15
-35 -43 -42 -63 -12 -35 -9 -71 6 -71 4 0 5 -25 3 -55 -2 -31 0 -68 6 -83 6
-15 13 -40 17 -56 l6 -29 -143 6 c-79 4 -164 9 -189 13 -42 6 -47 9 -44 30 1
14 10 33 19 42 25 28 30 75 12 110 -17 33 -22 138 -7 144 6 2 23 28 38 58 21
39 36 56 52 58 13 2 26 13 29 24 5 20 10 21 107 15 56 -4 117 -13 136 -21z
m318 -42 c62 -7 82 -26 41 -39 -16 -5 -18 -10 -10 -25 13 -24 13 -171 -1 -301
-5 -57 -11 -104 -12 -105 -1 -1 -40 1 -86 4 -76 4 -82 6 -60 18 13 7 39 13 57
14 17 0 32 3 33 8 0 4 2 22 3 40 4 39 -6 47 -64 47 l-45 0 -9 64 c-4 35 -5
110 -1 167 8 123 8 123 154 108z m-423 -466 c52 -6 94 -15 94 -20 0 -4 -33 -8
-72 -7 -84 1 -213 21 -202 32 11 10 71 9 180 -5z m-316 -33 c135 -8 277 -20
315 -25 39 -5 113 -14 165 -20 52 -5 136 -17 185 -26 136 -24 195 -34 245 -42
55 -9 65 -33 20 -52 -36 -15 -38 -29 -7 -67 12 -15 40 -55 61 -87 50 -77 159
-194 211 -226 45 -29 163 -80 183 -80 16 0 42 -24 42 -40 0 -6 7 -21 16 -34
l15 -24 -60 5 c-42 4 -61 2 -61 -6 0 -6 -4 -11 -10 -11 -5 0 -7 7 -3 16 6 15
-4 16 -107 9 -62 -4 -120 -10 -129 -13 -9 -3 16 -14 59 -24 74 -17 74 -18 20
-13 -30 3 -72 5 -93 5 -23 0 -36 4 -32 10 3 6 2 10 -4 10 -17 0 -23 -40 -10
-57 17 -19 146 -115 179 -133 14 -7 39 -25 56 -40 31 -27 30 -34 -11 -58 -19
-11 -18 -11 8 -12 16 0 26 4 22 9 -3 6 3 15 14 21 25 13 162 -5 173 -23 36
-57 -29 -87 -188 -87 -70 -1 -105 -5 -118 -15 -18 -14 -18 -15 2 -53 14 -27
17 -43 10 -55 -14 -27 -62 -21 -95 11 -48 47 -134 112 -150 112 -8 0 -13 7
-11 17 2 13 20 21 68 30 l65 12 -64 -4 c-45 -2 -94 4 -162 21 -54 13 -122 24
-151 24 -58 0 -208 -23 -225 -33 -6 -4 -31 -8 -55 -8 -23 -1 -49 -6 -55 -12
-20 -15 -16 10 8 59 11 24 29 46 40 49 12 4 19 15 19 30 0 14 9 39 20 57 11
18 20 39 20 46 0 22 -18 12 -32 -18 -7 -16 -18 -30 -25 -30 -6 0 -14 -9 -18
-19 -7 -23 -52 -34 -59 -15 -7 19 -72 44 -113 44 -38 0 -73 15 -73 31 0 6 31
9 83 8 91 -2 158 10 165 29 3 9 -32 12 -151 12 -84 0 -157 -3 -160 -7 -4 -3
-1 -13 6 -21 10 -13 8 -15 -13 -9 -14 4 -118 7 -232 7 l-208 0 0 94 0 94 83 6
c45 4 198 11 339 16 189 7 265 13 285 24 34 17 81 66 65 66 -7 0 -12 -4 -12
-8 0 -5 -19 -19 -41 -32 -38 -21 -57 -23 -223 -27 -179 -5 -181 -5 -216 19
-24 17 -34 31 -33 46 3 28 -32 46 -122 61 -38 6 -82 14 -97 17 l-28 6 0 162 0
163 88 2 c48 0 125 -4 172 -9 47 -6 146 -12 220 -14 188 -5 331 -21 369 -40
27 -15 31 -21 31 -59 0 -24 -8 -59 -18 -79 -22 -43 -47 -126 -40 -134 3 -2 22
39 42 92 40 108 46 172 18 197 -37 34 -197 51 -764 82 l-118 7 0 39 0 39 73 0
c39 0 182 -7 317 -15z m689 -10 c-11 -11 -27 -13 -67 -8 -67 8 -49 23 28 23
48 0 53 -2 39 -15z m11694 -80 c2 -14 -73 -37 -92 -29 -12 5 -5 11 24 25 42
20 65 21 68 4z m-458 -14 c3 -5 0 -13 -5 -16 -16 -10 -62 4 -55 15 8 13 52 13
60 1z m-543 -86 c18 -8 26 -14 17 -15 -9 0 -22 -6 -28 -14 -7 -8 -39 -17 -72
-21 -47 -6 -65 -4 -84 9 -29 19 -31 34 -7 53 21 17 124 10 174 -12z m298 21
c0 -2 -9 -6 -20 -9 -11 -3 -20 -1 -20 4 0 5 9 9 20 9 11 0 20 -2 20 -4z m320
-6 c0 -5 -9 -10 -20 -10 -11 0 -20 5 -20 10 0 6 9 10 20 10 11 0 20 -4 20 -10z
m-384 -20 c28 0 31 -15 8 -38 -18 -17 -116 -29 -158 -18 -22 5 -23 8 -13 31
14 28 35 35 96 29 24 -2 54 -4 67 -4z m-1 -120 c12 -20 -107 -32 -148 -15
l-32 13 30 5 c58 8 144 7 150 -3z m-9961 -476 c9 -22 8 -24 -9 -24 -8 0 -15 9
-15 20 0 24 15 27 24 4z m-89 -14 c3 -5 -1 -10 -9 -10 -9 0 -16 5 -16 10 0 6
4 10 9 10 6 0 13 -4 16 -10z m9490 -29 c8 -14 -61 -33 -95 -26 -33 7 -39 21
-12 28 32 9 101 7 107 -2z m-9365 -176 c0 -8 -4 -15 -10 -15 -5 0 -10 7 -10
15 0 8 5 15 10 15 6 0 10 -7 10 -15z m9297 -47 c21 -12 40 -23 42 -25 2 -1 5
-18 7 -38 1 -22 11 -42 24 -53 17 -13 22 -29 22 -65 1 -26 6 -47 12 -47 6 0 3
-8 -7 -17 -16 -16 -18 -16 -32 4 -8 12 -27 24 -43 28 -15 3 -49 26 -77 51 -27
25 -67 52 -87 61 -40 16 -52 48 -23 59 8 4 15 17 15 29 0 28 11 33 67 34 26 1
56 -7 80 -21z m-9207 -148 c0 -16 -4 -32 -10 -35 -6 -4 -10 10 -10 35 0 25 4
39 10 35 6 -3 10 -19 10 -35z m-981 -33 c30 -18 56 -37 57 -42 2 -6 -8 -18
-22 -29 -26 -18 -26 -18 -24 5 4 42 0 51 -17 47 -10 -2 -22 5 -28 17 -8 16
-24 21 -75 26 l-65 6 60 1 c52 2 68 -3 114 -31z m-228 -57 c39 -65 35 -70 -16
-20 -46 45 -58 74 -28 68 9 -2 29 -23 44 -48z m-72 -11 c62 -100 55 -119 -17
-46 -33 33 -39 46 -30 55 18 18 31 15 47 -9z m10104 -56 c-7 -2 -21 -2 -30 0
-10 3 -4 5 12 5 17 0 24 -2 18 -5z m-9942 -13 c11 0 17 -4 14 -10 -10 -16 -41
-12 -56 7 -12 15 -12 16 4 10 10 -4 28 -7 38 -7z m10038 -4 c11 -13 7 -13 -26
-5 -59 16 -61 17 -22 18 21 1 42 -5 48 -13z m-159 -86 c15 -16 32 -30 37 -30
5 0 34 -15 64 -33 30 -18 89 -44 130 -57 99 -31 229 -92 229 -107 0 -8 -10
-11 -27 -8 -16 2 -50 6 -76 9 -27 3 -63 12 -80 20 -33 15 -55 20 -146 37 -98
18 -75 -17 34 -51 22 -7 60 -24 85 -39 44 -26 44 -26 17 -29 -16 -2 -43 6 -63
17 -19 12 -46 21 -59 21 -13 0 -30 7 -39 15 -8 8 -23 15 -34 15 -11 0 -25 7
-32 15 -7 8 -25 15 -40 15 -57 0 -90 12 -90 32 0 11 9 22 20 25 42 11 21 32
-38 39 -51 5 -62 11 -85 39 -15 18 -28 39 -29 46 -4 16 72 37 140 38 48 1 57
-3 82 -29z m-9814 -11 c6 -11 -33 -11 -96 0 -45 8 -41 17 10 23 28 4 77 -9 86
-23z m109 0 c22 -4 57 -8 77 -9 20 0 39 -4 42 -9 8 -13 -4 -41 -17 -41 -19 0
-151 43 -164 53 -19 14 -16 30 5 22 9 -4 35 -11 57 -16z m-821 -9 c-12 -12
-207 -30 -321 -30 -66 0 -83 3 -83 15 0 16 44 20 275 23 90 1 136 -1 129 -8z
m1509 3 c-13 -2 -33 -2 -45 0 -13 2 -3 4 22 4 25 0 35 -2 23 -4z m-1129 -43
c7 0 45 9 82 21 47 14 69 18 72 10 2 -6 7 -9 11 -7 4 3 7 -4 7 -16 -1 -11 7
-25 17 -32 15 -9 21 -7 31 7 18 23 53 22 66 -3 6 -11 16 -20 23 -20 9 0 11
-20 9 -76 -3 -46 0 -80 7 -87 13 -13 81 7 108 32 46 41 58 46 33 15 -77 -97
-245 -134 -356 -79 -57 28 -82 53 -113 108 -24 43 -27 69 -7 61 7 -3 20 1 27
9 8 7 23 16 34 20 58 17 100 36 103 46 4 11 -21 6 -43 -9 -5 -3 -30 -12 -55
-19 -25 -7 -55 -17 -67 -22 -26 -10 -38 14 -27 57 7 27 7 27 15 6 5 -12 15
-22 23 -22z m483 -16 c37 -4 62 -9 55 -12 -6 -2 -10 -8 -6 -13 10 -16 -6 -51
-19 -41 -18 14 -107 42 -133 42 -13 0 -26 5 -29 10 -11 19 7 32 36 26 16 -3
59 -9 96 -12z m11503 -61 l-4 -58 -7 55 c-3 30 -6 45 -7 33 -2 -21 -7 -23 -58
-23 -34 0 -53 -4 -49 -10 3 -5 28 -10 56 -10 37 0 49 -4 49 -15 0 -12 -14 -15
-62 -17 l-63 -1 65 -7 c54 -5 39 -7 -82 -11 l-147 -4 -4 30 -3 30 -8 -32 -8
-33 -397 3 c-329 2 -401 5 -425 17 -16 8 -29 20 -30 25 -1 6 79 13 209 17 311
10 396 15 545 29 146 14 276 17 328 6 18 -3 32 -2 32 3 0 6 -12 11 -27 11 -22
2 -19 3 12 9 92 16 91 17 85 -47z m-10932 16 c-12 -7 -24 -7 -35 0 -15 9 -12
10 17 10 29 0 32 -1 18 -10z m1302 -75 c0 -14 4 -23 10 -19 6 3 10 -3 10 -14
0 -28 -26 -27 -34 2 -9 33 -7 57 4 57 6 0 10 -12 10 -26z m-229 -17 c-1 -12
-15 -9 -19 4 -3 6 1 10 8 8 6 -3 11 -8 11 -12z m7994 -22 c17 -3 40 -8 53 -11
13 -2 20 -9 17 -14 -3 -6 -1 -10 4 -10 6 0 10 -5 9 -12 -2 -8 19 -15 57 -21
119 -16 118 -16 153 -63 19 -26 52 -54 77 -66 50 -24 57 -36 49 -77 -5 -25
-13 -30 -62 -42 -31 -7 -63 -21 -71 -31 -9 -10 -21 -18 -27 -18 -6 0 -17 -7
-24 -15 -9 -11 -35 -15 -107 -15 -83 0 -103 4 -171 32 -75 31 -151 83 -152
103 0 6 -9 16 -20 23 -12 7 -18 17 -15 23 4 5 2 15 -3 22 -16 18 -42 99 -42
128 0 44 23 63 87 70 63 7 140 5 188 -6z m-7733 -72 c26 -23 22 -35 -9 -31
-20 2 -29 9 -31 26 -4 26 14 29 40 5z m58 -137 c0 -27 18 -46 42 -46 10 0 18
-7 18 -15 0 -12 -15 -15 -71 -15 -59 0 -70 3 -65 15 7 18 -22 48 -40 41 -7 -3
-16 -1 -19 4 -4 6 -14 10 -25 10 -26 0 -33 28 -10 40 10 5 38 10 62 10 24 0
50 5 58 10 19 12 50 -22 50 -54z m-506 39 c6 -18 -2 -45 -15 -45 -12 0 -27 33
-22 48 6 17 30 15 37 -3z m8994 -19 c15 -8 43 -17 63 -21 41 -6 89 -39 89 -60
0 -8 12 -21 28 -30 15 -8 42 -28 61 -44 32 -28 32 -30 13 -40 -12 -7 -106 -11
-242 -12 -235 -2 -257 2 -232 41 6 11 12 28 12 37 0 10 11 40 24 68 13 27 27
59 30 69 6 17 13 18 67 12 33 -3 73 -12 87 -20z m-8734 -64 l-7 -42 -53 0
c-44 0 -54 3 -54 17 0 14 -2 14 -20 -2 -19 -18 -20 -17 -20 3 0 20 3 21 60 15
l60 -6 0 35 c0 42 9 53 27 35 10 -9 12 -26 7 -55z m9325 12 c86 -9 76 -24 -16
-24 -86 0 -126 7 -117 21 6 11 48 11 133 3z m-9679 -15 c0 -5 6 -7 13 -3 7 5
7 1 -3 -12 -8 -10 -15 -20 -16 -22 -1 -1 -9 9 -18 23 -16 24 -16 25 4 25 11 0
20 -5 20 -11z m-70 -89 c-8 -5 -24 -9 -35 -9 l-20 0 20 9 c11 5 27 9 35 9 13
1 13 0 0 -9z m190 -71 c0 -6 -7 -8 -16 -5 -8 3 -28 -1 -44 -9 -34 -17 -377
-34 -350 -17 8 5 81 13 161 17 80 4 152 11 160 16 20 13 89 11 89 -2z m-470
-14 c0 -8 -7 -15 -15 -15 -26 0 -18 20 13 29 1 1 2 -6 2 -14z m470 -67 c0 -11
-67 -27 -91 -21 -12 4 -25 0 -30 -8 -10 -17 -125 -17 -142 0 -15 15 -54 14
-60 -1 -3 -7 -6 -3 -6 9 -1 16 6 23 27 25 51 7 302 4 302 -4z m-480 -28 c0 -5
-24 -10 -52 -10 -38 0 -49 3 -38 10 20 13 90 13 90 0z m90 0 c11 -7 7 -10 -17
-10 -18 0 -33 5 -33 10 0 13 30 13 50 0z m-427 -17 c-13 -2 -33 -2 -45 0 -13
2 -3 4 22 4 25 0 35 -2 23 -4z m485 -10 c-10 -2 -26 -2 -35 0 -10 3 -2 5 17 5
19 0 27 -2 18 -5z m-133 -53 c-7 -11 37 -14 48 -4 9 10 215 4 240 -6 14 -5
-47 -8 -163 -8 -102 0 -175 3 -162 5 12 2 22 9 22 14 0 5 5 9 11 9 5 0 7 -4 4
-10z m9418 -7 c-7 -2 -21 -2 -30 0 -10 3 -4 5 12 5 17 0 24 -2 18 -5z m180 0
c-18 -2 -48 -2 -65 0 -18 2 -4 4 32 4 36 0 50 -2 33 -4z m-90 -20 c-23 -2 -64
-2 -90 0 -26 2 -7 3 42 3 50 0 71 -1 48 -3z m225 0 c-10 -2 -28 -2 -40 0 -13
2 -5 4 17 4 22 1 32 -1 23 -4z"/>
<path d="M2550 6220 c0 -5 12 -10 28 -10 21 0 24 2 12 10 -20 13 -40 13 -40 0z"/>
<path d="M3450 6210 c0 -16 5 -30 10 -30 6 0 10 14 10 30 0 17 -4 30 -10 30
-5 0 -10 -13 -10 -30z"/>
<path d="M5695 6229 c-9 -14 -7 -15 35 -24 l35 -7 -27 21 c-30 24 -34 25 -43
10z"/>
<path d="M7149 5819 c-49 -42 -35 -54 14 -13 33 28 35 28 192 8 17 -2 65 -6
107 -9 43 -2 87 -10 97 -17 15 -9 25 -9 43 0 13 6 32 11 42 9 10 -1 20 3 22 8
2 6 -13 11 -33 12 -21 1 -60 4 -88 7 -27 3 -102 11 -165 16 -63 6 -131 12
-151 14 -30 3 -44 -3 -80 -35z"/>
<path d="M6690 5792 c0 -8 3 -12 7 -9 3 4 12 2 20 -4 9 -9 13 -8 13 0 0 6 0
14 0 19 0 4 -9 8 -20 8 -12 1 -20 -5 -20 -14z"/>
<path d="M6778 5803 c-44 -7 -35 -30 10 -27 20 1 39 3 42 4 3 1 16 2 30 1 19
-1 15 3 -15 14 -22 8 -40 14 -40 13 0 0 -12 -3 -27 -5z"/>
<path d="M7317 5762 c17 -15 44 -20 124 -25 100 -6 136 1 114 22 -6 5 -66 12
-135 16 -123 6 -125 6 -103 -13z"/>
<path d="M7117 5731 c-26 -29 -27 -30 -9 -40 22 -12 44 7 56 47 10 32 -13 28
-47 -7z"/>
<path d="M6682 5728 c3 -20 9 -23 63 -25 37 -1 62 2 67 10 14 23 -14 37 -74
37 -56 0 -59 -1 -56 -22z"/>
<path d="M3060 5670 c26 -20 107 -46 116 -38 5 6 -111 58 -129 58 -7 0 -1 -9
13 -20z"/>
<path d="M9900 5569 c-32 -28 -24 -32 10 -4 26 21 56 23 146 9 49 -7 114 -13
145 -14 30 0 60 -5 66 -11 12 -12 28 4 19 19 -5 8 -99 18 -276 28 -72 4 -76 3
-110 -27z"/>
<path d="M9298 5560 c20 -9 247 -31 296 -29 20 0 20 1 -2 9 -25 11 -214 30
-277 29 -34 0 -37 -2 -17 -9z"/>
<path d="M7123 5530 c-38 -34 -39 -38 -16 -55 15 -11 15 -13 -5 -24 -18 -10
-20 -15 -12 -31 8 -16 7 -20 -4 -20 -9 0 -18 11 -22 25 -3 14 -12 25 -20 25
-19 0 -17 -13 6 -38 11 -12 31 -38 45 -58 19 -28 25 -32 25 -17 0 10 5 24 12
31 15 15 74 16 83 2 11 -18 45 -11 68 13 35 38 61 47 135 47 61 0 72 -3 100
-28 18 -16 32 -33 32 -37 0 -5 8 -17 18 -28 17 -20 16 -20 -28 -11 -25 5 -106
9 -180 9 -181 -1 -250 -22 -250 -78 1 -19 2 -20 10 -6 5 9 34 26 64 38 47 20
66 22 167 17 63 -2 126 -5 140 -5 32 -1 76 -40 85 -75 3 -15 11 -29 18 -33 6
-3 8 -3 4 2 -4 4 -1 14 7 22 11 11 13 31 9 86 -4 64 -2 75 17 97 21 25 22 25
170 23 82 -1 157 -7 167 -11 9 -5 104 -12 211 -16 126 -5 208 -12 235 -21 23
-8 60 -15 84 -15 33 0 42 -4 42 -17 1 -18 39 53 40 73 0 7 -35 14 -92 18 -202
14 -244 18 -258 23 -8 3 -46 7 -85 9 -89 5 -243 21 -365 39 -145 21 -260 28
-260 16 0 -6 8 -11 19 -11 10 0 24 -6 30 -14 17 -21 -7 -26 -46 -9 -18 7 -54
13 -80 14 -56 0 -143 16 -103 18 14 1 31 5 39 10 20 13 -6 18 -124 25 l-100 6
-32 -30z"/>
<path d="M8855 5551 c-12 -21 31 -34 125 -39 86 -4 100 -3 100 11 0 17 -23 21
-152 31 -37 3 -70 1 -73 -3z"/>
<path d="M9953 5533 c9 -2 25 -2 35 0 9 3 1 5 -18 5 -19 0 -27 -2 -17 -5z"/>
<path d="M10036 5532 c-12 -21 53 -40 144 -43 79 -3 95 -2 95 11 0 15 -20 19
-172 34 -34 3 -64 2 -67 -2z"/>
<path d="M9858 5492 c-63 -29 -72 -42 -33 -42 15 0 41 14 63 35 20 19 35 35
32 35 -3 0 -31 -12 -62 -28z"/>
<path d="M9333 5494 c13 -14 39 -20 114 -26 66 -4 102 -3 111 4 24 21 -4 29
-124 35 -116 5 -118 5 -101 -13z"/>
<path d="M5550 5384 l-65 -13 55 4 c30 3 74 5 98 5 23 0 42 5 42 10 0 13 -49
11 -130 -6z"/>
<path d="M9830 5344 c-50 -30 -90 -48 -87 -40 7 18 -5 22 -73 24 -30 1 -221
17 -423 34 -284 25 -370 30 -376 20 -4 -6 -5 -28 -3 -47 4 -30 6 -33 16 -20
11 15 27 15 151 6 77 -6 183 -16 235 -21 52 -6 149 -15 215 -20 145 -12 209
-23 229 -39 12 -10 17 -8 26 9 7 12 50 40 98 63 87 41 88 41 192 38 58 -1 134
-6 170 -11 36 -5 114 -12 174 -16 90 -5 108 -4 104 7 -5 16 -29 19 -283 43
-301 28 -260 31 -365 -30z"/>
<path d="M11345 5375 c102 -19 305 -29 282 -15 -22 14 -175 30 -277 29 l-75
-1 70 -13z"/>
<path d="M10890 5371 c-12 -9 -11 -11 7 -11 12 0 23 -5 25 -11 5 -16 207 -34
222 -19 17 17 -8 27 -93 34 -42 4 -92 9 -111 12 -19 2 -42 0 -50 -5z"/>
<path d="M11695 5350 c150 -30 290 -45 340 -36 54 10 37 18 -62 27 -131 12
-326 19 -278 9z"/>
<path d="M5333 5333 c-29 -9 -53 -19 -53 -24 0 -8 32 0 83 20 15 6 27 13 27
16 0 3 -1 5 -2 4 -2 0 -27 -8 -55 -16z"/>
<path d="M11379 5330 c-5 -4 -2 -13 8 -22 23 -20 187 -35 198 -18 4 6 3 15 -1
20 -11 10 -191 28 -205 20z"/>
<path d="M8594 5309 c-6 -8 -14 -22 -17 -31 -4 -10 -17 -18 -29 -18 -39 0
-211 -39 -222 -50 -5 -5 -19 -10 -31 -10 -12 0 -25 -4 -30 -9 -6 -4 -34 -17
-64 -27 -29 -10 -56 -25 -58 -31 -3 -7 -9 -13 -14 -13 -14 0 -88 -51 -129 -87
-36 -33 -91 -45 -105 -23 -4 7 -24 -3 -50 -25 -25 -20 -46 -31 -50 -25 -3 5
-11 10 -17 10 -6 0 -3 -9 7 -20 18 -20 18 -21 -17 -58 -33 -35 -58 -78 -106
-182 -59 -129 -62 -138 -62 -225 0 -50 4 -85 10 -85 6 0 10 10 10 21 0 12 4
38 9 58 5 20 14 56 21 81 17 69 82 228 102 250 10 10 18 23 18 29 0 5 18 24
40 41 36 28 40 30 40 12 0 -34 28 -35 45 -2 9 17 21 30 28 30 6 0 33 19 59 43
25 23 60 54 77 68 22 19 29 32 25 45 -4 14 -3 16 4 5 8 -11 16 -11 48 -1 22 7
42 17 45 22 7 11 107 55 159 69 69 20 126 29 183 31 56 2 57 2 57 32 0 16 7
37 16 47 9 10 14 23 12 30 -3 8 -7 7 -14 -2z"/>
<path d="M8670 5310 c0 -5 -6 -10 -14 -10 -17 0 -46 -43 -46 -67 0 -10 12 -26
26 -37 21 -15 30 -16 47 -7 46 23 92 -16 53 -45 -15 -11 -15 -12 0 -18 8 -3
26 -3 39 0 29 7 65 -3 65 -19 0 -7 14 -12 33 -13 17 0 44 -4 60 -8 48 -14 29
9 -24 27 -42 15 -50 22 -47 40 3 19 8 21 38 19 19 -2 40 -8 45 -12 6 -5 36 -8
68 -7 52 1 55 2 35 14 -13 7 -45 20 -73 28 -33 11 -62 30 -86 57 -29 32 -40
38 -55 31 -11 -5 -47 -7 -81 -5 -54 3 -63 7 -63 23 0 10 -4 19 -10 19 -5 0
-10 -4 -10 -10z m155 -140 c4 -6 11 -7 17 -4 6 4 8 2 5 -3 -9 -14 -56 -23 -63
-12 -7 13 5 29 21 29 8 0 17 -5 20 -10z"/>
<path d="M9870 5292 c-30 -15 -57 -28 -59 -29 -2 -1 1 -9 8 -17 8 -10 9 -21 1
-41 -12 -32 -39 -30 -56 3 -7 14 -15 19 -18 13 -7 -11 50 -111 64 -111 4 0 13
14 20 30 14 35 38 38 93 15 20 -8 54 -15 76 -15 36 0 40 3 43 28 3 25 8 28 59
35 45 7 63 5 95 -10 26 -12 39 -25 39 -38 0 -29 37 -32 50 -3 14 32 62 40 190
34 60 -2 131 -5 156 -5 25 0 58 -5 73 -11 15 -5 85 -15 154 -21 70 -6 134 -13
142 -16 8 -3 -29 -19 -83 -37 -104 -35 -151 -61 -79 -45 21 4 50 13 63 18 13
4 58 12 99 15 104 10 108 12 120 57 6 22 13 46 16 53 5 13 -8 15 -231 36 -49
5 -108 11 -130 13 -22 2 -98 9 -170 16 -71 7 -154 16 -184 21 -30 6 -84 10
-120 10 -65 -1 -66 -1 -38 -16 40 -22 27 -28 -33 -15 -28 6 -70 11 -93 12
l-42 1 33 10 c17 6 32 14 32 18 0 7 -152 21 -209 19 -14 0 -51 -12 -81 -27z"/>
<path d="M12400 5310 c0 -5 -9 -10 -19 -10 -21 0 -131 -39 -145 -51 -5 -5 -2
-11 8 -15 23 -9 91 14 112 37 9 10 29 21 45 24 30 7 40 25 14 25 -8 0 -15 -4
-15 -10z"/>
<path d="M12496 5312 c-13 -21 58 -49 142 -56 68 -5 82 -4 82 8 0 8 6 16 13
19 8 3 9 8 2 15 -14 14 -231 27 -239 14z"/>
<path d="M11800 5293 c0 -28 38 -41 125 -44 77 -4 90 -2 93 12 2 13 -7 18 -45
23 -132 15 -173 17 -173 9z"/>
<path d="M5211 5276 c-10 -12 -8 -13 9 -9 25 7 37 23 17 23 -8 0 -20 -6 -26
-14z"/>
<path d="M8513 5143 c9 -2 25 -2 35 0 9 3 1 5 -18 5 -19 0 -27 -2 -17 -5z"/>
<path d="M4960 5105 c-19 -23 -8 -25 14 -4 11 11 15 19 9 19 -6 0 -16 -7 -23
-15z"/>
<path d="M10000 5114 c-132 -23 -190 -45 -190 -73 0 -12 3 -12 18 2 34 30 132
51 247 51 96 1 116 -2 158 -22 l47 -24 0 -56 c0 -41 3 -53 10 -42 13 20 9 138
-5 150 -12 10 -243 22 -285 14z"/>
<path d="M11150 5090 c-6 -11 -7 -20 -2 -20 10 0 32 21 32 32 0 16 -19 8 -30
-12z"/>
<path d="M8284 5084 c-18 -14 -18 -14 6 -3 31 14 36 19 24 19 -6 0 -19 -7 -30
-16z"/>
<path d="M8466 5080 c-49 -10 -94 -24 -99 -29 -6 -6 -19 -11 -28 -11 -46 0
-212 -96 -292 -170 -21 -19 -43 -34 -48 -32 -5 1 -13 -6 -16 -15 -4 -10 -15
-24 -25 -31 -20 -15 -94 -158 -144 -281 -34 -84 -63 -219 -65 -296 0 -36 -2
-38 -11 -18 -9 19 -17 22 -59 19 l-49 -3 0 34 c0 18 -5 33 -10 33 -7 0 -10
-33 -8 -92 l3 -93 70 -3 c66 -3 82 8 30 21 -11 3 15 5 57 6 l77 1 -1 -30 c-1
-17 -5 -33 -10 -36 -5 -3 -56 0 -113 6 -57 6 -109 9 -116 5 -19 -12 11 -25 66
-26 l50 -2 -55 -6 c-46 -5 -55 -9 -55 -26 0 -17 9 -21 52 -26 72 -9 83 -15 83
-42 0 -13 5 -28 12 -35 17 -17 9 -20 -52 -12 -52 7 -53 7 -15 10 36 2 37 3 15
10 -14 4 -41 8 -61 9 -33 1 -36 -1 -37 -29 l-1 -30 65 0 c43 0 66 -4 69 -12 2
-7 9 -380 15 -828 6 -448 13 -825 16 -838 6 -21 11 -22 114 -22 83 0 110 -3
120 -15 8 -10 32 -15 74 -16 33 0 79 -4 101 -8 24 -5 -50 -7 -183 -7 l-223 1
3 -42 3 -42 275 -5 c151 -3 460 -8 685 -11 520 -7 655 -13 655 -30 0 -9 -11
-10 -42 -4 -83 15 -166 14 -185 -3 -28 -25 -56 -25 -87 0 -35 27 -48 28 -71 2
-18 -20 -19 -20 -39 -1 -19 17 -32 19 -116 15 -115 -5 -134 -10 -124 -32 3
-10 7 -26 8 -37 1 -11 12 -24 24 -30 29 -13 28 -20 -8 -35 -16 -7 -30 -16 -30
-19 0 -4 -20 -8 -45 -10 -42 -2 -45 0 -45 24 0 19 -5 25 -21 25 -22 0 -23 -18
-5 -62 5 -11 2 -18 -11 -22 -19 -6 -377 -11 -403 -6 -11 3 -14 14 -11 47 2 28
-1 43 -9 43 -7 0 -10 19 -8 57 l3 57 -49 9 c-27 4 -74 6 -105 4 l-56 -3 68 -2
68 -2 -3 -40 c-2 -22 -7 -40 -12 -39 -4 0 -19 -16 -32 -35 -14 -20 -29 -36
-35 -36 -6 0 -7 -4 -4 -10 3 -5 1 -10 -4 -10 -6 0 -11 -6 -11 -14 0 -7 -6 -18
-13 -24 -15 -13 -121 -17 -159 -7 -27 7 -28 5 -28 -26 l0 -34 18 22 c15 20 19
20 36 7 15 -10 55 -14 160 -15 78 -1 152 -5 166 -9 24 -8 24 -8 3 -9 -16 -1
-23 -7 -23 -20 0 -16 9 -21 43 -24 23 -2 -5 -4 -63 -4 -117 1 -220 -11 -220
-25 0 -5 -19 -8 -42 -6 -37 3 -45 8 -59 35 l-16 33 -7 -38 c-9 -57 -7 -250 3
-256 5 -3 23 0 41 8 23 9 44 11 69 5 20 -5 84 -9 144 -9 59 0 107 -4 107 -9 0
-6 15 -11 33 -13 17 -2 -53 -7 -158 -11 -104 -5 -192 -10 -194 -12 -15 -16 36
-23 206 -29 144 -5 200 -11 207 -21 14 -17 102 -30 111 -15 3 5 30 10 60 10
60 0 70 -11 52 -59 l-11 -30 -185 -5 c-103 -3 -204 -7 -226 -9 -156 -19 -195
-20 -195 -6 0 11 -2 11 -10 -1 -16 -24 -12 -57 8 -62 9 -2 175 -5 367 -7 193
-1 354 -7 358 -11 12 -11 669 0 683 11 9 7 8 21 -2 56 -22 71 -19 83 17 83 31
0 31 1 24 38 -4 20 -11 39 -16 40 -16 6 -10 31 11 44 11 7 20 21 20 30 0 30
43 112 78 147 l34 34 -6 226 c-4 124 -13 494 -21 821 -8 327 -17 685 -20 795
-2 110 -1 205 3 211 4 6 52 26 107 44 80 27 123 35 218 40 64 4 120 9 122 12
3 3 -43 10 -102 15 l-108 9 -100 -37 c-113 -41 -191 -58 -163 -36 9 7 18 24
20 37 4 31 82 61 313 121 22 6 64 9 93 7 37 -3 52 -1 52 8 0 7 -8 13 -17 12
-50 0 -184 16 -189 24 -3 4 39 9 93 9 78 1 90 3 58 9 -22 5 -74 9 -115 10 -68
2 -88 -3 -223 -53 -114 -42 -150 -52 -154 -42 -2 8 -2 19 2 25 3 5 1 10 -4 10
-27 0 -7 19 32 32 l42 13 6 85 c3 47 13 123 22 170 9 47 24 148 33 225 9 77
21 143 28 147 23 15 -54 133 -149 225 -124 121 -152 140 -295 213 -169 86
-167 85 -184 71 -9 -8 -42 -10 -101 -7 -66 4 -94 2 -116 -10 -25 -12 -29 -13
-29 0 0 8 6 17 13 19 9 4 8 8 -3 16 -19 13 -17 13 -124 -9z m-558 -2907 c-15
-2 -42 -2 -60 0 -18 2 -6 4 27 4 33 0 48 -2 33 -4z m997 -53 c-11 -5 -40 -8
-65 -8 l-45 1 50 7 c72 10 83 10 60 0z m-81 -251 c-10 -16 -24 -9 -24 12 0 18
2 19 15 9 8 -7 12 -16 9 -21z m516 6 c0 -17 -11 -20 -25 -6 -6 5 -26 11 -45
14 -27 3 -23 4 18 5 40 2 52 -1 52 -13z m50 5 c-8 -5 -22 -9 -30 -9 -10 0 -8
3 5 9 27 12 43 12 25 0z m-863 -177 c-2 -34 -20 -39 -128 -35 l-79 4 0 29 0
29 104 0 105 0 -2 -27z m-77 -303 c0 -23 -90 -26 -98 -2 -2 8 11 12 47 12 28
0 51 -4 51 -10z"/>
<path d="M3740 5057 c0 -9 5 -17 10 -17 6 0 10 -6 10 -14 0 -8 9 -24 20 -37
l20 -24 -19 43 c-22 52 -41 74 -41 49z"/>
<path d="M8198 5049 c-21 -11 -38 -21 -38 -24 0 -7 73 24 85 36 14 14 -5 9
-47 -12z"/>
<path d="M4892 5040 c-7 -11 -9 -20 -4 -20 10 0 32 22 32 32 0 15 -15 8 -28
-12z"/>
<path d="M7637 5052 c-38 -2 -57 -7 -54 -15 2 -7 23 -10 56 -8 30 1 58 -3 67
-9 10 -9 14 -9 14 -1 0 6 -4 11 -9 11 -5 0 -11 6 -13 13 -2 8 -21 11 -61 9z"/>
<path d="M11065 5050 c-145 -22 -338 -115 -440 -211 -16 -16 -50 -48 -75 -71
-45 -43 -74 -91 -63 -102 12 -11 51 -6 50 7 -1 45 5 63 26 72 12 6 26 20 32
33 5 12 18 22 27 22 10 0 18 4 18 10 0 18 107 91 124 84 9 -3 16 -2 16 4 0 12
58 40 146 71 39 13 85 21 128 21 62 0 67 2 76 26 6 14 10 30 10 35 0 10 -2 10
-75 -1z"/>
<path d="M4714 4973 c-10 -18 -22 -33 -26 -33 -5 0 -8 -5 -8 -12 0 -6 -7 -19
-16 -29 -15 -16 -14 -17 5 -12 12 3 21 10 21 17 0 6 12 24 26 39 14 15 24 35
21 45 -3 13 -8 10 -23 -15z"/>
<path d="M11035 4940 c-15 -6 -6 -9 33 -9 28 -1 52 4 52 9 0 12 -57 12 -85 0z"/>
<path d="M3821 4831 c-29 -8 -38 -26 -16 -34 8 -4 15 -2 15 3 0 6 9 10 19 10
23 0 36 16 18 22 -6 3 -23 2 -36 -1z"/>
<path d="M10475 4805 c-14 -14 -25 -30 -25 -35 0 -6 -7 -10 -15 -10 -8 0 -15
-6 -15 -14 0 -8 -15 -34 -32 -58 -70 -92 -98 -178 -83 -255 l7 -37 20 54 c11
30 26 75 34 99 8 25 20 52 28 60 7 9 21 31 30 49 18 35 31 52 83 112 25 28 30
39 21 48 -17 17 -24 15 -53 -13z"/>
<path d="M4608 4754 c13 -9 26 -13 30 -9 8 8 -17 25 -38 25 -9 0 -6 -6 8 -16z"/>
<path d="M10540 4632 c0 -10 -5 -23 -12 -30 -7 -7 -9 -12 -4 -12 13 0 36 28
36 44 0 9 -4 16 -10 16 -5 0 -10 -8 -10 -18z"/>
<path d="M4400 4386 c28 -17 50 -21 35 -7 -6 5 -21 12 -35 15 l-25 7 25 -15z"/>
<path d="M6783 4145 c-10 -7 -15 -17 -10 -21 4 -4 13 -2 19 4 8 8 46 12 102
12 49 0 87 2 85 4 -2 2 -43 6 -91 9 -63 3 -92 1 -105 -8z"/>
<path d="M9560 3985 c-14 -8 -20 -14 -15 -14 6 0 21 6 35 14 14 8 21 14 15 14
-5 0 -21 -6 -35 -14z"/>
<path d="M3957 3903 c-45 -5 -63 -36 -46 -79 11 -31 18 -28 21 10 4 49 24 57
174 65 l139 8 -125 0 c-69 0 -142 -2 -163 -4z"/>
<path d="M4250 3901 c0 -6 15 -11 33 -12 44 -1 64 -5 114 -24 l43 -17 0 -180
c0 -100 3 -178 8 -174 4 4 9 76 12 159 l5 152 70 5 70 6 -70 4 c-63 5 -70 7
-73 27 -4 24 -35 37 -117 48 -27 3 -60 9 -72 12 -14 3 -23 1 -23 -6z"/>
<path d="M12085 3851 c-4 -8 21 -11 81 -11 48 0 85 2 83 4 -11 10 -157 17
-164 7z"/>
<path d="M7575 3720 c3 -5 10 -10 16 -10 5 0 9 5 9 10 0 6 -7 10 -16 10 -8 0
-12 -4 -9 -10z"/>
<path d="M7587 3683 c-12 -12 -7 -79 7 -99 14 -18 15 -18 21 9 5 17 2 33 -6
43 -10 12 -10 17 0 23 9 6 9 10 -2 19 -8 7 -17 9 -20 5z"/>
<path d="M7658 3663 c12 -2 32 -2 45 0 12 2 2 4 -23 4 -25 0 -35 -2 -22 -4z"/>
<path d="M3960 3431 c-36 -3 -58 -9 -50 -12 8 -3 69 0 135 7 97 9 106 11 50
11 -38 0 -99 -3 -135 -6z"/>
<path d="M4345 3416 c28 -7 60 -16 73 -20 16 -6 22 -3 22 8 0 12 -10 16 -39
16 -21 0 -54 2 -72 5 -19 2 -11 -1 16 -9z"/>
<path d="M3698 3393 c12 -2 32 -2 45 0 12 2 2 4 -23 4 -25 0 -35 -2 -22 -4z"/>
<path d="M4578 3353 c12 -2 32 -2 45 0 12 2 2 4 -23 4 -25 0 -35 -2 -22 -4z"/>
<path d="M3638 3190 c-4 -30 -8 -68 -8 -85 1 -25 2 -27 11 -13 5 10 9 48 7 85
l-3 68 -7 -55z"/>
<path d="M3703 1893 c37 -2 97 -2 135 0 37 2 6 3 -68 3 -74 0 -105 -1 -67 -3z"/>
<path d="M4438 1883 c23 -2 61 -2 85 0 23 2 4 4 -43 4 -47 0 -66 -2 -42 -4z"/>
<path d="M10313 1843 c20 -2 54 -2 75 0 20 2 3 4 -38 4 -41 0 -58 -2 -37 -4z"/>
<path d="M4417 1713 c-4 -3 -7 -23 -7 -44 0 -21 -5 -39 -12 -41 -8 -3 -1 -12
15 -22 58 -38 40 -42 -220 -49 -137 -4 -259 -5 -273 -3 -105 17 -120 17 -120
2 0 -8 -9 -21 -21 -29 -11 -8 -17 -17 -12 -20 15 -9 195 5 181 15 -8 5 18 7
67 4 44 -3 159 -9 255 -14 96 -5 184 -13 194 -18 16 -6 18 -4 13 11 -6 15 -5
16 8 5 17 -14 21 -35 5 -25 -5 3 -10 0 -10 -8 0 -15 -20 -25 -75 -37 -26 -6
-22 -8 31 -14 71 -9 76 -12 91 -46 l11 -25 7 29 c4 15 3 43 -3 62 -7 24 -7 46
0 71 15 53 -2 83 -46 83 -33 0 -35 2 -41 43 -8 45 -28 81 -38 70z"/>
<path d="M9728 1673 c-10 -2 -18 -9 -18 -14 0 -13 13 -11 36 6 19 14 14 17
-18 8z"/>
<path d="M7080 1519 c0 -21 3 -21 68 -15 37 4 83 10 102 13 l35 7 -40 7 c-22
4 -68 8 -102 8 -58 1 -63 -1 -63 -20z"/>
<path d="M9423 1534 c-29 -13 -9 -24 41 -24 58 0 75 -10 51 -30 -17 -14 -20
-46 -6 -54 16 -10 61 13 61 31 0 13 -3 14 -12 5 -32 -32 -39 3 -7 36 19 21 25
22 147 16 86 -4 124 -3 117 4 -11 10 -371 25 -392 16z"/>
<path d="M7458 1513 c12 -2 32 -2 45 0 12 2 2 4 -23 4 -25 0 -35 -2 -22 -4z"/>
<path d="M3747 1463 c-11 -10 -8 -61 3 -68 6 -3 10 0 10 8 0 17 20 27 58 28
25 1 25 2 -5 9 -18 4 -39 12 -46 19 -8 6 -17 8 -20 4z"/>
<path d="M9435 1455 c21 -17 45 -17 48 0 1 6 -14 11 -33 13 -33 2 -34 2 -15
-13z"/>
<path d="M9600 1450 c0 -13 130 -13 150 0 10 7 -11 10 -67 10 -49 0 -83 -4
-83 -10z"/>
<path d="M7030 1431 c0 -18 20 -21 80 -12 34 5 44 9 25 10 -16 1 -47 4 -67 7
-26 5 -38 3 -38 -5z"/>
<path d="M7040 1390 c0 -5 9 -10 20 -10 11 0 20 5 20 10 0 6 -9 10 -20 10 -11
0 -20 -4 -20 -10z"/>
<path d="M7810 1371 c0 -6 5 -13 10 -16 6 -3 10 1 10 9 0 9 -4 16 -10 16 -5 0
-10 -4 -10 -9z"/>
<path d="M10408 1350 c-42 -25 -408 -42 -408 -19 0 19 -218 6 -263 -16 -35
-16 -56 -49 -42 -63 4 -4 163 -7 354 -7 328 0 348 1 366 19 58 57 52 120 -7
86z"/>
<path d="M3720 1340 c20 -13 63 -13 55 0 -3 6 -21 10 -38 10 -24 0 -28 -3 -17
-10z"/>
<path d="M8153 1322 c-8 -5 -8 -12 3 -26 14 -20 14 -20 28 -1 21 29 1 47 -31
27z"/>
<path d="M9280 1239 c0 -20 33 -74 58 -94 36 -28 135 -44 283 -44 134 -1 178
9 213 47 9 11 16 31 14 44 -3 20 -9 23 -53 25 -27 1 -106 7 -175 13 -201 16
-340 20 -340 9z"/>
<path d="M4530 895 c0 -14 -7 -28 -15 -31 -25 -10 -17 -20 27 -33 22 -7 57
-23 77 -36 20 -12 51 -26 69 -30 18 -4 52 -18 75 -31 23 -13 51 -24 62 -24 11
1 -4 12 -35 27 -30 14 -66 35 -79 45 -13 10 -31 18 -40 18 -9 0 -29 11 -46 25
l-30 24 41 1 c32 0 45 5 56 22 14 22 14 23 -21 35 -20 7 -60 13 -88 13 -50 0
-53 -1 -53 -25z"/>
<path d="M4893 888 c24 -7 50 -7 75 0 34 9 30 10 -38 10 -68 0 -72 -1 -37 -10z"/>
<path d="M5038 893 c12 -2 32 -2 45 0 12 2 2 4 -23 4 -25 0 -35 -2 -22 -4z"/>
<path d="M4265 859 c-52 -5 -33 -6 77 -5 82 0 148 4 148 9 0 8 -124 7 -225 -4z"/>
<path d="M4420 710 c0 -5 23 -10 50 -10 28 0 50 5 50 10 0 6 -22 10 -50 10
-27 0 -50 -4 -50 -10z"/>
<path d="M4084 644 c3 -9 6 -18 6 -20 0 -10 37 -3 56 10 11 8 38 16 60 19 21
2 1 4 -45 5 -72 2 -82 0 -77 -14z"/>
<path d="M3830 604 c0 -5 9 -20 19 -33 16 -21 24 -23 61 -18 24 3 46 10 50 16
3 6 33 15 66 20 l59 9 -60 1 c-33 1 -90 4 -127 8 -38 3 -68 2 -68 -3z"/>
<path d="M3632 568 c-14 -18 -17 -39 -9 -64 10 -28 57 -21 57 7 0 16 8 19 44
19 25 0 48 5 51 10 3 6 15 10 27 10 17 0 18 2 8 15 -16 19 -162 21 -178 3z"/>
<path d="M3930 536 c0 -20 25 -37 44 -30 12 5 13 10 5 25 -11 22 -49 26 -49 5z"/>
<path d="M4412 501 c-11 -7 -10 -10 3 -15 25 -9 123 -7 129 3 12 19 -105 30
-132 12z"/>
<path d="M3804 493 c-28 -3 -49 -12 -64 -29 l-23 -24 21 0 c15 0 22 -6 22 -20
0 -19 6 -20 85 -18 60 2 85 7 85 16 0 8 -15 12 -44 12 -24 0 -51 3 -60 6 -17
7 -10 33 13 51 9 7 14 12 11 11 -3 -1 -24 -3 -46 -5z"/>
<path d="M5860 452 c-14 -2 -29 -8 -34 -13 -6 -5 29 -9 90 -8 72 1 90 3 64 9
-60 13 -94 17 -120 12z"/>
<path d="M3600 439 c0 -11 50 -12 67 -1 7 5 -4 8 -27 9 -22 1 -40 -2 -40 -8z"/>
<path d="M4400 440 c0 -5 15 -10 34 -10 19 0 38 5 41 10 4 6 -10 10 -34 10
-23 0 -41 -4 -41 -10z"/>
<path d="M4578 443 c12 -2 30 -2 40 0 9 3 -1 5 -23 4 -22 0 -30 -2 -17 -4z"/>
<path d="M6108 437 c24 -7 36 -7 44 1 9 9 1 12 -32 11 l-45 -1 33 -11z"/>
<path d="M3320 430 c0 -17 49 -31 102 -29 37 2 48 6 48 19 0 14 -12 17 -75 19
-48 1 -75 -2 -75 -9z"/>
<path d="M3480 415 c0 -8 9 -15 20 -15 11 0 20 7 20 15 0 8 -9 15 -20 15 -11
0 -20 -7 -20 -15z"/>
<path d="M3560 400 c0 -16 -7 -20 -37 -20 -21 0 -49 -3 -61 -7 -51 -13 6 -23
133 -22 72 0 123 3 115 6 -8 3 -19 12 -23 19 -5 8 -25 14 -47 14 -29 0 -40 4
-40 15 0 8 -9 15 -20 15 -13 0 -20 -7 -20 -20z"/>
<path d="M3732 354 c10 -9 112 -30 131 -26 14 3 16 7 6 18 -8 9 -33 14 -77 14
-36 0 -63 -3 -60 -6z"/>
<path d="M3726 312 c-3 -6 -1 -14 5 -17 15 -10 25 3 12 16 -7 7 -13 7 -17 1z"/>
<path d="M3172 264 c-14 -16 -16 -64 -2 -64 6 0 10 8 10 19 0 16 6 17 50 13
40 -4 51 -1 56 12 8 22 7 23 -51 28 -34 3 -55 0 -63 -8z"/>
<path d="M3672 273 c-20 -8 -3 -23 27 -23 16 0 34 7 41 15 11 13 8 15 -21 14
-19 0 -40 -3 -47 -6z"/>
<path d="M5298 273 c12 -2 32 -2 45 0 12 2 2 4 -23 4 -25 0 -35 -2 -22 -4z"/>
<path d="M8550 260 c20 -13 60 -13 60 0 0 6 -17 10 -37 10 -28 0 -34 -3 -23
-10z"/>
<path d="M4460 252 c0 -4 33 -6 73 -4 113 5 121 9 20 11 -51 0 -93 -3 -93 -7z"/>
<path d="M3775 224 c-30 -22 -13 -26 96 -20 68 3 129 1 155 -5 44 -11 94 -6
94 10 0 13 -80 20 -127 12 -27 -5 -46 -4 -52 2 -15 15 -146 15 -166 1z"/>
<path d="M4252 224 c-10 -11 -10 -14 0 -14 9 0 9 -3 -2 -11 -11 -8 -6 -9 20
-4 19 4 64 11 100 15 71 8 71 9 -10 15 -30 3 -64 7 -75 9 -11 3 -26 -2 -33
-10z"/>
<path d="M2377 6017 c-3 -9 1 -21 9 -27 11 -10 14 -10 14 1 0 8 -4 20 -9 27
-7 11 -9 11 -14 -1z"/>
<path d="M4656 5523 c-8 -105 -8 -253 2 -253 4 0 8 74 9 165 1 91 0 165 -1
165 -2 0 -6 -34 -10 -77z"/>
<path d="M230 5492 c0 -6 9 -12 20 -15 11 -3 20 -3 20 -1 0 2 -9 8 -20 14 -11
6 -20 7 -20 2z"/>
<path d="M317 5404 c-10 -11 3 -24 24 -24 10 0 19 7 19 15 0 15 -31 21 -43 9z"/>
<path d="M402 5230 c0 -19 2 -27 5 -17 2 9 2 25 0 35 -3 9 -5 1 -5 -18z"/>
<path d="M254 2323 c5 -10 -3 -13 -31 -13 -21 0 -45 -5 -53 -10 -11 -7 3 -10
46 -10 49 0 63 3 68 17 4 10 4 14 0 10 -4 -4 -14 -1 -22 6 -13 9 -14 9 -8 0z"/>
<path d="M555 1736 c-18 -14 -15 -15 48 -16 51 0 68 3 65 13 -7 18 -89 21
-113 3z"/>
<path d="M1568 1433 c12 -2 30 -2 40 0 9 3 -1 5 -23 4 -22 0 -30 -2 -17 -4z"/>
<path d="M878 872 c-38 -15 -68 -30 -68 -35 0 -24 138 -108 205 -123 28 -7 29
-7 12 10 -13 13 -17 34 -17 86 0 58 -3 71 -19 80 -26 14 -35 12 -113 -18z"/>
<path d="M1066 756 c-4 -17 -3 -33 3 -39 15 -15 26 19 14 46 -9 21 -10 20 -17
-7z"/>
<path d="M10768 726 c-10 -7 -19 -24 -21 -37 -3 -19 -11 -25 -36 -27 -28 -3
-32 -6 -27 -25 3 -12 6 -25 6 -29 0 -17 30 -7 30 10 0 13 8 17 33 17 28 0 32
4 35 28 2 15 9 27 18 27 28 0 94 25 99 37 6 18 -114 17 -137 -1z"/>
<path d="M11051 661 c-15 -10 -7 -31 13 -31 7 0 33 -17 57 -38 119 -104 144
-97 41 12 -54 57 -86 73 -111 57z"/>
<path d="M10922 608 c-12 -15 -5 -63 12 -77 16 -12 80 -23 158 -25 37 -2 75
-9 85 -16 10 -7 0 5 -22 28 -22 22 -46 41 -53 42 -6 0 -35 11 -62 24 -68 33
-104 40 -118 24z"/>
<path d="M7110 7041 c0 -17 12 -41 20 -41 10 0 1 38 -11 46 -5 3 -9 1 -9 -5z"/>
<path d="M10748 7016 c-2 -11 -1 -75 2 -141 l5 -120 89 -3 89 -3 -6 68 c-4 37
-7 96 -7 130 l0 62 -47 6 c-27 3 -65 10 -85 14 -33 8 -37 6 -40 -13z"/>
<path d="M5149 7016 c-9 -10 34 -95 49 -96 6 0 12 5 12 10 0 6 38 10 94 10 53
0 98 -4 101 -10 3 -5 37 -10 75 -10 38 0 92 -5 122 -11 29 -5 73 -14 98 -19
25 -5 100 -12 167 -14 68 -3 131 -10 140 -15 10 -6 88 -15 173 -21 310 -23
289 -17 290 -80 1 -29 3 -32 10 -14 4 12 15 24 23 27 9 3 17 16 19 29 2 12 13
28 26 34 22 11 21 11 -15 27 -35 14 -180 34 -418 57 -107 10 -580 64 -705 80
-110 15 -254 23 -261 16z m1199 -163 c-10 -2 -26 -2 -35 0 -10 3 -2 5 17 5 19
0 27 -2 18 -5z"/>
<path d="M8270 6942 c0 -44 3 -99 6 -124 l6 -45 96 -11 c53 -6 97 -10 98 -9 1
1 -1 56 -5 122 l-6 120 -40 6 c-22 4 -66 10 -97 14 l-58 6 0 -79z"/>
<path d="M10009 6989 c-9 -6 4 -9 40 -9 30 0 52 2 50 4 -11 9 -77 13 -90 5z"/>
<path d="M11045 6863 c4 -71 10 -131 14 -135 3 -3 41 -9 84 -13 l77 -7 0 78
c0 44 -3 102 -6 131 l-7 51 -62 11 c-34 6 -72 11 -84 11 l-23 0 7 -127z"/>
<path d="M8605 6971 c-9 -8 -5 -106 5 -121 7 -11 10 -1 10 35 0 28 5 57 10 65
12 18 12 -33 1 -133 -8 -76 -2 -88 42 -80 26 5 27 7 28 77 1 81 13 68 24 -27
8 -62 7 -61 48 -71 l27 -6 0 120 c0 87 -3 122 -12 125 -20 8 -178 22 -183 16z"/>
<path d="M11255 6834 c4 -71 9 -131 10 -132 7 -8 155 -7 155 0 0 5 -3 8 -7 8
-5 0 -7 50 -5 111 2 65 -1 116 -7 122 -5 5 -42 12 -82 15 l-72 5 8 -129z"/>
<path d="M8833 6869 c4 -46 7 -101 7 -121 0 -34 3 -38 33 -43 17 -3 58 -7 90
-9 l57 -3 0 118 0 117 -42 6 c-24 3 -67 9 -97 12 l-54 7 6 -84z"/>
<path d="M7335 6881 c12 -5 54 -11 95 -14 41 -3 95 -9 120 -13 40 -7 42 -9 20
-15 l-25 -7 25 -1 c14 0 35 5 48 12 21 12 16 14 -55 26 -104 16 -255 24 -228
12z"/>
<path d="M9895 6861 c-16 -10 -40 -30 -52 -45 -13 -14 -29 -26 -35 -26 -7 -1
-23 -9 -36 -20 l-23 -19 20 -39 c34 -68 44 -70 103 -25 29 22 58 42 65 46 6 4
66 0 133 -10 l120 -17 60 64 c33 35 58 65 56 68 -8 7 -293 42 -346 42 -19 0
-48 -8 -65 -19z m4 -68 c11 -23 10 -29 -5 -40 -10 -7 -28 -13 -42 -13 -13 0
-20 -4 -17 -10 3 -5 -2 -10 -11 -10 -14 0 -15 3 -6 12 7 7 12 18 12 25 0 20
30 63 45 63 6 0 17 -12 24 -27z"/>
<path d="M10670 6633 c0 -60 4 -114 9 -121 4 -8 18 -12 31 -10 22 3 23 6 21
112 -1 61 -4 113 -7 118 -3 4 -16 8 -30 8 -24 0 -24 0 -24 -107z"/>
<path d="M7675 6721 l-20 -8 20 -5 c11 -3 40 -6 64 -7 24 -1 66 -6 93 -11 28
-6 78 -9 112 -9 l61 2 -75 8 c-73 9 -175 24 -215 34 -11 2 -29 0 -40 -4z"/>
<path d="M10760 6628 c0 -68 4 -110 13 -121 8 -12 35 -18 91 -22 l79 -7 -6 63
c-4 34 -7 85 -7 114 l0 52 -69 7 c-38 3 -76 9 -85 12 -14 5 -16 -7 -16 -98z"/>
<path d="M12338 6703 c-10 -2 -18 -11 -18 -18 0 -11 6 -12 26 -5 14 6 60 11
102 11 l77 2 -55 7 c-62 9 -107 10 -132 3z"/>
<path d="M8077 6681 c-17 -6 -16 -8 6 -20 14 -7 30 -10 36 -7 5 4 15 -3 21
-14 6 -11 15 -18 19 -16 4 3 29 -1 56 -9 26 -8 69 -15 94 -15 48 0 326 -34
569 -69 40 -6 91 -11 115 -11 23 0 87 -7 142 -15 79 -12 104 -19 118 -36 17
-21 18 -21 31 -4 7 10 17 16 22 12 17 -10 7 66 -9 78 -9 7 -88 20 -174 29 -87
9 -194 21 -238 26 -82 10 -415 47 -495 56 -25 2 -85 9 -135 14 -103 11 -152
12 -178 1z"/>
<path d="M11060 6587 c0 -56 4 -107 8 -113 4 -7 34 -15 67 -19 33 -4 68 -9 78
-11 15 -5 17 5 17 105 0 128 2 125 -102 134 l-68 6 0 -102z"/>
<path d="M7652 6668 c5 -15 37 -18 41 -3 1 6 -9 12 -22 13 -16 3 -22 -1 -19
-10z"/>
<path d="M12268 6664 c-25 -13 -38 -34 -23 -34 14 0 65 32 65 40 0 13 -10 12
-42 -6z"/>
<path d="M11266 6554 c4 -60 7 -110 8 -111 1 -1 36 -5 79 -9 l77 -7 -6 109
c-4 60 -7 110 -8 111 -1 1 -36 5 -79 9 l-78 7 7 -109z"/>
<path d="M12374 6589 c-16 -3 -56 -21 -89 -39 -33 -18 -77 -42 -97 -52 -21
-10 -38 -20 -38 -22 0 -9 31 -73 43 -88 17 -22 31 -23 47 -3 7 8 20 15 29 15
10 0 27 9 40 21 30 28 77 33 187 21 l91 -11 67 65 c36 36 66 66 66 68 0 2 -39
6 -87 10 -49 4 -120 10 -159 14 -39 4 -84 5 -100 1z m-96 -96 c0 -10 2 -25 6
-34 6 -13 0 -18 -31 -22 -21 -2 -42 -1 -47 4 -16 14 3 39 34 45 16 4 30 10 30
15 0 5 2 9 4 9 3 0 4 -8 4 -17z"/>
<path d="M9965 6580 c69 -11 126 -10 65 1 -25 4 -61 7 -80 7 -29 -1 -26 -2 15
-8z"/>
<path d="M10203 6553 c9 -2 23 -2 30 0 6 3 -1 5 -18 5 -16 0 -22 -2 -12 -5z"/>
<path d="M9360 6513 c0 -14 11 -15 50 -4 23 7 22 8 -12 12 -27 4 -38 1 -38 -8z"/>
<path d="M10330 6424 c0 -7 8 -10 19 -7 10 3 28 0 40 -6 17 -9 21 -9 21 3 0 9
-14 15 -40 18 -26 2 -40 -1 -40 -8z"/>
<path d="M10453 6403 c9 -2 25 -2 35 0 9 3 1 5 -18 5 -19 0 -27 -2 -17 -5z"/>
<path d="M10640 6395 c-24 -9 -28 -14 -15 -14 11 -1 27 -14 37 -31 16 -28 48
-42 48 -21 0 10 19 8 195 -14 61 -8 164 -19 230 -25 214 -20 523 -56 561 -65
13 -3 25 -16 28 -30 4 -14 11 -23 17 -20 5 4 16 1 24 -5 18 -15 36 -4 28 17
-5 11 -3 14 6 8 10 -6 11 -3 2 13 -6 11 -11 32 -11 47 0 17 -7 28 -22 35 -13
5 -135 20 -273 35 -301 31 -401 41 -565 60 -206 23 -252 25 -290 10z"/>
<path d="M12382 6315 c7 -7 198 -32 298 -39 129 -9 67 9 -95 28 -140 16 -212
20 -203 11z"/>
<path d="M11883 6253 c9 -8 88 -22 182 -31 39 -4 75 -10 80 -14 12 -8 43 8 33
17 -3 3 -66 13 -139 20 -155 17 -165 17 -156 8z"/>
</g>
</svg>
