<?xml version="1.0" standalone="no"?>
<!DOCTYPE svg PUBLIC "-//W3C//DTD SVG 20010904//EN"
 "http://www.w3.org/TR/2001/REC-SVG-20010904/DTD/svg10.dtd">
<svg version="1.0" xmlns="http://www.w3.org/2000/svg"
 width="1280.000000pt" height="720.000000pt" viewBox="0 0 1280.000000 720.000000"
 preserveAspectRatio="xMidYMid meet">
<metadata>
Created by potrace 1.16, written by Peter Selinger 2001-2019
</metadata>
<g transform="translate(0.000000,720.000000) scale(0.100000,-0.100000)"
fill="#000000" stroke="none">
<path d="M0 3600 l0 -3600 6400 0 6400 0 -2 243 c-1 133 -3 216 -5 185 l-4
-57 -32 5 c-18 3 -117 9 -222 13 -104 5 -200 13 -212 17 l-22 9 22 49 22 48
153 -6 c83 -3 186 -9 227 -13 l75 -6 0 1112 c0 942 -2 1111 -14 1104 -7 -4
-68 -60 -135 -123 -145 -137 -168 -151 -225 -138 -47 11 -188 1 -197 -14 -4
-6 -12 -9 -19 -6 -7 2 -2 14 14 31 15 16 24 33 20 38 -6 10 -133 4 -143 -7 -2
-2 -4 -22 -3 -44 2 -42 -7 -50 -27 -26 -8 10 -9 16 -1 21 5 3 10 15 10 26 0
13 -7 19 -24 19 -13 0 -31 2 -38 5 -10 4 -19 -10 -31 -47 -10 -29 -27 -60 -40
-69 -28 -20 -252 -35 -263 -17 -4 6 1 15 10 20 12 7 15 17 11 42 -6 28 -3 34
22 45 15 8 51 15 78 16 l50 3 5 147 c6 161 0 148 86 191 29 13 57 31 64 39 7
8 18 15 24 15 6 0 33 12 59 26 45 24 56 25 155 21 102 -4 161 -13 172 -26 17
-20 59 -31 123 -31 41 0 77 -3 80 -7 4 -3 17 -8 30 -9 84 -11 141 -30 131 -45
-2 -4 0 -10 6 -14 7 -4 9 686 8 2132 -2 1176 -4 1939 -5 1696 -3 -387 -5 -442
-18 -437 -12 5 -15 -2 -15 -30 0 -20 5 -36 11 -36 6 0 9 9 6 20 -3 11 -1 20 4
20 5 0 9 -18 9 -40 l0 -40 -87 6 c-49 3 -133 12 -187 20 -143 20 -153 19 -256
-31 l-93 -46 -91 16 c-50 8 -174 22 -276 30 -102 8 -194 17 -205 20 -12 2
-120 14 -240 25 -121 11 -281 27 -355 36 -74 9 -173 19 -219 22 -83 7 -106 19
-79 41 7 6 26 21 42 34 l30 24 -80 11 c-126 18 -550 64 -755 83 l-127 11 -61
-43 -61 -43 -162 17 c-372 39 -639 67 -913 98 -363 39 -430 46 -533 55 -45 4
-85 11 -88 16 -4 6 10 27 31 48 l36 37 -48 6 c-26 3 -77 10 -113 16 -70 11
-305 38 -620 72 -107 11 -217 23 -245 26 l-50 5 -38 -51 c-20 -28 -43 -51 -50
-51 -28 0 -305 30 -318 34 -8 3 -124 14 -259 25 -321 27 -434 38 -555 56 -166
24 -324 44 -435 54 -58 6 -157 16 -220 22 -63 6 -132 12 -152 13 -21 1 -40 4
-43 7 -2 3 2 24 11 47 26 64 21 68 -107 76 -61 4 -173 14 -248 22 -75 8 -176
19 -226 24 -49 5 -178 20 -285 34 -321 41 -340 42 -340 20 0 -11 -5 -36 -11
-58 -10 -36 -12 -38 -42 -32 -32 6 -260 35 -332 41 -652 58 -735 67 -735 82 0
11 134 13 759 13 751 0 760 0 766 -20 7 -22 45 -48 45 -30 0 5 -4 10 -10 10
-5 0 -10 9 -10 20 0 19 7 20 210 20 l209 0 -1 -45 c0 -25 1 -47 3 -49 5 -5
217 -10 269 -7 l35 1 -32 16 c-18 9 -33 20 -33 24 0 12 104 20 197 16 l88 -5
-86 12 c-60 8 -85 16 -82 25 4 9 137 12 620 12 538 0 614 -2 603 -15 -13 -16
-4 -19 88 -30 29 -3 60 -9 69 -12 14 -5 15 -1 10 25 l-6 32 494 0 c433 0 495
-2 495 -15 0 -9 9 -15 23 -16 12 0 65 -6 117 -13 100 -14 120 -9 120 25 0 18
13 19 275 19 l275 0 0 -129 c0 -72 4 -132 9 -135 5 -4 37 -9 70 -13 l62 -6 -3
124 c-3 115 -4 124 -23 127 -47 7 -65 13 -65 22 0 6 55 10 140 10 118 0 140
-2 140 -15 0 -8 5 -15 10 -15 6 0 10 7 10 15 0 12 15 15 75 15 65 0 75 -2 75
-18 0 -20 77 -42 148 -42 40 0 42 1 42 30 0 42 26 39 34 -4 7 -34 7 -34 74
-41 129 -12 117 -15 113 33 l-3 42 820 0 819 0 6 -134 c4 -73 10 -141 13 -150
3 -9 17 -16 31 -16 l26 0 -8 150 -7 150 160 0 c151 0 160 -1 165 -20 4 -15 14
-20 40 -20 19 0 55 -3 81 -6 45 -7 46 -6 46 20 0 38 37 37 42 -1 3 -31 26 -40
111 -42 l47 -1 0 35 0 35 695 0 695 0 0 70 0 70 -6400 0 -6400 0 0 -3600z
m4738 3443 c-10 -2 -26 -2 -35 0 -10 3 -2 5 17 5 19 0 27 -2 18 -5z m-1595
-260 c-24 -2 -62 -2 -85 0 -24 2 -5 4 42 4 47 0 66 -2 43 -4z m275 -30 c-10
-2 -28 -2 -40 0 -13 2 -5 4 17 4 22 1 32 -1 23 -4z m2212 -219 l75 -13 -95 5
c-120 6 -180 15 -180 24 0 10 100 2 200 -16z m1855 10 c80 -7 123 -24 60 -23
-22 0 -101 9 -175 19 -131 18 -132 19 -45 14 50 -2 122 -7 160 -10z m295 -38
c8 -2 -13 -4 -48 -5 -35 0 -61 3 -58 7 4 7 70 6 106 -2z m-720 -12 c0 -12 -71
-94 -81 -94 -18 0 -9 26 22 63 27 32 59 49 59 31z m280 -25 c327 -28 545 -55
568 -69 19 -11 -34 -8 -258 16 -74 8 -175 19 -225 24 -113 12 -228 29 -280 40
-46 10 -36 10 195 -11z m-5036 -102 c-4 -45 -10 -86 -15 -91 -11 -12 -12 70
-3 137 11 78 25 41 18 -46z m638 32 c4 -30 7 -85 6 -124 -2 -100 16 -96 25 5
4 47 11 92 14 100 3 8 5 19 4 23 -2 12 19 47 28 47 5 0 12 -18 16 -41 7 -41
14 -46 19 -12 2 15 14 18 79 21 l77 3 0 -146 0 -145 -37 0 c-21 0 -56 5 -78
10 -22 5 -98 14 -170 20 -71 7 -131 13 -131 13 -4 4 17 203 21 216 5 12 9 12
23 -3 13 -13 17 -34 17 -96 0 -44 2 -80 5 -80 3 0 13 50 23 112 11 61 21 117
24 125 11 28 28 5 35 -48z m3478 51 c0 -12 -44 -12 -80 0 -20 6 -14 8 28 9 28
1 52 -3 52 -9z m-4019 -17 c3 -41 -3 -159 -8 -177 -4 -15 -7 -16 -13 -5 -10
19 0 199 11 199 5 0 9 -8 10 -17z m347 10 c-21 -5 -24 -23 -4 -23 21 0 26 -23
26 -116 0 -79 -1 -84 -22 -88 -69 -15 -65 -13 -41 -21 50 -16 8 -20 -109 -10
-111 9 -123 12 -120 28 2 11 -4 20 -16 23 -14 4 -17 12 -14 35 2 16 8 32 13
35 5 3 9 20 9 39 0 25 5 35 20 40 11 4 18 10 15 15 -3 5 4 18 17 29 19 19 33
21 132 19 61 0 103 -3 94 -5z m634 -90 c6 -24 14 -43 19 -43 4 0 11 20 15 45
8 56 26 58 47 4 16 -40 37 -46 37 -10 0 10 7 24 16 32 21 17 34 -2 34 -51 0
-43 10 -80 20 -80 4 0 13 23 20 50 7 28 16 50 21 50 17 0 27 -71 22 -150 -4
-56 -3 -80 6 -80 6 0 11 -5 11 -11 0 -8 -25 -9 -87 -4 -49 4 -144 10 -212 14
l-125 6 3 65 c4 100 20 213 31 220 6 4 33 2 61 -4 48 -10 50 -12 61 -53z
m-1359 40 c3 -10 8 -35 12 -55 5 -34 4 -38 -15 -38 -18 0 -20 6 -20 55 0 53
13 74 23 38z m186 -20 c-1 -21 -5 -49 -9 -63 -6 -19 -8 -9 -9 38 -1 35 3 62 9
62 6 0 10 -17 9 -37z m1899 7 c10 -17 9 -22 -8 -32 -11 -7 -20 -17 -20 -22 0
-11 48 -56 60 -56 14 0 40 55 40 84 0 29 15 42 27 24 4 -7 10 -34 13 -60 7
-61 30 -51 37 16 6 45 14 53 45 41 10 -4 13 -16 10 -35 -2 -16 -1 -38 3 -47 6
-17 7 -17 21 1 8 11 14 32 14 47 0 15 5 31 12 35 16 10 38 -25 38 -62 0 -18 5
-36 11 -40 7 -4 10 5 7 27 -3 34 -3 34 43 37 l46 3 6 -86 c5 -65 11 -92 26
-112 27 -33 18 -46 -28 -40 -69 9 -416 46 -461 49 l-45 3 3 64 c2 39 9 69 18
78 8 8 20 35 26 59 13 48 35 58 56 24z m4382 -40 l65 -7 -96 -1 c-79 -2 -99 1
-110 15 -13 15 -10 16 31 9 25 -5 74 -12 110 -16z m-3239 -36 c29 -12 55 -15
99 -10 32 4 96 2 142 -4 46 -6 169 -17 273 -25 214 -17 412 -38 435 -47 8 -4
44 -9 79 -11 35 -3 67 -10 70 -15 3 -5 65 -12 136 -15 151 -7 175 -13 175 -38
0 -23 34 -47 80 -55 19 -4 40 -15 47 -24 8 -12 21 -16 38 -13 15 3 25 1 25 -6
0 -6 8 -11 19 -11 10 0 43 -11 72 -24 30 -13 69 -27 86 -30 27 -6 34 -14 43
-47 6 -21 15 -39 20 -39 4 0 13 23 19 51 15 70 27 89 57 89 20 0 29 9 45 45
11 25 23 45 27 45 4 0 16 3 27 6 17 4 21 0 23 -21 1 -15 5 -31 8 -36 9 -15 34
10 34 35 0 11 5 39 12 61 11 39 11 39 18 13 5 -14 11 -54 15 -87 4 -34 11 -61
15 -61 4 0 11 27 15 60 4 32 13 64 20 70 17 14 21 6 29 -52 9 -63 22 -68 30
-13 5 28 12 45 21 45 15 0 45 -26 45 -39 0 -5 17 -11 39 -15 43 -7 51 -20 51
-97 0 -26 7 -63 15 -83 8 -20 12 -36 8 -36 -4 0 -2 -5 3 -10 7 -7 19 -6 38 4
31 16 66 11 66 -10 0 -8 5 -14 10 -14 6 0 10 16 10 35 0 19 5 35 10 35 6 0 10
-5 10 -11 0 -5 4 -8 9 -4 11 6 26 -98 17 -121 -5 -13 -16 -15 -69 -8 -111 14
-112 14 -112 -26 l0 -34 65 -3 c92 -5 112 -11 108 -31 -4 -18 -16 -19 -122
-11 -33 2 -51 -1 -54 -9 -3 -9 19 -12 77 -12 59 0 88 -5 113 -18 38 -22 127
-28 306 -23 23 1 48 -1 54 -5 6 -4 38 -6 70 -5 43 2 67 -3 91 -17 56 -33 290
-27 238 7 -16 10 -166 25 -271 27 -71 0 -158 9 -207 20 -13 2 -23 11 -23 19 0
20 15 20 285 -9 22 -2 83 -7 135 -10 109 -7 379 -35 398 -41 7 -3 68 -7 135
-10 67 -4 131 -8 142 -10 11 -2 27 0 35 5 11 7 2 10 -30 10 -25 0 -61 4 -80 9
-37 10 -91 15 -330 31 -80 6 -158 14 -175 19 -16 5 -73 12 -125 16 -189 12
-356 30 -385 41 -8 4 -15 12 -15 20 0 9 -10 14 -27 13 -24 0 -25 -2 -9 -8 12
-5 16 -10 9 -14 -6 -4 -22 -3 -35 2 -12 6 -18 10 -13 10 6 1 9 51 7 136 -4
146 5 190 28 135 14 -34 22 -35 112 -14 24 5 27 3 37 -32 6 -22 12 -55 12 -74
2 -38 5 -26 14 60 l6 55 52 -1 52 -2 11 -94 c6 -54 13 -86 18 -77 4 9 6 20 5
25 -1 5 -1 42 0 82 1 70 2 73 23 70 24 -3 35 -30 37 -90 2 -67 21 -53 21 16 0
64 12 88 33 67 6 -6 13 -46 16 -90 8 -103 21 -116 21 -20 0 86 12 115 35 85
13 -17 27 -19 139 -17 71 1 126 -2 130 -7 3 -5 9 -38 12 -73 3 -35 7 -65 9
-67 2 -2 6 28 10 66 5 50 11 71 25 80 16 10 19 6 25 -36 l7 -47 16 35 c9 19
18 37 19 39 2 3 17 -11 33 -30 l29 -34 1 26 c0 31 29 48 42 24 6 -11 25 -15
63 -15 44 0 56 -4 65 -20 10 -19 13 -19 33 -5 12 8 34 15 50 15 24 0 31 -7 50
-50 l22 -50 10 42 c13 50 27 58 43 23 13 -27 32 -34 32 -10 0 25 30 17 40 -10
8 -22 13 -24 30 -15 15 8 24 6 40 -10 11 -11 28 -20 38 -20 22 0 116 -36 147
-56 13 -9 26 -15 29 -15 20 3 25 -4 35 -44 6 -25 15 -45 20 -45 4 0 11 21 15
47 7 55 46 104 77 96 27 -7 69 23 69 50 0 12 4 28 9 36 14 22 61 -12 61 -44 0
-16 6 -25 15 -25 11 0 15 11 15 39 0 38 14 61 28 47 3 -4 11 -41 17 -84 12
-81 17 -77 30 21 7 56 28 60 33 6 1 -19 5 -45 8 -59 l6 -25 13 25 c8 14 14 42
15 63 0 20 5 37 10 37 6 0 10 -18 10 -40 0 -43 8 -48 56 -30 33 13 44 1 44
-51 0 -37 26 -126 40 -134 4 -3 24 -6 44 -7 32 -3 36 -6 36 -29 0 -29 -27 -43
-67 -33 -22 6 -22 4 -21 -69 l1 -76 66 -10 c62 -11 238 -16 326 -11 22 1 45 1
50 0 27 -6 36 0 26 19 -8 13 -21 19 -46 19 -37 0 -53 7 -43 18 4 3 64 -2 135
-10 284 -36 318 -37 295 -14 -6 6 -70 14 -144 19 -73 5 -152 14 -175 20 -23 6
-50 9 -58 5 -9 -3 -25 -1 -37 5 -18 10 -19 11 -2 23 15 11 11 14 -34 18 -75 7
-82 17 -82 109 0 82 19 114 22 37 l1 -43 6 50 c6 49 7 50 49 64 50 15 60 10
72 -41 l8 -33 1 30 c2 46 13 57 57 53 42 -3 43 -4 60 -113 5 -35 7 -37 15 -18
4 12 8 39 7 60 0 21 5 49 10 63 l10 25 8 -33 c3 -18 11 -35 15 -38 5 -3 10
-29 10 -57 l2 -52 7 67 c14 117 31 119 50 6 l15 -83 5 72 c4 40 9 76 13 79 9
9 38 -16 31 -27 -7 -12 10 -11 39 2 18 8 37 8 73 -1 27 -6 62 -14 79 -17 38
-8 54 -29 55 -73 1 -67 17 -64 22 5 6 69 22 103 31 69 3 -11 8 -45 12 -76 3
-32 11 -58 16 -58 5 0 9 26 9 58 0 105 24 103 36 -4 8 -66 22 -70 26 -7 l3 47
74 2 c65 3 74 1 78 -17 6 -22 23 -26 23 -4 0 11 12 15 48 14 32 0 41 -3 28 -8
-19 -7 -19 -8 2 -13 16 -5 22 -14 22 -35 0 -15 3 -38 6 -51 l7 -23 13 27 c8
15 17 45 21 68 l7 41 11 -60 c12 -66 25 -74 39 -23 8 33 9 33 16 8 5 -14 11
-38 15 -55 l7 -30 19 24 c18 23 24 23 102 18 105 -7 142 -20 157 -58 7 -16 16
-29 20 -29 5 0 16 22 25 49 21 63 56 98 87 84 15 -6 33 -6 54 0 27 8 34 6 62
-21 18 -17 32 -36 32 -42 0 -14 12 -13 38 6 18 12 26 13 37 4 16 -14 35 -5 35
16 0 23 16 16 29 -13 9 -19 15 -23 20 -15 10 17 38 5 44 -19 4 -15 11 -18 34
-13 26 5 30 2 47 -36 10 -23 16 -44 13 -46 -3 -3 -84 0 -180 6 -171 12 -177
11 -239 -10 -35 -12 -67 -26 -72 -31 -6 -5 -25 -9 -42 -9 -18 0 -36 -4 -39
-10 -14 -22 70 -8 138 23 59 27 78 32 107 25 37 -8 250 -29 286 -29 25 1 38
-41 39 -124 l0 -50 -105 7 c-58 4 -136 11 -173 17 -75 11 -77 10 -156 -26 -85
-38 -143 -56 -150 -45 -7 10 -142 24 -461 48 -113 9 -233 18 -267 21 l-61 5 8
-37 c11 -48 6 -60 -31 -75 -23 -10 -32 -10 -44 0 -13 11 -21 10 -41 -1 -24
-12 -28 -11 -43 7 -24 30 -42 21 -88 -45 -15 -21 -15 -24 -1 -32 8 -5 21 -22
28 -39 10 -24 19 -30 44 -31 108 -4 130 -8 140 -21 12 -16 106 -33 106 -19 0
4 -12 14 -27 22 -29 14 -43 28 -43 42 0 13 46 7 106 -14 32 -12 66 -22 74 -23
23 -3 82 -36 108 -60 13 -11 25 -20 28 -19 7 4 38 -10 69 -31 25 -17 28 -17
16 -2 -30 37 -142 108 -265 167 -127 61 -139 73 -116 109 8 12 31 15 125 13
63 -2 143 -8 178 -14 34 -6 116 -14 182 -16 66 -3 128 -9 137 -14 9 -5 29 -9
45 -9 28 0 36 -7 124 -110 20 -23 32 -31 36 -22 18 44 71 61 119 38 19 -9 53
-16 75 -16 42 0 99 23 99 40 0 6 19 10 43 10 33 -1 50 -8 81 -35 l39 -35 -101
0 c-152 0 -350 -33 -367 -61 -12 -19 7 -31 24 -15 34 30 130 50 251 50 170 1
190 -15 190 -154 0 -32 6 -85 14 -117 8 -32 18 -101 22 -153 4 -52 9 -98 10
-102 1 -5 2 -16 3 -25 1 -16 3 -16 11 -3 6 10 10 -202 10 -607 0 -492 -3 -623
-12 -623 -18 -1 -177 -18 -272 -30 -111 -13 -260 -42 -266 -51 -3 -5 -28 -13
-55 -19 -58 -13 -105 -32 -105 -42 0 -5 -5 -8 -12 -8 -17 0 -118 -53 -118 -62
0 -4 -10 -8 -23 -8 -13 0 -33 -9 -45 -20 -12 -11 -26 -20 -32 -20 -5 0 -10 -7
-10 -15 0 -8 -9 -15 -20 -15 -11 0 -20 -4 -20 -9 0 -5 -13 -14 -30 -21 -16 -7
-30 -16 -30 -20 0 -4 -12 -11 -26 -14 -15 -4 -45 -25 -68 -46 -22 -22 -47 -40
-54 -40 -7 0 -32 -18 -56 -40 -24 -22 -48 -40 -54 -40 -6 0 -21 -13 -34 -30
-12 -16 -27 -30 -34 -30 -7 0 -14 -3 -16 -8 -6 -14 -115 -102 -127 -102 -14 0
-14 0 4 -43 14 -34 14 -36 -7 -43 -12 -4 -39 -7 -60 -7 -21 0 -38 -4 -38 -8 0
-5 -6 -9 -13 -9 -7 0 -20 -8 -28 -18 -24 -26 -51 -46 -80 -59 -14 -6 -26 -17
-26 -25 -1 -31 -10 -43 -48 -62 -36 -17 -82 -23 -93 -12 -2 3 0 11 4 18 5 7 9
15 10 18 7 34 44 80 64 80 6 0 9 4 6 9 -3 4 10 17 29 27 19 10 35 22 35 26 0
14 119 96 149 103 18 4 28 11 25 19 -5 13 107 125 145 146 12 6 31 19 41 28
10 9 35 28 55 42 20 14 51 37 68 51 18 15 50 36 72 48 22 12 39 24 37 29 -2 4
5 9 15 11 10 2 27 13 38 25 39 41 95 79 120 79 25 0 25 0 25 86 -1 47 -7 194
-14 326 -8 131 -12 245 -9 252 3 7 21 15 41 19 21 4 86 17 146 30 79 17 140
24 223 24 62 0 113 4 113 9 0 4 -47 14 -104 20 -101 11 -106 11 -212 -18 -145
-39 -224 -54 -232 -46 -4 4 -1 10 6 12 6 3 12 13 12 23 0 25 20 35 105 54 39
8 90 20 115 26 38 10 137 18 268 22 24 1 32 6 32 20 0 12 -7 18 -24 18 -64 0
-76 30 -13 31 l42 1 -35 8 c-92 22 -190 14 -355 -30 -207 -54 -202 -53 -221
-46 -13 5 -14 9 -4 21 9 10 9 15 1 15 -27 0 -7 17 33 28 l44 11 -2 53 c0 29 5
73 13 98 8 25 29 91 48 148 18 57 33 110 33 117 0 30 43 145 54 145 6 0 22 -7
35 -16 23 -16 23 -16 16 7 -4 13 -16 35 -25 49 -10 14 -30 48 -45 75 -16 28
-76 97 -134 155 -89 88 -125 116 -226 173 -72 41 -130 68 -145 67 -29 -2 -148
-1 -170 1 -8 1 -27 -1 -43 -6 -23 -6 -26 -5 -21 9 3 9 1 16 -5 16 -6 0 -11 -9
-11 -19 0 -11 -5 -23 -11 -27 -8 -5 -10 1 -7 20 3 14 2 29 -3 32 -16 9 -179
-36 -254 -70 -92 -43 -142 -77 -228 -159 -57 -55 -75 -81 -116 -168 -27 -57
-53 -120 -59 -139 -6 -19 -20 -64 -32 -99 -11 -36 -20 -83 -21 -105 0 -23 -3
-59 -7 -81 -7 -36 -10 -40 -34 -37 -18 2 -28 -2 -32 -15 -5 -18 -10 -112 -6
-125 5 -18 11 -77 13 -128 2 -53 3 -55 32 -58 53 -6 55 -13 55 -166 0 -77 5
-197 10 -266 4 -69 14 -287 20 -485 6 -198 15 -438 20 -534 7 -124 6 -178 -2
-188 -16 -20 18 -17 61 7 57 31 150 57 229 65 l72 7 0 -26 c0 -17 -5 -26 -15
-26 -8 0 -33 -6 -56 -12 -31 -10 -39 -17 -37 -33 3 -20 -24 -55 -42 -55 -6 0
-13 -7 -17 -16 -7 -20 -70 -84 -83 -85 -6 -1 -15 -2 -21 -3 -6 0 -16 -8 -22
-17 -7 -8 -21 -19 -32 -24 -17 -7 -14 -9 18 -15 36 -7 62 -20 39 -20 -7 0 -12
-8 -12 -17 0 -10 -10 -34 -22 -53 -44 -70 -58 -111 -58 -173 0 -49 -4 -65 -22
-84 -12 -13 -31 -23 -42 -23 -12 0 -34 -7 -50 -15 -15 -8 -35 -15 -42 -15 -18
0 -18 -8 1 -27 14 -14 14 -17 -1 -34 -9 -11 -26 -19 -37 -19 -11 0 -17 -3 -14
-7 4 -4 -7 -13 -24 -20 -40 -17 -259 -18 -259 -2 0 16 -216 1 -258 -18 -36
-17 -59 -50 -45 -64 5 -5 130 -10 278 -11 l270 -3 -4 -55 c-1 -30 -7 -60 -12
-66 -4 -5 -10 -35 -11 -64 -3 -53 -4 -55 -42 -69 -34 -13 -63 -13 -255 3 -119
9 -247 21 -286 26 -38 4 -116 11 -172 15 -101 7 -103 7 -103 -14 0 -26 -4 -24
135 -45 l110 -17 51 -57 c29 -31 50 -60 48 -63 -2 -3 -65 -9 -140 -12 -199 -8
-198 -24 4 -51 70 -10 152 -22 182 -26 30 -5 102 -12 160 -15 115 -6 303 -23
336 -30 11 -3 21 -10 22 -17 1 -25 12 -64 28 -103 28 -69 36 -90 35 -93 -1 -1
5 -15 13 -31 31 -58 -9 -91 -110 -91 -47 0 -78 -19 -73 -45 5 -23 43 -34 139
-40 41 -3 113 -9 160 -15 47 -6 139 -13 205 -16 66 -2 167 -9 224 -14 58 -6
150 -10 207 -10 92 0 102 -2 107 -19 4 -16 15 -20 53 -23 27 -2 66 1 86 6 21
4 46 5 55 1 10 -5 46 -7 81 -6 49 2 62 0 62 -12 0 -8 -7 -18 -16 -21 -29 -11
-7445 -7 -7649 5 -159 8 -192 13 -203 27 -7 9 -19 15 -25 13 -19 -7 -94 -12
-231 -16 -75 -2 -138 -8 -151 -15 -18 -9 -42 -10 -106 -1 -45 6 -100 11 -123
11 -51 0 -36 19 22 27 34 5 43 11 51 34 9 27 8 29 -18 29 -16 0 -34 -7 -42
-16 -9 -11 -22 -14 -47 -9 -20 4 -39 2 -47 -5 -15 -12 -75 -5 -75 9 0 4 -11
13 -25 19 -14 6 -25 16 -25 20 0 5 53 12 118 15 136 6 202 23 202 50 0 17 7
19 73 16 73 -3 117 5 117 22 0 5 -10 9 -22 10 -13 0 -17 3 -10 6 6 2 12 9 12
15 0 5 -6 8 -12 5 -7 -2 -21 3 -31 11 -13 11 -23 13 -33 7 -22 -14 -19 -29 8
-36 13 -3 -9 -8 -52 -10 -41 -2 -78 0 -81 4 -8 10 -139 -3 -139 -14 0 -5 21
-9 47 -9 36 0 44 -3 35 -12 -7 -7 -61 -13 -149 -15 -76 -1 -132 0 -125 3 6 3
12 12 12 20 0 8 9 14 19 14 11 0 23 5 26 10 3 6 19 10 35 10 16 0 31 4 34 9 3
4 39 11 80 13 42 3 82 11 91 18 21 18 33 18 283 23 117 3 215 6 217 9 7 7 -20
10 -105 11 -53 2 -82 7 -100 20 -13 9 -32 17 -42 17 -11 0 -18 7 -18 19 0 11
-5 21 -10 23 -6 2 -11 20 -12 41 -1 29 -5 37 -20 37 -22 0 -24 16 -2 24 20 8
8 26 -17 26 -34 0 -12 16 46 34 54 17 68 30 43 39 -10 3 -10 7 0 20 11 13 32
16 110 14 67 -1 97 2 100 11 2 7 12 12 23 12 10 0 19 5 19 11 0 6 18 9 48 6
l47 -4 3 -52 c3 -47 1 -52 -15 -48 -10 3 -31 8 -48 12 -16 4 -33 12 -37 18 -4
7 -18 1 -42 -16 -19 -15 -45 -27 -58 -27 l-22 0 22 -16 c16 -11 22 -25 22 -55
0 -31 6 -45 28 -64 27 -25 52 -32 52 -16 0 5 -6 13 -13 19 -7 6 -14 34 -15 61
l-2 51 49 0 c28 0 53 5 56 10 8 13 41 4 77 -21 33 -24 48 -24 48 0 0 14 10 20
40 25 31 5 40 11 40 26 0 11 -6 20 -14 20 -9 0 -16 17 -21 50 -6 47 -9 50 -35
50 -16 0 -30 -5 -32 -11 -6 -18 -38 19 -38 43 0 20 -3 20 -62 13 -35 -5 -420
-9 -857 -9 -880 -1 -866 -2 -774 56 26 17 62 45 78 63 l31 33 164 2 c91 2 233
4 315 7 83 2 260 6 395 8 135 3 297 6 360 7 63 2 121 1 127 -2 10 -4 14 28 16
130 3 127 5 135 24 138 18 3 21 13 27 80 4 42 7 122 6 177 0 55 3 142 6 192 6
82 9 93 28 100 20 6 20 7 -4 13 -25 6 -25 6 -23 116 1 72 -1 96 -6 71 -9 -44
-15 -51 -34 -44 -14 5 -27 50 -27 93 0 19 5 24 24 24 13 0 27 -7 30 -16 16
-43 21 20 22 304 2 402 22 994 34 1006 7 7 10 -6 11 -35 l1 -44 8 40 c34 184
37 447 6 453 -9 2 -16 10 -16 19 0 15 32 144 37 152 2 3 56 5 121 5 114 1 117
2 120 24 2 12 -1 22 -7 22 -6 0 -8 7 -5 15 5 12 -4 15 -47 14 -42 -1 -49 -3
-29 -9 22 -7 21 -8 -12 -9 -21 -1 -38 2 -38 7 0 4 -28 6 -62 5 -35 0 -51 1
-35 4 26 4 26 6 12 26 -8 12 -15 25 -15 29 0 5 54 8 120 8 l120 0 1 38 c1 20
3 48 4 62 9 74 23 335 19 339 -2 2 -4 -1 -4 -7 0 -25 -29 -10 -35 18 -12 56
-23 40 -19 -30 3 -57 1 -70 -11 -70 -11 0 -15 -12 -15 -45 0 -49 -2 -50 -62
-59 -31 -4 -38 -2 -38 12 0 9 -8 26 -16 37 -14 19 -16 19 -28 3 -16 -22 -55
-23 -63 -2 -3 8 0 26 7 39 16 31 7 100 -40 285 -11 46 -86 194 -134 265 -30
45 -137 168 -176 203 -111 99 -223 166 -390 233 -82 33 -130 63 -118 74 16 16
325 -113 348 -145 3 -4 21 -15 40 -24 59 -27 243 -191 307 -273 51 -65 63 -82
63 -91 0 -5 10 -17 22 -28 21 -19 21 -18 -2 21 -13 22 -32 52 -42 67 -10 14
-18 31 -18 37 0 5 -6 14 -14 18 -8 4 -32 31 -54 59 -50 63 -234 215 -307 254
-68 36 -223 102 -291 124 -34 11 -54 24 -57 36 -4 16 0 20 20 20 58 0 334
-113 376 -154 7 -7 37 -26 67 -44 55 -32 281 -232 290 -257 3 -7 26 -35 51
-62 26 -27 56 -68 68 -91 12 -23 25 -42 30 -42 4 0 23 -29 42 -65 18 -36 40
-65 47 -65 8 0 12 3 10 8 -84 175 -128 271 -128 280 0 4 -11 19 -25 32 -14 13
-23 30 -20 38 3 8 -3 16 -15 19 -11 3 -21 9 -21 14 -3 20 -5 24 -12 36 -4 7
-14 10 -21 7 -16 -6 -40 21 -33 39 3 9 -10 22 -36 35 -23 12 -69 44 -102 72
-33 28 -75 58 -93 67 -23 12 -31 22 -27 34 3 10 1 20 -5 24 -5 3 -10 1 -10 -4
0 -14 -37 -14 -45 -1 -15 25 -255 129 -332 145 -18 4 -35 11 -38 16 -9 14 38
11 85 -6 23 -8 50 -15 59 -15 22 1 -106 50 -130 50 -21 0 -27 35 -6 42 25 8
469 -15 526 -28 20 -4 22 -7 10 -16 -10 -7 -7 -7 11 -2 36 12 194 8 218 -5 11
-6 48 -11 81 -11 52 0 62 -3 72 -22 l12 -22 8 22 c9 23 24 29 34 12 4 -6 10
-8 15 -5 8 5 60 -55 95 -108 10 -16 19 -48 19 -74 1 -34 6 -49 20 -57 14 -8
20 -8 23 2 9 25 47 52 88 63 24 7 78 9 137 6 119 -7 181 -34 199 -85 6 -17 14
-150 19 -295 4 -144 11 -270 15 -280 7 -16 4 -17 -21 -12 l-29 7 23 -19 c23
-19 23 -22 26 -256 l3 -237 -26 5 c-24 5 -24 4 -5 -5 14 -8 24 -29 33 -73 8
-37 9 -63 3 -65 -9 -3 -7 -53 2 -78 3 -6 31 -14 63 -17 137 -14 153 -18 153
-42 0 -13 -8 -25 -17 -29 -10 -3 -25 -9 -33 -12 -12 -4 -12 -3 -2 4 9 6 -8 11
-53 16 -36 4 -78 9 -93 12 -26 5 -28 4 -29 -30 -1 -20 4 -39 10 -43 7 -5 53
-8 103 -9 50 0 96 -4 103 -9 10 -5 11 -32 7 -104 -3 -53 -13 -456 -21 -896 -8
-440 -20 -992 -26 -1227 -12 -420 -13 -427 -33 -431 -17 -4 -17 -5 5 -6 45 -2
49 -16 49 -155 l0 -129 188 7 c359 13 489 16 757 20 149 3 277 7 285 10 20 7
191 14 528 22 l272 7 0 101 c0 56 5 107 10 112 7 7 11 427 13 1239 l2 1229 70
41 c69 40 71 40 185 43 114 3 148 7 137 18 -3 3 -61 9 -128 14 -120 7 -124 7
-162 -17 -57 -36 -109 -64 -112 -61 -1 2 2 18 7 36 7 26 24 42 80 78 67 43 76
46 172 55 56 6 111 7 124 4 19 -5 23 -2 20 12 -3 15 -18 19 -87 25 -46 4 -86
9 -89 12 -3 3 36 6 86 6 182 0 66 28 -133 32 -57 2 -64 -1 -144 -55 -47 -31
-89 -57 -94 -57 -5 0 -7 11 -5 25 3 13 0 26 -6 28 -6 2 10 19 37 37 l47 34 0
180 c0 100 1 240 1 311 1 72 -4 143 -10 158 -30 78 -189 263 -293 341 -65 49
-171 107 -280 156 -51 22 -101 45 -110 50 -23 13 -55 13 -63 0 -8 -14 -247 -2
-256 13 -16 24 -243 -19 -369 -70 -80 -33 -202 -104 -251 -146 -21 -18 -55
-45 -77 -62 -22 -16 -55 -51 -73 -78 -19 -26 -47 -64 -63 -85 -76 -98 -165
-332 -182 -477 -6 -53 -24 -68 -24 -20 0 29 -30 42 -47 19 -11 -15 -13 -15
-29 1 -11 11 -28 15 -46 13 -30 -5 -33 1 -29 72 4 70 51 251 73 277 5 7 7 17
3 23 -13 21 131 268 172 295 29 19 28 24 6 -54 l-6 -24 26 19 c15 10 27 24 27
29 0 6 15 15 32 20 19 6 34 18 36 28 4 22 32 57 45 57 5 0 30 17 56 38 65 53
103 78 127 86 12 4 29 15 39 26 10 11 24 20 32 20 8 0 31 9 51 19 120 62 238
91 373 91 l86 0 7 39 c8 54 22 59 18 7 -3 -37 0 -45 22 -60 14 -9 26 -25 26
-36 0 -11 3 -20 8 -20 119 -8 174 -14 255 -31 55 -11 101 -19 103 -17 2 2 -27
17 -64 33 -37 15 -73 33 -79 38 -17 13 -5 30 16 21 9 -4 27 -6 40 -5 13 0 46
-6 74 -14 61 -18 60 -18 51 -3 -5 7 -2 9 7 6 8 -4 67 -27 132 -53 77 -31 117
-52 117 -62 0 -13 3 -13 16 -3 15 14 12 16 -159 107 -15 8 -74 31 -130 52
-148 53 -139 63 58 68 88 2 166 5 172 8 7 2 28 -2 47 -10 20 -8 51 -15 70 -15
19 0 36 -6 39 -12 3 -10 9 -10 28 -1 52 27 118 37 223 36 78 -1 111 -5 117
-15 6 -10 11 -10 20 -1 14 14 69 0 88 -24 10 -14 15 -15 18 -5 6 16 66 75 110
109 32 24 35 25 155 18 68 -4 190 -13 272 -21 187 -18 206 -18 206 0 0 16 -26
23 -90 25 -56 1 -268 18 -419 33 l-114 11 -51 -57 c-50 -54 -74 -71 -63 -42 6
15 -4 16 -213 32 -47 3 -97 13 -112 20 -15 8 -50 14 -79 14 -29 0 -141 9 -248
20 -108 10 -338 31 -511 45 -173 14 -322 29 -330 32 -16 6 -117 15 -350 33
-80 6 -160 13 -177 16 l-33 5 6 267 c3 147 6 275 7 286 1 18 8 18 109 12 61
-3 126 -13 149 -22z m3227 -28 c117 -8 217 -18 222 -21 15 -9 201 -27 272 -25
37 1 76 -3 87 -9 10 -6 52 -14 93 -17 40 -4 79 -11 85 -16 7 -6 57 -14 110
-19 84 -8 187 -21 343 -45 29 -4 40 0 65 24 38 36 92 68 101 59 11 -11 -5 -37
-28 -46 -13 -5 -40 -20 -60 -35 l-38 -25 -232 19 c-128 11 -267 24 -308 30
-41 5 -115 12 -165 15 -49 4 -202 20 -340 36 -137 16 -335 37 -438 48 -103 10
-193 23 -199 29 -6 6 -8 17 -5 24 4 12 22 12 113 1 60 -7 205 -19 322 -27z
m327 26 c17 -11 10 -12 -44 -8 -35 3 -81 6 -102 6 -22 0 -39 4 -39 9 0 14 162
7 185 -7z m437 -31 c71 -7 102 -14 115 -27 17 -17 14 -17 -75 -11 -82 6 -162
26 -162 41 0 7 3 7 122 -3z m-5474 -31 c15 -16 30 -30 34 -30 4 0 21 -13 38
-29 20 -18 39 -27 51 -24 33 9 65 -21 66 -62 l1 -36 -61 5 c-163 14 -207 20
-207 27 0 5 0 12 1 16 0 3 -6 10 -15 15 -11 6 -16 23 -16 56 1 62 18 83 73 91
5 0 21 -12 35 -29z m-1722 11 c5 -5 18 -11 29 -14 13 -3 9 -5 -12 -6 -38 -1
-65 8 -57 20 7 12 27 12 40 0z m332 -17 c23 -3 42 -10 42 -15 0 -10 -107 -5
-200 9 l-45 6 50 6 c49 5 70 4 153 -6z m-425 -30 c9 -9 -4 -34 -18 -34 -20 0
-39 27 -23 33 19 8 34 8 41 1z m145 -27 c3 -16 -3 -18 -55 -15 -46 2 -58 7
-61 21 -3 16 3 18 55 15 46 -2 58 -7 61 -21z m8212 -21 l75 -13 -65 -1 c-36
-1 -94 5 -130 12 l-65 14 55 0 c30 0 89 -5 130 -12z m-7624 -18 c39 -7 64 -16
64 -24 0 -20 -10 -21 -110 -13 -163 14 -183 18 -169 35 14 18 125 19 215 2z
m7834 -8 l25 -8 -25 0 c-14 0 -45 3 -70 7 l-45 8 45 1 c25 0 56 -4 70 -8z
m-8570 -34 c0 -18 -3 -47 -6 -63 l-6 -30 -27 26 c-15 14 -39 35 -55 45 -15 11
-32 28 -37 38 -9 17 -4 18 61 18 l70 0 0 -34z m180 8 c34 -18 120 -34 181 -34
28 0 60 -7 73 -15 22 -15 25 -14 44 10 l21 27 138 -12 c76 -7 160 -20 188 -30
61 -22 280 -36 291 -19 3 6 20 8 38 5 17 -3 78 -8 136 -11 58 -4 119 -12 135
-20 41 -19 267 -40 291 -27 27 14 286 -9 308 -27 17 -14 14 -25 -7 -27 -7 0
-20 -2 -29 -2 -11 -1 -22 -17 -29 -42 l-12 -40 -56 0 c-31 1 -101 5 -156 10
-55 5 -183 17 -285 25 -119 10 -187 20 -192 28 -6 9 -8 9 -8 -1 0 -9 -15 -11
-62 -7 -35 3 -132 12 -215 20 -84 7 -158 17 -164 21 -6 3 -57 8 -113 9 -130 2
-374 21 -451 35 -33 6 -91 12 -130 13 l-70 3 -7 45 c-14 95 -16 92 55 84 34
-4 73 -13 87 -21z m1990 6 c19 -6 73 -13 120 -16 138 -8 154 -10 177 -22 14
-8 24 -9 28 -2 3 5 21 10 40 10 34 0 53 -22 37 -44 -4 -6 -6 -41 -4 -78 3 -58
6 -67 25 -72 45 -12 67 -7 67 15 0 11 3 18 8 16 4 -3 48 -8 97 -12 54 -4 96
-12 106 -21 8 -8 27 -14 41 -14 36 0 63 -11 49 -20 -6 -3 -12 -25 -14 -48 -3
-54 -18 -57 -157 -37 -58 9 -172 22 -255 29 -82 8 -226 22 -320 31 -192 18
-263 37 -120 31 180 -7 451 -27 505 -37 103 -19 127 -21 108 -9 -10 6 -18 16
-18 21 0 6 4 8 9 5 5 -4 17 -3 28 1 28 11 -42 23 -192 33 -160 10 -338 36
-375 55 -15 8 -40 13 -55 12 -28 -2 -29 -2 -26 53 2 30 5 58 7 62 10 15 60 7
112 -17 42 -19 77 -26 162 -31 98 -6 110 -5 116 10 4 10 2 22 -3 27 -10 10
-170 29 -288 34 -107 4 -105 4 -105 25 0 23 33 27 90 10z m-916 -26 c10 -10
16 -11 16 -4 0 17 123 9 144 -9 29 -25 6 -34 -68 -26 -39 3 -100 9 -136 11
-80 6 -91 9 -84 29 9 21 107 21 128 -1z m1506 -14 c19 -6 9 -8 -37 -9 -34 -1
-65 4 -68 9 -7 12 68 12 105 0z m-760 -40 c32 -17 18 -35 -31 -38 -44 -4 -227
15 -242 25 -4 3 -2 12 5 20 11 13 31 15 130 10 65 -3 127 -11 138 -17z m7400
-6 c0 -2 -9 -4 -21 -4 -11 0 -18 4 -14 10 5 8 35 3 35 -6z m-6601 -20 c9 -8
-75 -2 -94 6 -12 5 1 6 35 3 30 -3 57 -7 59 -9z m6141 -10 c24 -15 23 -15 -24
-10 -27 3 -62 6 -77 6 -16 0 -29 5 -29 10 0 16 102 11 130 -6z m-2902 -147
c-2 -74 -6 -92 -18 -92 -12 0 -16 19 -18 96 -2 57 2 108 9 125 l12 29 9 -33
c5 -18 7 -74 6 -125z m3169 121 c24 -6 69 -8 101 -4 55 6 265 -8 305 -20 9 -3
15 -10 12 -15 -8 -11 -132 -11 -205 1 -30 5 -80 12 -110 15 -228 23 -271 29
-276 36 -6 11 117 1 173 -13z m-3237 -125 c0 -76 -2 -83 -20 -83 -13 0 -22 9
-26 26 -7 29 1 138 12 168 14 38 33 -25 34 -111z m4460 110 c0 -17 -18 -30
-76 -56 -111 -49 -111 -25 1 32 63 32 75 36 75 24z m-9880 -45 c0 -11 -5 -10
-35 4 -25 11 -30 19 -19 31 7 7 53 -24 54 -35z m137 7 c16 -11 28 -13 48 -5
37 14 47 13 43 -7 -3 -16 -15 -17 -103 -15 -55 2 -102 6 -105 8 -3 3 4 12 14
20 26 18 76 18 103 -1z m-1142 -5 c186 -20 231 -30 252 -53 18 -20 93 -158 93
-170 0 -3 -17 -11 -37 -18 -45 -15 -136 -67 -197 -114 -26 -19 -50 -35 -56
-35 -5 0 -15 -8 -22 -18 -7 -10 -28 -25 -45 -33 -18 -7 -33 -17 -33 -21 0 -17
-25 -6 -65 27 -30 24 -44 44 -48 67 -6 40 9 336 18 361 8 20 11 20 140 7z
m-195 -40 c0 -16 -4 -32 -10 -35 -6 -4 -10 10 -10 35 0 25 4 39 10 35 6 -3 10
-19 10 -35z m10518 33 c-21 -2 -55 -2 -75 0 -21 2 -4 4 37 4 41 0 58 -2 38 -4z
m-9919 -43 c-22 -6 -21 -7 11 -14 36 -9 126 -9 293 0 l97 5 0 -31 c0 -24 -4
-30 -22 -31 -21 0 -21 -1 -4 -8 18 -7 18 -8 2 -14 -26 -10 -66 -8 -66 3 0 6 8
10 18 10 12 0 14 2 4 8 -17 11 -121 -4 -196 -29 -33 -10 -68 -19 -79 -19 -11
0 -25 -6 -31 -14 -6 -8 -21 -17 -33 -20 -18 -6 -27 2 -57 48 -38 59 -54 115
-37 126 6 3 36 1 67 -4 43 -8 51 -12 33 -16z m10274 3 c-7 -2 -21 -2 -30 0
-10 3 -4 5 12 5 17 0 24 -2 18 -5z m-9363 -69 c0 -8 -4 -14 -9 -14 -11 0 -22
26 -14 34 9 9 23 -3 23 -20z m1537 -13 c13 -8 -5 -10 -74 -11 -51 0 -93 2 -93
5 0 24 128 29 167 6z m-3056 -66 c-7 -37 -7 -38 -13 -12 -7 36 2 85 12 66 5
-8 5 -32 1 -54z m-461 27 c0 -5 12 -15 28 -23 15 -7 35 -21 45 -31 21 -22 13
-23 -65 -7 -52 11 -56 13 -54 40 1 23 5 29 23 29 13 0 23 -4 23 -8z m9758
-122 c0 -46 -2 -58 -8 -40 -4 14 -8 57 -8 95 0 52 2 62 8 40 4 -16 8 -59 8
-95z m-6241 41 c7 -9 27 -31 45 -49 l33 -34 -40 7 c-22 3 -92 8 -155 11 -63 3
-121 7 -128 9 -20 7 45 73 77 78 53 9 156 -4 168 -22z m309 1 c9 -19 13 -20
17 -8 11 28 148 18 287 -19 36 -9 70 -22 77 -27 9 -7 18 -5 29 6 10 11 24 14
36 10 12 -3 75 -10 142 -15 66 -4 157 -13 201 -18 44 -5 88 -10 99 -10 12 -1
16 -6 12 -16 -5 -13 5 -15 65 -12 66 3 70 3 67 -17 -2 -16 -11 -22 -38 -24
-117 -9 -348 -65 -418 -101 -9 -5 -42 -21 -72 -37 -30 -15 -95 -55 -145 -89
-104 -71 -121 -79 -129 -59 -9 22 -32 17 -63 -16 -15 -16 -33 -30 -39 -30 -6
0 -17 -13 -24 -29 -6 -16 -23 -40 -37 -53 -46 -43 -163 -245 -163 -283 0 -23
-27 -29 -54 -12 -32 21 -35 56 -25 257 8 165 8 165 36 187 19 16 41 23 71 23
63 0 43 16 -29 23 -33 3 -63 7 -66 10 -2 3 6 22 20 44 28 45 39 82 41 140 1
23 5 45 9 49 4 4 7 21 7 38 0 96 54 151 86 88z m-2331 -2 c-10 -11 -28 -20
-39 -20 -36 0 -164 -29 -243 -56 -41 -14 -82 -23 -89 -20 -21 8 -17 31 9 44
22 11 33 14 157 51 39 12 96 20 144 20 78 1 79 1 61 -19z m3545 -7 c19 -3 52
-5 73 -4 l38 3 -3 -48 c-2 -40 -7 -51 -30 -63 -24 -14 -28 -14 -46 2 -14 13
-22 15 -27 7 -10 -16 -52 -30 -70 -24 -8 3 -17 15 -21 26 -3 12 -11 17 -20 14
-8 -3 -20 -8 -27 -11 -7 -3 -22 4 -34 15 -18 16 -20 25 -13 49 5 17 11 35 14
40 6 9 97 6 166 -6z m-5016 -9 c22 -4 50 -12 63 -19 l25 -13 -34 -7 c-45 -10
-58 -22 -58 -55 0 -15 -9 -35 -20 -45 -14 -13 -17 -22 -10 -36 11 -20 3 -49
-14 -49 -6 0 -22 -3 -36 -6 -24 -5 -24 -5 -6 10 19 16 19 16 -2 16 -26 0 -28
19 -7 59 8 16 11 32 7 36 -4 3 1 13 11 20 23 17 14 85 -12 86 -12 0 -12 2 4 9
11 5 27 7 35 5 8 -2 33 -7 54 -11z m9663 -46 c-2 -13 -4 -3 -4 22 0 25 2 35 4
23 2 -13 2 -33 0 -45z m-8206 -11 c-6 -6 -43 -16 -83 -23 -40 -6 -108 -22
-152 -33 -43 -12 -83 -20 -90 -18 -16 7 74 47 106 47 15 0 29 4 32 9 5 7 86
27 146 34 35 4 54 -3 41 -16z m-393 -38 c2 -10 -14 -23 -45 -37 -58 -26 -203
-122 -246 -162 -34 -32 -44 -35 -67 -20 -13 8 -11 12 7 30 12 11 25 20 28 20
4 0 32 23 64 50 32 28 62 50 67 50 6 0 19 9 31 19 31 29 115 71 138 68 11 -1
21 -9 23 -18z m-1654 -28 c117 -36 116 -35 130 -15 8 10 18 15 23 11 4 -5 8
-66 8 -135 0 -70 4 -160 9 -199 8 -70 8 -73 -12 -73 -14 0 -19 5 -16 18 3 9
-13 50 -35 91 -23 41 -41 77 -41 82 0 14 -72 133 -97 161 -18 18 -23 32 -18
47 7 24 8 24 49 12z m1062 -40 c21 -15 49 -40 62 -54 l24 -25 -37 -34 c-20
-18 -44 -46 -52 -63 -16 -31 -49 -75 -82 -110 -10 -11 -26 -33 -35 -50 -8 -16
-27 -43 -41 -58 -44 -50 -53 -27 -54 133 -1 180 10 233 52 254 25 12 28 16 12
17 -29 2 32 16 76 18 25 1 48 -8 75 -28z m604 0 c-5 -11 -19 -23 -31 -26 -48
-15 -185 -109 -237 -162 -24 -24 -42 -30 -42 -14 0 11 70 78 98 95 11 6 46 29
78 50 60 40 123 75 137 76 4 0 3 -9 -3 -19z m381 -41 c34 0 39 -15 7 -23 -127
-30 -309 -86 -318 -98 -3 -4 -34 -21 -69 -39 -61 -31 -137 -82 -190 -129 -23
-20 -51 -28 -51 -14 0 3 28 35 63 70 57 59 146 113 184 113 7 0 16 7 20 16 4
11 13 14 29 10 19 -5 26 0 38 22 12 24 27 31 103 50 117 29 126 30 141 26 8
-2 27 -4 43 -4z m3542 -34 c7 -18 -1 -26 -29 -26 -20 0 -23 9 -15 38 3 9 40
-1 44 -12z m-5098 -77 c12 -10 22 -33 23 -51 3 -37 18 -50 47 -44 11 3 27 1
35 -4 13 -8 13 -10 1 -10 -12 0 -12 -3 -3 -12 7 -7 12 -20 12 -30 0 -14 -8
-18 -31 -18 -28 0 -159 20 -167 25 -10 7 25 55 40 55 13 0 18 8 18 31 0 25 -3
29 -19 24 -12 -3 -21 0 -25 10 -16 42 31 58 69 24z m795 -37 c0 -4 -14 -23
-30 -42 -61 -71 -73 -86 -105 -140 -19 -30 -42 -66 -52 -80 -18 -26 -20 -29
-22 -55 -1 -10 -12 -15 -31 -15 -25 0 -30 4 -30 23 0 13 9 32 19 44 23 24 51
77 51 96 0 18 135 147 154 147 7 0 16 9 19 21 5 18 27 19 27 1z m60 -51 c0 -5
-7 -12 -16 -15 -22 -9 -24 -8 -24 9 0 8 9 15 20 15 11 0 20 -4 20 -9z m3250
-70 c0 -12 -20 -25 -27 -18 -7 7 6 27 18 27 5 0 9 -4 9 -9z m-3364 -46 c-8
-19 -26 -50 -40 -68 -15 -19 -26 -38 -26 -43 -1 -13 -37 -54 -48 -54 -13 0 -3
38 18 70 9 14 32 49 51 77 40 62 68 73 45 18z m3324 9 c0 -3 -7 -12 -15 -20
-12 -13 -15 -13 -15 -1 0 7 3 17 7 20 8 8 23 9 23 1z m7909 -13 c72 -8 81 -31
12 -31 -41 0 -49 -3 -45 -15 5 -12 -4 -15 -45 -15 -28 0 -51 5 -51 10 0 6 7
10 15 10 31 0 14 18 -22 24 -99 15 -177 9 -245 -19 -66 -26 -81 -39 -55 -48 6
-2 -7 -14 -30 -26 -39 -19 -47 -19 -44 1 0 4 -8 10 -19 13 -48 15 -19 36 110
80 105 35 105 35 235 29 72 -4 154 -9 184 -13z m-11905 3 c21 -8 20 -22 -4
-72 -16 -33 -26 -42 -46 -42 -47 0 -66 18 -59 53 11 53 59 80 109 61z m821
-54 c-10 -11 -20 -18 -23 -15 -3 3 3 14 13 25 10 11 20 18 23 15 3 -3 -3 -14
-13 -25z m11144 -299 c1 -104 -2 -197 -6 -208 -5 -10 -11 53 -14 142 -8 189
-8 185 -26 207 -13 14 -12 19 7 38 11 11 25 18 30 15 4 -3 9 -90 9 -194z
m-11495 144 c-4 -8 -7 -15 -9 -15 -2 0 -5 7 -9 15 -3 9 0 15 9 15 9 0 12 -6 9
-15z m-484 -15 c0 -11 -7 -20 -15 -20 -15 0 -21 21 -8 33 12 13 23 7 23 -13z
m47 -87 c-7 -72 -17 -92 -36 -69 -9 11 -8 21 8 47 13 21 18 42 14 61 -4 19 -1
28 7 28 10 0 11 -16 7 -67z m11900 -150 c-3 -10 -5 -2 -5 17 0 19 2 27 5 18 2
-10 2 -26 0 -35z m-11962 -23 c16 -7 13 -9 -17 -9 -20 -1 -40 4 -43 9 -7 12
32 12 60 0z m-55 -50 c0 -5 -7 -10 -15 -10 -8 0 -15 5 -15 10 0 6 7 10 15 10
8 0 15 -4 15 -10z m2931 -207 c-9 -16 -10 -15 -11 8 0 14 3 29 8 33 12 12 14
-22 3 -41z m67 -80 c-10 -2 -26 -2 -35 0 -10 3 -2 5 17 5 19 0 27 -2 18 -5z
m1020 -20 c-10 -2 -26 -2 -35 0 -10 3 -2 5 17 5 19 0 27 -2 18 -5z m-15 -51
c-13 -2 -47 1 -74 7 -28 6 -64 12 -82 13 -18 1 13 4 68 7 83 5 101 3 106 -9 4
-11 -1 -16 -18 -18z m-104 -28 c8 -7 -73 -2 -104 6 -19 5 -6 6 35 3 36 -3 67
-7 69 -9z m5886 -264 c0 -28 -2 -30 -40 -30 -56 0 -71 11 -54 39 10 16 24 21
54 21 38 0 40 -2 40 -30z m-9358 -87 c5 -13 -33 -37 -46 -28 -5 3 -7 14 -4 26
6 22 43 24 50 2z m2488 -198 c-4 -97 -10 -174 -12 -171 -3 3 -2 84 2 181 4 97
9 174 12 171 3 -3 2 -84 -2 -181z m-2918 5 c3 -11 11 -20 18 -20 13 0 55 -46
55 -60 0 -8 -148 -4 -240 7 -30 4 -46 8 -35 11 11 2 25 11 31 20 7 9 30 17 59
18 34 2 51 9 62 24 18 26 43 26 50 0z m51 -120 c19 0 22 -5 22 -39 0 -21 -3
-52 -6 -69 -5 -26 -11 -30 -47 -35 -33 -5 -46 -1 -69 18 -15 13 -32 25 -39 27
-7 2 -9 19 -4 50 7 45 9 47 44 51 20 2 45 3 56 1 11 -2 30 -4 43 -4z m320 -27
c-10 -2 -26 -2 -35 0 -10 3 -2 5 17 5 19 0 27 -2 18 -5z m28 -68 c7 -28 6 -27
30 -18 16 6 16 7 -2 14 -14 6 -9 8 20 8 l38 1 -6 -146 c-3 -80 -8 -149 -11
-155 -4 -5 -15 -9 -26 -9 -27 0 -24 -29 4 -39 20 -8 23 -15 19 -45 -4 -32 -8
-36 -32 -36 -15 0 -47 -3 -71 -6 -36 -5 -48 -2 -68 15 -21 19 -22 23 -10 39
39 48 43 67 45 202 1 74 3 150 3 168 1 29 4 32 31 32 23 0 31 -5 36 -25z
m-512 -100 c3 -9 0 -15 -9 -15 -8 0 -15 7 -15 15 0 8 4 15 9 15 5 0 11 -7 15
-15z m106 -5 c-8 -15 -6 -29 10 -60 11 -22 25 -40 30 -40 6 0 10 -25 10 -55 0
-31 7 -69 16 -86 8 -17 13 -33 10 -37 -8 -7 -274 13 -283 22 -10 10 25 77 53
98 18 15 24 29 24 59 0 32 3 39 20 39 11 0 20 5 20 10 0 6 7 10 15 10 9 0 18
12 22 30 5 25 10 30 35 30 26 0 28 -2 18 -20z m102 -325 c18 -8 25 -14 16 -15
-22 0 -27 -30 -9 -58 14 -22 12 -26 -23 -58 -20 -19 -35 -38 -31 -43 3 -5 1
-12 -5 -16 -14 -9 -12 -41 3 -57 7 -7 14 -41 16 -78 1 -36 5 -85 8 -109 l5
-44 -153 7 c-181 8 -224 15 -224 36 0 8 2 17 6 20 19 18 40 86 35 114 -23 112
-24 141 -5 168 10 15 19 34 19 43 0 8 4 15 8 15 4 0 13 14 19 30 7 20 18 30
32 30 11 0 25 10 32 21 11 21 16 22 115 15 57 -4 118 -13 136 -21z m316 -41
c35 -5 52 -11 52 -21 0 -7 -6 -16 -14 -19 -12 -4 -12 -12 -4 -36 10 -29 8
-114 -10 -318 -6 -63 -10 -75 -24 -74 -10 0 -51 2 -90 3 -61 1 -70 4 -53 13
11 7 38 15 60 18 36 5 40 8 37 32 -1 15 2 30 8 33 19 12 -22 33 -55 29 -57 -9
-60 -1 -60 171 0 127 3 157 15 165 17 11 64 12 138 4z m-430 -466 c56 -6 102
-15 102 -20 0 -12 -144 -8 -223 6 -38 6 -65 15 -61 19 10 10 64 9 182 -5z
m-318 -33 c129 -8 287 -21 350 -29 63 -8 144 -17 180 -21 77 -8 336 -52 348
-59 5 -3 29 -6 55 -7 59 -3 65 -29 12 -48 -41 -14 -45 -37 -14 -72 12 -13 43
-56 70 -95 61 -91 152 -188 204 -218 51 -30 163 -76 186 -76 15 0 49 -53 49
-78 0 -6 6 -13 13 -16 6 -3 -10 -2 -38 2 -65 9 -310 6 -327 -4 -8 -5 16 -14
62 -25 l75 -17 -102 5 c-98 6 -103 5 -103 -14 0 -18 118 -113 189 -152 38 -20
92 -69 81 -73 -5 -2 21 -4 58 -5 37 -1 80 -6 95 -12 24 -10 28 -16 25 -44 -3
-28 -8 -34 -43 -44 -22 -7 -85 -13 -141 -13 -69 0 -106 -4 -119 -14 -19 -13
-19 -15 -1 -54 23 -52 16 -72 -25 -72 -25 0 -45 13 -95 60 -36 33 -78 67 -94
75 -50 26 -36 44 40 57 41 6 40 7 -14 4 -37 -2 -95 6 -155 20 -53 13 -120 24
-149 24 -62 0 -190 -18 -213 -31 -9 -4 -36 -9 -60 -10 -24 -1 -50 -7 -56 -12
-9 -7 -13 -5 -13 6 0 27 30 86 49 96 10 6 22 26 25 46 4 19 10 35 14 35 10 0
33 62 26 69 -7 8 -34 -29 -34 -46 0 -7 -7 -13 -15 -13 -8 0 -19 -8 -24 -19
-14 -25 -47 -33 -62 -14 -18 21 -77 43 -116 43 -38 0 -73 15 -73 31 0 7 33 10
88 8 93 -2 163 9 169 27 3 10 -293 18 -310 7 -4 -3 -2 -12 5 -21 11 -14 10
-15 -12 -9 -14 4 -121 7 -237 7 l-213 0 0 94 0 94 83 6 c45 3 200 10 344 16
271 10 299 14 334 56 8 9 10 15 4 13 -89 -42 -90 -42 -270 -47 l-180 -5 -33
28 c-23 19 -31 33 -27 46 8 25 -32 44 -125 58 -41 7 -87 14 -102 17 l-28 6 0
164 0 165 170 -5 c93 -3 178 -10 188 -15 10 -5 45 -7 77 -4 90 7 386 -22 425
-42 31 -16 32 -18 27 -65 -3 -27 -15 -68 -25 -92 -11 -24 -22 -59 -26 -78 l-6
-35 20 40 c11 22 20 45 20 51 0 7 9 31 20 55 35 77 25 130 -31 159 -32 18
-317 43 -741 66 l-118 6 0 39 0 39 78 0 c42 0 183 -7 312 -15z m700 -4 c0 -5
-7 -11 -15 -15 -22 -8 -106 5 -99 15 7 12 114 12 114 0z m11296 -104 c3 -23
-3 -21 -17 4 -8 17 -8 20 2 17 7 -2 13 -12 15 -21z m72 -44 c-10 -2 -28 -2
-40 0 -13 2 -5 4 17 4 22 1 32 -1 23 -4z m-308 -22 c0 -15 -8 -18 -52 -17 -84
2 -59 23 40 35 6 0 12 -7 12 -18z m-733 -12 c15 -6 85 -12 155 -14 134 -3 151
-7 142 -30 -8 -20 -67 -35 -138 -35 -47 0 -57 3 -53 14 9 23 -23 27 -77 11
-27 -8 -65 -15 -85 -15 -37 0 -81 23 -81 42 0 33 80 49 137 27z m277 -138 c10
-16 -48 -31 -102 -26 -62 5 -80 14 -61 26 18 11 156 12 163 0z m-9634 -477 c0
-17 -26 -19 -36 -3 -7 12 15 31 28 23 4 -3 8 -12 8 -20z m9080 -34 c0 -12 -42
-30 -68 -30 -25 0 -46 16 -38 29 9 14 106 15 106 1z m-9060 -188 c0 -15 -2
-15 -10 -2 -13 20 -13 33 0 25 6 -3 10 -14 10 -23z m8996 -28 c33 -16 39 -24
41 -52 1 -18 12 -45 27 -63 18 -21 26 -42 26 -70 0 -24 5 -39 12 -39 8 0 5 -7
-6 -17 -16 -17 -18 -17 -35 4 -10 12 -31 25 -47 29 -16 4 -35 16 -42 26 -7 10
-19 18 -25 18 -7 0 -18 9 -25 20 -7 11 -34 30 -60 43 -51 24 -65 51 -33 62 13
4 21 15 21 29 0 12 3 26 8 30 12 13 96 1 138 -20z m-8902 -132 c-1 -7 -2 -21
-2 -32 -3 -34 -18 -22 -20 16 -2 26 1 35 10 32 7 -3 13 -10 12 -16z m-1051
-29 c-18 -2 -48 -2 -65 0 -18 2 -4 4 32 4 36 0 50 -2 33 -4z m97 -38 c47 -30
49 -38 14 -54 -24 -11 -25 -10 -22 16 2 23 -1 29 -19 31 -13 2 -23 10 -23 18
0 19 4 18 50 -11z m-250 -52 c17 -29 28 -53 25 -53 -14 0 -95 92 -89 101 12
20 35 3 64 -48z m-65 -15 c25 -41 46 -88 39 -88 -3 0 -27 21 -54 46 -39 37
-48 50 -39 60 18 22 33 17 54 -18z m9778 -35 c-7 -2 -21 -2 -30 0 -10 3 -4 5
12 5 17 0 24 -2 18 -5z m85 -8 c-10 -11 -48 -14 -53 -4 -4 5 8 9 26 9 18 0 30
-2 27 -5z m-9705 -15 c16 0 18 -3 10 -11 -14 -14 -63 -4 -63 12 0 6 7 8 16 5
9 -3 25 -6 37 -6z m9592 -10 c3 -4 -4 -15 -15 -25 -11 -10 -20 -26 -20 -37 0
-14 8 -18 39 -18 22 0 43 -4 46 -10 3 -5 17 -10 29 -10 13 0 49 -12 80 -26 45
-21 55 -29 46 -39 -7 -8 -30 -15 -53 -17 -53 -4 -59 -24 -8 -32 28 -4 47 -15
64 -37 14 -18 49 -46 79 -63 75 -42 131 -80 146 -99 25 -30 -9 -29 -66 1 -51
27 -110 52 -166 69 -10 3 -30 16 -44 29 -18 18 -28 21 -38 13 -8 -7 -33 -8
-68 -4 -44 6 -62 4 -81 -9 -13 -9 -40 -16 -59 -16 -34 0 -35 1 -38 47 -3 44
-4 46 -20 30 -10 -11 -19 -13 -23 -7 -8 13 -62 13 -70 0 -4 -6 -11 -8 -16 -5
-5 4 -9 -1 -9 -10 0 -10 -7 -15 -17 -13 -14 2 -18 13 -18 43 0 33 3 40 20 40
11 0 23 5 27 10 4 6 47 11 95 13 48 1 98 5 111 8 27 6 29 30 2 39 -11 3 -20
12 -20 20 0 7 -16 30 -35 51 -40 42 -39 40 -22 59 12 14 114 18 122 5z m-9540
-87 c18 -12 18 -13 -10 -12 -53 1 -121 15 -105 22 42 17 80 14 115 -10z m69 8
c4 -5 40 -12 82 -16 76 -8 100 -23 76 -47 -9 -9 -32 -5 -89 12 -84 26 -106 37
-97 51 7 12 21 11 28 0z m11588 -34 l-7 -22 -3 23 c-2 12 -7 20 -12 17 -5 -3
-6 -13 -3 -21 4 -11 0 -15 -13 -12 -13 2 -20 -4 -22 -19 -3 -23 -22 -33 -22
-12 0 6 -7 9 -15 5 -8 -3 -21 1 -29 9 -8 8 -28 15 -45 15 -30 0 -41 -13 -21
-25 6 -4 8 -10 5 -15 -3 -5 25 -8 62 -6 61 3 69 1 86 -21 10 -12 17 -31 15
-41 -3 -15 -21 -18 -148 -23 -80 -4 -397 -8 -705 -10 -581 -3 -615 -1 -615 38
0 10 23 13 98 13 202 0 517 20 792 50 47 6 114 12 150 15 68 6 149 17 260 36
133 22 163 28 167 33 13 12 30 -7 25 -27z m-12368 13 c-12 -12 -200 -30 -321
-30 -66 0 -83 3 -83 15 0 17 42 20 265 23 103 1 146 -1 139 -8z m559 -34 c-6
-31 34 -48 52 -22 15 20 55 21 55 1 0 -9 10 -19 23 -24 22 -9 23 -12 16 -72
-4 -34 -3 -73 2 -86 8 -23 9 -23 51 -6 24 9 52 24 64 35 34 30 40 20 8 -13
-88 -94 -293 -105 -391 -21 -43 36 -89 120 -74 135 6 6 11 8 11 4 0 -4 17 2
37 13 21 11 43 20 49 20 16 0 73 30 80 42 5 8 1 9 -12 3 -61 -25 -174 -62
-179 -57 -3 3 -5 20 -5 39 0 34 13 44 24 18 7 -19 54 -13 126 15 51 20 70 13
63 -24z m960 37 c-13 -2 -35 -2 -50 0 -16 2 -5 4 22 4 28 0 40 -2 28 -4z
m-661 -65 c15 -6 40 -7 55 -4 22 6 25 5 15 -7 -7 -8 -9 -17 -5 -20 3 -4 1 -13
-6 -21 -10 -11 -20 -10 -69 10 -31 13 -69 24 -84 24 -29 0 -43 14 -33 30 8 12
84 5 127 -12z m588 -38 c0 -5 -9 -10 -20 -10 -11 0 -20 5 -20 10 0 6 9 10 20
10 11 0 20 -4 20 -10z m10917 -52 c-2 -13 -4 -5 -4 17 -1 22 1 32 4 23 2 -10
2 -28 0 -40z m-9604 -40 c7 -23 1 -38 -14 -38 -5 0 -9 14 -9 30 0 35 15 40 23
8z m7565 -81 c13 -15 62 -21 62 -7 0 16 27 12 99 -14 63 -23 145 -65 139 -71
-6 -6 -92 17 -143 37 -27 11 -61 22 -75 25 -25 4 -25 4 3 -12 36 -21 26 -35
-23 -35 -22 0 -55 -9 -76 -22 -29 -17 -40 -19 -55 -10 -28 18 -51 15 -47 -5 3
-13 13 -18 41 -18 21 0 41 -5 45 -10 4 -6 22 -22 41 -34 32 -23 34 -23 61 -7
16 9 39 16 53 16 14 0 49 12 77 26 46 23 55 25 76 13 33 -17 30 -30 -16 -59
-24 -14 -40 -32 -40 -43 0 -22 -44 -67 -65 -67 -8 0 -17 -4 -20 -10 -4 -6 -55
-10 -121 -10 l-115 0 -86 42 c-121 60 -167 113 -179 203 -8 60 -2 63 90 58 67
-5 88 -2 107 11 29 20 151 23 167 3z m-7546 -14 c26 -23 22 -33 -11 -33 -33 0
-46 13 -37 35 7 20 25 19 48 -2z m43 -103 c9 -17 13 -34 11 -39 -9 -13 32 -44
49 -38 10 5 15 0 15 -13 0 -18 -7 -20 -76 -20 -60 0 -75 3 -71 13 3 8 1 20 -3
27 -8 14 -15 16 -70 27 -16 3 -27 9 -24 14 3 5 -5 9 -18 9 -40 1 40 30 95 35
27 2 52 7 55 10 11 11 22 4 37 -25z m-497 -13 c2 -15 0 -27 -4 -27 -16 0 -42
33 -37 46 9 24 38 11 41 -19z m8699 7 c80 -27 113 -47 113 -70 0 -7 10 -19 22
-25 27 -14 88 -76 88 -88 0 -15 -72 -21 -267 -21 -171 0 -193 2 -202 17 -7 12
-4 25 8 43 10 14 23 41 31 60 41 111 40 110 87 110 23 0 78 -12 120 -26z
m-8421 -27 c2 -7 -2 -30 -11 -50 -15 -36 -16 -37 -70 -37 -36 0 -55 4 -55 12
0 9 -3 9 -12 0 -18 -18 -28 -15 -28 9 0 20 4 21 59 14 l58 -7 7 36 c5 27 12
36 27 36 11 0 22 -6 25 -13z m8996 -25 c17 -17 -153 -14 -197 3 -39 15 -37 15
74 10 63 -2 118 -8 123 -13z m-9368 -18 c9 -3 16 -10 16 -16 0 -14 -43 -5 -48
10 -4 13 7 15 32 6z m-69 -94 c-3 -5 -16 -10 -28 -10 -18 0 -19 2 -7 10 20 13
43 13 35 0z m186 -60 c5 0 9 -4 9 -9 0 -15 -193 -40 -323 -40 -147 -1 -108 15
57 23 79 4 161 14 182 21 22 8 45 12 52 10 8 -3 18 -5 23 -5z m-457 -25 c-22
-16 -44 -19 -44 -6 0 9 21 18 49 20 10 1 9 -4 -5 -14z m456 -67 c0 -13 -19
-19 -62 -20 -24 -1 -46 -6 -50 -12 -10 -14 -99 -12 -147 4 -33 10 -43 11 -56
0 -13 -10 -15 -9 -15 8 0 15 8 22 28 24 48 7 302 3 302 -4z m-470 -28 c0 -5
-23 -10 -51 -10 -31 0 -48 4 -44 10 3 6 26 10 51 10 24 0 44 -4 44 -10z m85 0
c4 -6 -7 -10 -24 -10 -17 0 -31 5 -31 10 0 6 11 10 24 10 14 0 28 -4 31 -10z
m-432 -17 c-13 -2 -33 -2 -45 0 -13 2 -3 4 22 4 25 0 35 -2 23 -4z m495 -10
c-10 -2 -28 -2 -40 0 -13 2 -5 4 17 4 22 1 32 -1 23 -4z m-119 -63 c10 0 21 3
24 7 10 10 229 3 247 -8 9 -5 -56 -8 -165 -7 -99 0 -170 3 -157 5 12 2 22 10
23 16 0 9 2 8 6 0 2 -7 13 -13 22 -13z m9474 -17 c-24 -2 -62 -2 -85 0 -24 2
-5 4 42 4 47 0 66 -2 43 -4z m230 0 c-13 -2 -33 -2 -45 0 -13 2 -3 4 22 4 25
0 35 -2 23 -4z"/>
<path d="M3031 6283 c0 -21 4 -47 8 -58 7 -17 9 -15 13 14 6 40 -1 81 -13 81
-5 0 -9 -17 -8 -37z"/>
<path d="M2560 6220 c0 -5 10 -10 23 -10 18 0 19 2 7 10 -19 13 -30 13 -30 0z"/>
<path d="M3462 6210 c0 -19 2 -27 5 -17 2 9 2 25 0 35 -3 9 -5 1 -5 -18z"/>
<path d="M5701 6231 c-15 -10 -8 -15 34 -25 29 -7 29 -7 11 13 -21 23 -25 24
-45 12z"/>
<path d="M7160 5826 c-21 -17 -39 -34 -39 -38 -1 -15 18 -8 49 19 l32 26 121
-12 c67 -7 142 -15 167 -17 25 -2 55 -9 68 -16 17 -9 27 -8 46 1 13 7 33 10
45 6 12 -4 21 -2 21 4 0 6 -15 11 -34 11 -19 0 -38 5 -41 10 -3 6 -37 10 -74
10 -37 0 -92 4 -122 9 -30 5 -87 12 -127 14 -70 4 -75 3 -112 -27z"/>
<path d="M6697 5803 c-14 -13 -6 -23 18 -23 28 0 34 15 9 24 -19 7 -19 7 -27
-1z"/>
<path d="M6782 5802 c-19 -2 -32 -8 -30 -14 5 -13 48 -17 96 -8 l33 5 -33 10
c-18 6 -48 9 -66 7z"/>
<path d="M7321 5781 c-11 -7 -9 -12 10 -24 25 -16 221 -28 234 -15 17 17 -12
26 -105 32 -56 4 -106 9 -113 11 -7 3 -18 1 -26 -4z"/>
<path d="M7127 5735 c-30 -27 -28 -45 4 -45 12 0 23 10 29 26 20 51 10 56 -33
19z"/>
<path d="M6690 5727 c0 -24 3 -25 63 -23 55 1 62 3 62 21 0 18 -8 20 -62 23
-61 3 -63 2 -63 -21z"/>
<path d="M3055 5680 c9 -14 90 -50 113 -50 18 1 -56 42 -97 55 -17 5 -21 4
-16 -5z"/>
<path d="M9912 5578 c-45 -28 -34 -34 14 -9 38 20 44 20 139 7 146 -21 235
-27 235 -16 0 12 -25 17 -125 25 -195 16 -228 15 -263 -7z"/>
<path d="M9307 5560 c21 -9 228 -30 283 -30 59 1 -11 19 -109 29 -129 14 -206
14 -174 1z"/>
<path d="M7125 5526 c-22 -19 -37 -37 -35 -39 3 -2 14 -9 25 -15 20 -11 19
-12 -3 -18 -19 -5 -22 -12 -18 -30 8 -32 -11 -31 -26 1 -6 14 -17 25 -25 25
-7 0 5 -24 30 -59 42 -57 42 -58 55 -35 14 26 58 32 92 14 22 -12 80 6 80 24
0 19 61 36 127 36 52 0 66 -4 92 -26 17 -14 31 -31 31 -36 0 -6 8 -17 17 -24
30 -21 6 -28 -51 -14 -82 19 -288 10 -347 -17 -50 -22 -64 -37 -54 -54 5 -7
12 -5 23 4 39 34 93 47 201 47 142 -1 189 -11 222 -48 15 -16 29 -36 32 -43 3
-11 7 -11 17 -2 9 8 12 37 12 85 -2 61 2 77 19 98 21 25 22 25 172 23 82 -2
155 -7 161 -12 6 -4 100 -11 210 -15 131 -5 212 -12 240 -21 22 -8 58 -15 79
-15 20 0 37 -4 37 -10 0 -5 4 -10 8 -10 8 0 42 63 42 79 0 4 -44 11 -97 15
-54 3 -136 11 -183 16 -47 5 -121 12 -165 15 -105 6 -248 23 -360 40 -114 18
-265 30 -265 21 0 -4 14 -12 30 -17 17 -6 30 -15 30 -19 0 -18 -21 -21 -42 -6
-13 10 -45 16 -78 17 -30 0 -73 3 -95 8 l-40 7 34 7 c58 12 22 24 -89 31
l-105 6 -40 -34z"/>
<path d="M8855 5550 c-12 -19 31 -32 123 -37 69 -4 101 -2 106 6 4 6 -2 15
-16 20 -33 12 -207 21 -213 11z"/>
<path d="M9963 5533 c9 -2 23 -2 30 0 6 3 -1 5 -18 5 -16 0 -22 -2 -12 -5z"/>
<path d="M10047 5534 c-3 -3 1 -13 9 -22 11 -10 47 -18 110 -23 93 -8 124 -5
124 11 0 12 -24 18 -95 25 -33 3 -78 8 -101 11 -22 2 -43 2 -47 -2z"/>
<path d="M9862 5493 c-52 -27 -66 -43 -37 -43 33 0 107 52 93 65 -2 3 -28 -7
-56 -22z"/>
<path d="M9349 5491 c18 -16 37 -21 81 -21 32 0 70 -2 86 -5 16 -3 36 -1 44 4
30 20 -8 32 -121 37 l-114 5 24 -20z"/>
<path d="M5555 5385 l-60 -13 90 5 c50 3 94 9 100 14 13 13 -59 9 -130 -6z"/>
<path d="M9895 5379 c-22 -12 -62 -34 -90 -49 -40 -22 -52 -26 -61 -16 -7 7
-41 14 -80 15 -38 1 -214 15 -392 31 -416 39 -392 39 -392 -5 0 -32 2 -35 23
-30 23 6 191 -5 382 -25 55 -6 152 -15 215 -20 160 -14 192 -20 213 -38 16
-14 19 -14 27 -2 6 8 10 18 10 21 0 3 44 26 98 52 l97 46 130 -9 c72 -5 186
-14 254 -20 121 -11 151 -9 151 8 0 9 -73 18 -372 47 -183 18 -166 19 -213 -6z"/>
<path d="M11354 5375 c86 -19 294 -30 280 -15 -13 13 -167 30 -269 29 l-70 -1
59 -13z"/>
<path d="M10902 5374 c-9 -4 -4 -11 15 -21 36 -19 212 -38 226 -24 19 19 -4
28 -80 35 -43 4 -94 9 -113 11 -19 2 -41 2 -48 -1z"/>
<path d="M11682 5355 c8 -8 271 -45 318 -44 25 0 54 4 65 9 17 6 15 8 -15 13
-83 14 -378 31 -368 22z"/>
<path d="M5320 5325 c-19 -7 -28 -14 -19 -14 9 -1 32 6 50 14 43 18 16 18 -31
0z"/>
<path d="M9890 5300 c-30 -16 -59 -31 -65 -33 -6 -2 -5 -10 3 -19 9 -11 10
-23 2 -42 -13 -35 -47 -35 -60 0 -6 14 -15 22 -21 19 -7 -5 -5 -13 5 -24 9
-10 16 -21 16 -25 0 -9 42 -66 50 -66 3 0 11 14 17 30 13 35 39 39 96 15 20
-8 52 -15 71 -15 30 0 35 3 38 27 3 25 8 29 56 36 69 11 134 -9 142 -44 8 -31
32 -35 45 -7 6 12 24 26 40 31 39 11 354 1 390 -13 15 -6 87 -16 159 -22 72
-6 135 -15 141 -19 5 -6 1 -9 -10 -9 -25 0 -174 -55 -189 -70 -6 -6 12 -3 39
6 28 8 94 21 148 28 54 7 101 17 106 22 7 8 31 83 31 96 0 3 -33 8 -72 12 -40
4 -111 12 -158 16 -47 5 -103 11 -125 13 -22 2 -96 9 -165 15 -69 7 -154 16
-190 22 -179 26 -208 23 -157 -14 22 -17 22 -17 -13 -10 -19 3 -64 9 -100 13
-63 7 -64 7 -28 15 57 12 37 23 -54 30 -46 4 -94 9 -108 11 -15 2 -47 -8 -80
-25z"/>
<path d="M11382 5315 c17 -18 28 -20 139 -30 53 -4 68 -2 72 10 9 22 -2 25
-120 31 -103 6 -107 6 -91 -11z"/>
<path d="M8602 5308 c-14 -14 -16 -28 -3 -28 5 0 11 9 14 20 6 23 5 24 -11 8z"/>
<path d="M8680 5310 c0 -5 -6 -10 -14 -10 -18 0 -46 -38 -46 -63 0 -10 6 -24
13 -31 18 -19 57 -30 57 -17 0 6 13 11 29 11 34 0 51 -37 25 -57 -22 -16 -2
-25 44 -17 27 4 43 2 53 -8 8 -8 30 -17 49 -21 19 -3 46 -9 59 -13 17 -5 22
-4 17 4 -4 6 -25 17 -48 24 -22 6 -45 19 -51 29 -8 13 -17 15 -41 8 -17 -5
-32 -9 -33 -9 -2 0 -3 9 -3 20 0 20 28 28 44 13 11 -11 35 -12 42 -2 6 10 47
3 81 -13 24 -12 101 -1 87 11 -5 5 -31 17 -59 27 -69 25 -94 42 -101 71 -5 20
-11 23 -28 18 -27 -8 -31 -8 -98 -7 -51 2 -58 5 -58 22 0 11 -4 20 -10 20 -5
0 -10 -4 -10 -10z"/>
<path d="M12335 5288 c-103 -35 -102 -35 -88 -49 14 -14 91 8 116 33 10 10 23
18 30 18 7 0 22 7 33 15 28 21 10 18 -91 -17z"/>
<path d="M12506 5312 c-3 -5 4 -18 15 -28 15 -14 44 -20 107 -26 82 -6 88 -5
104 15 9 12 14 25 10 28 -12 11 -229 21 -236 11z"/>
<path d="M11810 5292 c0 -28 29 -40 116 -46 75 -5 93 -3 98 9 8 21 -5 26 -107
36 -114 11 -107 11 -107 1z"/>
<path d="M5225 5280 c-3 -5 1 -10 9 -10 8 0 18 5 21 10 3 6 -1 10 -9 10 -8 0
-18 -4 -21 -10z"/>
<path d="M8578 5265 c-4 -4 -24 -9 -45 -10 -70 -4 -190 -34 -278 -71 -90 -37
-191 -94 -167 -94 7 0 10 -5 6 -12 -5 -8 0 -9 17 -4 13 3 36 9 52 12 15 4 27
10 27 15 0 28 225 97 329 101 38 1 65 7 68 14 7 18 -1 57 -9 49z"/>
<path d="M8518 5143 c12 -2 30 -2 40 0 9 3 -1 5 -23 4 -22 0 -30 -2 -17 -4z"/>
<path d="M9977 5111 c-75 -11 -145 -38 -157 -62 -13 -23 -4 -25 16 -4 50 49
320 70 399 30 37 -19 40 -24 46 -73 10 -82 19 -74 18 16 -1 62 -4 82 -16 86
-27 11 -246 15 -306 7z"/>
<path d="M11155 5090 c-17 -18 -17 -20 -1 -20 9 0 19 7 23 15 9 25 -2 27 -22
5z"/>
<path d="M8465 5079 c-44 -11 -84 -24 -89 -29 -6 -6 -20 -10 -32 -10 -41 0
-218 -101 -298 -171 -97 -84 -133 -142 -220 -344 -40 -93 -52 -137 -61 -220
-10 -100 -10 -100 -50 -100 -19 0 -35 3 -35 7 0 4 -7 8 -15 8 -8 0 -15 -5 -15
-11 0 -5 -4 -7 -10 -4 -5 3 -10 22 -10 41 0 19 -4 34 -10 34 -11 0 -14 -148
-4 -174 5 -12 21 -16 72 -16 62 0 75 11 27 23 -11 3 16 4 60 4 79 -2 80 -2 77
-27 -2 -14 -7 -29 -12 -34 -5 -5 -52 -3 -109 3 -56 7 -106 9 -111 6 -22 -13 4
-25 58 -27 l57 -1 -60 -6 c-51 -5 -60 -9 -60 -26 0 -17 9 -21 65 -28 67 -8 80
-17 80 -54 0 -12 6 -23 13 -26 29 -10 -3 -14 -58 -7 -46 6 -51 8 -22 9 57 2
44 16 -18 19 -56 3 -55 4 -59 -40 -1 -9 22 -15 69 -18 l70 -5 7 -565 c4 -311
11 -691 14 -846 l6 -281 115 -6 c64 -3 120 -10 126 -16 6 -6 38 -11 72 -12 33
0 80 -4 105 -8 30 -5 -18 -8 -144 -10 -103 -1 -192 -3 -196 -6 -4 -2 -21 0
-38 4 -24 7 -32 6 -36 -6 -9 -22 -7 -61 2 -67 9 -5 265 -11 1007 -21 549 -8
609 -11 613 -28 2 -12 -5 -13 -40 -6 -70 13 -176 11 -185 -5 -15 -25 -63 -25
-90 0 -31 29 -45 30 -68 4 -17 -19 -18 -19 -44 -1 -22 16 -40 18 -111 15 -115
-6 -134 -11 -125 -32 4 -9 8 -24 9 -32 2 -22 39 -51 48 -37 4 7 11 7 22 -2 19
-16 11 -33 -12 -29 -23 3 -72 -11 -72 -21 0 -4 -22 -9 -50 -10 -47 -1 -50 0
-50 24 0 15 -6 25 -15 25 -11 0 -12 -5 -5 -24 5 -13 7 -32 6 -42 -3 -17 -18
-20 -162 -27 -143 -7 -309 -1 -276 10 14 6 17 83 2 83 -5 0 -10 19 -10 43 -1
68 -15 79 -112 82 -46 1 -55 0 -20 -2 l62 -4 0 -44 c0 -28 -5 -45 -12 -45 -13
0 -72 -62 -76 -82 -8 -35 -37 -48 -107 -48 -39 -1 -78 0 -89 2 -13 2 -20 -4
-22 -19 -4 -25 13 -32 22 -9 5 12 10 12 39 0 23 -9 75 -14 157 -15 105 0 247
-14 181 -18 -16 -1 -23 -7 -23 -20 0 -16 9 -21 43 -24 23 -2 -7 -4 -68 -4 -60
0 -137 -6 -170 -13 -33 -6 -80 -13 -105 -13 -37 -2 -46 2 -56 21 -19 38 -26
10 -31 -112 -6 -135 3 -156 54 -131 25 12 40 13 75 6 23 -6 86 -11 139 -11 52
0 99 -4 105 -9 5 -5 23 -11 39 -13 17 -2 -53 -7 -155 -11 -179 -8 -245 -19
-190 -31 14 -3 109 -8 213 -12 103 -3 187 -10 187 -15 0 -17 83 -32 116 -20
44 16 111 14 117 -3 3 -8 1 -28 -6 -45 l-11 -30 -185 -5 c-103 -3 -204 -7
-226 -10 -131 -16 -195 -18 -195 -7 0 7 -4 9 -10 6 -18 -11 -12 -62 8 -67 9
-2 175 -5 367 -7 193 -2 352 -6 355 -10 3 -4 55 -7 115 -6 61 0 215 2 344 3
l233 2 -6 32 c-3 18 -9 53 -12 76 -7 44 -7 44 22 40 27 -3 29 -1 26 32 -1 19
-10 43 -20 53 -16 18 -15 20 11 39 15 11 25 24 21 29 -8 13 63 140 88 157 21
15 21 18 14 386 -3 204 -11 511 -16 681 -6 171 -11 470 -13 665 l-2 354 100
34 c75 26 122 35 190 39 158 7 174 15 55 28 -104 12 -105 11 -185 -18 -149
-54 -229 -69 -180 -33 10 7 15 18 11 24 -13 22 45 46 279 115 22 7 70 12 108
12 44 0 67 4 67 12 0 7 -34 14 -95 18 -52 4 -98 11 -101 16 -3 5 37 9 88 10
73 1 85 3 58 9 -19 5 -69 10 -110 11 -67 1 -89 -4 -200 -44 -173 -63 -180 -64
-181 -38 -1 12 -2 26 -3 33 -1 6 13 16 29 21 50 16 55 25 55 99 0 39 9 120 20
182 11 61 26 164 34 230 7 65 19 122 25 125 19 12 -41 114 -116 198 -83 93
-187 172 -316 241 -119 63 -177 85 -193 71 -6 -5 -51 -7 -103 -4 -74 4 -96 2
-116 -11 -22 -14 -25 -15 -25 -1 0 8 6 17 13 20 6 2 9 7 6 11 -14 15 -70 13
-144 -5z m-548 -2906 c-20 -2 -52 -2 -70 0 -17 2 0 4 38 4 39 0 53 -2 32 -4z
m998 -53 c-11 -5 -42 -8 -70 -8 l-50 1 50 7 c28 4 59 7 70 8 l20 1 -20 -9z
m457 -249 c-25 -11 -37 -12 -54 -3 -13 6 -36 13 -53 15 -16 3 8 4 54 4 82 -1
83 -1 53 -16z m-832 -151 c0 -5 -6 -10 -12 -11 -7 0 -4 -4 7 -9 11 -5 14 -9 7
-9 -7 -1 -11 -5 -8 -10 8 -12 -35 -17 -131 -13 l-83 4 0 29 0 29 110 0 c67 0
110 -4 110 -10z m-80 -319 c0 -13 -39 -21 -74 -14 -26 5 -27 7 -11 14 28 11
85 11 85 0z"/>
<path d="M8012 5039 c-39 -39 -45 -41 -85 -36 -35 5 -47 1 -75 -20 -19 -14
-41 -23 -52 -20 -16 4 -17 2 -8 -13 10 -15 6 -26 -25 -63 -33 -41 -93 -157
-146 -284 -22 -53 -30 -186 -12 -197 4 -3 14 22 21 57 38 188 123 380 188 423
23 15 25 14 40 -7 l15 -22 21 25 c12 14 53 51 91 82 39 32 78 64 88 72 10 8
17 20 14 27 -8 24 -33 16 -75 -24z"/>
<path d="M4907 5046 c-4 -10 -1 -13 9 -9 15 6 19 23 5 23 -5 0 -11 -7 -14 -14z"/>
<path d="M11090 5053 c-80 -9 -167 -36 -246 -74 -46 -23 -84 -45 -84 -49 0 -4
-10 -10 -22 -14 -18 -4 -100 -68 -163 -126 -76 -70 -99 -122 -57 -128 19 -3
22 1 22 28 0 23 10 41 42 70 23 22 42 40 43 40 1 0 21 18 44 40 23 22 48 40
56 40 8 0 15 5 15 11 0 6 9 9 20 6 10 -3 25 1 31 9 29 36 181 84 262 84 55 0
68 3 77 19 12 23 13 52 3 49 -5 0 -24 -3 -43 -5z"/>
<path d="M7590 5040 c0 -5 25 -10 55 -10 30 0 55 5 55 10 0 6 -25 10 -55 10
-30 0 -55 -4 -55 -10z"/>
<path d="M8185 5040 c-3 -5 1 -10 9 -10 8 0 18 5 21 10 3 6 -1 10 -9 10 -8 0
-18 -4 -21 -10z"/>
<path d="M4727 4982 c-10 -10 -15 -21 -12 -24 3 -3 -6 -17 -20 -32 -27 -29
-30 -36 -17 -36 11 0 76 99 70 106 -3 2 -12 -4 -21 -14z"/>
<path d="M11035 4940 c-15 -6 -6 -9 32 -9 28 -1 55 4 58 9 8 12 -61 12 -90 0z"/>
<path d="M10930 4910 c-18 -12 -2 -12 25 0 13 6 15 9 5 9 -8 0 -22 -4 -30 -9z"/>
<path d="M3835 4832 c-11 -2 -31 -14 -45 -25 -14 -11 -17 -17 -8 -14 9 3 33 9
52 13 20 3 36 10 36 15 0 12 -13 16 -35 11z"/>
<path d="M10462 4785 c-23 -25 -42 -48 -42 -51 0 -3 -19 -36 -43 -73 -24 -36
-48 -82 -55 -102 -15 -43 -16 -149 -2 -149 6 0 10 6 10 13 0 58 157 349 196
364 25 9 9 43 -20 43 -1 0 -21 -20 -44 -45z"/>
<path d="M4616 4755 c10 -8 24 -14 29 -14 6 0 1 6 -9 14 -11 8 -24 15 -30 15
-5 0 -1 -7 10 -15z"/>
<path d="M3870 4728 c0 -7 5 -20 10 -28 8 -12 10 -9 10 13 0 15 -4 27 -10 27
-5 0 -10 -6 -10 -12z"/>
<path d="M10546 4633 c-3 -10 -9 -25 -12 -33 -4 -8 4 -5 17 7 17 16 20 26 12
34 -7 7 -12 5 -17 -8z"/>
<path d="M6765 4124 l-30 -26 35 19 c21 11 67 20 115 24 l80 5 -85 2 c-78 1
-88 -1 -115 -24z"/>
<path d="M9560 3985 c-32 -18 -25 -18 25 0 22 8 31 14 20 14 -11 0 -31 -6 -45
-14z"/>
<path d="M3967 3903 c-45 -5 -67 -38 -50 -75 10 -22 10 -22 17 9 12 55 24 58
195 58 154 0 263 -14 296 -39 13 -9 16 -39 16 -174 1 -89 5 -162 10 -162 5 0
9 48 9 108 0 59 3 124 6 145 l7 37 66 2 66 2 -70 5 c-57 5 -70 9 -70 23 0 10
-5 22 -11 28 -28 28 -332 49 -487 33z"/>
<path d="M12095 3851 c-4 -8 21 -11 76 -11 45 0 80 2 78 4 -11 10 -148 16
-154 7z"/>
<path d="M7582 3721 c4 -13 18 -16 19 -4 0 4 -5 9 -11 12 -7 2 -11 -2 -8 -8z"/>
<path d="M7590 3645 c0 -55 14 -91 25 -64 9 23 0 88 -13 101 -9 9 -12 0 -12
-37z"/>
<path d="M7663 3663 c9 -2 23 -2 30 0 6 3 -1 5 -18 5 -16 0 -22 -2 -12 -5z"/>
<path d="M3970 3431 c-36 -3 -58 -8 -50 -11 8 -3 67 0 130 6 86 8 99 11 50 11
-36 0 -94 -3 -130 -6z"/>
<path d="M4375 3410 c17 -5 41 -12 54 -16 18 -5 23 -4 19 7 -3 9 -22 15 -54
16 -42 1 -45 0 -19 -7z"/>
<path d="M3708 3393 c12 -2 30 -2 40 0 9 3 -1 5 -23 4 -22 0 -30 -2 -17 -4z"/>
<path d="M4588 3353 c12 -2 30 -2 40 0 9 3 -1 5 -23 4 -22 0 -30 -2 -17 -4z"/>
<path d="M3642 3140 c0 -19 2 -27 5 -17 2 9 2 25 0 35 -3 9 -5 1 -5 -18z"/>
<path d="M3713 1893 c37 -2 96 -2 130 0 34 2 4 3 -68 3 -71 0 -99 -1 -62 -3z"/>
<path d="M4448 1883 c23 -2 59 -2 80 0 20 2 1 4 -43 4 -44 0 -61 -2 -37 -4z"/>
<path d="M10280 1840 c0 -12 84 -12 120 0 18 6 4 8 -47 9 -43 1 -73 -3 -73 -9z"/>
<path d="M4419 1709 c-2 -40 -12 -74 -22 -81 -7 -4 1 -13 21 -25 18 -10 32
-23 32 -29 0 -11 -491 -30 -521 -20 -8 2 -40 7 -71 10 -53 6 -58 4 -58 -13 0
-11 -7 -24 -16 -29 -28 -15 -3 -19 88 -14 52 3 85 8 82 14 -4 6 23 8 72 4 44
-3 156 -10 249 -15 169 -9 215 -16 215 -32 0 -12 -40 -32 -80 -39 -31 -6 -28
-7 33 -15 62 -7 69 -10 84 -38 15 -30 16 -30 24 -11 4 12 3 42 -3 68 -7 33 -6
56 1 79 10 26 9 35 -7 56 -18 24 -52 37 -52 20 0 -4 -6 -6 -14 -3 -7 3 -16 27
-20 54 -6 45 -35 92 -37 59z m80 -198 c7 -5 12 -14 10 -20 -3 -7 -11 -3 -21 9
-18 21 -13 26 11 11z"/>
<path d="M9730 1670 c-24 -15 -7 -19 20 -5 15 8 19 14 10 14 -8 1 -22 -3 -30
-9z"/>
<path d="M4597 1534 c4 -52 13 -55 13 -6 0 23 -4 42 -8 42 -5 0 -7 -16 -5 -36z"/>
<path d="M7080 1519 c0 -21 3 -21 78 -14 42 3 88 9 102 13 22 5 21 7 -15 13
-22 5 -68 8 -102 8 -58 1 -63 -1 -63 -20z"/>
<path d="M9428 1533 c-39 -10 -15 -23 42 -23 62 0 77 -13 45 -40 -17 -15 -20
-36 -4 -45 12 -8 69 14 69 26 0 14 -28 11 -33 -3 -3 -7 -6 -4 -6 8 -1 11 5 28
12 38 12 16 30 18 148 17 78 0 126 3 114 8 -22 9 -360 21 -387 14z"/>
<path d="M7468 1513 c12 -2 30 -2 40 0 9 3 -1 5 -23 4 -22 0 -30 -2 -17 -4z"/>
<path d="M9430 1461 c0 -10 50 -25 57 -17 3 2 2 9 -2 15 -8 13 -55 15 -55 2z"/>
<path d="M3746 1445 c-6 -17 2 -45 14 -45 4 0 10 7 14 15 3 9 19 15 38 15 l33
1 -40 14 c-50 18 -52 18 -59 0z"/>
<path d="M9610 1450 c0 -6 30 -10 70 -10 40 0 70 4 70 10 0 6 -30 10 -70 10
-40 0 -70 -4 -70 -10z"/>
<path d="M4597 1421 c-2 -10 -1 -25 4 -32 6 -10 9 -4 9 19 0 36 -5 42 -13 13z"/>
<path d="M7040 1426 c0 -15 8 -16 63 -10 68 7 87 14 41 14 -16 0 -46 3 -66 6
-31 6 -38 4 -38 -10z"/>
<path d="M3735 1340 c28 -12 47 -12 40 0 -3 6 -18 10 -33 9 -24 0 -25 -1 -7
-9z"/>
<path d="M8161 1321 c-9 -6 -10 -11 -2 -15 6 -4 9 -12 6 -17 -4 -5 1 -9 9 -9
9 0 16 7 16 15 0 8 5 15 11 15 5 0 7 5 4 10 -8 12 -25 13 -44 1z"/>
<path d="M9290 1233 c0 -22 26 -66 52 -89 14 -12 50 -25 89 -32 85 -15 306
-15 348 -1 42 15 81 51 81 76 0 18 -13 21 -202 36 -304 25 -368 27 -368 10z"/>
<path d="M4539 913 c-1 -5 -2 -12 -4 -18 -1 -5 -3 -15 -3 -22 -2 -8 -23 -10
-74 -7 -40 3 -113 1 -163 -5 l-90 -10 135 3 c154 3 224 -13 300 -70 8 -7 30
-15 48 -19 18 -4 52 -18 75 -31 23 -13 51 -24 62 -24 12 1 -3 12 -35 27 -30
15 -61 33 -69 40 -7 8 -26 17 -42 20 -15 3 -38 15 -51 27 l-23 21 37 3 c25 2
41 10 52 26 14 23 13 24 -23 35 -43 12 -130 15 -132 4z"/>
<path d="M4899 888 c22 -6 47 -6 70 0 33 9 29 10 -34 10 -62 0 -66 -1 -36 -10z"/>
<path d="M5048 893 c12 -2 30 -2 40 0 9 3 -1 5 -23 4 -22 0 -30 -2 -17 -4z"/>
<path d="M4420 710 c0 -5 23 -10 50 -10 28 0 50 5 50 10 0 6 -22 10 -50 10
-27 0 -50 -4 -50 -10z"/>
<path d="M4087 654 c-3 -4 1 -13 9 -22 12 -12 20 -12 40 -3 14 6 30 8 36 5 6
-4 8 -2 4 4 -4 7 7 12 31 15 21 2 4 4 -38 5 -42 1 -78 -1 -82 -4z"/>
<path d="M3840 604 c0 -5 9 -20 19 -33 16 -20 24 -23 56 -18 21 4 41 11 45 17
3 6 33 14 66 19 l59 9 -55 1 c-30 1 -85 4 -122 8 -38 3 -68 2 -68 -3z"/>
<path d="M3635 560 c-27 -30 -13 -70 25 -70 23 0 30 4 30 20 0 16 7 20 33 20
17 0 50 6 71 14 37 13 38 14 18 25 -11 6 -52 11 -90 11 -56 0 -72 -4 -87 -20z"/>
<path d="M3937 529 c7 -25 30 -36 45 -21 14 14 -7 42 -32 42 -13 0 -17 -5 -13
-21z"/>
<path d="M4416 501 c-18 -7 -18 -8 5 -14 35 -10 117 -8 123 2 12 19 -88 28
-128 12z"/>
<path d="M3808 491 c-20 -4 -44 -13 -52 -20 -14 -11 -14 -15 1 -37 14 -22 22
-24 99 -24 49 0 84 4 84 10 0 6 -20 10 -44 10 -77 0 -99 23 -54 54 24 17 22
17 -34 7z"/>
<path d="M3615 440 c-4 -6 6 -10 22 -10 22 0 25 2 13 10 -19 12 -27 12 -35 0z"/>
<path d="M4405 440 c-8 -12 42 -12 70 0 16 7 11 9 -22 9 -23 1 -45 -3 -48 -9z"/>
<path d="M4583 443 c9 -2 25 -2 35 0 9 3 1 5 -18 5 -19 0 -27 -2 -17 -5z"/>
<path d="M5835 440 c-4 -6 27 -10 87 -9 64 1 84 4 63 9 -45 11 -143 11 -150 0z"/>
<path d="M6113 443 c9 -2 25 -2 35 0 9 3 1 5 -18 5 -19 0 -27 -2 -17 -5z"/>
<path d="M3320 437 c0 -17 73 -39 107 -33 53 8 55 8 82 0 18 -5 23 -4 19 7 -3
8 -16 15 -29 17 -60 8 -179 14 -179 9z"/>
<path d="M3570 410 c-11 -7 -11 -10 -2 -10 7 0 10 -4 7 -10 -3 -5 -28 -10 -55
-10 -49 0 -73 -13 -44 -24 9 -3 61 -6 116 -6 89 0 99 2 96 18 -2 12 -16 18
-48 22 -25 3 -44 9 -42 15 5 14 -10 16 -28 5z"/>
<path d="M3770 361 l-35 -7 47 -12 c62 -16 98 -15 98 2 0 11 -49 29 -69 25 -3
-1 -22 -5 -41 -8z"/>
<path d="M3730 300 c0 -5 4 -10 9 -10 6 0 13 5 16 10 3 6 -1 10 -9 10 -9 0
-16 -4 -16 -10z"/>
<path d="M3179 254 c-6 -12 -9 -30 -6 -40 4 -15 5 -14 6 5 1 22 4 23 49 17 49
-6 85 6 67 23 -6 5 -31 11 -57 13 -40 3 -49 0 -59 -18z"/>
<path d="M3680 270 c-12 -8 -12 -10 3 -16 21 -8 67 3 67 16 0 13 -50 13 -70 0z"/>
<path d="M8555 260 c3 -5 17 -10 31 -10 13 0 24 5 24 10 0 6 -14 10 -31 10
-17 0 -28 -4 -24 -10z"/>
<path d="M4466 252 c5 -4 47 -5 94 -2 l85 7 -94 1 c-52 1 -91 -2 -85 -6z"/>
<path d="M3841 231 c-38 -4 -66 -11 -69 -18 -4 -15 49 -17 136 -7 46 6 50 8
35 20 -10 7 -22 13 -28 12 -5 -1 -39 -4 -74 -7z"/>
<path d="M4261 223 c-9 -10 -9 -13 1 -13 9 0 9 -3 -2 -11 -12 -8 -9 -9 10 -4
14 3 55 9 92 12 38 3 65 10 62 15 -3 5 -12 7 -18 5 -7 -3 -40 -2 -73 2 -43 5
-63 3 -72 -6z"/>
<path d="M4000 221 l-35 -7 53 -12 c65 -15 89 -15 97 -1 4 6 5 12 4 13 -10 8
-88 12 -119 7z"/>
<path d="M2380 6011 c0 -6 5 -13 10 -16 6 -3 10 1 10 9 0 9 -4 16 -10 16 -5 0
-10 -4 -10 -9z"/>
<path d="M4685 5800 c-3 -5 3 -10 14 -10 12 0 21 5 21 10 0 6 -6 10 -14 10 -8
0 -18 -4 -21 -10z"/>
<path d="M4658 5315 c-2 -25 0 -45 4 -45 5 0 8 20 8 45 0 25 -2 45 -4 45 -2 0
-6 -20 -8 -45z"/>
<path d="M337 5404 c-8 -8 1 -24 14 -24 5 0 9 7 9 15 0 15 -12 20 -23 9z"/>
<path d="M232 2310 c-74 -11 -77 -20 -5 -20 46 0 60 3 60 15 0 8 -1 14 -1 14
-1 -1 -25 -5 -54 -9z"/>
<path d="M564 1735 c-17 -13 -13 -14 49 -15 37 0 67 4 67 9 0 24 -86 29 -116
6z"/>
<path d="M1650 1450 c-12 -8 -10 -10 8 -10 13 0 20 4 17 10 -7 12 -6 12 -25 0z"/>
<path d="M1573 1433 c9 -2 25 -2 35 0 9 3 1 5 -18 5 -19 0 -27 -2 -17 -5z"/>
<path d="M10638 861 c-1 -6 -22 -11 -45 -12 -49 -3 -54 -11 -18 -27 41 -19 65
-15 75 14 6 14 10 27 10 30 0 8 -18 4 -22 -5z"/>
<path d="M915 882 c-22 -8 -55 -21 -74 -29 l-34 -13 27 -29 c30 -31 132 -85
181 -96 21 -5 26 -4 16 3 -10 7 -14 30 -13 77 0 53 -3 70 -19 86 -22 22 -30
22 -84 1z"/>
<path d="M1070 743 c0 -34 13 -44 23 -19 3 8 -1 22 -8 33 -13 17 -14 16 -15
-14z"/>
<path d="M10552 657 c-7 -8 -9 -17 -5 -20 3 -4 0 -14 -8 -23 -12 -16 -12 -17
6 -12 11 3 42 12 68 19 33 9 47 18 45 29 -4 21 -90 27 -106 7z"/>
<path d="M10560 556 c0 -9 7 -12 20 -9 11 3 20 9 20 14 0 5 -9 9 -20 9 -11 0
-20 -6 -20 -14z"/>
<path d="M3340 7019 c0 -17 4 -28 10 -24 6 3 10 17 10 31 0 13 -4 24 -10 24
-5 0 -10 -14 -10 -31z"/>
<path d="M7120 7019 c7 -11 14 -19 16 -16 7 7 -7 37 -17 37 -6 0 -5 -9 1 -21z"/>
<path d="M10754 6894 c4 -76 8 -139 9 -140 1 -1 39 -4 85 -6 l83 -3 -3 129 -3
130 -27 7 c-14 4 -54 10 -89 14 l-62 7 7 -138z"/>
<path d="M5156 7012 c-7 -11 33 -92 45 -92 5 0 9 5 9 11 0 18 360 -8 471 -35
35 -8 119 -17 186 -20 67 -3 130 -10 140 -15 10 -5 88 -15 173 -21 309 -23
281 -18 293 -50 9 -25 13 -27 34 -17 15 6 23 19 23 34 0 15 8 27 21 32 48 17
-44 39 -256 60 -115 12 -241 26 -280 31 -38 5 -119 14 -180 20 -60 6 -217 24
-348 40 -247 31 -322 36 -331 22z m1192 -159 c-10 -2 -26 -2 -35 0 -10 3 -2 5
17 5 19 0 27 -2 18 -5z"/>
<path d="M8276 6985 c-8 -41 3 -203 14 -210 4 -2 22 -6 41 -9 19 -2 60 -7 92
-11 l58 -7 -3 123 -3 123 -40 7 c-22 4 -65 10 -96 13 l-57 7 -6 -36z"/>
<path d="M10013 6989 c-11 -5 2 -8 35 -8 28 -1 52 1 52 3 0 8 -69 12 -87 5z"/>
<path d="M11053 6860 c3 -72 7 -133 9 -135 2 -1 39 -6 83 -10 l80 -7 -5 133
c-5 123 -6 133 -25 134 -11 1 -49 6 -84 10 l-64 8 6 -133z"/>
<path d="M8611 6903 c1 -82 16 -70 18 15 1 23 6 42 11 42 13 0 13 -14 -1 -122
-7 -52 -8 -93 -3 -98 5 -5 21 -6 37 -3 26 5 27 7 27 76 0 83 12 78 28 -12 13
-72 16 -78 52 -83 23 -3 25 1 28 37 2 22 1 77 -3 122 l-7 81 -76 7 c-42 4 -85
9 -94 11 -16 5 -18 -3 -17 -73z"/>
<path d="M11260 6839 c0 -77 4 -130 10 -134 19 -12 119 -8 135 5 11 9 14 35
12 123 l-2 111 -30 7 c-16 4 -51 9 -77 12 l-48 5 0 -129z"/>
<path d="M8840 6836 c0 -116 0 -117 26 -126 14 -6 55 -11 92 -12 l67 -2 0 114
0 115 -45 8 c-25 5 -66 11 -92 14 l-48 5 0 -116z"/>
<path d="M7343 6881 c40 -13 206 -23 186 -11 -9 5 -61 12 -115 15 -68 3 -90 2
-71 -4z"/>
<path d="M9884 6846 c-30 -29 -34 -36 -17 -31 16 4 26 0 38 -19 21 -31 14 -43
-30 -52 -19 -3 -35 -10 -35 -15 0 -5 -4 -9 -9 -9 -10 0 -2 48 10 56 5 3 9 9 9
14 0 11 -40 -1 -69 -22 -21 -15 -23 -20 -12 -45 6 -15 20 -39 31 -53 l18 -24
71 48 70 49 58 -11 c32 -6 86 -14 119 -18 l61 -6 34 37 c19 21 46 50 62 63 15
14 26 27 24 28 -6 6 -213 33 -304 40 l-90 7 -39 -37z"/>
<path d="M7554 6858 c-3 -4 5 -8 18 -9 23 -1 23 -1 -2 -10 -20 -7 -17 -8 14
-4 57 6 66 22 16 27 -23 2 -44 0 -46 -4z"/>
<path d="M10682 6623 l3 -118 28 -3 c26 -3 27 -1 27 41 0 24 -3 78 -6 120 -7
73 -8 77 -31 77 l-24 0 3 -117z"/>
<path d="M7685 6720 c-14 -6 -16 -9 -5 -10 60 -6 84 -9 153 -19 43 -6 99 -10
125 -10 42 2 39 3 -23 10 -67 9 -183 27 -215 34 -8 2 -24 0 -35 -5z"/>
<path d="M10764 6694 c2 -16 5 -66 5 -110 1 -94 -3 -90 101 -100 l70 -6 0 110
c0 61 -3 113 -7 115 -5 3 -45 8 -91 12 l-83 7 5 -28z"/>
<path d="M12348 6703 c-10 -2 -18 -9 -18 -14 0 -13 27 -11 36 2 4 7 32 9 83 6
57 -4 66 -4 36 3 -42 9 -108 11 -137 3z"/>
<path d="M8083 6683 c-18 -7 13 -37 31 -30 7 3 18 1 22 -3 19 -19 139 -50 193
-50 31 0 94 -7 141 -15 47 -9 128 -20 180 -25 52 -5 129 -14 170 -20 41 -5
131 -15 200 -20 163 -14 227 -27 243 -50 13 -18 14 -18 29 -1 25 29 30 79 10
90 -9 5 -87 16 -172 25 -85 9 -189 21 -230 26 -41 5 -124 14 -185 20 -60 6
-162 17 -225 25 -260 32 -378 40 -407 28z"/>
<path d="M11065 6679 c-11 -16 7 -210 19 -215 25 -10 147 -20 152 -13 2 5 2
56 -2 113 l-7 106 -31 4 c-86 13 -126 15 -131 5z"/>
<path d="M7660 6671 c0 -13 25 -20 39 -11 10 5 8 9 -4 14 -23 8 -35 8 -35 -3z"/>
<path d="M12273 6663 c-13 -8 -23 -20 -23 -24 0 -11 56 16 65 31 9 15 -17 11
-42 -7z"/>
<path d="M11272 6556 c2 -58 6 -107 9 -110 3 -3 40 -9 82 -12 55 -5 77 -4 77
5 0 6 -3 11 -7 11 -5 0 -7 44 -5 99 l3 98 -53 6 c-29 4 -66 7 -82 7 l-28 0 4
-104z m105 32 c-2 -13 -4 -5 -4 17 -1 22 1 32 4 23 2 -10 2 -28 0 -40z"/>
<path d="M12290 6550 c-52 -28 -103 -53 -112 -56 -10 -4 -18 -13 -18 -21 0
-21 25 -65 49 -87 19 -17 23 -18 39 -4 9 9 39 27 67 42 54 28 93 31 210 16
l70 -9 63 64 c34 35 62 66 62 68 0 2 -55 9 -122 16 -68 6 -143 14 -168 17 -40
4 -56 -2 -140 -46z m24 -71 c-4 -6 -11 -6 -20 2 -21 17 -17 31 6 19 11 -6 18
-15 14 -21z m-30 -1 c9 -12 12 -25 8 -29 -7 -7 -44 -12 -69 -10 -22 2 -14 37
10 49 31 15 34 15 51 -10z"/>
<path d="M9970 6579 c25 -4 59 -7 75 -7 22 0 18 3 -15 9 -25 4 -58 7 -75 7
-22 0 -18 -3 15 -9z"/>
<path d="M9370 6513 c0 -9 10 -11 33 -6 43 8 44 10 3 15 -25 3 -36 0 -36 -9z"/>
<path d="M10358 6423 c12 -2 30 -2 40 0 9 3 -1 5 -23 4 -22 0 -30 -2 -17 -4z"/>
<path d="M10655 6401 c-6 -5 -19 -11 -30 -14 -19 -5 -19 -5 1 -6 12 -1 26 -12
32 -26 14 -30 37 -41 55 -28 7 6 38 7 77 3 36 -5 124 -15 195 -23 72 -9 191
-21 265 -27 74 -6 160 -15 190 -20 30 -5 106 -14 168 -21 79 -8 115 -16 118
-25 14 -47 14 -47 29 -34 10 9 15 9 15 1 0 -6 8 -11 18 -11 17 0 18 6 11 57
-8 55 -19 73 -49 73 -23 0 -579 58 -822 85 -241 28 -260 29 -273 16z"/>
<path d="M12390 6317 c6 -6 198 -34 300 -43 55 -5 72 -3 64 5 -9 10 -102 22
-289 37 -44 4 -78 4 -75 1z"/>
<path d="M11905 6250 c22 -10 267 -41 274 -34 10 10 -12 16 -81 25 -120 15
-216 20 -193 9z"/>
<path d="M12379 2798 c-12 -51 5 -84 66 -124 49 -32 131 -14 163 36 14 23 -20
60 -65 72 -38 11 -162 23 -164 16z"/>
</g>
</svg>
