<?xml version="1.0" standalone="no"?>
<!DOCTYPE svg PUBLIC "-//W3C//DTD SVG 20010904//EN"
 "http://www.w3.org/TR/2001/REC-SVG-20010904/DTD/svg10.dtd">
<svg version="1.0" xmlns="http://www.w3.org/2000/svg"
 width="1280.000000pt" height="720.000000pt" viewBox="0 0 1280.000000 720.000000"
 preserveAspectRatio="xMidYMid meet">
<metadata>
Created by potrace 1.16, written by Peter Selinger 2001-2019
</metadata>
<g transform="translate(0.000000,720.000000) scale(0.100000,-0.100000)"
fill="#000000" stroke="none">
<path d="M1 4658 c1 -1399 4 -2534 6 -2522 3 14 21 28 61 44 31 12 71 29 87
36 306 131 596 214 860 245 236 28 1009 15 1225 -21 30 -5 89 -12 130 -15 41
-3 89 -10 105 -15 25 -8 283 -50 323 -52 25 -2 11 -28 -25 -44 -21 -10 -40
-19 -42 -20 -8 -7 30 -54 44 -54 14 0 53 18 65 30 3 3 21 14 40 24 19 10 46
29 60 41 14 12 61 46 105 75 105 70 139 94 145 101 3 3 20 12 38 20 17 8 32
17 32 21 0 5 5 8 10 8 6 0 27 11 48 23 20 13 58 36 85 50 26 15 66 38 90 51
38 22 128 60 233 99 22 9 97 24 165 34 106 15 191 18 575 18 l451 0 8 265 c7
247 20 487 23 448 1 -10 7 -18 12 -18 15 0 20 314 5 328 -3 4 -10 0 -15 -8
-20 -31 -9 66 14 125 l23 60 114 0 c111 0 114 1 117 23 2 12 -3 24 -10 27 -14
4 -133 14 -189 15 -35 0 -37 2 -35 33 l2 32 114 3 c63 2 116 4 117 6 1 1 4 42
6 91 3 50 6 95 7 100 1 6 2 56 1 113 -1 80 -4 102 -15 102 -7 0 -16 9 -19 20
-9 34 -23 22 -19 -15 3 -25 0 -36 -12 -41 -13 -5 -16 -18 -14 -64 2 -32 0 -62
-4 -66 -5 -4 -27 -8 -50 -8 -35 -1 -43 3 -46 19 -8 47 -12 49 -40 19 -16 -16
-34 -44 -41 -62 -8 -18 -16 -31 -18 -28 -12 12 -11 132 2 146 11 13 9 33 -10
125 -36 175 -66 251 -154 387 -95 146 -282 312 -425 378 -70 33 -216 90 -229
90 -9 0 -37 25 -37 34 0 12 48 5 123 -19 169 -54 320 -149 502 -317 16 -15 32
-25 35 -21 7 7 -166 170 -215 201 -22 14 -44 31 -50 36 -26 28 -276 133 -382
162 -17 4 -17 33 0 40 36 13 377 -119 377 -146 0 -5 10 -12 23 -16 33 -10 116
-67 171 -119 27 -25 69 -60 95 -79 25 -19 56 -48 69 -65 12 -17 30 -31 38 -31
11 0 14 -6 10 -16 -4 -11 1 -18 15 -21 11 -3 18 -11 16 -18 -3 -6 3 -17 14
-23 10 -7 30 -30 45 -53 14 -22 27 -39 30 -37 6 6 -56 132 -67 136 -5 2 -9 11
-9 20 0 9 -18 37 -40 63 -22 26 -40 50 -40 52 0 9 -111 117 -119 117 -5 0 -27
15 -49 33 -22 17 -63 48 -91 67 -35 24 -50 40 -47 52 2 10 0 21 -5 24 -5 3 -9
0 -9 -5 0 -19 -22 -12 -100 28 -41 21 -128 55 -193 76 -65 20 -114 41 -111 46
3 6 20 8 37 4 29 -5 28 -3 -13 18 -25 13 -50 22 -56 20 -17 -6 -28 17 -16 29
6 6 15 7 21 4 6 -4 109 -9 228 -11 120 -2 245 -6 278 -9 33 -3 87 -5 120 -5
115 1 299 -23 312 -40 10 -14 12 -14 18 2 12 29 39 19 83 -30 55 -63 81 -113
72 -138 -8 -21 7 -65 22 -65 5 0 24 15 43 34 25 25 49 37 90 46 78 16 197 4
257 -26 58 -29 71 -62 78 -194 0 -8 -2 -84 -4 -167 -2 -86 0 -155 5 -159 5 -3
9 -22 10 -42 l1 -37 8 32 c4 17 10 89 14 159 9 144 11 154 36 154 11 0 22 5
25 10 3 6 18 7 33 4 21 -4 24 -3 12 5 -8 6 -31 11 -50 11 -55 0 -65 11 -49 54
7 20 19 36 26 36 6 0 15 16 19 35 3 19 10 37 14 40 4 3 5 20 1 38 -5 18 -6 39
-4 47 1 8 9 42 16 75 12 55 16 60 42 63 18 2 31 -2 37 -13 8 -13 13 -14 24 -4
19 16 185 5 245 -16 24 -8 56 -15 70 -15 15 0 32 -7 39 -15 16 -20 27 -19 32
3 4 16 16 16 139 10 74 -4 172 -12 219 -18 47 -5 94 -11 105 -12 11 -1 26 -8
32 -14 9 -9 31 -11 68 -7 50 5 55 4 55 -14 0 -17 -9 -21 -62 -27 -34 -3 -87
-13 -117 -22 -238 -70 -341 -116 -476 -215 -91 -67 -135 -90 -135 -70 0 19
-45 12 -58 -9 -7 -12 -24 -25 -37 -30 -14 -5 -25 -17 -25 -25 0 -9 -9 -26 -21
-38 -31 -34 -109 -155 -125 -196 -8 -20 -24 -52 -34 -72 -11 -20 -20 -44 -20
-53 0 -9 -6 -17 -12 -17 -44 -4 -68 18 -68 63 0 25 -4 28 -31 28 l-30 0 25
-22 c22 -20 25 -28 18 -58 -4 -19 -7 -60 -6 -90 15 -395 16 -416 30 -431 13
-14 13 -18 0 -28 -16 -14 -19 -78 -4 -87 11 -7 122 -24 176 -27 28 -2 32 -5
32 -31 0 -21 -4 -27 -15 -22 -8 3 -15 1 -15 -4 0 -5 10 -11 23 -13 19 -4 19
-4 -5 -6 -14 0 -28 4 -30 9 -3 11 -144 30 -164 23 -16 -6 -23 -50 -11 -62 6
-6 45 -12 87 -12 41 -1 89 -4 105 -8 27 -6 30 -10 29 -46 0 -22 -4 -490 -8
-1040 -4 -550 -10 -1090 -13 -1200 -4 -110 -7 -218 -7 -240 -1 -63 11 -118 28
-131 13 -9 16 -33 16 -132 l0 -122 26 -6 c14 -4 132 -2 262 5 131 6 381 13
557 16 176 3 347 10 380 15 67 11 417 23 630 23 77 0 146 4 153 10 6 5 12 19
12 30 0 27 -22 87 -32 87 -14 0 -9 28 13 64 12 20 27 36 35 36 17 0 17 1 3 37
-7 18 -12 198 -14 513 -2 267 -7 807 -11 1201 l-7 716 51 31 c91 56 115 62
238 62 63 0 114 4 114 9 0 5 -39 12 -87 15 -49 4 -104 9 -124 11 -31 4 -48 -3
-113 -45 -82 -53 -102 -61 -88 -32 5 9 7 22 5 28 -5 16 42 54 120 98 60 33 72
36 145 36 102 0 142 8 135 26 -3 9 -22 14 -52 15 -25 0 -68 4 -96 9 -43 6 -35
8 53 9 56 0 102 5 102 10 0 9 -121 21 -221 21 -64 0 -72 -3 -131 -44 -35 -24
-78 -51 -95 -60 -32 -16 -33 -16 -33 3 0 11 8 25 18 31 15 9 14 10 -5 5 -36
-10 -27 8 20 41 l42 30 -1 295 c0 161 -5 303 -9 313 -6 14 -5 17 4 12 16 -10
-7 34 -57 113 -43 67 -161 186 -257 258 -78 59 -239 141 -360 183 -72 25 -82
27 -97 13 -13 -12 -36 -14 -109 -10 -51 3 -104 1 -118 -5 -14 -5 -22 -6 -18
-2 16 16 -15 32 -56 27 -234 -25 -483 -143 -653 -309 -48 -46 -147 -199 -187
-289 -63 -140 -77 -187 -97 -320 -14 -87 -29 -120 -31 -64 -1 18 -1 37 0 42 2
11 -37 8 -59 -6 -17 -10 -22 -9 -29 2 -6 9 -20 12 -40 9 -26 -4 -31 -1 -31 16
0 62 49 298 68 331 3 5 7 19 8 32 6 51 114 242 163 286 21 19 41 43 46 53 4
11 9 14 12 7 2 -6 -10 -36 -27 -67 -30 -52 -31 -66 -4 -48 6 4 16 17 23 30 7
12 17 22 24 21 20 -3 47 12 47 28 0 20 67 81 153 138 40 26 91 61 114 76 23
16 48 29 56 29 8 0 21 7 28 16 13 16 47 32 81 39 10 2 32 10 50 18 48 21 131
36 226 42 45 2 87 7 92 10 6 3 10 19 10 35 0 16 5 32 10 35 16 10 12 33 -10
55 -17 17 -18 23 -6 56 l13 38 79 -4 c43 -1 104 -3 136 -4 31 -1 59 -4 63 -8
4 -3 3 -27 0 -52 -5 -34 -12 -46 -24 -46 -9 0 -22 -5 -29 -12 -8 -8 -15 -8
-27 2 -12 10 -21 10 -38 2 -49 -23 -57 -22 -76 9 l-19 30 -31 -38 c-41 -50
-40 -79 7 -131 43 -47 52 -51 52 -23 0 27 38 38 58 17 14 -14 13 -16 -9 -25
l-24 -9 28 -7 c15 -4 38 -4 52 -1 14 4 47 -1 73 -9 27 -9 69 -15 93 -13 l44 3
-73 29 c-40 16 -69 33 -64 38 4 4 44 3 88 -3 43 -6 91 -11 105 -10 15 1 56
-10 93 -24 37 -14 74 -25 84 -25 30 1 -28 37 -88 56 -30 9 -59 20 -65 24 -5 5
-35 15 -67 25 -54 15 -88 39 -75 51 7 8 134 17 242 18 85 0 245 -23 245 -36 0
-5 8 -4 18 1 55 31 156 51 250 51 54 0 102 -3 106 -7 4 -4 27 -6 51 -4 38 2
46 -1 53 -18 7 -19 15 -14 85 55 l79 77 151 -7 c84 -3 216 -11 293 -18 145
-11 174 -9 174 15 0 10 -57 16 -257 25 -142 7 -284 15 -316 19 l-58 6 -59 -60
c-48 -50 -59 -57 -63 -42 -5 17 -16 19 -129 19 -67 1 -143 5 -168 11 -89 19
-342 39 -825 63 -87 5 -260 15 -340 21 -27 2 -90 8 -140 14 -49 6 -155 13
-235 16 -80 3 -164 8 -187 11 l-42 6 3 242 c2 132 4 260 5 284 l1 42 53 0 c28
0 90 -7 137 -16 47 -8 92 -15 100 -15 83 2 193 1 280 -4 58 -3 152 -6 210 -8
58 -1 111 -6 118 -10 7 -5 83 -13 170 -18 86 -5 168 -11 182 -13 14 -2 45 -4
70 -5 35 -2 41 -4 25 -11 -18 -8 -16 -9 10 -11 17 -1 64 -4 105 -5 203 -6 209
-7 221 -36 14 -35 50 -68 56 -50 7 20 30 14 47 -13 9 -14 22 -23 28 -19 12 8
87 -14 109 -33 8 -7 25 -13 37 -13 11 0 23 -4 27 -9 3 -6 25 -13 49 -16 37 -6
45 -11 56 -41 18 -44 28 -43 35 4 12 69 31 107 54 105 24 -3 61 40 61 71 0 11
4 27 9 34 6 10 10 9 14 -7 6 -25 27 -28 27 -4 0 28 18 1 22 -32 3 -34 21 -40
27 -10 2 11 8 23 14 27 6 3 10 25 9 47 -3 67 14 46 27 -33 7 -41 15 -77 19
-80 3 -4 12 21 19 55 7 34 15 64 18 68 10 9 24 -21 31 -67 7 -49 24 -66 24
-25 1 15 6 41 13 57 l13 29 34 -37 c19 -20 41 -34 48 -31 7 2 10 0 7 -5 -4 -6
4 -9 17 -7 21 2 24 -3 34 -78 7 -44 16 -93 21 -110 10 -32 43 -48 43 -21 0 26
49 20 76 -9 13 -14 32 -25 44 -25 14 0 20 -6 20 -24 0 -30 -18 -35 -107 -29
-75 6 -88 -2 -76 -46 4 -17 13 -21 52 -22 25 0 64 -3 86 -7 35 -7 40 -11 37
-34 -4 -42 28 -54 156 -60 71 -4 124 -2 143 5 20 8 40 8 67 1 45 -12 152 -3
115 10 -13 4 -49 9 -80 11 -72 4 -113 14 -113 27 0 9 60 8 265 -4 80 -4 509
-31 545 -33 166 -12 372 -17 367 -8 -4 6 -53 13 -109 17 -57 4 -116 9 -133 12
-16 2 -108 6 -204 10 -96 3 -184 9 -195 14 -12 4 -66 8 -121 9 -55 1 -138 6
-185 13 -47 6 -116 11 -153 12 -65 2 -95 16 -81 38 3 4 -6 8 -20 8 -13 0 -26
-6 -29 -12 -12 -35 -22 16 -25 128 -4 122 1 141 28 109 14 -17 51 -20 66 -5 6
6 25 14 42 19 29 9 33 7 38 -15 5 -20 9 -22 20 -13 8 6 14 20 14 30 0 12 5 16
15 13 8 -4 15 -1 15 6 0 7 13 10 32 8 41 -4 58 -34 58 -108 0 -74 15 -96 24
-34 3 26 6 69 6 96 0 79 43 26 54 -67 7 -58 16 -71 16 -24 1 39 9 108 15 127
10 27 23 0 35 -73 7 -42 17 -78 21 -81 5 -3 9 21 10 53 0 32 4 67 8 77 7 18 8
18 28 -3 20 -22 25 -22 145 -16 l124 7 16 -38 c9 -22 16 -52 17 -68 2 -50 9
-40 16 21 8 78 14 103 23 103 8 0 32 -50 42 -90 6 -23 7 -22 20 18 12 40 14
41 31 26 10 -9 20 -26 22 -38 3 -19 4 -18 17 9 19 40 18 39 34 26 17 -14 57
-17 102 -7 28 6 32 4 40 -24 11 -39 27 -40 34 -3 4 25 9 29 39 27 39 -1 69
-31 78 -76 8 -40 19 -35 26 13 8 60 21 66 46 24 22 -38 41 -39 41 -2 0 19 3
18 20 -10 11 -18 21 -47 22 -64 3 -42 18 -48 18 -7 0 19 6 43 14 54 14 18 15
18 21 -8 6 -22 14 -28 48 -33 23 -4 47 -10 52 -13 12 -7 11 -7 94 -24 61 -12
65 -15 79 -51 9 -21 20 -36 26 -34 11 4 13 10 15 54 0 12 12 34 26 49 14 15
25 31 25 37 0 5 12 7 26 4 31 -6 81 20 90 46 9 29 32 18 51 -25 16 -36 27 -35
50 2 l19 30 13 -49 c22 -85 51 -74 51 20 0 58 15 65 23 12 10 -69 19 -103 27
-103 10 0 20 26 20 51 0 26 23 24 35 -3 10 -22 61 -33 71 -16 9 14 24 -2 24
-25 0 -23 19 -83 33 -105 5 -7 5 -18 0 -25 -5 -7 -8 -23 -7 -37 0 -14 1 -55 2
-92 2 -65 3 -68 26 -68 14 0 28 -4 31 -10 6 -10 -79 -7 -328 11 -76 6 -153 7
-170 3 -31 -6 -133 -62 -169 -93 -16 -12 -20 -12 -37 3 -11 10 -24 16 -28 13
-9 -5 -67 -3 -608 27 -171 10 -271 12 -275 6 -3 -5 -4 -26 -2 -45 3 -29 7 -33
18 -24 14 11 65 10 344 -11 80 -7 190 -13 245 -15 149 -4 237 -15 264 -32 22
-14 25 -13 45 10 11 14 58 44 102 67 103 52 132 55 428 38 218 -13 314 -12
309 5 -9 24 4 26 112 22 65 -3 114 -1 110 4 -3 5 11 9 30 9 23 0 35 -5 35 -13
0 -25 -3 -26 -195 -40 -27 -2 -56 -4 -62 -4 -7 -1 -13 -8 -13 -17 0 -15 -15
-16 -142 -9 -79 3 -150 9 -159 11 -9 3 -24 -2 -32 -11 -9 -8 -32 -15 -54 -15
-37 1 -37 1 -14 14 22 12 20 13 -30 19 -30 4 -95 7 -145 7 -87 0 -94 -2 -152
-36 -48 -28 -59 -40 -51 -50 8 -9 5 -15 -10 -23 -12 -7 -18 -17 -15 -26 4 -8
1 -15 -5 -15 -6 0 -13 11 -17 24 -4 17 -11 22 -25 19 -24 -7 -24 -10 0 -37 11
-11 33 -37 49 -56 l30 -35 7 28 c10 36 45 45 104 23 70 -25 131 -16 131 19 0
22 34 35 92 35 57 0 67 -4 84 -34 16 -30 64 -43 79 -22 13 18 35 22 35 6 0
-18 17 -11 27 12 9 21 14 21 144 19 126 -3 191 -5 334 -15 33 -3 85 -5 115 -6
30 -1 46 -5 35 -7 -11 -3 -26 -14 -33 -24 -7 -11 -21 -19 -31 -19 -9 0 -21 -4
-27 -9 -5 -4 -30 -16 -56 -26 -27 -10 -48 -22 -48 -26 0 -13 36 -11 74 5 48
20 181 52 246 60 30 4 65 14 77 21 32 22 55 10 41 -21 -8 -17 -19 -24 -40 -24
-53 0 -199 -42 -285 -81 -79 -36 -206 -123 -247 -168 -11 -12 -25 -21 -33 -21
-7 0 -13 -4 -13 -10 0 -5 -4 -10 -10 -10 -5 0 -10 5 -10 11 0 6 -9 22 -19 35
l-20 25 -51 -50 c-29 -28 -57 -48 -63 -44 -5 3 -7 1 -4 -4 8 -13 -12 -73 -24
-73 -5 0 -9 -5 -9 -11 0 -6 -9 -18 -19 -27 -11 -10 -30 -37 -43 -62 -21 -41
-22 -54 -17 -125 7 -82 11 -107 24 -160 12 -47 17 -50 31 -15 20 45 19 101 -1
94 -8 -4 -15 -2 -15 3 0 28 52 176 74 212 14 22 26 44 26 48 1 15 39 58 46 51
3 -4 -1 -23 -10 -42 -9 -19 -16 -37 -16 -40 0 -3 -11 -29 -25 -58 -26 -54 -24
-79 4 -40 32 46 73 92 82 92 5 0 6 -21 3 -48 l-6 -47 27 30 c20 21 26 24 21
10 -5 -11 -12 -31 -16 -45 -4 -14 -29 -70 -55 -125 -33 -71 -49 -95 -55 -85
-5 8 -6 19 -3 25 4 6 2 6 -6 -1 -16 -15 -22 -55 -10 -70 20 -25 -8 -134 -36
-134 -8 0 -22 -11 -31 -25 -14 -21 -15 -42 -10 -132 3 -60 7 -151 9 -203 l2
-95 41 -3 c33 -2 43 -8 48 -25 4 -12 11 -112 16 -222 5 -110 14 -258 20 -330
5 -71 14 -233 20 -360 20 -430 29 -596 34 -604 3 -4 6 -42 7 -84 2 -83 11 -93
54 -63 33 22 175 64 241 70 52 6 63 4 78 -13 22 -24 12 -45 -19 -37 -32 8 -85
-12 -78 -30 3 -8 0 -14 -5 -14 -6 0 -25 -13 -41 -28 -29 -26 -30 -29 -16 -50
15 -20 14 -22 -22 -38 -21 -9 -60 -19 -87 -22 -50 -7 -72 -26 -39 -35 15 -4
14 -5 -3 -6 -12 0 -27 -7 -33 -15 -9 -11 -4 -15 26 -20 64 -10 359 -7 415 5
77 16 192 66 279 121 42 26 81 48 87 48 9 0 12 35 12 116 l0 116 -102 -6
c-100 -7 -229 -21 -276 -32 -13 -3 -21 -1 -18 4 12 19 268 72 348 72 l48 0 0
1358 0 1358 -75 -1 c-41 0 -75 3 -75 8 0 14 -155 -1 -220 -23 -123 -40 -253
-114 -314 -179 -17 -17 -36 -31 -44 -31 -8 0 -21 -8 -29 -17 -13 -17 -13 -16
-4 3 5 11 6 26 1 34 -7 12 -12 11 -28 -3 -22 -20 -32 -22 -32 -4 0 16 143 167
157 167 6 0 16 7 23 15 7 8 23 15 36 15 13 0 24 4 24 8 0 5 12 15 28 22 15 8
34 19 42 26 31 24 133 54 215 63 47 6 90 13 95 16 4 3 11 18 15 34 3 16 15 37
26 47 10 9 19 23 19 29 0 14 -28 29 -47 26 -19 -3 -16 45 4 64 13 14 14 18 3
25 -8 5 -26 6 -40 4 -22 -5 -298 21 -305 28 -4 4 -7 57 -6 86 1 15 10 26 27
32 21 8 24 13 15 24 -20 23 2 27 106 16 153 -15 222 -17 226 -7 1 5 34 6 75 2
l72 -8 0 -154 c0 -129 -2 -155 -15 -160 -9 -3 -24 2 -34 11 -27 25 -47 19 -80
-23 -33 -42 -39 -65 -18 -78 7 -4 20 -20 30 -35 14 -22 25 -28 53 -28 19 0 44
-5 55 -10 19 -11 19 0 19 618 l0 629 -87 6 c-49 4 -140 11 -203 16 -63 5 -179
13 -257 17 -160 7 -173 15 -102 59 22 15 39 31 37 37 -2 6 -22 12 -43 14 -87
7 -589 40 -815 54 l-165 10 -35 -28 c-76 -59 -88 -64 -169 -63 -42 1 -94 3
-116 6 -22 2 -116 9 -210 14 -555 35 -664 42 -800 52 -82 5 -184 14 -225 19
-41 5 -136 12 -210 15 -74 4 -139 10 -143 14 -13 12 2 36 33 55 17 9 28 21 25
25 -8 13 -197 32 -635 62 -85 6 -220 16 -300 23 l-145 13 -25 -30 c-14 -16
-34 -40 -45 -54 l-20 -25 -170 11 c-94 6 -235 15 -315 20 -80 6 -246 15 -369
21 -123 6 -272 18 -330 26 -110 15 -653 54 -753 54 -31 0 -59 4 -62 9 -3 5 1
25 9 45 27 64 35 61 -197 75 -281 17 -295 18 -568 42 -129 11 -275 21 -325 22
l-90 2 -9 -52 c-5 -33 -14 -53 -22 -53 -8 0 -85 7 -171 14 -87 8 -266 20 -398
26 -132 6 -323 17 -425 25 -308 24 -393 30 -840 61 -124 9 -227 18 -229 20 -3
3 -6 13 -8 24 -3 20 8 20 1091 20 866 0 1095 -3 1099 -12 4 -10 6 -10 6 0 1 6
10 12 22 12 11 0 17 -4 14 -10 -3 -6 4 -10 17 -10 18 0 20 2 8 10 -11 7 -1 9
35 9 41 -1 45 -3 20 -8 -28 -6 -28 -7 -8 -13 13 -4 27 0 34 8 9 11 66 14 305
14 l294 0 -2 -57 -3 -58 137 1 c76 0 140 3 144 7 6 6 -20 38 -31 37 -24 -1
-27 2 -10 12 11 6 22 14 25 18 3 4 30 4 60 -1 30 -4 87 -7 125 -7 62 1 58 2
-35 9 -121 10 -150 15 -150 29 0 7 578 10 1650 10 l1650 0 0 -68 c0 -40 5 -73
12 -80 7 -7 40 -12 76 -12 l64 0 -7 80 c-6 68 -5 80 8 80 11 0 17 -20 23 -82
l9 -83 89 -8 c49 -4 94 -6 100 -4 7 3 9 33 6 91 l-5 86 76 0 76 0 -3 -27 -4
-28 12 28 c16 37 31 34 25 -5 -4 -18 -9 -61 -13 -95 -7 -68 -4 -72 54 -57 20
6 22 12 23 83 l1 76 16 -85 c17 -85 17 -85 50 -88 l32 -3 0 100 c0 92 2 101
18 101 17 0 20 -12 26 -102 3 -56 8 -103 10 -105 6 -7 168 -4 174 2 4 3 5 51
4 106 l-4 99 451 0 c378 0 451 -2 451 -14 0 -7 -12 -22 -27 -32 -16 -10 -34
-24 -41 -31 -8 -7 -22 -18 -33 -23 -10 -6 -19 -18 -19 -27 0 -18 51 -103 63
-103 4 0 38 23 77 50 l69 51 83 -11 c97 -12 188 -13 188 -2 0 4 25 34 55 66
30 33 55 63 55 68 0 4 88 8 195 8 l195 0 0 -34 c0 -26 5 -35 22 -39 29 -8 48
9 48 44 0 20 5 29 16 29 12 0 15 -9 12 -37 l-3 -38 99 -3 99 -3 -6 41 -5 40
69 0 c74 0 73 1 81 -70 3 -24 7 -25 83 -31 44 -3 83 -3 88 -1 4 2 7 25 7 53 0
42 3 49 19 49 17 0 20 -8 23 -52 3 -52 4 -53 36 -56 l32 -3 0 125 0 126 -6400
0 -6400 0 1 -2542z m4528 2055 c27 -7 51 -9 149 -12 41 -1 61 -5 52 -10 -18
-10 -485 21 -497 33 -8 9 255 -1 296 -11z m4059 -80 c-10 -2 -26 -2 -35 0 -10
3 -2 5 17 5 19 0 27 -2 18 -5z m222 -14 c0 -10 -70 -12 -94 -3 -30 11 -8 19
43 16 28 -2 51 -8 51 -13z m130 -15 c0 -2 -19 -4 -42 -4 -26 0 -38 4 -30 8 12
8 72 4 72 -4z m-2111 -44 c30 0 51 -3 48 -7 -8 -7 -115 -5 -165 4 -21 3 -29 9
-22 13 7 4 28 4 49 -1 20 -5 60 -9 90 -9z m1471 8 c-1 -16 -66 -88 -80 -88
-19 0 -10 20 26 60 37 41 54 50 54 28z m168 -15 c-16 -2 -40 -2 -55 0 -16 2
-3 4 27 4 30 0 43 -2 28 -4z m237 -7 c242 -9 464 -37 347 -44 -76 -4 -515 37
-527 50 -7 7 -7 9 0 5 6 -3 87 -8 180 -11z m1905 -147 c0 -12 -87 -12 -95 0
-3 6 14 11 37 13 48 3 58 1 58 -13z m-6986 -5 c3 -9 6 -58 6 -109 0 -65 4 -95
13 -98 7 -3 5 -6 -5 -6 -27 -1 -21 -21 6 -21 24 0 24 2 31 115 7 103 9 115 26
115 17 0 19 -9 21 -87 1 -106 2 -110 9 -118 4 -3 9 16 12 42 3 31 1 51 -6 55
-9 6 -9 8 0 8 6 0 15 20 19 45 3 25 11 48 17 52 6 4 52 5 101 4 50 -1 112 -3
139 -3 40 0 48 -4 53 -22 3 -12 4 -26 3 -32 -4 -21 1 -167 6 -162 5 5 10 42
20 148 3 36 10 69 14 73 5 5 15 -10 24 -31 23 -56 33 -58 49 -10 15 50 27 53
48 12 16 -32 50 -35 50 -5 0 9 5 22 11 28 16 16 39 5 32 -15 -5 -12 -2 -14 13
-7 10 4 47 10 82 12 62 3 62 3 63 -24 1 -16 2 -41 3 -58 1 -16 3 -52 4 -80 3
-61 22 -43 22 20 0 22 3 63 6 91 7 55 13 58 69 34 11 -5 31 -10 45 -12 19 -2
26 -10 28 -30 4 -37 17 -35 28 4 12 42 29 45 45 8 8 -16 16 -30 19 -30 3 0 14
14 23 30 23 38 31 38 47 0 17 -40 28 -46 45 -24 13 18 14 18 24 -8 6 -15 12
-66 14 -113 6 -108 17 -123 17 -22 0 45 4 77 10 77 6 0 10 9 10 20 0 21 15 27
25 10 3 -5 14 -10 24 -10 10 0 30 -17 44 -39 20 -30 35 -41 71 -50 25 -6 46
-16 46 -22 0 -5 4 -8 9 -5 14 9 39 -3 46 -22 4 -9 9 -34 12 -54 6 -44 18 -42
-146 -28 -87 7 -116 13 -126 26 -9 13 -14 14 -19 5 -6 -9 -51 -11 -179 -6
-269 9 -334 13 -447 25 -58 6 -190 13 -295 15 -104 2 -201 7 -215 10 -14 4
-50 8 -80 9 -130 5 -229 19 -222 30 4 6 10 59 13 118 5 107 13 135 28 109 15
-24 22 -133 10 -148 -16 -18 5 -66 27 -61 12 2 16 19 19 73 6 134 22 194 39
149z m5946 3 c0 -4 24 -7 53 -6 118 4 286 -2 347 -12 36 -6 90 -12 120 -15 30
-3 89 -8 132 -12 42 -4 74 -4 71 1 -2 4 1 7 6 7 6 0 11 -3 11 -7 0 -5 47 -9
105 -10 57 -1 108 -3 112 -6 4 -3 26 -7 48 -11 39 -6 72 -8 285 -21 118 -7
140 -12 140 -27 0 -7 -29 -9 -92 -4 -51 3 -221 13 -378 21 -329 17 -420 23
-585 36 -66 5 -208 17 -315 25 -331 25 -335 26 -313 47 9 10 253 4 253 -6z
m-6197 -24 c8 -10 16 -22 16 -28 -1 -19 20 -16 30 4 7 12 17 18 26 15 23 -9
21 -129 -2 -143 -15 -9 -16 -12 -4 -20 11 -7 10 -11 -4 -19 -13 -7 -28 -5 -52
5 -19 7 -38 11 -43 8 -20 -12 -27 32 -17 113 10 85 20 97 50 65z m2191 -18 c9
-13 16 -34 16 -45 0 -12 5 -18 10 -15 6 3 10 19 10 35 0 37 14 46 37 23 13
-13 33 -18 69 -18 l51 1 5 -87 c7 -119 25 -144 107 -153 33 -4 63 -11 66 -17
4 -5 10 -7 14 -5 11 7 92 -19 91 -30 0 -5 -26 -7 -58 -5 -31 2 -75 4 -97 5
-28 1 -45 7 -57 23 -19 23 -45 27 -228 36 -156 7 -303 18 -329 23 -23 5 -23 8
-17 66 3 34 10 64 15 67 16 11 31 50 31 80 0 17 5 31 10 31 6 0 10 -4 10 -9 0
-5 13 -11 29 -14 23 -5 30 -11 29 -29 -1 -13 -5 -28 -10 -34 -9 -12 18 -41 29
-30 3 3 1 6 -5 6 -7 0 -12 4 -12 9 0 5 8 8 17 7 12 -1 19 9 24 37 3 20 9 40
12 43 15 15 35 -7 41 -45 7 -45 26 -56 26 -16 0 29 26 85 39 85 5 0 16 -11 25
-25z m5656 16 c0 -19 -126 -98 -137 -87 -6 5 62 67 90 83 27 15 47 16 47 4z
m-7945 -70 c9 -16 13 -89 4 -102 -12 -21 -54 6 -55 36 -1 14 2 25 7 25 5 0 9
8 9 18 0 29 22 43 35 23z m10 -141 c3 -6 -5 -10 -19 -10 -14 0 -28 5 -31 10
-3 6 5 10 19 10 14 0 28 -4 31 -10z m130 -5 c0 -6 -21 -11 -47 -13 -39 -3 -48
0 -48 13 0 14 9 16 48 13 26 -2 47 -8 47 -13z m-2105 -20 c8 -7 27 -15 43 -19
34 -8 35 -23 1 -38 -24 -11 -29 -9 -50 15 -27 32 -44 35 -44 8 0 -15 -5 -18
-22 -13 -21 5 -21 6 -2 13 10 4 13 8 7 8 -7 1 -13 6 -13 12 0 5 5 7 10 4 6 -3
10 -1 10 4 0 6 -12 11 -27 10 -16 0 -22 -3 -15 -6 19 -8 14 -23 -9 -23 -11 0
-17 4 -14 10 4 6 1 18 -6 27 -12 14 -7 15 51 8 36 -4 72 -13 80 -20z m454 -14
c20 -1 20 -1 0 -16 -24 -18 -54 -19 -54 -2 0 7 -3 8 -8 2 -4 -5 -17 -10 -29
-11 -26 -1 -25 -1 -17 21 5 12 16 15 48 11 22 -3 50 -5 60 -5z m1031 -1 c7
-12 -12 -12 -40 0 -18 8 -17 9 7 9 15 1 30 -3 33 -9z m-1216 -24 c6 -4 9 -12
6 -17 -8 -12 -55 -12 -55 1 0 6 -7 10 -15 10 -8 0 -15 -5 -15 -11 0 -6 -9 -8
-21 -4 -22 7 -47 13 -64 14 -5 1 -3 6 5 11 16 10 141 7 159 -4z m1709 -3 c-3
-14 -12 -17 -43 -15 -52 4 -68 9 -60 22 3 5 29 10 56 10 43 0 50 -3 47 -17z
m123 7 c34 -18 21 -30 -33 -30 -57 0 -85 11 -74 29 9 14 81 14 107 1z m2089
-26 c41 -2 95 -4 120 -5 25 -1 50 -5 57 -11 7 -6 14 -5 18 2 3 5 22 10 41 10
36 0 54 -20 37 -43 -5 -6 -7 -42 -5 -79 l4 -68 39 0 c21 0 39 5 39 10 0 17
195 13 210 -4 6 -8 30 -16 53 -18 34 -2 42 -7 42 -23 0 -11 -5 -28 -12 -39 -6
-10 -9 -25 -6 -33 5 -13 -10 -14 -103 -10 -60 2 -156 9 -214 15 -58 6 -195 16
-305 22 -110 6 -221 13 -247 17 -81 10 -43 22 55 17 50 -2 157 -6 237 -9 180
-6 270 -14 292 -26 13 -7 20 -4 27 9 21 40 -31 65 -118 56 -63 -7 -311 12
-376 28 -39 10 -71 15 -110 18 -11 1 -14 4 -7 7 7 3 12 22 12 46 0 23 5 49 10
57 11 18 75 15 108 -6 15 -10 65 -17 152 -21 l130 -6 0 26 c0 27 -1 27 -75 28
-41 1 -78 2 -82 3 -45 11 -136 16 -146 8 -20 -16 -91 0 -95 22 -4 18 1 19 69
11 41 -4 108 -9 149 -11z m-1465 -10 c8 -3 15 -13 15 -22 0 -13 -18 -14 -142
-8 -78 4 -144 9 -146 11 -3 2 -2 12 2 21 6 15 20 16 131 10 68 -3 131 -9 140
-12z m-1210 -14 c0 -11 10 -14 43 -12 25 2 42 -1 42 -7 0 -6 -6 -11 -14 -11
-10 0 -13 -8 -11 -22 6 -30 21 -43 29 -23 3 9 2 13 -3 10 -5 -3 -12 -1 -16 5
-3 5 1 10 9 10 9 0 16 7 16 15 0 12 10 15 38 13 42 -2 52 -11 52 -50 0 -32 -7
-38 -51 -38 -19 0 -70 -1 -113 -1 -43 0 -116 5 -161 12 l-83 13 25 19 c24 19
24 19 4 34 -12 8 -21 23 -21 34 0 19 6 20 108 17 87 -2 107 -6 107 -18z m6439
-122 c1 -59 -16 -96 -33 -70 -11 18 -13 115 -5 171 l8 46 14 -45 c8 -25 15
-71 16 -102z m-5916 109 c67 -2 95 -6 102 -16 11 -19 257 -29 298 -12 37 16
282 -3 323 -25 19 -9 60 -15 121 -15 144 -1 149 0 164 12 7 6 17 8 21 6 5 -3
67 -8 138 -12 81 -5 141 -13 158 -22 15 -8 36 -11 46 -8 10 3 58 1 106 -4 64
-8 92 -7 102 1 18 15 279 4 299 -13 22 -18 16 -29 -16 -29 -27 0 -31 -4 -41
-45 l-11 -45 -67 0 c-37 0 -148 5 -247 10 -212 12 -309 17 -504 25 -80 3 -163
10 -185 15 -56 14 -200 20 -216 9 -24 -16 11 -30 59 -23 26 4 42 2 42 -4 0
-21 -23 -24 -132 -23 -124 2 -158 11 -158 41 0 16 -7 20 -32 21 -45 0 -143 8
-267 19 -58 6 -113 10 -123 10 -15 0 -18 8 -18 55 0 30 -4 55 -9 55 -13 0 -21
-27 -21 -72 l0 -40 -57 5 c-32 3 -91 8 -132 11 -41 3 -76 8 -79 11 -3 3 2 5
10 5 8 0 31 14 49 30 27 24 31 32 20 39 -21 14 75 40 124 34 22 -2 82 -5 133
-6z m1291 -9 l34 -11 -28 -15 c-22 -11 -48 -13 -114 -8 -151 11 -171 16 -171
38 0 19 5 19 123 13 67 -4 137 -11 156 -17z m4541 -24 c16 -42 12 -102 -7
-113 -10 -6 -12 -11 -5 -11 17 0 15 -20 -3 -20 -12 0 -15 16 -15 85 0 86 11
109 30 59z m-4020 8 c47 -6 55 -10 58 -29 3 -22 0 -23 -69 -23 -76 0 -198 18
-213 31 -27 24 101 35 224 21z m800 -10 c0 -5 -13 -7 -30 -4 -16 2 -30 6 -30
8 0 2 14 4 30 4 17 0 30 -4 30 -8z m30 -42 c11 -7 7 -10 -17 -10 -17 0 -35 5
-38 10 -8 13 35 13 55 0z m-4467 -86 c26 -4 44 -11 41 -15 -3 -5 1 -10 8 -10
7 -1 18 -2 23 -4 6 -1 16 -3 23 -3 7 -1 10 -6 7 -12 -3 -5 0 -10 8 -10 25 0
55 -33 61 -67 4 -26 2 -33 -10 -33 -8 0 -12 -4 -9 -10 3 -5 1 -10 -4 -10 -6 0
-11 5 -11 12 0 6 -9 3 -20 -7 -11 -10 -20 -26 -20 -36 0 -10 -8 -24 -18 -31
-10 -7 -22 -26 -26 -41 -6 -24 -9 -27 -21 -17 -11 9 -15 9 -15 1 0 -17 -40
-13 -46 4 -4 8 -15 15 -25 15 -10 0 -34 14 -52 30 -19 17 -40 30 -47 30 -20 0
-83 71 -72 82 5 5 26 11 48 14 43 5 54 12 38 22 -6 4 -16 17 -22 29 -11 19 -8
25 21 47 33 27 60 31 140 20z m10765 -51 c-8 -10 -5 -13 10 -13 16 0 20 4 15
16 -4 12 -2 15 8 12 8 -3 14 -15 13 -27 0 -11 3 -21 8 -21 4 0 8 -14 8 -31 0
-24 4 -30 18 -27 12 2 18 15 20 46 4 55 23 51 36 -6 6 -23 14 -42 18 -42 5 0
17 14 27 31 15 24 20 27 25 14 3 -9 6 -25 6 -36 0 -10 7 -19 15 -19 8 0 15 5
15 10 0 6 9 10 21 10 11 0 29 5 40 10 15 8 23 7 35 -5 17 -17 60 -20 69 -5 3
6 13 10 21 10 8 0 23 9 34 20 11 11 25 20 30 20 6 0 10 -40 10 -100 l0 -100
-47 0 c-27 0 -86 4 -133 10 -47 5 -131 11 -188 13 -88 3 -105 7 -126 26 -14
13 -47 26 -85 33 -34 6 -56 15 -50 19 6 3 12 19 14 35 2 33 14 64 24 64 4 0
13 -20 20 -45 20 -68 32 -61 36 20 1 17 2 45 3 63 2 29 4 31 21 20 15 -9 17
-15 9 -25z m-9506 2 c3 -3 41 -7 85 -10 169 -8 203 -15 218 -45 7 -14 20 -32
29 -39 13 -11 14 -8 5 24 -6 20 -9 39 -7 41 3 2 76 -1 164 -6 87 -5 203 -11
258 -14 54 -3 100 -7 103 -10 2 -2 1 -20 -2 -39 -6 -29 -12 -36 -37 -41 -46
-9 -86 -7 -93 4 -15 24 -130 -2 -121 -27 4 -9 -6 -13 -34 -13 -29 0 -40 -4
-40 -15 0 -10 -9 -15 -27 -14 -16 1 -36 -2 -45 -6 -12 -4 -25 1 -43 19 -31 31
-40 33 -25 5 15 -26 7 -47 -22 -59 -24 -11 -69 -38 -130 -80 -21 -14 -43 -35
-49 -47 -7 -13 -28 -27 -47 -32 -19 -6 -50 -26 -69 -46 -33 -34 -38 -36 -62
-24 -34 17 -91 78 -92 98 -3 76 4 226 16 319 7 59 9 62 35 62 15 0 29 -2 32
-5z m-97 -27 c3 -13 3 -45 1 -73 -3 -27 -8 -98 -12 -158 -6 -102 -8 -108 -30
-113 -39 -10 -94 4 -87 22 3 8 12 13 19 10 9 -3 14 1 14 12 0 9 6 29 14 43 21
41 25 68 27 177 1 100 2 102 25 102 16 0 25 -7 29 -22z m2905 -34 c33 -12 31
-13 -52 -13 -86 -1 -125 13 -71 25 15 3 33 7 38 9 11 4 34 -2 85 -21z m-3298
-94 c4 0 12 -19 19 -42 6 -23 18 -48 27 -56 15 -11 5 -12 -63 -7 -178 13 -224
18 -219 26 3 5 15 9 27 9 21 1 21 1 4 15 -18 13 -18 14 0 39 14 20 28 25 68
28 28 2 68 0 90 -4 22 -4 43 -7 47 -8z m3337 -27 c13 -8 26 -24 28 -34 3 -10
9 -19 14 -19 5 0 9 -5 9 -11 0 -8 -12 -9 -37 -5 -21 4 -92 10 -158 13 -66 3
-122 7 -124 9 -2 2 13 20 33 40 l38 37 86 -7 c50 -4 97 -14 111 -23z m-4499
-18 c7 -8 8 -15 2 -15 -5 0 -15 7 -22 15 -7 8 -8 15 -2 15 5 0 15 -7 22 -15z
m2590 -26 c0 -5 -7 -9 -15 -9 -15 0 -20 12 -9 23 8 8 24 -1 24 -14z m-50 2 c0
-17 -26 -29 -95 -41 -38 -7 -116 -27 -172 -46 -119 -40 -123 -40 -123 -15 0
23 17 37 55 47 17 4 35 10 40 14 10 6 108 35 150 44 39 8 145 6 145 -3z m110
-17 c0 -8 -4 -12 -10 -9 -5 3 -10 10 -10 16 0 5 5 9 10 9 6 0 10 -7 10 -16z
m-1468 -61 c31 -10 46 -18 36 -20 -10 -3 -19 -10 -19 -16 -3 -26 3 -197 11
-291 11 -150 23 -140 -149 -131 -80 4 -150 11 -155 15 -20 19 -6 260 15 260 5
0 6 7 3 15 -4 8 -1 15 6 15 6 0 8 5 5 10 -9 14 14 41 29 34 6 -3 2 2 -8 10
-11 9 -15 16 -9 16 15 0 12 42 -3 55 -7 6 -15 21 -19 34 l-7 24 105 -7 c58 -3
129 -14 159 -23z m1339 -3 c-13 -11 -33 -20 -44 -20 -28 0 -138 -26 -219 -53
-37 -11 -71 -18 -75 -13 -10 10 22 28 77 43 25 6 59 17 75 24 35 15 137 36
180 37 l30 1 -24 -19z m74 10 c3 -5 -1 -10 -9 -10 -9 0 -16 5 -16 10 0 6 4 10
9 10 6 0 13 -4 16 -10z m-2006 -56 c-6 -8 -14 -12 -16 -10 -3 3 -21 -4 -40
-15 -37 -21 -63 -13 -63 18 0 8 -4 11 -10 8 -5 -3 -10 0 -10 8 0 18 21 24 87
23 40 -1 53 3 54 14 1 8 4 5 6 -8 3 -13 -1 -30 -8 -38z m10149 49 c-10 -2 -26
-2 -35 0 -10 3 -2 5 17 5 19 0 27 -2 18 -5z m-9998 -23 c11 -7 5 -10 -23 -10
-23 0 -36 4 -32 10 8 13 35 13 55 0z m1390 -15 c17 -20 8 -29 -73 -74 -39 -22
-103 -66 -141 -98 -106 -90 -105 -89 -123 -71 -10 11 -12 21 -7 31 10 17 121
109 164 135 14 9 30 21 36 28 16 19 96 64 115 64 9 0 22 -7 29 -15z m-1395
-61 c16 -3 32 -7 34 -10 9 -9 2 -104 -9 -125 -9 -15 -10 -63 -5 -164 5 -104 4
-144 -4 -150 -15 -9 -41 12 -41 34 0 9 -11 39 -25 66 -13 28 -25 56 -25 64 0
14 -24 54 -92 159 -42 63 -47 89 -20 99 9 4 28 15 42 26 25 19 48 19 145 1z
m10325 6 c0 -5 -12 -10 -27 -9 -25 0 -26 1 -8 9 27 12 35 12 35 0z m-8906 -9
c8 -12 -20 -34 -79 -64 -28 -14 -61 -36 -75 -50 -52 -51 -152 -129 -158 -123
-13 14 27 58 118 127 86 66 163 116 182 118 4 1 9 -3 12 -8z m-636 -9 c43 -7
140 -74 142 -98 0 -6 -17 -31 -38 -55 -21 -24 -57 -72 -80 -106 -23 -34 -46
-64 -51 -67 -5 -4 -12 -19 -16 -34 -3 -16 -22 -45 -42 -66 -35 -36 -37 -37
-55 -19 -22 22 -22 24 -19 251 2 96 7 172 12 172 5 0 9 7 9 15 0 16 58 19 138
7z m1011 -31 c35 -10 13 -22 -104 -59 -133 -41 -195 -64 -225 -83 -14 -9 -49
-30 -77 -47 -29 -18 -87 -59 -128 -93 -42 -34 -78 -59 -81 -56 -15 15 35 87
69 100 10 4 21 15 24 24 10 26 41 51 95 77 26 13 54 29 63 36 12 10 19 10 27
2 17 -17 28 -15 28 7 0 27 16 37 115 70 88 29 146 36 194 22z m-743 -162 c6
-10 -38 -80 -77 -122 -10 -10 -20 -28 -23 -40 -5 -21 -5 -21 9 -3 8 11 15 23
15 28 0 4 6 8 13 8 6 1 26 18 42 40 34 44 54 55 69 40 8 -8 4 -17 -14 -33 -27
-23 -52 -59 -85 -119 -11 -20 -29 -47 -40 -60 -20 -23 -38 -57 -49 -91 -8 -25
-42 -18 -38 8 3 16 1 18 -9 8 -19 -19 -38 -16 -75 12 -29 22 -31 27 -21 50 12
25 27 34 27 15 0 -17 17 -11 24 8 3 9 10 24 15 32 5 8 12 28 16 43 3 15 27 50
53 76 26 27 60 63 75 80 29 31 60 40 73 20z m3209 -39 c-10 -11 -25 -20 -34
-20 -11 1 -7 8 14 25 34 28 47 25 20 -5z m-3899 -151 c72 -13 80 -18 58 -33
-14 -11 -14 -14 -2 -27 22 -21 28 -58 33 -182 5 -113 1 -152 -16 -142 -5 3 -6
-1 -3 -9 3 -9 11 -16 16 -16 5 0 8 -6 5 -12 -2 -7 0 -26 4 -41 l8 -28 -132 6
c-73 3 -151 8 -175 11 l-42 5 17 24 c10 14 28 25 41 25 20 0 22 2 11 23 -7 12
-14 53 -16 90 -1 38 -8 77 -13 87 -14 25 -5 126 15 173 8 20 13 37 10 37 -4 0
-3 5 0 10 8 13 107 13 181 -1z m10390 -16 c-10 -10 -19 5 -10 18 6 11 8 11 12
0 2 -7 1 -15 -2 -18z m-9586 10 c-1 -5 -17 -26 -36 -48 -36 -40 -37 -23 -2 28
18 25 39 36 38 20z m-350 -168 c18 -22 3 -78 -20 -72 -10 2 -24 1 -31 -4 -11
-7 -11 -9 -1 -9 10 0 12 -16 10 -59 -2 -51 -6 -60 -24 -64 -22 -4 -25 2 -26
61 -1 58 21 130 45 147 27 19 32 19 47 0z m-414 -356 c58 -10 62 -12 68 -42 4
-19 2 -33 -4 -35 -5 -2 -7 -8 -4 -14 3 -5 -2 -8 -12 -6 -13 2 -18 -4 -18 -22
-1 -37 -41 -82 -71 -82 -19 0 -25 -6 -25 -23 0 -13 -3 -30 -6 -39 -8 -20 -34
-21 -34 -1 0 11 -11 15 -40 15 -22 0 -40 -4 -40 -10 0 -5 -4 -10 -10 -10 -14
0 -12 28 3 33 9 3 9 7 -1 19 -10 13 -10 17 0 21 20 8 -11 27 -31 19 -13 -4
-14 -3 -5 9 17 22 24 49 14 49 -6 0 -10 -7 -10 -15 0 -8 -4 -15 -10 -15 -5 0
-10 9 -10 19 0 11 -5 23 -11 26 -13 9 -1 107 15 118 13 9 152 1 242 -14z
m2911 -61 c-2 -13 -4 -5 -4 17 -1 22 1 32 4 23 2 -10 2 -28 0 -40z m-164 -145
c-13 -2 -33 -2 -45 0 -13 2 -3 4 22 4 25 0 35 -2 23 -4z m57 -3 c13 -8 13 -10
-2 -10 -9 0 -20 5 -23 10 -8 13 5 13 25 0z m970 0 c0 -13 -40 -13 -60 0 -11 7
-5 10 23 10 20 0 37 -4 37 -10z m-5 -37 c0 -7 -3 -14 -8 -14 -20 -4 -207 13
-211 19 -2 4 46 7 107 7 83 0 112 -3 112 -12z m-3530 -23 c-3 -5 -15 -10 -26
-10 -11 0 -17 5 -14 10 3 6 15 10 26 10 11 0 17 -4 14 -10z m15 -119 c0 -5 8
-12 18 -15 19 -6 45 -63 36 -78 -3 -5 -20 -8 -37 -6 -28 3 -32 0 -35 -22 -2
-19 -1 -22 7 -10 8 12 13 12 23 2 6 -6 20 -12 30 -12 10 0 18 -4 18 -9 0 -10
-83 -19 -117 -13 -25 5 -32 22 -9 22 8 0 17 8 21 18 8 22 6 28 -9 24 -15 -3
-26 45 -19 82 3 16 13 22 39 23 19 2 34 -1 34 -6z m9430 -33 c0 -4 -12 -8 -27
-9 l-28 -1 28 -10 c15 -5 27 -15 27 -22 0 -11 -16 -12 -74 -8 -16 2 -17 5 -8
14 7 7 12 19 12 28 0 12 10 16 35 16 19 0 35 -4 35 -8z m-9875 -37 c16 -7 11
-9 -22 -12 -51 -5 -93 6 -53 13 38 8 53 7 75 -1z m75 -7 c0 -2 -11 -4 -25 -4
-14 0 -25 4 -25 9 0 4 11 6 25 3 14 -2 25 -6 25 -8z m75 -59 c28 -9 33 -13 18
-14 -13 -1 -23 -5 -23 -11 0 -5 -7 -10 -15 -10 -20 0 -19 -29 2 -52 9 -10 12
-18 7 -18 -5 0 -8 -17 -8 -37 1 -21 -4 -41 -10 -45 -7 -5 -3 -17 12 -37 15
-21 18 -31 10 -32 -10 0 -10 -2 0 -6 6 -2 12 -11 12 -18 0 -7 5 -15 10 -17 6
-2 12 -20 15 -41 3 -21 12 -45 21 -54 8 -9 13 -22 10 -29 -3 -8 1 -14 9 -14 8
0 15 -5 15 -11 0 -12 -208 -6 -350 10 -55 6 -61 9 -37 15 16 5 29 17 33 31 3
13 14 25 25 28 10 3 22 13 26 24 3 10 11 21 17 26 8 5 8 9 0 15 -6 4 -14 17
-18 29 -6 18 -4 22 7 17 16 -6 79 49 90 79 8 23 24 22 39 -3 17 -27 38 -25 38
4 0 19 -7 26 -30 31 -28 6 -31 10 -29 43 1 21 1 46 0 57 -2 18 -3 17 -13 -5
-6 -15 -12 -20 -15 -12 -3 6 -10 12 -17 12 -18 0 -49 37 -41 49 9 15 141 12
190 -4z m-134 -94 c4 0 9 -10 12 -21 4 -17 2 -18 -15 -9 -11 6 -22 8 -25 5 -8
-8 -45 13 -39 22 4 7 43 8 67 3z m409 -23 c0 -10 2 -10 8 -1 5 9 24 11 57 8
54 -6 62 -11 65 -40 5 -42 -1 -56 -25 -65 -14 -5 -28 -18 -31 -27 -15 -46 -27
-63 -40 -52 -8 7 -13 6 -16 -1 -5 -15 -38 -2 -38 15 0 7 -7 35 -16 63 -14 43
-15 54 -3 81 14 31 39 43 39 19z m2459 -176 c-1 -96 -17 -108 -18 -14 -1 53 3
81 9 77 6 -3 10 -32 9 -63z m-2410 -54 c5 -13 6 -45 4 -72 -4 -32 -1 -51 7
-56 25 -15 -2 -30 -54 -30 -29 0 -55 2 -58 5 -7 7 14 55 25 55 11 0 8 46 -5
75 -14 31 -1 45 45 45 19 0 30 -7 36 -22z m-259 -142 c28 -9 36 -15 23 -15
-20 -1 -23 -7 -24 -43 -2 -90 -10 -173 -19 -182 -5 -5 -3 -18 4 -30 9 -13 13
-50 12 -101 l-1 -80 -80 -3 c-44 -2 -130 2 -191 8 -127 14 -117 3 -116 125 0
62 4 98 17 126 3 10 2 20 -4 24 -16 9 -13 42 5 70 9 14 12 25 6 25 -13 0 -23
39 -16 67 4 14 16 24 32 27 52 9 307 -4 352 -18z m344 -57 c7 -6 7 -243 1
-334 -2 -33 -4 -70 -5 -82 0 -22 -3 -23 -111 -23 l-112 0 7 54 c8 68 14 86 32
86 8 0 14 9 14 20 0 11 -6 20 -12 20 -16 0 -19 251 -3 263 11 9 180 5 189 -4z
m-924 -120 c0 -21 -4 -39 -10 -39 -5 0 -10 21 -10 46 0 27 4 43 10 39 6 -3 10
-24 10 -46z m0 -69 c0 -11 -4 -20 -10 -20 -5 0 -10 9 -10 20 0 11 5 20 10 20
6 0 10 -9 10 -20z m485 -235 c126 -8 126 -8 120 -69 -3 -28 -12 -100 -21 -161
-9 -68 -13 -135 -9 -176 l7 -66 -54 -6 c-60 -6 -392 8 -407 17 -6 4 -9 78 -8
182 2 137 5 177 16 183 9 6 12 19 8 39 -5 25 -2 31 21 42 31 15 147 28 207 24
22 -2 76 -6 120 -9z m413 -51 c23 -7 23 -7 18 -148 -3 -77 -8 -181 -12 -229
l-7 -88 -66 1 c-107 2 -133 9 -129 34 1 11 -1 26 -4 31 -9 15 -5 378 5 393 9
13 152 17 195 6z m-332 -462 c35 -19 -31 -25 -200 -18 -180 7 -226 13 -226 29
0 13 401 3 426 -11z m254 -22 l25 -1 -25 -14 c-30 -17 -116 -20 -126 -4 -10
17 15 27 60 24 23 -2 52 -4 66 -5z m3698 -108 c7 -5 10 -17 6 -28 -3 -11 -2
-14 3 -8 13 18 45 -18 32 -36 -8 -13 -11 -13 -23 3 -7 9 -20 17 -28 17 -19 0
-38 20 -38 42 0 19 25 24 48 10z m1717 -292 c-3 -5 -15 -10 -25 -10 -10 0 -22
5 -25 10 -4 6 7 10 25 10 18 0 29 -4 25 -10z m-391 -175 c-21 -16 -54 -20 -54
-6 0 10 22 18 54 20 20 1 20 1 0 -14z m410 -6 c5 -4 4 -20 -3 -37 -10 -25 -16
-28 -44 -24 -34 5 -47 17 -47 45 0 31 65 43 94 16z m-264 -29 c31 1 67 -4 80
-9 18 -7 -22 -10 -142 -10 -93 -1 -168 3 -168 7 0 5 14 9 31 10 17 0 33 3 36
5 2 3 28 3 56 1 29 -2 77 -4 107 -4z m-140 -540 c0 -5 -7 -10 -15 -10 -8 0
-15 5 -15 10 0 6 7 10 15 10 8 0 15 -4 15 -10z"/>
<path d="M4045 6130 c-3 -5 1 -10 9 -10 9 0 16 5 16 10 0 6 -4 10 -9 10 -6 0
-13 -4 -16 -10z"/>
<path d="M3383 6306 c4 -10 3 -24 -3 -31 -8 -9 -6 -14 4 -18 20 -8 27 40 8 55
-13 11 -15 10 -9 -6z"/>
<path d="M3780 5875 c0 -3 9 -14 21 -26 20 -20 22 -20 40 -3 10 9 16 21 13 25
-5 9 -74 13 -74 4z"/>
<path d="M2781 5008 c-5 -13 -6 -27 -4 -31 6 -10 32 23 33 41 0 20 -20 13 -29
-10z"/>
<path d="M2080 4294 c0 -14 31 -34 54 -34 30 0 34 14 9 25 -28 11 -63 16 -63
9z"/>
<path d="M4616 7034 c-10 -25 1 -29 14 -5 6 12 7 21 1 21 -5 0 -12 -7 -15 -16z"/>
<path d="M6380 7010 c0 -6 10 -29 21 -52 19 -38 23 -40 34 -25 12 17 26 17
196 6 101 -6 231 -15 289 -20 194 -15 374 -27 505 -34 72 -4 148 -8 170 -10
22 -2 53 -4 68 -4 22 -1 31 -8 40 -30 10 -28 12 -28 34 -14 12 8 20 19 18 24
-3 4 4 18 16 30 21 21 21 23 4 36 -11 7 -28 13 -39 13 -12 0 -73 5 -136 10
-63 6 -214 17 -335 25 -121 8 -334 24 -474 35 -284 22 -411 25 -411 10z"/>
<path d="M5370 6990 c-12 -8 -10 -10 8 -10 13 0 20 4 17 10 -7 12 -6 12 -25 0z"/>
<path d="M8590 6965 c30 -8 90 -14 133 -15 63 0 77 -3 77 -16 0 -10 6 -14 18
-10 9 3 34 8 55 12 21 3 36 9 33 11 -9 9 -229 32 -301 32 l-70 -1 55 -13z"/>
<path d="M12089 6961 c-3 -19 3 -209 7 -222 4 -15 53 -33 62 -24 2 2 1 57 -3
123 l-7 120 -29 4 c-16 3 -29 2 -30 -1z"/>
<path d="M12184 6945 c-3 -7 -2 -62 3 -121 l8 -109 85 -7 c47 -3 88 -3 93 1 4
4 4 59 0 121 l-8 114 -65 3 c-36 2 -75 5 -88 7 -13 2 -26 -2 -28 -9z"/>
<path d="M12516 6818 c4 -62 9 -116 13 -119 3 -4 44 -10 90 -14 l84 -7 -5 117
c-3 86 -8 119 -19 126 -8 5 -49 9 -92 9 l-77 0 6 -112z"/>
<path d="M12740 6805 c0 -115 0 -116 26 -125 14 -6 27 -10 30 -10 2 0 4 56 4
125 l0 125 -30 0 -30 0 0 -115z"/>
<path d="M8920 6814 c0 -14 104 -24 240 -23 l105 2 -75 8 c-183 20 -270 25
-270 13z"/>
<path d="M9351 6801 c-17 -11 -6 -31 16 -31 9 0 25 -8 35 -17 19 -17 51 -21
348 -42 74 -5 173 -14 220 -20 47 -6 157 -15 245 -21 239 -14 346 -28 366 -46
11 -10 19 -12 24 -5 3 6 21 11 39 11 18 0 35 3 39 6 7 8 -17 34 -32 34 -15 0
-14 17 2 23 6 2 -1 11 -18 19 -29 15 -238 34 -600 53 -60 4 -218 15 -350 26
-267 21 -314 23 -334 10z"/>
<path d="M8917 6774 c-12 -12 4 -24 31 -24 26 1 26 1 8 15 -22 17 -30 18 -39
9z"/>
<path d="M11287 6773 c-4 -6 36 -13 101 -17 59 -4 151 -10 205 -14 54 -4 101
-4 103 0 5 7 -44 15 -151 22 -38 3 -111 8 -161 12 -56 4 -94 3 -97 -3z"/>
<path d="M11603 6693 c9 -2 25 -2 35 0 9 3 1 5 -18 5 -19 0 -27 -2 -17 -5z"/>
<path d="M10676 6681 c13 -14 108 -21 144 -10 21 6 18 7 -16 8 -23 1 -63 4
-90 7 -38 5 -46 4 -38 -5z"/>
<path d="M11145 6678 c-11 -7 -36 -15 -55 -19 l-35 -7 35 -1 c21 0 45 7 60 19
28 22 25 25 -5 8z"/>
<path d="M11720 6626 c0 -12 9 -16 35 -16 19 0 35 -4 35 -9 0 -6 -15 -7 -34
-4 -41 6 -59 -14 -19 -22 15 -4 39 -11 52 -16 21 -9 23 -8 17 15 l-6 25 72 -5
c40 -3 84 -6 98 -8 14 -2 41 -4 61 -4 27 -2 39 -8 46 -24 9 -20 18 -23 74 -24
35 -1 186 -8 334 -17 149 -9 278 -17 287 -17 14 0 18 -12 21 -62 2 -42 4 -27
5 45 l2 107 -52 0 c-70 1 -420 22 -583 36 -22 1 -61 -2 -87 -8 -36 -9 -81 -9
-180 0 -73 6 -143 15 -155 18 -17 5 -23 2 -23 -10z"/>
<path d="M11565 6590 c-18 -8 -19 -9 -1 -9 11 -1 16 -6 13 -15 -7 -17 106 -31
131 -16 16 9 15 9 0 10 -10 0 -27 9 -38 20 -21 21 -69 26 -105 10z"/>
<path d="M8405 5889 c-26 -26 -35 -39 -24 -39 9 0 24 10 35 21 29 33 55 38
135 28 41 -4 116 -10 166 -12 52 -3 99 -10 107 -16 11 -10 20 -10 36 -1 12 7
33 10 46 7 15 -3 24 0 24 8 0 9 -26 15 -77 20 -43 3 -96 8 -118 10 -22 3 -96
6 -165 9 l-125 4 -40 -39z"/>
<path d="M7940 5850 c0 -5 6 -10 13 -11 70 -6 107 -6 137 -1 33 5 34 6 10 13
-39 11 -160 10 -160 -1z"/>
<path d="M8560 5853 c0 -20 50 -33 151 -38 93 -5 108 -3 113 11 4 9 5 18 4 19
-9 8 -268 15 -268 8z"/>
<path d="M8331 5841 c-9 -6 -10 -11 -2 -15 13 -8 31 1 31 15 0 11 -11 11 -29
0z"/>
<path d="M8377 5804 c-24 -20 -27 -27 -17 -39 7 -8 16 -15 21 -15 9 0 49 59
49 73 0 15 -26 6 -53 -19z"/>
<path d="M7938 5804 c-3 -3 -4 -14 -1 -25 5 -16 14 -19 64 -19 62 0 84 15 54
37 -18 13 -106 19 -117 7z"/>
<path d="M11291 5740 c-49 -27 -60 -40 -34 -40 11 0 27 7 34 16 12 14 31 15
149 9 74 -4 160 -11 190 -16 40 -6 56 -5 62 4 4 6 4 15 0 19 -4 4 -72 10 -152
13 -80 3 -161 8 -180 10 -22 2 -48 -4 -69 -15z"/>
<path d="M8920 5736 c0 -18 44 -21 90 -6 21 7 22 8 5 9 -11 1 -37 4 -57 7 -31
5 -38 4 -38 -10z"/>
<path d="M9617 5704 c-15 -5 -12 -9 17 -25 27 -14 60 -19 148 -21 111 -3 113
-3 116 20 3 20 0 22 -50 22 -29 0 -89 2 -133 5 -44 2 -88 2 -98 -1z"/>
<path d="M10615 5701 c-29 -7 -29 -7 13 -14 24 -4 94 -10 155 -14 140 -7 143
-7 197 -4 l45 4 -45 8 c-25 4 -83 10 -130 14 -47 3 -112 7 -145 9 -33 2 -73 1
-90 -3z"/>
<path d="M11251 5657 c-85 -42 -111 -67 -71 -67 29 0 58 16 98 53 28 27 40 31
87 31 35 0 60 -5 72 -16 26 -23 202 -34 229 -14 16 12 17 17 6 28 -9 9 -52 13
-154 15 -77 1 -150 4 -162 6 -13 4 -53 -11 -105 -36z"/>
<path d="M10165 5671 c-19 -7 -18 -8 5 -21 33 -18 40 -19 138 -21 52 -1 88 3
95 10 19 19 -6 28 -86 30 -40 1 -85 4 -102 6 -16 2 -39 1 -50 -4z"/>
<path d="M11150 5660 c0 -5 7 -10 15 -10 8 0 15 5 15 10 0 6 -7 10 -15 10 -8
0 -15 -4 -15 -10z"/>
<path d="M4310 5645 c0 -4 89 -45 98 -45 4 0 -4 7 -16 16 -22 15 -82 36 -82
29z"/>
<path d="M10667 5644 c-23 -23 -5 -30 123 -44 91 -11 104 -11 118 4 10 10 13
19 7 25 -13 11 -237 25 -248 15z"/>
<path d="M8386 5596 c-33 -30 -37 -38 -26 -51 10 -13 10 -19 -3 -33 -13 -14
-14 -21 -5 -30 9 -9 8 -12 -4 -12 -8 0 -22 10 -31 23 -8 12 -17 20 -21 17 -3
-3 6 -19 21 -35 14 -17 32 -40 41 -53 14 -22 16 -22 25 -5 6 10 15 21 21 25
17 12 64 9 72 -3 12 -19 77 1 104 32 22 25 33 29 80 31 60 2 120 -9 120 -22 0
-4 9 -10 21 -13 12 -3 18 -10 14 -17 -3 -6 4 -19 16 -29 22 -17 18 -18 -135
-13 -171 5 -262 -10 -305 -49 -20 -19 -30 -45 -13 -37 103 53 103 53 242 53
186 0 204 -5 226 -59 27 -65 44 -40 44 67 0 121 2 122 184 121 77 -1 182 -4
231 -8 50 -3 155 -8 235 -11 144 -5 260 -19 292 -36 13 -6 21 0 37 32 12 22
21 41 21 43 0 2 -42 6 -92 10 -51 4 -113 9 -138 12 -25 2 -121 9 -215 14 -243
14 -403 27 -413 34 -5 3 -66 8 -137 12 -95 5 -126 4 -121 -5 4 -6 15 -11 25
-11 10 0 25 -8 32 -17 13 -15 11 -16 -11 -10 -14 4 -59 10 -100 13 -100 7
-112 12 -80 29 25 14 25 14 -15 15 -22 0 -76 3 -120 5 l-80 6 -39 -35z"/>
<path d="M12336 5551 c-4 -6 10 -18 31 -28 55 -25 256 -26 261 -1 4 19 -21 24
-184 33 -67 4 -104 3 -108 -4z"/>
<path d="M6872 5419 c-29 -4 -56 -10 -60 -14 -7 -8 109 2 117 10 9 10 -5 11
-57 4z"/>
<path d="M9980 5420 c0 -5 -6 -10 -14 -10 -8 0 -24 -16 -35 -36 -21 -35 -21
-37 -4 -56 27 -30 52 -41 66 -30 7 6 25 10 40 9 27 -2 28 -4 24 -34 -6 -36 -5
-36 56 -33 26 1 39 -3 43 -14 3 -9 9 -14 13 -12 3 2 31 0 61 -4 30 -4 57 -6
59 -4 2 2 -21 15 -52 29 -98 43 -59 66 56 34 86 -24 129 -28 134 -12 5 13 -68
49 -142 69 -50 13 -100 58 -88 77 4 6 -13 7 -45 3 -43 -6 -52 -4 -52 9 0 19
-14 19 -30 0 -19 -22 -61 -19 -67 5 -5 20 -23 28 -23 10z m160 -161 c0 -5 -9
-9 -20 -9 -22 0 -27 16 -7 23 15 5 27 -1 27 -14z"/>
<path d="M9895 5409 c-4 -6 -3 -15 3 -21 6 -6 11 -4 15 6 7 18 -9 31 -18 15z"/>
<path d="M7645 5346 c31 -26 45 -32 45 -18 0 5 -12 15 -27 23 -46 23 -49 22
-18 -5z"/>
<path d="M9732 5339 c-146 -34 -373 -143 -356 -171 4 -7 2 -8 -5 -4 -7 4 -38
-14 -76 -43 -65 -51 -91 -61 -112 -40 -9 9 -23 5 -57 -15 -26 -15 -51 -24 -57
-21 -6 4 -7 -3 -3 -20 5 -20 0 -35 -25 -66 -18 -21 -39 -56 -47 -77 -15 -36
-61 -130 -90 -183 -16 -30 -30 -188 -20 -216 7 -16 8 -17 17 -1 5 9 18 60 28
115 35 175 71 258 150 343 47 51 51 53 51 29 0 -14 3 -28 6 -31 12 -13 43 6
53 33 6 17 28 40 53 56 47 30 52 34 116 89 41 36 74 55 192 114 75 37 194 66
304 73 24 2 30 8 33 30 3 25 1 27 -34 26 -21 0 -75 -9 -121 -20z"/>
<path d="M6545 5330 c-8 -13 15 -13 35 0 12 8 11 10 -7 10 -12 0 -25 -4 -28
-10z"/>
<path d="M11417 5260 c-146 -18 -237 -51 -237 -86 0 -19 7 -18 31 5 32 30 134
51 260 54 99 2 121 -1 152 -18 46 -24 43 -16 63 -187 7 -61 20 -79 58 -83 l24
-3 -4 126 c-5 123 -16 182 -36 182 -5 0 -6 -4 -3 -10 9 -15 -1 -12 -18 4 -18
18 -194 28 -290 16z"/>
<path d="M6389 5239 l-24 -20 28 17 c15 9 27 18 27 20 0 8 -8 4 -31 -17z"/>
<path d="M9770 5235 l-45 -14 55 6 c30 3 66 10 80 14 22 6 21 7 -10 7 -19 0
-55 -6 -80 -13z"/>
<path d="M9759 5175 c-26 -7 -61 -20 -79 -29 -18 -9 -40 -16 -49 -16 -45 0
-200 -95 -288 -176 -14 -13 -33 -26 -42 -29 -23 -8 -69 -75 -119 -175 -39 -77
-103 -230 -108 -255 -1 -5 -7 -35 -13 -65 -6 -30 -14 -82 -17 -115 -5 -57 -14
-89 -14 -49 0 16 -7 20 -37 20 -23 0 -43 -6 -50 -15 -10 -14 -12 -14 -16 -1
-12 38 -14 60 -6 66 5 3 7 10 3 15 -14 24 -21 -8 -20 -98 l1 -98 40 -3 c54 -5
113 7 95 18 -22 14 -10 16 52 12 57 -4 58 -4 52 -30 -10 -39 -10 -40 -51 -34
-82 10 -186 7 -190 -5 -3 -7 3 -13 14 -13 17 -1 17 -1 -1 -15 -27 -21 -13 -45
26 -45 18 0 50 -3 71 -6 34 -6 37 -9 37 -39 0 -19 6 -35 13 -38 29 -10 -2 -15
-53 -7 -30 4 -49 8 -42 9 7 0 11 5 8 10 -6 9 -52 8 -61 -1 -3 -2 -6 -15 -7
-27 -3 -22 0 -24 64 -25 36 0 70 -4 74 -8 4 -5 8 -56 10 -115 1 -60 5 -238 9
-398 4 -159 8 -292 10 -295 2 -3 6 -144 9 -315 6 -331 14 -513 22 -558 5 -27
7 -27 79 -27 78 0 130 -13 120 -30 -3 -6 -48 -10 -101 -10 l-94 0 0 -45 c0
-25 3 -45 8 -45 4 0 6 -139 4 -310 l-4 -310 26 -11 c20 -10 24 -17 20 -36 -5
-17 0 -31 15 -47 18 -19 30 -23 69 -19 26 2 58 1 71 -2 l24 -6 -21 -19 c-11
-10 -22 -24 -23 -29 -3 -7 -16 -7 -41 1 -56 17 -68 7 -68 -56 0 -62 5 -66 81
-66 27 0 49 -4 49 -10 0 -9 -7 -11 -50 -15 -8 0 -21 -4 -28 -8 -6 -5 -16 -5
-22 -2 -5 3 -10 1 -10 -4 0 -14 107 -14 420 -1 493 21 729 29 844 31 65 1 137
4 158 7 38 5 40 6 34 36 -20 108 -21 104 10 108 26 3 29 6 26 32 -2 16 -11 41
-20 54 -15 23 -15 25 3 38 10 8 23 14 28 14 5 0 7 9 4 19 -3 11 1 28 8 38 7
10 16 29 20 42 4 13 23 44 42 70 l36 46 -8 200 c-4 110 -8 256 -10 325 -3 138
-11 327 -25 615 -5 105 -12 255 -15 335 -11 290 -16 407 -21 512 -6 125 -19
109 134 162 88 30 118 36 195 37 51 1 106 5 122 9 l30 7 -35 6 c-19 3 -71 8
-115 10 -75 4 -87 2 -192 -38 -118 -45 -163 -59 -163 -50 0 3 5 15 12 28 6 12
14 29 18 37 15 33 278 109 408 117 39 3 62 9 62 17 0 6 -10 12 -22 13 -61 4
-108 15 -102 24 3 5 15 9 27 8 42 -4 68 1 62 11 -4 6 -55 10 -121 10 -100 0
-121 -3 -162 -24 -52 -26 -241 -91 -246 -85 -2 2 -6 16 -10 31 -5 24 -2 28 39
44 l45 17 0 58 c0 32 11 127 25 211 13 84 31 198 38 253 8 55 18 109 21 120
10 30 -47 111 -145 208 -92 91 -171 149 -285 207 -41 21 -80 42 -87 47 -6 5
-40 19 -74 30 -50 17 -64 18 -73 8 -11 -13 -128 -13 -169 0 -13 4 -31 -2 -51
-16 -29 -22 -55 -20 -32 3 7 7 12 16 12 20 0 12 -99 8 -151 -7z m-659 -1085
c0 -5 -10 -10 -22 -9 -22 0 -22 1 -3 9 11 5 21 9 23 9 1 1 2 -3 2 -9z m95
-2040 c8 -13 -5 -13 -25 0 -13 8 -13 10 2 10 9 0 20 -4 23 -10z m1468 1 c87
-1 127 -5 127 -12 0 -8 -30 -10 -107 -5 -101 7 -110 6 -130 -13 -27 -26 -33
-26 -82 0 -29 15 -50 19 -77 15 -20 -4 -46 -3 -58 1 -24 9 92 21 159 17 22 -1
97 -3 168 -3z m127 -93 c-1 -48 -2 -51 -13 -30 -7 12 -16 19 -20 16 -4 -4 -7
-2 -7 4 0 6 5 14 10 17 6 3 10 15 10 26 0 10 5 19 10 19 6 0 10 -24 10 -52z
m-195 -478 c-3 -5 -15 -10 -25 -10 -10 0 -22 5 -25 10 -4 6 7 10 25 10 18 0
29 -4 25 -10z"/>
<path d="M9496 5135 c-11 -8 -15 -15 -10 -15 6 0 19 7 30 15 10 8 15 14 9 14
-5 0 -19 -6 -29 -14z"/>
<path d="M4770 5131 c0 -13 28 -33 33 -23 3 4 -3 13 -14 20 -10 7 -19 8 -19 3z"/>
<path d="M8862 5118 c3 -8 26 -13 60 -14 76 -2 68 20 -8 24 -41 2 -55 -1 -52
-10z"/>
<path d="M12447 5094 c-48 -13 -97 -29 -108 -35 -40 -21 -12 -18 62 6 41 13
104 27 142 30 37 4 65 11 62 16 -10 15 -64 9 -158 -17z"/>
<path d="M6162 5040 c-12 -19 -11 -20 8 -8 11 7 20 16 20 20 0 15 -15 8 -28
-12z"/>
<path d="M12264 5021 c-23 -10 -45 -24 -48 -30 -12 -19 11 -12 51 15 60 41 60
43 -3 15z"/>
<path d="M5982 4975 c-6 -14 -7 -25 -2 -25 9 0 25 39 18 46 -3 2 -10 -7 -16
-21z"/>
<path d="M5046 4900 c10 -16 19 -28 21 -26 7 7 -17 56 -27 56 -7 0 -4 -13 6
-30z"/>
<path d="M5080 4795 c0 -8 5 -15 10 -15 6 0 10 7 10 15 0 8 -4 15 -10 15 -5 0
-10 -7 -10 -15z"/>
<path d="M8032 4169 c-24 -17 -41 -34 -38 -37 3 -2 22 8 43 24 37 28 40 29
158 28 91 0 107 1 65 7 -30 4 -84 7 -121 8 -58 1 -70 -2 -107 -30z"/>
<path d="M10940 4090 c-12 -8 -10 -10 8 -10 13 0 20 4 17 10 -7 12 -6 12 -25
0z"/>
<path d="M5562 3895 c10 -11 78 -15 78 -5 0 6 -19 10 -42 10 -23 0 -39 -2 -36
-5z"/>
<path d="M5660 3881 c25 -15 80 -23 80 -13 0 11 -34 22 -70 22 -19 -1 -21 -3
-10 -9z"/>
<path d="M5210 3864 c0 -8 5 -12 10 -9 6 3 10 10 10 16 0 5 -4 9 -10 9 -5 0
-10 -7 -10 -16z"/>
<path d="M5736 3824 c-9 -25 -7 -54 5 -54 5 0 9 8 7 18 -1 9 1 22 5 29 4 6 3
14 -2 17 -5 3 -12 -1 -15 -10z"/>
<path d="M5793 3823 c9 -2 23 -2 30 0 6 3 -1 5 -18 5 -16 0 -22 -2 -12 -5z"/>
<path d="M8888 3706 c-5 -41 4 -62 21 -51 8 4 10 18 6 38 -10 48 -22 53 -27
13z"/>
<path d="M4950 3455 c0 -85 14 -84 17 0 1 36 -3 65 -8 65 -5 0 -9 -29 -9 -65z"/>
<path d="M5228 3423 c12 -2 30 -2 40 0 9 3 -1 5 -23 4 -22 0 -30 -2 -17 -4z"/>
<path d="M5670 3413 c25 -7 52 -11 60 -8 26 10 -9 23 -59 23 l-46 -1 45 -14z"/>
<path d="M5060 2805 c0 -4 17 -31 38 -61 34 -50 40 -54 77 -54 39 -1 75 -18
75 -36 0 -5 24 -25 53 -44 28 -19 54 -38 57 -41 11 -14 70 -39 91 -39 12 0 20
-3 16 -6 -6 -7 6 -24 39 -56 12 -11 27 -40 34 -64 7 -25 17 -47 21 -50 5 -3 9
-14 9 -25 0 -15 -7 -19 -32 -20 l-33 0 38 -16 c43 -18 48 -39 12 -55 -19 -8
-31 -8 -50 0 -30 14 -45 15 -45 4 0 -18 62 -42 148 -58 62 -11 97 -23 109 -36
16 -18 16 -20 1 -29 -58 -33 -63 -70 -10 -95 20 -9 42 -17 48 -17 21 0 2 -39
-25 -50 -80 -36 -79 -92 2 -112 17 -5 27 -14 27 -25 0 -12 -10 -21 -27 -25
-32 -7 -73 -38 -73 -54 0 -19 31 -61 45 -61 15 0 45 -27 45 -39 0 -5 -37 -11
-82 -15 -46 -3 -97 -8 -115 -10 -17 -2 -55 -7 -85 -11 -272 -33 -441 -99 -562
-218 -85 -84 -197 -262 -215 -343 -16 -67 -48 -84 -164 -84 -45 0 -120 -4
-167 -10 -90 -10 -417 -32 -740 -50 -107 -6 -265 -16 -350 -22 -222 -16 -229
-16 -268 -7 -42 9 -60 25 -46 39 10 10 34 13 329 45 664 72 986 139 1165 246
35 20 220 206 220 221 0 4 26 49 59 100 32 51 67 111 78 133 11 22 38 74 60
115 49 95 108 247 126 325 21 91 -2 275 -34 275 -5 0 -9 -4 -9 -8 0 -5 -21
-20 -47 -35 -27 -14 -72 -46 -101 -71 -52 -45 -55 -46 -121 -46 -37 0 -70 2
-73 5 -3 3 -1 24 3 48 5 23 13 89 19 147 5 58 16 148 22 200 l13 95 40 -3 c22
-2 44 -7 50 -11 5 -4 19 -11 30 -15 16 -5 15 -2 -5 13 -63 50 -311 77 -610 68
-245 -8 -386 -30 -475 -74 -33 -16 -25 -14 77 16 128 37 610 52 810 25 l45 -6
-12 -62 c-7 -33 -13 -86 -14 -116 0 -30 -6 -117 -12 -192 l-12 -137 -31 -11
c-32 -12 -346 -39 -452 -40 -44 0 -65 4 -75 16 -21 26 -21 52 2 65 38 20 1 29
-121 29 -119 0 -132 3 -143 32 -4 12 2 19 24 27 51 18 24 29 -78 30 -63 1
-108 7 -129 17 -18 9 -42 13 -52 10 -14 -5 -29 2 -50 24 -17 16 -35 30 -41 30
-21 0 -11 19 12 22 12 2 22 10 22 18 0 20 -90 45 -107 30 -18 -14 -72 -51
-143 -96 -33 -21 -96 -66 -141 -100 -44 -34 -91 -67 -105 -74 -13 -7 -38 -27
-55 -44 -93 -95 -189 -172 -226 -183 -23 -7 -78 -13 -122 -14 -114 -2 -134 -1
-154 10 -14 7 -21 5 -30 -10 -17 -26 -15 -39 6 -39 14 0 12 -4 -8 -20 -14 -11
-31 -20 -39 -20 -7 0 -27 -12 -45 -26 -17 -14 -44 -35 -59 -47 -16 -12 -44
-36 -63 -54 -26 -24 -45 -33 -79 -35 -25 -2 -45 -7 -45 -13 1 -5 9 -9 20 -7
10 2 21 -2 25 -8 3 -5 20 -10 37 -10 26 0 29 -2 18 -16 -13 -15 -52 -14 -132
2 -41 8 -71 -4 -65 -27 5 -18 -10 -25 -38 -19 -5 1 -14 3 -20 4 -5 1 -16 5
-22 9 -7 5 -120 6 -250 3 -344 -9 -744 -9 -851 -1 -72 5 -98 3 -115 -7 -17
-11 -88 -15 -335 -17 l-312 -2 0 50 c0 27 5 53 10 56 5 3 10 -1 10 -9 0 -32
84 -71 129 -59 22 6 23 9 17 59 -6 50 -5 54 16 59 26 5 381 22 758 35 269 10
588 23 984 40 131 6 246 15 256 20 9 5 23 17 31 27 13 17 13 17 -5 3 -13 -10
-70 -18 -195 -26 -151 -10 -180 -10 -207 2 -34 16 -60 55 -50 73 11 17 -114
61 -174 61 -11 0 -34 8 -53 19 -19 10 -65 21 -110 25 -42 4 -77 9 -77 10 0 20
66 188 87 221 l28 44 126 1 c288 0 672 -30 732 -59 36 -18 37 -18 37 0 0 38
-70 54 -345 75 -270 22 -902 25 -1055 6 -219 -28 -545 -116 -750 -202 -41 -17
-101 -43 -133 -56 -32 -14 -62 -22 -67 -19 -6 4 -10 -385 -10 -1049 l0 -1056
6400 0 6400 0 -2 523 c-1 287 -3 500 -5 472 l-4 -50 -35 1 -36 1 -2 129 c-3
157 -28 243 -88 308 -59 64 -56 66 75 57 l97 -6 -2 75 c-1 65 -2 68 -5 21 l-4
-54 -142 6 c-78 3 -168 11 -200 18 -57 12 -70 11 -532 -25 -22 -1 19 -3 90 -4
72 -1 136 -6 143 -11 10 -6 4 -16 -22 -39 -20 -17 -36 -33 -36 -36 0 -3 -13
-26 -30 -53 -42 -68 -69 -153 -76 -244 -10 -119 4 -113 -287 -106 -133 4 -336
16 -452 27 -115 11 -259 24 -320 30 -60 6 -117 13 -125 15 -26 8 -47 -12 -34
-32 8 -13 43 -23 135 -38 l124 -20 57 -60 57 -60 -159 -10 c-209 -14 -217 -21
-60 -49 329 -59 1026 -103 1531 -97 163 2 305 0 317 -3 22 -7 22 -9 22 -277
l0 -269 -4112 5 c-2262 2 -4184 4 -4270 4 -136 -1 -158 1 -158 14 0 24 -17 29
-56 17 -27 -9 -33 -15 -23 -21 18 -11 -3 -12 -246 -10 -104 1 -209 1 -232 1
-26 0 -48 6 -59 18 -14 13 -39 18 -116 20 -54 2 -98 7 -98 12 0 4 37 11 83 15
98 8 209 28 184 33 -10 2 -16 11 -15 20 2 12 -5 18 -26 20 -17 2 -26 0 -22 -7
11 -17 -59 -24 -162 -16 -53 4 -154 8 -224 9 -80 1 -131 5 -138 12 -9 9 -9 14
0 19 22 14 311 24 820 29 283 3 569 10 635 15 97 9 581 18 1125 21 96 1 272
20 280 31 5 7 58 18 115 24 17 1 47 10 67 19 21 9 49 16 63 16 16 0 25 6 25
15 0 8 6 15 14 15 7 0 19 6 25 14 17 21 -9 32 -94 40 -100 10 -119 14 -151 30
-15 8 -53 18 -83 22 -31 4 -59 11 -62 16 -9 14 -70 13 -79 -2 -6 -9 -12 -1
-19 26 -10 40 7 142 22 128 4 -4 7 0 7 10 0 9 -4 14 -10 11 -6 -4 -10 8 -10
29 0 35 1 36 38 36 21 0 48 7 61 16 18 13 25 14 31 4 6 -9 17 -5 44 16 40 33
42 37 21 54 -11 9 -22 9 -46 1 -18 -6 -33 -11 -35 -11 -12 0 -28 93 -29 175
-2 64 -6 100 -14 103 -6 2 -11 15 -11 28 0 13 -8 32 -18 42 -10 10 -25 42 -33
72 -7 29 -20 55 -28 58 -8 3 -11 0 -8 -5 6 -9 -42 -23 -79 -23 -12 0 -24 28
-29 63 -1 9 -10 26 -19 36 -9 9 -16 27 -16 39 0 22 20 28 73 23 10 -2 17 5 17
16 1 30 29 -28 30 -60 0 -16 7 -35 15 -43 8 -9 15 -11 15 -6 0 14 63 1 84 -17
18 -15 18 -15 12 19 -4 19 -10 60 -14 90 -4 31 -17 72 -29 92 -20 33 -23 60
-33 254 -5 119 -13 221 -17 228 -4 6 -11 34 -15 61 -12 82 -34 167 -57 217
-11 26 -21 56 -21 67 0 12 -4 21 -9 21 -20 0 -21 40 -3 79 11 22 17 51 15 64
-3 14 0 34 6 46 16 30 -1 57 -41 64 -331 58 -588 89 -588 72z m476 -163 c-9
-8 -26 10 -26 26 1 15 2 15 15 -2 8 -11 13 -21 11 -24z m-4285 -285 c-6 -8
-18 -33 -26 -57 -27 -78 -32 -80 -168 -80 -66 0 -117 3 -113 7 3 4 14 8 23 9
48 7 63 16 63 35 0 22 -72 59 -115 59 -13 0 -26 4 -29 9 -4 5 33 12 81 16 49
3 93 8 98 10 6 2 52 4 104 4 77 1 91 -1 82 -12z m1899 -146 c5 -11 10 -26 10
-33 0 -18 -36 -39 -54 -32 -17 6 -29 46 -20 68 9 22 51 20 64 -3z m1594 -49
c9 -15 -63 -33 -142 -35 -60 -1 -79 -4 -75 -14 4 -9 -7 -13 -40 -13 -25 0 -49
-4 -52 -10 -3 -5 -36 -10 -72 -10 -57 0 -64 2 -53 15 9 10 9 15 1 15 -6 0 -11
4 -11 9 0 4 53 13 118 20 119 12 273 27 304 30 9 0 19 -3 22 -7z m-1374 -72
c0 -5 -4 -10 -9 -10 -6 0 -13 5 -16 10 -3 6 1 10 9 10 9 0 16 -4 16 -10z
m-3255 -169 c-9 -29 -39 -23 -43 8 -2 13 2 27 10 32 19 12 41 -14 33 -40z
m739 26 c11 -8 17 -23 14 -38 -3 -21 -9 -24 -50 -27 l-48 -3 0 40 c0 40 1 41
33 41 18 0 41 -6 51 -13z m-76 -324 c6 -19 -43 -16 -59 3 -11 14 -9 15 21 12
18 -2 35 -9 38 -15z m3387 -3 c-3 -5 -27 -9 -53 -8 l-47 1 50 7 c28 4 51 8 53
8 2 1 0 -2 -3 -8z m-1326 -29 c11 -7 10 -11 -7 -20 -43 -23 -105 -5 -65 18 22
13 53 14 72 2z m2695 -46 c25 -19 14 -31 -36 -38 -63 -8 -93 22 -40 41 38 14
54 14 76 -3z m-2969 -13 c83 -21 130 -45 146 -73 10 -19 9 -20 -13 -14 -12 4
-36 15 -53 23 -16 9 -75 30 -130 48 -87 28 -95 33 -60 33 22 0 72 -8 110 -17z
m2804 -46 c-12 -10 -59 -15 -59 -6 0 5 14 10 32 10 17 0 29 -2 27 -4z m-2882
-42 l38 -15 -45 7 c-25 3 -54 8 -65 9 -11 2 -26 4 -33 4 -7 1 -10 6 -7 11 7
12 56 5 112 -16z m3113 -19 c17 -9 30 -20 30 -25 0 -12 -73 14 -78 28 -5 16
13 15 48 -3z m-2832 -97 c-4 -29 -34 -36 -41 -9 -6 24 0 31 25 31 14 0 19 -6
16 -22z m9675 -81 c60 -35 104 -90 122 -151 22 -73 18 -119 -15 -192 -27 -60
-33 -67 -87 -92 -80 -37 -141 -36 -218 3 -75 38 -138 125 -149 202 -14 110 28
198 117 242 60 30 167 25 230 -12z m227 -103 c0 -7 3 -19 6 -28 3 -9 2 -16 -4
-16 -11 0 -32 53 -32 79 1 13 3 13 15 -3 8 -11 15 -25 15 -32z m-7232 17 c59
-23 117 -62 141 -93 74 -94 98 -221 65 -338 -21 -75 -103 -164 -189 -206 -53
-26 -70 -29 -145 -28 -63 1 -97 7 -134 23 -56 25 -127 89 -161 146 -39 68 -59
222 -33 268 7 12 13 27 14 32 10 58 123 166 205 195 72 26 173 26 237 1z
m-2950 -41 c9 -5 29 -14 45 -20 32 -11 35 -33 6 -54 -12 -8 -30 -28 -40 -45
-40 -66 -126 -90 -176 -51 -28 22 -29 21 55 39 30 6 65 20 79 31 14 11 23 20
19 20 -3 0 3 9 14 20 27 27 25 34 -15 49 -46 16 -171 2 -224 -25 -14 -8 -33
-14 -41 -13 -9 0 -6 5 8 11 12 6 22 15 22 20 0 4 13 8 29 8 17 0 33 5 36 10 8
13 160 13 183 0z m3304 -65 c3 -33 5 -62 3 -63 -13 -13 -45 15 -59 51 -25 66
-22 79 17 75 31 -3 32 -4 39 -63z m-4029 -12 c19 -31 -12 -34 -409 -42 -623
-12 -1344 -13 -1344 -1 0 6 52 10 143 10 308 0 1234 23 1549 38 31 2 59 -1 61
-5z m577 -133 c12 -8 12 -10 -3 -16 -10 -3 -17 -17 -17 -33 0 -20 -2 -23 -10
-11 -7 12 -11 10 -18 -10 -5 -14 -8 -28 -5 -32 2 -5 -2 -8 -11 -8 -8 0 -16 4
-18 10 -4 13 -145 -7 -180 -26 -34 -18 -38 -18 -38 7 0 32 25 49 70 49 38 0
118 31 131 52 5 8 52 25 74 27 6 0 17 -3 25 -9z m180 -13 c0 -15 93 -43 130
-39 14 2 28 8 31 14 5 8 12 6 23 -4 8 -9 12 -18 9 -21 -3 -3 -5 -25 -5 -49 1
-33 -2 -39 -9 -25 -6 9 -17 17 -25 17 -9 0 -28 8 -42 18 -33 22 -102 29 -112
11 -16 -25 1 -39 49 -39 44 -1 45 -1 21 -14 -14 -8 -28 -12 -32 -9 -5 2 -15
-3 -24 -12 -12 -12 -15 -28 -12 -60 3 -24 2 -49 -3 -57 -7 -10 -9 -10 -9 3 0
21 -42 69 -59 69 -8 0 -19 -8 -26 -17 -10 -14 -10 -20 1 -31 8 -7 14 -18 14
-23 0 -15 -18 -10 -28 7 -7 13 -18 15 -46 10 -20 -4 -36 -11 -36 -16 0 -6 -4
-10 -9 -10 -10 0 -9 26 2 36 4 4 7 13 7 21 0 22 -39 15 -66 -12 -37 -37 -45
-30 -20 17 15 28 29 42 46 45 14 2 27 8 28 13 2 6 21 10 43 10 21 0 39 4 39 8
0 4 9 8 20 8 11 0 20 -6 20 -13 0 -8 12 -13 30 -13 37 0 38 9 5 44 -14 15 -25
34 -25 42 0 9 -7 22 -15 31 -20 20 -15 36 16 44 40 12 69 10 69 -4z m10270
-17 l0 -30 -69 0 c-51 0 -70 4 -75 15 -9 24 33 45 91 45 52 0 53 0 53 -30z
m-10390 -25 c0 -10 -10 -15 -29 -15 -32 0 -50 15 -29 23 27 11 58 7 58 -8z
m-120 -90 c-15 -18 -88 -29 -120 -17 -23 9 -20 10 30 20 86 15 105 15 90 -3z
m-210 -65 c0 -11 5 -20 10 -20 6 0 10 -9 10 -20 0 -14 9 -21 34 -26 19 -3 37
-12 40 -20 4 -11 16 -13 43 -9 21 3 32 2 26 -1 -19 -8 -16 -27 9 -54 21 -22
26 -23 123 -17 107 7 138 13 130 27 -3 5 4 11 15 15 11 4 20 15 20 27 0 17 2
18 15 8 10 -8 15 -9 15 -1 0 6 12 14 26 17 14 4 23 12 20 19 -5 15 26 43 42
37 7 -2 12 1 12 8 0 6 5 8 10 5 26 -16 8 -56 -52 -118 -89 -90 -108 -100 -228
-117 -135 -19 -284 65 -317 180 -9 30 -18 61 -20 68 -3 6 0 12 6 12 6 0 11 -9
11 -20z m1863 -27 c-13 -2 -33 -2 -45 0 -13 2 -3 4 22 4 25 0 35 -2 23 -4z
m627 -1 c-14 -4 -142 -5 -285 -2 l-260 6 285 1 c157 1 274 -2 260 -5z m295
-12 c-3 -5 -26 -9 -50 -8 -57 3 -47 18 11 18 27 0 43 -4 39 -10z m-1891 -362
l81 -1 -95 -7 c-140 -11 -230 -11 -230 -1 0 11 88 20 134 14 16 -1 65 -4 110
-5z m382 -95 c-9 -9 -26 -12 -123 -19 -87 -7 -140 2 -93 16 32 10 226 12 216
3z"/>
<path d="M12317 1254 c-12 -13 -8 -51 8 -64 21 -18 47 5 43 39 -3 26 -35 41
-51 25z"/>
<path d="M12192 1214 c-26 -18 -28 -37 -7 -54 24 -20 65 -4 65 25 0 33 -30 49
-58 29z"/>
<path d="M12438 1166 c-15 -34 -4 -58 24 -54 26 3 36 41 18 64 -18 20 -29 17
-42 -10z"/>
<path d="M12325 1110 c-8 -14 3 -30 21 -30 8 0 14 9 14 20 0 21 -24 28 -35 10z"/>
<path d="M12120 1060 c0 -39 1 -40 28 -34 56 14 69 43 27 62 -45 21 -55 16
-55 -28z"/>
<path d="M12493 1048 c-24 -11 -29 -33 -14 -57 13 -19 39 -7 51 25 16 41 4 52
-37 32z"/>
<path d="M12178 949 c-23 -13 -23 -32 1 -53 18 -17 20 -17 40 3 29 29 28 61
-1 61 -13 0 -31 -5 -40 -11z"/>
<path d="M12427 933 c-4 -3 -7 -19 -7 -35 0 -33 23 -37 59 -9 l24 18 -24 17
c-25 17 -42 20 -52 9z"/>
<path d="M12323 903 c-21 -7 -15 -33 7 -33 11 0 20 6 20 14 0 18 -11 25 -27
19z"/>
<path d="M12288 849 c-10 -6 -10 -11 -1 -20 12 -12 63 -5 63 10 0 12 -46 20
-62 10z"/>
<path d="M5225 1135 l-40 -13 33 -1 c25 -1 32 -5 32 -21 0 -29 50 -70 85 -69
41 1 59 10 63 34 2 11 10 25 19 32 55 43 -90 71 -192 38z"/>
<path d="M5127 1072 c-10 -10 -17 -24 -17 -30 0 -6 -7 -9 -15 -6 -9 4 -15 0
-15 -9 0 -8 -7 -20 -15 -27 -12 -10 -13 -16 -4 -26 8 -10 8 -14 0 -14 -14 0
-15 -46 -1 -55 18 -11 79 7 106 32 15 13 37 29 50 34 13 4 24 14 24 21 0 14
-77 98 -90 98 -4 0 -14 -8 -23 -18z"/>
<path d="M5446 1026 c-31 -42 -32 -46 -6 -46 13 0 20 -7 20 -18 0 -44 63 -81
115 -68 34 9 32 33 -10 105 -31 52 -40 61 -64 61 -21 0 -36 -9 -55 -34z"/>
<path d="M5292 948 c-29 -29 -7 -53 38 -43 37 8 39 32 4 45 -31 12 -28 12 -42
-2z"/>
<path d="M5093 862 c-13 -2 -23 -10 -23 -18 0 -10 13 -14 44 -14 48 0 76 7 76
20 0 9 -64 17 -97 12z"/>
<path d="M5440 841 c0 -14 27 -21 80 -21 67 0 71 16 7 24 -70 8 -87 8 -87 -3z"/>
<path d="M5272 831 c-10 -6 -8 -10 10 -14 38 -11 58 -8 58 8 0 17 -46 21 -68
6z"/>
<path d="M5215 810 c-4 -7 -3 -16 3 -22 14 -14 45 -2 40 15 -6 16 -34 21 -43
7z"/>
<path d="M5384 806 c-9 -24 12 -44 28 -28 10 10 8 16 -5 29 -15 15 -17 15 -23
-1z"/>
<path d="M5058 802 c-22 -4 -23 -28 -3 -48 8 -9 18 -27 22 -42 7 -30 42 -62
59 -55 13 5 34 55 34 78 0 36 -69 77 -112 67z"/>
<path d="M5474 765 c-21 -32 -20 -98 1 -127 13 -19 14 -19 32 8 10 16 35 44
56 62 35 33 46 55 30 65 -5 3 -29 8 -55 12 -43 6 -48 5 -64 -20z"/>
<path d="M5212 718 c-7 -7 -12 -18 -12 -25 0 -7 -4 -13 -8 -13 -12 0 -33 -50
-27 -61 11 -18 35 -9 57 22 13 17 23 34 23 39 0 5 3 12 7 16 8 7 -9 34 -21 34
-4 0 -12 -5 -19 -12z"/>
<path d="M5377 714 c-12 -12 6 -70 31 -96 22 -24 26 -25 40 -12 9 9 11 19 6
22 -5 4 -18 26 -28 50 -18 39 -34 51 -49 36z"/>
<path d="M5265 643 c-17 -5 -55 -39 -55 -50 0 -13 67 -27 132 -27 43 -1 78 0
78 2 0 2 -15 19 -33 38 -33 35 -79 49 -122 37z"/>
<path d="M5160 2660 c0 -13 7 -20 20 -20 11 0 20 1 20 3 0 1 -9 10 -20 20 -19
16 -20 16 -20 -3z"/>
<path d="M5240 2538 c0 -9 11 -26 24 -39 13 -13 26 -34 30 -46 4 -12 32 -52
63 -90 53 -64 56 -66 50 -35 -6 32 -81 131 -119 160 -10 7 -18 19 -18 26 0 8
-7 19 -15 26 -12 10 -15 10 -15 -2z"/>
<path d="M2500 2030 c-8 -5 -11 -12 -8 -16 10 -9 38 3 38 16 0 12 -10 13 -30
0z"/>
<path d="M12767 1891 c-26 -46 -27 -56 -17 -81 11 -26 37 -46 47 -36 2 2 3 41
1 87 l-3 83 -28 -53z"/>
<path d="M11730 1891 l-25 -7 25 -5 c14 -3 57 -2 95 1 61 4 66 6 36 13 -40 8
-97 8 -131 -2z"/>
<path d="M5164 1841 c-42 -25 -60 -85 -39 -133 34 -84 136 -96 193 -23 35 44
30 99 -12 141 -40 40 -92 46 -142 15z"/>
<path d="M763 1723 c-32 -12 -8 -24 44 -21 73 4 88 28 16 27 -26 0 -54 -3 -60
-6z"/>
<path d="M11148 1713 c-10 -2 -18 -9 -18 -14 0 -13 13 -11 36 6 19 14 14 17
-18 8z"/>
<path d="M12792 1690 c0 -19 2 -27 5 -17 2 9 2 25 0 35 -3 9 -5 1 -5 -18z"/>
<path d="M8395 1561 c-15 -26 8 -32 88 -25 45 3 86 10 92 15 6 6 6 9 0 9 -6 1
-47 3 -91 6 -53 4 -84 2 -89 -5z"/>
<path d="M10817 1563 c-17 -17 -2 -23 58 -23 l65 0 -17 -35 c-21 -44 -9 -61
30 -43 32 15 38 43 7 33 -16 -5 -19 -3 -13 12 15 44 20 45 158 37 83 -4 134
-3 138 3 10 16 -411 32 -426 16z"/>
<path d="M8788 1543 c18 -2 45 -2 60 0 15 2 0 4 -33 4 -33 0 -45 -2 -27 -4z"/>
<path d="M10820 1495 c0 -3 11 -10 25 -15 27 -10 58 -3 49 11 -5 9 -74 13 -74
4z"/>
<path d="M11020 1480 c20 -13 147 -13 155 0 4 6 -26 10 -82 10 -60 0 -83 -3
-73 -10z"/>
<path d="M8350 1461 c0 -17 16 -20 71 -14 l54 7 -40 7 c-56 11 -85 11 -85 0z"/>
<path d="M11856 1373 c-4 -5 -26 -9 -49 -9 -23 -1 -100 -7 -172 -14 -113 -10
-136 -9 -174 4 -52 19 -249 16 -293 -4 -34 -16 -59 -52 -48 -69 11 -19 680
-29 733 -12 40 14 95 80 82 100 -7 12 -68 15 -79 4z"/>
<path d="M10680 1271 c0 -17 45 -88 66 -104 30 -23 138 -45 260 -53 146 -9
243 18 276 79 17 33 -6 44 -105 50 -50 3 -141 10 -202 16 -152 14 -295 20
-295 12z"/>
<path d="M7190 479 l-35 -6 42 -2 c23 0 48 -4 57 -7 9 -3 16 -2 16 4 0 13 -38
19 -80 11z"/>
<path d="M9942 283 c-22 -9 -2 -23 34 -23 38 0 46 15 12 24 -26 6 -28 6 -46
-1z"/>
<path d="M3830 268 c0 -4 -13 -8 -29 -8 -17 0 -33 -4 -36 -10 -6 -9 101 -15
178 -10 16 1 49 -3 75 -9 65 -14 217 -21 228 -11 5 5 20 10 34 13 31 5 -52 11
-132 9 -33 -1 -58 2 -58 8 0 5 -7 10 -15 10 -8 0 -15 5 -15 10 0 7 -43 10
-115 9 -63 -1 -115 -6 -115 -11z"/>
<path d="M12488 259 c-14 -9 56 -29 100 -29 23 0 32 4 30 13 -5 13 -112 27
-130 16z"/>
<path d="M9327 239 c-5 -20 5 -23 37 -10 20 7 16 13 -16 24 -10 4 -18 -1 -21
-14z"/>
<path d="M10115 240 c3 -5 18 -10 33 -10 21 0 24 2 12 10 -20 13 -53 13 -45 0z"/>
<path d="M4790 210 c0 -6 25 -9 58 -9 56 1 57 1 17 10 -55 11 -75 11 -75 -1z"/>
<path d="M11155 200 c-4 -6 9 -10 32 -9 30 0 34 2 18 9 -27 12 -43 12 -50 0z"/>
<path d="M3923 183 c-24 -2 -43 -8 -43 -13 0 -10 164 -18 206 -10 29 6 29 6 7
18 -21 11 -78 13 -170 5z"/>
<path d="M3708 168 c9 -9 15 -9 24 0 9 9 7 12 -12 12 -19 0 -21 -3 -12 -12z"/>
<path d="M3785 170 c-15 -7 -9 -9 24 -9 24 -1 41 2 37 6 -10 11 -39 12 -61 3z"/>
</g>
</svg>
